# Exported from Wings 3D 1.0.1
mtllib topspin.mtl
o Box01_sep21
#21 vertices, 23 faces
v -1.19900000 5.00099993 -5.75099993
v -2.09900022 5.00099993 -7.30984545
v -3.89900017 5.00099993 -7.30984545
v -4.79900026 5.00099993 -5.75099993
v -3.89899993 5.00099993 -4.19215441
v -2.09899998 5.00099993 -4.19215441
v -1.19900000 5.69330788 -5.75100040
v -2.09900022 5.69330788 -7.30984592
v -3.89900017 5.69330788 -7.30984592
v -4.79900026 5.69330788 -5.75099993
v -3.89899993 5.69330788 -4.19215441
v -2.09899998 5.69330788 -4.19215488
v -2.07961249 7.00099993 -5.75100040
v -2.53930640 7.00099993 -6.54721355
v -3.45869398 7.00099993 -6.54721355
v -3.91838765 7.00099993 -5.75100040
v -3.45869374 7.00099993 -4.95478773
v -2.53930616 7.00099993 -4.95478773
v 0.40072972 9.00100040 -3.78816533
v -2.99900031 9.00099850 -9.67666912
v -6.39872885 9.00100040 -3.78816485
vt 0.59130615 0.52433795
vt 0.62778747 0.45220137
vt 0.64472413 0.42286631
vt 0.64472413 0.48153645
vt 0.67859733 0.42286631
vt 0.67859733 0.48153645
vt 0.69224703 0.41745254
vt 0.69553405 0.45220137
vt 0.71039742 0.46563226
vt 0.73991466 0.49069577
vt 0.73991466 0.55701363
vt 0.74275768 0.46563226
vt 0.76169461 0.41745254
vt 0.80585152 0.65531385
vt 0.80585229 0.71407318
vt 0.81345183 0.86893004
vt 0.90597868 0.60928440
vt 0.90870619 0.60456026
vt 0.90870619 0.61400855
vt 0.91416115 0.60456026
vt 0.91416115 0.61400855
vt 0.91688859 0.60928440
vt 0.95322478 0.68608081
vt 0.95890307 0.71281517
vt 0.96018147 0.78286707
vt 0.99232018 0.78286731
vt 0.99360025 0.71281552
vn 0.0000000e+0 -1.00000000 -2.1102473e-16
vn 0.86602532 -3.4438236e-7 -0.50000014
vn 0.74532398 -0.50923751 0.43031305
vn 0.77516134 -4.3513616e-7 -0.63176332
vn 0.0000000e+0 -1.00000000 -2.1102473e-16
vn 0.86602532 -3.4438236e-7 -0.50000014
vn 0.0000000e+0 -0.50923765 -0.86062595
vn 0.93470381 -2.4480593e-7 -0.35542762
vn 0.0000000e+0 -1.00000000 -2.1102473e-16
vn -0.86602539 -1.7219114e-7 -0.50000003
vn 0.0000000e+0 -0.50923765 -0.86062595
vn -0.93470384 -2.4480588e-7 -0.35542753
vn 0.0000000e+0 -1.00000000 -2.1102473e-16
vn -0.86602539 -1.7219114e-7 -0.50000003
vn -0.74532396 -0.50923741 0.43031320
vn -0.77516120 0.0000000e+0 -0.63176349
vn 0.0000000e+0 -1.00000000 -2.1102473e-16
vn 1.3245477e-7 3.4438226e-7 1.00000000
vn -0.74532396 -0.50923741 0.43031320
vn 0.15954323 0.0000000e+0 0.98719094
vn 0.0000000e+0 -1.00000000 -2.1102473e-16
vn 1.3245477e-7 3.4438226e-7 1.00000000
vn 0.74532398 -0.50923751 0.43031305
vn -0.15954406 6.7994201e-7 0.98719081
vn 0.86602532 -3.4438236e-7 -0.50000014
vn 0.74810115 0.50377851 -0.43191652
vn 0.74810115 0.50377857 0.43191645
vn 0.77516134 -4.3513616e-7 -0.63176332
vn -0.70429196 0.58191958 -0.40662320
vn 0.86602532 -3.4438236e-7 -0.50000014
vn 0.74810115 0.50377851 -0.43191652
vn 0.0000000e+0 0.50377837 -0.86383294
vn 0.93470381 -2.4480593e-7 -0.35542762
vn 0.0000000e+0 0.58191965 0.81324628
vn -0.86602539 -1.7219114e-7 -0.50000003
vn 0.0000000e+0 0.50377837 -0.86383294
vn -0.74810126 0.50377848 -0.43191638
vn 0.0000000e+0 0.58191965 0.81324628
vn -0.93470384 -2.4480588e-7 -0.35542753
vn -0.86602539 -1.7219114e-7 -0.50000003
vn -0.74810126 0.50377848 -0.43191638
vn -0.74810100 0.50377871 0.43191655
vn -0.77516120 0.0000000e+0 -0.63176349
vn 0.70429198 0.58191945 -0.40662337
vn 1.3245477e-7 3.4438226e-7 1.00000000
vn -0.74810100 0.50377871 0.43191655
vn 1.5147071e-7 0.50377872 0.86383274
vn 0.70429198 0.58191945 -0.40662337
vn 0.15954323 0.0000000e+0 0.98719094
vn 1.3245477e-7 3.4438226e-7 1.00000000
vn 1.5147071e-7 0.50377872 0.86383274
vn 0.74810115 0.50377857 0.43191645
vn -0.15954406 6.7994201e-7 0.98719081
vn -0.70429196 0.58191958 -0.40662320
vn 0.74810115 0.50377851 -0.43191652
vn 0.74810115 0.50377857 0.43191645
vn 0.0000000e+0 1.00000000 0.0000000e+0
vn 0.74810115 0.50377851 -0.43191652
vn 0.0000000e+0 0.50377837 -0.86383294
vn 0.0000000e+0 1.00000000 0.0000000e+0
vn 0.0000000e+0 0.50377837 -0.86383294
vn -0.74810126 0.50377848 -0.43191638
vn 0.0000000e+0 1.00000000 0.0000000e+0
vn -0.74810126 0.50377848 -0.43191638
vn -0.74810100 0.50377871 0.43191655
vn 0.0000000e+0 1.00000000 0.0000000e+0
vn -0.74810100 0.50377871 0.43191655
vn 1.5147071e-7 0.50377872 0.86383274
vn 0.0000000e+0 1.00000000 0.0000000e+0
vn 1.5147071e-7 0.50377872 0.86383274
vn 0.74810115 0.50377857 0.43191645
vn 0.0000000e+0 1.00000000 0.0000000e+0
vn 0.74532398 -0.50923751 0.43031305
vn 0.77516134 -4.3513616e-7 -0.63176332
vn -0.15954406 6.7994201e-7 0.98719081
vn -0.70429196 0.58191958 -0.40662320
vn 0.0000000e+0 -0.50923765 -0.86062595
vn 0.93470381 -2.4480593e-7 -0.35542762
vn 0.0000000e+0 0.58191965 0.81324628
vn -0.93470384 -2.4480588e-7 -0.35542753
vn -0.74532396 -0.50923741 0.43031320
vn -0.77516120 0.0000000e+0 -0.63176349
vn 0.70429198 0.58191945 -0.40662337
vn 0.15954323 0.0000000e+0 0.98719094
g Box01_sep21_01 - Default
usemtl 01 - Default
f 1/17/1 6/18/21 5/20/17 4/22/13 3/21/9 2/19/5
f 1/15/3 19/23/73 6/14/23
f 2/26/6 8/25/30 7/24/25 1/27/2
f 2/26/8 20/16/78 8/25/33
f 3/14/11 20/23/77 2/15/7
f 4/26/14 10/25/40 9/24/35 3/27/10
f 4/26/16 21/16/82 10/25/43
f 5/14/19 21/23/81 4/15/15
f 6/26/22 12/25/50 11/24/45 5/27/18
f 6/26/24 19/16/75 12/25/53
f 7/13/27 13/12/56 18/9/71 12/7/52
f 7/25/28 19/16/74 1/26/4
f 8/7/31 14/9/58 13/12/55 7/13/26
f 8/10/34 20/1/79 9/11/38
f 9/7/36 15/9/61 14/12/59 8/13/32
f 9/25/39 20/16/80 3/26/12
f 10/13/41 16/12/64 15/9/62 9/7/37
f 10/10/44 21/1/83 11/11/48
f 11/7/46 17/9/67 16/12/65 10/13/42
f 11/25/49 21/16/84 5/26/20
f 12/7/51 18/9/70 17/12/68 11/13/47
f 12/10/54 19/1/76 7/11/29
f 14/3/60 15/5/63 16/8/66 17/6/69 18/4/72 13/2/57
