# Exported from Wings 3D 0.99.04a
mtllib barrel1.mtl
o cube1_sep12
#12 vertices, 8 faces
v -2.10304689 2.91623521 8.8473596e-3
v -2.10240912 2.85928941 0.10748114
v -2.10113311 2.74539781 0.10748114
v -2.10049510 2.68845177 8.8473596e-3
v -2.10113311 2.74539781 -8.9786418e-2
v -2.10240912 2.85928941 -8.9786418e-2
v -0.87221783 2.91710973 8.8473596e-3
v -0.87157989 2.86016393 0.10748114
v -0.87030393 2.74627233 0.10748114
v -0.86966598 2.68932652 8.8473596e-3
v -0.87030393 2.74627233 -8.9786418e-2
v -0.87157989 2.86016393 -8.9786418e-2
vt 0.65954101 0.81318462
vt 0.65958929 0.81315148
vt 0.65958929 0.83033031
vt 0.65968585 0.81308526
vt 0.65968585 0.83039653
vt 0.65973419 0.83042961
vt 0.73055494 0.75248516
vt 0.73055494 0.78593194
vt 0.75951904 0.73576182
vt 0.75951904 0.80265534
vt 0.78848320 0.75248516
vt 0.78848320 0.78593194
vt 0.84590787 0.81305218
vt 0.84595615 0.81308526
vt 0.84595615 0.83039653
vt 0.84605277 0.81315148
vt 0.84605277 0.83033031
vt 0.84610105 0.83029717
vn -0.99993725 -1.1202370e-2 0.0000000e+0
vn -7.1051220e-4 0.99999975 -1.6354417e-8
vn -7.1051220e-4 0.99999975 -1.6354417e-8
vn -0.99993725 -1.1202370e-2 0.0000000e+0
vn -3.5525611e-4 0.49999988 0.86602540
vn -3.5525611e-4 0.49999988 0.86602540
vn -0.99993725 -1.1202370e-2 0.0000000e+0
vn 3.5530425e-4 -0.49999949 0.86602563
vn 3.5530425e-4 -0.49999949 0.86602563
vn -0.99993725 -1.1202370e-2 0.0000000e+0
vn 7.1060905e-4 -0.99999975 -1.6354434e-8
vn 7.1060905e-4 -0.99999975 -1.6354434e-8
vn -0.99993725 -1.1202370e-2 0.0000000e+0
vn 3.5530424e-4 -0.49999948 -0.86602563
vn 3.5530424e-4 -0.49999948 -0.86602563
vn -0.99993725 -1.1202370e-2 0.0000000e+0
vn -3.5525610e-4 0.49999987 -0.86602541
vn -3.5525610e-4 0.49999987 -0.86602541
vn 0.99993725 1.1202377e-2 0.0000000e+0
vn -7.1051220e-4 0.99999975 -1.6354417e-8
vn -7.1051220e-4 0.99999975 -1.6354417e-8
vn 0.99993725 1.1202377e-2 0.0000000e+0
vn -3.5525611e-4 0.49999988 0.86602540
vn -3.5525611e-4 0.49999988 0.86602540
vn 0.99993725 1.1202377e-2 0.0000000e+0
vn 3.5530425e-4 -0.49999949 0.86602563
vn 3.5530425e-4 -0.49999949 0.86602563
vn 0.99993725 1.1202377e-2 0.0000000e+0
vn 7.1060905e-4 -0.99999975 -1.6354434e-8
vn 7.1060905e-4 -0.99999975 -1.6354434e-8
vn 0.99993725 1.1202377e-2 0.0000000e+0
vn 3.5530424e-4 -0.49999948 -0.86602563
vn 3.5530424e-4 -0.49999948 -0.86602563
vn 0.99993725 1.1202377e-2 0.0000000e+0
vn -3.5525610e-4 0.49999987 -0.86602541
vn -3.5525610e-4 0.49999987 -0.86602541
g cube1_sep12_default
usemtl default
f 1/10/1 6/8/16 5/7/13 4/9/10 3/11/7 2/12/4
f 1/16/2 7/4/20 12/3/35 6/15/17
f 2/14/6 8/2/24 7/5/21 1/17/3
f 3/13/9 9/1/27 8/6/23 2/18/5
f 4/15/12 10/3/30 9/4/26 3/16/8
f 5/17/15 11/5/33 10/2/29 4/14/11
f 6/18/18 12/6/36 11/1/32 5/13/14
f 8/8/22 9/7/25 10/9/28 11/11/31 12/12/34 7/10/19
o cube1_sep11
#12 vertices, 8 faces
v -2.10304689 2.55349350 -0.21676032
v -2.10240912 2.49654746 -0.11812654
v -2.10113311 2.38265586 -0.11812654
v -2.10049510 2.32571006 -0.21676032
v -2.10113311 2.38265586 -0.31539410
v -2.10240912 2.49654746 -0.31539410
v -0.87221783 2.55436802 -0.21676032
v -0.87157989 2.49742222 -0.11812654
v -0.87030393 2.38353062 -0.11812654
v -0.86966598 2.32658482 -0.21676032
v -0.87030393 2.38353062 -0.31539410
v -0.87157989 2.49742222 -0.31539410
vt 0.65954101 0.81318462
vt 0.65958929 0.81315148
vt 0.65958929 0.83033031
vt 0.65968585 0.81308526
vt 0.65968585 0.83039653
vt 0.65973419 0.83042961
vt 0.73055494 0.75248516
vt 0.73055494 0.78593194
vt 0.75951904 0.73576182
vt 0.75951904 0.80265534
vt 0.78848320 0.75248516
vt 0.78848320 0.78593194
vt 0.84590787 0.81305218
vt 0.84595615 0.81308526
vt 0.84595615 0.83039653
vt 0.84605277 0.81315148
vt 0.84605277 0.83033031
vt 0.84610105 0.83029717
vn -0.99993725 -1.1202370e-2 0.0000000e+0
vn -7.1060905e-4 0.99999975 0.0000000e+0
vn -7.1060905e-4 0.99999975 0.0000000e+0
vn -0.99993725 -1.1202370e-2 0.0000000e+0
vn -3.5530425e-4 0.49999948 0.86602563
vn -3.5530425e-4 0.49999948 0.86602563
vn -0.99993725 -1.1202370e-2 0.0000000e+0
vn 3.5535295e-4 -0.49999987 0.86602540
vn 3.5535295e-4 -0.49999987 0.86602540
vn -0.99993725 -1.1202370e-2 0.0000000e+0
vn 7.1070591e-4 -0.99999975 -1.6024689e-16
vn 7.1070591e-4 -0.99999975 -1.6024689e-16
vn -0.99993725 -1.1202370e-2 0.0000000e+0
vn 3.5535295e-4 -0.49999987 -0.86602540
vn 3.5535295e-4 -0.49999987 -0.86602540
vn -0.99993725 -1.1202370e-2 0.0000000e+0
vn -3.5530425e-4 0.49999948 -0.86602563
vn -3.5530425e-4 0.49999948 -0.86602563
vn 0.99993725 1.1202377e-2 0.0000000e+0
vn -7.1060905e-4 0.99999975 0.0000000e+0
vn -7.1060905e-4 0.99999975 0.0000000e+0
vn 0.99993725 1.1202377e-2 0.0000000e+0
vn -3.5530425e-4 0.49999948 0.86602563
vn -3.5530425e-4 0.49999948 0.86602563
vn 0.99993725 1.1202377e-2 0.0000000e+0
vn 3.5535295e-4 -0.49999987 0.86602540
vn 3.5535295e-4 -0.49999987 0.86602540
vn 0.99993725 1.1202377e-2 0.0000000e+0
vn 7.1070591e-4 -0.99999975 -1.6024689e-16
vn 7.1070591e-4 -0.99999975 -1.6024689e-16
vn 0.99993725 1.1202377e-2 0.0000000e+0
vn 3.5535295e-4 -0.49999987 -0.86602540
vn 3.5535295e-4 -0.49999987 -0.86602540
vn 0.99993725 1.1202377e-2 0.0000000e+0
vn -3.5530425e-4 0.49999948 -0.86602563
vn -3.5530425e-4 0.49999948 -0.86602563
g cube1_sep11_default
usemtl default
f 13/28/37 18/26/52 17/25/49 16/27/46 15/29/43 14/30/40
f 13/34/38 19/22/56 24/21/71 18/33/53
f 14/32/42 20/20/60 19/23/57 13/35/39
f 15/31/45 21/19/63 20/24/59 14/36/41
f 16/33/48 22/21/66 21/22/62 15/34/44
f 17/35/51 23/23/69 22/20/65 16/32/47
f 18/36/54 24/24/72 23/19/68 17/31/50
f 20/26/58 21/25/61 22/27/64 23/29/67 24/30/70 19/28/55
o cube1_sep10
#12 vertices, 8 faces
v -2.10304689 2.55349350 0.21676032
v -2.10240912 2.49654746 0.31539410
v -2.10113311 2.38265586 0.31539410
v -2.10049510 2.32571006 0.21676032
v -2.10113311 2.38265586 0.11812654
v -2.10240912 2.49654746 0.11812654
v -0.87221783 2.55436802 0.21676032
v -0.87157989 2.49742222 0.31539410
v -0.87030393 2.38353062 0.31539410
v -0.86966598 2.32658482 0.21676032
v -0.87030393 2.38353062 0.11812654
v -0.87157989 2.49742222 0.11812654
vt 0.65954101 0.81318462
vt 0.65958929 0.81315148
vt 0.65958929 0.83033031
vt 0.65968585 0.81308526
vt 0.65968585 0.83039653
vt 0.65973419 0.83042961
vt 0.73055494 0.75248516
vt 0.73055494 0.78593194
vt 0.75951904 0.73576182
vt 0.75951904 0.80265534
vt 0.78848320 0.75248516
vt 0.78848320 0.78593194
vt 0.84590787 0.81305218
vt 0.84595615 0.81308526
vt 0.84595615 0.83039653
vt 0.84605277 0.81315148
vt 0.84605277 0.83033031
vt 0.84610105 0.83029717
vn -0.99993725 -1.1202370e-2 0.0000000e+0
vn -7.1060905e-4 0.99999975 6.4098790e-17
vn -7.1060905e-4 0.99999975 6.4098790e-17
vn -0.99993725 -1.1202370e-2 0.0000000e+0
vn -3.5530425e-4 0.49999948 0.86602563
vn -3.5530425e-4 0.49999948 0.86602563
vn -0.99993725 -1.1202370e-2 0.0000000e+0
vn 3.5535295e-4 -0.49999987 0.86602540
vn 3.5535295e-4 -0.49999987 0.86602540
vn -0.99993725 -1.1202370e-2 0.0000000e+0
vn 7.1070591e-4 -0.99999975 -1.6024689e-16
vn 7.1070591e-4 -0.99999975 -1.6024689e-16
vn -0.99993725 -1.1202370e-2 0.0000000e+0
vn 3.5535295e-4 -0.49999987 -0.86602540
vn 3.5535295e-4 -0.49999987 -0.86602540
vn -0.99993725 -1.1202370e-2 0.0000000e+0
vn -3.5530425e-4 0.49999948 -0.86602563
vn -3.5530425e-4 0.49999948 -0.86602563
vn 0.99993725 1.1202377e-2 0.0000000e+0
vn -7.1060905e-4 0.99999975 6.4098790e-17
vn -7.1060905e-4 0.99999975 6.4098790e-17
vn 0.99993725 1.1202377e-2 0.0000000e+0
vn -3.5530425e-4 0.49999948 0.86602563
vn -3.5530425e-4 0.49999948 0.86602563
vn 0.99993725 1.1202377e-2 0.0000000e+0
vn 3.5535295e-4 -0.49999987 0.86602540
vn 3.5535295e-4 -0.49999987 0.86602540
vn 0.99993725 1.1202377e-2 0.0000000e+0
vn 7.1070591e-4 -0.99999975 -1.6024689e-16
vn 7.1070591e-4 -0.99999975 -1.6024689e-16
vn 0.99993725 1.1202377e-2 0.0000000e+0
vn 3.5535295e-4 -0.49999987 -0.86602540
vn 3.5535295e-4 -0.49999987 -0.86602540
vn 0.99993725 1.1202377e-2 0.0000000e+0
vn -3.5530425e-4 0.49999948 -0.86602563
vn -3.5530425e-4 0.49999948 -0.86602563
g cube1_sep10_default
usemtl default
f 25/46/73 30/44/88 29/43/85 28/45/82 27/47/79 26/48/76
f 25/52/74 31/40/92 36/39/107 30/51/89
f 26/50/78 32/38/96 31/41/93 25/53/75
f 27/49/81 33/37/99 32/42/95 26/54/77
f 28/51/84 34/39/102 33/40/98 27/52/80
f 29/53/87 35/41/105 34/38/101 28/50/83
f 30/54/90 36/42/108 35/37/104 29/49/86
f 32/44/94 33/43/97 34/45/100 35/47/103 36/48/106 31/46/91
o cube1_sep9
#12 vertices, 8 faces
v -0.88339680 3.01353598 6.8621881e-18
v -0.88320476 2.79451346 0.37936071
v -0.88282073 2.35646868 0.37936071
v -0.88262868 2.13744640 6.0509373e-17
v -0.88282073 2.35646868 -0.37936071
v -0.88320476 2.79451346 -0.37936071
v -0.68335402 3.01689982 6.8621830e-18
v -0.68316197 2.79787755 0.37936071
v -0.68277794 2.35983276 0.37936071
v -0.68258590 2.14081025 6.0509354e-17
v -0.68277794 2.35983276 -0.37936071
v -0.68316197 2.79787755 -0.37936071
vt 0.45310635 0.82950039
vt 0.45310635 0.88542782
vt 0.50154126 0.80153668
vt 0.50154126 0.91339153
vt 0.54997618 0.82950039
vt 0.54997618 0.88542782
vt 0.75988060 0.51685381
vt 0.75988060 0.72203207
vt 0.75992095 0.51645631
vt 0.75992095 0.72242957
vt 0.76001155 0.51566237
vt 0.76001155 0.72322351
vt 0.76006192 0.51526600
vt 0.76006192 0.72361988
vt 0.85430491 0.51526600
vt 0.85430491 0.72361988
vt 0.85435522 0.51566237
vt 0.85435522 0.72322351
vt 0.85444587 0.51645631
vt 0.85444587 0.72242957
vt 0.85448617 0.51685381
vt 0.85448617 0.72203207
vn -0.99999962 -8.7674242e-4 0.0000000e+0
vn -1.6813860e-2 0.99985864 -1.2819322e-16
vn -1.6813860e-2 0.99985864 -1.2819322e-16
vn -0.99999962 -8.7674242e-4 0.0000000e+0
vn -8.4073525e-3 0.49995444 0.86601090
vn -8.4073525e-3 0.49995444 0.86601090
vn -0.99999962 -8.7674242e-4 0.0000000e+0
vn 8.4073525e-3 -0.49995444 0.86601090
vn 8.4073525e-3 -0.49995444 0.86601090
vn -0.99999962 -8.7674242e-4 0.0000000e+0
vn 1.6813860e-2 -0.99985864 -6.4096609e-17
vn 1.6813860e-2 -0.99985864 -6.4096609e-17
vn -0.99999962 -8.7674242e-4 0.0000000e+0
vn 8.4073525e-3 -0.49995444 -0.86601090
vn 8.4073525e-3 -0.49995444 -0.86601090
vn -0.99999962 -8.7674242e-4 0.0000000e+0
vn -8.4073525e-3 0.49995444 -0.86601090
vn -8.4073525e-3 0.49995444 -0.86601090
vn 0.99999962 8.7674242e-4 0.0000000e+0
vn -1.6813860e-2 0.99985864 -1.2819322e-16
vn -1.6813860e-2 0.99985864 -1.2819322e-16
vn 0.99999962 8.7674242e-4 0.0000000e+0
vn -8.4073525e-3 0.49995444 0.86601090
vn -8.4073525e-3 0.49995444 0.86601090
vn 0.99999962 8.7674242e-4 0.0000000e+0
vn 8.4073525e-3 -0.49995444 0.86601090
vn 8.4073525e-3 -0.49995444 0.86601090
vn 0.99999962 8.7674242e-4 0.0000000e+0
vn 1.6813860e-2 -0.99985864 -6.4096609e-17
vn 1.6813860e-2 -0.99985864 -6.4096609e-17
vn 0.99999962 8.7674242e-4 0.0000000e+0
vn 8.4073525e-3 -0.49995444 -0.86601090
vn 8.4073525e-3 -0.49995444 -0.86601090
vn 0.99999962 8.7674242e-4 0.0000000e+0
vn -8.4073525e-3 0.49995444 -0.86601090
vn -8.4073525e-3 0.49995444 -0.86601090
g cube1_sep9_default
usemtl default
f 37/58/109 42/56/124 41/55/121 40/57/118 39/59/115 38/60/112
f 37/63/110 43/71/128 48/74/143 42/66/125
f 38/65/114 44/73/132 43/72/129 37/64/111
f 39/67/117 45/75/135 44/70/131 38/62/113
f 40/72/120 46/64/138 45/65/134 39/73/116
f 41/74/123 47/66/141 46/63/137 40/71/119
f 42/76/126 48/68/144 47/61/140 41/69/122
f 44/56/130 45/55/133 46/57/136 47/59/139 48/60/142 43/58/127
o cube1_sep8
#12 vertices, 8 faces
v -1.85165620 3.01353598 6.8621881e-18
v -1.85157514 2.79451346 0.37936071
v -1.85141313 2.35646868 0.37936071
v -1.85133207 2.13744640 6.0509373e-17
v -1.85141313 2.35646868 -0.37936071
v -1.85157514 2.79451346 -0.37936071
v -1.76723814 3.01689982 6.8621830e-18
v -1.76715708 2.79787755 0.37936071
v -1.76699507 2.35983276 0.37936071
v -1.76691401 2.14081025 6.0509354e-17
v -1.76699507 2.35983276 -0.37936071
v -1.76715708 2.79787755 -0.37936071
vt 0.45310635 0.82950039
vt 0.45310635 0.88542782
vt 0.50154126 0.80153668
vt 0.50154126 0.91339153
vt 0.54997618 0.82950039
vt 0.54997618 0.88542782
vt 0.71261537 0.51736176
vt 0.71261537 0.72253996
vt 0.71262264 0.51696420
vt 0.71262264 0.72293746
vt 0.71266091 0.51617026
vt 0.71266091 0.72373140
vt 0.71269184 0.51577389
vt 0.71269184 0.72412783
vt 0.75246239 0.51577389
vt 0.75246239 0.72412783
vt 0.75249338 0.51617026
vt 0.75249338 0.72373140
vt 0.75253165 0.51696420
vt 0.75253165 0.72293746
vt 0.75253892 0.51736176
vt 0.75253892 0.72253996
vn -0.99999993 -3.6992827e-4 0.0000000e+0
vn -3.9817301e-2 0.99920698 -1.9225851e-16
vn -3.9817301e-2 0.99920698 -1.9225851e-16
vn -0.99999993 -3.6992827e-4 0.0000000e+0
vn -1.9914517e-2 0.49975070 0.86594033
vn -1.9914517e-2 0.49975070 0.86594033
vn -0.99999993 -3.6992827e-4 0.0000000e+0
vn 1.9914517e-2 -0.49975070 0.86594033
vn 1.9914517e-2 -0.49975070 0.86594033
vn -0.99999993 -3.6992827e-4 0.0000000e+0
vn 3.9817301e-2 -0.99920698 -1.6021543e-16
vn 3.9817301e-2 -0.99920698 -1.6021543e-16
vn -0.99999993 -3.6992827e-4 0.0000000e+0
vn 1.9914517e-2 -0.49975070 -0.86594033
vn 1.9914517e-2 -0.49975070 -0.86594033
vn -0.99999993 -3.6992827e-4 0.0000000e+0
vn -1.9914517e-2 0.49975070 -0.86594033
vn -1.9914517e-2 0.49975070 -0.86594033
vn 0.99999993 3.6992827e-4 0.0000000e+0
vn -3.9817301e-2 0.99920698 -1.9225851e-16
vn -3.9817301e-2 0.99920698 -1.9225851e-16
vn 0.99999993 3.6992827e-4 0.0000000e+0
vn -1.9914517e-2 0.49975070 0.86594033
vn -1.9914517e-2 0.49975070 0.86594033
vn 0.99999993 3.6992827e-4 0.0000000e+0
vn 1.9914517e-2 -0.49975070 0.86594033
vn 1.9914517e-2 -0.49975070 0.86594033
vn 0.99999993 3.6992827e-4 0.0000000e+0
vn 3.9817301e-2 -0.99920698 -1.6021543e-16
vn 3.9817301e-2 -0.99920698 -1.6021543e-16
vn 0.99999993 3.6992827e-4 0.0000000e+0
vn 1.9914517e-2 -0.49975070 -0.86594033
vn 1.9914517e-2 -0.49975070 -0.86594033
vn 0.99999993 3.6992827e-4 0.0000000e+0
vn -1.9914517e-2 0.49975070 -0.86594033
vn -1.9914517e-2 0.49975070 -0.86594033
g cube1_sep8_default
usemtl default
f 49/80/145 54/78/160 53/77/157 52/79/154 51/81/151 50/82/148
f 49/85/146 55/93/164 60/96/179 54/88/161
f 50/87/150 56/95/168 55/94/165 49/86/147
f 51/89/153 57/97/171 56/92/167 50/84/149
f 52/94/156 58/86/174 57/87/170 51/95/152
f 53/96/159 59/88/177 58/85/173 52/93/155
f 54/98/162 60/90/180 59/83/176 53/91/158
f 56/78/166 57/77/169 58/79/172 59/81/175 60/82/178 55/80/163
