# Exported from Wings 3D 0.99.04a
mtllib rotator.mtl
o cube1_sep7
#16 vertices, 10 faces
v -6.0864002e-2 2.56169581 -0.62011254
v -0.16630556 2.81625414 -0.61979300
v -0.42086399 2.92169571 -0.61966062
v -0.67542243 2.81625414 -0.61979300
v -0.78086400 2.56169581 -0.62011254
v -0.67542243 2.30713749 -0.62043202
v -0.42086399 2.20169592 -0.62056440
v -0.16630556 2.30713749 -0.62043202
v -6.0864002e-2 2.56119323 0.64727986
v -0.16630556 2.81575155 0.64759940
v -0.42086399 2.92119312 0.64773172
v -0.67542243 2.81575155 0.64759940
v -0.78086400 2.56119323 0.64727986
v -0.67542243 2.30663490 0.64696032
v -0.42086399 2.20119333 0.64682794
v -0.16630556 2.30663490 0.64696032
vt 1.5919323e-2 0.72963291
vt 2.2097280e-2 0.71471807
vt 2.2097280e-2 0.74454776
vt 3.7012193e-2 0.70854008
vt 3.7012193e-2 0.75072574
vt 5.1927092e-2 0.71471807
vt 5.1927092e-2 0.74454776
vt 5.8105048e-2 0.72963291
vt 0.69609642 0.98446512
vt 0.69609645 0.98446512
vt 0.69611478 0.94039190
vt 0.69611478 0.98450232
vt 0.69612926 0.94039190
vt 0.69612926 0.98450232
vt 0.69614759 0.94035470
vt 0.69614762 0.94035470
vt 0.89899555 0.98453951
vt 0.89899558 0.98453951
vt 0.89901394 0.94039190
vt 0.89901394 0.98450232
vt 0.89902842 0.94039190
vt 0.89902842 0.98450232
vt 0.89904672 0.94042909
vt 0.89904675 0.94042909
vn 7.5718163e-17 1.2552064e-3 -0.99999921
vn 1.00000000 -8.2048849e-12 -1.9344788e-12
vn 1.00000000 -8.2048849e-12 -1.9344788e-12
vn 7.5718163e-17 1.2552064e-3 -0.99999921
vn 0.70710685 0.70710665 2.8040421e-4
vn 0.70710685 0.70710665 2.8040421e-4
vn 7.5718163e-17 1.2552064e-3 -0.99999921
vn 1.0348033e-8 0.99999992 3.9655148e-4
vn 1.0348033e-8 0.99999992 3.9655148e-4
vn 7.5718163e-17 1.2552064e-3 -0.99999921
vn -0.70710683 0.70710668 2.8040422e-4
vn -0.70710683 0.70710668 2.8040422e-4
vn 7.5718163e-17 1.2552064e-3 -0.99999921
vn -1.00000000 -8.2048250e-12 -1.9344791e-12
vn -1.00000000 -8.2048250e-12 -1.9344791e-12
vn 7.5718163e-17 1.2552064e-3 -0.99999921
vn -0.70710683 -0.70710668 -2.8040423e-4
vn -0.70710683 -0.70710668 -2.8040423e-4
vn 7.5718163e-17 1.2552064e-3 -0.99999921
vn 1.0348033e-8 -0.99999992 -3.9655149e-4
vn 1.0348033e-8 -0.99999992 -3.9655149e-4
vn 7.5718163e-17 1.2552064e-3 -0.99999921
vn 0.70710685 -0.70710665 -2.8040422e-4
vn 0.70710685 -0.70710665 -2.8040422e-4
vn 7.5718163e-17 -1.2552649e-3 0.99999921
vn 1.00000000 -8.2048849e-12 -1.9344788e-12
vn 1.00000000 -8.2048849e-12 -1.9344788e-12
vn 7.5718163e-17 -1.2552649e-3 0.99999921
vn 0.70710685 0.70710665 2.8040421e-4
vn 0.70710685 0.70710665 2.8040421e-4
vn 7.5718163e-17 -1.2552649e-3 0.99999921
vn 1.0348033e-8 0.99999992 3.9655148e-4
vn 1.0348033e-8 0.99999992 3.9655148e-4
vn 7.5718163e-17 -1.2552649e-3 0.99999921
vn -0.70710683 0.70710668 2.8040422e-4
vn -0.70710683 0.70710668 2.8040422e-4
vn 7.5718163e-17 -1.2552649e-3 0.99999921
vn -1.00000000 -8.2048250e-12 -1.9344791e-12
vn -1.00000000 -8.2048250e-12 -1.9344791e-12
vn 7.5718163e-17 -1.2552649e-3 0.99999921
vn -0.70710683 -0.70710668 -2.8040423e-4
vn -0.70710683 -0.70710668 -2.8040423e-4
vn 7.5718163e-17 -1.2552649e-3 0.99999921
vn 1.0348033e-8 -0.99999992 -3.9655149e-4
vn 1.0348033e-8 -0.99999992 -3.9655149e-4
vn 7.5718163e-17 -1.2552649e-3 0.99999921
vn 0.70710685 -0.70710665 -2.8040422e-4
vn 0.70710685 -0.70710665 -2.8040422e-4
g cube1_sep7_default
usemtl default
f 1/1/1 8/2/22 7/4/19 6/6/16 5/8/13 4/7/10 3/5/7 2/3/4
f 1/18/2 9/9/26 16/16/47 8/23/23
f 2/18/6 10/9/30 9/16/27 1/23/3
f 3/20/9 11/12/33 10/13/29 2/21/5
f 4/22/12 12/14/36 11/11/32 3/19/8
f 5/24/15 13/15/39 12/10/35 4/17/11
f 6/24/18 14/15/42 13/10/38 5/17/14
f 7/22/21 15/14/45 14/11/41 6/19/17
f 8/20/24 16/12/48 15/13/44 7/21/20
f 10/7/28 11/5/31 12/3/34 13/1/37 14/2/40 15/4/43 16/6/46 9/8/25
