# Exported from Wings 3D 1.0.1
mtllib rotator.mtl
o Cylinder02_sep2
#34 vertices, 40 faces
v 0.38852575 0.99964124 4.3695707e-8
v 0.19426288 0.99964124 -0.37772134
v -0.19426291 0.99964124 -0.37772134
v -0.38852575 0.99964124 8.1825597e-8
v -0.19426285 0.99964124 0.37772143
v 0.19426291 0.99964124 0.37772140
v 0.28610671 1.96036816 4.3695707e-8
v 0.14305334 1.96036816 -0.27815044
v -0.14305337 1.96036816 -0.27815041
v -0.28610671 1.96036816 7.1774196e-8
v -0.14305332 1.96036816 0.27815053
v 0.14305338 1.96036816 0.27815050
v 0.28610671 2.92109513 4.3695707e-8
v 0.14305334 2.92109513 -0.27815044
v -0.14305337 2.92109513 -0.27815041
v -0.28610671 2.92109513 7.1774196e-8
v -0.14305332 2.92109513 0.27815053
v 0.14305338 2.92109513 0.27815050
v 0.0000000e+0 3.88182187 4.3695707e-8
v -0.14305326 2.32108569 1.08922768
v 0.14305344 2.32108569 1.08922768
v -0.14305325 3.12235117 0.75148088
v 0.14305346 3.12235117 0.75148088
v 9.4593084e-8 2.96252728 1.54457092
v -0.14305326 3.66909146 0.92051142
v 0.14305346 3.66909146 0.92051142
v 9.3793098e-8 4.08323908 1.56287229
v 1.2390745e-7 5.80327511 0.55275553
v 0.14305332 2.36381960 -0.88624603
v -0.14305340 2.36381960 -0.88624603
v 0.14305329 3.06094265 -0.65266013
v -0.14305343 3.06094265 -0.65266019
v -5.3913269e-8 3.16875386 -1.30481541
v -7.5354230e-8 4.56784248 -0.49312243
vt 3.3797219e-2 0.46663165
vt 0.11477867 0.30185765
vt 0.16021845 0.44185713
vt 0.19147624 0.74604785
vt 0.21308033 2.3514584e-2
vt 0.23259331 0.21746139
vt 0.23280087 0.41185996
vt 0.28631568 2.1800416e-2
vt 0.28652319 0.21619914
vt 0.28673077 0.41059792
vt 0.34045291 0.21493691
vt 0.34066054 0.40933585
vt 0.35955110 2.0086607e-2
vt 0.36144480 0.52337408
vt 0.36144504 0.58049983
vt 0.39373115 0.74125147
vt 0.39452529 0.99128604
vt 0.42601570 0.52337384
vt 0.42601570 0.58049959
vt 0.43247658 0.44791135
vt 0.46536750 0.55777460
vt 0.49778822 0.28424585
vt 0.58621192 0.41197255
vt 0.59000236 0.63866085
vt 0.67399102 0.89959222
vt 0.71898019 0.97553039
vt 0.72144759 0.82383227
vt 0.73185879 0.44665697
vt 0.73270315 0.60658371
vt 0.76414424 0.35881045
vt 0.79558539 0.60658371
vt 0.79642969 0.44665688
vt 0.80437273 0.97553051
vt 0.80684018 0.82383227
vt 0.84175003 0.74397206
vt 0.84936202 0.89959276
vt 0.87403458 0.95985943
vt 0.87403512 0.79989213
vt 0.87403554 0.68805236
vt 0.87403637 0.51643562
vt 0.90632075 0.74397224
vt 0.90632212 0.36253569
vt 0.93860549 0.95985955
vt 0.93860602 0.79989237
vt 0.93860644 0.68805236
vt 0.93860704 0.51643580
vt 0.97089159 0.74397266
vn 0.0000000e+0 -1.00000000 0.0000000e+0
vn 0.88531241 9.4379429e-2 -0.45531798
vn 0.88531243 9.4379422e-2 0.45531794
vn 0.0000000e+0 -1.00000000 0.0000000e+0
vn 0.88531241 9.4379429e-2 -0.45531798
vn -4.3940279e-8 0.10308904 -0.99467213
vn 0.0000000e+0 -1.00000000 0.0000000e+0
vn -4.3940279e-8 0.10308904 -0.99467213
vn -0.88531245 9.4379433e-2 -0.45531790
vn 0.0000000e+0 -1.00000000 0.0000000e+0
vn -0.88531245 9.4379433e-2 -0.45531790
vn -0.88531236 9.4379426e-2 0.45531807
vn 0.0000000e+0 -1.00000000 0.0000000e+0
vn -0.88531236 9.4379426e-2 0.45531807
vn 8.7880561e-8 0.10308902 0.99467213
vn 0.0000000e+0 -1.00000000 0.0000000e+0
vn 8.7880561e-8 0.10308902 0.99467213
vn 0.88531243 9.4379422e-2 0.45531794
vn 0.88531241 9.4379429e-2 -0.45531798
vn 0.88531243 9.4379422e-2 0.45531794
vn 0.88928189 2.3091380e-17 -0.45735951
vn 0.88928193 -2.7377451e-17 0.45735943
vn 0.88531241 9.4379429e-2 -0.45531798
vn -4.3940279e-8 0.10308904 -0.99467213
vn 0.88928189 2.3091380e-17 -0.45735951
vn -2.8793986e-8 -0.83327876 -0.55285307
vn 1.00000000 2.4606328e-8 -4.7054553e-8
vn -4.3940279e-8 0.10308904 -0.99467213
vn -0.88531245 9.4379433e-2 -0.45531790
vn -0.88928193 2.2691234e-17 -0.45735944
vn -2.8793986e-8 -0.83327876 -0.55285307
vn -1.00000000 -2.8570859e-8 7.5192391e-8
vn -0.88531245 9.4379433e-2 -0.45531790
vn -0.88531236 9.4379426e-2 0.45531807
vn -0.88928193 2.2691234e-17 -0.45735944
vn -0.88928185 -3.4637072e-17 0.45735958
vn -0.88531236 9.4379426e-2 0.45531807
vn 8.7880561e-8 0.10308902 0.99467213
vn -0.88928185 -3.4637072e-17 0.45735958
vn 2.1164418e-8 -0.91371168 0.40636309
vn -1.00000000 2.6268492e-8 9.2920862e-8
vn 8.7880561e-8 0.10308902 0.99467213
vn 0.88531243 9.4379422e-2 0.45531794
vn 0.88928193 -2.7377451e-17 0.45735943
vn 2.1164418e-8 -0.91371168 0.40636309
vn 1.00000000 -2.6268491e-8 -9.2920859e-8
vn 0.88928189 2.3091380e-17 -0.45735951
vn 0.88928193 -2.7377451e-17 0.45735943
vn 0.85964700 0.25600492 -0.44211822
vn 0.85964703 0.25600493 0.44211815
vn 0.88928189 2.3091380e-17 -0.45735951
vn 0.85964700 0.25600492 -0.44211822
vn -1.0005597e-7 0.27809992 -0.96055215
vn 1.00000000 2.4606328e-8 -4.7054553e-8
vn -1.8219574e-8 0.93681647 0.34982123
vn -0.88928193 2.2691234e-17 -0.45735944
vn -1.0005597e-7 0.27809992 -0.96055215
vn -0.85964703 0.25600492 -0.44211815
vn -1.8219574e-8 0.93681647 0.34982123
vn -1.00000000 -2.8570859e-8 7.5192391e-8
vn -0.88928193 2.2691234e-17 -0.45735944
vn -0.88928185 -3.4637072e-17 0.45735958
vn -0.85964703 0.25600492 -0.44211815
vn -0.85964696 0.25600492 0.44211829
vn -0.88928185 -3.4637072e-17 0.45735958
vn -0.85964696 0.25600492 0.44211829
vn 1.0005597e-7 0.27809992 0.96055215
vn -1.00000000 2.6268492e-8 9.2920862e-8
vn -2.0379367e-8 0.92026747 -0.39128989
vn 0.88928193 -2.7377451e-17 0.45735943
vn 1.0005597e-7 0.27809992 0.96055215
vn 0.85964703 0.25600493 0.44211815
vn -2.0379367e-8 0.92026747 -0.39128989
vn 1.00000000 -2.6268491e-8 -9.2920859e-8
vn 0.85964700 0.25600492 -0.44211822
vn -1.0005597e-7 0.27809992 -0.96055215
vn -0.85964703 0.25600492 -0.44211815
vn -0.85964696 0.25600492 0.44211829
vn 1.0005597e-7 0.27809992 0.96055215
vn 0.85964703 0.25600493 0.44211815
vn 2.1164418e-8 -0.91371168 0.40636309
vn -1.00000000 2.6268492e-8 9.2920862e-8
vn -0.97787665 8.1250671e-2 0.19275784
vn 0.0000000e+0 -0.57885407 0.81543116
vn 2.1164418e-8 -0.91371168 0.40636309
vn 1.00000000 -2.6268491e-8 -9.2920859e-8
vn 0.0000000e+0 -0.57885407 0.81543116
vn 0.97787665 8.1250642e-2 0.19275786
vn -1.00000000 2.6268492e-8 9.2920862e-8
vn -2.0379367e-8 0.92026747 -0.39128989
vn -0.97787665 8.1250671e-2 0.19275784
vn 0.0000000e+0 0.29536703 -0.95538386
vn -0.97969634 -2.2383164e-2 0.19923374
vn -2.0379367e-8 0.92026747 -0.39128989
vn 1.00000000 -2.6268491e-8 -9.2920859e-8
vn 0.97787665 8.1250642e-2 0.19275786
vn 0.0000000e+0 0.29536703 -0.95538386
vn 0.97969633 -2.2383156e-2 0.19923376
vn -0.97787665 8.1250671e-2 0.19275784
vn 0.0000000e+0 -0.57885407 0.81543116
vn 0.97787665 8.1250642e-2 0.19275786
vn -0.97969634 -2.2383164e-2 0.19923374
vn 0.97969633 -2.2383156e-2 0.19923376
vn 0.0000000e+0 0.29536703 -0.95538386
vn -0.97969634 -2.2383164e-2 0.19923374
vn 0.0000000e+0 -0.16981418 -0.98547610
vn -0.98290190 9.3243134e-2 0.15877523
vn 0.0000000e+0 0.29536703 -0.95538386
vn 0.97969633 -2.2383156e-2 0.19923376
vn 0.0000000e+0 -0.16981418 -0.98547610
vn 0.98290190 9.3243113e-2 0.15877525
vn -0.97969634 -2.2383164e-2 0.19923374
vn 0.97969633 -2.2383156e-2 0.19923376
vn -0.98290190 9.3243134e-2 0.15877523
vn 0.98290190 9.3243113e-2 0.15877525
vn 0.0000000e+0 -0.16981418 -0.98547610
vn -0.98290190 9.3243134e-2 0.15877523
vn 0.98290190 9.3243113e-2 0.15877525
vn -2.8793986e-8 -0.83327876 -0.55285307
vn 1.00000000 2.4606328e-8 -4.7054553e-8
vn 0.97680835 6.8026768e-2 -0.20302167
vn 0.0000000e+0 -0.46135583 -0.88721519
vn -2.8793986e-8 -0.83327876 -0.55285307
vn -1.00000000 -2.8570859e-8 7.5192391e-8
vn 0.0000000e+0 -0.46135583 -0.88721519
vn -0.97680834 6.8026690e-2 -0.20302174
vn 1.00000000 2.4606328e-8 -4.7054553e-8
vn -1.8219574e-8 0.93681647 0.34982123
vn 0.97680835 6.8026768e-2 -0.20302167
vn -2.0717227e-7 -0.10528309 0.99444229
vn 0.97425555 0.11313371 -0.19500484
vn -1.8219574e-8 0.93681647 0.34982123
vn -1.00000000 -2.8570859e-8 7.5192391e-8
vn -0.97680834 6.8026690e-2 -0.20302174
vn -2.0717227e-7 -0.10528309 0.99444229
vn -0.97425554 0.11313371 -0.19500489
vn 0.97680835 6.8026768e-2 -0.20302167
vn 0.0000000e+0 -0.46135583 -0.88721519
vn -0.97680834 6.8026690e-2 -0.20302174
vn 0.97425555 0.11313371 -0.19500484
vn -0.97425554 0.11313371 -0.19500489
vn -2.0717227e-7 -0.10528309 0.99444229
vn 0.97425555 0.11313371 -0.19500484
vn -0.97425554 0.11313371 -0.19500489
g Cylinder02_sep2_01 - Default
usemtl 01 - Default
f 1/36/1 6/34/16 5/27/13 4/25/10 3/26/7 2/33/4
f 1/8/3 7/9/20 12/11/43 6/13/18
f 2/5/5 8/6/23 7/9/19 1/8/2
f 3/27/8 9/29/28 8/31/24 2/34/6
f 4/8/11 10/9/33 9/6/29 3/5/9
f 5/13/14 11/11/37 10/9/34 4/8/12
f 6/34/17 12/31/42 11/29/38 5/27/15
f 7/9/22 13/10/48 18/12/70 12/11/44
f 8/6/25 14/7/51 13/10/47 7/9/21
f 8/6/27 29/2/120 31/3/127 14/7/54
f 9/29/31 30/28/123 29/32/119 8/31/26
f 10/9/35 16/10/61 15/7/56 9/6/30
f 11/11/39 17/12/65 16/10/62 10/9/36
f 11/11/41 20/22/82 22/20/89 17/12/68
f 12/31/45 21/32/85 20/28/81 11/29/40
f 13/47/50 19/41/80 18/44/72
f 14/45/52 19/41/75 13/47/49
f 14/45/55 31/46/128 32/40/132 15/39/59
f 15/39/57 19/41/76 14/45/53
f 15/7/60 32/3/133 30/2/124 9/6/32
f 16/35/63 19/41/77 15/39/58
f 17/38/66 19/41/78 16/35/64
f 17/38/69 22/37/90 23/43/94 18/44/73
f 18/44/71 19/41/79 17/38/67
f 18/12/74 23/20/95 21/22/86 12/11/46
f 20/22/83 24/23/99 22/20/91
f 21/32/87 24/30/100 20/28/84
f 22/18/92 25/19/104 26/15/108 23/14/97
f 23/20/96 24/23/101 21/22/88
f 23/20/98 26/21/109 27/24/113 24/23/103
f 24/23/102 27/24/112 25/21/105 22/20/93
f 25/19/106 28/16/116 26/15/110
f 26/21/111 28/17/118 27/24/115
f 27/24/114 28/17/117 25/21/107
f 29/2/121 33/1/137 31/3/129
f 30/28/125 33/30/138 29/32/122
f 31/46/130 34/42/142 32/40/135
f 32/3/134 33/1/139 30/2/126
f 32/3/136 34/4/144 33/1/141
f 33/1/140 34/4/143 31/3/131
