# Exported from Wings 3D 0.99.04a
mtllib top.mtl
o Cylinder02
#15 vertices, 17 faces
v 2.82748914 9.26752281 0.27932015
v 1.17148018 9.26752281 -2.58897138
v -1.16948020 9.26752281 -2.58897114
v -2.82548904 9.26752281 0.27932045
v -1.65500855 9.26752281 2.30665159
v 1.65700924 9.26752281 2.30665135
v 3.00099993 17.26752090 -1.0000000e-3
v 1.50099993 17.26752090 -2.59907627
v -1.49900007 17.26752090 -2.59907603
v -2.99900007 17.26752090 -9.9973776e-4
v -1.49899960 17.26752090 2.59707642
v 1.50100040 17.26752090 2.59707618
v 3.98305106 15.02564240 2.29803777
v 9.9976163e-4 15.02564240 -4.59907579
v -3.98105073 15.02564240 2.29803848
vt 0.36141911 0.79849809
vt 0.37777597 0.63255608
vt 0.39448363 0.60361755
vt 0.40141422 0.67349851
vt 0.42443395 0.68935341
vt 0.42443395 0.90764326
vt 0.43482941 0.67349851
vt 0.44176000 0.60361755
vt 0.45846754 0.63255608
vt 0.53173465 0.98861492
vt 0.55046368 0.68935341
vt 0.55046368 0.90764326
vt 0.55213243 0.42130870
vt 0.60744411 0.83734226
vt 0.61347848 0.79849809
vt 0.61754185 0.82896328
vt 0.62584168 0.78474981
vt 0.68315262 0.98861563
vt 0.69956166 0.42130929
vt 0.79501188 0.99248219
vt 0.79501295 0.39944485
vt 0.99274772 0.99267405
vt 0.99308372 0.39991093
vn 0.0000000e+0 -1.00000000 0.0000000e+0
vn 0.86545529 -3.6279219e-2 -0.49967085
vn 0.81763698 -0.32958531 0.47206280
vn 0.90651304 -3.4405146e-2 -0.42077356
vn 0.0000000e+0 -1.00000000 0.0000000e+0
vn 0.86545529 -3.6279219e-2 -0.49967085
vn -9.6155891e-8 -0.32958530 -0.94412580
vn 0.81765692 -3.4405152e-2 -0.57467681
vn 0.0000000e+0 -1.00000000 0.0000000e+0
vn -9.6155891e-8 -0.32958530 -0.94412580
vn -0.86545530 -3.6279240e-2 -0.49967083
vn -0.81765703 -3.4405169e-2 -0.57467667
vn 0.0000000e+0 -1.00000000 0.0000000e+0
vn -0.86545530 -3.6279240e-2 -0.49967083
vn -0.81763686 -0.32958535 0.47206298
vn -0.90651314 -3.4405170e-2 -0.42077336
vn 0.0000000e+0 -1.00000000 0.0000000e+0
vn -0.81763686 -0.32958535 0.47206298
vn 7.5494599e-8 -3.6279213e-2 0.99934169
vn -8.8856021e-2 -3.4405144e-2 0.99545010
vn 0.0000000e+0 -1.00000000 0.0000000e+0
vn 7.5494599e-8 -3.6279213e-2 0.99934169
vn 0.81763698 -0.32958531 0.47206280
vn 8.8856230e-2 -3.4405140e-2 0.99545008
vn 0.86545529 -3.6279219e-2 -0.49967085
vn 0.0000000e+0 1.00000000 0.0000000e+0
vn 0.90651304 -3.4405146e-2 -0.42077356
vn 0.64624117 0.66570506 0.37310740
vn 0.86545529 -3.6279219e-2 -0.49967085
vn 0.0000000e+0 1.00000000 0.0000000e+0
vn 0.81765692 -3.4405152e-2 -0.57467681
vn -5.9303841e-8 0.66570501 -0.74621501
vn -0.86545530 -3.6279240e-2 -0.49967083
vn 0.0000000e+0 1.00000000 0.0000000e+0
vn -5.9303841e-8 0.66570501 -0.74621501
vn -0.81765703 -3.4405169e-2 -0.57467667
vn -0.86545530 -3.6279240e-2 -0.49967083
vn 0.0000000e+0 1.00000000 0.0000000e+0
vn -0.90651314 -3.4405170e-2 -0.42077336
vn -0.64624103 0.66570510 0.37310756
vn 7.5494599e-8 -3.6279213e-2 0.99934169
vn 0.0000000e+0 1.00000000 0.0000000e+0
vn -0.64624103 0.66570510 0.37310756
vn -8.8856021e-2 -3.4405144e-2 0.99545010
vn 7.5494599e-8 -3.6279213e-2 0.99934169
vn 0.0000000e+0 1.00000000 0.0000000e+0
vn 8.8856230e-2 -3.4405140e-2 0.99545008
vn 0.64624117 0.66570506 0.37310740
vn 0.81763698 -0.32958531 0.47206280
vn 0.90651304 -3.4405146e-2 -0.42077356
vn 8.8856230e-2 -3.4405140e-2 0.99545008
vn 0.64624117 0.66570506 0.37310740
vn -9.6155891e-8 -0.32958530 -0.94412580
vn 0.81765692 -3.4405152e-2 -0.57467681
vn -5.9303841e-8 0.66570501 -0.74621501
vn -0.81765703 -3.4405169e-2 -0.57467667
vn -0.81763686 -0.32958535 0.47206298
vn -0.90651314 -3.4405170e-2 -0.42077336
vn -0.64624103 0.66570510 0.37310756
vn -8.8856021e-2 -3.4405144e-2 0.99545010
g Cylinder02_02 - Default
usemtl 02 - Default
f 1/2/1 6/3/21 5/8/17 4/9/13 3/7/9 2/4/5
f 1/19/3 13/17/49 6/13/23
f 2/21/6 8/20/29 7/22/25 1/23/2
f 2/21/8 14/16/54 8/20/31
f 3/19/10 14/17/53 2/13/7
f 4/23/14 10/22/37 9/20/33 3/21/11
f 4/21/16 15/16/58 10/20/39
f 5/19/18 15/17/57 4/13/15
f 6/23/22 12/22/45 11/20/41 5/21/19
f 6/21/24 13/16/51 12/20/47
f 7/20/27 13/16/50 1/21/4
f 8/5/30 9/11/34 10/15/38 11/12/42 12/6/46 7/1/26
f 8/10/32 14/14/55 9/18/35
f 9/20/36 14/16/56 3/21/12
f 10/10/40 15/14/59 11/18/43
f 11/20/44 15/16/60 5/21/20
f 12/10/48 13/14/52 7/18/28
