# Exported from Wings 3D 1.0.1
mtllib barrel1.mtl
o Cylinder01
#19 vertices, 23 faces
v -0.16777840 -1.22151530 -0.15334530
v 0.16977844 -1.22151530 -0.15334530
v -0.16777840 -0.88395852 -0.15334529
v 0.16977844 -0.88395852 -0.15334529
v -0.16777843 -1.22151530 0.18421152
v 0.16977841 -1.22151530 0.18421152
v -0.16777843 -0.88395852 0.18421154
v 0.16977841 -0.88395852 0.18421154
v -0.32127401 -1.37501097 4.64329863
v 0.32327390 -1.37501097 4.64329863
v -0.32127401 -0.73046309 4.64329815
v 0.32327390 -0.73046309 4.64329815
v -0.32127395 -1.37501097 5.79037523
v 0.32327396 -1.37501097 5.79037523
v -0.32127395 -0.73046315 5.79037523
v 0.32327396 -0.73046315 5.79037523
v 1.0000000e-3 -1.05273700 6.43492317
v -0.54091859 -1.05273688 1.5433114e-2
v 0.54291856 -1.05273688 1.5433114e-2
vt 1.8110588e-2 0.11910808
vt 1.8349603e-2 7.1432233e-2
vt 4.2021021e-2 0.17196929
vt 4.2259507e-2 1.8570781e-2
vt 6.6255890e-2 0.11901796
vt 6.6415213e-2 7.1294069e-2
vt 0.69809121 4.9626231e-2
vt 0.69809145 0.14093673
vt 0.86059290 4.9625754e-2
vt 0.86059314 0.14093614
vt 0.95190352 9.5280766e-2
vn 0.0000000e+0 4.4144162e-8 -1.00000000
vn 0.0000000e+0 -1.00000000 0.0000000e+0
vn -0.41212104 4.0221031e-8 -0.91112911
vn -0.41212107 -0.91112909 -3.6385474e-8
vn 0.0000000e+0 4.4144162e-8 -1.00000000
vn 0.0000000e+0 -1.00000000 0.0000000e+0
vn 0.41212109 4.0221030e-8 -0.91112908
vn 0.41212110 -0.91112908 3.6385477e-8
vn 0.0000000e+0 4.4144162e-8 -1.00000000
vn 0.0000000e+0 1.00000000 0.0000000e+0
vn -0.41212104 4.0221031e-8 -0.91112911
vn -0.41212095 0.91112915 -3.6385463e-8
vn 0.0000000e+0 4.4144162e-8 -1.00000000
vn 0.0000000e+0 1.00000000 0.0000000e+0
vn 0.41212109 4.0221030e-8 -0.91112908
vn 0.41212098 0.91112913 3.6385466e-8
vn 0.0000000e+0 -1.00000000 0.0000000e+0
vn 0.0000000e+0 -0.99940805 -3.4402739e-2
vn -0.99940805 -1.6181427e-8 -3.4402720e-2
vn -0.41212107 -0.91112909 -3.6385474e-8
vn -0.41212108 -4.0221030e-8 0.91112909
vn 0.0000000e+0 -1.00000000 0.0000000e+0
vn 0.0000000e+0 -0.99940805 -3.4402739e-2
vn 0.99940805 -1.6181418e-8 -3.4402700e-2
vn 0.41212110 -0.91112908 3.6385477e-8
vn 0.41212108 -4.0221030e-8 0.91112909
vn 0.0000000e+0 1.00000000 0.0000000e+0
vn 0.0000000e+0 0.99940805 -3.4402689e-2
vn -0.99940805 -1.6181427e-8 -3.4402720e-2
vn -0.41212095 0.91112915 -3.6385463e-8
vn -0.41212108 -4.0221030e-8 0.91112909
vn 0.0000000e+0 1.00000000 0.0000000e+0
vn 0.99940805 -1.6181418e-8 -3.4402700e-2
vn 0.0000000e+0 0.99940805 -3.4402689e-2
vn 0.41212098 0.91112913 3.6385466e-8
vn 0.41212108 -4.0221030e-8 0.91112909
vn 0.0000000e+0 -0.99940805 -3.4402739e-2
vn -0.99940805 -1.6181427e-8 -3.4402720e-2
vn 0.0000000e+0 -1.00000000 -1.9357435e-16
vn -1.00000000 1.9220847e-14 5.1962207e-8
vn 0.0000000e+0 -0.99940805 -3.4402739e-2
vn 0.99940805 -1.6181418e-8 -3.4402700e-2
vn 0.0000000e+0 -1.00000000 -1.9357435e-16
vn 1.00000000 -1.9220847e-14 -5.1962207e-8
vn 0.0000000e+0 0.99940805 -3.4402689e-2
vn -0.99940805 -1.6181427e-8 -3.4402720e-2
vn 0.0000000e+0 1.00000000 5.1962196e-8
vn -1.00000000 1.9220847e-14 5.1962207e-8
vn 0.99940805 -1.6181418e-8 -3.4402700e-2
vn 0.0000000e+0 0.99940805 -3.4402689e-2
vn 1.00000000 -1.9220847e-14 -5.1962207e-8
vn 0.0000000e+0 1.00000000 5.1962196e-8
vn 0.0000000e+0 -1.00000000 -1.9357435e-16
vn -1.00000000 1.9220847e-14 5.1962207e-8
vn 0.0000000e+0 -0.89442719 0.44721360
vn -0.89442720 0.0000000e+0 0.44721358
vn 0.0000000e+0 -1.00000000 -1.9357435e-16
vn 1.00000000 -1.9220847e-14 -5.1962207e-8
vn 0.0000000e+0 -0.89442719 0.44721360
vn 0.89442720 0.0000000e+0 0.44721358
vn 0.0000000e+0 1.00000000 5.1962196e-8
vn -1.00000000 1.9220847e-14 5.1962207e-8
vn 0.0000000e+0 0.89442726 0.44721346
vn -0.89442720 0.0000000e+0 0.44721358
vn 1.00000000 -1.9220847e-14 -5.1962207e-8
vn 0.0000000e+0 1.00000000 5.1962196e-8
vn 0.89442720 0.0000000e+0 0.44721358
vn 0.0000000e+0 0.89442726 0.44721346
vn 0.0000000e+0 -0.89442719 0.44721360
vn 0.89442720 0.0000000e+0 0.44721358
vn 0.0000000e+0 0.89442726 0.44721346
vn -0.89442720 0.0000000e+0 0.44721358
vn -0.41212104 4.0221031e-8 -0.91112911
vn -0.41212107 -0.91112909 -3.6385474e-8
vn -0.41212095 0.91112915 -3.6385463e-8
vn -0.41212108 -4.0221030e-8 0.91112909
vn 0.41212109 4.0221030e-8 -0.91112908
vn 0.41212110 -0.91112908 3.6385477e-8
vn 0.41212098 0.91112913 3.6385466e-8
vn 0.41212108 -4.0221030e-8 0.91112909
g Cylinder01_01 - Default
usemtl 01 - Default
f 1/2/1 3/6/9 4/5/13 2/1/5
f 1/2/3 18/4/73 3/6/11
f 2/1/6 6/5/22 5/6/17 1/2/2
f 2/1/8 19/3/78 6/5/25
f 3/2/10 7/6/27 8/5/32 4/1/14
f 3/2/12 18/4/75 7/6/30
f 4/5/15 19/3/77 2/1/7
f 5/6/19 9/7/38 11/8/46 7/5/29
f 5/6/20 18/4/74 1/2/4
f 6/5/23 10/8/41 9/7/37 5/6/18
f 6/2/26 19/4/80 8/6/36
f 7/6/28 11/7/45 12/8/50 8/5/34
f 7/5/31 18/3/76 5/1/21
f 8/5/33 12/8/49 10/7/42 6/6/24
f 8/5/35 19/3/79 4/1/16
f 9/7/40 13/9/54 15/10/62 11/8/48
f 10/8/43 14/10/57 13/9/53 9/7/39
f 11/7/47 15/9/61 16/10/66 12/8/52
f 12/8/51 16/10/65 14/9/58 10/7/44
f 13/9/56 17/11/72 15/10/64
f 14/10/59 17/11/69 13/9/55
f 15/9/63 17/11/71 16/10/68
f 16/10/67 17/11/70 14/9/60
