# Exported from Wings 3D 0.99.04a
mtllib magazine.mtl
o Box01_sep7
#24 vertices, 14 faces
v 2.00099993 9.50064564 3.59899998
v 1.73305082 10.50064564 3.59899998
v 1.00099993 11.23269653 3.59899998
v 9.9991390e-4 11.50064564 3.59899998
v -0.99900013 11.23269653 3.59899998
v -1.73105085 10.50064564 3.59899998
v -1.99899995 9.50064564 3.59899998
v -1.73105061 8.50064564 3.59899998
v -0.99899983 7.76859426 3.59899998
v 1.0002636e-3 7.50064516 3.59899998
v 1.00100029 7.76859426 3.59899998
v 1.73305106 8.50064564 3.59899998
v 2.00099993 9.50064564 5.39899969
v 1.73305082 10.50064564 5.39900017
v 1.00099993 11.23269653 5.39900017
v 9.9991390e-4 11.50064564 5.39900017
v -0.99900013 11.23269653 5.39900017
v -1.73105085 10.50064564 5.39900017
v -1.99899995 9.50064564 5.39899969
v -1.73105061 8.50064564 5.39899969
v -0.99899983 7.76859426 5.39899969
v 1.0002636e-3 7.50064516 5.39899969
v 1.00100029 7.76859426 5.39899969
v 1.73305106 8.50064564 5.39899969
vt 1.1563522e-2 0.66556066
vt 1.1701767e-2 0.63316649
vt 1.2503507e-2 0.98752350
vt 1.3122883e-2 0.90752143
vt 2.7674828e-2 0.69374353
vt 2.8052527e-2 0.60524100
vt 5.5718690e-2 0.71016341
vt 5.6234688e-2 0.58926666
vt 8.8180825e-2 0.71042067
vt 8.8696837e-2 0.58952397
vt 0.11636298 0.69444644
vt 0.11674067 0.60594398
vt 0.13271374 0.66652101
vt 0.13285200 0.63412678
vt 0.15768355 0.98752367
vt 0.15804504 0.90752143
vn 0.0000000e+0 1.0110618e-16 -1.00000000
vn 0.96592585 0.25881897 0.0000000e+0
vn 0.96592591 -0.25881875 0.0000000e+0
vn 0.0000000e+0 1.0110618e-16 -1.00000000
vn 0.96592585 0.25881897 0.0000000e+0
vn 0.70710678 0.70710678 0.0000000e+0
vn 0.0000000e+0 1.0110618e-16 -1.00000000
vn 0.70710678 0.70710678 0.0000000e+0
vn 0.25881896 0.96592585 0.0000000e+0
vn 0.0000000e+0 1.0110618e-16 -1.00000000
vn 0.25881896 0.96592585 0.0000000e+0
vn -0.25881895 0.96592585 0.0000000e+0
vn 0.0000000e+0 1.0110618e-16 -1.00000000
vn -0.25881895 0.96592585 0.0000000e+0
vn -0.70710687 0.70710669 0.0000000e+0
vn 0.0000000e+0 1.0110618e-16 -1.00000000
vn -0.70710687 0.70710669 0.0000000e+0
vn -0.96592585 0.25881897 0.0000000e+0
vn 0.0000000e+0 1.0110618e-16 -1.00000000
vn -0.96592585 0.25881897 0.0000000e+0
vn -0.96592579 -0.25881918 0.0000000e+0
vn 0.0000000e+0 1.0110618e-16 -1.00000000
vn -0.96592579 -0.25881918 0.0000000e+0
vn -0.70710707 -0.70710649 0.0000000e+0
vn 0.0000000e+0 1.0110618e-16 -1.00000000
vn -0.70710707 -0.70710649 0.0000000e+0
vn -0.25881894 -0.96592585 0.0000000e+0
vn 0.0000000e+0 1.0110618e-16 -1.00000000
vn -0.25881894 -0.96592585 0.0000000e+0
vn 0.25881896 -0.96592585 0.0000000e+0
vn 0.0000000e+0 1.0110618e-16 -1.00000000
vn 0.25881896 -0.96592585 0.0000000e+0
vn 0.70710707 -0.70710649 0.0000000e+0
vn 0.0000000e+0 1.0110618e-16 -1.00000000
vn 0.70710707 -0.70710649 0.0000000e+0
vn 0.96592591 -0.25881875 0.0000000e+0
vn 0.96592585 0.25881897 0.0000000e+0
vn 0.96592591 -0.25881875 0.0000000e+0
vn -1.4802972e-16 -1.4829835e-7 1.00000000
vn 0.96592585 0.25881897 0.0000000e+0
vn 0.70710678 0.70710678 0.0000000e+0
vn -1.4802972e-16 -1.4829835e-7 1.00000000
vn 0.70710678 0.70710678 0.0000000e+0
vn 0.25881896 0.96592585 0.0000000e+0
vn -1.4802972e-16 -1.4829835e-7 1.00000000
vn 0.25881896 0.96592585 0.0000000e+0
vn -0.25881895 0.96592585 0.0000000e+0
vn -1.4802972e-16 -1.4829835e-7 1.00000000
vn -0.25881895 0.96592585 0.0000000e+0
vn -0.70710687 0.70710669 0.0000000e+0
vn -1.4802972e-16 -1.4829835e-7 1.00000000
vn -0.70710687 0.70710669 0.0000000e+0
vn -0.96592585 0.25881897 0.0000000e+0
vn -1.4802972e-16 -1.4829835e-7 1.00000000
vn -0.96592585 0.25881897 0.0000000e+0
vn -0.96592579 -0.25881918 0.0000000e+0
vn -1.4802972e-16 -1.4829835e-7 1.00000000
vn -0.96592579 -0.25881918 0.0000000e+0
vn -0.70710707 -0.70710649 0.0000000e+0
vn -1.4802972e-16 -1.4829835e-7 1.00000000
vn -0.70710707 -0.70710649 0.0000000e+0
vn -0.25881894 -0.96592585 0.0000000e+0
vn -1.4802972e-16 -1.4829835e-7 1.00000000
vn -0.25881894 -0.96592585 0.0000000e+0
vn 0.25881896 -0.96592585 0.0000000e+0
vn -1.4802972e-16 -1.4829835e-7 1.00000000
vn 0.25881896 -0.96592585 0.0000000e+0
vn 0.70710707 -0.70710649 0.0000000e+0
vn -1.4802972e-16 -1.4829835e-7 1.00000000
vn 0.70710707 -0.70710649 0.0000000e+0
vn 0.96592591 -0.25881875 0.0000000e+0
vn -1.4802972e-16 -1.4829835e-7 1.00000000
g Box01_sep7_01 - Default
usemtl 01 - Default
f 1/7/1 12/5/34 11/1/31 10/2/28 9/6/25 8/8/22 7/10/19 6/12/16 5/14/13 4/13/10 3/11/7 2/9/4
f 1/4/3 13/16/38 24/15/71 12/3/36
f 2/4/5 14/16/40 13/15/37 1/3/2
f 3/4/8 15/16/43 14/15/41 2/3/6
f 4/4/11 16/16/46 15/15/44 3/3/9
f 5/4/14 17/16/49 16/15/47 4/3/12
f 6/15/17 18/3/52 17/4/50 5/16/15
f 7/15/20 19/3/55 18/4/53 6/16/18
f 8/15/23 20/3/58 19/4/56 7/16/21
f 9/15/26 21/3/61 20/4/59 8/16/24
f 10/15/29 22/3/64 21/4/62 9/16/27
f 11/15/32 23/3/67 22/4/65 10/16/30
f 12/4/35 24/16/70 23/15/68 11/3/33
f 14/12/42 15/14/45 16/13/48 17/11/51 18/9/54 19/7/57 20/5/60 21/1/63 22/2/66 23/6/69 24/8/72 13/10/39
