# Exported from Wings 3D 0.99.04a
mtllib turret.mtl
o Box01_sep8
#36 vertices, 44 faces
v 1.0000003e-3 6.00099993 -9.9999690e-4
v 1.39030612 6.00099993 -0.80311626
v 9.9985336e-4 6.00099993 -1.60523272
v -1.38830626 6.00099993 -0.80311608
v -1.38830614 6.00099993 0.80111647
v 1.0001984e-3 6.00099993 1.60323262
v 1.39030647 6.00099993 0.80111617
v 2.07946086 6.00099993 -1.20100009
v 9.9981891e-4 6.00099993 -2.40100002
v -2.07746124 6.00099993 -1.20099986
v -2.07746100 6.00099993 1.19900024
v 1.0002845e-3 6.00099993 2.39900017
v 2.07946110 6.00099993 1.19899964
v 2.07946086 7.00099993 -1.20100009
v 9.9981891e-4 7.00099993 -2.40100002
v -2.07746124 7.00099993 -1.20099986
v -2.07746100 7.00099993 1.19900024
v 1.0002845e-3 7.00099993 2.39900017
v 2.07946110 7.00099993 1.19899964
v 1.39030612 7.00099993 -0.80311626
v 9.9985336e-4 7.00099993 -1.60523272
v -1.38830626 7.00099993 -0.80311608
v -1.38830614 7.00099993 0.80111647
v 1.0001984e-3 7.00099993 1.60323262
v 1.39030647 7.00099993 0.80111617
v 1.0000003e-3 7.00099993 -9.9999690e-4
v 2.07946086 8.00100040 -1.20100009
v -2.07746124 8.00100040 -1.20099986
v -2.07746100 8.00100040 1.19900024
v 2.07946110 8.00100040 1.19899964
v 1.39030612 8.00100040 -0.80311626
v -1.38830626 8.00100040 -0.80311608
v -1.38830614 8.00100040 0.80111647
v 1.39030647 8.00100040 0.80111617
v -3.03823090 8.32318687 -2.82654977
v 3.04023004 8.32318687 -2.82655001
vt 1.9041277e-2 0.89060974
vt 1.9170523e-2 0.85143447
vt 1.9299798e-2 0.80957466
vt 0.11628330 0.89091980
vt 0.11641254 0.85040236
vt 0.11654180 0.80988491
vt 0.18210489 0.90418410
vt 0.26674682 0.89177322
vt 0.26674682 0.91994953
vt 0.28616470 0.89177322
vt 0.28616470 0.91994953
vt 0.31629202 0.67093939
vt 0.31629249 0.80805075
vt 0.31644008 0.55047876
vt 0.35383663 0.61371994
vt 0.37342164 0.67093921
vt 0.37342212 0.80805057
vt 0.38066101 0.62920702
vt 0.38066101 0.69168043
vt 0.43473783 0.56701165
vt 0.43473783 0.59798592
vt 0.43473783 0.66042829
vt 0.64147568 0.60716015
vt 0.64147604 0.68269539
vt 0.67392451 0.58842576
vt 0.67392486 0.70142961
vt 0.70740110 0.42585352
vt 0.70740134 0.49494740
vt 0.74159354 0.35189921
vt 0.74159354 0.35542256
vt 0.74301910 0.35405165
vt 0.74475127 0.35405165
vt 0.74563116 0.34952742
vt 0.74563116 0.35857576
vt 0.74649721 0.35102755
vt 0.74649721 0.35707563
vt 0.74724585 0.35189921
vt 0.74724585 0.35542256
vt 0.74824321 0.35405165
vt 0.74998915 0.35102755
vt 0.74998915 0.35707563
vt 0.75085521 0.34952742
vt 0.75085521 0.35857576
vt 0.75091869 0.34362262
vt 0.75091869 0.34714609
vt 0.75173509 0.35405165
vt 0.75346726 0.35405165
vt 0.75657099 0.34362262
vt 0.75657099 0.34714609
vt 0.78459746 0.52688581
vt 0.89406872 0.69824654
vt 0.98947001 0.73974985
vt 0.98947001 0.77113992
vn 0.0000000e+0 -1.00000000 -6.6417672e-17
vn 0.0000000e+0 -1.00000000 0.0000000e+0
vn 0.0000000e+0 -1.00000000 -1.7434638e-16
vn 0.0000000e+0 -1.00000000 -1.7434638e-16
vn 0.0000000e+0 -1.00000000 0.0000000e+0
vn 0.0000000e+0 -1.00000000 7.4719872e-17
vn 0.0000000e+0 -1.00000000 7.4719872e-17
vn 0.0000000e+0 1.00000000 0.0000000e+0
vn 0.0000000e+0 1.00000000 0.0000000e+0
vn 0.0000000e+0 1.00000000 0.0000000e+0
vn 0.0000000e+0 -1.00000000 0.0000000e+0
vn 0.0000000e+0 -1.00000000 0.0000000e+0
vn 1.00000000 0.0000000e+0 -9.9341085e-8
vn 0.38794451 -0.63086936 -0.67193966
vn 0.86087620 0.0000000e+0 0.50881447
vn 0.0000000e+0 -1.00000000 0.0000000e+0
vn 0.0000000e+0 -1.00000000 0.0000000e+0
vn -0.38794454 -0.63086941 -0.67193960
vn 0.13866620 0.0000000e+0 -0.99033918
vn 0.38794451 -0.63086936 -0.67193966
vn -0.13866630 0.0000000e+0 -0.99033916
vn 0.0000000e+0 -1.00000000 0.0000000e+0
vn 0.0000000e+0 -1.00000000 0.0000000e+0
vn -1.00000000 0.0000000e+0 9.9341071e-8
vn -0.38794454 -0.63086941 -0.67193960
vn -0.86087609 0.0000000e+0 0.50881466
vn 0.0000000e+0 -1.00000000 0.0000000e+0
vn 0.0000000e+0 -1.00000000 0.0000000e+0
vn -1.00000000 0.0000000e+0 9.9341071e-8
vn -0.49999992 0.0000000e+0 0.86602545
vn 0.0000000e+0 -1.00000000 0.0000000e+0
vn 0.0000000e+0 -1.00000000 0.0000000e+0
vn -0.49999992 0.0000000e+0 0.86602545
vn 0.50000019 9.2518580e-17 0.86602529
vn 0.0000000e+0 -1.00000000 0.0000000e+0
vn 0.0000000e+0 -1.00000000 0.0000000e+0
vn 0.50000019 9.2518580e-17 0.86602529
vn 1.00000000 0.0000000e+0 -9.9341085e-8
vn 1.00000000 0.0000000e+0 -9.9341085e-8
vn 0.0000000e+0 1.00000000 0.0000000e+0
vn 1.00000000 0.0000000e+0 -9.9341085e-8
vn -0.50000015 0.0000000e+0 -0.86602532
vn -0.28680109 0.81913398 0.49675411
vn 0.86087620 0.0000000e+0 0.50881447
vn 0.0000000e+0 1.00000000 0.0000000e+0
vn 0.0000000e+0 1.00000000 0.0000000e+0
vn 0.13866620 0.0000000e+0 -0.99033918
vn 0.28680111 0.81913402 0.49675405
vn -0.28680109 0.81913398 0.49675411
vn -0.13866630 0.0000000e+0 -0.99033916
vn -1.00000000 0.0000000e+0 9.9341071e-8
vn 0.0000000e+0 1.00000000 0.0000000e+0
vn -1.00000000 0.0000000e+0 9.9341071e-8
vn 0.49999996 0.0000000e+0 -0.86602543
vn 0.28680111 0.81913402 0.49675405
vn -0.86087609 0.0000000e+0 0.50881466
vn -1.00000000 0.0000000e+0 9.9341071e-8
vn -0.49999992 0.0000000e+0 0.86602545
vn 0.0000000e+0 1.00000000 0.0000000e+0
vn -1.00000000 0.0000000e+0 9.9341071e-8
vn 0.50000003 0.0000000e+0 0.86602539
vn -0.49999992 0.0000000e+0 0.86602545
vn 0.50000019 9.2518580e-17 0.86602529
vn 0.0000000e+0 1.00000000 0.0000000e+0
vn 0.0000000e+0 1.00000000 0.0000000e+0
vn 0.50000019 9.2518580e-17 0.86602529
vn 1.00000000 0.0000000e+0 -9.9341085e-8
vn 0.0000000e+0 1.00000000 0.0000000e+0
vn 1.00000000 0.0000000e+0 -9.9341085e-8
vn -0.49999987 0.0000000e+0 0.86602548
vn 0.0000000e+0 1.00000000 0.0000000e+0
vn 0.0000000e+0 1.00000000 0.0000000e+0
vn 0.0000000e+0 1.00000000 0.0000000e+0
vn -0.50000015 0.0000000e+0 -0.86602532
vn -1.00000000 0.0000000e+0 2.2292771e-7
vn 0.0000000e+0 1.00000000 0.0000000e+0
vn 0.0000000e+0 1.00000000 0.0000000e+0
vn 0.0000000e+0 1.00000000 0.0000000e+0
vn 0.49999996 0.0000000e+0 -0.86602543
vn 1.00000000 0.0000000e+0 -7.4309233e-8
vn 0.0000000e+0 1.00000000 0.0000000e+0
vn 0.0000000e+0 1.00000000 0.0000000e+0
vn 0.0000000e+0 1.00000000 0.0000000e+0
vn 1.00000000 0.0000000e+0 -7.4309233e-8
vn 0.50000003 0.0000000e+0 0.86602539
vn 0.0000000e+0 1.00000000 0.0000000e+0
vn 0.0000000e+0 1.00000000 0.0000000e+0
vn 0.0000000e+0 1.00000000 0.0000000e+0
vn -0.49999987 0.0000000e+0 0.86602548
vn -1.00000000 0.0000000e+0 2.2292771e-7
vn 0.0000000e+0 1.00000000 0.0000000e+0
vn 1.00000000 0.0000000e+0 -9.9341085e-8
vn -0.50000015 0.0000000e+0 -0.86602532
vn 0.0000000e+0 1.00000000 0.0000000e+0
vn -1.00000000 0.0000000e+0 9.9341071e-8
vn 0.49999996 0.0000000e+0 -0.86602543
vn 0.0000000e+0 1.00000000 0.0000000e+0
vn -1.00000000 0.0000000e+0 9.9341071e-8
vn 0.50000003 0.0000000e+0 0.86602539
vn 0.0000000e+0 1.00000000 0.0000000e+0
vn 1.00000000 0.0000000e+0 -9.9341085e-8
vn -0.49999987 0.0000000e+0 0.86602548
vn 0.0000000e+0 1.00000000 0.0000000e+0
vn -0.50000015 0.0000000e+0 -0.86602532
vn -1.00000000 0.0000000e+0 2.2292771e-7
vn 0.0000000e+0 1.00000000 0.0000000e+0
vn 0.49999996 0.0000000e+0 -0.86602543
vn 1.00000000 0.0000000e+0 -7.4309233e-8
vn 0.0000000e+0 1.00000000 0.0000000e+0
vn 1.00000000 0.0000000e+0 -7.4309233e-8
vn 0.50000003 0.0000000e+0 0.86602539
vn 0.0000000e+0 1.00000000 0.0000000e+0
vn -0.49999987 0.0000000e+0 0.86602548
vn -1.00000000 0.0000000e+0 2.2292771e-7
vn -0.38794454 -0.63086941 -0.67193960
vn 0.13866620 0.0000000e+0 -0.99033918
vn 0.28680111 0.81913402 0.49675405
vn -0.86087609 0.0000000e+0 0.50881466
vn 0.38794451 -0.63086936 -0.67193966
vn -0.28680109 0.81913398 0.49675411
vn 0.86087620 0.0000000e+0 0.50881447
vn -0.13866630 0.0000000e+0 -0.99033916
g Box01_sep8_01 - Default
usemtl 01 - Default
f 1/39/1 3/32/3 2/35/2
f 1/39/1 4/36/4 3/32/3
f 1/39/1 5/41/5 4/36/4
f 1/39/1 6/46/6 5/41/5
f 1/39/1 7/40/7 6/46/6
f 2/35/2 7/40/7 1/39/1
f 2/35/2 8/33/12 13/42/36 7/40/7
f 3/32/3 9/31/16 8/33/11 2/35/2
f 4/36/4 10/34/22 9/31/17 3/32/3
f 5/41/5 11/43/27 10/34/23 4/36/4
f 6/46/6 12/47/31 11/43/28 5/41/5
f 7/40/7 13/42/35 12/47/32 6/46/6
f 8/6/13 14/5/39 19/2/67 13/3/38
f 8/6/15 36/7/121 14/5/44
f 9/53/19 35/51/116 15/52/47
f 9/27/20 36/50/119 8/28/14
f 10/28/25 35/50/115 9/27/18
f 11/3/29 17/2/57 16/5/51 10/6/24
f 12/17/33 18/13/62 17/12/58 11/16/30
f 13/16/37 19/12/66 18/13/63 12/17/34
f 14/5/41 27/4/92 30/1/101 19/2/69
f 14/15/43 36/14/120 15/20/49
f 15/20/45 21/21/8 20/18/71 14/15/40
f 15/20/48 35/14/117 16/15/55
f 15/52/50 36/51/122 9/53/21
f 16/15/52 22/18/76 21/21/8 15/20/46
f 16/8/54 28/9/96 32/11/107 22/10/79
f 16/5/56 35/7/118 10/6/26
f 17/2/60 29/1/98 28/4/95 16/5/53
f 18/20/64 24/21/9 23/18/81 17/15/59
f 19/15/68 25/18/86 24/21/9 18/20/65
f 19/8/70 30/9/102 34/11/113 25/10/89
f 20/18/73 26/22/10 25/19/88
f 20/10/74 31/11/104 27/9/93 14/8/42
f 21/21/8 26/22/10 20/18/72
f 22/18/77 26/22/10 21/21/8
f 22/30/80 32/29/108 33/37/110 23/38/84
f 23/19/82 26/22/10 22/18/78
f 23/10/85 33/11/111 29/9/99 17/8/61
f 24/21/9 26/22/10 23/18/83
f 25/18/87 26/22/10 24/21/9
f 25/45/90 34/44/114 31/48/105 20/49/75
f 27/25/91 31/23/103 34/24/112 30/26/100
f 29/26/97 33/24/109 32/23/106 28/25/94
