# Exported from Wings 3D 0.99.04a
mtllib rightspinnything.mtl
o Box01_sep4
#42 vertices, 44 faces
v 1.20100021 0.79527831 0.79900002
v 1.20100021 1.19527841 0.69182032
v 1.20100021 1.48809874 0.39900002
v 1.20100009 1.59527850 -9.9999947e-4
v 1.20100009 1.48809874 -0.40099999
v 1.20099998 1.19527841 -0.69382036
v 1.20099998 0.79527831 -0.80100000
v 1.20099998 0.39527833 -0.69382030
v 1.20099998 0.10245803 -0.40099993
v 1.20100009 -4.7216285e-3 -9.9993113e-4
v 1.20100009 0.10245812 0.39900008
v 1.20100021 0.39527845 0.69182038
v 1.70100021 0.79527831 0.79899997
v 1.70100021 1.19527841 0.69182026
v 1.70100021 1.48809874 0.39899993
v 1.70100009 1.59527838 -1.0000810e-3
v 1.70100009 1.48809874 -0.40100008
v 1.70099998 1.19527841 -0.69382042
v 1.70099998 0.79527831 -0.80100006
v 1.70099998 0.39527830 -0.69382042
v 1.70099998 0.10245801 -0.40100002
v 1.70100009 -4.7216504e-3 -1.0000126e-3
v 1.70100009 0.10245810 0.39899999
v 1.70100021 0.39527842 0.69182026
v 2.20099998 0.79527831 0.44283867
v 2.20099998 1.01719785 0.38337556
v 2.20099998 1.17965412 0.22091924
v 2.20099998 1.23911726 -1.0001628e-3
v 2.20099998 1.17965412 -0.22291957
v 2.20099998 1.01719785 -0.38537586
v 2.20099998 0.79527831 -0.44483894
v 2.20099998 0.57335895 -0.38537586
v 2.20099998 0.41090265 -0.22291955
v 2.20099998 0.35143957 -1.0001248e-3
v 2.20099998 0.41090268 0.22091928
v 2.20099998 0.57335895 0.38337556
v 1.45100021 1.04254305 0.92180449
v 1.45100021 1.71808314 0.24626468
v 1.45099998 1.47081828 -0.67654008
v 1.45099998 0.54801357 -0.92380458
v 1.45099998 -0.12752651 -0.24826477
v 1.45100021 0.11973855 0.67453998
vt 6.8244259e-3 0.45142469
vt 7.3253722e-3 0.36276683
vt 7.8343421e-2 0.45156285
vt 7.9072796e-2 0.36290261
vt 0.12232827 0.40739799
vt 0.12659803 0.46193025
vt 0.12716006 0.41593906
vt 0.19651996 0.48057887
vt 0.19673155 0.39833543
vt 0.22301674 0.41063923
vt 0.22381234 0.36488229
vt 0.23273407 0.43916866
vt 0.24678075 0.45011574
vt 0.24739385 0.32566786
vt 0.28625226 0.47328252
vt 0.28747392 0.30247879
vt 0.33194911 0.47345012
vt 0.33327556 0.30298859
vt 0.37174797 0.45085031
vt 0.37264216 0.32581323
vt 0.39491475 0.41137880
vt 0.39524209 0.36561209
vn -0.50916053 -0.15840920 0.84596813
vn -0.50916055 0.56017040 0.65342533
vn -0.50916064 0.65342504 0.56017065
vn -0.50916071 0.84596800 -0.15840930
vn -0.50916084 0.81183442 -0.28579733
vn -0.50916097 0.28579729 -0.81183435
vn -0.50916079 0.15840922 -0.84596797
vn -0.50916082 -0.56017049 -0.65342504
vn -0.50916109 -0.65342487 -0.56017045
vn -0.50916096 -0.84596777 0.15840975
vn -0.50916076 -0.81183437 0.28579761
vn -0.50916063 -0.28579732 0.81183456
vn 0.37491122 -0.10759524 0.92079577
vn 0.37491119 0.55357804 0.74363496
vn 0.37491132 0.74363487 0.55357807
vn 0.37491125 0.92079573 -0.10759545
vn 0.37491113 0.85123017 -0.36721770
vn 0.37491106 0.36721745 -0.85123031
vn 0.37491095 0.10759520 -0.92079588
vn 0.37491094 -0.55357817 -0.74363499
vn 0.37491112 -0.74363484 -0.55357825
vn 0.37491125 -0.92079573 0.10759547
vn 0.37491123 -0.85123017 0.36721761
vn 0.37491137 -0.36721757 0.85123013
vn 0.80157299 -4.6846676e-8 0.59789693
vn 0.80157299 0.29894847 0.51779394
vn 0.80157295 0.51779402 0.29894844
vn 0.80157288 0.59789708 -4.4775241e-8
vn 0.80157285 0.51779408 -0.29894858
vn 0.80157283 0.29894849 -0.51779417
vn 0.80157280 -3.1366966e-8 -0.59789719
vn 0.80157283 -0.29894858 -0.51779412
vn 0.80157284 -0.51779411 -0.29894855
vn 0.80157289 -0.59789706 1.3733859e-8
vn 0.80157292 -0.51779402 0.29894852
vn 0.80157296 -0.29894853 0.51779394
vn 9.4375712e-8 0.25881901 0.96592583
vn 2.0585758e-7 0.96592583 0.25881901
vn -1.3628826e-7 0.70710671 -0.70710686
vn -1.5355949e-7 -0.25881905 -0.96592582
vn -1.3334944e-7 -0.96592584 -0.25881899
vn 1.6074343e-7 -0.70710670 0.70710687
g Box01_sep4_01 - Default
usemtl 01 - Default
f 1/8/1 37/12/37 2/9/2
f 2/20/2 3/22/3 4/21/4 5/19/5 6/17/6 7/15/7 8/13/8 9/10/9 10/11/10 11/14/11 12/16/12 1/18/1
f 2/2/2 14/1/14 15/3/15 3/4/3
f 2/4/2 37/5/37 14/3/14
f 3/8/3 38/12/38 4/9/4
f 4/2/4 16/1/16 17/3/17 5/4/5
f 4/4/4 38/5/38 16/3/16
f 5/8/5 39/12/39 6/9/6
f 6/3/6 18/4/18 19/2/19 7/1/7
f 6/3/6 39/5/39 18/4/18
f 7/8/7 40/12/40 8/9/8
f 8/2/8 20/1/20 21/3/21 9/4/9
f 8/4/8 40/5/40 20/3/20
f 9/8/9 41/12/41 10/9/10
f 10/2/10 22/1/22 23/3/23 11/4/11
f 10/4/10 41/5/41 22/3/22
f 11/8/11 42/12/42 12/9/12
f 12/2/12 24/1/24 13/3/13 1/4/1
f 12/4/12 42/5/42 24/3/24
f 13/9/13 25/7/25 26/6/26 14/8/14
f 13/3/13 37/5/37 1/4/1
f 14/9/14 26/7/26 27/6/27 15/8/15
f 14/8/14 37/12/37 13/9/13
f 15/9/15 27/7/27 28/6/28 16/8/16
f 15/3/15 38/5/38 3/4/3
f 16/9/16 28/7/28 29/6/29 17/8/17
f 16/8/16 38/12/38 15/9/15
f 17/9/17 29/7/29 30/6/30 18/8/18
f 17/3/17 39/5/39 5/4/5
f 18/9/18 30/7/30 31/6/31 19/8/19
f 18/8/18 39/12/39 17/9/17
f 19/9/19 31/7/31 32/6/32 20/8/20
f 19/4/19 40/5/40 7/3/7
f 20/9/20 32/7/32 33/6/33 21/8/21
f 20/8/20 40/12/40 19/9/19
f 21/9/21 33/7/33 34/6/34 22/8/22
f 21/4/21 41/5/41 9/3/9
f 22/9/22 34/7/34 35/6/35 23/8/23
f 22/8/22 41/12/41 21/9/21
f 23/9/23 35/7/35 36/6/36 24/8/24
f 23/3/23 42/5/42 11/4/11
f 24/9/24 36/7/36 25/6/25 13/8/13
f 24/8/24 42/12/42 23/9/23
f 25/21/25 36/19/36 35/17/35 34/15/34 33/13/33 32/10/32 31/11/31 30/14/30 29/16/29 28/18/28 27/20/27 26/22/26
