# Exported from Wings 3D 0.99.04a
mtllib solar.mtl
o Cylinder01
#83 vertices, 95 faces
v 9.9998468e-4 -2.5931124e-2 -9.9984923e-4
v 2.44796439 -2.5931124e-2 -9.9984923e-4
v 1.22448203 -2.5931124e-2 -2.12013335
v -1.22248236 -2.5931124e-2 -2.12013320
v -2.44596456 -2.5931124e-2 -9.9963530e-4
v -1.22248204 -2.5931124e-2 2.11813362
v 1.22448251 -2.5931124e-2 2.11813330
v 4.89492894 -2.5931124e-2 -9.9984923e-4
v 2.44796407 -2.5931124e-2 -4.23926700
v -2.44596471 -2.5931124e-2 -4.23926637
v -4.89292895 -2.5931124e-2 -9.9942138e-4
v -2.44596408 -2.5931124e-2 4.23726694
v 2.44796502 -2.5931124e-2 4.23726631
v 4.89492894 0.71270948 -9.9988823e-4
v 2.44796407 0.71270948 -4.23926700
v -2.44596471 0.71270948 -4.23926637
v -4.89292895 0.71270948 -9.9946041e-4
v -2.44596408 0.71270948 4.23726694
v 2.44796502 0.71270948 4.23726631
v 3.32100015 1.32851123 -9.9989314e-4
v 1.66099984 1.32851123 -2.87620451
v -1.65900016 1.32851123 -2.87620420
v -3.31899985 1.32851123 -9.9960288e-4
v -1.65899969 1.32851123 2.87420446
v 1.66100047 1.32851123 2.87420414
v 3.32100015 1.84483244 -9.9991896e-4
v 1.66099968 1.84483244 -2.87620451
v -1.65900032 1.84483244 -2.87620420
v -3.31899985 1.84483244 -9.9962869e-4
v -1.65899969 1.84483244 2.87420446
v 1.66100031 1.84483244 2.87420414
v 1.66100000 1.84483244 -9.9991896e-4
v 0.83099992 1.84483244 -1.43860211
v -0.82900008 1.84483244 -1.43860195
v -1.65900000 1.84483244 -9.9977382e-4
v -0.82899985 1.84483244 1.43660237
v 0.83100023 1.84483244 1.43660222
v 1.0000202e-3 1.84483244 -9.9991896e-4
v 3.31811575 3.50483212 -9.9994493e-4
v 1.65955748 3.50483212 -2.87370670
v -1.65755812 3.50483212 -2.87370638
v -3.31611544 3.50483212 -9.9965494e-4
v -1.65755748 3.50483212 2.87170665
v 1.65955811 3.50483212 2.87170601
v 7.81454696 1.66230757 2.09263337
v 2.09463276 1.66230757 -7.81454684
v -2.09263419 1.66230757 -7.81454620
v -7.81254602 1.66230757 2.09263416
v -5.71891231 1.66230757 5.71891370
v 5.72091389 1.66230757 5.71891307
v 7.81454696 3.25924528 2.09263337
v 2.09463276 3.25924528 -7.81454684
v -2.09263419 3.25924528 -7.81454620
v -7.81254602 3.25924528 2.09263416
v -5.71891231 3.25924528 5.71891370
v 5.72091389 3.25924528 5.71891307
v 8.88117536 0.75026693 3.70105156
v 1.23501558 0.75026693 -9.54248270
v -1.23301868 0.75026693 -9.54248270
v -8.87917505 0.75026693 3.70105188
v -7.64515796 0.75026693 5.83843201
v 7.64715827 0.75026693 5.83843201
v 6.07611452 -2.8205879e-2 -3.50846939
v -6.07411548 -2.8205959e-2 -3.50846875
v 1.0005788e-3 -2.8206196e-2 7.01393838
v 1.16300000 1.91278033 -9.9977085e-4
v 0.58200000 1.91278033 -1.00732128
v -0.58000000 1.91278033 -1.00732120
v -1.16100000 1.91278033 -9.9966928e-4
v -0.57999985 1.91278033 1.00532186
v 0.58200019 1.91278033 1.00532170
v 1.16300000 2.57678033 -9.9977085e-4
v 0.58200000 2.57678033 -1.00732128
v -0.58000000 2.57678033 -1.00732120
v -1.16100000 2.57678033 -9.9966928e-4
v -0.57999985 2.57678033 1.00532186
v 0.58200019 2.57678033 1.00532170
v 0.66047704 3.24078033 -9.9975922e-4
v 0.33073850 3.24078033 -0.57212358
v -0.32873847 3.24078033 -0.57212355
v -0.65847693 3.24078033 -9.9970155e-4
v -0.32873837 3.24078033 0.57012404
v 0.33073862 3.24078033 0.57012393
vt 6.8215281e-3 1.0004284e-2
vt 1.0156348e-2 0.60965598
vt 1.3015270e-2 0.32855150
vt 1.3015270e-2 0.35443652
vt 1.9959874e-2 0.18810701
vt 1.9959874e-2 0.22417876
vt 2.4420757e-2 0.40850329
vt 2.5897652e-2 0.70977092
vt 2.5898248e-2 0.86942881
vt 5.1198907e-2 0.17007115
vt 5.1198907e-2 0.24221465
vt 5.3263754e-2 0.30266106
vt 6.0983181e-2 0.27973861
vt 7.6974899e-2 0.25204015
vt 7.6974899e-2 0.27973861
vt 7.6974899e-2 0.30743706
vt 8.2437910e-2 0.18810701
vt 8.2437910e-2 0.22417876
vt 8.4970757e-2 0.26588935
vt 8.4970757e-2 0.29358780
vt 9.2966601e-2 0.23389369
vt 9.2966616e-2 0.27973861
vt 9.9245943e-2 0.60972929
vt 9.9245943e-2 0.62781668
vt 0.10096246 0.26588935
vt 0.10096246 0.29358780
vt 0.10895832 0.25204015
vt 0.10895832 0.27973861
vt 0.10895832 0.30743706
vt 0.12495004 0.27973861
vt 0.13266948 0.30266106
vt 0.18012369 0.32850540
vt 0.18012369 0.35439041
vt 0.21655291 0.59866744
vt 0.21740881 0.60972929
vt 0.21740881 0.62781668
vt 0.21911596 0.40782779
vt 0.21921137 0.38429654
vt 0.22357997 8.8597732e-3
vt 0.23449337 0.94718784
vt 0.23495322 0.62995136
vt 0.23683107 0.37983102
vt 0.29825008 0.27127326
vt 0.30584013 0.61042589
vt 0.32977495 0.19783926
vt 0.44033837 9.5487814e-3
vt 0.54653329 0.19852811
vt 0.56133753 0.27081078
vt 0.62464184 0.38011336
vt 0.68905979 3.8155749e-2
vt 0.69230062 0.59648478
vt 0.69297785 0.98547196
vt 0.75673771 0.39647174
vt 0.75762516 0.58128184
vt 0.81561631 3.8900651e-2
vt 0.83703572 0.59875548
vt 0.83703595 0.51154453
vt 0.88246250 7.7359617e-2
vt 0.88249779 1.3740957e-2
vt 0.90651292 0.15306753
vt 0.91164273 0.31602690
vt 0.91256273 0.46793905
vt 0.91256273 0.64236069
vt 0.92398608 0.24183814
vt 0.92961431 0.17487693
vt 0.93572545 0.26521689
vt 0.96917975 0.26509213
vt 0.96942276 0.15299958
vt 0.97461700 0.17470911
vt 0.98002249 0.67680669
vt 0.98074448 0.24162650
vt 0.98116404 0.90608150
vt 0.98612946 0.29246584
vt 0.98808944 0.51154453
vt 0.98808944 0.59875548
vt 0.99330980 7.7239931e-2
vt 0.99334496 1.3621271e-2
vn -1.5145613e-23 -1.00000000 -2.0875116e-16
vn 2.9996831e-17 -1.00000000 -1.5676603e-16
vn -2.2302472e-19 -1.00000000 0.0000000e+0
vn 1.1151237e-19 -1.00000000 0.0000000e+0
vn -2.9996838e-17 -1.00000000 -1.5676600e-16
vn -3.0108364e-17 -1.00000000 -2.6114158e-16
vn 3.0219843e-17 -1.00000000 -2.6114161e-16
vn 0.0000000e+0 1.00000000 -3.6997392e-24
vn 5.9993663e-17 -1.00000000 -1.0478088e-16
vn 5.9993663e-17 -1.00000000 -1.0478088e-16
vn 0.86602542 1.3199157e-8 0.49999997
vn -7.0948086e-4 -0.99999966 4.0961900e-4
vn 0.94770373 1.6850122e-8 0.31915145
vn -4.4604943e-19 -1.00000000 0.0000000e+0
vn -4.4604943e-19 -1.00000000 0.0000000e+0
vn -1.2939292e-7 -4.9140480e-16 -1.00000000
vn -7.0948086e-4 -0.99999966 4.0961900e-4
vn 0.19745849 0.0000000e+0 -0.98031125
vn 2.2302474e-19 -1.00000000 0.0000000e+0
vn 2.2302474e-19 -1.00000000 0.0000000e+0
vn -1.2939292e-7 -4.9140480e-16 -1.00000000
vn 7.0950546e-4 -0.99999966 4.0963311e-4
vn -0.19745848 0.0000000e+0 -0.98031125
vn -5.9993658e-17 -1.00000000 -1.0478085e-16
vn -5.9993658e-17 -1.00000000 -1.0478085e-16
vn -0.86602535 1.3212242e-8 0.50000010
vn 7.0950546e-4 -0.99999966 4.0963311e-4
vn -0.94770364 1.6866833e-8 0.31915169
vn -6.0216683e-17 -1.00000000 -1.0478085e-16
vn -6.0216683e-17 -1.00000000 -1.0478085e-16
vn -0.86602535 1.3212242e-8 0.50000010
vn -1.0601833e-10 -0.99999966 -8.1935192e-4
vn -0.75024515 0.0000000e+0 0.66115975
vn 6.0439712e-17 -1.00000000 -1.0478088e-16
vn 6.0439712e-17 -1.00000000 -1.0478088e-16
vn 0.86602542 1.3199157e-8 0.49999997
vn -1.0601833e-10 -0.99999966 -8.1935192e-4
vn 0.75024526 0.0000000e+0 0.66115963
vn 0.86602542 1.3199157e-8 0.49999997
vn 0.35655286 0.91131411 -0.20585591
vn 0.35655287 0.91131411 0.20585588
vn 0.22327451 0.96619424 -0.12890761
vn 0.94770373 1.6850122e-8 0.31915145
vn -1.2939292e-7 -4.9140480e-16 -1.00000000
vn 0.35655286 0.91131411 -0.20585591
vn -4.7610396e-8 0.91131411 -0.41171178
vn 0.22327451 0.96619424 -0.12890761
vn 0.19745849 0.0000000e+0 -0.98031125
vn -1.2939292e-7 -4.9140480e-16 -1.00000000
vn -4.7610396e-8 0.91131411 -0.41171178
vn -0.35655285 0.91131412 -0.20585585
vn -0.19745848 0.0000000e+0 -0.98031125
vn -0.22327451 0.96619425 -0.12890758
vn -0.86602535 1.3212242e-8 0.50000010
vn -0.35655285 0.91131412 -0.20585585
vn -0.35655280 0.91131413 0.20585590
vn -0.22327451 0.96619425 -0.12890758
vn -0.94770364 1.6866833e-8 0.31915169
vn -0.86602535 1.3212242e-8 0.50000010
vn -0.35655280 0.91131413 0.20585590
vn 4.7610393e-8 0.91131411 0.41171178
vn -0.75024515 0.0000000e+0 0.66115975
vn 3.3359472e-8 0.96619422 0.25781529
vn 0.86602542 1.3199157e-8 0.49999997
vn 4.7610393e-8 0.91131411 0.41171178
vn 0.35655287 0.91131411 0.20585588
vn 3.3359472e-8 0.96619422 0.25781529
vn 0.75024526 0.0000000e+0 0.66115963
vn 0.35655286 0.91131411 -0.20585591
vn 0.35655287 0.91131411 0.20585588
vn 0.86602537 1.2026560e-7 -0.50000005
vn 0.86602541 1.4526760e-7 0.49999998
vn 0.35655286 0.91131411 -0.20585591
vn -4.7610396e-8 0.91131411 -0.41171178
vn 0.86602537 1.2026560e-7 -0.50000005
vn -9.5367432e-8 -2.9015509e-14 -1.00000000
vn -4.7610396e-8 0.91131411 -0.41171178
vn -0.35655285 0.91131412 -0.20585585
vn -9.5367432e-8 -2.9015509e-14 -1.00000000
vn -0.86602547 -1.4526761e-7 -0.49999988
vn -0.35655285 0.91131412 -0.20585585
vn -0.35655280 0.91131413 0.20585590
vn -0.86602547 -1.4526761e-7 -0.49999988
vn -0.86602536 1.2501001e-8 0.50000007
vn -0.35655280 0.91131413 0.20585590
vn 4.7610393e-8 0.91131411 0.41171178
vn -0.86602536 1.2501001e-8 0.50000007
vn 9.5367429e-8 1.4507754e-14 1.00000000
vn 4.7610393e-8 0.91131411 0.41171178
vn 0.35655287 0.91131411 0.20585588
vn 9.5367429e-8 1.4507754e-14 1.00000000
vn 0.86602541 1.4526760e-7 0.49999998
vn 0.86602537 1.2026560e-7 -0.50000005
vn 0.86602541 1.4526760e-7 0.49999998
vn 0.0000000e+0 1.00000000 0.0000000e+0
vn 0.0000000e+0 -1.5646222e-8 -1.00000000
vn -3.1987112e-2 -0.99931765 -1.8467765e-2
vn 0.42223287 3.7393040e-4 -0.90648732
vn 0.86602537 1.2026560e-7 -0.50000005
vn -9.5367432e-8 -2.9015509e-14 -1.00000000
vn 0.0000000e+0 1.00000000 0.0000000e+0
vn 0.86602550 4.7202664e-8 0.49999983
vn 4.6732820e-9 -0.99931765 3.6935537e-2
vn 0.99615750 3.7394193e-4 8.7579135e-2
vn -9.5367432e-8 -2.9015509e-14 -1.00000000
vn -0.86602547 -1.4526761e-7 -0.49999988
vn 0.0000000e+0 1.00000000 0.0000000e+0
vn -0.86602535 4.6689305e-8 0.50000009
vn 4.6732820e-9 -0.99931765 3.6935537e-2
vn -0.99615748 3.7394179e-4 8.7579299e-2
vn -0.86602547 -1.4526761e-7 -0.49999988
vn -0.86602536 1.2501001e-8 0.50000007
vn 0.0000000e+0 1.00000000 0.0000000e+0
vn -8.7427915e-8 -1.5657289e-8 -1.00000000
vn 3.1987113e-2 -0.99931765 -1.8467771e-2
vn -0.42223300 3.7393044e-4 -0.90648726
vn -0.86602536 1.2501001e-8 0.50000007
vn 9.5367429e-8 1.4507754e-14 1.00000000
vn 0.0000000e+0 1.00000000 0.0000000e+0
vn 0.86602543 -4.6965210e-8 0.49999995
vn 3.1987113e-2 -0.99931765 -1.8467771e-2
vn 0.57392467 3.7389845e-4 0.81890801
vn 9.5367429e-8 1.4507754e-14 1.00000000
vn 0.86602541 1.4526760e-7 0.49999998
vn 0.0000000e+0 1.00000000 0.0000000e+0
vn -0.86602535 4.8700363e-8 0.50000010
vn -3.1987112e-2 -0.99931765 -1.8467765e-2
vn -0.57392456 3.7397817e-4 0.81890809
vn 0.0000000e+0 1.00000000 -2.5248614e-24
vn 0.0000000e+0 1.00000000 -2.5248614e-24
vn 0.0000000e+0 1.00000000 -2.5248614e-24
vn 0.0000000e+0 -1.5646222e-8 -1.00000000
vn -0.65514126 0.65400300 -0.37824596
vn 0.0000000e+0 1.00000000 6.2030054e-17
vn 0.0000000e+0 1.00000000 6.2030054e-17
vn 0.0000000e+0 1.00000000 6.2030054e-17
vn 0.86602550 4.7202664e-8 0.49999983
vn 7.2186498e-8 0.65400308 0.75649188
vn 0.0000000e+0 1.00000000 -6.2030056e-17
vn 0.0000000e+0 1.00000000 -6.2030056e-17
vn 0.0000000e+0 1.00000000 -6.2030056e-17
vn 7.2186498e-8 0.65400308 0.75649188
vn -0.86602535 4.6689305e-8 0.50000009
vn 0.0000000e+0 1.00000000 -4.8746170e-24
vn 0.0000000e+0 1.00000000 -4.8746170e-24
vn 0.0000000e+0 1.00000000 -4.8746170e-24
vn -8.7427915e-8 -1.5657289e-8 -1.00000000
vn 0.65514124 0.65400298 -0.37824603
vn 0.0000000e+0 1.00000000 6.2030051e-17
vn 0.0000000e+0 1.00000000 6.2030051e-17
vn 0.0000000e+0 1.00000000 6.2030051e-17
vn 0.65514124 0.65400298 -0.37824603
vn 0.86602543 -4.6965210e-8 0.49999995
vn 0.0000000e+0 1.00000000 -6.2030056e-17
vn 0.0000000e+0 1.00000000 -6.2030056e-17
vn 0.0000000e+0 1.00000000 -6.2030056e-17
vn -0.86602535 4.8700363e-8 0.50000010
vn -0.65514126 0.65400300 -0.37824596
vn 0.0000000e+0 -1.5646222e-8 -1.00000000
vn -0.65514126 0.65400300 -0.37824596
vn 4.2993130e-2 0.99876697 2.4822092e-2
vn 0.42223287 3.7393040e-4 -0.90648732
vn 0.86602550 4.7202664e-8 0.49999983
vn 7.2186498e-8 0.65400308 0.75649188
vn -6.2836636e-9 0.99876697 -4.9644195e-2
vn 0.99615750 3.7394193e-4 8.7579135e-2
vn 7.2186498e-8 0.65400308 0.75649188
vn -0.86602535 4.6689305e-8 0.50000009
vn -6.2836636e-9 0.99876697 -4.9644195e-2
vn -0.99615748 3.7394179e-4 8.7579299e-2
vn -8.7427915e-8 -1.5657289e-8 -1.00000000
vn 0.65514124 0.65400298 -0.37824603
vn -4.2993132e-2 0.99876697 2.4822099e-2
vn -0.42223300 3.7393044e-4 -0.90648726
vn 0.65514124 0.65400298 -0.37824603
vn 0.86602543 -4.6965210e-8 0.49999995
vn -4.2993132e-2 0.99876697 2.4822099e-2
vn 0.57392467 3.7389845e-4 0.81890801
vn -0.86602535 4.8700363e-8 0.50000010
vn -0.65514126 0.65400300 -0.37824596
vn 4.2993130e-2 0.99876697 2.4822092e-2
vn -0.57392456 3.7397817e-4 0.81890809
vn -3.1987112e-2 -0.99931765 -1.8467765e-2
vn 0.42223287 3.7393040e-4 -0.90648732
vn -0.40425060 -0.88436905 -0.23339415
vn 0.83339909 0.0000000e+0 -0.55267165
vn 4.6732820e-9 -0.99931765 3.6935537e-2
vn 0.99615750 3.7394193e-4 8.7579135e-2
vn 4.4414060e-8 -0.88436905 0.46678837
vn 0.89532711 0.0000000e+0 -0.44540922
vn 4.6732820e-9 -0.99931765 3.6935537e-2
vn -0.99615748 3.7394179e-4 8.7579299e-2
vn 4.4414060e-8 -0.88436905 0.46678837
vn -0.89532752 0.0000000e+0 -0.44540840
vn 3.1987113e-2 -0.99931765 -1.8467771e-2
vn -0.42223300 3.7393044e-4 -0.90648726
vn 0.40425047 -0.88436911 -0.23339414
vn -0.83339887 0.0000000e+0 -0.55267199
vn 3.1987113e-2 -0.99931765 -1.8467771e-2
vn 0.57392467 3.7389845e-4 0.81890801
vn 0.40425047 -0.88436911 -0.23339414
vn 6.1928187e-2 0.0000000e+0 0.99808061
vn -3.1987112e-2 -0.99931765 -1.8467765e-2
vn -0.57392456 3.7397817e-4 0.81890809
vn -0.40425060 -0.88436905 -0.23339415
vn -6.1928554e-2 0.0000000e+0 0.99808059
vn 4.2993130e-2 0.99876697 2.4822092e-2
vn 0.42223287 3.7393040e-4 -0.90648732
vn 0.83339909 0.0000000e+0 -0.55267165
vn 0.71324109 0.56720036 0.41178987
vn -6.2836636e-9 0.99876697 -4.9644195e-2
vn 0.99615750 3.7394193e-4 8.7579135e-2
vn -7.8362117e-8 0.56720035 -0.82357984
vn 0.89532711 0.0000000e+0 -0.44540922
vn -6.2836636e-9 0.99876697 -4.9644195e-2
vn -0.99615748 3.7394179e-4 8.7579299e-2
vn -0.89532752 0.0000000e+0 -0.44540840
vn -7.8362117e-8 0.56720035 -0.82357984
vn -4.2993132e-2 0.99876697 2.4822099e-2
vn -0.42223300 3.7393044e-4 -0.90648726
vn -0.71324097 0.56720048 0.41178991
vn -0.83339887 0.0000000e+0 -0.55267199
vn -4.2993132e-2 0.99876697 2.4822099e-2
vn 0.57392467 3.7389845e-4 0.81890801
vn 6.1928187e-2 0.0000000e+0 0.99808061
vn -0.71324097 0.56720048 0.41178991
vn 4.2993130e-2 0.99876697 2.4822092e-2
vn -0.57392456 3.7397817e-4 0.81890809
vn 0.71324109 0.56720036 0.41178987
vn -6.1928554e-2 0.0000000e+0 0.99808059
vn -0.40425060 -0.88436905 -0.23339415
vn 0.83339909 0.0000000e+0 -0.55267165
vn 0.71324109 0.56720036 0.41178987
vn 4.4414060e-8 -0.88436905 0.46678837
vn -7.8362117e-8 0.56720035 -0.82357984
vn 0.89532711 0.0000000e+0 -0.44540922
vn 4.4414060e-8 -0.88436905 0.46678837
vn -0.89532752 0.0000000e+0 -0.44540840
vn -7.8362117e-8 0.56720035 -0.82357984
vn 0.40425047 -0.88436911 -0.23339414
vn -0.71324097 0.56720048 0.41178991
vn -0.83339887 0.0000000e+0 -0.55267199
vn 0.40425047 -0.88436911 -0.23339414
vn 6.1928187e-2 0.0000000e+0 0.99808061
vn -0.71324097 0.56720048 0.41178991
vn -0.40425060 -0.88436905 -0.23339415
vn 0.71324109 0.56720036 0.41178987
vn -6.1928554e-2 0.0000000e+0 0.99808059
vn -7.0948086e-4 -0.99999966 4.0961900e-4
vn 0.22327451 0.96619424 -0.12890761
vn 0.94770373 1.6850122e-8 0.31915145
vn 0.19745849 0.0000000e+0 -0.98031125
vn 7.0950546e-4 -0.99999966 4.0963311e-4
vn -0.19745848 0.0000000e+0 -0.98031125
vn -0.22327451 0.96619425 -0.12890758
vn -0.94770364 1.6866833e-8 0.31915169
vn -1.0601833e-10 -0.99999966 -8.1935192e-4
vn -0.75024515 0.0000000e+0 0.66115975
vn 3.3359472e-8 0.96619422 0.25781529
vn 0.75024526 0.0000000e+0 0.66115963
vn 0.0000000e+0 -1.00000000 -6.3295974e-17
vn 0.86602540 0.0000000e+0 -0.50000000
vn 0.86602547 -1.2225183e-17 0.49999989
vn 0.0000000e+0 -1.00000000 -6.3295974e-17
vn 0.86602540 0.0000000e+0 -0.50000000
vn -6.8119594e-8 1.4389179e-16 -1.00000000
vn 0.0000000e+0 -1.00000000 -6.3295974e-17
vn -6.8119594e-8 1.4389179e-16 -1.00000000
vn -0.86602541 4.9322284e-17 -0.49999999
vn 0.0000000e+0 -1.00000000 -6.3295974e-17
vn -0.86602541 4.9322284e-17 -0.49999999
vn -0.86602535 0.0000000e+0 0.50000010
vn 0.0000000e+0 -1.00000000 -6.3295974e-17
vn -0.86602535 0.0000000e+0 0.50000010
vn 1.3623918e-7 0.0000000e+0 1.00000000
vn 0.0000000e+0 -1.00000000 -6.3295974e-17
vn 1.3623918e-7 0.0000000e+0 1.00000000
vn 0.86602547 -1.2225183e-17 0.49999989
vn 0.86602540 0.0000000e+0 -0.50000000
vn 0.86602547 -1.2225183e-17 0.49999989
vn 0.72431497 0.54817006 -0.41818347
vn 0.72431498 0.54817011 0.41818338
vn 0.86602540 0.0000000e+0 -0.50000000
vn -6.8119594e-8 1.4389179e-16 -1.00000000
vn 0.72431497 0.54817006 -0.41818347
vn -5.4518335e-8 0.54817007 -0.83636689
vn -6.8119594e-8 1.4389179e-16 -1.00000000
vn -0.86602541 4.9322284e-17 -0.49999999
vn -5.4518335e-8 0.54817007 -0.83636689
vn -0.72431496 0.54817011 -0.41818342
vn -0.86602541 4.9322284e-17 -0.49999999
vn -0.86602535 0.0000000e+0 0.50000010
vn -0.72431496 0.54817011 -0.41818342
vn -0.72431489 0.54817013 0.41818352
vn -0.86602535 0.0000000e+0 0.50000010
vn 1.3623918e-7 0.0000000e+0 1.00000000
vn -0.72431489 0.54817013 0.41818352
vn 1.2720943e-7 0.54817018 0.83636682
vn 1.3623918e-7 0.0000000e+0 1.00000000
vn 0.86602547 -1.2225183e-17 0.49999989
vn 1.2720943e-7 0.54817018 0.83636682
vn 0.72431498 0.54817011 0.41818338
vn 0.72431497 0.54817006 -0.41818347
vn 0.72431498 0.54817011 0.41818338
vn 0.0000000e+0 1.00000000 0.0000000e+0
vn 0.72431497 0.54817006 -0.41818347
vn -5.4518335e-8 0.54817007 -0.83636689
vn 0.0000000e+0 1.00000000 0.0000000e+0
vn -5.4518335e-8 0.54817007 -0.83636689
vn -0.72431496 0.54817011 -0.41818342
vn 0.0000000e+0 1.00000000 0.0000000e+0
vn -0.72431496 0.54817011 -0.41818342
vn -0.72431489 0.54817013 0.41818352
vn 0.0000000e+0 1.00000000 0.0000000e+0
vn -0.72431489 0.54817013 0.41818352
vn 1.2720943e-7 0.54817018 0.83636682
vn 0.0000000e+0 1.00000000 0.0000000e+0
vn 1.2720943e-7 0.54817018 0.83636682
vn 0.72431498 0.54817011 0.41818338
vn 0.0000000e+0 1.00000000 0.0000000e+0
g Cylinder01_1 - Default
usemtl 1 - Default
f 1/22/1 3/20/3 2/15/2
f 1/22/1 4/26/4 3/20/3
f 1/22/1 5/28/5 4/26/4
f 1/22/1 6/25/6 5/28/5
f 1/22/1 7/19/7 6/25/6
f 2/15/2 7/19/7 1/22/1
f 2/15/2 8/13/10 13/14/35 7/19/7
f 3/20/3 9/16/14 8/13/9 2/15/2
f 4/26/4 10/29/19 9/16/15 3/20/3
f 5/28/5 11/30/24 10/29/20 4/26/4
f 6/25/6 12/27/29 11/30/25 5/28/5
f 7/19/7 13/14/34 12/27/30 6/25/6
f 8/23/11 14/24/39 19/36/64 13/35/36
f 8/23/13 63/2/251 14/24/43
f 9/16/17 63/12/249 8/13/12
f 10/23/21 16/24/49 15/36/44 9/35/16
f 10/23/23 64/2/254 16/24/52
f 11/30/27 64/31/253 10/29/22
f 12/23/31 18/24/59 17/36/54 11/35/26
f 12/23/33 65/2/258 18/24/62
f 13/14/37 65/21/257 12/27/32
f 14/42/41 20/43/70 25/48/90 19/49/66
f 14/55/42 63/61/250 15/49/47
f 15/49/45 21/48/73 20/50/69 14/55/40
f 15/36/48 63/44/252 9/35/18
f 16/42/50 22/43/77 21/48/74 15/49/46
f 16/55/53 64/61/255 17/49/57
f 17/49/55 23/48/81 22/50/78 16/55/51
f 17/36/58 64/44/256 11/35/28
f 18/42/60 24/43/85 23/48/82 17/49/56
f 18/55/63 65/61/259 19/49/67
f 19/49/65 25/48/89 24/50/86 18/55/61
f 19/36/68 65/44/260 13/35/38
f 20/4/72 26/3/94 31/32/124 25/33/92
f 21/4/75 27/3/99 26/3/93 20/4/71
f 22/4/79 28/3/105 27/32/100 21/33/76
f 23/4/83 29/3/111 28/32/106 22/33/80
f 24/4/87 30/3/117 29/3/112 23/4/84
f 25/4/91 31/3/123 30/32/118 24/33/88
f 26/69/97 45/71/183 50/64/203 31/65/127
f 27/38/101 33/45/134 32/39/129 26/1/95
f 27/37/102 40/34/163 33/7/137
f 27/37/104 46/53/188 52/54/212 40/34/166
f 28/69/109 47/71/191 46/64/187 27/65/103
f 29/38/113 35/45/144 34/39/139 28/1/107
f 29/37/114 42/34/171 35/7/147
f 29/37/116 48/53/196 54/54/220 42/34/174
f 30/69/121 49/71/199 48/64/195 29/65/115
f 31/38/125 37/45/154 36/39/149 30/1/119
f 31/37/126 44/34/179 37/7/157
f 31/37/128 50/53/204 56/54/228 44/34/182
f 32/47/131 38/46/8 37/45/156
f 32/7/132 39/34/159 26/37/96
f 33/45/135 38/46/8 32/39/130
f 33/9/138 40/40/164 41/41/167 34/8/142
f 34/47/140 38/46/8 33/45/136
f 34/7/143 41/34/168 28/37/108
f 35/45/145 38/46/8 34/39/141
f 35/9/148 42/40/172 43/41/175 36/8/152
f 36/47/150 38/46/8 35/45/146
f 36/7/153 43/34/176 30/37/120
f 37/45/155 38/46/8 36/39/151
f 37/9/158 44/40/180 39/41/160 32/8/133
f 39/34/162 51/54/208 45/53/184 26/37/98
f 40/41/165 52/51/211 53/52/215 41/40/169
f 41/34/170 53/54/216 47/53/192 28/37/110
f 42/41/173 54/51/219 55/52/223 43/40/177
f 43/34/178 55/54/224 49/53/200 30/37/122
f 44/41/181 56/51/227 51/52/207 39/40/161
f 45/71/185 57/67/231 62/66/246 50/64/205
f 46/53/190 58/73/236 52/54/214
f 47/71/193 59/67/237 58/66/234 46/64/189
f 48/53/198 60/73/242 54/54/222
f 49/71/201 61/67/243 60/66/240 48/64/197
f 50/53/206 62/73/248 56/54/230
f 51/54/209 57/73/232 45/53/186
f 52/51/213 58/70/235 59/72/239 53/52/218
f 53/54/217 59/73/238 47/53/194
f 54/51/221 60/70/241 61/72/245 55/52/226
f 55/54/225 61/73/244 49/53/202
f 56/51/229 62/70/247 57/72/233 51/52/210
f 66/10/261 71/17/276 70/18/273 69/11/270 68/6/267 67/5/264
f 66/77/263 72/76/280 77/58/300 71/59/278
f 67/77/265 73/76/283 72/58/279 66/59/262
f 68/77/268 74/76/287 73/58/284 67/59/266
f 69/77/271 75/76/291 74/58/288 68/59/269
f 70/77/274 76/76/295 75/58/292 69/59/272
f 71/77/277 77/76/299 76/58/296 70/59/275
f 72/76/282 78/68/304 83/60/319 77/58/302
f 73/76/285 79/68/306 78/60/303 72/58/281
f 74/76/289 80/68/309 79/60/307 73/58/286
f 75/76/293 81/68/312 80/60/310 74/58/290
f 76/76/297 82/68/315 81/60/313 75/58/294
f 77/76/301 83/68/318 82/60/316 76/58/298
f 79/74/308 80/75/311 81/63/314 82/56/317 83/57/320 78/62/305
