# Exported from Wings 3D 1.0.1
mtllib base.mtl
o Box01_sep10
#114 vertices, 117 faces
v -0.99899989 -0.49900001 -1.0000103e-3
v 1.00099993 -0.49900001 -1.0000219e-3
v -0.99899989 1.0000014e-3 -9.9999539e-4
v 1.00099993 1.0000000e-3 -1.0000000e-3
v -0.99899989 -0.49900001 0.99899995
v 1.00099993 -0.49900004 0.99899995
v -0.99899989 9.9995674e-4 0.99900001
v 1.00099993 9.9995639e-4 0.99900001
v -1.49899995 -0.49900001 -1.0000219e-3
v 1.50100005 -0.49900001 -1.0000219e-3
v -1.49899995 1.0000000e-3 -1.0000000e-3
v 1.50100005 1.0000000e-3 -1.0000000e-3
v -1.49899995 -0.49900004 0.99899995
v 1.50100005 -0.49900004 0.99899995
v -1.49899995 9.9995639e-4 0.99900001
v 1.50100005 9.9995639e-4 0.99900001
v -2.49900007 -0.49900001 -1.0000219e-3
v 2.50099993 -0.49900001 -1.0000219e-3
v -2.49900007 0.50099999 -9.9993346e-4
v 2.50099993 0.50099999 -9.9993346e-4
v -2.49900007 -0.49900004 0.99899995
v 2.50099993 -0.49900004 0.99899995
v -2.49900007 9.9995639e-4 0.99900001
v 2.50099993 9.9995639e-4 0.99900001
v -3.49900007 -0.49900001 -1.0000219e-3
v 3.50099993 -0.49900001 -1.0000219e-3
v -3.49900007 1.0000000e-3 -1.0000000e-3
v 3.50099993 1.0000000e-3 -1.0000000e-3
v -3.49900007 -0.49900004 0.99899995
v 3.50099993 -0.49900004 0.99899995
v -3.49900007 9.9995639e-4 0.99900001
v 3.50099993 9.9995639e-4 0.99900001
v -3.99900007 -0.49900007 -9.9996233e-4
v 4.00099993 -0.49900007 -9.9996233e-4
v -3.99900007 -0.49900022 0.99899995
v 4.00099993 -0.49900022 0.99899995
v -0.99899989 -0.49900007 1.99899995
v 1.00099993 -0.49900007 1.99899995
v -0.99899989 9.9991204e-4 1.99899995
v 1.00099993 9.9991262e-4 1.99899995
v -0.99899989 -0.49899995 -1.00100005
v 1.00099993 -0.49899995 -1.00100005
v -0.99899989 1.0000461e-3 -1.00100005
v 1.00099993 1.0000437e-3 -1.00100005
v -1.49899995 -0.49900007 1.99899995
v 1.50100005 -0.49900007 1.99899995
v -1.49899995 9.9991262e-4 1.99899995
v 1.50100005 9.9991262e-4 1.99899995
v -2.49900007 -0.49900007 1.99899995
v 2.50099993 -0.49900007 1.99899995
v -2.49900007 9.9991262e-4 1.99899995
v 2.50099993 9.9991262e-4 1.99899995
v -3.49900007 -0.49900007 1.99899995
v 3.50099993 -0.49900007 1.99899995
v -3.49900007 9.9991262e-4 1.99899995
v 3.50099993 9.9991262e-4 1.99899995
v -1.49899995 -0.49900013 2.99900007
v 1.50100005 -0.49900013 2.99900007
v -1.49899995 -0.24899995 2.99900007
v 1.50100005 -0.24899995 2.99900007
v -2.49900007 -0.49900013 2.99900007
v 2.50099993 -0.49900013 2.99900007
v -2.49900007 -0.24899995 2.99900007
v 2.50099993 -0.24899995 2.99900007
v -3.49900007 -0.49900013 2.99900007
v 3.50099993 -0.49900013 2.99900007
v -3.49900007 -0.24899995 2.99900007
v 3.50099993 -0.24899995 2.99900007
v -1.49899995 -0.49899995 -1.00100005
v 1.50100005 -0.49899995 -1.00100005
v -1.49899995 1.0000437e-3 -1.00100005
v 1.50100005 1.0000437e-3 -1.00100005
v -2.49900007 -0.49899995 -1.00100005
v 2.50099993 -0.49899995 -1.00100005
v -2.49900007 1.0000437e-3 -1.00100005
v 2.50099993 1.0000437e-3 -1.00100005
v -3.49900007 -0.49899995 -1.00100005
v 3.50099993 -0.49899995 -1.00100005
v -3.49900007 1.0000437e-3 -1.00100005
v 3.50099993 1.0000437e-3 -1.00100005
v -0.99899989 1.00100005 -9.9992089e-4
v 1.00099993 1.00100005 -9.9992659e-4
v -0.99899989 1.00099993 0.99900007
v 1.00099993 1.00099993 0.99900007
v -0.99899977 0.76444042 1.35512805
v 1.00099993 0.76444042 1.35512805
v -0.99899989 0.76444054 -0.41282663
v 1.00099981 0.76444054 -0.41282669
v -1.49899995 0.50099999 -9.9993346e-4
v 1.50100005 0.50099999 -9.9993346e-4
v -1.49899995 0.50099999 0.49899998
v 1.50100005 0.50099999 0.49900001
v -2.49900007 0.50099999 0.49899998
v 2.50099993 0.50099999 0.49900001
v -3.49900007 0.50099999 -9.9993346e-4
v 3.50099993 0.50099999 -9.9993346e-4
v -3.49900007 0.50099999 0.49899998
v 3.50099993 0.50099999 0.49900001
v -1.49899995 0.50100005 -1.00099993
v 1.50100005 0.50100005 -1.00099993
v -2.49900007 0.50100005 -1.00099993
v 2.50099993 0.50100005 -1.00099993
v -3.49900007 0.50100005 -1.00099993
v 3.50099993 0.50100005 -1.00099993
v -0.99899989 -0.49899992 -1.50099993
v 1.00099993 -0.49899992 -1.50099993
v -1.49899995 -0.49899992 -1.50100005
v 1.50100005 -0.49899992 -1.50100005
v -2.49900007 -0.49899992 -1.50100005
v 2.50099993 -0.49899992 -1.50100005
v -0.35427910 -0.49900010 2.49900007
v 0.35627908 -0.49900010 2.49900007
v -0.35427910 9.9987118e-4 2.49900007
v 0.35627908 9.9987118e-4 2.49900007
vt 1.2763426e-2 1.1350773e-2
vt 1.2763426e-2 0.13843144
vt 1.2763426e-2 0.26551211
vt 1.5478211e-2 0.61694187
vt 1.5478379e-2 0.56853020
vt 1.5478746e-2 0.47170690
vt 1.5479079e-2 0.37488356
vt 1.5479446e-2 0.27806014
vt 6.3889995e-2 0.56853038
vt 6.3890345e-2 0.47170708
vt 6.3890696e-2 0.37488371
vt 6.3891046e-2 0.27806035
vt 0.13780914 0.51158172
vt 0.13780975 0.34040248
vt 0.13984409 1.1350773e-2
vt 0.13984409 0.13843144
vt 0.13984409 0.26551211
vt 0.16071373 0.47170743
vt 0.16071407 0.37488407
vt 0.17773330 0.43770313
vt 0.17773330 0.45197284
vt 0.18005601 0.27302486
vt 0.18005601 0.33656514
vt 0.18005601 0.40010554
vt 0.18486816 0.40916368
vt 0.18486816 0.42343342
vt 0.18486816 0.43770313
vt 0.18486816 0.45197284
vt 0.18486816 0.46624258
vt 0.19913790 0.40916368
vt 0.19913790 0.42343342
vt 0.19913790 0.43770313
vt 0.19913790 0.45197284
vt 0.19913790 0.46624258
vt 0.19913790 0.47337747
vt 0.20338443 1.1350773e-2
vt 0.20338443 0.13843144
vt 0.20338443 0.26551211
vt 0.21340764 0.40916368
vt 0.21340764 0.42343342
vt 0.21340764 0.43770313
vt 0.21340764 0.45197284
vt 0.21340764 0.46624258
vt 0.21340764 0.47337747
vt 0.22054249 0.42343342
vt 0.22054249 0.43770313
vt 0.22054249 0.45197284
vt 0.22054249 0.46624258
vt 0.22054249 0.47337747
vt 0.22974247 0.41629857
vt 0.23988193 0.41629857
vt 0.24908194 0.42343342
vt 0.24908194 0.43770313
vt 0.24908194 0.45197284
vt 0.24908194 0.46624258
vt 0.24908194 0.47337747
vt 0.25621679 0.40916368
vt 0.25621679 0.42343342
vt 0.25621679 0.43770313
vt 0.25621679 0.45197284
vt 0.25621679 0.46624258
vt 0.25621679 0.47337747
vt 0.26657462 0.50110936
vt 0.26657498 0.59592247
vt 0.26692477 1.1350773e-2
vt 0.26692477 0.13843144
vt 0.26692477 0.26551211
vt 0.27048650 0.40916368
vt 0.27048650 0.42343342
vt 0.27048650 0.43770313
vt 0.27048650 0.45197284
vt 0.27048650 0.46624258
vt 0.27048650 0.47337747
vt 0.28475624 0.40916368
vt 0.28475624 0.42343342
vt 0.28475624 0.43770313
vt 0.28475624 0.45197284
vt 0.28475624 0.46624258
vt 0.29189110 0.43770313
vt 0.29189110 0.45197284
vt 0.30713663 0.27302486
vt 0.30713663 0.33656514
vt 0.30713663 0.40010554
vt 0.35037020 0.41996050
vt 0.35037115 0.68682998
vt 0.36452487 0.41665128
vt 0.36452585 0.68135917
vt 0.39400539 1.1350773e-2
vt 0.39400539 0.13843144
vt 0.39400539 0.26551211
vt 0.43046042 0.41559365
vt 0.43046141 0.68246317
vt 0.43421724 0.27302486
vt 0.43421724 0.33656514
vt 0.43421724 0.40010554
vt 0.44560051 0.27391398
vt 0.44560051 0.33745426
vt 0.44560051 0.40099454
vt 0.52108610 1.1350773e-2
vt 0.52108610 0.13843144
vt 0.52108610 0.26551211
vt 0.53437310 0.41518697
vt 0.53437406 0.68205643
vt 0.53545654 1.2322262e-2
vt 0.53545654 7.5862631e-2
vt 0.53785503 0.25325215
vt 0.53834707 0.13816644
vt 0.53887635 0.14448626
vt 0.57268113 0.27391398
vt 0.57268113 0.33745426
vt 0.57268113 0.40099454
vt 0.58798701 0.41669735
vt 0.58798796 0.68140537
vt 0.59443378 0.61314631
vt 0.59443426 0.73533922
vt 0.59899694 1.2322262e-2
vt 0.59899694 7.5862631e-2
vt 0.61581969 0.13816656
vt 0.61581981 7.4626185e-2
vt 0.61600018 1.1685569e-2
vt 0.62263197 0.25325182
vt 0.62274963 0.14448595
vt 0.62500918 0.49135584
vt 0.63622141 0.27391398
vt 0.65553015 0.61314607
vt 0.65553063 0.73533899
vt 0.65555745 0.49135575
vt 0.69976181 0.33745426
vt 0.69976181 0.40099454
vt 0.74308085 1.1685569e-2
vt 0.74308085 7.5225927e-2
vt 0.74308085 0.13660468
vt 0.80662107 1.1685569e-2
vt 0.87016153 7.5225927e-2
vt 0.95445538 0.33163071
vt 0.95445585 0.45871139
vt 0.98622561 0.33163059
vt 0.98622614 0.45871133
vn -0.30151133 -0.90453403 -0.30151137
vn 0.30151134 -0.90453402 -0.30151138
vn -0.90453403 0.30151136 -0.30151133
vn 0.90453402 0.30151138 -0.30151136
vn -0.30151133 -0.90453405 0.30151131
vn 0.30151133 -0.90453405 0.30151131
vn -0.90453402 0.30151134 0.30151139
vn 0.90453404 0.30151131 0.30151136
vn 0.30151136 -0.90453402 -0.30151137
vn -0.30151134 -0.90453402 -0.30151138
vn 0.90453404 0.30151135 -0.30151133
vn -0.90453403 0.30151136 -0.30151133
vn 0.30151134 -0.90453404 0.30151131
vn -0.30151134 -0.90453405 0.30151131
vn 0.52994981 0.71731533 0.45234048
vn -0.52994981 0.71731533 0.45234049
vn 1.3877787e-17 -1.00000000 -4.4703483e-8
vn -1.3877789e-17 -1.00000000 -4.4703483e-8
vn 0.0000000e+0 1.00000000 2.9802323e-8
vn 0.0000000e+0 1.00000000 2.9802323e-8
vn 1.3877787e-17 -1.00000000 -2.9802323e-8
vn -1.3877789e-17 -1.00000000 -2.9802323e-8
vn 0.0000000e+0 0.92387952 0.38268345
vn 0.0000000e+0 0.92387952 0.38268347
vn -0.30151131 -0.90453403 -0.30151140
vn 0.30151131 -0.90453403 -0.30151140
vn -0.94952192 0.18111518 -0.25613554
vn 0.94952192 0.18111518 -0.25613554
vn -0.30151127 -0.90453407 0.30151130
vn 0.30151127 -0.90453407 0.30151130
vn -0.67527868 0.60221738 0.42583206
vn 0.67527868 0.60221737 0.42583206
vn -0.56151664 -0.23258785 -0.79410450
vn 0.56151664 -0.23258785 -0.79410450
vn -0.56151657 -0.23258799 0.79410450
vn 0.56151657 -0.23258799 0.79410450
vn -0.59999896 -0.74403103 0.29397121
vn 0.59999894 -0.74403104 0.29397123
vn -0.75587197 0.47580063 0.44974584
vn 0.75587199 0.47580062 0.44974583
vn -0.70710678 -0.70710678 -4.2146853e-8
vn 0.70710678 -0.70710678 -4.2146853e-8
vn -0.83258222 0.36561779 -0.41608950
vn 0.83258220 0.36561782 -0.41608952
vn 0.70710678 -0.70710678 -3.1610134e-8
vn -0.70710678 -0.70710678 -3.1610134e-8
vn 0.70976070 0.69916487 8.6071090e-2
vn -0.70976070 0.69916487 8.6071090e-2
vn 0.0000000e+0 -1.00000000 -4.4703480e-8
vn 0.0000000e+0 -1.00000000 -4.4703480e-8
vn 0.0000000e+0 0.99250756 0.12218321
vn 0.0000000e+0 0.99250756 0.12218321
vn -0.70710678 -0.70710678 -3.1610134e-8
vn 0.70710678 -0.70710678 -3.1610134e-8
vn -0.70976070 0.69916487 8.6071090e-2
vn 0.70976070 0.69916487 8.6071090e-2
vn 0.57735028 -0.57735028 0.57735025
vn -0.57735028 -0.57735028 0.57735025
vn 0.53566613 0.51967250 0.66558417
vn -0.53566613 0.51967250 0.66558417
vn 0.0000000e+0 -0.70710680 0.70710676
vn 0.0000000e+0 -0.70710680 0.70710676
vn 0.0000000e+0 0.61541227 0.78820539
vn 0.0000000e+0 0.61541227 0.78820539
vn -0.57735028 -0.57735028 0.57735025
vn 0.57735028 -0.57735028 0.57735025
vn -0.53566613 0.51967250 0.66558417
vn 0.53566613 0.51967250 0.66558417
vn 0.70710678 -0.70710678 -4.2146848e-8
vn -0.70710678 -0.70710678 -4.2146848e-8
vn 0.85145489 0.20068992 -0.48450813
vn -0.85145489 0.20068992 -0.48450813
vn -0.30151134 -0.90453402 -0.30151139
vn 0.30151134 -0.90453402 -0.30151139
vn -0.25613557 0.18111532 -0.94952189
vn 0.25613557 0.18111532 -0.94952189
vn -0.57735026 -0.57735026 -0.57735029
vn 0.57735026 -0.57735026 -0.57735029
vn -0.70710678 8.4293697e-8 -0.70710678
vn 0.70710678 8.4293697e-8 -0.70710678
vn -0.71915230 0.67137375 -0.17910122
vn 0.71915228 0.67137377 -0.17910125
vn -0.72234870 0.66202417 0.19984082
vn 0.72234872 0.66202415 0.19984079
vn -0.45083562 0.66619225 0.59408344
vn 0.45083565 0.66619224 0.59408343
vn -0.45419079 0.67103514 -0.58602267
vn 0.45419074 0.67103516 -0.58602268
vn 0.70710678 0.70710678 2.1073424e-8
vn -0.70710678 0.70710678 2.1073424e-8
vn 0.47596315 0.81251992 0.33655677
vn -0.47596315 0.81251991 0.33655678
vn 0.0000000e+0 0.92387953 0.38268343
vn 0.0000000e+0 0.92387953 0.38268345
vn -0.70710678 0.70710678 2.1073424e-8
vn 0.70710678 0.70710678 2.1073424e-8
vn -0.47596315 0.81251992 0.33655677
vn 0.47596315 0.81251991 0.33655678
vn 0.57735023 0.57735037 -0.57735020
vn -0.57735023 0.57735037 -0.57735020
vn 0.0000000e+0 0.70710689 -0.70710668
vn 0.0000000e+0 0.70710689 -0.70710668
vn -0.57735023 0.57735037 -0.57735020
vn 0.57735023 0.57735037 -0.57735020
vn -0.79410444 -0.23258785 -0.56151673
vn 0.79410444 -0.23258785 -0.56151673
vn 0.79410448 -0.23258780 -0.56151669
vn -0.79410448 -0.23258780 -0.56151669
vn -0.79410448 -0.23258780 -0.56151669
vn 0.79410448 -0.23258780 -0.56151669
vn -0.28634485 -0.46724766 0.83647250
vn 0.28634483 -0.46724766 0.83647251
vn -0.28634483 0.46724764 0.83647252
vn 0.28634482 0.46724763 0.83647253
g Box01_sep10_01 - Default
usemtl 01 - Default
f 1/104/1 9/116/9 11/117/11 3/105/3
f 1/54/1 41/55/41 42/48/42 2/47/2
f 2/47/2 6/46/6 5/53/5 1/54/1
f 2/47/2 10/42/10 14/41/14 6/46/6
f 2/6/2 42/5/42 44/9/44 4/10/4
f 3/126/3 11/115/11 15/114/15 7/125/7
f 3/10/3 43/9/43 41/5/41 1/6/1
f 3/10/3 81/18/81 87/13/87 43/9/43
f 4/117/4 12/105/12 10/104/10 2/116/2
f 4/10/4 82/18/82 84/19/84 8/11/8
f 5/53/5 13/59/13 9/60/9 1/54/1
f 5/7/5 37/8/37 39/12/39 7/11/7
f 6/117/6 14/105/14 16/104/16 8/116/8
f 6/46/6 38/45/38 37/52/37 5/53/5
f 7/104/7 15/116/15 13/117/13 5/105/5
f 7/11/7 83/19/83 81/18/81 3/10/3
f 8/114/8 16/125/16 12/126/12 4/115/4
f 8/11/8 40/12/40 38/8/38 6/7/6
f 8/11/8 84/19/84 86/14/86 40/12/40
f 9/132/9 69/118/69 71/119/71 11/131/11
f 10/42/10 18/33/18 22/32/22 14/41/14
f 10/42/10 70/43/70 74/34/74 18/33/18
f 11/131/11 89/130/89 91/133/91 15/134/15
f 12/131/12 72/119/72 70/118/70 10/132/10
f 12/131/12 90/130/90 100/120/100 72/119/72
f 13/59/13 21/70/21 17/71/17 9/60/9
f 13/59/13 45/58/45 49/69/49 21/70/21
f 14/126/14 46/125/46 48/114/48 16/115/16
f 15/115/15 47/114/47 45/125/45 13/126/13
f 15/65/15 91/36/91 93/37/93 23/66/23
f 16/65/16 48/88/48 52/89/52 24/66/24
f 16/134/16 92/133/92 90/130/90 12/131/12
f 17/71/17 73/72/73 69/61/69 9/60/9
f 18/33/18 26/28/26 30/27/30 22/32/22
f 18/33/18 74/34/74 78/29/78 26/28/26
f 19/16/19 93/37/93 91/36/91 89/15/89
f 19/16/19 95/17/95 97/38/97 93/37/93
f 19/16/19 101/2/101 103/3/103 95/17/95
f 20/16/20 102/2/102 100/1/100 90/15/90
f 21/70/21 29/76/29 25/77/25 17/71/17
f 21/70/21 49/69/49 53/75/53 29/76/29
f 22/32/22 50/31/50 46/40/46 14/41/14
f 23/66/23 51/89/51 47/88/47 15/65/15
f 23/66/23 93/37/93 97/38/97 31/67/31
f 24/66/24 52/89/52 56/90/56 32/67/32
f 24/66/24 94/37/94 92/36/92 16/65/16
f 25/118/25 33/107/33 27/119/27
f 25/77/25 77/78/77 73/72/73 17/71/17
f 26/28/26 34/21/34 36/20/36 30/27/30
f 26/111/26 78/98/78 80/97/80 28/110/28
f 27/110/27 33/111/33 35/129/35 31/128/31
f 27/110/27 79/97/79 77/98/77 25/111/25
f 27/110/27 95/109/95 103/96/103 79/97/79
f 28/107/28 34/119/34 26/118/26
f 28/110/28 96/109/96 98/124/98 32/128/32
f 29/76/29 35/79/35 33/80/33 25/77/25
f 29/126/29 53/125/53 55/114/55 31/115/31
f 30/118/30 36/119/36 32/107/32
f 30/27/30 54/26/54 50/31/50 22/32/22
f 31/107/31 35/119/35 29/118/29
f 31/67/31 55/90/55 51/89/51 23/66/23
f 31/128/31 97/124/97 95/109/95 27/110/27
f 32/128/32 36/129/36 34/111/34 28/110/28
f 32/115/32 56/114/56 54/125/54 30/126/30
f 32/67/32 98/38/98 94/37/94 24/66/24
f 37/122/37 111/121/111 113/106/113 39/108/39
f 38/45/38 112/50/112 111/51/111 37/52/37
f 39/12/39 85/14/85 83/19/83 7/11/7
f 39/85/39 113/64/113 114/63/114 40/84/40
f 40/103/40 86/92/86 85/91/85 39/102/39
f 40/106/40 114/108/114 112/122/112 38/121/38
f 41/55/41 105/56/105 106/49/106 42/48/42
f 42/5/42 106/4/106 44/9/44
f 43/91/43 87/102/87 88/103/88 44/92/44
f 43/9/43 105/4/105 41/5/41
f 44/9/44 88/13/88 82/18/82 4/10/4
f 44/92/44 106/87/106 105/86/105 43/91/43
f 45/58/45 57/57/57 61/68/61 49/69/49
f 46/125/46 58/127/58 60/123/60 48/114/48
f 47/114/47 59/123/59 57/127/57 45/125/45
f 48/88/48 60/99/60 64/100/64 52/89/52
f 49/69/49 61/68/61 65/74/65 53/75/53
f 50/31/50 62/30/62 58/39/58 46/40/46
f 51/89/51 63/100/63 59/99/59 47/88/47
f 52/89/52 64/100/64 68/101/68 56/90/56
f 53/125/53 65/127/65 67/123/67 55/114/55
f 54/26/54 66/25/66 62/30/62 50/31/50
f 55/90/55 67/101/67 63/100/63 51/89/51
f 56/114/56 68/123/68 66/127/66 54/125/54
f 58/137/58 62/138/62 64/136/64 60/135/60
f 59/136/59 63/135/63 61/137/61 57/138/57
f 62/137/62 66/138/66 68/136/68 64/135/64
f 63/136/63 67/135/67 65/137/65 61/138/61
f 69/118/69 107/107/107 71/119/71
f 70/43/70 108/44/108 110/35/110 74/34/74
f 71/119/71 99/120/99 89/130/89 11/131/11
f 71/23/71 107/22/107 109/81/109 75/82/75
f 72/23/72 100/24/100 102/83/102 76/82/76
f 72/119/72 108/107/108 70/118/70
f 73/81/73 77/93/77 79/94/79 75/82/75
f 73/72/73 109/73/109 107/62/107 69/61/69
f 74/118/74 110/119/110 76/107/76
f 75/82/75 101/83/101 99/24/99 71/23/71
f 75/107/75 109/119/109 73/118/73
f 76/82/76 80/94/80 78/93/78 74/81/74
f 76/82/76 102/83/102 104/95/104 80/94/80
f 76/82/76 110/81/110 108/22/108 72/23/72
f 79/94/79 103/95/103 101/83/101 75/82/75
f 80/97/80 104/96/104 96/109/96 28/110/28
f 81/92/81 83/103/83 84/102/84 82/91/82
f 82/102/82 88/112/88 87/113/87 81/103/81
f 83/103/83 85/113/85 86/112/86 84/102/84
f 89/15/89 99/1/99 101/2/101 19/16/19
f 90/15/90 92/36/92 94/37/94 20/16/20
f 94/37/94 98/38/98 96/17/96 20/16/20
f 96/17/96 104/3/104 102/2/102 20/16/20
f 112/121/112 114/106/114 113/108/113 111/122/111
