# Exported from Wings 3D 1.0.1
mtllib doors.mtl
o Box01_sep7
#31 vertices, 30 faces
v -1.99899960 1.3272411e-2 1.99900007
v -2.49899983 1.3272411e-2 1.99900007
v -1.99899971 1.3272411e-2 1.49900019
v -2.49899983 1.3272411e-2 1.49900019
v -1.99899971 0.51327241 1.99900007
v -2.49900007 0.51327241 1.99900007
v -1.99899983 0.26327241 1.49900007
v -2.49900007 0.26327241 1.49900007
v -3.39899993 1.3272411e-2 1.99900007
v -3.39900017 1.3272411e-2 1.49900019
v -3.39899993 0.51327241 1.99900007
v -3.39900041 0.26327241 1.49900007
v -1.99899948 -0.23672759 2.99900007
v -2.49899960 -0.23672759 2.99900007
v -1.99899948 1.3272411e-2 2.99900031
v -2.49899960 1.3272411e-2 2.99900031
v -3.39899969 -0.23672759 2.99900007
v -3.39899969 1.3272411e-2 2.99900031
v -1.99899995 1.3272411e-2 0.99900007
v -2.49900007 1.3272411e-2 0.99900013
v -3.39900041 1.3272411e-2 0.99900013
v -1.99899983 0.26327241 0.49900019
v -2.49900007 0.26327241 0.49900007
v -1.99899995 1.3272411e-2 0.49900004
v -2.49900031 1.3272411e-2 0.49900010
v -1.59899962 1.3272887e-2 1.99899983
v -1.59899974 1.3272887e-2 1.49899995
v -1.59899974 0.51327289 1.99899983
v -1.59899986 0.26327289 1.49899983
v -1.59899950 -0.23672711 2.99899983
v -1.59899950 1.3272887e-2 2.99900007
vt 0.59348822 0.41374007
vt 0.59348822 0.48296922
vt 0.59786594 0.74504787
vt 0.59786594 0.81427699
vt 0.63517857 0.15632601
vt 0.66083318 0.28484893
vt 0.66083330 0.25023448
vt 0.66271740 0.48296922
vt 0.66271740 0.60758173
vt 0.66709489 0.62043518
vt 0.66709489 0.74504787
vt 0.66709489 0.81427699
vt 0.70440763 0.15632601
vt 0.70440763 0.19094057
vt 0.73006231 0.25023448
vt 0.73006231 0.31946367
vt 0.73194641 0.35835671
vt 0.73194641 0.41374007
vt 0.73194641 0.48296922
vt 0.73194641 0.60758173
vt 0.73632407 0.62043530
vt 0.73632407 0.74504787
vt 0.73632407 0.81427699
vt 0.73632407 0.86966038
vt 0.77363652 0.15632601
vt 0.77363652 0.22555505
vt 0.80117571 0.35835671
vt 0.80117571 0.41374007
vt 0.80117571 0.48296922
vt 0.80117571 0.60758173
vt 0.80555320 0.62043530
vt 0.80555320 0.74504787
vt 0.80555320 0.81427711
vt 0.80555320 0.86966038
vt 0.86852056 0.21561991
vt 0.86852056 0.25023448
vt 0.91209489 0.12171131
vt 0.91209513 0.15632601
vt 0.93963385 0.35835671
vt 0.93963385 0.41373995
vt 0.93963385 0.48296908
vt 0.93963385 0.60758156
vt 0.94401157 0.62043530
vt 0.94401157 0.74504787
vt 0.94401157 0.81427711
vt 0.94401157 0.86966038
vt 0.95301729 0.73538476
vt 0.95301777 0.87384313
vt 0.95448381 0.59585512
vt 0.95462567 0.66568339
vt 0.95532733 0.72149831
vt 0.95574468 0.47150645
vt 0.98763198 0.80461365
vt 0.98763222 0.87384301
vt 0.98906964 0.73678619
vt 0.98909825 0.59585500
vt 0.98924035 0.66568327
vt 0.98994213 0.72149819
vt 0.99035925 0.47150633
vn 5.5516719e-7 -0.99250756 -0.12218326
vn 0.0000000e+0 -0.99250756 -0.12218326
vn 0.30151149 -0.90453395 -0.30151146
vn 0.0000000e+0 -1.00000000 0.0000000e+0
vn -5.9604650e-7 1.00000000 -4.7683522e-8
vn 0.0000000e+0 1.00000000 -4.7683707e-8
vn 0.51020102 0.71143874 -0.48326993
vn -0.24718450 0.91045018 -0.33163277
vn -0.70976067 -0.69916494 -8.6070757e-2
vn -0.70710656 -0.70710701 4.4956624e-7
vn -0.74535604 0.66666661 3.5324211e-7
vn -0.70710708 0.63245534 -0.31622747
vn 6.5321428e-7 -0.78820573 0.61541183
vn 0.0000000e+0 -0.78820573 0.61541183
vn -5.9846184e-8 0.52573075 0.85065103
vn 0.0000000e+0 0.52573075 0.85065103
vn -0.63057532 -0.61174851 0.47763849
vn -0.50673193 0.45323436 0.73334942
vn 0.70710678 -0.70710678 -1.6858735e-7
vn -0.42132122 -0.88712239 -0.18842053
vn -0.90866092 -9.5930772e-2 -0.40636512
vn 0.57735034 0.57735017 -0.57735030
vn -0.57735017 0.57735053 -0.57735011
vn 0.57735025 -0.57735035 -0.57735021
vn -0.57735038 -0.57735010 -0.57735033
vn 0.70976117 -0.69916438 -8.6071244e-2
vn 0.57735041 -0.57735015 -0.57735025
vn 0.74535554 0.66666717 -1.9468680e-7
vn 0.50673109 0.45323486 -0.73334969
vn 0.63057603 -0.61174813 0.47763804
vn 0.50673190 0.45323450 0.73334935
g Box01_sep7_01 - Default
usemtl 01 - Default
f 1/33/1 13/45/13 14/44/14 2/32/2
f 1/33/1 26/34/26 30/46/30 13/45/13
f 2/32/2 4/22/4 3/23/3 1/33/1
f 2/32/2 9/31/9 10/21/10 4/22/4
f 2/32/2 14/44/14 17/43/17 9/31/9
f 3/55/3 19/53/19 7/47/7
f 3/23/3 27/24/27 26/34/26 1/33/1
f 4/22/4 20/11/20 19/12/19 3/23/3
f 5/28/5 7/18/7 8/19/8 6/29/6
f 5/28/5 28/27/28 29/17/29 7/18/7
f 6/29/6 16/41/16 15/40/15 5/28/5
f 7/18/7 22/1/22 23/2/23 8/19/8
f 7/57/7 29/58/29 27/51/27 3/50/3
f 8/19/8 12/20/12 11/30/11 6/29/6
f 8/19/8 20/8/20 21/9/21 12/20/12
f 8/47/8 23/48/23 25/54/25 20/53/20
f 9/25/9 11/26/11 12/14/12 10/13/10
f 9/25/9 17/37/17 18/38/18 11/26/11
f 10/21/10 21/10/21 20/11/20 4/22/4
f 11/30/11 18/42/18 16/41/16 6/29/6
f 12/14/12 21/5/21 10/13/10
f 13/57/13 15/50/15 16/49/16 14/56/14
f 13/57/13 30/58/30 31/51/31 15/50/15
f 15/40/15 31/39/31 28/27/28 5/28/5
f 16/49/16 18/52/18 17/59/17 14/56/14
f 19/53/19 24/54/24 22/48/22 7/47/7
f 20/11/20 25/3/25 24/4/24 19/12/19
f 22/57/22 24/50/24 25/49/25 23/56/23
f 27/7/27 29/6/29 28/16/28 26/15/26
f 28/16/28 31/36/31 30/35/30 26/15/26
o Box01_sep6
#31 vertices, 30 faces
v 2.00099993 1.3272411e-2 1.99900007
v 2.50099993 1.3272411e-2 1.99900007
v 2.00099993 1.3272411e-2 1.49900019
v 2.50099993 1.3272411e-2 1.49900019
v 2.00099993 0.51327241 1.99900007
v 2.50099993 0.51327241 1.99900007
v 2.00099993 0.26327241 1.49900007
v 2.50100017 0.26327241 1.49900007
v 3.40100002 1.3272411e-2 1.99900007
v 3.40100002 1.3272411e-2 1.49900019
v 3.40100002 0.51327241 1.99900007
v 3.40100050 0.26327241 1.49900007
v 2.00099969 -0.23672759 2.99900007
v 2.50099993 -0.23672759 2.99900007
v 2.00099969 1.3272411e-2 2.99900031
v 2.50099993 1.3272411e-2 2.99900031
v 3.40100002 -0.23672759 2.99900007
v 3.40100002 1.3272411e-2 2.99900031
v 2.00100017 1.3272411e-2 0.99900007
v 2.50100017 1.3272411e-2 0.99900013
v 3.40100050 1.3272411e-2 0.99900013
v 2.00099993 0.26327241 0.49900019
v 2.50100040 0.26327241 0.49900007
v 2.00100017 1.3272411e-2 0.49900004
v 2.50100040 1.3272411e-2 0.49900010
v 1.60099995 1.3272887e-2 1.99899983
v 1.60100007 1.3272887e-2 1.49899995
v 1.60100007 0.51327289 1.99899983
v 1.60100019 0.26327289 1.49899983
v 1.60099983 -0.23672711 2.99899983
v 1.60099983 1.3272887e-2 2.99900007
vt 0.59348822 0.41374007
vt 0.59348822 0.48296922
vt 0.59786594 0.74504787
vt 0.59786594 0.81427699
vt 0.63517857 0.15632601
vt 0.66083318 0.28484893
vt 0.66083330 0.25023448
vt 0.66271740 0.48296922
vt 0.66271740 0.60758173
vt 0.66709489 0.62043518
vt 0.66709489 0.74504787
vt 0.66709489 0.81427699
vt 0.70440763 0.15632601
vt 0.70440763 0.19094057
vt 0.73006231 0.25023448
vt 0.73006231 0.31946367
vt 0.73194641 0.35835671
vt 0.73194641 0.41374007
vt 0.73194641 0.48296922
vt 0.73194641 0.60758173
vt 0.73632407 0.62043530
vt 0.73632407 0.74504787
vt 0.73632407 0.81427699
vt 0.73632407 0.86966038
vt 0.77363652 0.15632601
vt 0.77363652 0.22555505
vt 0.80117571 0.35835671
vt 0.80117571 0.41374007
vt 0.80117571 0.48296922
vt 0.80117571 0.60758173
vt 0.80555320 0.62043530
vt 0.80555320 0.74504787
vt 0.80555320 0.81427711
vt 0.80555320 0.86966038
vt 0.86852056 0.21561991
vt 0.86852056 0.25023448
vt 0.91209489 0.12171131
vt 0.91209513 0.15632601
vt 0.93963385 0.35835671
vt 0.93963385 0.41373995
vt 0.93963385 0.48296908
vt 0.93963385 0.60758156
vt 0.94401157 0.62043530
vt 0.94401157 0.74504787
vt 0.94401157 0.81427711
vt 0.94401157 0.86966038
vt 0.95301729 0.73538476
vt 0.95301777 0.87384313
vt 0.95448381 0.59585512
vt 0.95462567 0.66568339
vt 0.95532733 0.72149831
vt 0.95574468 0.47150645
vt 0.98763198 0.80461365
vt 0.98763222 0.87384301
vt 0.98906964 0.73678619
vt 0.98909825 0.59585500
vt 0.98924035 0.66568327
vt 0.98994213 0.72149819
vt 0.99035925 0.47150633
vn -5.5516727e-7 -0.99250756 -0.12218326
vn 0.0000000e+0 -0.99250756 -0.12218326
vn -0.30151146 -0.90453397 -0.30151142
vn 0.0000000e+0 -1.00000000 0.0000000e+0
vn 5.9604673e-7 1.00000000 -4.7683557e-8
vn 0.0000000e+0 1.00000000 -4.7683707e-8
vn -0.51020111 0.71143862 -0.48327002
vn 0.24718454 0.91045016 -0.33163279
vn 0.70976060 -0.69916499 -8.6070890e-2
vn 0.70710633 -0.70710723 5.6195760e-7
vn 0.74535610 0.66666654 2.0515320e-7
vn 0.70710731 0.63245510 -0.31622746
vn -6.5321442e-7 -0.78820573 0.61541183
vn 0.0000000e+0 -0.78820573 0.61541183
vn 5.9846202e-8 0.52573075 0.85065103
vn 0.0000000e+0 0.52573075 0.85065103
vn 0.63057536 -0.61174856 0.47763837
vn 0.50673198 0.45323440 0.73334936
vn -0.70710661 -0.70710695 -1.6858731e-7
vn 0.42132113 -0.88712246 -0.18842042
vn 0.90866101 -9.5931647e-2 -0.40636473
vn -0.57735043 0.57734998 -0.57735040
vn 0.57735032 0.57735031 -0.57735017
vn -0.57735015 -0.57735053 -0.57735012
vn 0.57735029 -0.57735037 -0.57735014
vn -0.70976117 -0.69916438 -8.6071244e-2
vn -0.57735041 -0.57735015 -0.57735025
vn -0.74535554 0.66666717 -1.9468685e-7
vn -0.50673109 0.45323486 -0.73334969
vn -0.63057603 -0.61174813 0.47763804
vn -0.50673190 0.45323450 0.73334935
g Box01_sep6_01 - Default
usemtl 01 - Default
f 32/92/32 34/82/34 35/81/35 33/91/33
f 32/92/32 57/93/57 58/83/58 34/82/34
f 33/91/33 45/103/45 44/104/44 32/92/32
f 34/82/34 50/71/50 51/70/51 35/81/35
f 34/110/34 58/109/58 60/116/60 38/117/38
f 35/81/35 41/80/41 40/90/40 33/91/33
f 35/81/35 51/70/51 52/69/52 41/80/41
f 36/87/36 46/99/46 47/100/47 37/88/37
f 36/87/36 59/86/59 62/98/62 46/99/46
f 37/88/37 39/78/39 38/77/38 36/87/36
f 37/88/37 42/89/42 43/79/43 39/78/39
f 37/88/37 47/100/47 49/101/49 42/89/42
f 38/106/38 50/112/50 34/114/34
f 38/106/38 53/107/53 55/113/55 50/112/50
f 38/77/38 60/76/60 59/86/59 36/87/36
f 39/78/39 54/61/54 53/60/53 38/77/38
f 40/90/40 48/102/48 45/103/45 33/91/33
f 41/72/41 43/73/43 42/85/42 40/84/40
f 41/72/41 52/64/52 43/73/43
f 42/85/42 49/97/49 48/96/48 40/84/40
f 43/79/43 52/68/52 51/67/51 39/78/39
f 44/104/44 61/105/61 57/93/57 32/92/32
f 45/115/45 47/108/47 46/109/46 44/116/44
f 45/115/45 48/118/48 49/111/49 47/108/47
f 46/109/46 62/110/62 61/117/61 44/116/44
f 50/71/50 55/63/55 56/62/56 51/70/51
f 51/112/51 56/113/56 54/107/54 39/106/39
f 54/116/54 56/109/56 55/108/55 53/115/53
f 57/74/57 59/75/59 60/65/60 58/66/58
f 57/74/57 61/94/61 62/95/62 59/75/59
