# Exported from Wings 3D 1.0.1
mtllib spikes.mtl
o Box01_sep9
#16 vertices, 18 faces
v 2.00099993 -1.80687086 1.49899995
v 3.00099993 -1.80687086 1.49899995
v 2.00099993 -0.80687086 1.49900007
v 3.00099993 -0.80687086 1.49900007
v 2.00099993 -1.80687086 2.49900007
v 3.00099993 -1.80687086 2.49900007
v 2.00099993 -0.80687086 2.49900007
v 3.00099993 -0.80687086 2.49900007
v 2.35323358 -0.30466048 1.78632450
v 2.64876652 -0.30466048 1.78632450
v 2.50099993 -0.30687086 2.20927930
v 2.50099993 -0.10812656 2.39334178
v 2.33305740 -1.80687086 2.74162459
v 2.66894245 -1.80687086 2.74162459
v 2.33305740 -1.00824587 2.74162459
v 2.66894245 -1.00824587 2.74162459
vt 0.58436912 0.86635506
vt 0.62726456 0.82628924
vt 0.63589525 0.19372307
vt 0.63589525 0.24343018
vt 0.65044057 0.94472504
vt 0.67243987 0.82628924
vt 0.68606883 0.91622871
vt 0.68606919 0.94704121
vt 0.71886575 0.86635506
vt 0.73799193 0.21857662
vt 0.73842919 0.87950367
vt 0.73843068 0.98376483
vt 0.75450677 0.11841180
vt 0.78086209 0.33339110
vt 0.83422136 0.34721234
vt 0.84269029 0.87950212
vt 0.84269172 0.98376328
vt 0.85003442 0.12386803
vt 0.85721719 0.88220781
vt 0.85721719 0.98646897
vt 0.87077230 0.26059568
vt 0.87935859 1.3004746e-2
vt 0.88469696 0.29921186
vt 0.88469803 0.19495068
vt 0.89160657 8.1198461e-2
vt 0.90035456 4.7625013e-2
vt 0.90206027 8.2493730e-2
vt 0.95900285 0.14259039
vt 0.96147841 0.88220781
vt 0.96147841 0.98646897
vt 0.98316431 8.2492836e-2
vt 0.98361975 1.3003595e-2
vt 0.98362011 4.7624119e-2
vt 0.98677462 0.91682851
vt 0.98677462 0.95184833
vt 0.98895800 0.29921293
vt 0.98895907 0.19495176
vn -0.57735029 -0.57735022 -0.57735029
vn 0.57735029 -0.57735022 -0.57735029
vn -0.64528507 0.37992619 -0.66276939
vn 0.64528513 0.37992610 -0.66276939
vn -0.59337241 -0.74639706 0.30133139
vn 0.59337241 -0.74639706 0.30133139
vn -0.64129366 0.54918896 0.53584880
vn 0.64129366 0.54918890 0.53584885
vn -0.67497292 0.71443985 -0.18435633
vn 0.67497300 0.71443982 -0.18435616
vn -1.7119592e-7 0.59158069 0.80624580
vn -5.4683036e-7 0.75549302 0.65515669
vn -0.27462918 -0.46550121 0.84136047
vn 0.27462918 -0.46550121 0.84136047
vn -0.22421358 0.29244017 0.92962735
vn 0.22421358 0.29244017 0.92962735
g Box01_sep9_01 - Default
usemtl 01 - Default
f 1/17/1 3/12/3 4/11/4 2/16/2
f 1/36/1 5/23/5 7/24/7 3/37/3
f 2/20/2 6/30/6 5/29/5 1/19/1
f 3/12/3 9/8/9 10/7/10 4/11/4
f 4/37/4 8/24/8 6/23/6 2/36/2
f 4/37/4 10/28/10 8/24/8
f 5/32/5 13/33/13 15/26/15 7/22/7
f 6/30/6 14/35/14 13/34/13 5/29/5
f 7/24/7 9/28/9 3/37/3
f 7/21/7 11/15/11 9/14/9
f 7/1/7 15/2/15 16/6/16 8/9/8
f 8/9/8 11/5/11 7/1/7
f 8/22/8 16/26/16 14/33/14 6/32/6
f 9/3/9 12/10/12 10/4/10
f 10/14/10 11/15/11 8/21/8
f 10/13/10 12/25/12 11/18/11
f 11/18/11 12/25/12 9/13/9
f 14/31/14 16/27/16 15/26/15 13/33/13
o Box01_sep8
#16 vertices, 18 faces
v -1.99899995 -1.80687086 1.49899995
v -2.99900007 -1.80687086 1.49899995
v -1.99899995 -0.80687086 1.49900007
v -2.99900007 -0.80687086 1.49900007
v -1.99899995 -1.80687086 2.49900007
v -2.99900007 -1.80687086 2.49900007
v -1.99899995 -0.80687086 2.49900007
v -2.99900007 -0.80687086 2.49900007
v -2.35123372 -0.30466048 1.78632450
v -2.64676666 -0.30466048 1.78632450
v -2.49900007 -0.30687086 2.20927930
v -2.49900007 -0.10812656 2.39334178
v -2.33105755 -1.80687086 2.74162459
v -2.66694260 -1.80687086 2.74162459
v -2.33105755 -1.00824587 2.74162459
v -2.66694260 -1.00824587 2.74162459
vt 0.58436912 0.86635506
vt 0.62726456 0.82628924
vt 0.63589525 0.19372307
vt 0.63589525 0.24343018
vt 0.65044057 0.94472504
vt 0.67243987 0.82628924
vt 0.68606883 0.91622871
vt 0.68606919 0.94704121
vt 0.71886575 0.86635506
vt 0.73799193 0.21857662
vt 0.73842919 0.87950367
vt 0.73843068 0.98376483
vt 0.75450677 0.11841180
vt 0.78086209 0.33339110
vt 0.83422136 0.34721234
vt 0.84269029 0.87950212
vt 0.84269172 0.98376328
vt 0.85003442 0.12386803
vt 0.85721719 0.88220781
vt 0.85721719 0.98646897
vt 0.87077230 0.26059568
vt 0.87935859 1.3004746e-2
vt 0.88469696 0.29921186
vt 0.88469803 0.19495068
vt 0.89160657 8.1198461e-2
vt 0.90035456 4.7625013e-2
vt 0.90206027 8.2493730e-2
vt 0.95900285 0.14259039
vt 0.96147841 0.88220781
vt 0.96147841 0.98646897
vt 0.98316431 8.2492836e-2
vt 0.98361975 1.3003595e-2
vt 0.98362011 4.7624119e-2
vt 0.98677462 0.91682851
vt 0.98677462 0.95184833
vt 0.98895800 0.29921293
vt 0.98895907 0.19495176
vn 0.57735029 -0.57735022 -0.57735029
vn -0.57735029 -0.57735022 -0.57735029
vn 0.64528504 0.37992624 -0.66276939
vn -0.64528513 0.37992610 -0.66276939
vn 0.59337237 -0.74639708 0.30133143
vn -0.59337241 -0.74639706 0.30133139
vn 0.64129360 0.54918900 0.53584882
vn -0.64129366 0.54918890 0.53584885
vn 0.67497287 0.71443990 -0.18435634
vn -0.67497300 0.71443982 -0.18435616
vn 1.4219174e-7 0.59158071 0.80624578
vn 5.4683036e-7 0.75549302 0.65515669
vn 0.27462911 -0.46550120 0.84136050
vn -0.27462918 -0.46550121 0.84136047
vn 0.22421353 0.29244016 0.92962737
vn -0.22421358 0.29244017 0.92962735
g Box01_sep8_01 - Default
usemtl 01 - Default
f 17/56/17 21/66/21 22/67/22 18/57/18
f 18/53/18 20/48/20 19/49/19 17/54/17
f 18/73/18 22/60/22 24/61/24 20/74/20
f 19/74/19 23/61/23 21/60/21 17/73/17
f 19/74/19 25/65/25 23/61/23
f 20/48/20 26/44/26 25/45/25 19/49/19
f 21/66/21 29/71/29 30/72/30 22/67/22
f 22/69/22 30/70/30 32/63/32 24/59/24
f 23/46/23 27/42/27 24/38/24
f 23/59/23 31/63/31 29/70/29 21/69/21
f 24/61/24 26/65/26 20/74/20
f 24/58/24 27/52/27 26/51/26
f 24/38/24 32/39/32 31/43/31 23/46/23
f 25/51/25 27/52/27 23/58/23
f 25/50/25 28/62/28 27/55/27
f 26/40/26 28/47/28 25/41/25
f 27/55/27 28/62/28 26/50/26
f 29/68/29 31/64/31 32/63/32 30/70/30
