# Exported from Wings 3D 0.99.04a
mtllib top.mtl
o Cylinder01_sep2
#30 vertices, 32 faces
v 4.00000000 2.45297456 1.0722292e-7
v 3.46410155 2.45297456 -1.99999988
v 1.99999988 2.45297456 -3.46410179
v -1.7484555e-7 2.45297456 -4.00000000
v -2.00000024 2.45297456 -3.46410155
v -3.46410179 2.45297456 -1.99999964
v -4.00000000 2.45297456 4.5691402e-7
v -3.46410131 2.45297456 2.00000024
v -1.99999964 2.45297456 3.46410179
v 5.2453669e-7 2.45297456 4.00000000
v 2.00000048 2.45297456 3.46410131
v 3.46410203 2.45297456 1.99999952
v 4.00000000 3.95297456 1.0722292e-7
v 3.46410155 3.95297456 -1.99999988
v 1.99999988 3.95297456 -3.46410179
v -1.7484555e-7 3.95297456 -4.00000000
v -2.00000024 3.95297456 -3.46410155
v -3.46410179 3.95297456 -1.99999964
v -4.00000000 3.95297456 4.5691402e-7
v -3.46410131 3.95297456 2.00000024
v -1.99999964 3.95297456 3.46410179
v 5.2453669e-7 3.95297456 4.00000000
v 2.00000048 3.95297456 3.46410131
v 3.46410203 3.95297456 1.99999952
v 6.02264786 3.20297456 -1.61376274
v 1.61376286 3.20297456 -6.02264786
v -4.40888596 3.20297456 -4.40888214
v -6.02264786 3.20297456 1.61376584
v -1.61376381 3.20297456 6.02265167
v 4.40888596 3.20297456 4.40888596
vt 4.4838306e-3 0.61432678
vt 0.15567268 0.68162221
vt 0.15661985 0.54920077
vt 0.20139618 0.96109247
vt 0.20633598 0.27041295
vt 0.22106326 0.79677594
vt 0.22365057 0.43499383
vt 0.23923410 3.7802927e-2
vt 0.32321703 0.34091654
vt 0.33122113 0.88144785
vt 0.33209729 0.98813951
vt 0.33526996 0.86380696
vt 0.33880457 0.37145200
vt 0.39760163 3.8278878e-2
vt 0.46769160 0.86290556
vt 0.47122592 0.37055033
vt 0.47404045 0.98803222
vt 0.47435930 0.88179809
vt 0.58284527 0.79936361
vt 0.58543271 0.43758130
vt 0.60015982 0.96394455
vt 0.60509980 0.27326477
vt 0.64897460 0.55273509
vt 0.64987600 0.68515682
vt 0.80201197 0.62003046
vn -3.3087225e-24 -1.00000000 0.0000000e+0
vn 0.96592586 -1.4228147e-17 0.25881893
vn 0.29127196 -0.95345134 -7.8046097e-2
vn 0.62366814 1.8931485e-16 0.78168923
vn -3.3087225e-24 -1.00000000 0.0000000e+0
vn 0.70710684 2.8597146e-16 -0.70710672
vn 0.29127196 -0.95345134 -7.8046097e-2
vn 0.14926836 0.0000000e+0 -0.98879672
vn -3.3087225e-24 -1.00000000 0.0000000e+0
vn 0.70710684 2.8597146e-16 -0.70710672
vn 7.8046064e-2 -0.95345133 -0.29127198
vn 0.98879673 -2.7279276e-23 -0.14926833
vn -3.3087225e-24 -1.00000000 0.0000000e+0
vn -0.25881907 2.8597148e-16 -0.96592582
vn 7.8046064e-2 -0.95345133 -0.29127198
vn -0.78168919 2.2883522e-16 -0.62366819
vn -3.3087225e-24 -1.00000000 0.0000000e+0
vn -0.25881907 2.8597148e-16 -0.96592582
vn -0.21322591 -0.95345133 -0.21322586
vn 0.36512756 2.2883503e-16 -0.93095750
vn -3.3087225e-24 -1.00000000 0.0000000e+0
vn -0.96592585 -5.0466661e-19 -0.25881895
vn -0.21322591 -0.95345133 -0.21322586
vn -0.93095686 0.0000000e+0 0.36512918
vn -3.3087225e-24 -1.00000000 0.0000000e+0
vn -0.96592585 -5.0466661e-19 -0.25881895
vn -0.29127186 -0.95345137 7.8046113e-2
vn -0.62366874 -1.8931471e-16 -0.78168875
vn -3.3087225e-24 -1.00000000 0.0000000e+0
vn -0.70710675 -2.8597149e-16 0.70710681
vn -0.29127186 -0.95345137 7.8046113e-2
vn -0.14926731 -3.5146760e-16 0.98879688
vn -3.3087225e-24 -1.00000000 0.0000000e+0
vn -0.70710675 -2.8597149e-16 0.70710681
vn -7.8045940e-2 -0.95345148 0.29127153
vn -0.98879683 8.1837714e-23 0.14926766
vn -3.3087225e-24 -1.00000000 0.0000000e+0
vn 0.25881919 -1.4298574e-16 0.96592579
vn -7.8045940e-2 -0.95345148 0.29127153
vn 0.78168952 0.0000000e+0 0.62366778
vn -3.3087225e-24 -1.00000000 0.0000000e+0
vn 0.25881919 -1.4298574e-16 0.96592579
vn 0.21322568 -0.95345143 0.21322565
vn -0.36512895 -2.2883487e-16 0.93095695
vn -3.3087225e-24 -1.00000000 0.0000000e+0
vn 0.96592586 -1.4228147e-17 0.25881893
vn 0.21322568 -0.95345143 0.21322565
vn 0.93095710 0.0000000e+0 -0.36512859
vn 0.96592586 -1.4228147e-17 0.25881893
vn 3.3087225e-24 1.00000000 0.0000000e+0
vn 0.29127196 0.95345134 -7.8046097e-2
vn 0.62366814 1.8931485e-16 0.78168923
vn 0.70710684 2.8597146e-16 -0.70710672
vn 3.3087225e-24 1.00000000 0.0000000e+0
vn 0.29127196 0.95345134 -7.8046097e-2
vn 0.14926836 0.0000000e+0 -0.98879672
vn 0.70710684 2.8597146e-16 -0.70710672
vn 3.3087225e-24 1.00000000 0.0000000e+0
vn 0.98879673 -2.7279276e-23 -0.14926833
vn 7.8046064e-2 0.95345133 -0.29127198
vn -0.25881907 2.8597148e-16 -0.96592582
vn 3.3087225e-24 1.00000000 0.0000000e+0
vn 7.8046064e-2 0.95345133 -0.29127198
vn -0.78168919 2.2883522e-16 -0.62366819
vn -0.25881907 2.8597148e-16 -0.96592582
vn 3.3087225e-24 1.00000000 0.0000000e+0
vn 0.36512756 2.2883503e-16 -0.93095750
vn -0.21322591 0.95345133 -0.21322586
vn -0.96592585 -5.0466661e-19 -0.25881895
vn 3.3087225e-24 1.00000000 0.0000000e+0
vn -0.21322591 0.95345133 -0.21322586
vn -0.93095686 0.0000000e+0 0.36512918
vn -0.96592585 -5.0466661e-19 -0.25881895
vn 3.3087225e-24 1.00000000 0.0000000e+0
vn -0.62366874 -1.8931471e-16 -0.78168875
vn -0.29127186 0.95345137 7.8046113e-2
vn -0.70710675 -2.8597149e-16 0.70710681
vn 3.3087225e-24 1.00000000 0.0000000e+0
vn -0.29127186 0.95345137 7.8046113e-2
vn -0.14926731 -3.5146760e-16 0.98879688
vn -0.70710675 -2.8597149e-16 0.70710681
vn 3.3087225e-24 1.00000000 0.0000000e+0
vn -0.98879683 8.1837714e-23 0.14926766
vn -7.8045940e-2 0.95345148 0.29127153
vn 0.25881919 -1.4298574e-16 0.96592579
vn 3.3087225e-24 1.00000000 0.0000000e+0
vn -7.8045940e-2 0.95345148 0.29127153
vn 0.78168952 0.0000000e+0 0.62366778
vn 0.25881919 -1.4298574e-16 0.96592579
vn 3.3087225e-24 1.00000000 0.0000000e+0
vn -0.36512895 -2.2883487e-16 0.93095695
vn 0.21322568 0.95345143 0.21322565
vn 0.96592586 -1.4228147e-17 0.25881893
vn 3.3087225e-24 1.00000000 0.0000000e+0
vn 0.21322568 0.95345143 0.21322565
vn 0.93095710 0.0000000e+0 -0.36512859
vn 0.29127196 -0.95345134 -7.8046097e-2
vn 0.29127196 0.95345134 -7.8046097e-2
vn 0.62366814 1.8931485e-16 0.78168923
vn 0.14926836 0.0000000e+0 -0.98879672
vn 7.8046064e-2 -0.95345133 -0.29127198
vn 0.98879673 -2.7279276e-23 -0.14926833
vn 7.8046064e-2 0.95345133 -0.29127198
vn -0.78168919 2.2883522e-16 -0.62366819
vn -0.21322591 -0.95345133 -0.21322586
vn 0.36512756 2.2883503e-16 -0.93095750
vn -0.21322591 0.95345133 -0.21322586
vn -0.93095686 0.0000000e+0 0.36512918
vn -0.29127186 -0.95345137 7.8046113e-2
vn -0.62366874 -1.8931471e-16 -0.78168875
vn -0.29127186 0.95345137 7.8046113e-2
vn -0.14926731 -3.5146760e-16 0.98879688
vn -7.8045940e-2 -0.95345148 0.29127153
vn -0.98879683 8.1837714e-23 0.14926766
vn -7.8045940e-2 0.95345148 0.29127153
vn 0.78168952 0.0000000e+0 0.62366778
vn 0.21322568 -0.95345143 0.21322565
vn -0.36512895 -2.2883487e-16 0.93095695
vn 0.21322568 0.95345143 0.21322565
vn 0.93095710 0.0000000e+0 -0.36512859
g Cylinder01_sep2_01 - Default
usemtl 01 - Default
f 1/3/1 12/7/45 11/13/41 10/16/37 9/20/33 8/23/29 7/24/25 6/19/21 5/15/17 4/12/13 3/6/9 2/2/5
f 1/10/2 13/11/49 24/17/93 12/18/46
f 1/14/4 25/9/99 13/8/52
f 2/2/7 25/1/97 1/3/3
f 3/10/10 15/11/57 14/17/53 2/18/6
f 3/14/12 26/9/102 15/8/59
f 4/12/15 26/4/101 3/6/11
f 5/10/18 17/11/65 16/17/61 4/18/14
f 5/14/20 27/9/106 17/8/67
f 6/19/23 27/21/105 5/15/19
f 7/10/26 19/11/73 18/17/69 6/18/22
f 7/14/28 28/9/110 19/8/75
f 8/23/31 28/25/109 7/24/27
f 9/10/34 21/11/81 20/17/77 8/18/30
f 9/14/36 29/9/114 21/8/83
f 10/16/39 29/22/113 9/20/35
f 11/10/42 23/11/89 22/17/85 10/18/38
f 11/14/44 30/9/118 23/8/91
f 12/7/47 30/5/117 11/13/43
f 13/16/51 25/22/98 14/20/55
f 14/20/54 15/23/58 16/24/62 17/19/66 18/15/70 19/12/74 20/6/78 21/2/82 22/3/86 23/7/90 24/13/94 13/16/50
f 14/14/56 25/9/100 2/8/8
f 15/23/60 26/25/103 16/24/63
f 16/14/64 26/9/104 4/8/16
f 17/19/68 27/21/107 18/15/71
f 18/14/72 27/9/108 6/8/24
f 19/12/76 28/4/111 20/6/79
f 20/14/80 28/9/112 8/8/32
f 21/2/84 29/1/115 22/3/87
f 22/14/88 29/9/116 10/8/40
f 23/7/92 30/5/119 24/13/95
f 24/14/96 30/9/120 12/8/48
