# Exported from Wings 3D 1.0.1
mtllib base.mtl
o Cylinder01_sep5
#51 vertices, 53 faces
v 2.00099993 1.0000000e-3 -1.0000000e-3
v 1.00099993 1.0000000e-3 -1.73305094
v -0.99900013 1.0000000e-3 -1.73305082
v -1.99899995 1.0000000e-3 -9.9982519e-4
v -0.99899983 1.0000000e-3 1.73105085
v 1.00100029 1.0000000e-3 1.73105061
v 2.00099993 0.50099999 -1.0000000e-3
v 1.00099993 0.50099999 -1.73305094
v -0.99900013 0.50099999 -1.73305082
v -1.99899995 0.50099999 -9.9982519e-4
v -0.99899983 0.50099999 1.73105085
v 1.00100029 0.50099999 1.73105061
v 0.93065971 3.00099993 -9.9993567e-4
v 0.46582979 3.00099993 -0.80610883
v -0.46382993 3.00099993 -0.80610877
v -0.92865962 3.00099993 -9.9985441e-4
v -0.46382976 3.00099993 0.80410898
v 0.46582991 3.00099993 0.80410892
v 0.24100669 3.00099993 -9.9993916e-4
v 0.12100334 3.00099993 -0.20885183
v -0.11900334 3.00099993 -0.20885177
v -0.23900656 3.00099993 -9.9991821e-4
v -0.11900328 3.00099993 0.20685194
v 0.12100334 3.00099993 0.20685188
v 0.24100669 4.50099993 -9.9993916e-4
v 0.12100334 4.50099993 -0.20885183
v -0.11900334 4.50099993 -0.20885177
v -0.23900656 4.50099993 -9.9991821e-4
v -0.11900328 4.50099993 0.20685194
v 0.12100334 4.50099993 0.20685188
v 1.17619026 4.50100040 -9.9993893e-4
v 0.58859509 4.50100040 -1.01874471
v -0.58659536 4.50100040 -1.01874447
v -1.17418993 4.50100040 -9.9983613e-4
v -0.58659500 4.50100040 1.01674461
v 0.58859509 4.50100040 1.01674426
v 0.51228869 6.12642813 -1.0000276e-3
v 0.25664431 6.12642813 -0.44378895
v -0.25464439 6.12642813 -0.44378892
v -0.51028848 6.12642813 -9.9998293e-4
v -0.25464427 6.12642813 0.44178894
v 0.25664431 6.12642813 0.44178885
v 0.51228869 6.50100040 -1.0000420e-3
v 0.25664431 6.50100040 -0.44378898
v -0.25464439 6.50100040 -0.44378895
v -0.51028848 6.50100040 -9.9999725e-4
v -0.25464427 6.50100040 0.44178891
v 0.25664431 6.50100040 0.44178882
v 1.31537354 5.50099993 0.75785410
v 9.9984731e-4 5.50099993 -1.51870823
v -1.31337368 5.50099993 0.75785381
vt 1.8895600e-2 1.5315429e-2
vt 1.8896678e-2 0.11418336
vt 2.0144701e-2 0.30060998
vt 2.0408636e-2 0.65956509
vt 2.1127556e-2 0.30667406
vt 8.8718906e-2 0.59964395
vt 9.5013618e-2 0.74662501
vt 0.11083595 0.75541800
vt 0.11458725 0.60852009
vt 0.16260387 0.68656856
vt 0.16450734 0.84356493
vt 0.18817559 0.75589764
vt 0.19543187 0.69633573
vt 0.20048074 0.69205391
vt 0.20048074 0.69563961
vt 0.20200783 0.77591187
vt 0.20310642 0.69192696
vt 0.20310642 0.69551259
vt 0.20329615 0.69489700
vt 0.20354711 0.68874294
vt 0.20354711 0.69184822
vt 0.20354711 0.69495344
vt 0.20421048 0.68113077
vt 0.20421048 0.71154070
vt 0.20440324 0.68860519
vt 0.20440324 0.69171047
vt 0.20440324 0.69481575
vt 0.20939049 0.68434131
vt 0.20939049 0.70545268
vt 0.20940340 0.69633573
vt 0.21119623 0.69323045
vt 0.21119623 0.69944096
vt 0.21478190 0.69323045
vt 0.21478190 0.69944096
vt 0.21657471 0.69633573
vt 0.22157916 0.68434131
vt 0.22157916 0.70545268
vt 0.22176763 0.68113077
vt 0.22176765 0.71154070
vt 0.22289054 0.69205391
vt 0.22289054 0.69563961
vt 0.22551621 0.69192696
vt 0.22551621 0.69551259
vt 0.22595690 0.68874294
vt 0.22595690 0.69184822
vt 0.22595690 0.69495344
vt 0.22681302 0.68860519
vt 0.22681302 0.69171047
vt 0.22681302 0.69481575
vt 0.22767350 0.69489700
vt 0.23054622 0.69633573
vt 0.31105065 0.60851759
vt 0.38428575 0.37439379
vt 0.41995496 1.5311458e-2
vt 0.41995603 0.11417902
vt 0.46418607 5.4809414e-3
vt 0.57668453 5.8545535e-3
vt 0.65196443 0.37439340
vt 0.65681523 0.98120725
vt 0.80585039 0.84608632
vt 0.84792417 0.76388949
vt 0.84802771 0.92319411
vt 0.93989873 0.76388949
vt 0.93989873 0.92319411
vt 0.98588610 0.84354180
vn -3.6085703e-24 -1.00000000 -6.1135858e-17
vn 0.86602542 0.0000000e+0 -0.49999997
vn 0.86602546 -2.0816686e-17 0.49999991
vn -3.6085703e-24 -1.00000000 -6.1135858e-17
vn 0.86602542 0.0000000e+0 -0.49999997
vn -5.9604643e-8 0.0000000e+0 -1.00000000
vn -3.6085703e-24 -1.00000000 -6.1135858e-17
vn -5.9604643e-8 0.0000000e+0 -1.00000000
vn -0.86602547 4.5102810e-17 -0.49999989
vn -3.6085703e-24 -1.00000000 -6.1135858e-17
vn -0.86602547 4.5102810e-17 -0.49999989
vn -0.86602536 0.0000000e+0 0.50000007
vn -3.6085703e-24 -1.00000000 -6.1135858e-17
vn -0.86602536 0.0000000e+0 0.50000007
vn 1.1920928e-7 0.0000000e+0 1.00000000
vn -3.6085703e-24 -1.00000000 -6.1135858e-17
vn 1.1920928e-7 0.0000000e+0 1.00000000
vn 0.86602546 -2.0816686e-17 0.49999991
vn 0.86602542 0.0000000e+0 -0.49999997
vn 0.86602546 -2.0816686e-17 0.49999991
vn 0.81200672 0.34764942 -0.46881230
vn 0.81200676 0.34764941 0.46881224
vn 0.86602542 0.0000000e+0 -0.49999997
vn -5.9604643e-8 0.0000000e+0 -1.00000000
vn 0.81200672 0.34764942 -0.46881230
vn -5.7228604e-8 0.34764948 -0.93762457
vn -5.9604643e-8 0.0000000e+0 -1.00000000
vn -0.86602547 4.5102810e-17 -0.49999989
vn -5.7228604e-8 0.34764948 -0.93762457
vn -0.81200678 0.34764944 -0.46881218
vn -0.86602547 4.5102810e-17 -0.49999989
vn -0.86602536 0.0000000e+0 0.50000007
vn -0.81200678 0.34764944 -0.46881218
vn -0.81200669 0.34764941 0.46881236
vn -0.86602536 0.0000000e+0 0.50000007
vn 1.1920928e-7 0.0000000e+0 1.00000000
vn -0.81200669 0.34764941 0.46881236
vn 9.5381010e-8 0.34764938 0.93762461
vn 1.1920928e-7 0.0000000e+0 1.00000000
vn 0.86602546 -2.0816686e-17 0.49999991
vn 9.5381010e-8 0.34764938 0.93762461
vn 0.81200676 0.34764941 0.46881224
vn 0.81200672 0.34764942 -0.46881230
vn 0.81200676 0.34764941 0.46881224
vn -1.5892308e-16 1.00000000 0.0000000e+0
vn 0.0000000e+0 1.00000000 0.0000000e+0
vn 0.81200672 0.34764942 -0.46881230
vn -5.7228604e-8 0.34764948 -0.93762457
vn -1.5892308e-16 1.00000000 0.0000000e+0
vn 0.0000000e+0 1.00000000 0.0000000e+0
vn -5.7228604e-8 0.34764948 -0.93762457
vn -0.81200678 0.34764944 -0.46881218
vn 0.0000000e+0 1.00000000 0.0000000e+0
vn 0.0000000e+0 1.00000000 0.0000000e+0
vn -0.81200678 0.34764944 -0.46881218
vn -0.81200669 0.34764941 0.46881236
vn 0.0000000e+0 1.00000000 0.0000000e+0
vn -3.1784616e-16 1.00000000 0.0000000e+0
vn -0.81200669 0.34764941 0.46881236
vn 9.5381010e-8 0.34764938 0.93762461
vn -3.1784616e-16 1.00000000 0.0000000e+0
vn 0.0000000e+0 1.00000000 0.0000000e+0
vn 9.5381010e-8 0.34764938 0.93762461
vn 0.81200676 0.34764941 0.46881224
vn 0.0000000e+0 1.00000000 0.0000000e+0
vn 0.0000000e+0 1.00000000 0.0000000e+0
vn -1.5892308e-16 1.00000000 0.0000000e+0
vn 0.0000000e+0 1.00000000 0.0000000e+0
vn 0.86602541 3.3729794e-17 -0.49999999
vn 0.86602534 -3.2035783e-17 0.50000011
vn -1.5892308e-16 1.00000000 0.0000000e+0
vn 0.0000000e+0 1.00000000 0.0000000e+0
vn 0.86602541 3.3729794e-17 -0.49999999
vn -2.4834577e-7 5.7822505e-17 -1.00000000
vn 0.0000000e+0 1.00000000 0.0000000e+0
vn 0.0000000e+0 1.00000000 0.0000000e+0
vn -2.4834577e-7 5.7822505e-17 -1.00000000
vn -0.86602558 3.2035788e-17 -0.49999969
vn 0.0000000e+0 1.00000000 0.0000000e+0
vn -3.1784616e-16 1.00000000 0.0000000e+0
vn -0.86602558 3.2035788e-17 -0.49999969
vn -0.86602549 -3.3729802e-17 0.49999986
vn -3.1784616e-16 1.00000000 0.0000000e+0
vn 0.0000000e+0 1.00000000 0.0000000e+0
vn -0.86602549 -3.3729802e-17 0.49999986
vn 2.4834583e-7 -5.7822520e-17 1.00000000
vn 0.0000000e+0 1.00000000 0.0000000e+0
vn 0.0000000e+0 1.00000000 0.0000000e+0
vn 2.4834583e-7 -5.7822520e-17 1.00000000
vn 0.86602534 -3.2035783e-17 0.50000011
vn 0.86602541 3.3729794e-17 -0.49999999
vn 0.86602534 -3.2035783e-17 0.50000011
vn 5.0988616e-7 -1.00000000 -2.9438289e-7
vn 5.0988617e-7 -1.00000000 2.9438305e-7
vn 0.86602541 3.3729794e-17 -0.49999999
vn -2.4834577e-7 5.7822505e-17 -1.00000000
vn 5.0988616e-7 -1.00000000 -2.9438289e-7
vn -1.2398688e-13 -1.00000000 -5.8876578e-7
vn -2.4834577e-7 5.7822505e-17 -1.00000000
vn -0.86602558 3.2035788e-17 -0.49999969
vn -1.2398688e-13 -1.00000000 -5.8876578e-7
vn -5.0988629e-7 -1.00000000 -2.9438271e-7
vn -0.86602558 3.2035788e-17 -0.49999969
vn -0.86602549 -3.3729802e-17 0.49999986
vn -5.0988629e-7 -1.00000000 -2.9438271e-7
vn -5.0988626e-7 -1.00000000 2.9438291e-7
vn -0.86602549 -3.3729802e-17 0.49999986
vn 2.4834583e-7 -5.7822520e-17 1.00000000
vn -5.0988626e-7 -1.00000000 2.9438291e-7
vn 1.7358174e-13 -1.00000000 5.8876597e-7
vn 2.4834583e-7 -5.7822520e-17 1.00000000
vn 0.86602534 -3.2035783e-17 0.50000011
vn 1.7358174e-13 -1.00000000 5.8876597e-7
vn 5.0988617e-7 -1.00000000 2.9438305e-7
vn 5.0988616e-7 -1.00000000 -2.9438289e-7
vn 5.0988617e-7 -1.00000000 2.9438305e-7
vn 0.81645234 0.33347777 -0.47137899
vn 0.81645226 0.33347774 0.47137915
vn 5.0988616e-7 -1.00000000 -2.9438289e-7
vn -1.2398688e-13 -1.00000000 -5.8876578e-7
vn 0.81645234 0.33347777 -0.47137899
vn -1.4993805e-7 0.33347778 -0.94275796
vn -1.2398688e-13 -1.00000000 -5.8876578e-7
vn -5.0988629e-7 -1.00000000 -2.9438271e-7
vn -1.4993805e-7 0.33347778 -0.94275796
vn -0.81645255 0.33347774 -0.47137865
vn -5.0988629e-7 -1.00000000 -2.9438271e-7
vn -5.0988626e-7 -1.00000000 2.9438291e-7
vn -0.81645255 0.33347774 -0.47137865
vn -0.81645240 0.33347774 0.47137890
vn -5.0988626e-7 -1.00000000 2.9438291e-7
vn 1.7358174e-13 -1.00000000 5.8876597e-7
vn -0.81645240 0.33347774 0.47137890
vn 2.4989682e-7 0.33347772 0.94275798
vn 1.7358174e-13 -1.00000000 5.8876597e-7
vn 5.0988617e-7 -1.00000000 2.9438305e-7
vn 2.4989682e-7 0.33347772 0.94275798
vn 0.81645226 0.33347774 0.47137915
vn 0.81645234 0.33347777 -0.47137899
vn 0.81645226 0.33347774 0.47137915
vn 0.86602534 -2.9447866e-8 -0.50000011
vn -0.43552938 -0.86434107 -0.25145311
vn 0.68680772 -2.7785482e-8 -0.72683915
vn 0.81645234 0.33347777 -0.47137899
vn -1.4993805e-7 0.33347778 -0.94275796
vn 0.86602534 -2.9447866e-8 -0.50000011
vn 2.9313704e-8 -0.86434113 0.50290596
vn 0.97286506 -1.8408890e-8 -0.23137324
vn -1.4993805e-7 0.33347778 -0.94275796
vn -0.81645255 0.33347774 -0.47137865
vn -0.86602560 -2.9447839e-8 -0.49999966
vn 2.9313704e-8 -0.86434113 0.50290596
vn -0.97286511 -1.8408874e-8 -0.23137304
vn -0.81645255 0.33347774 -0.47137865
vn -0.81645240 0.33347774 0.47137890
vn -0.86602560 -2.9447839e-8 -0.49999966
vn 0.43552946 -0.86434108 -0.25145295
vn -0.68680740 -2.7785493e-8 -0.72683946
vn -0.81645240 0.33347774 0.47137890
vn 2.4989682e-7 0.33347772 0.94275798
vn 1.7486596e-7 7.9563610e-8 1.00000000
vn 0.43552946 -0.86434108 -0.25145295
vn 0.28605729 7.6238847e-8 0.95821252
vn 2.4989682e-7 0.33347772 0.94275798
vn 0.81645226 0.33347774 0.47137915
vn 1.7486596e-7 7.9563610e-8 1.00000000
vn -0.43552938 -0.86434107 -0.25145311
vn -0.28605765 7.6238838e-8 0.95821241
vn 0.0000000e+0 1.00000000 0.0000000e+0
vn 0.86602534 -2.9447866e-8 -0.50000011
vn 0.58987723 0.73216098 0.34056593
vn 0.68680772 -2.7785482e-8 -0.72683915
vn 0.0000000e+0 1.00000000 0.0000000e+0
vn 0.86602534 -2.9447866e-8 -0.50000011
vn -3.9702230e-8 0.73216107 -0.68113154
vn 0.97286506 -1.8408890e-8 -0.23137324
vn 0.0000000e+0 1.00000000 0.0000000e+0
vn -0.86602560 -2.9447839e-8 -0.49999966
vn -3.9702230e-8 0.73216107 -0.68113154
vn -0.97286511 -1.8408874e-8 -0.23137304
vn 0.0000000e+0 1.00000000 0.0000000e+0
vn -0.86602560 -2.9447839e-8 -0.49999966
vn -0.58987733 0.73216100 0.34056571
vn -0.68680740 -2.7785493e-8 -0.72683946
vn 0.0000000e+0 1.00000000 0.0000000e+0
vn 1.7486596e-7 7.9563610e-8 1.00000000
vn -0.58987733 0.73216100 0.34056571
vn 0.28605729 7.6238847e-8 0.95821252
vn 0.0000000e+0 1.00000000 0.0000000e+0
vn 1.7486596e-7 7.9563610e-8 1.00000000
vn 0.58987723 0.73216098 0.34056593
vn -0.28605765 7.6238838e-8 0.95821241
vn 0.58987723 0.73216098 0.34056593
vn -0.43552938 -0.86434107 -0.25145311
vn 0.68680772 -2.7785482e-8 -0.72683915
vn -0.28605765 7.6238838e-8 0.95821241
vn -3.9702230e-8 0.73216107 -0.68113154
vn 2.9313704e-8 -0.86434113 0.50290596
vn 0.97286506 -1.8408890e-8 -0.23137324
vn -0.97286511 -1.8408874e-8 -0.23137304
vn -0.58987733 0.73216100 0.34056571
vn 0.43552946 -0.86434108 -0.25145295
vn -0.68680740 -2.7785493e-8 -0.72683946
vn 0.28605729 7.6238847e-8 0.95821252
g Cylinder01_sep5_01 - Default
usemtl 01 - Default
f 1/19/1 6/28/16 5/36/13 4/50/10 3/37/7 2/29/4
f 1/1/3 7/2/20 12/55/40 6/54/18
f 2/54/5 8/55/23 7/2/19 1/1/2
f 3/54/8 9/55/27 8/2/24 2/1/6
f 4/1/11 10/2/31 9/55/28 3/54/9
f 5/54/14 11/55/35 10/2/32 4/1/12
f 6/54/17 12/55/39 11/2/36 5/1/15
f 7/2/22 13/9/44 18/52/64 12/55/42
f 8/55/25 14/52/47 13/9/43 7/2/21
f 9/55/29 15/52/51 14/9/48 8/2/26
f 10/2/33 16/9/55 15/52/52 9/55/30
f 11/55/37 17/52/59 16/9/56 10/2/34
f 12/55/41 18/52/63 17/9/60 11/2/38
f 13/8/46 19/12/68 24/16/88 18/11/66
f 14/8/49 20/12/71 19/16/67 13/11/45
f 15/8/53 21/12/75 20/16/72 14/11/50
f 16/8/57 22/12/79 21/16/76 15/11/54
f 17/8/61 23/12/83 22/16/80 16/11/58
f 18/8/65 24/12/87 23/16/84 17/11/62
f 19/21/70 25/45/92 30/46/112 24/22/90
f 20/20/73 26/44/95 25/45/91 19/21/69
f 21/14/77 27/40/99 26/41/96 20/15/74
f 22/26/81 28/48/103 27/49/100 21/27/78
f 23/25/85 29/47/107 28/48/104 22/26/82
f 24/17/89 30/42/111 29/43/108 23/18/86
f 25/30/94 31/13/116 36/23/136 30/31/114
f 26/32/97 32/24/119 31/13/115 25/30/93
f 27/34/101 33/39/123 32/24/120 26/32/98
f 28/35/105 34/51/127 33/39/124 27/34/102
f 29/33/109 35/38/131 34/51/128 28/35/106
f 30/31/113 36/23/135 35/38/132 29/33/110
f 31/58/118 37/57/140 42/56/165 36/53/138
f 32/53/121 38/56/144 37/57/139 31/58/117
f 33/53/125 39/56/149 38/57/145 32/58/122
f 34/58/129 40/57/154 39/56/150 33/53/126
f 35/53/133 41/56/159 40/57/155 34/58/130
f 36/53/137 42/56/164 41/57/160 35/58/134
f 37/62/142 49/59/194 42/60/167
f 38/6/146 44/4/174 43/7/170 37/10/141
f 38/6/148 50/5/199 44/4/176
f 39/62/152 50/59/198 38/60/147
f 40/10/156 46/7/182 45/4/178 39/6/151
f 40/6/158 51/3/203 46/4/184
f 41/62/162 51/59/202 40/60/157
f 42/10/166 48/7/190 47/4/186 41/6/161
f 42/6/168 49/5/196 48/4/192
f 43/4/172 49/3/195 37/6/143
f 44/61/173 45/63/177 46/65/181 47/64/185 48/62/189 43/60/169
f 44/62/175 50/59/197 45/60/179
f 45/4/180 50/5/200 39/6/153
f 46/60/183 51/59/201 47/62/187
f 47/4/188 51/5/204 41/6/163
f 48/62/191 49/59/193 43/60/171
