# Exported from Wings 3D 1.0.1
mtllib turret.mtl
o Cylinder01_sep4
#79 vertices, 85 faces
v 0.40099999 3.00099993 -9.9986780e-4
v 0.20099999 3.00099993 -0.34741005
v -0.19900002 3.00099993 -0.34741002
v -0.39900002 3.00099993 -9.9983288e-4
v -0.19899996 3.00099993 0.34541032
v 0.20100005 3.00099993 0.34541026
v 0.40099999 4.50099993 -9.9986780e-4
v 0.20099999 4.50099993 -0.34741005
v -0.19900002 4.50099993 -0.34741002
v -0.39900002 4.50099993 -9.9983288e-4
v -0.19899996 4.50099993 0.34541032
v 0.20100005 4.50099993 0.34541026
v 2.13305068 3.00099993 0.99900013
v 0.20099984 3.00099993 -2.34740996
v -0.19900016 3.00099993 -2.34740996
v -2.13105083 3.00099993 0.99900037
v -1.93105054 3.00099993 1.34541047
v 1.93305087 3.00099993 1.34541023
v 2.13305068 3.50099993 0.99900013
v 0.20099984 3.50099993 -2.34740996
v -0.19900016 3.50099993 -2.34740996
v -2.13105083 3.50099993 0.99900037
v -1.93105054 3.50099993 1.34541047
v 1.93305087 3.50099993 1.34541023
v 0.16290401 6.50099945 -9.9986512e-4
v 8.1952006e-2 6.50099945 -0.14121285
v -7.9951987e-2 6.50099945 -0.14121284
v -0.16090398 6.50099945 -9.9985092e-4
v -7.9951964e-2 6.50099945 0.13921310
v 8.1952028e-2 6.50099945 0.13921309
v 0.16290401 7.00100040 -9.9986512e-4
v 8.1952006e-2 7.00100040 -0.14121285
v -7.9951987e-2 7.00100040 -0.14121284
v -0.16090398 7.00100040 -9.9985092e-4
v -7.9951964e-2 7.00100040 0.13921310
v 8.1952028e-2 7.00100040 0.13921309
v 0.98845339 6.75099993 -0.57110637
v -0.98645347 6.75099993 -0.57110626
v -7.9951875e-2 6.50099945 0.79899997
v 8.1952117e-2 6.50099945 0.79900008
v -7.9951875e-2 7.00100040 0.79900002
v 8.1952117e-2 7.00100040 0.79900002
v -7.9951875e-2 7.00100040 1.79900002
v 8.1952117e-2 7.00100040 1.79900002
v 0.50099999 6.50099945 0.79900002
v 0.50099999 7.00100040 0.79900002
v 0.50099999 7.00100040 1.79900002
v -0.49900001 6.50099945 0.79900008
v -0.49900001 7.00100040 0.79900002
v -0.49900001 7.00100040 1.79900002
v -0.36177742 7.20100021 0.79900002
v 0.36377764 7.20100021 0.79900002
v -0.36177742 7.20100021 1.79900014
v 0.36377764 7.20100021 1.79900014
v 0.50099999 7.20100021 0.79899997
v 0.50099999 7.20100021 1.79900002
v -0.49900001 7.20100021 0.79899997
v -0.49900001 7.20100021 1.79900002
v -0.36177740 8.45672989 -0.10262972
v 0.36377767 8.45672989 -0.10262972
v -0.36177734 8.45672989 0.19737035
v 0.36377773 8.45672989 0.19737035
v 0.50100005 8.45672989 -0.10262972
v 0.50099999 8.45672989 0.19737017
v -0.49899995 8.45672989 -0.10262972
v -0.49899995 8.45672989 0.19737023
v 2.02795076 6.75099993 1.18801713
v -2.02595091 6.75099993 1.18801737
v -7.9952046e-2 6.50099993 1.99899995
v 8.1951946e-2 6.50099993 1.99899995
v 1.0000112e-3 5.31824160 1.99899971
v -0.36177740 8.75673103 -0.10262972
v 0.36377767 8.75673103 -0.10262972
v -0.36177734 8.75673103 0.19737035
v 0.36377773 8.75673103 0.19737035
v 0.50100005 8.75673103 -0.10262972
v 0.50099999 8.75673103 0.19737017
v -0.49899995 8.75673103 -0.10262972
v -0.49899995 8.75673103 0.19737023
vt 1.4201976e-2 0.75453997
vt 1.5191227e-2 0.86023390
vt 1.5401454e-2 0.88269496
vt 3.4171849e-2 0.93468845
vt 5.5208117e-2 0.89180094
vt 7.7059612e-2 0.95572466
vt 9.5288433e-2 0.85948390
vt 9.5387317e-2 0.96722984
vt 9.5498800e-2 0.88194525
vt 9.6129052e-2 0.75379008
vt 9.8095946e-2 0.91283715
vt 0.17782424 0.86438662
vt 0.19677065 0.61835402
vt 0.19677065 0.65429336
vt 0.20200334 0.71673799
vt 0.20275760 0.67542797
vt 0.20275760 0.67704487
vt 0.20319226 0.69676441
vt 0.20480917 0.69676441
vt 0.20571916 0.69436580
vt 0.20599808 0.71673799
vt 0.20747864 0.67557800
vt 0.20879450 0.67556572
vt 0.20897016 0.69433534
vt 0.20923421 0.70423543
vt 0.20934677 0.67542797
vt 0.20934677 0.67704487
vt 0.21011040 0.67555338
vt 0.21128802 0.69998312
vt 0.21151638 0.70835257
vt 0.21222118 0.69430494
vt 0.21234913 0.72298038
vt 0.21451595 0.67562002
vt 0.21599454 0.70006526
vt 0.21622300 0.70843470
vt 0.21864748 0.70439970
vt 0.21901049 0.67582190
vt 0.22133094 0.67623639
vt 0.22185613 0.72288895
vt 0.27363229 0.61835402
vt 0.27363229 0.65429336
vt 0.28626913 0.95416510
vt 0.28626913 0.98029447
vt 0.31979999 0.91488159
vt 0.33987778 0.59254503
vt 0.34949592 0.92733538
vt 0.35852587 0.48302707
vt 0.35852587 0.57244539
vt 0.36696273 0.95416510
vt 0.36696273 0.98029447
vt 0.36916137 0.47157851
vt 0.38992065 0.77192271
vt 0.41744056 0.78330797
vt 0.42150989 0.96130800
vt 0.43754122 0.80531806
vt 0.43754122 0.96021688
vt 0.46740282 0.68133938
vt 0.48002487 0.65967065
vt 0.48037866 0.39265227
vt 0.48119575 0.80531806
vt 0.48119575 0.96021688
vt 0.48125863 0.70311779
vt 0.50633723 0.80531806
vt 0.50633723 0.96021688
vt 0.50633746 0.65968019
vt 0.50633746 0.70311779
vt 0.51887679 0.68139887
vt 0.52517855 0.89868546
vt 0.52546811 0.70854366
vt 0.53453088 0.39265227
vt 0.53453088 0.47157851
vt 0.55244339 0.39434168
vt 0.55244339 0.47249088
vt 0.61955315 0.88967103
vt 0.64568925 0.39434168
vt 0.64568925 0.47249088
vt 0.66656822 0.30496049
vt 0.68298757 0.44689983
vt 0.68298757 0.47249088
vt 0.69228387 0.38770348
vt 0.69228387 0.41199085
vt 0.71367264 0.48302707
vt 0.71367264 0.75128198
vt 0.73102432 1.5904739e-2
vt 0.73102432 6.8645589e-2
vt 0.77828145 0.75123358
vt 0.77834862 0.48346105
vt 0.79050893 0.74009669
vt 0.79058290 0.48971316
vt 0.79807794 0.79693764
vt 0.84021991 0.73913389
vt 0.84029371 0.49058047
vt 0.85637337 0.48562750
vt 0.85637408 0.69068038
vt 0.85808611 0.69970220
vt 0.85808611 0.75558996
vt 0.91452104 0.37485087
vt 0.91480762 0.23247817
vt 0.91717052 0.44689983
vt 0.91717052 0.47249088
vt 0.93877244 0.69970226
vt 0.93877244 0.75559002
vt 0.94230044 0.48562723
vt 0.94230115 0.69068009
vt 0.95767844 4.2275168e-2
vt 0.97311819 0.44689983
vt 0.97311819 0.47249088
vt 0.97576070 0.38770348
vt 0.97576070 0.41199085
vt 0.97593570 0.23168765
vt 0.97602254 0.37617692
vn 0.0000000e+0 -1.00000000 0.0000000e+0
vn 0.86602542 4.6259290e-17 -0.49999998
vn 0.0000000e+0 -1.00000000 0.0000000e+0
vn 0.50000003 3.9790222e-17 -0.86602539
vn 0.0000000e+0 -1.00000000 0.0000000e+0
vn 0.86602542 4.6259290e-17 -0.49999998
vn 0.0000000e+0 -1.00000000 0.0000000e+0
vn 1.00000000 3.3087226e-24 -7.4505809e-8
vn 0.0000000e+0 -1.00000000 0.0000000e+0
vn -0.86602542 3.7337210e-17 -0.49999997
vn 0.0000000e+0 -1.00000000 0.0000000e+0
vn -1.00000000 -3.3087225e-24 7.4505808e-8
vn 0.0000000e+0 -1.00000000 0.0000000e+0
vn -0.86602542 3.7337210e-17 -0.49999997
vn 0.0000000e+0 -1.00000000 0.0000000e+0
vn -0.50000008 3.9790218e-17 -0.86602536
vn 0.0000000e+0 -1.00000000 0.0000000e+0
vn 1.4901161e-7 -9.2518584e-17 1.00000000
vn 0.0000000e+0 -1.00000000 0.0000000e+0
vn 0.50000010 -2.7755577e-17 0.86602534
vn 0.0000000e+0 -1.00000000 0.0000000e+0
vn 1.4901161e-7 -9.2518584e-17 1.00000000
vn 0.0000000e+0 -1.00000000 0.0000000e+0
vn -0.49999999 -2.7755576e-17 0.86602541
vn 0.86602542 4.6259290e-17 -0.49999998
vn 0.50000003 3.9790222e-17 -0.86602539
vn 0.38729839 0.89442719 0.22360672
vn 0.86145915 0.10255501 -0.49736365
vn 0.86145917 0.10255501 0.49736362
vn 0.86602542 4.6259290e-17 -0.49999998
vn 1.00000000 3.3087226e-24 -7.4505809e-8
vn -1.6660005e-8 0.89442718 -0.44721361
vn 0.86145915 0.10255501 -0.49736365
vn -7.9137677e-8 0.10255502 -0.99472733
vn -0.86602542 3.7337210e-17 -0.49999997
vn -1.6660005e-8 0.89442718 -0.44721361
vn -1.00000000 -3.3087225e-24 7.4505808e-8
vn -0.86145916 0.10255503 -0.49736363
vn -7.9137677e-8 0.10255502 -0.99472733
vn -0.86602542 3.7337210e-17 -0.49999997
vn -0.50000008 3.9790218e-17 -0.86602536
vn -0.38729824 0.89442719 0.22360696
vn -0.86145916 0.10255503 -0.49736363
vn -0.86145907 0.10255503 0.49736379
vn 1.4901161e-7 -9.2518584e-17 1.00000000
vn -0.38729824 0.89442719 0.22360696
vn 0.50000010 -2.7755577e-17 0.86602534
vn 1.3189613e-7 0.10255502 0.99472733
vn -0.86145907 0.10255503 0.49736379
vn 1.4901161e-7 -9.2518584e-17 1.00000000
vn -0.49999999 -2.7755576e-17 0.86602541
vn 0.38729839 0.89442719 0.22360672
vn 1.3189613e-7 0.10255502 0.99472733
vn 0.86145917 0.10255501 0.49736362
vn 0.86602557 0.0000000e+0 0.49999971
vn 0.0000000e+0 -1.00000000 0.0000000e+0
vn 0.50000003 3.9790222e-17 -0.86602539
vn 0.0000000e+0 0.0000000e+0 -1.00000000
vn 0.0000000e+0 -1.00000000 0.0000000e+0
vn 1.00000000 3.3087226e-24 -7.4505809e-8
vn 0.0000000e+0 0.0000000e+0 -1.00000000
vn 0.0000000e+0 -1.00000000 0.0000000e+0
vn -1.00000000 -3.3087225e-24 7.4505808e-8
vn -0.86602505 0.0000000e+0 0.50000061
vn 0.0000000e+0 -1.00000000 0.0000000e+0
vn -0.50000008 3.9790218e-17 -0.86602536
vn -0.86602505 0.0000000e+0 0.50000061
vn 0.0000000e+0 -1.00000000 0.0000000e+0
vn 0.50000010 -2.7755577e-17 0.86602534
vn 0.86602557 0.0000000e+0 0.49999971
vn 0.0000000e+0 -1.00000000 0.0000000e+0
vn -0.49999999 -2.7755576e-17 0.86602541
vn 0.86602557 0.0000000e+0 0.49999971
vn 0.50000003 3.9790222e-17 -0.86602539
vn 0.38729839 0.89442719 0.22360672
vn 0.0000000e+0 0.0000000e+0 -1.00000000
vn 1.00000000 3.3087226e-24 -7.4505809e-8
vn -1.6660005e-8 0.89442718 -0.44721361
vn 0.0000000e+0 0.0000000e+0 -1.00000000
vn -1.6660005e-8 0.89442718 -0.44721361
vn -1.00000000 -3.3087225e-24 7.4505808e-8
vn -0.86602505 0.0000000e+0 0.50000061
vn -0.50000008 3.9790218e-17 -0.86602536
vn -0.38729824 0.89442719 0.22360696
vn -0.86602505 0.0000000e+0 0.50000061
vn -0.38729824 0.89442719 0.22360696
vn 0.50000010 -2.7755577e-17 0.86602534
vn 0.86602557 0.0000000e+0 0.49999971
vn -0.49999999 -2.7755576e-17 0.86602541
vn 0.38729839 0.89442719 0.22360672
vn 0.86145915 0.10255501 -0.49736365
vn 0.86145917 0.10255501 0.49736362
vn 0.86602541 -2.5949181e-17 0.49999998
vn 0.21004239 -0.97014239 -0.12126803
vn -0.53757331 9.0074105e-18 0.84321701
vn 0.20865417 -0.97018616 -0.12329746
vn 0.86145915 0.10255501 -0.49736365
vn -7.9137677e-8 0.10255502 -0.99472733
vn -9.2037021e-8 4.2857996e-17 -1.00000000
vn 0.21004239 -0.97014239 -0.12126803
vn -0.42849182 1.0159128e-16 -0.90354566
vn -0.86145916 0.10255503 -0.49736363
vn -7.9137677e-8 0.10255502 -0.99472733
vn -9.2037021e-8 4.2857996e-17 -1.00000000
vn -0.21004239 -0.97014239 -0.12126801
vn 0.42849170 1.0181259e-16 -0.90354572
vn -0.86145916 0.10255503 -0.49736363
vn -0.86145907 0.10255503 0.49736379
vn -0.86602533 -2.1428999e-17 0.50000012
vn -0.21004239 -0.97014239 -0.12126801
vn 0.53757335 8.8968220e-18 0.84321699
vn -0.20865416 -0.97018616 -0.12329745
vn 1.3189613e-7 0.10255502 0.99472733
vn -0.86145907 0.10255503 0.49736379
vn -0.86602533 -2.1428999e-17 0.50000012
vn 0.0000000e+0 -1.00000000 0.0000000e+0
vn -1.00000000 -8.0769418e-15 1.3550886e-7
vn 1.3189613e-7 0.10255502 0.99472733
vn 0.86145917 0.10255501 0.49736362
vn 0.86602541 -2.5949181e-17 0.49999998
vn 0.0000000e+0 -1.00000000 0.0000000e+0
vn 1.00000000 -8.0769409e-15 -1.3550884e-7
vn 0.0000000e+0 1.00000000 0.0000000e+0
vn 0.86602541 -2.5949181e-17 0.49999998
vn 0.21004239 0.97014239 -0.12126803
vn -0.53757331 9.0074105e-18 0.84321701
vn 0.20865417 0.97018616 -0.12329746
vn 0.0000000e+0 1.00000000 0.0000000e+0
vn -9.2037021e-8 4.2857996e-17 -1.00000000
vn 0.21004239 0.97014239 -0.12126803
vn -0.42849182 1.0159128e-16 -0.90354566
vn 0.0000000e+0 1.00000000 0.0000000e+0
vn -9.2037021e-8 4.2857996e-17 -1.00000000
vn -0.21004239 0.97014239 -0.12126801
vn 0.42849170 1.0181259e-16 -0.90354572
vn 0.0000000e+0 1.00000000 0.0000000e+0
vn -0.86602533 -2.1428999e-17 0.50000012
vn -0.21004239 0.97014239 -0.12126801
vn 0.53757335 8.8968220e-18 0.84321699
vn -0.20865416 0.97018616 -0.12329745
vn 0.0000000e+0 1.00000000 0.0000000e+0
vn -0.86602533 -2.1428999e-17 0.50000012
vn 0.0000000e+0 1.00000000 0.0000000e+0
vn -1.00000000 -8.0769418e-15 1.3550886e-7
vn 0.0000000e+0 1.00000000 0.0000000e+0
vn 0.86602541 -2.5949181e-17 0.49999998
vn 0.0000000e+0 1.00000000 0.0000000e+0
vn 1.00000000 -8.0769409e-15 -1.3550884e-7
vn 0.21004239 0.97014239 -0.12126803
vn 0.21004239 -0.97014239 -0.12126803
vn -0.42849182 1.0159128e-16 -0.90354566
vn 0.20865417 0.97018616 -0.12329746
vn 0.20865417 -0.97018616 -0.12329746
vn -0.21004239 0.97014239 -0.12126801
vn -0.21004239 -0.97014239 -0.12126801
vn 0.42849170 1.0181259e-16 -0.90354572
vn -0.20865416 0.97018616 -0.12329745
vn -0.20865416 -0.97018616 -0.12329745
vn 0.0000000e+0 -1.00000000 0.0000000e+0
vn -1.00000000 -8.0769418e-15 1.3550886e-7
vn 6.3610945e-8 -0.89442685 0.44721428
vn -1.4223818e-7 0.0000000e+0 -1.00000000
vn -1.00000000 2.8560529e-7 -1.4280291e-7
vn 5.1685909e-7 -0.71220482 -0.70197172
vn -0.99766594 -6.8283696e-2 -1.1533598e-7
vn 0.0000000e+0 -1.00000000 0.0000000e+0
vn 1.00000000 -8.0769409e-15 -1.3550884e-7
vn 3.1805494e-8 -0.89442684 0.44721429
vn -7.1119136e-8 -5.9604531e-8 -1.00000000
vn 1.00000000 -2.8560529e-7 1.4280292e-7
vn 5.1685909e-7 -0.71220482 -0.70197172
vn 0.99766595 -6.8283593e-2 1.6960297e-7
vn 0.0000000e+0 1.00000000 0.0000000e+0
vn -1.00000000 -8.0769418e-15 1.3550886e-7
vn 0.0000000e+0 1.00000000 0.0000000e+0
vn -1.4223818e-7 0.0000000e+0 -1.00000000
vn 0.57873658 0.81551455 0.0000000e+0
vn 1.0715043e-7 -7.3517363e-8 -1.00000000
vn 0.0000000e+0 1.00000000 0.0000000e+0
vn 1.00000000 -8.0769409e-15 -1.3550884e-7
vn 0.0000000e+0 1.00000000 0.0000000e+0
vn -7.1119136e-8 -5.9604531e-8 -1.00000000
vn -0.57873662 0.81551452 0.0000000e+0
vn -1.0715052e-7 -7.3517303e-8 -1.00000000
vn 0.0000000e+0 1.00000000 0.0000000e+0
vn 6.3610945e-8 -0.89442685 0.44721428
vn 0.57873658 0.81551455 0.0000000e+0
vn -2.1430085e-7 -4.4901229e-7 1.00000000
vn 0.0000000e+0 0.37139026 0.92847686
vn -1.00000000 2.8560529e-7 -1.4280291e-7
vn 0.0000000e+0 1.00000000 0.0000000e+0
vn 3.1805494e-8 -0.89442684 0.44721429
vn -0.57873662 0.81551452 0.0000000e+0
vn 2.1430105e-7 -4.4901241e-7 1.00000000
vn 1.00000000 -2.8560529e-7 1.4280292e-7
vn 0.0000000e+0 0.37139026 0.92847686
vn 1.00000000 0.0000000e+0 0.0000000e+0
vn 3.1805494e-8 -0.89442684 0.44721429
vn -7.1119136e-8 -5.9604531e-8 -1.00000000
vn 1.00000000 0.0000000e+0 0.0000000e+0
vn -7.1119136e-8 -5.9604531e-8 -1.00000000
vn 1.00000000 0.0000000e+0 0.0000000e+0
vn -1.0715052e-7 -7.3517303e-8 -1.00000000
vn 1.00000000 0.0000000e+0 0.0000000e+0
vn 3.1805494e-8 -0.89442684 0.44721429
vn 1.00000000 0.0000000e+0 0.0000000e+0
vn 2.1430105e-7 -4.4901241e-7 1.00000000
vn -1.00000000 0.0000000e+0 0.0000000e+0
vn 6.3610945e-8 -0.89442685 0.44721428
vn -1.4223818e-7 0.0000000e+0 -1.00000000
vn -1.00000000 0.0000000e+0 0.0000000e+0
vn -1.4223818e-7 0.0000000e+0 -1.00000000
vn -1.00000000 0.0000000e+0 0.0000000e+0
vn 1.0715043e-7 -7.3517363e-8 -1.00000000
vn -1.00000000 0.0000000e+0 0.0000000e+0
vn 6.3610945e-8 -0.89442685 0.44721428
vn -1.00000000 0.0000000e+0 0.0000000e+0
vn -2.1430085e-7 -4.4901229e-7 1.00000000
vn 0.57873658 0.81551455 0.0000000e+0
vn 1.0715043e-7 -7.3517363e-8 -1.00000000
vn 1.00000000 -9.3166166e-8 -4.5849720e-8
vn 1.7641705e-7 -0.58324102 -0.81229915
vn -0.57873662 0.81551452 0.0000000e+0
vn -1.0715052e-7 -7.3517303e-8 -1.00000000
vn -1.00000000 9.3166166e-8 4.5849720e-8
vn -1.7641732e-7 -0.58324102 -0.81229915
vn 0.57873658 0.81551455 0.0000000e+0
vn -2.1430085e-7 -4.4901229e-7 1.00000000
vn 1.00000000 -9.3166166e-8 -4.5849720e-8
vn -5.3600844e-7 0.78696091 0.61700286
vn -0.57873662 0.81551452 0.0000000e+0
vn 2.1430105e-7 -4.4901241e-7 1.00000000
vn -1.00000000 9.3166166e-8 4.5849720e-8
vn 6.7001199e-7 0.78696091 0.61700285
vn 1.00000000 0.0000000e+0 0.0000000e+0
vn -1.0715052e-7 -7.3517303e-8 -1.00000000
vn 1.00000000 2.1966959e-8 4.5849728e-8
vn -1.7641732e-7 -0.58324102 -0.81229915
vn 1.00000000 0.0000000e+0 0.0000000e+0
vn 2.1430105e-7 -4.4901241e-7 1.00000000
vn 6.7001199e-7 0.78696091 0.61700285
vn 1.00000000 2.1966959e-8 4.5849728e-8
vn -1.00000000 0.0000000e+0 0.0000000e+0
vn 1.0715043e-7 -7.3517363e-8 -1.00000000
vn 1.7641705e-7 -0.58324102 -0.81229915
vn -1.00000000 4.7466143e-8 0.0000000e+0
vn -1.00000000 0.0000000e+0 0.0000000e+0
vn -2.1430085e-7 -4.4901229e-7 1.00000000
vn -1.00000000 4.7466143e-8 0.0000000e+0
vn -5.3600844e-7 0.78696091 0.61700286
vn 1.00000000 -9.3166166e-8 -4.5849720e-8
vn 1.7641705e-7 -0.58324102 -0.81229915
vn 1.00000000 9.1908584e-24 -1.9868210e-7
vn 0.0000000e+0 8.4277536e-17 -1.00000000
vn -1.00000000 9.3166166e-8 4.5849720e-8
vn -1.7641732e-7 -0.58324102 -0.81229915
vn -1.00000000 -9.1908584e-24 1.9868210e-7
vn 0.0000000e+0 8.4277646e-17 -1.00000000
vn 1.00000000 -9.3166166e-8 -4.5849720e-8
vn -5.3600844e-7 0.78696091 0.61700286
vn 1.00000000 9.1908584e-24 -1.9868210e-7
vn -8.6872916e-7 0.0000000e+0 1.00000000
vn -1.00000000 9.3166166e-8 4.5849720e-8
vn 6.7001199e-7 0.78696091 0.61700285
vn -1.00000000 -9.1908584e-24 1.9868210e-7
vn 1.3030971e-6 0.0000000e+0 1.00000000
vn 1.00000000 2.1966959e-8 4.5849728e-8
vn -1.7641732e-7 -0.58324102 -0.81229915
vn 1.00000000 -9.1908639e-24 1.9868222e-7
vn 0.0000000e+0 8.4277646e-17 -1.00000000
vn 6.7001199e-7 0.78696091 0.61700285
vn 1.00000000 2.1966959e-8 4.5849728e-8
vn 1.3030971e-6 0.0000000e+0 1.00000000
vn 1.00000000 -9.1908639e-24 1.9868222e-7
vn 1.7641705e-7 -0.58324102 -0.81229915
vn -1.00000000 4.7466143e-8 0.0000000e+0
vn 0.0000000e+0 8.4277536e-17 -1.00000000
vn -1.00000000 0.0000000e+0 0.0000000e+0
vn -1.00000000 4.7466143e-8 0.0000000e+0
vn -5.3600844e-7 0.78696091 0.61700286
vn -1.00000000 0.0000000e+0 0.0000000e+0
vn -8.6872916e-7 0.0000000e+0 1.00000000
vn -0.53757331 9.0074105e-18 0.84321701
vn 0.20865417 0.97018616 -0.12329746
vn 0.20865417 -0.97018616 -0.12329746
vn 0.53757335 8.8968220e-18 0.84321699
vn -0.20865416 0.97018616 -0.12329745
vn -0.20865416 -0.97018616 -0.12329745
vn 0.0000000e+0 0.37139026 0.92847686
vn -1.00000000 2.8560529e-7 -1.4280291e-7
vn 0.0000000e+0 -2.0157844e-7 1.00000000
vn -0.99766594 -6.8283696e-2 -1.1533598e-7
vn 1.00000000 -2.8560529e-7 1.4280292e-7
vn 0.0000000e+0 0.37139026 0.92847686
vn 0.99766595 -6.8283593e-2 1.6960297e-7
vn 0.0000000e+0 -2.0157844e-7 1.00000000
vn 5.1685909e-7 -0.71220482 -0.70197172
vn 0.99766595 -6.8283593e-2 1.6960297e-7
vn 0.0000000e+0 -2.0157844e-7 1.00000000
vn -0.99766594 -6.8283696e-2 -1.1533598e-7
vn 0.0000000e+0 1.00000000 0.0000000e+0
vn 1.00000000 9.1908584e-24 -1.9868210e-7
vn 0.0000000e+0 8.4277536e-17 -1.00000000
vn 0.0000000e+0 1.00000000 0.0000000e+0
vn -1.00000000 -9.1908584e-24 1.9868210e-7
vn 0.0000000e+0 8.4277646e-17 -1.00000000
vn 0.0000000e+0 1.00000000 0.0000000e+0
vn 1.00000000 9.1908584e-24 -1.9868210e-7
vn -8.6872916e-7 0.0000000e+0 1.00000000
vn 0.0000000e+0 1.00000000 0.0000000e+0
vn -1.00000000 -9.1908584e-24 1.9868210e-7
vn 1.3030971e-6 0.0000000e+0 1.00000000
vn 0.0000000e+0 1.00000000 0.0000000e+0
vn 1.00000000 -9.1908639e-24 1.9868222e-7
vn 0.0000000e+0 8.4277646e-17 -1.00000000
vn 0.0000000e+0 1.00000000 0.0000000e+0
vn 1.3030971e-6 0.0000000e+0 1.00000000
vn 1.00000000 -9.1908639e-24 1.9868222e-7
vn 0.0000000e+0 1.00000000 0.0000000e+0
vn 0.0000000e+0 8.4277536e-17 -1.00000000
vn -1.00000000 0.0000000e+0 0.0000000e+0
vn 0.0000000e+0 1.00000000 0.0000000e+0
vn -1.00000000 0.0000000e+0 0.0000000e+0
vn -8.6872916e-7 0.0000000e+0 1.00000000
g Cylinder01_sep4_01 - Default
usemtl 01 - Default
f 1/29/1 6/34/21 5/36/17 4/35/13 3/30/9 2/25/5
f 1/92/3 13/91/56 18/88/71 6/89/23
f 2/82/6 8/83/30 7/86/25 1/87/2
f 2/82/8 14/47/60 20/48/77 8/83/31
f 3/92/11 15/91/62 14/88/59 2/89/7
f 4/87/14 10/86/40 9/83/35 3/82/10
f 4/82/16 16/47/66 22/48/83 10/83/41
f 5/92/19 17/91/68 16/88/65 4/89/15
f 6/87/22 12/86/50 11/83/45 5/82/18
f 6/82/24 18/47/72 24/48/89 12/83/51
f 7/83/26 19/48/74 13/47/57 1/82/4
f 7/24/29 25/23/92 30/28/119 12/31/54
f 8/92/32 20/91/78 21/88/80 9/89/36
f 8/20/33 26/22/97 25/23/91 7/24/28
f 9/83/37 21/48/81 15/47/63 3/82/12
f 9/32/39 27/33/103 26/37/98 8/39/34
f 10/92/42 22/91/84 23/88/86 11/89/46
f 10/24/43 28/23/107 27/22/102 9/20/38
f 11/83/47 23/48/87 17/47/69 5/82/20
f 11/31/49 29/28/114 28/23/108 10/24/44
f 12/92/52 24/91/90 19/88/75 7/89/27
f 12/15/53 30/18/118 29/19/113 11/21/48
f 13/95/55 19/101/73 24/102/88 18/96/70
f 15/95/61 21/101/79 20/102/76 14/96/58
f 17/95/67 23/101/85 22/102/82 16/96/64
f 25/9/93 31/3/124 36/2/146 30/7/120
f 25/85/95 67/105/283 31/84/126
f 26/58/100 37/45/150 25/57/94
f 27/97/104 33/98/133 32/110/129 26/111/99
f 27/97/106 38/77/156 33/98/135
f 28/57/110 38/45/155 27/58/105
f 28/57/112 68/12/288 38/45/158
f 29/7/115 35/2/142 34/3/137 28/9/109
f 29/7/117 39/10/160 41/1/174 35/2/144
f 30/16/121 40/26/166 39/27/159 29/17/116
f 31/57/125 37/45/149 32/58/130
f 31/57/127 67/12/284 37/45/152
f 32/58/128 33/65/132 34/67/136 35/66/141 36/62/145 31/57/123
f 32/98/131 37/77/151 26/97/101
f 33/58/134 38/45/154 34/57/138
f 34/84/139 68/105/286 28/85/111
f 35/66/143 41/63/173 42/60/179 36/62/147
f 36/2/148 42/1/180 40/10/167 30/7/122
f 37/45/153 67/12/285 25/57/96
f 38/45/157 68/12/287 34/57/140
f 39/72/162 48/73/210 49/76/212 41/75/176
f 39/69/163 69/74/290 43/68/190
f 39/69/165 71/90/300 69/74/292
f 40/104/168 45/94/198 47/93/205 44/103/192
f 40/26/171 71/38/297 39/27/164
f 41/63/175 43/64/185 44/61/191 42/60/181
f 41/60/177 51/55/219 53/56/227 43/61/187
f 42/75/182 46/76/201 45/73/199 40/72/169
f 42/75/184 52/78/224 55/79/236 46/76/203
f 43/103/186 50/93/216 48/94/209 39/104/161
f 43/51/188 53/59/228 58/70/248 50/71/218
f 43/50/189 69/43/289 70/42/294 44/49/196
f 44/61/193 54/56/231 52/55/223 42/60/183
f 44/68/195 70/74/293 40/69/170
f 46/46/200 47/53/204 45/54/197
f 46/46/202 55/44/235 56/52/239 47/53/206
f 47/71/207 56/70/240 54/59/232 44/51/194
f 48/54/208 50/53/215 49/46/211
f 49/76/214 57/79/244 51/78/220 41/75/178
f 50/53/217 58/52/247 57/44/243 49/46/213
f 51/44/221 59/6/251 61/11/259 53/52/229
f 52/78/226 60/99/256 63/100/268 55/79/238
f 53/80/230 61/108/260 66/109/280 58/81/250
f 54/52/233 62/11/263 60/6/255 52/44/225
f 55/44/237 63/6/267 64/11/272 56/52/242
f 56/80/241 64/108/271 62/109/264 54/81/234
f 57/79/245 65/100/275 59/99/252 51/78/222
f 58/52/249 66/11/279 65/6/276 57/44/246
f 59/6/253 72/4/302 74/5/308 61/11/261
f 60/99/258 73/106/306 76/107/315 63/100/270
f 61/13/262 74/40/309 79/41/324 66/14/282
f 62/11/265 75/5/311 73/4/305 60/6/257
f 63/6/269 76/4/314 77/5/318 64/11/274
f 64/13/273 77/40/317 75/41/312 62/14/266
f 65/100/277 78/107/320 72/106/303 59/99/254
f 66/11/281 79/5/323 78/4/321 65/6/278
f 69/43/291 71/8/299 70/42/296
f 70/74/295 71/90/298 40/69/172
f 72/40/301 78/41/319 79/14/322 74/13/307
f 75/14/310 77/13/316 76/40/313 73/41/304
