# Exported from Wings 3D 0.99.04a
mtllib stock.mtl
o cube1_sep9
#32 vertices, 26 faces
v -0.33422027 4.98781943 -0.77309876
v -0.33422027 4.53629989 -0.32157923
v -0.33422027 4.53629989 0.31696582
v -0.33422027 4.98781943 0.76848535
v -0.33422027 5.62636447 0.76848535
v -0.33422027 6.07788400 0.31696582
v -0.33422027 6.07788400 -0.32157923
v -0.33422027 5.62636447 -0.77309876
v -0.95566415 5.10339608 -0.49407204
v -0.95566415 4.81532662 -0.20600257
v -0.95566415 4.81532662 0.20138917
v -0.95566415 5.10339608 0.48945863
v -0.95566415 5.51078782 0.48945863
v -0.95566415 5.79885728 0.20138917
v -0.95566415 5.79885728 -0.20600257
v -0.95566415 5.51078782 -0.49407204
v -1.22020663 5.38123725 -0.18130929
v -1.22020663 5.23294665 -0.18130929
v -1.22020663 5.12808937 -7.6452001e-2
v -1.22020663 5.12808937 7.1838592e-2
v -1.22020663 5.23294665 0.17669588
v -1.22020663 5.38123725 0.17669588
v -1.22020663 5.48609453 7.1838592e-2
v -1.22020663 5.48609453 -7.6452001e-2
v 0.96634128 5.08807100 -0.53107005
v 0.96634128 5.52611290 -0.53107005
v 0.96634128 5.83585530 -0.22132766
v 0.96634128 5.83585530 0.21671425
v 0.96634128 5.52611290 0.52645665
v 0.96634128 5.08807100 0.52645665
v 0.96634128 4.77832860 0.21671425
v 0.96634128 4.77832860 -0.22132766
vt 0.50190766 0.22427834
vt 0.50190766 0.22427834
vt 0.50190766 0.22427834
vt 0.50190766 0.22427834
vt 0.50190766 0.33998703
vt 0.50190766 0.33998703
vt 0.50190766 0.33998703
vt 0.50190766 0.22427834
vt 0.67100985 7.4005894e-2
vt 0.67100985 0.13941979
vt 0.68441178 7.8672624e-2
vt 0.68441178 0.13268386
vt 0.71726446 2.7751285e-2
vt 0.71726446 0.18567440
vt 0.72260349 0.17087557
vt 0.72260349 4.0480914e-2
vt 0.74162431 0.24244460
vt 0.74162431 0.32182077
vt 0.74162431 0.32182077
vt 0.74162431 0.24244460
vt 0.74162431 0.24244460
vt 0.74162431 0.24244460
vt 0.74162431 0.24244460
vt 0.74162431 0.24244460
vt 0.74162431 0.24244460
vt 0.74162431 0.32182077
vt 0.74162431 0.32182077
vt 0.74162431 0.32182077
vt 0.74162431 0.32182077
vt 0.74162431 0.32182077
vt 0.77661473 0.17087557
vt 0.77661473 4.0480914e-2
vt 0.78267835 2.7751285e-2
vt 0.78267835 0.18567440
vt 0.81480644 7.8672624e-2
vt 0.81480644 0.13268386
vt 0.82893296 7.4005894e-2
vt 0.82893296 0.13941979
vt 0.83679239 3.7988203e-2
vt 0.83679239 3.7988203e-2
vt 0.83679239 3.7988203e-2
vt 0.83679239 3.7988203e-2
vt 0.83679239 3.7988203e-2
vt 0.83679239 0.11181035
vt 0.83679239 0.11181035
vt 0.83679239 0.11181035
vt 0.83679239 0.11181035
vt 0.83679239 0.11181035
vt 0.83679239 0.11181035
vt 0.83679239 0.11181035
vt 0.83679239 0.11181035
vt 0.88377608 0.14212229
vt 0.88377609 0.14215448
vt 0.88377609 0.14215448
vt 0.88377619 0.14206090
vt 0.88377622 0.14205214
vt 0.90704429 0.21634659
vt 0.90707019 0.21634721
vt 0.90725152 0.21635147
vt 0.90730062 0.21636811
vt 0.90730062 0.21636811
vt 0.90730062 0.21636811
vt 0.93391544 0.21642162
vt 0.93394137 0.21641287
vt 0.93412278 0.21635147
vt 0.93412278 0.21635147
vt 0.93417188 0.21635034
vt 0.93417188 0.21635034
vt 0.95759808 0.14225829
vt 0.95759812 0.14224128
vt 0.95759822 0.14210565
vt 0.95759822 0.14210565
vt 0.95759823 0.14212229
vt 0.96023244 1.7044930e-2
vt 0.96023244 1.7044930e-2
vt 0.96023244 1.7044930e-2
vt 0.96023244 1.7044930e-2
vt 0.96023244 0.13275362
vt 0.96023244 0.13275362
vt 0.96023244 0.13275362
vt 0.96023244 1.7044930e-2
vt 0.96023244 1.7044930e-2
vt 0.96023244 0.13275362
vt 0.96023244 0.13275362
vn -0.12836136 -0.37951767 -0.91623671
vn -0.12836136 -0.91623671 -0.37951767
vn -0.12836136 -0.91623671 0.37951767
vn -0.12836136 -0.37951767 0.91623671
vn -0.12836136 0.37951767 0.91623671
vn -0.12836136 0.91623671 0.37951767
vn -0.12836136 0.91623671 -0.37951767
vn -0.12836136 0.37951767 -0.91623671
vn -0.63174466 -0.29664722 -0.71616975
vn -0.63174466 -0.71616975 -0.29664722
vn -0.63174466 -0.71616975 0.29664722
vn -0.63174466 -0.29664722 0.71616975
vn -0.63174466 0.29664722 0.71616975
vn -0.63174466 0.71616975 0.29664722
vn -0.63174466 0.71616975 -0.29664722
vn -0.63174466 0.29664722 -0.71616975
vn -0.90425419 0.16340375 -0.39449155
vn -0.90425419 -0.16340375 -0.39449155
vn -0.90425419 -0.39449155 -0.16340375
vn -0.90425419 -0.39449155 0.16340375
vn -0.90425419 -0.16340375 0.39449155
vn -0.90425419 0.16340375 0.39449155
vn -0.90425419 0.39449155 0.16340375
vn -0.90425419 0.39449155 -0.16340375
vn 0.60097961 -0.30586523 -0.73842398
vn 0.60097961 0.30586523 -0.73842398
vn 0.60097961 0.73842398 -0.30586523
vn 0.60097961 0.73842398 0.30586523
vn 0.60097961 0.30586523 0.73842398
vn 0.60097961 -0.30586523 0.73842398
vn 0.60097961 -0.73842398 0.30586523
vn 0.60097961 -0.73842398 -0.30586523
g cube1_sep9_cube1_sep2_auv
usemtl cube1_sep2_auv
f 1/79/1 2/75/2 10/40/10 9/47/9
f 1/75/1 9/39/9 16/49/16 8/80/8
f 1/6/1 25/19/25 32/24/32 2/2/2
f 2/79/2 3/76/3 11/43/11 10/48/10
f 2/6/2 32/27/32 31/22/31 3/3/3
f 3/75/3 4/79/4 12/46/12 11/41/11
f 3/2/3 31/23/31 30/28/30 4/6/4
f 4/74/4 5/80/5 13/44/13 12/39/12
f 4/1/4 30/21/30 29/30/29 5/7/5
f 5/82/5 6/83/6 14/50/14 13/42/13
f 5/4/5 29/25/29 28/29/28 6/5/6
f 6/81/6 7/84/7 15/51/15 14/42/14
f 6/8/6 28/17/28 27/18/27 7/6/7
f 7/77/7 8/78/8 16/45/16 15/42/15
f 7/4/7 27/20/27 26/26/26 8/5/8
f 8/7/8 26/29/26 25/20/25 1/1/1
f 9/69/9 18/63/18 17/57/17 16/56/16
f 10/53/10 19/62/19 18/67/18 9/72/9
f 11/73/11 20/66/20 19/59/19 10/52/10
f 12/72/12 21/68/21 20/60/20 11/53/11
f 13/70/13 22/64/22 21/58/21 12/55/12
f 14/53/14 23/62/23 22/67/22 13/72/13
f 15/52/15 24/59/24 23/65/23 14/73/14
f 16/71/16 17/68/17 24/61/24 15/54/15
f 18/11/18 19/16/19 20/32/20 21/35/21 22/36/22 23/31/23 24/15/24 17/12/17
f 26/38/26 27/34/27 28/14/28 29/10/29 30/9/30 31/13/31 32/33/32 25/37/25
