# Exported from Wings 3D 0.99.04a
mtllib turret.mtl
o cube1_sep5
#34 vertices, 33 faces
v -0.95626000 3.79922794 0.63808925
v 0.95626000 3.79922794 0.63808925
v 0.95626000 3.79922794 -0.63808925
v -0.95626000 3.79922794 -0.63808925
v -0.87748000 3.65438319 0.0000000e+0
v 0.87748000 3.65438319 0.0000000e+0
v 0.55050000 4.53653684 1.22030260
v -0.55050000 4.53653684 1.22030260
v -0.55050000 4.48859770 1.65477760
v 0.55050000 4.48859770 1.65477760
v -0.55050000 4.53653684 -1.22030260
v 0.55050000 4.53653684 -1.22030260
v 0.55050000 4.48859770 -1.65477760
v -0.55050000 4.48859770 -1.65477760
v 0.60237000 5.66165481 1.16815651
v -0.60237000 5.66165481 1.16815651
v -0.62928000 5.75753310 1.51624085
v 0.62928000 5.75753310 1.51624085
v -0.60237000 5.66165481 -1.16815651
v 0.60237000 5.66165481 -1.16815651
v 0.62928000 5.75753310 -1.51624085
v -0.62928000 5.75753310 -1.51624085
v 0.60237000 4.99419445 -1.20091651
v -0.60237000 4.99419445 -1.20091651
v -0.60237000 4.99419445 1.20091651
v 0.60237000 4.99419445 1.20091651
v 0.0000000e+0 5.25601592 -0.58761726
v 0.0000000e+0 5.25601592 0.58761726
v 1.01840000 2.33370197 0.93130000
v -1.01840000 2.33370197 0.93130000
v -0.84420000 2.33370197 0.0000000e+0
v -1.01840000 2.33370197 -0.93130000
v 1.01840000 2.33370197 -0.93130000
v 0.84420000 2.33370197 0.0000000e+0
vt -1.8720000e-3 -0.24585600
vt -1.8720000e-3 -3.1669880e-2
vt 1.8159795e-2 -0.13876294
vt 0.21231412 -0.13876294
vt 0.23234592 -0.24585600
vt 0.23234592 -3.1669880e-2
vt 0.30041095 0.52218047
vt 0.30041095 0.52218047
vt 0.30041910 0.52211896
vt 0.37060571 0.58743809
vt 0.37060571 0.58743809
vt 0.37061569 0.58748012
vt 0.37061569 0.58748012
vt 0.46293571 0.68418776
vt 0.46298354 0.68418708
vt 0.47839259 0.40064838
vt 0.48148705 0.35913040
vt 0.52524933 0.98738643
vt 0.52541059 0.98734196
vt 0.58414076 0.51825167
vt 0.58414076 0.51825167
vt 0.58414999 0.51826891
vt 0.62002382 0.35913040
vt 0.62311828 0.40064838
vt 0.63047260 0.33811374
vt 0.63047260 0.33843421
vt 0.65824049 0.95721062
vt 0.65841845 0.95724406
vt 0.65898300 0.68388148
vt 0.65903209 0.68384676
vt 0.68320680 0.64822638
vt 0.68320680 0.64822638
vt 0.69900907 0.79428320
vt 0.69900907 0.79428320
vt 0.69974098 0.54565432
vt 0.69974098 0.54597479
vt 0.69974098 0.54565432
vt 0.70855826 0.59189017
vt 0.70856946 0.59183839
vt 0.70856946 0.59183839
vt 0.71089997 0.80570173
vt 0.71804564 0.97756692
vt 0.72533770 0.61424747
vt 0.73312041 0.65368799
vt 0.73312041 0.65368799
vt 0.73372720 0.63541795
vt 0.73535794 0.70659577
vt 0.73911283 0.78326811
vt 0.73911283 0.78326811
vt 0.75447889 0.22972915
vt 0.76636607 0.39902434
vt 0.76900937 0.33811374
vt 0.76900937 0.33811374
vt 0.76900937 0.33843421
vt 0.78038679 0.77667168
vt 0.78038679 0.77667168
vt 0.79207933 0.40288191
vt 0.79207933 0.40288191
vt 0.80218278 0.61455959
vt 0.81377600 0.61940785
vt 0.82028455 0.46429942
vt 0.82283516 0.47262200
vt 0.82624924 0.41162476
vt 0.90699418 0.77667168
vt 0.91868671 0.40288191
vt 0.91868671 0.40288191
vt 0.93797222 0.97756692
vt 0.93797222 0.97756692
vt 0.94511789 0.80570173
vt 0.94944255 0.47262200
vt 0.95285663 0.41162476
vt 0.95365377 0.63541795
vt 0.95628715 0.22972915
vt 0.95850170 0.61940785
vt 0.95882132 0.46429942
vn -0.81854417 -4.2004903e-2 0.57290577
vn 0.81854417 -4.2004903e-2 0.57290577
vn 0.81854417 -4.2004903e-2 -0.57290577
vn -0.81854417 -4.2004903e-2 -0.57290577
vn -0.80326757 0.59561834 -1.8387945e-17
vn 0.80326757 0.59561834 3.6775890e-17
vn 0.65589122 0.45071965 -0.60552333
vn -0.65589122 0.45071965 -0.60552333
vn -0.77980404 -9.7925736e-2 0.61831724
vn 0.77980404 -9.7925736e-2 0.61831724
vn -0.65589122 0.45071965 0.60552333
vn 0.65589122 0.45071965 0.60552333
vn 0.77980404 -9.7925736e-2 -0.61831724
vn -0.77980404 -9.7925736e-2 -0.61831724
vn 0.69119500 0.66350611 -0.28637234
vn -0.69119500 0.66350611 -0.28637234
vn -0.62265866 0.63445037 0.45800538
vn 0.62265866 0.63445037 0.45800538
vn -0.69119500 0.66350611 0.28637234
vn 0.69119500 0.66350611 0.28637234
vn 0.62265866 0.63445037 -0.45800538
vn -0.62265866 0.63445037 -0.45800538
vn 0.72853409 -0.41300473 0.54650268
vn -0.72853409 -0.41300473 0.54650268
vn -0.72853409 -0.41300473 -0.54650268
vn 0.72853409 -0.41300473 -0.54650268
vn 0.0000000e+0 -4.6031406e-2 -0.99893999
vn 0.0000000e+0 -4.6031406e-2 0.99893999
vn 0.65002790 -0.53346113 0.54118661
vn -0.65002790 -0.53346113 0.54118661
vn -0.88976740 -0.45641426 0.0000000e+0
vn -0.65002790 -0.53346113 -0.54118661
vn 0.65002790 -0.53346113 -0.54118661
vn 0.88976740 -0.45641426 0.0000000e+0
g cube1_sep5_cube12_sep14_auv
usemtl cube12_sep14_auv
f 1/22/1 9/9/9 8/10/8 5/38/5
f 1/42/1 30/41/30 29/69/29 2/68/2
f 2/46/2 10/55/10 9/64/9 1/72/1
f 2/18/2 29/15/29 34/30/34 6/27/6
f 3/22/3 13/9/13 12/11/12 6/38/6
f 3/42/3 33/41/33 32/69/32 4/67/4
f 4/72/4 14/64/14 13/56/13 3/46/3
f 4/18/4 32/15/32 31/30/31 5/27/5
f 5/50/5 8/58/8 7/65/7 6/73/6
f 5/40/5 11/13/11 14/8/14 4/21/4
f 5/28/5 31/29/31 30/14/30 1/19/1
f 6/39/6 7/12/7 10/7/10 2/20/2
f 6/73/6 12/66/12 11/57/11 5/50/5
f 6/28/6 34/29/34 33/14/33 3/19/3
f 7/45/7 26/47/26 15/49/15 18/33/18 10/32/10
f 8/71/8 25/75/25 26/61/26 7/63/7
f 9/31/9 17/34/17 16/49/16 25/47/25 8/45/8
f 10/70/10 18/74/18 17/60/17 9/62/9
f 11/44/11 24/47/24 19/48/19 22/33/22 14/31/14
f 12/71/12 23/75/23 24/61/24 11/63/11
f 13/31/13 21/33/21 20/49/20 23/47/23 12/45/12
f 14/70/14 22/74/22 21/60/21 13/62/13
f 15/54/15 27/37/27 16/26/16
f 16/17/16 17/16/17 18/24/18 15/23/15
f 16/59/16 27/51/27 25/43/25
f 19/26/19 28/35/28 20/54/20
f 20/23/20 21/24/21 22/16/22 19/17/19
f 20/59/20 28/51/28 23/43/23
f 23/25/23 28/36/28 24/52/24
f 24/43/24 28/51/28 19/59/19
f 25/53/25 27/36/27 26/25/26
f 26/43/26 27/51/27 15/59/15
f 30/5/30 31/4/31 32/6/32 33/2/33 34/3/34 29/1/29
o cube1_sep2
#16 vertices, 10 faces
v 1.59499761 2.60834116 0.49744975
v 1.59499761 2.60834116 -0.49744975
v 1.59499761 2.19860650 0.49744975
v 1.59499761 2.19860650 -0.49744975
v -1.59499761 2.60834116 0.49744975
v -1.59499761 2.60834116 -0.49744975
v -1.59499761 2.19860650 0.49744975
v -1.59499761 2.19860650 -0.49744975
v 0.49744975 2.60834116 1.59499761
v 0.49744975 2.60834116 -1.59499761
v 0.49744975 2.19860650 1.59499761
v 0.49744975 2.19860650 -1.59499761
v -0.49744975 2.60834116 1.59499761
v -0.49744975 2.60834116 -1.59499761
v -0.49744975 2.19860650 1.59499761
v -0.49744975 2.19860650 -1.59499761
vt 1.5689237e-2 0.70046296
vt 1.5689237e-2 0.70046296
vt 1.5689237e-2 0.83595288
vt 0.16515828 0.55099392
vt 0.16515828 0.55099392
vt 0.16515828 0.98542192
vt 0.16515828 0.98542192
vt 0.28920389 0.43640839
vt 0.28920389 0.43640839
vt 0.28920389 0.50063022
vt 0.28920389 0.50063022
vt 0.30064820 0.55099392
vt 0.30064820 0.55099392
vt 0.30064820 0.98542192
vt 0.30064820 0.98542192
vt 0.31192735 0.35721081
vt 0.31192735 0.35721081
vt 0.31192735 0.42143264
vt 0.31192735 0.42143264
vt 0.31192735 0.42143264
vt 0.45011724 0.70046296
vt 0.45011724 0.83595288
vt 0.45011724 0.70046296
vt 0.45011724 0.83595288
vt 0.46786794 0.35721081
vt 0.46786794 0.35721081
vt 0.46786794 0.35721081
vt 0.46786794 0.42143264
vt 0.53249063 0.43640839
vt 0.53249063 0.50063022
vt 0.53249063 0.43640839
vt 0.53249063 0.50063022
vn 0.81251992 0.47596315 0.33655677
vn 0.81251992 0.47596315 -0.33655677
vn 0.81251992 -0.47596315 0.33655677
vn 0.81251992 -0.47596315 -0.33655677
vn -0.81251992 0.47596315 0.33655677
vn -0.81251992 0.47596315 -0.33655677
vn -0.81251992 -0.47596315 0.33655677
vn -0.81251992 -0.47596315 -0.33655677
vn 0.33655677 0.47596315 0.81251992
vn 0.33655677 0.47596315 -0.81251992
vn 0.33655677 -0.47596315 0.81251992
vn 0.33655677 -0.47596315 -0.81251992
vn -0.33655677 0.47596315 0.81251992
vn -0.33655677 0.47596315 -0.81251992
vn -0.33655677 -0.47596315 0.81251992
vn -0.33655677 -0.47596315 -0.81251992
g cube1_sep2_cube12_auv
usemtl cube12_auv
f 35/94/35 37/91/37 38/102/38 36/103/36
f 35/105/35 43/85/43 45/83/45 37/106/37
f 36/97/36 44/89/44 48/81/48 40/78/40 39/77/39 47/80/47 43/88/43 35/96/35
f 37/76/37 45/79/45 49/87/49 41/98/41 42/99/42 50/90/50 46/82/46 38/78/38
f 38/84/38 46/104/46 44/107/44 36/86/36
f 40/95/40 42/92/42 41/100/41 39/103/39
f 40/105/40 48/85/48 50/83/50 42/106/42
f 41/84/41 49/104/49 47/107/47 39/86/39
f 43/103/43 47/95/47 49/92/49 45/100/45
f 46/91/46 50/101/50 48/103/48 44/93/44
