# Exported from Wings 3D 1.0.1
mtllib base.mtl
o Box02_sep11
#78 vertices, 103 faces
v 7.50000000 -3.0616170e-17 0.50000000
v 8.50000000 -3.0616170e-17 0.50000000
v 7.50000000 3.0616170e-17 -0.50000000
v 8.50000000 3.0616170e-17 -0.50000000
v 7.50000000 1.00000000 0.50000000
v 8.50000000 1.00000000 0.50000000
v 7.50000000 1.00000000 -0.50000000
v 8.50000000 1.00000000 -0.50000000
v 7.50000000 -9.1848510e-17 1.50000000
v 8.50000000 -9.1848510e-17 1.50000000
v 7.50000000 1.00000000 1.50000000
v 8.50000000 1.00000000 1.50000000
v 7.50000000 -1.5308085e-16 2.50000000
v 8.50000000 -1.5308085e-16 2.50000000
v 7.50000000 1.00000000 2.50000000
v 8.50000000 1.00000000 2.50000000
v 7.50000000 9.1848510e-17 -1.50000000
v 8.50000000 9.1848510e-17 -1.50000000
v 7.50000000 1.00000000 -1.50000000
v 8.50000000 1.00000000 -1.50000000
v 7.59999990 9.9999994e-2 -2.00609183
v 8.39999962 9.9999994e-2 -2.00609183
v 7.59999990 0.89999998 -2.00609183
v 8.39999962 0.89999998 -2.00609183
v 6.50000000 0.30000001 0.50000000
v 9.50000000 0.30000001 0.50000000
v 6.50000000 0.30000001 0.23822713
v 9.50000000 0.30000001 0.23822713
v 6.50000000 0.69999993 0.50000000
v 9.50000000 0.69999993 0.50000000
v 6.50000000 0.69999993 0.23822713
v 9.50000000 0.69999993 0.23822713
v 6.50000000 0.30000001 1.50000000
v 9.50000000 0.30000001 1.50000000
v 6.50000000 0.69999993 1.50000000
v 9.50000000 0.69999993 1.50000000
v 6.50000000 0.30000001 2.20000029
v 9.50000000 0.30000001 2.20000029
v 6.50000000 0.69999993 2.20000029
v 9.50000000 0.69999993 2.20000029
v 7.80000019 1.25000000 0.80000025
v 8.19999981 1.25000000 0.80000025
v 7.80000019 1.25000000 1.50000012
v 8.19999981 1.25000000 1.50000012
v 7.80000019 1.49999976 2.50000000
v 8.19999981 1.49999976 2.50000000
v 7.50000000 2.0728983e-8 3.02577615
v 8.50000000 2.0728983e-8 3.02577615
v 7.65000010 1.15823257 3.35899639
v 8.35000038 1.15823257 3.35899639
v 7.27168703 0.62887228 3.50000000
v 8.72831345 0.62887228 3.50000000
v 7.38584375 0.31443620 3.78964233
v 8.61415672 0.31443620 3.78964233
v 8.00000000 1.15823257 3.85107279
v 8.00000000 0.74846214 4.48253345
v 8.00000000 1.52375591 3.22066140
v 8.00000000 0.26270047 4.08626699
v 8.34297657 1.00782847 3.66976023
v 7.65702343 1.00782835 3.66976070
v 7.57640505 1.81029916 1.92215014
v 8.42359447 1.81029916 1.92215014
v 7.66766787 2.26417184 -0.29747593
v 8.33233166 2.26417184 -0.29747593
v 7.90000010 -0.24999994 0.50000006
v 8.10000038 -0.24999994 0.50000006
v 7.90000010 -0.24999994 -0.49999994
v 8.10000038 -0.24999994 -0.49999991
v 7.90000010 -0.24999997 1.50000000
v 8.10000038 -0.24999997 1.50000000
v 7.90000010 -0.24999994 2.50000000
v 8.10000038 -0.24999994 2.50000000
v 7.90000010 -0.24999994 -1.09999990
v 8.10000038 -0.24999994 -1.09999990
v 7.90000010 -0.24999991 2.62577653
v 8.10000038 -0.24999991 2.62577653
v 7.11217165 0.50000000 -2.26793408
v 8.88782883 0.50000000 -2.26793408
vt 1.7488457e-2 0.37123212
vt 1.7488690e-2 0.24001618
vt 2.1390941e-2 0.39719564
vt 2.8918190e-2 0.19071452
vt 6.3231587e-2 2.0340554e-2
vt 6.3231587e-2 0.12678653
vt 7.3320173e-2 0.39719486
vt 0.11219287 0.47767714
vt 0.12955295 7.2359168e-3
vt 0.12955295 0.13989118
vt 0.13013203 0.20836113
vt 0.14638971 0.23871931
vt 0.16282783 0.50362128
vt 0.18197137 5.9654344e-2
vt 0.18197137 8.7472685e-2
vt 0.19405925 0.26078054
vt 0.19406079 0.15594366
vt 0.21229246 0.33006078
vt 0.21229440 0.46271598
vt 0.24409316 0.56775469
vt 0.24702448 0.30424231
vt 0.26059902 5.9654344e-2
vt 0.26059902 8.7472685e-2
vt 0.26059902 0.13989118
vt 0.26755717 0.44891831
vt 0.27252343 0.60812867
vt 0.28324839 0.53967994
vt 0.29853785 0.26078203
vt 0.29853937 0.15594520
vt 0.30550417 0.49007183
vt 0.32398170 0.55944258
vt 0.32725686 0.21967719
vt 0.32725686 0.27209553
vt 0.36765000 0.40766099
vt 0.39164516 5.9654344e-2
vt 0.39164516 8.7472685e-2
vt 0.39164516 0.13989118
vt 0.41898915 0.21967719
vt 0.41898915 0.27209553
vt 0.43654951 0.60423058
vt 0.43654999 0.53870749
vt 0.43655092 0.40766144
vt 0.45377457 0.52163947
vt 0.45377573 0.39042348
vt 0.50807655 0.74103010
vt 0.50807679 0.77379161
vt 0.51227415 0.64489460
vt 0.52269125 5.9654344e-2
vt 0.52269125 8.7472685e-2
vt 0.52269125 0.13989118
vt 0.55003518 0.21967719
vt 0.55003518 0.27209553
vt 0.55116087 0.48215693
vt 0.55116147 0.42973864
vt 0.56339729 0.66760486
vt 0.56759608 0.53870851
vt 0.58433950 0.21967719
vt 0.58433950 0.27209553
vt 0.63912249 0.70826757
vt 0.65373737 5.9654344e-2
vt 0.65373737 8.7472685e-2
vt 0.65373737 0.13989118
vt 0.67021984 5.9654344e-2
vt 0.67021984 8.7472685e-2
vt 0.67166287 0.58141989
vt 0.67166322 0.54038292
vt 0.67166430 0.38361764
vt 0.67166513 0.27388170
vt 0.72263825 7.2359168e-3
vt 0.72263825 0.13989118
vt 0.76339179 0.97344196
vt 0.78840160 6.9229297e-2
vt 0.80314714 0.70437497
vt 0.82661879 0.69714952
vt 0.82762206 0.54021251
vt 0.82762295 0.38344708
vt 0.82762420 0.22668163
vt 0.82780766 0.85305655
vt 0.83986652 0.93239439
vt 0.84770781 9.1334000e-2
vt 0.84880894 4.2616975e-2
vt 0.87122130 0.49249619
vt 0.87122160 0.38276047
vt 0.87122232 0.22599506
vt 0.90257561 0.11302040
vt 0.90257597 1.4193594e-2
vt 0.93372244 0.49249643
vt 0.93372279 0.38276067
vt 0.93372351 0.22599529
vt 0.96507400 0.93239474
vt 0.98075086 0.85305715
vt 0.98075145 0.69810021
vt 0.98075205 0.53952622
vn -0.41234625 -0.91102720 -3.1874320e-9
vn 0.41234650 -0.91102709 -3.1874310e-9
vn -0.74506667 -0.65636179 -0.11859538
vn 0.74506672 -0.65636173 -0.11859533
vn -0.26075597 0.95557622 -0.13740601
vn 0.26075597 0.95557622 -0.13740601
vn -0.59051395 0.79622235 -0.13161778
vn 0.59051384 0.79622244 -0.13161773
vn -0.41234626 -0.91102720 -9.4992877e-17
vn 0.41234650 -0.91102709 -9.4992848e-17
vn -0.76165473 0.63455496 -0.13123294
vn 0.76165457 0.63455517 -0.13123285
vn -0.75487745 -0.63695457 0.15636147
vn 0.75487751 -0.63695453 0.15636136
vn -0.86105662 0.45151386 0.23391609
vn 0.86105664 0.45151397 0.23391578
vn -0.40046964 -0.89084740 -0.21451101
vn 0.40046944 -0.89084747 -0.21451108
vn -0.35711609 0.92574349 -0.12436673
vn 0.35711571 0.92574363 -0.12436682
vn -1.7038143e-2 -0.60806653 -0.79370322
vn 1.7038082e-2 -0.60806649 -0.79370325
vn -1.7038124e-2 0.60806651 -0.79370323
vn 1.7038063e-2 0.60806648 -0.79370326
vn -0.80229293 -0.59693053 -1.7297660e-16
vn 0.80229293 -0.59693053 1.7297660e-16
vn -0.83272466 -0.42397212 -0.35611414
vn 0.83272466 -0.42397212 -0.35611414
vn -0.80229295 0.59693050 -1.0670400e-16
vn 0.80229295 0.59693050 1.7297660e-16
vn -0.83272467 0.42397211 -0.35611414
vn 0.83272467 0.42397211 -0.35611414
vn -0.80229293 -0.59693053 -1.7297660e-16
vn 0.80229293 -0.59693053 1.7297660e-16
vn -0.80229295 0.59693050 -1.0670400e-16
vn 0.80229295 0.59693050 1.7297660e-16
vn -0.75810598 -0.46112650 0.46112653
vn 0.75810598 -0.46112650 0.46112653
vn -0.75810599 0.46112648 0.46112653
vn 0.75810599 0.46112648 0.46112653
vn -0.23770573 0.94180252 -0.23770571
vn 0.23770573 0.94180252 -0.23770571
vn 0.52639921 0.82569296 -0.20281766
vn -0.52639953 0.82569276 -0.20281766
vn -0.31906285 0.94416652 8.2149112e-2
vn 0.31906275 0.94416657 8.2148920e-2
vn -0.51585931 -0.82902591 0.21588241
vn 0.51585924 -0.82902599 0.21588229
vn -0.71331106 0.66193079 0.23029319
vn 0.71331094 0.66193084 0.23029343
vn -0.97393812 0.16977815 0.15039917
vn 0.97393811 0.16977811 0.15039930
vn -0.77718950 -0.12695749 0.61632644
vn 0.77718956 -0.12695723 0.61632641
vn 7.1704608e-8 0.77826142 0.62794041
vn -2.3632872e-7 -4.3404223e-2 0.99905759
vn -2.3670222e-7 0.96019954 0.27931497
vn -1.0366424e-7 -0.86025940 0.50985662
vn 0.64097946 0.53948285 0.54598863
vn -0.64097969 0.53948279 0.54598842
vn -0.51658412 0.80657170 0.28737247
vn 0.51658397 0.80657182 0.28737239
vn 0.76003910 -0.40991290 -0.50429354
vn -0.76003928 -0.40991298 -0.50429320
vn -0.27568242 -0.96124877 -1.1037332e-8
vn 0.27568267 -0.96124870 -1.1037331e-8
vn -0.27568241 -0.96124878 -2.6468290e-17
vn 0.27568267 -0.96124870 -2.6468292e-17
vn -0.27568242 -0.96124877 -5.9602722e-16
vn 0.27568268 -0.96124870 -5.9602723e-16
vn -0.27568241 -0.96124878 8.9766510e-8
vn 0.27568267 -0.96124870 8.9766510e-8
vn -0.18940373 -0.96345859 -0.18940373
vn 0.18940390 -0.96345855 -0.18940374
vn -0.18940373 -0.96345854 0.18940400
vn 0.18940390 -0.96345850 0.18940402
vn -0.93435771 6.4094932e-9 -0.35633645
vn 0.93435755 6.4094682e-9 -0.35633688
g Box02_sep11_01 - Default
usemtl 01 - Default
f 1/75/1 25/66/25 27/65/27 3/74/3
f 1/37/1 65/36/65 69/49/69 9/50/9
f 2/75/2 26/66/26 34/67/34 10/76/10
f 2/37/2 66/36/66 68/23/68 4/24/4
f 3/44/3 27/54/27 31/53/31 7/43/7
f 3/24/3 67/23/67 65/36/65 1/37/1
f 3/2/3 77/21/77 17/12/17
f 4/74/4 28/65/28 26/66/26 2/75/2
f 4/24/4 68/23/68 74/15/74 18/10/18
f 4/1/4 78/21/78 8/2/8
f 5/75/5 29/66/29 35/67/35 11/76/11
f 5/75/5 41/82/41 42/87/42 6/93/6
f 6/93/6 8/92/8 7/74/7 5/75/5
f 6/75/6 30/66/30 32/65/32 8/74/8
f 6/75/6 42/82/42 44/83/44 12/76/12
f 7/74/7 31/65/31 29/66/29 5/75/5
f 7/2/7 77/21/77 3/1/3
f 8/92/8 20/91/20 19/78/19 7/74/7
f 8/43/8 32/53/32 28/54/28 4/44/4
f 8/2/8 78/21/78 20/12/20
f 9/76/9 33/67/33 25/66/25 1/75/1
f 9/50/9 69/49/69 71/61/71 13/62/13
f 10/76/10 34/67/34 38/68/38 14/77/14
f 10/50/10 70/49/70 66/36/66 2/37/2
f 11/76/11 35/67/35 39/68/39 15/77/15
f 11/76/11 43/83/43 41/82/41 5/75/5
f 11/46/11 63/26/63 43/45/43
f 12/76/12 36/67/36 30/66/30 6/75/6
f 12/56/12 62/47/62 16/41/16
f 12/56/12 64/73/64 62/47/62
f 13/77/13 37/68/37 33/67/33 9/76/9
f 13/42/13 51/30/51 15/41/15
f 13/62/13 71/61/71 75/64/75 47/70/47
f 14/44/14 38/54/38 40/53/40 16/43/16
f 14/42/14 52/30/52 48/34/48
f 14/62/14 72/61/72 70/49/70 10/50/10
f 15/44/15 39/54/39 37/53/37 13/43/13
f 15/41/15 49/31/49 45/40/45
f 15/77/15 51/72/51 49/80/49
f 15/41/15 61/47/61 11/56/11
f 16/77/16 40/68/40 36/67/36 12/76/12
f 16/41/16 52/30/52 14/42/14
f 16/41/16 62/47/62 46/40/46
f 17/9/17 21/5/21 22/6/22 18/10/18
f 17/10/17 73/15/73 67/23/67 3/24/3
f 17/10/17 77/4/77 21/6/21
f 18/10/18 74/15/74 73/14/73 17/9/17
f 18/12/18 78/21/78 4/2/4
f 19/12/19 77/21/77 7/2/7
f 20/91/20 24/90/24 23/79/23 19/78/19
f 20/78/20 78/71/78 24/79/24
f 21/16/21 23/17/23 24/29/24 22/28/22
f 21/16/21 77/11/77 23/17/23
f 22/6/22 78/4/78 18/10/18
f 23/79/23 77/71/77 19/78/19
f 24/17/24 78/11/78 22/16/22
f 25/52/25 29/51/29 31/57/31 27/58/27
f 25/52/25 33/39/33 35/38/35 29/51/29
f 28/58/28 32/57/32 30/51/30 26/52/26
f 30/51/30 36/38/36 34/39/34 26/52/26
f 33/39/33 37/33/37 39/32/39 35/38/35
f 36/38/36 40/32/40 38/33/38 34/39/34
f 41/82/41 43/83/43 44/88/44 42/87/42
f 43/83/43 45/84/45 46/89/46 44/88/44
f 43/45/43 61/55/61 45/59/45
f 43/45/43 63/26/63 61/55/61
f 44/45/44 64/26/64 12/46/12
f 45/84/45 57/85/57 46/89/46
f 45/40/45 61/47/61 15/41/15
f 46/40/46 50/31/50 16/41/16
f 46/84/46 57/85/57 50/80/50
f 46/59/46 62/55/62 44/45/44
f 47/34/47 51/30/51 13/42/13
f 47/34/47 53/25/53 51/30/51
f 47/19/47 58/7/58 53/8/53
f 47/69/47 75/63/75 76/64/76 48/70/48
f 48/19/48 58/7/58 47/18/47
f 48/70/48 76/64/76 72/61/72 14/62/14
f 49/80/49 57/85/57 45/84/45
f 49/80/49 60/81/60 55/86/55
f 50/80/50 52/72/52 16/77/16
f 50/80/50 57/85/57 55/86/55
f 50/80/50 59/81/59 52/72/52
f 51/72/51 60/81/60 49/80/49
f 52/30/52 54/25/54 48/34/48
f 52/30/52 59/27/59 54/25/54
f 53/25/53 56/13/56 55/20/55
f 53/8/53 58/7/58 56/3/56
f 53/25/53 60/27/60 51/30/51
f 54/8/54 58/7/58 48/19/48
f 54/25/54 59/27/59 55/20/55
f 55/20/55 56/13/56 54/25/54
f 55/86/55 57/85/57 49/80/49
f 55/86/55 59/81/59 50/80/50
f 55/20/55 60/27/60 53/25/53
f 56/3/56 58/7/58 54/8/54
f 61/47/61 63/73/63 11/56/11
f 62/55/62 64/26/64 44/45/44
f 65/35/65 67/22/67 68/23/68 66/36/66
f 66/36/66 70/49/70 69/48/69 65/35/65
f 67/22/67 73/14/73 74/15/74 68/23/68
f 70/49/70 72/61/72 71/60/71 69/48/69
f 72/61/72 76/64/76 75/63/75 71/60/71
o Box02_sep10
#29 vertices, 33 faces
v 8.14999962 0.78761744 -0.50000012
v 8.14999962 1.33763170 -0.50000006
v 8.14999962 0.78761744 -1.50000000
v 8.14999962 1.33763182 -1.50000000
v 7.84999990 0.78761744 -0.50000012
v 7.84999990 1.33763182 -0.50000006
v 7.84999990 0.78761744 -1.50000000
v 7.84999990 1.33763182 -1.50000000
v 8.14999962 0.78761744 -1.94206750
v 8.14999962 1.33763170 -1.94206738
v 7.84999990 0.78761744 -1.94206750
v 7.84999990 1.33763170 -1.94206738
v 8.00000000 2.20061731 -1.50000000
v 8.00000000 2.20061731 -1.94206738
v 8.00000000 1.37001765 -0.26758301
v 8.00000000 1.23238099 -0.18759537
v 8.00000000 0.17686236 -0.50000012
v 8.00000000 0.17686236 -1.50000000
v 8.09161091 0.68761742 -2.45659518
v 7.90838909 0.68761742 -2.45659542
v 8.00000000 0.28718567 -2.45659518
v 8.32284069 0.48136842 -1.50000012
v 8.28000736 0.30733657 -1.50000000
v 8.21625996 0.46675718 -2.45659518
v 8.19435310 0.37774789 -2.45659494
v 7.67715931 0.48136851 -1.50000012
v 7.71999216 0.30733654 -1.50000000
v 7.78373957 0.46675691 -2.45659518
v 7.80564690 0.37774774 -2.45659518
vt 0.25898811 0.28605410
vt 0.25898811 0.37687171
vt 0.33198151 0.28605410
vt 0.33198151 0.37687171
vt 0.49709949 0.28605410
vt 0.49709949 0.37687171
vt 0.53547573 0.38221908
vt 0.54546803 0.96638304
vt 0.54546815 0.82275772
vt 0.54868340 0.35949278
vt 0.55769056 0.28783950
vt 0.57312346 0.49534824
vt 0.59770310 0.49595344
vt 0.59786326 0.28776866
vt 0.61904067 0.96638316
vt 0.61904079 0.82275784
vt 0.63988847 0.49592850
vt 0.65869784 0.28697717
vt 0.73930341 7.4914463e-2
vt 0.73930365 1.3446757e-2
vt 0.75843847 0.18877430
vt 0.77861720 7.4914642e-2
vt 0.77861756 1.3446931e-2
vt 0.78680682 0.82175744
vt 0.93462902 0.12567371
vt 0.93462902 0.14276637
vt 0.94058388 0.15502650
vt 0.94334775 0.15059727
vt 0.94624573 0.15681663
vt 0.94760859 0.27602771
vt 0.94964522 0.15908028
vt 0.95011115 0.15776803
vt 0.95254326 0.15286103
vt 0.95414948 0.15169477
vt 0.95414948 0.15835811
vt 0.95640874 0.15190963
vt 0.95691335 0.15392900
vt 0.96261513 0.12567371
vt 0.96261513 0.14276637
vt 0.96321088 0.15574867
vt 0.96402830 0.15502650
vt 0.96911889 0.14552590
vt 0.97113037 0.14120910
vt 0.97113037 0.14984269
vt 0.97310740 0.14072248
vt 0.97310740 0.15032934
vt 0.97330642 0.24818939
vt 0.97752988 0.49549702
vt 0.97801298 0.14349112
vt 0.97801298 0.14756070
vn 0.81329395 -0.14400275 0.56375185
vn 0.94806811 0.19896290 0.24815445
vn 0.97744713 6.2384756e-2 0.20175542
vn 0.99630018 8.5941559e-2 -6.7130121e-10
vn -0.81329367 -0.14400281 0.56375226
vn -0.94806784 0.19896341 0.24815506
vn -0.97744715 6.2384536e-2 0.20175541
vn -0.99630016 8.5941826e-2 -5.7938362e-9
vn 0.57735031 -0.57735019 -0.57735031
vn 0.70318374 6.0657202e-2 -0.70841607
vn -0.57735031 -0.57735019 -0.57735031
vn -0.70318371 6.0657390e-2 -0.70841608
vn 7.5420170e-7 0.92135085 0.38873207
vn 8.6891790e-8 0.32401762 -0.94605104
vn 8.5314154e-7 0.52054291 0.85383551
vn 1.9034651e-7 -0.20916622 0.97788010
vn 1.5850881e-7 -0.43054305 0.90257004
vn 2.9180341e-7 -0.78621889 0.61794811
vn 0.30962288 0.53027445 -0.78926718
vn -0.30962203 0.53027455 -0.78926744
vn 5.3584681e-7 -0.48996425 -0.87174253
vn 0.91069707 0.12485201 0.39375478
vn 0.70668273 -0.58091933 0.40389634
vn 0.82942961 0.11371032 -0.54691543
vn 0.64077667 -0.52674234 -0.55852284
vn -0.91069708 0.12485196 0.39375476
vn -0.70668252 -0.58091953 0.40389642
vn -0.82942963 0.11371028 -0.54691541
vn -0.64077646 -0.52674252 -0.55852291
g Box02_sep10_01 - Default
usemtl 01 - Default
f 79/98/79 81/96/81 82/97/82 80/99/80
f 79/127/79 94/134/94 83/128/83
f 79/132/79 95/131/95 96/118/96 81/119/81
f 80/99/80 93/100/93 79/98/79
f 81/96/81 87/94/87 88/95/88 82/97/82
f 81/111/81 97/110/97 98/106/98 85/107/85
f 81/111/81 100/107/100 102/106/102 97/110/97
f 82/109/82 91/108/91 80/117/80
f 83/98/83 93/100/93 84/99/84
f 83/98/83 94/103/94 93/100/93
f 83/128/83 95/120/95 79/127/79
f 84/99/84 86/97/86 85/96/85 83/98/83
f 84/117/84 91/108/91 86/109/86
f 84/123/84 93/140/93 91/141/91
f 85/112/85 89/113/89 87/116/87 81/115/81
f 85/119/85 96/118/96 95/131/95 83/132/83
f 85/130/85 104/125/104 105/122/105 96/121/96
f 86/97/86 90/95/90 89/94/89 85/96/85
f 86/109/86 91/108/91 92/101/92 90/102/90
f 87/113/87 89/116/89 90/115/90 88/112/88
f 88/102/88 92/101/92 91/108/91 82/109/82
f 90/115/90 92/114/92 88/112/88
f 91/141/91 93/140/93 80/123/80
f 93/100/93 94/103/94 79/98/79
f 96/124/96 101/126/101 100/129/100 81/133/81
f 96/107/96 105/111/105 107/110/107 99/106/99
f 97/143/97 99/135/99 98/142/98
f 97/143/97 102/139/102 103/137/103 99/135/99
f 98/110/98 106/106/106 104/107/104 85/111/85
f 99/106/99 103/110/103 101/111/101 96/107/96
f 99/135/99 107/136/107 106/138/106 98/142/98
f 101/104/101 103/105/103 102/106/102 100/107/100
f 104/107/104 106/106/106 107/105/107 105/104/105
