# Exported from Wings 3D 1.0.1
mtllib rearrightwing.mtl
o Box02_sep8
#18 vertices, 22 faces
v 7.50000000 1.00000000 -0.50000000
v 7.50000000 1.00000000 -1.50000000
v 7.16236830 1.00000000 -0.50000000
v 7.16236830 1.00000000 -1.50000000
v 7.50000000 1.29999995 -0.50000000
v 7.16236830 1.29999995 -0.50000000
v 7.50000000 1.29999995 -1.50000000
v 7.16236830 1.29999995 -1.50000000
v 7.50000000 1.00000000 -1.94206738
v 7.16236830 1.00000000 -1.94206738
v 7.50000000 1.29999995 -1.94206738
v 7.16236830 1.29999995 -1.94206738
v 6.29938269 1.14999998 -1.50000000
v 6.29938269 1.14999998 -1.94206738
v 7.12998247 1.14999998 -0.26758301
v 7.26761913 1.14999998 -0.18759537
v 7.75000000 1.00000000 -0.50000000
v 7.75000000 1.00000000 -1.50000000
vt 0.54546803 0.96638304
vt 0.54546815 0.82275772
vt 0.54580760 0.76445621
vt 0.59746355 0.21318229
vt 0.61904067 0.96638316
vt 0.61904079 0.82275784
vt 0.61995935 0.76445633
vt 0.61995959 0.72252154
vt 0.71055442 0.23284097
vt 0.71055490 0.19352710
vt 0.73930341 7.4914463e-2
vt 0.73930365 1.3446757e-2
vt 0.75479960 0.23284161
vt 0.75480014 0.19352777
vt 0.77861720 7.4914642e-2
vt 0.77861756 1.3446931e-2
vt 0.78680682 0.82175744
vt 0.78769863 0.72252178
vt 0.78769863 0.76445669
vt 0.92034000 7.2534665e-2
vt 0.93448842 0.14886931
vt 0.93448842 0.15442203
vt 0.93782014 0.15958354
vt 0.94115186 0.15442203
vt 0.94760859 0.27602771
vt 0.94817835 9.8232657e-2
vt 0.95229626 2.4963850e-2
vt 0.95385724 0.15511817
vt 0.95385724 0.16067089
vt 0.96052063 0.15511817
vt 0.97330642 0.24818939
vt 0.97501487 8.6195193e-2
vt 0.97752988 0.49549702
vn 0.13666728 -0.83062863 0.53979453
vn 0.30151134 -0.90453403 -0.30151134
vn -0.19896332 -0.94806788 0.24815496
vn -8.5941751e-2 -0.99630016 -1.9798370e-16
vn 0.31383615 0.77112553 0.55396054
vn -0.19896332 0.94806788 0.24815496
vn 0.53079922 0.79255233 -0.30018824
vn -8.5941751e-2 0.99630016 1.9798370e-16
vn 0.57735027 -0.57735027 -0.57735027
vn -6.0657263e-2 -0.70318373 -0.70841608
vn 0.57735027 0.57735027 -0.57735027
vn -6.0657263e-2 0.70318373 -0.70841608
vn -0.92135082 0.0000000e+0 0.38873212
vn -0.32401784 0.0000000e+0 -0.94605097
vn -0.51966790 0.0000000e+0 0.85436835
vn 0.33815583 0.0000000e+0 0.94109013
vn 0.58582603 -0.27438621 0.76257464
vn 0.58582603 -0.27438621 -0.76257464
g Box02_sep8_01 - Default
usemtl 01 - Default
f 1/19/1 3/17/3 4/6/4 2/7/2
f 1/27/1 15/26/15 3/20/3
f 1/27/1 16/32/16 15/26/15
f 1/22/1 17/21/17 5/24/5
f 2/11/2 9/12/9 11/16/11 7/15/7
f 2/7/2 18/8/18 17/18/17 1/19/1
f 3/17/3 13/5/13 4/6/4
f 3/25/3 15/31/15 13/33/13
f 4/6/4 10/2/10 9/3/9 2/7/2
f 4/6/4 13/5/13 14/1/14 10/2/10
f 5/19/5 7/7/7 8/6/8 6/17/6
f 5/24/5 16/23/16 1/22/1
f 5/19/5 17/18/17 18/8/18 7/7/7
f 6/20/6 15/26/15 5/27/5
f 7/7/7 11/3/11 12/2/12 8/6/8
f 7/30/7 18/29/18 2/28/2
f 8/6/8 13/5/13 6/17/6
f 10/9/10 12/10/12 11/14/11 9/13/9
f 10/9/10 14/4/14 12/10/12
f 12/2/12 14/1/14 13/5/13 8/6/8
f 13/33/13 15/31/15 6/25/6
f 15/26/15 16/32/16 5/27/5
