# Exported from Wings 3D 1.0.1
mtllib rightwing.mtl
o Box02
#16 vertices, 19 faces
v 7.50000000 0.34999999 2.50000000
v 6.50000000 0.34999999 2.50000000
v 7.50000000 0.34999999 1.50000000
v 6.50000000 0.34999999 1.50000000
v 7.50000000 0.64999998 2.50000000
v 6.50000000 0.64999998 2.50000000
v 7.50000000 0.64999998 1.50000000
v 6.50000000 0.64999998 1.50000000
v 7.50000000 0.34999999 0.50000000
v 6.50000000 0.34999999 0.50000000
v 7.50000000 0.64999998 0.50000000
v 6.50000000 0.64999998 0.50000000
v 4.50000000 0.50000000 1.50000000
v 4.50000000 0.50000000 0.49999988
v 6.46761417 0.50000000 2.73241711
v 7.26761913 0.50000000 3.49246359
vt 2.9169571e-2 0.96490252
vt 2.9170740e-2 0.79978442
vt 2.9171912e-2 0.63466632
vt 6.7543417e-2 0.47079292
vt 0.19428766 0.96490365
vt 0.19428885 0.79978561
vt 0.19429001 0.63466752
vt 0.19963776 0.59629148
vt 0.20035230 1.0383129e-2
vt 0.20035230 4.9696926e-2
vt 0.31756571 0.16288312
vt 0.31756571 0.20219684
vt 0.33139831 1.0383129e-2
vt 0.33139831 4.9696926e-2
vt 0.44861174 0.16288312
vt 0.44861174 0.20219684
vt 0.52452385 0.96490598
vt 0.52452505 0.79978794
vt 0.57965797 0.16288312
vt 0.57965797 0.20219684
vt 0.59349060 3.0040054e-2
vt 0.70971650 0.18253997
vn 0.53117485 -0.80795873 0.25506073
vn -9.9368594e-2 -0.95788186 0.26942202
vn 0.70710678 -0.70710678 -3.0093440e-16
vn -3.7421186e-2 -0.99929958 -4.1623649e-17
vn 0.53117485 0.80795873 0.25506070
vn -9.9368578e-2 0.95788187 0.26942198
vn 0.70710678 0.70710678 -2.2242978e-16
vn -3.7421179e-2 0.99929958 4.8547959e-17
vn 0.57735027 -0.57735027 -0.57735027
vn -2.6451482e-2 -0.70636392 -0.70735446
vn 0.57735027 0.57735027 -0.57735027
vn -2.6451476e-2 0.70636392 -0.70735446
vn -0.68258181 4.1918984e-8 0.73080919
vn -0.14793404 1.0960299e-9 -0.98899723
vn -0.34319429 4.4165842e-8 0.93926444
vn 0.84392153 6.2946013e-9 0.53646663
g Box02_01 - Default
usemtl 01 - Default
f 1/3/1 15/8/15 2/7/2
f 1/3/1 16/4/16 15/8/15
f 2/7/2 4/6/4 3/2/3 1/3/1
f 2/7/2 13/18/13 4/6/4
f 2/7/2 15/8/15 13/18/13
f 3/16/3 7/15/7 5/19/5 1/20/1
f 3/16/3 9/12/9 11/11/11 7/15/7
f 4/6/4 10/5/10 9/1/9 3/2/3
f 4/6/4 13/18/13 14/17/14 10/5/10
f 5/3/5 7/2/7 8/6/8 6/7/6
f 5/19/5 16/22/16 1/20/1
f 6/7/6 15/8/15 5/3/5
f 7/2/7 11/1/11 12/5/12 8/6/8
f 8/6/8 13/18/13 6/7/6
f 10/13/10 12/14/12 11/10/11 9/9/9
f 10/13/10 14/21/14 12/14/12
f 12/5/12 14/17/14 13/18/13 8/6/8
f 13/18/13 15/8/15 6/7/6
f 15/8/15 16/4/16 5/3/5
