# Exported from Wings 3D 1.0.1
mtllib door2.mtl
o Object02
#32 vertices, 30 faces
v 1.26455383 0.81484845 1.50000000
v 1.00035648 0.81484845 1.50000000
v 0.50035648 0.81484845 1.50000000
v 0.23615901 0.81484845 1.50000000
v 1.26455383 0.81484845 0.50000012
v 1.00035648 0.81484845 0.50000012
v 0.50035648 0.81484845 0.50000012
v 0.23615901 0.81484845 0.50000012
v 1.26455383 0.81484845 -0.49999994
v 1.00035648 0.81484845 -0.49999994
v 0.50035648 0.81484845 -0.49999994
v 0.23615901 0.81484845 -0.49999994
v 1.26455383 0.81484845 -1.50000000
v 1.00035648 0.81484845 -1.50000000
v 0.50035648 0.81484845 -1.50000000
v 0.23615901 0.81484845 -1.50000000
v 1.50035648 1.00410119 1.50000000
v 1.00035648 1.11305705 1.50000000
v 0.50035648 1.17334834 1.50000000
v 3.5647809e-4 1.20936456 1.50000000
v 1.50035648 1.00410119 0.50000006
v 1.00035648 1.11305705 0.50000006
v 0.50035648 1.17334834 0.50000006
v 3.5647809e-4 1.20936456 0.50000006
v 1.50035648 1.00410119 -0.49999997
v 1.00035648 1.11305705 -0.49999997
v 0.50035648 1.17334834 -0.49999997
v 3.5647809e-4 1.20936433 -0.49999997
v 1.50035648 1.00410119 -1.50000000
v 1.00035648 1.11305705 -1.50000000
v 0.50035648 1.17334834 -1.50000000
v 3.5647809e-4 1.20936433 -1.50000000
vt 1.3303854e-2 0.70246398
vt 1.3303854e-2 0.75325114
vt 1.3303854e-2 0.80403823
vt 1.3303854e-2 0.85482532
vt 1.3691351e-2 0.86254728
vt 1.3691351e-2 0.88649881
vt 1.3691351e-2 0.91333443
vt 1.3691351e-2 0.96412152
vt 1.3691351e-2 0.99095714
vt 1.5150208e-2 0.57659125
vt 1.6429298e-2 0.65490520
vt 1.6429298e-2 0.69497788
vt 5.5908434e-2 0.64478284
vt 0.10157466 0.58281678
vt 0.10157466 0.64478284
vt 0.11487805 0.70246398
vt 0.11487805 0.75325114
vt 0.11487805 0.80403823
vt 0.11487805 0.85482532
vt 0.11526557 0.86254728
vt 0.11526557 0.88649881
vt 0.11526557 0.91333443
vt 0.11526557 0.96412152
vt 0.11526557 0.99095714
vt 0.11800352 0.65490520
vt 0.11800352 0.69497788
vt 0.18799900 0.59323800
vt 0.18799900 0.64478284
vt 0.21645227 0.70246398
vt 0.21645227 0.75325114
vt 0.21645227 0.80403823
vt 0.21645227 0.85482532
vt 0.21683976 0.86254728
vt 0.21683976 0.88649881
vt 0.21683976 0.91333443
vt 0.21683976 0.96412152
vt 0.21683976 0.99095714
vt 0.21957770 0.65490520
vt 0.21957770 0.69497788
vt 0.23366521 0.64478284
vt 0.27442345 0.61207074
vt 0.31802648 0.70246398
vt 0.31802648 0.75325114
vt 0.31802648 0.80403823
vt 0.31802648 0.85482532
vt 0.31841397 0.86254728
vt 0.31841397 0.88649881
vt 0.31841397 0.91333443
vt 0.31841397 0.96412152
vt 0.31841397 0.99095714
vt 0.32115194 0.65490520
vt 0.32115194 0.69497788
vn 0.0000000e+0 -1.00000000 0.0000000e+0
vn 0.0000000e+0 -1.00000000 0.0000000e+0
vn 0.0000000e+0 -1.00000000 0.0000000e+0
vn 0.0000000e+0 -1.00000000 0.0000000e+0
vn 0.16650131 0.98604123 1.7023096e-17
vn 9.5808482e-2 0.99539979 -2.9733901e-8
vn 0.16650131 0.98604123 1.7023096e-17
vn 9.5808364e-2 0.99539980 -2.9733901e-8
vn 0.0000000e+0 -1.00000000 0.0000000e+0
vn -1.2150944e-16 -1.1152171e-15 1.00000000
vn 0.62592568 -0.77988271 0.0000000e+0
vn 0.0000000e+0 -1.00000000 0.0000000e+0
vn 0.0000000e+0 -1.00000000 0.0000000e+0
vn -8.1140260e-17 -8.9572604e-16 1.00000000
vn -8.1140260e-17 -8.9572604e-16 1.00000000
vn 0.0000000e+0 -1.00000000 0.0000000e+0
vn 0.0000000e+0 -1.00000000 0.0000000e+0
vn -3.4490953e-17 -5.3393774e-16 1.00000000
vn -3.4490953e-17 -5.3393774e-16 1.00000000
vn 0.0000000e+0 -1.00000000 0.0000000e+0
vn -2.8210829e-17 -3.9164055e-16 1.00000000
vn -0.85836244 -0.51304378 0.0000000e+0
vn 0.0000000e+0 -1.00000000 0.0000000e+0
vn 0.0000000e+0 -1.00000000 0.0000000e+0
vn 0.62592568 -0.77988271 0.0000000e+0
vn 0.62592568 -0.77988271 0.0000000e+0
vn 0.0000000e+0 -1.00000000 0.0000000e+0
vn 0.0000000e+0 -1.00000000 0.0000000e+0
vn -0.85836241 -0.51304384 3.0579798e-8
vn -0.85836241 -0.51304384 3.0579798e-8
vn 0.0000000e+0 -1.00000000 0.0000000e+0
vn 0.0000000e+0 -1.00000000 0.0000000e+0
vn 0.62592568 -0.77988271 0.0000000e+0
vn 0.62592568 -0.77988271 0.0000000e+0
vn 0.0000000e+0 -1.00000000 0.0000000e+0
vn 0.0000000e+0 -1.00000000 0.0000000e+0
vn -0.85836234 -0.51304395 3.0579798e-8
vn -0.85836234 -0.51304395 3.0579798e-8
vn 0.0000000e+0 -1.00000000 0.0000000e+0
vn 1.2150944e-16 1.1152171e-15 -1.00000000
vn 0.62592568 -0.77988271 0.0000000e+0
vn 0.0000000e+0 -1.00000000 0.0000000e+0
vn 0.0000000e+0 -1.00000000 0.0000000e+0
vn 8.1140260e-17 1.2338435e-15 -1.00000000
vn 8.1140260e-17 1.2338435e-15 -1.00000000
vn 0.0000000e+0 -1.00000000 0.0000000e+0
vn 0.0000000e+0 -1.00000000 0.0000000e+0
vn 3.4490862e-17 8.7205525e-16 -1.00000000
vn 3.4490862e-17 8.7205525e-16 -1.00000000
vn 0.0000000e+0 -1.00000000 0.0000000e+0
vn -0.85836230 -0.51304401 0.0000000e+0
vn 2.8210649e-17 3.9164064e-16 -1.00000000
vn 0.21291516 0.97707069 2.7119161e-17
vn -1.2150944e-16 -1.1152171e-15 1.00000000
vn 0.62592568 -0.77988271 0.0000000e+0
vn 0.16650131 0.98604123 1.7023097e-17
vn 0.16650131 0.98604123 1.7023097e-17
vn -8.1140260e-17 -8.9572604e-16 1.00000000
vn -8.1140260e-17 -8.9572604e-16 1.00000000
vn 9.5808541e-2 0.99539978 3.4454920e-18
vn 9.5808541e-2 0.99539978 3.4454920e-18
vn -3.4490953e-17 -5.3393774e-16 1.00000000
vn -3.4490953e-17 -5.3393774e-16 1.00000000
vn 7.1846299e-2 0.99741572 0.0000000e+0
vn -2.8210829e-17 -3.9164055e-16 1.00000000
vn -0.85836244 -0.51304378 0.0000000e+0
vn 0.21291516 0.97707069 2.7119160e-17
vn 0.21291516 0.97707069 2.7119160e-17
vn 0.62592568 -0.77988271 0.0000000e+0
vn 0.62592568 -0.77988271 0.0000000e+0
vn 7.1846181e-2 0.99741572 -5.9450609e-8
vn 7.1846181e-2 0.99741572 -5.9450609e-8
vn -0.85836241 -0.51304384 3.0579798e-8
vn -0.85836241 -0.51304384 3.0579798e-8
vn 0.21291516 0.97707069 2.7119159e-17
vn 0.21291516 0.97707069 2.7119159e-17
vn 0.62592568 -0.77988271 0.0000000e+0
vn 0.62592568 -0.77988271 0.0000000e+0
vn 7.1845944e-2 0.99741574 -5.9450609e-8
vn 7.1845944e-2 0.99741574 -5.9450609e-8
vn -0.85836234 -0.51304395 3.0579798e-8
vn -0.85836234 -0.51304395 3.0579798e-8
vn 0.21291516 0.97707069 2.7119159e-17
vn 1.2150944e-16 1.1152171e-15 -1.00000000
vn 0.62592568 -0.77988271 0.0000000e+0
vn 0.16650131 0.98604123 1.7023096e-17
vn 0.16650131 0.98604123 1.7023096e-17
vn 8.1140260e-17 1.2338435e-15 -1.00000000
vn 8.1140260e-17 1.2338435e-15 -1.00000000
vn 9.5808305e-2 0.99539980 3.4454917e-18
vn 9.5808305e-2 0.99539980 3.4454917e-18
vn 3.4490862e-17 8.7205525e-16 -1.00000000
vn 3.4490862e-17 8.7205525e-16 -1.00000000
vn 7.1845826e-2 0.99741575 0.0000000e+0
vn -0.85836230 -0.51304401 0.0000000e+0
vn 2.8210649e-17 3.9164064e-16 -1.00000000
g Object02_01 - Default
usemtl 01 - Default
f 1/40/10 17/41/54 18/27/58 2/28/14
f 2/48/12 6/35/1 5/34/23 1/47/9
f 2/28/15 18/27/59 19/14/62 3/15/18
f 3/49/16 7/36/2 6/35/1 2/48/13
f 3/15/19 19/14/63 20/10/65 4/13/21
f 4/50/20 8/37/27 7/36/2 3/49/17
f 4/12/22 20/11/66 24/25/73 8/26/29
f 5/34/26 21/33/70 17/46/55 1/47/11
f 6/35/1 10/22/3 9/21/31 5/34/24
f 7/36/2 11/23/4 10/22/3 6/35/1
f 8/37/28 12/24/35 11/23/4 7/36/2
f 8/26/30 24/25/74 28/38/81 12/39/37
f 9/21/34 25/20/78 21/33/69 5/34/25
f 10/22/3 14/7/42 13/6/39 9/21/32
f 11/23/4 15/8/46 14/7/43 10/22/3
f 12/24/36 16/9/50 15/8/47 11/23/4
f 12/39/38 28/38/82 32/51/95 16/52/51
f 13/6/41 29/5/85 25/20/77 9/21/33
f 14/28/45 30/27/89 29/41/84 13/40/40
f 15/15/49 31/14/93 30/27/88 14/28/44
f 16/13/52 32/10/96 31/14/92 15/15/48
f 17/1/53 21/16/67 22/17/5 18/2/56
f 18/2/57 22/17/5 23/18/6 19/3/60
f 19/3/61 23/18/6 24/19/71 20/4/64
f 21/16/68 25/29/75 26/30/7 22/17/5
f 22/17/5 26/30/7 27/31/8 23/18/6
f 23/18/6 27/31/8 28/32/79 24/19/72
f 25/29/76 29/42/83 30/43/86 26/30/7
f 26/30/7 30/43/87 31/44/90 27/31/8
f 27/31/8 31/44/91 32/45/94 28/32/80
