# Exported from Wings 3D 1.0.1
mtllib wheel1.mtl
o Object04
#74 vertices, 84 faces
v 9.9992112e-4 1.17008662 1.71122110
v 0.64128739 1.17008662 1.58932734
v 0.55550516 1.49023044 1.58932734
v 0.32114366 1.72459197 1.58932734
v 9.9989318e-4 1.81037414 1.58932734
v -0.31914386 1.72459197 1.58932734
v -0.55350536 1.49023032 1.58932734
v -0.63928765 1.17008650 1.58932734
v -0.55350530 0.84994274 1.58932734
v -0.31914377 0.61558127 1.58932734
v 1.0000051e-3 0.52979904 1.58932734
v 0.32114378 0.61558139 1.58932734
v 0.55550522 0.84994292 1.58932734
v 0.97166562 1.17008662 1.78086591
v 0.84162116 1.65541947 1.78086591
v 0.49102837 2.00944948 1.77664495
v -3.6957110e-3 2.14201045 1.77664495
v -0.48433304 2.01070762 1.78086591
v -0.83962137 1.65541947 1.78086591
v -0.96966583 1.17008650 1.78086591
v -0.83962119 0.68475360 1.78086591
v -0.48433286 0.32946533 1.78086591
v 1.0000615e-3 0.19942082 1.78086579
v 0.48633292 0.32946545 1.78086591
v 0.84162122 0.68475384 1.78086591
v 0.97166562 1.17008662 2.21713424
v 0.84162116 1.65541947 2.21713424
v 0.49102837 2.00944948 2.22135520
v -3.6957110e-3 2.14201045 2.22135520
v -0.48433304 2.01070762 2.21713424
v -0.83962137 1.65541947 2.21713424
v -0.96966583 1.17008650 2.21713424
v -0.83962119 0.68475366 2.21713424
v -0.48433286 0.32946530 2.21713424
v 1.0000615e-3 0.19942079 2.21713424
v 0.48633292 0.32946542 2.21713424
v 0.84162122 0.68475384 2.21713424
v 0.64128739 1.17008662 2.40867281
v 0.55550516 1.49023032 2.40867281
v 0.32114366 1.72459185 2.40867281
v 9.9989318e-4 1.81037414 2.40867281
v -0.31914386 1.72459185 2.40867281
v -0.55350536 1.49023032 2.40867281
v -0.63928765 1.17008650 2.40867281
v -0.55350530 0.84994274 2.40867281
v -0.31914377 0.61558121 2.40867281
v 1.0000051e-3 0.52979898 2.40867281
v 0.32114378 0.61558133 2.40867281
v 0.55550522 0.84994286 2.40867281
v 9.9992112e-4 1.17008662 2.28677893
v 1.25305748 1.33741975 1.85797060
v 1.16898036 1.65120029 1.85797060
v 0.48514956 2.33725309 1.85524166
v 0.16529742 2.42295742 1.85524166
v -0.76994377 2.17073321 1.85797060
v -0.99964696 1.94103014 1.85797060
v -1.25105739 1.00275302 1.85797060
v -1.16698015 0.68897259 1.85797048
v -0.48011374 2.1062554e-3 1.85797048
v -0.16633326 -8.1971042e-2 1.85797048
v 0.77194369 0.16943975 1.85797048
v 1.00164711 0.39914316 1.85797048
v 1.25305748 1.33741975 2.14002967
v 1.16898036 1.65120029 2.14002967
v 0.48514956 2.33725309 2.14275861
v 0.16529742 2.42295718 2.14275861
v -0.76994377 2.17073321 2.14002967
v -0.99964696 1.94103014 2.14002967
v -1.25105739 1.00275302 2.14002967
v -1.16698015 0.68897259 2.14002967
v -0.48011374 2.1062428e-3 2.14002943
v -0.16633326 -8.1971057e-2 2.14002943
v 0.77194369 0.16943973 2.14002943
v 1.00164711 0.39914313 2.14002967
vt 9.2763007e-3 0.38056958
vt 2.1214763e-2 0.33601475
vt 4.4690147e-2 0.51230896
vt 4.8818037e-2 0.40421885
vt 6.7195073e-2 0.47214252
vt 6.7283541e-2 0.33530465
vt 7.6994069e-2 0.54461277
vt 9.5368601e-2 0.40388861
vt 0.10743245 0.35886583
vt 0.10743247 0.44891143
vt 0.11716039 0.28566957
vt 0.11716039 0.52210766
vt 0.11775371 0.23963179
vt 0.14039144 0.32590696
vt 0.14039144 0.48187056
vt 0.16188166 0.22780806
vt 0.18541425 0.26738086
vt 0.18541425 0.31384289
vt 0.18541425 0.40388861
vt 0.18541427 0.49393436
vt 0.18541427 0.54039639
vt 0.20894685 0.57996947
vt 0.23043709 0.32590681
vt 0.23043710 0.48187056
vt 0.25307480 0.56814545
vt 0.25366813 0.28566957
vt 0.25366813 0.52210766
vt 0.26339605 0.35886583
vt 0.26339608 0.44891143
vt 0.27545986 0.40388861
vt 0.29383445 0.26316446
vt 0.30354500 0.47247261
vt 0.30363345 0.33563489
vt 0.32201052 0.40355840
vt 0.32613832 0.29546857
vt 0.34961376 0.47176251
vt 0.36155221 0.42720795
vt 0.84953219 0.97812086
vt 0.85178268 0.92602116
vt 0.89559907 0.97840017
vt 0.89835531 0.92581004
vt 0.93249768 0.97073025
vt 0.93429387 0.93645769
vt 0.97088081 0.97052079
vt 0.97267479 0.93628961
vn -1.1821728e-8 2.8926452e-9 -1.00000000
vn 0.16642695 7.3262889e-9 -0.98605379
vn 0.14406749 8.0969780e-2 -0.98624969
vn 8.2542586e-2 0.13955020 -0.98676870
vn -1.7089012e-3 0.16212533 -0.98676869
vn -8.4281258e-2 0.14215570 -0.98624968
vn -0.14412998 8.3213491e-2 -0.98605378
vn -0.16642698 -3.5977565e-8 -0.98605378
vn -0.14413000 -8.3213512e-2 -0.98605378
vn -8.3213499e-2 -0.14412996 -0.98605379
vn 1.9733810e-8 -0.16642689 -0.98605380
vn 8.3213520e-2 -0.14412992 -0.98605379
vn 0.14412998 -8.3213446e-2 -0.98605379
vn 0.68321775 -0.26734028 -0.67951651
vn 0.45923748 0.57058706 -0.68083136
vn 0.57352765 0.45517692 -0.68108737
vn -0.26910111 0.68095864 -0.68108730
vn -0.11241791 0.72376167 -0.68083130
vn -0.72535415 0.11008551 -0.67951640
vn -0.68321795 0.26734005 -0.67951639
vn -0.45801384 -0.57313238 -0.67951644
vn -0.57313235 -0.45801387 -0.67951645
vn 0.26734031 -0.68321769 -0.67951655
vn 0.11008555 -0.72535401 -0.67951654
vn 0.72535408 -0.11008521 -0.67951653
vn 0.68321769 -0.26734031 0.67951656
vn 0.45923740 0.57058705 0.68083143
vn 0.57352763 0.45517684 0.68108744
vn -0.26910114 0.68095853 0.68108741
vn -0.11241785 0.72376162 0.68083137
vn -0.72535410 0.11008546 0.67951646
vn -0.68321793 0.26734003 0.67951643
vn -0.45801379 -0.57313238 0.67951647
vn -0.57313232 -0.45801403 0.67951636
vn 0.26734029 -0.68321787 0.67951638
vn 0.11008555 -0.72535414 0.67951640
vn 0.72535409 -0.11008532 0.67951650
vn 0.16642686 5.3429874e-9 0.98605380
vn 0.14406739 8.0969710e-2 0.98624971
vn 8.2542512e-2 0.13955008 0.98676872
vn -1.7089016e-3 0.16212520 0.98676872
vn -8.4281196e-2 0.14215559 0.98624970
vn -0.14412989 8.3213435e-2 0.98605380
vn -0.16642690 -3.9078286e-8 0.98605380
vn -0.14412994 -8.3213472e-2 0.98605379
vn -8.3213452e-2 -0.14412994 0.98605379
vn 1.9733809e-8 -0.16642691 0.98605379
vn 8.3213469e-2 -0.14412991 0.98605380
vn 0.14412992 -8.3213410e-2 0.98605380
vn -1.3672089e-8 -1.0067234e-8 1.00000000
vn 0.83807324 -0.26477385 -0.47699900
vn 0.59340637 0.64833701 -0.47699894
vn 0.64705266 0.59628190 -0.47515341
vn -0.26222273 0.83992173 -0.47515336
vn -0.18973620 0.85817964 -0.47699883
vn -0.85817954 0.18973642 -0.47699891
vn -0.83807352 0.26477324 -0.47699886
vn -0.59340607 -0.64833728 -0.47699896
vn -0.64833730 -0.59340606 -0.47699894
vn 0.26477339 -0.83807334 -0.47699909
vn 0.18973610 -0.85817953 -0.47699906
vn 0.85817954 -0.18973589 -0.47699912
vn 0.83807317 -0.26477393 0.47699909
vn 0.59340627 0.64833704 0.47699904
vn 0.64705253 0.59628173 0.47515379
vn -0.26222274 0.83992145 0.47515386
vn -0.18973610 0.85817961 0.47699892
vn -0.85817951 0.18973632 0.47699901
vn -0.83807349 0.26477322 0.47699893
vn -0.59340595 -0.64833731 0.47699906
vn -0.64833724 -0.59340626 0.47699878
vn 0.26477335 -0.83807347 0.47699887
vn 0.18973610 -0.85817965 0.47699885
vn 0.85817955 -0.18973610 0.47699904
g Object04_01 - Default
usemtl 01 - Default
f 1/19/1 3/24/3 2/20/2
f 1/19/1 4/29/4 3/24/3
f 1/19/1 5/30/5 4/29/4
f 1/19/1 6/28/6 5/30/5
f 1/19/1 7/23/7 6/28/6
f 1/19/1 8/18/8 7/23/7
f 1/19/1 9/14/9 8/18/8
f 1/19/1 10/9/10 9/14/9
f 1/19/1 11/8/11 10/9/10
f 1/19/1 12/10/12 11/8/11
f 1/19/1 13/15/13 12/10/12
f 2/20/2 13/15/13 1/19/1
f 2/20/2 14/21/14 25/12/25 13/15/13
f 3/24/3 15/27/15 14/21/14 2/20/2
f 4/29/4 16/32/16 15/27/15 3/24/3
f 5/30/5 17/34/17 16/32/16 4/29/4
f 6/28/6 18/33/18 17/34/17 5/30/5
f 7/23/7 19/26/19 18/33/18 6/28/6
f 8/18/8 20/17/20 19/26/19 7/23/7
f 9/14/9 21/11/21 20/17/20 8/18/8
f 10/9/10 22/6/22 21/11/21 9/14/9
f 11/8/11 23/4/23 22/6/22 10/9/10
f 12/10/12 24/5/24 23/4/23 11/8/11
f 13/15/13 25/12/25 24/5/24 12/10/12
f 14/39/14 26/38/26 37/40/37 25/41/25
f 14/41/14 51/43/51 63/42/63 26/40/26
f 15/27/15 52/25/52 51/22/51 14/21/14
f 16/41/16 28/40/28 27/38/27 15/39/15
f 16/41/16 53/43/53 65/42/65 28/40/28
f 17/34/17 54/37/54 53/36/53 16/32/16
f 18/41/18 30/40/30 29/38/29 17/39/17
f 18/41/18 55/43/55 67/42/67 30/40/30
f 19/26/19 56/31/56 55/35/55 18/33/18
f 20/38/20 32/39/32 31/41/31 19/40/19
f 20/41/20 57/43/57 69/42/69 32/40/32
f 21/11/21 58/13/58 57/16/57 20/17/20
f 22/38/22 34/39/34 33/41/33 21/40/21
f 22/40/22 59/42/59 71/43/71 34/41/34
f 23/4/23 60/1/60 59/2/59 22/6/22
f 24/40/24 36/41/36 35/39/35 23/38/23
f 24/40/24 61/42/61 73/43/73 36/41/36
f 25/12/25 62/7/62 61/3/61 24/5/24
f 26/17/26 38/18/38 49/23/49 37/26/37
f 26/17/26 63/16/63 64/13/64 27/11/27
f 27/11/27 39/14/39 38/18/38 26/17/26
f 27/41/27 64/43/64 52/42/52 15/40/15
f 28/6/28 40/9/40 39/14/39 27/11/27
f 28/6/28 65/2/65 66/1/66 29/4/29
f 29/4/29 41/8/41 40/9/40 28/6/28
f 29/41/29 66/43/66 54/42/54 17/40/17
f 30/5/30 42/10/42 41/8/41 29/4/29
f 30/5/30 67/3/67 68/7/68 31/12/31
f 31/12/31 43/15/43 42/10/42 30/5/30
f 31/41/31 68/43/68 56/42/56 19/40/19
f 32/21/32 44/20/44 43/15/43 31/12/31
f 32/21/32 69/22/69 70/25/70 33/27/33
f 33/27/33 45/24/45 44/20/44 32/21/32
f 33/41/33 70/43/70 58/42/58 21/40/21
f 34/32/34 46/29/46 45/24/45 33/27/33
f 34/32/34 71/36/71 72/37/72 35/34/35
f 35/34/35 47/30/47 46/29/46 34/32/34
f 35/41/35 72/43/72 60/42/60 23/40/23
f 36/33/36 48/28/48 47/30/47 35/34/35
f 36/33/36 73/35/73 74/31/74 37/26/37
f 37/26/37 49/23/49 48/28/48 36/33/36
f 37/40/37 74/42/74 62/43/62 25/41/25
f 38/18/38 50/19/50 49/23/49
f 39/14/39 50/19/50 38/18/38
f 40/9/40 50/19/50 39/14/39
f 41/8/41 50/19/50 40/9/40
f 42/10/42 50/19/50 41/8/41
f 43/15/43 50/19/50 42/10/42
f 44/20/44 50/19/50 43/15/43
f 45/24/45 50/19/50 44/20/44
f 46/29/46 50/19/50 45/24/45
f 47/30/47 50/19/50 46/29/46
f 48/28/48 50/19/50 47/30/47
f 49/23/49 50/19/50 48/28/48
f 52/45/52 64/44/64 63/42/63 51/43/51
f 54/45/54 66/44/66 65/42/65 53/43/53
f 56/42/56 68/43/68 67/45/67 55/44/55
f 58/42/58 70/43/70 69/45/69 57/44/57
f 60/42/60 72/43/72 71/45/71 59/44/59
f 62/43/62 74/42/74 73/44/73 61/45/61
