# Exported from Wings 3D 1.0.1
mtllib wheel2.mtl
o Object03
#74 vertices, 84 faces
v 9.9992112e-4 1.17000008 -2.28877759
v 0.55550516 1.49014401 -2.41067195
v 0.64128739 1.17000008 -2.41067195
v 0.32114366 1.72450554 -2.41067147
v 9.9989318e-4 1.81028771 -2.41067195
v -0.31914386 1.72450554 -2.41067195
v -0.55350536 1.49014390 -2.41067147
v -0.63928765 1.17000008 -2.41067147
v -0.55350530 0.84985632 -2.41067100
v -0.31914377 0.61549485 -2.41067147
v 1.0000051e-3 0.52971262 -2.41067100
v 0.32114378 0.61549497 -2.41067100
v 0.55550522 0.84985644 -2.41067147
v 0.84162116 1.65533304 -2.21913338
v 0.97166562 1.17000008 -2.21913338
v 0.49102837 2.00936294 -2.22335434
v -3.6957110e-3 2.14192390 -2.22335434
v -0.48433304 2.01062107 -2.21913338
v -0.83962137 1.65533304 -2.21913338
v -0.96966583 1.17000008 -2.21913338
v -0.83962119 0.68466717 -2.21913338
v -0.48433286 0.32937890 -2.21913338
v 1.0000615e-3 0.19933432 -2.21913338
v 0.48633292 0.32937902 -2.21913338
v 0.84162122 0.68466741 -2.21913338
v 1.25305748 1.33733332 -2.14202857
v 1.16898036 1.65111387 -1.85996926
v 1.25305748 1.33733332 -1.85996926
v 1.16898036 1.65111387 -2.14202857
v 0.49102837 2.00936294 -1.77864373
v 0.84162116 1.65533304 -1.78286469
v 0.48514956 2.33716655 -2.14475751
v 0.16529742 2.42287064 -1.85724020
v 0.48514956 2.33716655 -1.85724032
v 0.16529742 2.42287064 -2.14475703
v -0.48433304 2.01062107 -1.78286469
v -3.6957110e-3 2.14192390 -1.77864373
v -0.76994377 2.17064667 -2.14202857
v -0.99964696 1.94094372 -1.85996926
v -0.76994377 2.17064667 -1.85996926
v -0.99964696 1.94094372 -2.14202857
v -0.96966583 1.17000008 -1.78286469
v -0.83962137 1.65533304 -1.78286469
v -1.25105739 1.00266659 -2.14202857
v -1.16698015 0.68888617 -1.85996926
v -1.25105739 1.00266659 -1.85996926
v -1.16698015 0.68888617 -2.14202857
v -0.48433286 0.32937887 -1.78286469
v -0.83962119 0.68466723 -1.78286469
v -0.48011374 2.0198245e-3 -2.14202857
v -0.16633326 -8.2057662e-2 -1.85996974
v -0.48011374 2.0198124e-3 -1.85996974
v -0.16633326 -8.2057647e-2 -2.14202857
v 0.48633292 0.32937899 -1.78286469
v 1.0000615e-3 0.19933431 -1.78286469
v 0.77194369 0.16935331 -2.14202857
v 1.00164711 0.39905670 -1.85996926
v 0.77194369 0.16935329 -1.85996974
v 1.00164711 0.39905673 -2.14202857
v 0.97166562 1.17000008 -1.78286469
v 0.84162122 0.68466741 -1.78286469
v 0.55550516 1.49014390 -1.59132612
v 0.64128739 1.17000008 -1.59132612
v 0.32114366 1.72450542 -1.59132612
v 9.9989318e-4 1.81028771 -1.59132612
v -0.31914386 1.72450542 -1.59132612
v -0.55350536 1.49014390 -1.59132612
v -0.63928765 1.17000008 -1.59132612
v -0.55350530 0.84985620 -1.59132612
v -0.31914377 0.61549479 -1.59132612
v 1.0000051e-3 0.52971256 -1.59132612
v 0.32114378 0.61549491 -1.59132612
v 0.55550522 0.84985638 -1.59132612
v 9.9992112e-4 1.17000008 -1.71322048
vt 9.2763007e-3 0.38056958
vt 2.1214763e-2 0.33601475
vt 4.4690147e-2 0.51230896
vt 4.8818037e-2 0.40421885
vt 6.7195073e-2 0.47214252
vt 6.7283541e-2 0.33530465
vt 7.6994069e-2 0.54461277
vt 9.5368601e-2 0.40388861
vt 0.10743245 0.35886583
vt 0.10743247 0.44891143
vt 0.11716039 0.28566957
vt 0.11716039 0.52210766
vt 0.11775371 0.23963179
vt 0.14039144 0.32590696
vt 0.14039144 0.48187056
vt 0.16188166 0.22780806
vt 0.18541425 0.26738086
vt 0.18541425 0.31384289
vt 0.18541425 0.40388861
vt 0.18541427 0.49393436
vt 0.18541427 0.54039639
vt 0.20894685 0.57996947
vt 0.23043709 0.32590681
vt 0.23043710 0.48187056
vt 0.25307480 0.56814545
vt 0.25366813 0.28566957
vt 0.25366813 0.52210766
vt 0.26339605 0.35886583
vt 0.26339608 0.44891143
vt 0.27545986 0.40388861
vt 0.29383445 0.26316446
vt 0.30354500 0.47247261
vt 0.30363345 0.33563489
vt 0.32201052 0.40355840
vt 0.32613832 0.29546857
vt 0.34961376 0.47176251
vt 0.36155221 0.42720795
vt 0.84953219 0.97812086
vt 0.85178268 0.92602116
vt 0.89559907 0.97840017
vt 0.89835531 0.92581004
vt 0.93249768 0.97073025
vt 0.93429387 0.93645769
vt 0.97088081 0.97052079
vt 0.97267479 0.93628961
vn -2.2093520e-7 -5.5213126e-7 -1.00000000
vn 0.14406673 8.0969913e-2 -0.98624979
vn 0.16642634 -4.8829836e-7 -0.98605389
vn 8.2542466e-2 0.13955004 -0.98676873
vn -1.7084182e-3 0.16212481 -0.98676878
vn -8.4281389e-2 0.14215499 -0.98624977
vn -0.14412985 8.3212875e-2 -0.98605385
vn -0.16642620 -5.1989318e-7 -0.98605391
vn -0.14412961 -8.3213286e-2 -0.98605386
vn -8.3213000e-2 -0.14412915 -0.98605395
vn 5.0493829e-7 -0.16642631 -0.98605389
vn 8.3212779e-2 -0.14412965 -0.98605389
vn 0.14412896 -8.3213988e-2 -0.98605389
vn 0.45923736 0.57058712 -0.68083139
vn 0.68321771 -0.26734033 -0.67951652
vn 0.57352744 0.45517715 -0.68108739
vn -0.26910103 0.68095880 -0.68108719
vn -0.11241798 0.72376163 -0.68083133
vn -0.72535399 0.11008537 -0.67951660
vn -0.68321757 0.26733993 -0.67951682
vn -0.45801345 -0.57313217 -0.67951688
vn -0.57313208 -0.45801345 -0.67951696
vn 0.26734047 -0.68321712 -0.67951707
vn 0.11008523 -0.72535359 -0.67951704
vn 0.72535378 -0.11008530 -0.67951683
vn 0.83807337 -0.26477368 -0.47699887
vn 0.59340627 0.64833704 0.47699904
vn 0.83807322 -0.26477383 0.47699905
vn 0.59340647 0.64833699 -0.47699886
vn 0.57352763 0.45517687 0.68108742
vn 0.45923737 0.57058708 0.68083142
vn 0.64705221 0.59628242 -0.47515336
vn -0.26222284 0.83992154 0.47515364
vn 0.64705254 0.59628179 0.47515370
vn -0.26222280 0.83992183 -0.47515315
vn -0.11241784 0.72376166 0.68083132
vn -0.26910110 0.68095860 0.68108735
vn -0.18973618 0.85817971 -0.47699871
vn -0.85817947 0.18973644 0.47699904
vn -0.18973598 0.85817965 0.47699889
vn -0.85817953 0.18973664 -0.47699886
vn -0.68321793 0.26734003 0.67951642
vn -0.72535410 0.11008548 0.67951646
vn -0.83807364 0.26477307 -0.47699874
vn -0.59340595 -0.64833731 0.47699906
vn -0.83807349 0.26477322 0.47699893
vn -0.59340618 -0.64833729 -0.47699881
vn -0.57313234 -0.45801415 0.67951627
vn -0.45801380 -0.57313239 0.67951646
vn -0.64833741 -0.59340608 -0.47699876
vn 0.26477303 -0.83807362 0.47699879
vn -0.64833738 -0.59340630 0.47699854
vn 0.26477316 -0.83807344 -0.47699903
vn 0.11008558 -0.72535419 0.67951634
vn 0.26734028 -0.68321793 0.67951632
vn 0.18973630 -0.85817959 -0.47699888
vn 0.85817954 -0.18973629 0.47699897
vn 0.18973609 -0.85817971 0.47699874
vn 0.85817961 -0.18973607 -0.47699894
vn 0.68321772 -0.26734029 0.67951653
vn 0.72535409 -0.11008546 0.67951647
vn 0.14406709 8.0969552e-2 0.98624977
vn 0.16642651 -5.0766261e-9 0.98605386
vn 8.2542353e-2 0.13954984 0.98676877
vn -1.7089018e-3 0.16212493 0.98676876
vn -8.4281036e-2 0.14215535 0.98624975
vn -0.14412959 8.3213283e-2 0.98605386
vn -0.16642655 -3.9111478e-8 0.98605385
vn -0.14412964 -8.3213304e-2 0.98605385
vn -8.3213286e-2 -0.14412962 0.98605385
vn 1.9733737e-8 -0.16642652 0.98605386
vn 8.3213298e-2 -0.14412958 0.98605386
vn 0.14412961 -8.3213240e-2 0.98605386
vn -1.5522501e-8 1.1885837e-8 1.00000000
g Object03_01 - Default
usemtl 01 - Default
f 1/19/1 4/29/4 2/24/2
f 1/19/1 5/30/5 4/29/4
f 1/19/1 6/28/6 5/30/5
f 1/19/1 7/23/7 6/28/6
f 1/19/1 8/18/8 7/23/7
f 1/19/1 9/14/9 8/18/8
f 1/19/1 10/9/10 9/14/9
f 1/19/1 11/8/11 10/9/10
f 1/19/1 12/10/12 11/8/11
f 1/19/1 13/15/13 12/10/12
f 2/24/2 3/20/3 1/19/1
f 2/24/2 14/27/14 15/21/15 3/20/3
f 3/20/3 13/15/13 1/19/1
f 3/20/3 15/21/15 25/12/25 13/15/13
f 4/29/4 16/32/16 14/27/14 2/24/2
f 5/30/5 17/34/17 16/32/16 4/29/4
f 6/28/6 18/33/18 17/34/17 5/30/5
f 7/23/7 19/26/19 18/33/18 6/28/6
f 8/18/8 20/17/20 19/26/19 7/23/7
f 9/14/9 21/11/21 20/17/20 8/18/8
f 10/9/10 22/6/22 21/11/21 9/14/9
f 11/8/11 23/4/23 22/6/22 10/9/10
f 12/10/12 24/5/24 23/4/23 11/8/11
f 13/15/13 25/12/25 24/5/24 12/10/12
f 14/27/14 29/25/29 26/22/26 15/21/15
f 14/40/14 31/41/31 27/43/27 29/42/29
f 15/39/15 60/38/60 61/40/61 25/41/25
f 16/41/16 30/40/30 31/38/31 14/39/14
f 16/41/16 32/43/32 34/42/34 30/40/30
f 17/34/17 35/37/35 32/36/32 16/32/16
f 17/40/17 37/41/37 33/43/33 35/42/35
f 18/41/18 36/40/36 37/38/37 17/39/17
f 18/41/18 38/43/38 40/42/40 36/40/36
f 19/26/19 41/31/41 38/35/38 18/33/18
f 19/40/19 43/41/43 39/43/39 41/42/41
f 20/38/20 42/39/42 43/41/43 19/40/19
f 20/41/20 44/43/44 46/42/46 42/40/42
f 21/11/21 47/13/47 44/16/44 20/17/20
f 21/41/21 49/40/49 45/42/45 47/43/47
f 22/40/22 48/38/48 49/39/49 21/41/21
f 22/41/22 50/43/50 52/42/52 48/40/48
f 23/4/23 53/1/53 50/2/50 22/6/22
f 23/40/23 55/41/55 51/43/51 53/42/53
f 24/40/24 54/41/54 55/39/55 23/38/23
f 24/40/24 56/42/56 58/43/58 54/41/54
f 25/12/25 59/7/59 56/3/56 24/5/24
f 25/41/25 61/40/61 57/42/57 59/43/59
f 26/43/26 28/42/28 60/40/60 15/41/15
f 26/43/26 29/45/29 27/44/27 28/42/28
f 27/13/27 31/11/31 60/17/60 28/16/28
f 30/6/30 64/9/64 62/14/62 31/11/31
f 31/11/31 62/14/62 63/18/63 60/17/60
f 32/43/32 35/45/35 33/44/33 34/42/34
f 34/2/34 33/1/33 37/4/37 30/6/30
f 36/5/36 66/10/66 65/8/65 37/4/37
f 37/4/37 65/8/65 64/9/64 30/6/30
f 38/43/38 41/45/41 39/44/39 40/42/40
f 40/3/40 39/7/39 43/12/43 36/5/36
f 42/21/42 68/20/68 67/15/67 43/12/43
f 43/12/43 67/15/67 66/10/66 36/5/36
f 44/44/44 47/42/47 45/43/45 46/45/46
f 46/22/46 45/25/45 49/27/49 42/21/42
f 48/32/48 70/29/70 69/24/69 49/27/49
f 49/27/49 69/24/69 68/20/68 42/21/42
f 50/44/50 53/42/53 51/43/51 52/45/52
f 52/36/52 51/37/51 55/34/55 48/32/48
f 54/33/54 72/28/72 71/30/71 55/34/55
f 55/34/55 71/30/71 70/29/70 48/32/48
f 56/45/56 59/43/59 57/42/57 58/44/58
f 58/35/58 57/31/57 61/26/61 54/33/54
f 60/17/60 63/18/63 73/23/73 61/26/61
f 61/26/61 73/23/73 72/28/72 54/33/54
f 62/14/62 74/19/74 63/18/63
f 63/18/63 74/19/74 73/23/73
f 64/9/64 74/19/74 62/14/62
f 65/8/65 74/19/74 64/9/64
f 66/10/66 74/19/74 65/8/65
f 67/15/67 74/19/74 66/10/66
f 68/20/68 74/19/74 67/15/67
f 69/24/69 74/19/74 68/20/68
f 70/29/70 74/19/74 69/24/69
f 71/30/71 74/19/74 70/29/70
f 72/28/72 74/19/74 71/30/71
f 73/23/73 74/19/74 72/28/72
