# Exported from Wings 3D 0.99.04a
mtllib leftlegbottom.mtl
o cylinder8_sep43
#20 vertices, 12 faces
v 2.68364400 0.40228916 -2.63789094
v 2.63098782 1.53001854 -3.01352306
v 2.14315042 3.00423193 -3.01352306
v 0.32151907 4.26182994 -3.01352306
v -1.46756898 4.82245285 -3.01352306
v -2.54074289 4.47196178 -3.01352306
v -2.48808670 3.34423240 -3.01352306
v -1.32971330 1.87001900 -2.63789094
v -0.17861795 0.33210954 -2.63789094
v 1.61047009 0.33210954 -2.63789094
v 2.68364400 0.40228916 -1.30231008
v 2.63098782 1.53001854 -0.92667796
v 2.14315042 3.00423193 -0.92667796
v 0.32151907 4.26182994 -0.92667796
v -1.46756898 4.82245285 -0.92667796
v -2.54074289 4.47196178 -0.92667796
v -2.48808670 3.34423240 -0.92667796
v -1.32971330 1.87001900 -1.30231008
v -0.17861795 0.33210954 -1.30231008
v 1.61047009 0.33210954 -1.30231008
vt 0.0000000e+0 0.26257567
vt 0.0000000e+0 0.32905541
vt 5.5511151e-17 0.19744019
vt 8.3254565e-4 0.36607136
vt 1.6818335e-2 0.41167273
vt 3.3440105e-2 0.32771115
vt 3.5237508e-2 0.19744019
vt 3.5237508e-2 0.26257567
vt 7.3633811e-2 0.45062052
vt 8.9114198e-2 0.32774129
vt 9.3756703e-2 0.19744019
vt 9.3756703e-2 0.26257567
vt 0.12519777 0.37540107
vt 0.12917624 0.46848116
vt 0.16127565 0.42271901
vt 0.16265244 0.45782373
vt 0.16284758 0.19744019
vt 0.16284758 0.26257567
vt 0.16963566 0.13011258
vt 0.17101245 9.5007854e-2
vt 0.20311187 0.14077001
vt 0.20709033 4.7689918e-2
vt 0.24317391 3.0134583e-5
vt 0.25865429 0.12290937
vt 0.29884800 0.0000000e+0
vt 0.31546977 8.3961582e-2
vt 0.33145556 3.8360213e-2
vt 0.33228811 0.15369792
vt 0.33228811 1.3442566e-3
vt 0.33233986 0.11846045
vt 0.34415017 5.9958541e-2
vt 0.34423823 0.0000000e+0
vt 0.38583683 6.0019762e-2
vt 0.38592489 6.1221324e-5
vt 0.39742351 0.15379358
vt 0.39747526 0.11855611
vt 0.39747526 0.42387313
vt 0.39747526 0.46555984
vt 0.43104316 0.42387313
vt 0.43104316 0.46555984
vt 0.48688492 0.42387313
vt 0.48688492 0.46555984
vt 0.74241814 0.19299358
vt 0.74263317 0.24146078
vt 0.75398607 0.15770440
vt 0.79567236 0.15751945
vt 0.80755297 0.19270459
vt 0.80776801 0.24117179
vn 0.57601209 -0.59701173 -0.55837897
vn 0.88115659 0.11553511 -0.45849178
vn 0.71904444 0.49948818 -0.48320456
vn 0.39230194 0.79019329 -0.47084366
vn -2.4942215e-2 0.87465942 -0.48409585
vn -0.72783654 0.42803290 -0.53576283
vn -0.82297369 -0.34951067 -0.44783545
vn -0.70033100 -0.57159963 -0.42756328
vn -0.39113313 -0.79583386 -0.46223732
vn 1.0951132e-2 -0.90461969 -0.42607896
vn 0.57601209 -0.59701173 0.55837897
vn 0.88115659 0.11553511 0.45849178
vn 0.71904444 0.49948818 0.48320456
vn 0.39230194 0.79019329 0.47084366
vn -2.4942215e-2 0.87465942 0.48409585
vn -0.72783654 0.42803290 0.53576283
vn -0.82297369 -0.34951067 0.44783545
vn -0.70033100 -0.57159963 0.42756328
vn -0.39113313 -0.79583386 0.46223732
vn 1.0951132e-2 -0.90461969 0.42607896
g cylinder8_sep43_cylinder8_auv
usemtl cylinder8_auv
f 1/2/1 10/6/10 9/10/9 8/13/8 7/15/7 6/16/6 5/14/5 4/9/4 3/5/3 2/4/2
f 1/38/1 11/37/11 20/39/20 10/40/10
f 2/47/2 12/43/12 11/45/11 1/46/1
f 3/48/3 13/44/13 12/43/12 2/47/2
f 4/12/4 14/11/14 13/17/13 3/18/3
f 5/8/5 15/7/15 14/11/14 4/12/4
f 6/1/6 16/3/16 15/7/15 5/8/5
f 7/30/7 17/36/17 16/35/16 6/28/6
f 8/31/8 18/33/18 17/36/17 7/30/7
f 9/32/9 19/34/19 18/33/18 8/31/8
f 10/40/10 20/39/20 19/41/19 9/42/9
f 12/27/12 13/26/13 14/24/14 15/21/15 16/19/16 17/20/17 18/22/18 19/23/19 20/25/20 11/29/11
