# Exported from Wings 3D 0.99.04a
mtllib leftfoot.mtl
o cylinder8_sep52
#8 vertices, 6 faces
v 0.38275855 -0.15368560 -1.90884819
v 0.38275855 0.98631440 -1.90884819
v 2.38275855 0.98631440 -1.90884819
v 2.38275855 -0.15368560 -1.90884819
v 0.38275855 -0.12025239 -3.90884819
v 0.38275855 0.35814633 -3.90884819
v 2.38275855 0.35814633 -3.90884819
v 2.38275855 -0.12025239 -3.90884819
vt 6.2424833e-2 0.92234351
vt 6.2424833e-2 0.88676135
vt 0.12484967 0.88780488
vt 0.12484967 0.90273686
vt 0.33933375 0.79647210
vt 0.33933375 0.81140408
vt 0.40175858 0.79647210
vt 0.40175858 0.81140408
vt 0.43697383 0.88780488
vt 0.43697383 0.90273686
vt 0.49939867 0.88676135
vt 0.49939867 0.92234351
vt 0.82737883 0.63601167
vt 0.82737883 0.70144317
vt 0.82737883 0.70144317
vt 0.82737883 0.76387672
vt 0.82737883 0.82631028
vt 0.82737883 0.86189243
vt 0.88980367 0.63601167
vt 0.88980367 0.70144317
vt 0.88980367 0.70144317
vt 0.88980367 0.76387672
vt 0.88980367 0.82631028
vt 0.88980367 0.86189243
vn -0.58059407 -0.58051296 0.57088986
vn -0.64540351 0.61574640 0.45200739
vn 0.64540351 0.61574640 0.45200739
vn 0.58059407 -0.58051296 0.57088986
vn -0.57416024 -0.57408004 -0.58375691
vn -0.52709731 0.50287652 -0.68504280
vn 0.52709731 0.50287652 -0.68504280
vn 0.57416024 -0.57408004 -0.58375691
g cylinder8_sep52_cylinder8_auv
usemtl cylinder8_auv
f 1/17/1 4/23/4 3/24/3 2/18/2
f 1/21/1 5/22/5 8/16/8 4/15/4
f 2/12/2 6/10/6 5/9/5 1/11/1
f 3/19/3 7/20/7 6/14/6 2/13/2
f 4/2/4 8/3/8 7/4/7 3/1/3
f 6/8/6 7/6/7 8/5/8 5/7/5
o cylinder8_sep50
#8 vertices, 6 faces
v 0.47978039 -8.3500942e-2 -3.43286614
v 0.47978039 1.05118412 -3.43286614
v -2.00118658 0.29744029 -3.80010842
v -2.00118658 -8.3500942e-2 -3.80010842
v 0.29227948 -8.3500942e-2 -2.16617225
v 0.29227948 1.05118412 -2.16617225
v -2.18868749 0.29744029 -2.53341453
v -2.18868749 -8.3500942e-2 -2.53341453
vt 0.23484222 0.85134509
vt 0.23484222 0.88676135
vt 0.27480960 0.85134509
vt 0.27480960 0.88676135
vt 0.50792434 0.78188728
vt 0.51377670 0.74235070
vt 0.55951010 0.81592883
vt 0.55951010 0.82781892
vt 0.58536132 0.79334980
vt 0.59121367 0.75381322
vt 0.59947748 0.81592883
vt 0.59947748 0.82781892
vt 0.64703299 0.30372059
vt 0.65313802 0.34321894
vt 0.72781332 0.29123484
vt 0.73391835 0.33073319
vt 0.74241814 0.64919177
vt 0.74241814 0.68460804
vt 0.74241814 0.69649813
vt 0.82069888 0.64919177
vt 0.82069888 0.66108187
vt 0.82069888 0.68460804
vt 0.82069888 0.72002430
vn 0.65566761 -0.57735027 -0.48658673
vn 0.54650825 0.61506902 -0.56834745
vn -0.59627059 0.50646091 -0.62286334
vn -0.48658673 -0.57735027 -0.65566761
vn 0.48658673 -0.57735027 0.65566761
vn 0.35842231 0.61506902 0.70229876
vn -0.75114455 0.50646091 0.42341376
vn -0.65566761 -0.57735027 0.48658673
g cylinder8_sep50_cylinder8_auv
usemtl cylinder8_auv
f 9/41/9 12/44/12 11/45/11 10/42/10
f 9/29/9 13/30/13 16/34/16 12/33/12
f 10/28/10 14/26/14 13/25/13 9/27/9
f 11/38/11 15/37/15 14/39/14 10/40/10
f 12/31/12 16/35/16 15/36/15 11/32/11
f 14/47/14 15/43/15 16/42/16 13/46/13
o cylinder8_sep46
#8 vertices, 6 faces
v 2.50361332 -8.3500942e-2 -2.11620503
v 2.50361332 1.05118412 -2.11620503
v 4.96586778 0.29744029 -2.59303513
v 4.96586778 -8.3500942e-2 -2.59303513
v 2.26016075 -8.3500942e-2 -3.37334498
v 2.26016075 1.05118412 -3.37334498
v 4.72241522 0.29744029 -3.85017508
v 4.72241522 -8.3500942e-2 -3.85017508
vt 7.8280741e-2 0.85134509
vt 7.8280741e-2 0.86323519
vt 0.15656148 0.88676135
vt 0.15656148 0.81592883
vt 0.15656148 0.85134509
vt 0.23484222 0.81592883
vt 0.23484222 0.82781892
vt 0.33933375 0.75723372
vt 0.34693249 0.79647210
vt 0.35474435 0.85134509
vt 0.35474435 0.88676135
vt 0.39471172 0.85134509
vt 0.39471172 0.88676135
vt 0.41618666 0.74235070
vt 0.42378540 0.78158908
vt 0.64703299 0.22060781
vt 0.65495456 0.18143333
vt 0.72715095 0.23680866
vt 0.73507252 0.19763418
vt 0.74241814 0.80274692
vt 0.74241814 0.81463702
vt 0.78238551 0.81463702
vt 0.78238551 0.80274692
vn -0.45705155 -0.57735027 0.67658743
vn -0.32694651 0.61506902 0.71749291
vn 0.76917093 0.50646091 0.38970941
vn 0.67658743 -0.57735027 0.45705155
vn -0.67658743 -0.57735027 -0.45705155
vn -0.57115869 0.61506902 -0.54356954
vn 0.56808143 0.50646091 -0.64867622
vn 0.45705155 -0.57735027 -0.67658743
g cylinder8_sep46_cylinder8_auv
usemtl cylinder8_auv
f 17/51/17 20/53/20 19/54/19 18/52/18
f 17/61/17 21/62/21 24/56/24 20/55/20
f 18/60/18 22/58/22 21/57/21 17/59/17
f 19/66/19 23/65/23 22/63/22 18/64/18
f 20/67/20 24/70/24 23/69/23 19/68/19
f 22/50/22 23/49/23 24/48/24 21/52/21
o cylinder8_sep45
#8 vertices, 6 faces
v 2.31427369 -8.3500942e-2 -0.76226588
v 2.31427369 1.05118412 -0.76226588
v 4.79965955 0.29744029 -0.42622853
v 4.79965955 -8.3500942e-2 -0.42622853
v 2.48584246 -8.3500942e-2 -2.03121591
v 2.48584246 1.05118412 -2.03121591
v 4.97122833 0.29744029 -1.69517855
v 4.97122833 -8.3500942e-2 -1.69517855
vt 0.59947748 0.81592883
vt 0.59947748 0.85134509
vt 0.63944485 0.81592883
vt 0.63944485 0.81592883
vt 0.63944485 0.82781892
vt 0.63944485 0.85134509
vt 0.64703299 0.40564711
vt 0.65262015 0.44522203
vt 0.67941223 0.81592883
vt 0.67941223 0.82781892
vt 0.72796992 0.39422048
vt 0.73355709 0.43379541
vt 0.74241814 0.61377551
vt 0.74241814 0.62566561
vt 0.74241814 0.75544056
vt 0.74241814 0.79085683
vt 0.74241814 0.28106777
vt 0.74777321 0.24146078
vt 0.81999304 0.29155631
vt 0.82069888 0.61377551
vt 0.82069888 0.64919177
vt 0.82069888 0.75544056
vt 0.82069888 0.76733066
vt 0.82534811 0.25194931
vn -0.64950138 -0.57735027 0.49478746
vn -0.53932323 0.61506902 0.57517002
vn 0.60405043 0.50646091 0.61532140
vn 0.49478746 -0.57735027 0.64950138
vn -0.49478746 -0.57735027 -0.64950138
vn -0.36721913 0.61506902 -0.69773936
vn 0.74576461 0.50646091 -0.43281924
vn 0.64950138 -0.57735027 -0.49478746
g cylinder8_sep45_cylinder8_auv
usemtl cylinder8_auv
f 25/85/25 28/92/28 27/93/27 26/86/26
f 25/94/25 29/89/29 32/87/32 28/88/28
f 26/76/26 30/72/30 29/71/29 25/73/25
f 27/81/27 31/82/31 30/78/30 26/77/26
f 28/74/28 32/79/32 31/80/31 27/75/27
f 30/91/30 31/84/31 32/83/32 29/90/29
