# Exported from Wings 3D 0.99.04a
mtllib pelvis.mtl
o cylinder8_sep37
#12 vertices, 10 faces
v -1.00000000 7.94191042 0.82637819
v -1.00000000 9.10353084 1.22837819
v 1.00000000 9.10353084 1.22837819
v 1.00000000 7.94191042 0.82637819
v -1.00000000 7.94191042 -0.36962181
v -1.00000000 9.10353084 -0.77162181
v 1.00000000 9.10353084 -0.77162181
v 1.00000000 7.94191042 -0.36962181
v 1.00000000 6.71787624 0.82637819
v -1.00000000 6.71787624 0.82637819
v -1.00000000 6.71787624 -0.36962181
v 1.00000000 6.71787624 -0.36962181
vt 0.18727450 0.88676135
vt 0.18727450 0.94918619
vt 0.24969933 0.88676135
vt 0.24969933 0.92409140
vt 0.24969933 0.94918619
vt 0.31212417 0.88676135
vt 0.31212417 0.92409140
vt 0.82737883 0.23472125
vt 0.82737883 0.27319614
vt 0.82737883 0.42422598
vt 0.82737883 0.49868803
vt 0.82737883 0.34970034
vt 0.82741249 0.27312462
vt 0.82741721 0.31136455
vt 0.82742184 0.19648529
vt 0.83992622 0.34976394
vt 0.83992622 0.38796900
vt 0.83992622 0.42422598
vt 0.83992622 0.46243105
vt 0.87725628 0.34976394
vt 0.87725628 0.38796900
vt 0.87725628 0.42422598
vt 0.87725628 0.46243105
vt 0.88979900 0.27312462
vt 0.88980363 0.23472523
vt 0.88980367 0.42422598
vt 0.88980367 0.49868803
vt 0.88980835 0.34976394
vt 0.88984200 0.19655681
vt 0.88984200 0.27306102
vt 0.88984200 0.31136057
vn -0.71201786 -0.11642858 0.69244130
vn -0.65289463 0.43937304 0.61699265
vn 0.65289463 0.43937304 0.61699265
vn 0.71201786 -0.11642858 0.69244130
vn -0.71201786 -0.11642858 -0.69244130
vn -0.65289463 0.43937304 -0.61699265
vn 0.65289463 0.43937304 -0.61699265
vn 0.71201786 -0.11642858 -0.69244130
vn 0.57735027 -0.57735027 0.57735027
vn -0.57735027 -0.57735027 0.57735027
vn -0.57735027 -0.57735027 -0.57735027
vn 0.57735027 -0.57735027 -0.57735027
g cylinder8_sep37_cylinder8_auv
usemtl cylinder8_auv
f 1/8/1 4/25/4 3/30/3 2/13/2
f 1/8/1 10/15/10 9/29/9 4/25/4
f 2/27/2 6/11/6 5/19/5 1/23/1
f 3/3/3 7/5/7 6/2/6 2/1/2
f 4/17/4 8/21/8 7/26/7 3/10/3
f 4/17/4 9/16/9 12/20/12 8/21/8
f 5/19/5 11/18/11 10/22/10 1/23/1
f 6/28/6 7/12/7 8/14/8 5/31/5
f 8/14/8 12/9/12 11/24/11 5/31/5
f 10/6/10 11/7/11 12/4/12 9/3/9
