# Exported from Wings 3D 0.99.04a
mtllib rightlegjoint.mtl
o cylinder8_sep42
#20 vertices, 12 faces
v -0.21979057 3.96506816 3.06326836
v -0.51161260 4.86320403 3.06326836
v -1.27561260 5.41828252 3.06326836
v -2.21996853 5.41828252 3.06326836
v -2.98396853 4.86320403 3.06326836
v -3.27579057 3.96506816 3.06326836
v -2.98396853 3.06693230 3.06326836
v -2.21996853 2.51185381 3.06326836
v -1.27561260 2.51185381 3.06326836
v -0.51161260 3.06693230 3.06326836
v -0.21979057 3.96506816 3.83503060
v -0.51161260 4.86320403 3.83503060
v -1.27561260 5.41828252 3.83503060
v -2.21996853 5.41828252 3.83503060
v -2.98396853 4.86320403 3.83503060
v -3.27579057 3.96506816 3.83503060
v -2.98396853 3.06693230 3.83503060
v -2.21996853 2.51185381 3.83503060
v -1.27561260 2.51185381 3.83503060
v -0.51161260 3.06693230 3.83503060
vt 9.5385145e-2 0.69699237
vt 0.10449362 0.66895938
vt 0.10449362 0.72502536
vt 0.12833990 0.65163404
vt 0.12833990 0.74235070
vt 0.15781553 0.65163404
vt 0.15781553 0.74235070
vt 0.18166182 0.66895938
vt 0.18166182 0.72502536
vt 0.19077029 0.69699237
vt 0.19248284 0.60112993
vt 0.19248284 0.62521850
vt 0.22195847 0.60112993
vt 0.22195847 0.62521850
vt 0.25143410 0.60112993
vt 0.25143410 0.62521850
vt 0.28090973 0.62521850
vt 0.28090973 0.60112993
vt 0.28090973 0.62521850
vt 0.28090973 0.60112993
vt 0.31038536 0.60112993
vt 0.31038536 0.62521850
vt 0.33986099 0.60112993
vt 0.33986099 0.62521850
vt 0.36933662 0.60112993
vt 0.36933662 0.62521850
vt 0.64703299 0.13607500
vt 0.65614146 0.10804201
vt 0.65614146 0.16410799
vt 0.67998775 9.0716664e-2
vt 0.67998775 0.18143333
vt 0.70946338 9.0716664e-2
vt 0.70946338 0.18143333
vt 0.73330966 0.10804201
vt 0.73330966 0.16410799
vt 0.74241814 0.13607500
vt 0.90452360 5.8951262e-2
vt 0.90452360 0.11790252
vt 0.90452360 0.23580505
vt 0.90452360 8.8426893e-2
vt 0.90452360 0.17685379
vt 0.90452360 0.20632942
vt 0.92861217 0.11790252
vt 0.92861217 0.20632942
vt 0.92861217 0.23580505
vt 0.92861217 5.8951262e-2
vt 0.92861217 8.8426893e-2
vt 0.92861217 0.17685379
vn 0.88513142 5.1663243e-17 -0.46534113
vn 0.71608636 0.52026720 -0.46534113
vn 0.27352065 0.84181001 -0.46534113
vn -0.27352065 0.84181001 -0.46534113
vn -0.71608636 0.52026720 -0.46534113
vn -0.88513142 0.0000000e+0 -0.46534113
vn -0.71608636 -0.52026720 -0.46534113
vn -0.27352065 -0.84181001 -0.46534113
vn 0.27352065 -0.84181001 -0.46534113
vn 0.71608636 -0.52026720 -0.46534113
vn 0.88513142 5.1663243e-17 0.46534113
vn 0.71608636 0.52026720 0.46534113
vn 0.27352065 0.84181001 0.46534113
vn -0.27352065 0.84181001 0.46534113
vn -0.71608636 0.52026720 0.46534113
vn -0.88513142 0.0000000e+0 0.46534113
vn -0.71608636 -0.52026720 0.46534113
vn -0.27352065 -0.84181001 0.46534113
vn 0.27352065 -0.84181001 0.46534113
vn 0.71608636 -0.52026720 0.46534113
g cylinder8_sep42_cylinder8_auv
usemtl cylinder8_auv
f 1/27/1 10/28/10 9/30/9 8/32/8 7/34/7 6/36/6 5/35/5 4/33/4 3/31/3 2/29/2
f 1/44/1 11/42/11 20/41/20 10/48/10
f 2/45/2 12/39/12 11/42/11 1/44/1
f 3/16/3 13/15/13 12/20/12 2/17/2
f 4/14/4 14/13/14 13/15/13 3/16/3
f 5/12/5 15/11/15 14/13/14 4/14/4
f 6/40/6 16/47/16 15/43/15 5/38/5
f 7/37/7 17/46/17 16/47/16 6/40/6
f 8/24/8 18/23/18 17/25/17 7/26/7
f 9/22/9 19/21/19 18/23/18 8/24/8
f 10/19/10 20/18/20 19/21/19 9/22/9
f 12/9/12 13/7/13 14/5/14 15/3/15 16/1/16 17/2/17 18/4/18 19/6/19 20/8/20 11/10/11
