# Exported from Wings 3D 0.99.04a
mtllib rightfoot.mtl
o cylinder8_sep51
#8 vertices, 6 faces
v 0.38275855 -0.12025239 4.27639434
v 0.38275855 0.35814633 4.27639434
v 2.38275855 0.35814633 4.27639434
v 2.38275855 -0.12025239 4.27639434
v 0.38275855 -0.15368560 2.27639434
v 0.38275855 0.98631440 2.27639434
v 2.38275855 0.98631440 2.27639434
v 2.38275855 -0.15368560 2.27639434
vt 0.12484967 0.88676135
vt 0.12484967 0.92234351
vt 0.18727450 0.88780488
vt 0.18727450 0.90273686
vt 0.25488209 0.79647210
vt 0.25488209 0.81140408
vt 0.31212417 0.88780488
vt 0.31212417 0.90273686
vt 0.31730693 0.79647210
vt 0.31730693 0.81140408
vt 0.37454900 0.92234351
vt 0.37454900 0.88676135
vt 0.37454900 0.88676135
vt 0.37454900 0.92234351
vt 0.43697383 0.88676135
vt 0.43697383 0.92234351
vt 0.82737883 0.57058018
vt 0.82737883 0.63601167
vt 0.82737883 0.76387672
vt 0.82737883 0.82631028
vt 0.88980367 0.57058018
vt 0.88980367 0.63601167
vt 0.88980367 0.76387672
vt 0.88980367 0.82631028
vn -0.57416024 -0.57408004 0.58375691
vn -0.52709731 0.50287652 0.68504280
vn 0.52709731 0.50287652 0.68504280
vn 0.57416024 -0.57408004 0.58375691
vn -0.58059407 -0.58051296 -0.57088986
vn -0.64540351 0.61574640 -0.45200739
vn 0.64540351 0.61574640 -0.45200739
vn 0.58059407 -0.58051296 -0.57088986
g cylinder8_sep51_cylinder8_auv
usemtl cylinder8_auv
f 1/5/1 4/9/4 3/10/3 2/6/2
f 1/23/1 5/24/5 8/20/8 4/19/4
f 2/4/2 6/2/6 5/1/5 1/3/1
f 3/21/3 7/22/7 6/18/6 2/17/2
f 4/7/4 8/12/8 7/11/7 3/8/3
f 6/16/6 7/14/7 8/13/8 5/15/5
o cylinder8_sep49
#8 vertices, 6 faces
v 0.22019364 -8.3500942e-2 2.15573814
v 0.22019364 1.05118412 2.15573814
v -2.24785828 0.29744029 2.60158980
v -2.24785828 -8.3500942e-2 2.60158980
v 0.44782971 -8.3500942e-2 3.41583807
v 0.44782971 1.05118412 3.41583807
v -2.02022221 0.29744029 3.86168973
v -2.02022221 -8.3500942e-2 3.86168973
vt 0.0000000e+0 0.85134509
vt 1.3877788e-17 0.81592883
vt 7.8280741e-2 0.81592883
vt 7.8280741e-2 0.82781892
vt 0.15656148 0.85134509
vt 0.15656148 0.86323519
vt 0.23484222 0.85134509
vt 0.23484222 0.88676135
vt 0.31477697 0.85134509
vt 0.31477697 0.88676135
vt 0.35474435 0.85134509
vt 0.35474435 0.88676135
vt 0.42378540 0.75626681
vt 0.43089048 0.79559758
vt 0.50081927 0.74235070
vt 0.50792434 0.78168147
vt 0.64703299 0.27608341
vt 0.65444143 0.23680866
vt 0.68708572 0.50764686
vt 0.68708572 0.51953696
vt 0.72705310 0.50764686
vt 0.72705310 0.51953696
vt 0.72735602 0.29123484
vt 0.73476446 0.25196009
vn 0.46551749 -0.57735027 -0.67079068
vn 0.33593674 0.61506902 -0.71332784
vn -0.76421310 0.50646091 -0.39934408
vn -0.67079068 -0.57735027 -0.46551749
vn 0.67079068 -0.57735027 0.46551749
vn 0.56428307 0.61506902 0.55070383
vn -0.57618787 0.50646091 0.64148647
vn -0.46551749 -0.57735027 0.67079068
g cylinder8_sep49_cylinder8_auv
usemtl cylinder8_auv
f 9/26/9 12/27/12 11/28/11 10/25/10
f 9/38/9 13/37/13 16/39/16 12/40/12
f 10/36/10 14/34/14 13/33/13 9/35/9
f 11/41/11 15/42/15 14/48/14 10/47/10
f 12/43/12 16/45/16 15/46/15 11/44/11
f 14/32/14 15/30/15 16/29/16 13/31/13
o cylinder8_sep48
#8 vertices, 6 faces
v 2.50361332 -8.3500942e-2 2.12128084
v 2.50361332 1.05118412 2.12128084
v 4.96586778 0.29744029 1.64445074
v 4.96586778 -8.3500942e-2 1.64445074
v 2.26016075 -8.3500942e-2 0.86414089
v 2.26016075 1.05118412 0.86414089
v 4.72241522 0.29744029 0.38731079
v 4.72241522 -8.3500942e-2 0.38731079
vt 0.0000000e+0 0.85134509
vt 0.0000000e+0 0.86323519
vt 7.8280741e-2 0.88676135
vt 7.8280741e-2 0.85134509
vt 7.8280741e-2 0.81592883
vt 7.8280741e-2 0.85134509
vt 0.15656148 0.81592883
vt 0.15656148 0.82781892
vt 0.25488209 0.75723372
vt 0.26248084 0.79647210
vt 0.33173501 0.74235070
vt 0.33933375 0.78158908
vt 0.39471172 0.85134509
vt 0.39471172 0.88676135
vt 0.43467910 0.85134509
vt 0.43467910 0.88676135
vt 0.51540056 0.69080852
vt 0.52332213 0.65163404
vt 0.59551852 0.70700937
vt 0.60344009 0.66783490
vt 0.74241814 0.79085683
vt 0.74241814 0.80274692
vt 0.78238551 0.80274692
vt 0.78238551 0.79085683
vn -0.45705155 -0.57735027 0.67658743
vn -0.32694651 0.61506902 0.71749291
vn 0.76917093 0.50646091 0.38970941
vn 0.67658743 -0.57735027 0.45705155
vn -0.67658743 -0.57735027 -0.45705155
vn -0.57115869 0.61506902 -0.54356954
vn 0.56808143 0.50646091 -0.64867622
vn 0.45705155 -0.57735027 -0.67658743
g cylinder8_sep48_cylinder8_auv
usemtl cylinder8_auv
f 17/53/17 20/55/20 19/56/19 18/54/18
f 17/59/17 21/60/21 24/58/24 20/57/20
f 18/64/18 22/62/22 21/61/21 17/63/17
f 19/68/19 23/67/23 22/65/22 18/66/18
f 20/69/20 24/72/24 23/71/23 19/70/19
f 22/51/22 23/50/23 24/49/24 21/52/21
o cylinder8_sep47
#8 vertices, 6 faces
v 2.31427369 -8.3500942e-2 3.47521999
v 2.31427369 1.05118412 3.47521999
v 4.79965955 0.29744029 3.81125734
v 4.79965955 -8.3500942e-2 3.81125734
v 2.48584246 -8.3500942e-2 2.20626996
v 2.48584246 1.05118412 2.20626996
v 4.97122833 0.29744029 2.54230731
v 4.97122833 -8.3500942e-2 2.54230731
vt 0.27480960 0.85134509
vt 0.27480960 0.88676135
vt 0.31477697 0.85134509
vt 0.31477697 0.88676135
vt 0.59121367 0.78195770
vt 0.59656875 0.74235070
vt 0.64703299 0.35464556
vt 0.64703299 0.70034014
vt 0.64703299 0.71223024
vt 0.65262015 0.39422048
vt 0.66878857 0.79244624
vt 0.67414365 0.75283924
vt 0.67941223 0.81592883
vt 0.67941223 0.82781892
vt 0.71937960 0.81592883
vt 0.71937960 0.82781892
vt 0.72531373 0.70034014
vt 0.72531373 0.73575640
vt 0.72796992 0.34321894
vt 0.73355709 0.38279386
vt 0.74241814 0.72002430
vt 0.74241814 0.75544056
vt 0.82069888 0.72002430
vt 0.82069888 0.73191440
vn -0.64950138 -0.57735027 0.49478746
vn -0.53932323 0.61506902 0.57517002
vn 0.60405043 0.50646091 0.61532140
vn 0.49478746 -0.57735027 0.64950138
vn -0.49478746 -0.57735027 -0.64950138
vn -0.36721913 0.61506902 -0.69773936
vn 0.74576461 0.50646091 -0.43281924
vn 0.64950138 -0.57735027 -0.49478746
g cylinder8_sep47_cylinder8_auv
usemtl cylinder8_auv
f 25/93/25 28/95/28 27/96/27 26/94/26
f 25/84/25 29/83/29 32/77/32 28/78/28
f 26/76/26 30/74/30 29/73/29 25/75/25
f 27/91/27 31/92/31 30/82/30 26/79/26
f 28/85/28 32/87/32 31/88/31 27/86/27
f 30/90/30 31/81/31 32/80/32 29/89/29
