# Exported from Wings 3D 0.99.04a
mtllib rightgun.mtl
o cylinder8_sep68
#12 vertices, 8 faces
v 6.31793059 11.79179017 6.00437831
v 6.31732978 11.84411418 6.26110033
v 6.31612816 12.09260396 6.34414741
v 6.31552734 12.28876974 6.17047247
v 6.31612816 12.23644574 5.91375045
v 6.31732978 11.98795595 5.83070337
v 0.88557546 11.79161669 6.00432033
v 0.88497465 11.84394070 6.26104235
v 0.88377303 12.09243048 6.34408944
v 0.88317222 12.28859626 6.17041449
v 0.88377303 12.23627226 5.91369247
v 0.88497465 11.98778247 5.83064539
vt 0.0000000e+0 1.6833632e-2
vt 0.0000000e+0 8.2780776e-2
vt 0.0000000e+0 0.14017950
vt 0.0000000e+0 0.18925683
vt 2.4596148e-6 7.4604899e-2
vt 1.8752742e-5 0.18107918
vt 1.8752742e-5 0.14835715
vt 3.7167525e-5 6.6425903e-2
vt 4.3973161e-5 2.5012116e-2
vt 9.2837731e-5 3.3188378e-2
vt 0.16954303 8.2731619e-2
vt 0.16955693 0.18925969
vt 0.16955693 0.14017664
vt 0.16955938 7.4555291e-2
vt 0.16957070 1.6594189e-2
vt 0.16957568 0.18108203
vt 0.16957568 0.14835429
vt 0.16960073 2.4773140e-2
vt 0.16960799 6.6375846e-2
vt 0.16963566 3.2949868e-2
vt 0.62281479 0.42831460
vt 0.62540689 0.42055855
vt 0.62823561 0.43443744
vt 0.63043571 0.63708443
vt 0.63302781 0.64484048
vt 0.63341981 0.41892532
vt 0.63585653 0.63096159
vt 0.63624853 0.43280421
vt 0.63884064 0.42504815
vt 0.64104074 0.64647371
vt 0.64386945 0.63259482
vt 0.64646156 0.64035087
vn 0.50101255 -0.82081305 -0.27432165
vn 0.50050289 -0.64687735 0.57536645
vn 0.49948807 0.17495643 0.84847034
vn 0.49898289 0.82192444 0.27469308
vn 0.49948807 0.64994890 -0.57278102
vn 0.50050289 -0.17094758 -0.84868945
vn -0.49898289 -0.82192444 -0.27469308
vn -0.49948807 -0.64994890 0.57278102
vn -0.50050289 0.17094758 0.84868945
vn -0.50101255 0.82081305 0.27432165
vn -0.50050289 0.64687735 -0.57536645
vn -0.49948807 -0.17495643 -0.84847034
g cylinder8_sep68_cylinder8_auv
usemtl cylinder8_auv
f 1/26/1 6/29/6 5/28/5 4/23/4 3/21/3 2/22/2
f 1/1/1 7/15/7 12/18/12 6/9/6
f 2/6/2 8/16/8 7/12/7 1/4/1
f 3/14/3 9/5/9 8/8/8 2/19/2
f 4/11/4 10/2/10 9/5/9 3/14/3
f 5/17/5 11/7/11 10/3/10 4/13/4
f 6/9/6 12/18/12 11/20/11 5/10/5
f 8/31/8 9/32/9 10/30/10 11/25/11 12/24/12 7/27/7
o cylinder8_sep67
#51 vertices, 51 faces
v -1.33569089 11.91216265 6.03444219
v -1.33569089 11.93607538 6.29015455
v -1.33569089 11.74581452 6.58753835
v -1.33569089 11.41405325 6.81300308
v -1.33569089 11.06751309 6.88042887
v -1.33569089 10.83856062 6.76406138
v -1.33569089 10.81464788 6.50834902
v -1.33569089 11.00490874 6.21096522
v -1.33569089 11.33667002 5.98550049
v -1.33569089 11.68321017 5.91807469
v -1.11891814 12.36724058 5.72517155
v -1.11891814 12.41142555 6.19766639
v -1.11891814 12.05986932 6.74715999
v -1.11891814 11.44685442 7.16376449
v -1.11891814 10.80653170 7.28835112
v -1.11891814 10.38348269 7.07333202
v -1.11891814 10.33929772 6.60083718
v -1.11891814 10.69085395 6.05134358
v -1.11891814 11.30386885 5.63473908
v -1.11891814 11.94419156 5.51015245
v -0.79449479 12.67131392 5.51852352
v -0.79449479 12.72904437 6.13586777
v -0.79449479 12.26971402 6.85381576
v -0.79449479 11.46877146 7.39813577
v -0.79449479 10.63214951 7.56091604
v -0.79449479 10.07940934 7.27998005
v -0.79449479 10.02167889 6.66263580
v -0.79449479 10.48100924 5.94468780
v -0.79449479 11.28195181 5.40036780
v -0.79449479 12.11857375 5.23758753
v 0.27888195 12.77809029 5.44595838
v 0.27888195 12.84057727 6.11416698
v 0.27888195 12.34340168 6.89126829
v 0.27888195 11.47646770 7.48043602
v 0.27888195 10.57091463 7.65662812
v 0.27888195 9.97263298 7.35254519
v 0.27888195 9.91014599 6.68433659
v 0.27888195 10.40732158 5.90723528
v 0.27888195 11.27425557 5.31806755
v 0.27888195 12.17980863 5.14187545
v -1.41181136 11.37536163 6.39925178
v 1.11608596 12.00765697 5.41095399
v 1.11608596 12.47790635 5.64996316
v 1.11608596 12.52702112 6.17517513
v 1.11608596 12.13624111 6.78597676
v 1.11608596 11.45483100 7.24906259
v 1.11608596 10.74306629 7.38754958
v 1.11608596 10.27281691 7.14854040
v 1.11608596 10.22370214 6.62332844
v 1.11608596 10.61448215 6.01252681
v 1.11608596 11.29589226 5.54944098
vt 0.56122067 0.31521566
vt 0.57174657 0.33265771
vt 0.57352390 0.30657129
vt 0.57552148 0.28587942
vt 0.58159807 0.31990664
vt 0.58716766 0.29723073
vt 0.58725251 0.26531466
vt 0.58834624 0.28655349
vt 0.59112157 0.30381131
vt 0.59441966 0.27602458
vt 0.59731785 0.32062371
vt 0.59882265 0.30401817
vt 0.60099949 0.28683305
vt 0.60287358 0.26973487
vt 0.60445601 0.25330723
vt 0.60759948 0.29767698
vt 0.61063094 0.26986923
vt 0.61369602 0.28703011
vt 0.61461825 0.30858698
vt 0.61477403 0.27646910
vt 0.61961190 0.25379689
vt 0.62672307 0.28777207
vt 0.62808339 0.26650070
vt 0.62865313 0.24089292
vt 0.63973410 0.25745087
vt 0.74241814 0.52398395
vt 0.74241814 0.56268238
vt 0.74241829 0.60813880
vt 0.74333515 0.58411983
vt 0.74396529 0.45732946
vt 0.74489829 0.50686926
vt 0.74498304 0.48366488
vt 0.75478529 0.61218559
vt 0.75516116 0.53537822
vt 0.75530650 0.55519480
vt 0.75565260 0.58182921
vt 0.77068101 0.53322776
vt 0.77136769 0.45268002
vt 0.77184308 0.48511809
vt 0.77188197 0.51268301
vt 0.78843860 0.55377252
vt 0.78847748 0.58133744
vt 0.78895288 0.61377551
vt 0.78963956 0.53322776
vt 0.80466797 0.48462632
vt 0.80501406 0.51126073
vt 0.80515941 0.53107731
vt 0.80553528 0.45426994
vt 0.81533752 0.58279065
vt 0.81542228 0.55958626
vt 0.81635528 0.60912607
vt 0.81698542 0.48233570
vt 0.81790228 0.45831673
vt 0.81790243 0.50377315
vt 0.81790243 0.54247158
vt 0.82737883 3.1009072e-3
vt 0.82737883 4.0031174e-2
vt 0.82737883 5.8436078e-2
vt 0.82737883 0.51489864
vt 0.82936863 9.8645728e-2
vt 0.82961825 7.5324977e-2
vt 0.82964904 2.3989970e-2
vt 0.83170135 0.53711454
vt 0.83483889 0.50022102
vt 0.84045332 2.2443413e-3
vt 0.84215219 4.7478298e-2
vt 0.84297487 2.8441246e-2
vt 0.84615538 0.55838299
vt 0.85123202 0.49868803
vt 0.85537216 4.9322864e-2
vt 0.85665673 6.9884282e-2
vt 0.85731059 9.8206584e-2
vt 0.86521997 0.57058018
vt 0.87029662 0.51088522
vt 0.87459184 4.3914407e-4
vt 0.87524570 2.8761446e-2
vt 0.87653027 4.9322864e-2
vt 0.88161310 0.56904719
vt 0.88475065 0.53215367
vt 0.88892757 7.0204482e-2
vt 0.88907316 0.55436957
vt 0.88975024 5.1167430e-2
vt 0.89144912 9.6401387e-2
vt 0.90225339 7.4655758e-2
vt 0.90228419 2.3320751e-2
vt 0.90253380 0.0000000e+0
vt 0.90452360 4.0209650e-2
vt 0.90452360 5.8614554e-2
vt 0.90452360 9.5544821e-2
vn -0.97017152 0.20050046 -0.13625997
vn -0.95335931 0.28982761 8.4297039e-2
vn -0.92813651 0.26422422 0.26219873
vn -0.92813651 0.14651880 0.34219126
vn -0.95335931 -2.8315255e-2 0.30050671
vn -0.97017152 -0.20050046 0.13625997
vn -0.95335931 -0.28982761 -8.4297039e-2
vn -0.92813651 -0.26422422 -0.26219873
vn -0.92813651 -0.14651880 -0.34219126
vn -0.95335931 2.8315255e-2 -0.30050671
vn -0.85490013 0.42908328 -0.29160470
vn -0.79560330 0.58414718 0.16058477
vn -0.71874685 0.49542772 0.48780564
vn -0.71874685 0.27117111 0.64021028
vn -0.79560330 -6.5730978e-2 0.60224151
vn -0.85490013 -0.42908328 0.29160470
vn -0.79560330 -0.58414718 -0.16058477
vn -0.71874685 -0.49542772 -0.48780564
vn -0.71874685 -0.27117111 -0.64021028
vn -0.79560330 6.5730978e-2 -0.60224151
vn -0.47660049 0.72710307 -0.49413874
vn -0.40494902 0.88634327 0.22452593
vn -0.33367159 0.67451041 0.65855825
vn -0.33367159 0.36400813 0.86957538
vn -0.40494902 -0.11752579 0.90675464
vn -0.47660049 -0.72710307 0.49413874
vn -0.40494902 -0.88634327 -0.22452593
vn -0.33367159 -0.67451041 -0.65855825
vn -0.33367159 -0.36400813 -0.86957538
vn -0.40494902 0.11752579 -0.90675464
vn 0.14646934 0.81816068 -0.55602143
vn 0.11876293 0.96428588 0.23674481
vn 9.2778597e-2 0.71344917 0.69453755
vn 9.2778597e-2 0.38312653 0.91902459
vn 0.11876293 -0.13485755 0.98372192
vn 0.14646934 -0.81816068 0.55602143
vn 0.11876293 -0.96428588 -0.23674481
vn 9.2778597e-2 -0.71344917 -0.69453755
vn 9.2778597e-2 -0.38312653 -0.91902459
vn 0.11876293 0.13485755 -0.98372192
vn -1.00000000 -5.9137352e-17 -1.4080322e-16
vn 0.67013974 9.8998078e-2 -0.73560323
vn 0.72221942 0.57206187 -0.38877285
vn 0.67013974 0.72039021 0.17874752
vn 0.62105386 0.56139035 0.54693051
vn 0.62105386 0.30186156 0.72330610
vn 0.67013974 -9.8998078e-2 0.73560323
vn 0.72221942 -0.57206187 0.38877285
vn 0.67013974 -0.72039021 -0.17874752
vn 0.62105386 -0.56139035 -0.54693051
vn 0.62105386 -0.30186156 -0.72330610
g cylinder8_sep67_cylinder8_auv
usemtl cylinder8_auv
f 13/41/13 23/37/23 32/35/32 22/38/22
f 13/41/13 53/45/53 14/44/14
f 14/44/14 24/43/24 23/37/23 13/41/13
f 14/44/14 53/45/53 15/48/15
f 15/48/15 25/51/25 24/43/24 14/44/14
f 15/48/15 53/45/53 16/50/16
f 16/50/16 26/54/26 25/51/25 15/48/15
f 16/50/16 53/45/53 17/52/17
f 17/52/17 27/55/27 26/54/26 16/50/16
f 17/52/17 53/45/53 18/49/18
f 18/49/18 28/53/28 27/55/27 17/52/17
f 18/49/18 53/45/53 19/46/19
f 19/46/19 29/47/29 28/53/28 18/49/18
f 19/46/19 53/45/53 20/42/20
f 20/42/20 30/39/30 29/47/29 19/46/19
f 20/42/20 53/45/53 21/40/21
f 21/40/21 31/36/31 30/39/30 20/42/20
f 21/40/21 53/45/53 22/38/22
f 22/38/22 32/35/32 31/36/31 21/40/21
f 22/38/22 53/45/53 13/41/13
f 23/37/23 33/34/33 42/33/42 32/35/32
f 24/94/24 34/99/34 33/98/33 23/89/23
f 25/88/25 35/97/35 34/99/34 24/94/24
f 26/61/26 36/68/36 35/65/35 25/60/25
f 27/59/27 37/67/37 36/68/36 26/61/26
f 28/53/28 38/56/38 37/57/37 27/55/27
f 29/116/29 39/112/39 38/114/38 28/120/28
f 30/121/30 40/115/40 39/112/39 29/116/29
f 31/84/31 41/77/41 40/80/40 30/85/30
f 32/86/32 42/78/42 41/77/41 31/84/31
f 33/79/33 43/69/43 52/72/52 42/78/42
f 34/99/34 44/108/44 43/109/43 33/98/33
f 35/97/35 45/107/45 44/108/44 34/99/34
f 36/68/36 46/74/46 45/75/45 35/65/35
f 37/67/37 47/73/47 46/74/46 36/68/36
f 38/66/38 48/76/48 47/73/47 37/67/37
f 39/112/39 49/103/49 48/102/48 38/114/38
f 40/115/40 50/104/50 49/103/49 39/112/39
f 41/77/41 51/71/51 50/70/50 40/80/40
f 42/78/42 52/72/52 51/71/51 41/77/41
f 43/69/43 55/58/55 54/63/54 52/72/52
f 44/108/44 56/117/56 55/119/55 43/109/43
f 45/107/45 57/118/57 56/117/56 44/108/44
f 46/74/46 58/81/58 57/83/57 45/75/45
f 47/73/47 59/82/59 58/81/58 46/74/46
f 48/76/48 60/87/60 59/82/59 47/73/47
f 49/103/49 61/93/61 60/90/60 48/102/48
f 50/104/50 62/92/62 61/93/61 49/103/49
f 51/71/51 63/64/63 62/62/62 50/70/50
f 52/72/52 54/63/54 63/64/63 51/71/51
f 55/110/55 56/105/56 57/100/57 58/95/58 59/91/59 60/96/60 61/101/61 62/106/62 63/111/63 54/113/54
o cylinder8_sep66
#12 vertices, 8 faces
v 1.94576579 10.26344884 6.56216623
v 1.94558429 10.35982966 7.03504819
v 1.94522130 10.81754785 7.18802092
v 1.94503980 11.17888521 6.86811167
v 1.94522130 11.08250439 6.39522971
v 1.94558429 10.62478620 6.24225699
v -0.13404333 10.26312929 6.56205943
v -0.13422482 10.35951011 7.03494140
v -0.13458782 10.81722830 7.18791412
v -0.13476932 11.17856566 6.86800488
v -0.13458782 11.08218484 6.39512292
v -0.13422482 10.62446666 6.24215019
vt 0.25904532 0.31169232
vt 0.25905099 0.32675555
vt 0.32396119 0.31168706
vt 0.32396686 0.32675030
vt 0.33228811 0.41533123
vt 0.33230009 0.43039522
vt 0.33231425 0.44545723
vt 0.36471321 0.84605483
vt 0.36471682 0.83099326
vt 0.36472670 0.81592883
vt 0.39720723 0.41531019
vt 0.39721595 0.43037464
vt 0.39722686 0.44543713
vt 0.42962601 0.84606225
vt 0.42963269 0.83100021
vt 0.42964564 0.81593531
vt 0.56122067 0.34772095
vt 0.56122634 0.33265771
vt 0.62613654 0.34772621
vt 0.62614221 0.33266297
vt 0.65463586 0.86262330
vt 0.65941051 0.87690980
vt 0.66462100 0.85134509
vt 0.67417030 0.87991808
vt 0.67938079 0.85435337
vt 0.68415544 0.86863987
vt 0.79173847 0.83322360
vt 0.79651312 0.81893711
vt 0.80172361 0.84450182
vt 0.81127291 0.81592883
vt 0.81648340 0.84149354
vt 0.82125805 0.82720704
vn 0.50026801 -0.82122144 -0.27445813
vn 0.50013391 -0.64814045 0.57426477
vn 0.49986584 0.17328845 0.84859016
vn 0.49973188 0.82151501 0.27455625
vn 0.49986584 0.64868813 -0.57387965
vn 0.50013391 -0.17261927 -0.84856859
vn -0.49973188 -0.82151501 -0.27455625
vn -0.49986584 -0.64868813 0.57387965
vn -0.50013391 0.17261927 0.84856859
vn -0.50026801 0.82122144 0.27445813
vn -0.50013391 0.64814045 -0.57426477
vn -0.49986584 -0.17328845 -0.84859016
g cylinder8_sep66_cylinder8_auv
usemtl cylinder8_auv
f 64/151/64 69/153/69 68/152/68 67/150/67 66/148/66 65/149/65
f 64/126/64 70/132/70 75/133/75 69/127/69
f 65/139/65 71/141/71 70/140/70 64/138/64
f 66/136/66 72/130/72 71/131/71 65/137/65
f 67/135/67 73/129/73 72/130/72 66/136/66
f 68/125/68 74/123/74 73/122/73 67/124/67
f 69/127/69 75/133/75 74/134/74 68/128/68
f 71/146/71 72/147/72 73/145/73 74/143/74 75/142/75 70/144/70
o cylinder8_sep65
#12 vertices, 8 faces
v 1.94576579 11.58263480 5.93447708
v 1.94558429 11.67901563 6.40735904
v 1.94522130 12.13673381 6.56033176
v 1.94503980 12.49807118 6.24042252
v 1.94522130 12.40169036 5.76754056
v 1.94558429 11.94397217 5.61456784
v -0.13404333 11.58231526 5.93437028
v -0.13422482 11.67869608 6.40725225
v -0.13458782 12.13641426 6.56022497
v -0.13476932 12.49775163 6.24031573
v -0.13458782 12.40137081 5.76743377
v -0.13422482 11.94365262 5.61446104
vt 0.25904532 0.28156106
vt 0.25905730 0.29662504
vt 0.25907147 0.31168706
vt 0.29978078 0.84605483
vt 0.29978439 0.83099326
vt 0.29979427 0.81592883
vt 0.32396445 0.28154001
vt 0.32397317 0.29660447
vt 0.32398407 0.31166695
vt 0.36469358 0.84606225
vt 0.36470026 0.83100021
vt 0.36471321 0.81593531
vt 0.36933662 0.62522376
vt 0.36934229 0.64028699
vt 0.43425249 0.62521850
vt 0.43425816 0.64028173
vt 0.56607713 0.86863987
vt 0.57085177 0.85435337
vt 0.57606227 0.87991808
vt 0.58561156 0.85134509
vt 0.59082206 0.87690980
vt 0.59121367 0.80750948
vt 0.59121934 0.79244624
vt 0.59559670 0.86262330
vt 0.62511628 0.86262330
vt 0.62989093 0.87690980
vt 0.63510142 0.85134509
vt 0.64465072 0.87991808
vt 0.64986121 0.85435337
vt 0.65463586 0.86863987
vt 0.65612954 0.80751473
vt 0.65613521 0.79245150
vn 0.50026801 -0.82122144 -0.27445813
vn 0.50013391 -0.64814045 0.57426477
vn 0.49986584 0.17328845 0.84859016
vn 0.49973188 0.82151501 0.27455625
vn 0.49986584 0.64868813 -0.57387965
vn 0.50013391 -0.17261927 -0.84856859
vn -0.49973188 -0.82151501 -0.27455625
vn -0.49986584 -0.64868813 0.57387965
vn -0.50013391 0.17261927 0.84856859
vn -0.50026801 0.82122144 0.27445813
vn -0.50013391 0.64814045 -0.57426477
vn -0.49986584 -0.17328845 -0.84859016
g cylinder8_sep65_cylinder8_auv
usemtl cylinder8_auv
f 76/173/76 81/177/81 80/174/80 79/172/79 78/170/78 77/171/77
f 76/154/76 82/160/82 87/161/87 81/155/81
f 77/176/77 83/185/83 82/184/82 76/175/76
f 78/164/78 84/158/84 83/159/83 77/165/77
f 79/163/79 85/157/85 84/158/84 78/164/78
f 80/169/80 86/167/86 85/166/85 79/168/79
f 81/155/81 87/161/87 86/162/86 80/156/80
f 83/182/83 84/183/84 85/181/85 86/179/86 87/178/87 82/180/82
o cylinder8_sep64
#12 vertices, 8 faces
v 6.31793059 10.47260420 6.63206746
v 6.31732978 10.52492821 6.88878948
v 6.31612816 10.77341800 6.97183656
v 6.31552734 10.96958378 6.79816162
v 6.31612816 10.91725977 6.54143960
v 6.31732978 10.66876998 6.45839252
v 0.88557546 10.47243073 6.63200948
v 0.88497465 10.52475473 6.88873151
v 0.88377303 10.77324452 6.97177859
v 0.88317222 10.96941030 6.79810365
v 0.88377303 10.91708629 6.54138163
v 0.88497465 10.66859650 6.45833454
vt 0.0000000e+0 2.3944313e-4
vt 0.0000000e+0 9.9185707e-2
vt 0.0000000e+0 0.13199899
vt 0.0000000e+0 0.19743734
vt 2.4596148e-6 9.1009829e-2
vt 1.8752742e-5 0.18925969
vt 1.8752742e-5 0.14017664
vt 3.7167525e-5 8.2830834e-2
vt 4.3973161e-5 8.4179269e-3
vt 9.2837731e-5 1.6594189e-2
vt 0.16954303 9.9136549e-2
vt 0.16955693 0.19744019
vt 0.16955693 0.13199613
vt 0.16955938 9.0960222e-2
vt 0.16957070 0.0000000e+0
vt 0.16957568 0.18926254
vt 0.16957568 0.14017379
vt 0.16960073 8.1789507e-3
vt 0.16960799 8.2780776e-2
vt 0.16963566 1.6355679e-2
vt 0.25740437 0.63460778
vt 0.25999647 0.62685172
vt 0.26282519 0.64073061
vt 0.26800940 0.62521850
vt 0.27083811 0.63909739
vt 0.27343022 0.63134133
vt 0.62614221 0.33878054
vt 0.62873431 0.34653660
vt 0.63156303 0.33265771
vt 0.63674723 0.34816983
vt 0.63957595 0.33429094
vt 0.64216805 0.34204699
vn 0.50101255 -0.82081305 -0.27432165
vn 0.50050289 -0.64687735 0.57536645
vn 0.49948807 0.17495643 0.84847034
vn 0.49898289 0.82192444 0.27469308
vn 0.49948807 0.64994890 -0.57278102
vn 0.50050289 -0.17094758 -0.84868945
vn -0.49898289 -0.82192444 -0.27469308
vn -0.49948807 -0.64994890 0.57278102
vn -0.50050289 0.17094758 0.84868945
vn -0.50101255 0.82081305 0.27432165
vn -0.50050289 0.64687735 -0.57536645
vn -0.49948807 -0.17495643 -0.84847034
g cylinder8_sep64_cylinder8_auv
usemtl cylinder8_auv
f 88/209/88 93/211/93 92/210/92 91/208/91 90/206/90 89/207/89
f 88/186/88 94/200/94 99/203/99 93/194/93
f 89/191/89 95/201/95 94/197/94 88/189/88
f 90/199/90 96/190/96 95/193/95 89/204/89
f 91/196/91 97/187/97 96/190/96 90/199/90
f 92/202/92 98/192/98 97/188/97 91/198/91
f 93/194/93 99/203/99 98/205/98 92/195/92
f 95/216/95 96/217/96 97/215/97 98/213/98 99/212/99 94/214/94
