# Exported from Wings 3D 0.99.04a
mtllib rightlegbottom.mtl
o cylinder8_sep41
#20 vertices, 12 faces
v 2.68364400 0.40228916 1.53921858
v 2.63098782 1.53001854 1.16358647
v 2.14315042 3.00423193 1.16358647
v 0.32151907 4.26182994 1.16358647
v -1.46756898 4.82245285 1.16358647
v -2.54074289 4.47196178 1.16358647
v -2.48808670 3.34423240 1.16358647
v -1.32971330 1.87001900 1.53921858
v -0.17861795 0.33210954 1.53921858
v 1.61047009 0.33210954 1.53921858
v 2.68364400 0.40228916 2.87479945
v 2.63098782 1.53001854 3.25043156
v 2.14315042 3.00423193 3.25043156
v 0.32151907 4.26182994 3.25043156
v -1.46756898 4.82245285 3.25043156
v -2.54074289 4.47196178 3.25043156
v -2.48808670 3.34423240 3.25043156
v -1.32971330 1.87001900 2.87479945
v -0.17861795 0.33210954 2.87479945
v 1.61047009 0.33210954 2.87479945
vt 0.0000000e+0 0.32771115
vt 5.5511151e-17 0.26257567
vt 3.5237508e-2 0.26257567
vt 3.5237508e-2 0.32771115
vt 9.3756703e-2 0.26257567
vt 9.3756703e-2 0.32771115
vt 0.16265244 0.32905541
vt 0.16284758 0.26257567
vt 0.16284758 0.32771115
vt 0.16348499 0.36607136
vt 0.16963566 0.28154001
vt 0.16963566 0.27088258
vt 0.16963566 0.32322672
vt 0.17101245 0.23577786
vt 0.17947078 0.41167273
vt 0.19609255 0.32771115
vt 0.20311187 0.28154001
vt 0.20320356 0.28154001
vt 0.20320356 0.32322672
vt 0.20709033 0.18845992
vt 0.23628625 0.45062052
vt 0.24317391 0.14080014
vt 0.25176664 0.32774129
vt 0.25865429 0.26367937
vt 0.25904532 0.28154001
vt 0.25904532 0.32322672
vt 0.28785021 0.37540107
vt 0.29182868 0.46848116
vt 0.29884800 0.14077001
vt 0.31546977 0.22473159
vt 0.32392809 0.42271901
vt 0.32530488 0.45782373
vt 0.33145556 0.17913022
vt 0.33228811 0.30749151
vt 0.33228811 0.14211426
vt 0.33233986 0.27225404
vt 0.34415017 0.21375212
vt 0.34423823 0.15379358
vt 0.38583683 0.21381335
vt 0.38592489 0.15385480
vt 0.39742351 0.30758717
vt 0.39747526 0.27234970
vt 0.74241814 0.10905225
vt 0.74263317 0.15751945
vt 0.75398607 7.3763074e-2
vt 0.79567236 7.3578123e-2
vt 0.80755297 0.10876327
vt 0.80776801 0.15723046
vn 0.57601209 -0.59701173 -0.55837897
vn 0.88115659 0.11553511 -0.45849178
vn 0.71904444 0.49948818 -0.48320456
vn 0.39230194 0.79019329 -0.47084366
vn -2.4942215e-2 0.87465942 -0.48409585
vn -0.72783654 0.42803290 -0.53576283
vn -0.82297369 -0.34951067 -0.44783545
vn -0.70033100 -0.57159963 -0.42756328
vn -0.39113313 -0.79583386 -0.46223732
vn 1.0951132e-2 -0.90461969 -0.42607896
vn 0.57601209 -0.59701173 0.55837897
vn 0.88115659 0.11553511 0.45849178
vn 0.71904444 0.49948818 0.48320456
vn 0.39230194 0.79019329 0.47084366
vn -2.4942215e-2 0.87465942 0.48409585
vn -0.72783654 0.42803290 0.53576283
vn -0.82297369 -0.34951067 0.44783545
vn -0.70033100 -0.57159963 0.42756328
vn -0.39113313 -0.79583386 0.46223732
vn 1.0951132e-2 -0.90461969 0.42607896
g cylinder8_sep41_cylinder8_auv
usemtl cylinder8_auv
f 1/7/1 10/16/10 9/23/9 8/27/8 7/31/7 6/32/6 5/28/5 4/21/4 3/15/3 2/10/2
f 1/13/1 11/11/11 20/18/20 10/19/10
f 2/47/2 12/43/12 11/45/11 1/46/1
f 3/48/3 13/44/13 12/43/12 2/47/2
f 4/6/4 14/5/14 13/8/13 3/9/3
f 5/4/5 15/3/15 14/5/14 4/6/4
f 6/1/6 16/2/16 15/3/15 5/4/5
f 7/36/7 17/42/17 16/41/16 6/34/6
f 8/37/8 18/39/18 17/42/17 7/36/7
f 9/38/9 19/40/19 18/39/18 8/37/8
f 10/19/10 20/18/20 19/25/19 9/26/9
f 12/33/12 13/30/13 14/24/14 15/17/15 16/12/16 17/14/17 18/20/18 19/22/19 20/29/20 11/35/11
