# Exported from Wings 3D 0.99.04a
mtllib Terra Solar.mtl
o cylinder2
#33 vertices, 32 faces
v 2.01331200 0.81830818 -1.6175460e-16
v -1.00665600 0.81830818 1.74357934
v -1.00665600 0.81830818 -1.74357934
v 2.99600000 -4.7344842e-3 -2.7085489e-16
v -1.49800000 -4.7344842e-3 2.59461211
v -1.49800000 -4.7344842e-3 -2.59461211
v -0.79324493 0.69161251 1.37394052
v 1.58648986 0.69161251 -2.0722528e-17
v -0.79324493 0.69161251 -1.37394052
v -0.90237283 0.68842622 -1.77290408
v 1.98656639 0.68842622 -0.10497425
v 2.65910415 0.12514747 -0.10497425
v -1.23864171 0.12514747 -2.35533887
v -1.08419356 0.68842622 1.66792983
v -1.08419356 0.68842622 -1.66792983
v -1.42046244 0.12514747 -2.25036462
v -1.42046244 0.12514747 2.25036462
v 1.98656639 0.68842622 0.10497425
v -0.90237283 0.68842622 1.77290408
v -1.23864171 0.12514747 2.35533887
v 2.65910415 0.12514747 0.10497425
v -0.84958076 0.74151185 -1.86434262
v 2.03935845 0.74151185 -0.19641279
v 2.71189621 0.17823310 -0.19641279
v -1.18584964 0.17823310 -2.44677740
v -1.18977769 0.74151185 1.66792983
v -1.18977769 0.74151185 -1.66792983
v -1.52604657 0.17823310 -2.25036462
v -1.52604657 0.17823310 2.25036462
v 2.03935845 0.74151185 0.19641279
v -0.84958076 0.74151185 1.86434262
v -1.18584964 0.17823310 2.44677740
v 2.71189621 0.17823310 0.19641279
vt 3.7399780e-3 0.99684972
vt 3.7399780e-3 8.1502980e-2
vt 2.5165973e-2 0.99525757
vt 2.5601928e-2 0.99472744
vt 2.5826132e-2 0.99443543
vt 7.1189351e-2 1.3212494e-2
vt 7.1230675e-2 1.3899094e-2
vt 7.1263962e-2 1.3651545e-2
vt 9.4814423e-2 0.94846252
vt 9.5297449e-2 0.94800253
vt 9.5601205e-2 0.94782940
vt 0.12926068 3.8819390e-2
vt 0.12933511 3.9430795e-2
vt 0.12934795 3.9229713e-2
vt 0.19558513 0.94260667
vt 0.19580783 0.94273042
vt 0.19582970 0.94307997
vt 0.21462289 0.17518890
vt 0.21477760 0.17555698
vt 0.21487377 0.17568968
vt 0.22742456 0.14967375
vt 0.22756666 0.15003550
vt 0.22764241 0.15015798
vt 0.28955631 0.83703899
vt 0.28965302 0.83705072
vt 0.28966414 0.83739073
vt 0.61268564 0.94830277
vt 0.61316857 0.94836407
vt 0.61347096 0.94907379
vt 0.68236295 0.99505483
vt 0.68279878 0.99518625
vt 0.68302125 0.99601460
vt 0.79047317 0.15040263
vt 0.79061555 0.15048586
vt 0.79069148 0.15015798
vt 0.79645351 0.53917635
vt 0.80320874 0.17595084
vt 0.80336376 0.17602777
vt 0.80346012 0.17568968
vt 0.82698691 0.83773471
vt 0.82708407 0.83710540
vt 0.82709519 0.83739073
vt 0.88892373 3.9802796e-2
vt 0.88899879 3.9430795e-2
vt 0.88901139 3.9837342e-2
vt 0.92068446 0.94354533
vt 0.92090776 0.94280418
vt 0.92092964 0.94307997
vt 0.94706116 1.4346335e-2
vt 0.94710322 1.3899094e-2
vt 0.94713623 1.4352126e-2
vt 0.95607620 0.98783389
vt 0.95673481 0.98807438
vt 0.95709669 0.98814005
vt 0.96619981 0.50872373
vt 0.96623425 0.50895145
vt 0.96662491 0.50901768
vt 0.96790075 0.60045647
vt 0.96805470 0.60068189
vt 0.96843984 0.60074823
vt 0.96980052 0.98824256
vt 0.97045965 0.98846517
vt 0.97082151 0.98853166
vt 0.97190187 9.0075221e-2
vt 0.97231768 9.0141797e-2
vt 0.97241311 8.9855245e-2
vt 0.97737407 1.0743213e-2
vt 0.97742892 0.50890527
vt 0.97746359 0.50911836
vt 0.97779464 1.0810118e-2
vt 0.97785424 0.50918527
vt 0.97798865 1.0530434e-2
vt 0.98133582 0.60084408
vt 0.98149026 0.60105200
vt 0.98187538 0.60111915
vt 0.98285352 9.0219904e-2
vt 0.98326932 9.0287138e-2
vt 0.98336456 9.0014195e-2
vt 0.98808172 1.0901483e-2
vt 0.98850229 1.0969031e-2
vt 0.98869609 1.0702653e-2
vt 0.99397834 4.8185524e-3
vt 0.99750154 2.7844337e-3
vt 0.99750154 6.8526711e-3
vn 0.30485261 0.95239954 1.6827667e-16
vn -0.15242631 0.95239954 0.26401011
vn -0.15242631 0.95239954 -0.26401011
vn 0.85307771 0.52178389 2.7576000e-16
vn -0.42653885 0.52178389 0.73878697
vn -0.42653885 0.52178389 -0.73878697
vn 9.2236906e-2 0.98283743 -0.15975901
vn -0.18447381 0.98283743 -2.0059944e-17
vn 9.2236906e-2 0.98283743 0.15975901
vn -5.8024632e-2 0.89903626 -0.43401261
vn 0.40487826 0.89903626 -0.16675550
vn 0.73918009 0.33938518 -0.58174780
vn 0.13421833 0.33938518 -0.93102263
vn -0.34685363 0.89903626 0.26725711
vn -0.34685363 0.89903626 -0.26725711
vn -0.87339842 0.33938518 -0.34927483
vn -0.87339842 0.33938518 0.34927483
vn 0.40487826 0.89903626 0.16675550
vn -5.8024632e-2 0.89903626 0.43401261
vn 0.13421833 0.33938518 0.93102263
vn 0.73918009 0.33938518 0.58174780
vn -0.27667235 0.93554522 -0.21956221
vn 0.32848262 0.93554522 0.12982418
vn 0.90416714 0.16741164 -0.39300780
vn -0.11172883 0.16741164 -0.97953561
vn -5.1810275e-2 0.93554522 0.34938638
vn -5.1810275e-2 0.93554522 -0.34938638
vn -0.79243831 0.16741164 -0.58652781
vn -0.79243831 0.16741164 0.58652781
vn 0.32848262 0.93554522 -0.12982418
vn -0.27667235 0.93554522 0.21956221
vn -0.11172883 0.16741164 0.97953561
vn 0.90416714 0.16741164 0.39300780
g cylinder2_cylinder2_auv
usemtl cylinder2_auv
f 1/32/1 8/29/8 7/11/7 2/5/2
f 1/18/1 11/21/11 10/33/10 3/37/3
f 1/38/1 18/34/18 21/45/21 4/51/4
f 2/31/2 7/28/7 9/10/9 3/4/3
f 2/39/2 14/35/14 17/44/17 5/50/5
f 2/19/2 19/22/19 18/34/18 1/38/1
f 3/30/3 9/27/9 8/9/8 1/3/1
f 3/37/3 10/33/10 13/43/13 6/49/6
f 3/20/3 15/23/15 14/35/14 2/39/2
f 4/6/4 12/12/12 11/21/11 1/18/1
f 4/51/4 21/45/21 20/14/20 5/8/5
f 5/83/5 6/84/6 4/82/4
f 5/50/5 17/44/17 16/13/16 6/7/6
f 5/8/5 20/14/20 19/22/19 2/19/2
f 6/49/6 13/43/13 12/12/12 4/6/4
f 6/7/6 16/13/16 15/23/15 3/20/3
f 8/36/8 9/1/9 7/2/7
f 10/74/10 22/59/22 25/56/25 13/69/13
f 11/62/11 23/53/23 22/59/22 10/74/10
f 12/76/12 24/64/24 23/67/23 11/79/11
f 13/69/13 25/56/25 24/64/24 12/76/12
f 14/75/14 26/60/26 29/57/29 17/71/17
f 15/63/15 27/54/27 26/60/26 14/75/14
f 16/77/16 28/65/28 27/70/27 15/80/15
f 17/71/17 29/57/29 28/65/28 16/77/16
f 18/73/18 30/58/30 33/55/33 21/68/21
f 19/61/19 31/52/31 30/58/30 18/73/18
f 20/78/20 32/66/32 31/72/31 19/81/19
f 21/68/21 33/55/33 32/66/32 20/78/20
f 23/25/23 24/16/24 25/47/25 22/41/22
f 27/26/27 28/17/28 29/48/29 26/42/26
f 31/24/31 32/15/32 33/46/33 30/40/30
