# Exported from Wings 3D 1.0.1
mtllib barrel1.mtl
o Box01
#36 vertices, 38 faces
v 0.40099999 3.75099993 -0.30099994
v 0.28384268 4.03384256 -0.30099994
v 9.9999586e-4 4.15100002 -0.30099994
v -0.28184274 4.03384256 -0.30099994
v -0.39900002 3.75099993 -0.30099994
v -0.28184271 3.46815729 -0.30099994
v 1.0000658e-3 3.35099983 -0.30099994
v 0.28384274 3.46815729 -0.30099994
v 0.40099999 3.75099993 0.86566681
v 0.28384268 4.03384256 0.86566681
v 9.9999586e-4 4.15100002 0.86566681
v -0.28184274 4.03384256 0.86566681
v -0.39900002 3.75099993 0.86566657
v -0.28184271 3.46815705 0.86566657
v 1.0000658e-3 3.35099983 0.86566657
v 0.28384274 3.46815729 0.86566657
v 0.40099996 3.75099993 2.55656719
v 0.28384265 4.03384256 2.55656719
v 9.9997292e-4 4.15099955 2.55656719
v -0.28184277 4.03384256 2.55656719
v -0.39900005 3.75099969 2.55656719
v -0.28184274 3.46815705 2.55656719
v 1.0000429e-3 3.35099983 2.55656719
v 0.28384271 3.46815705 2.55656719
v 0.40099999 3.75099969 3.19899988
v 0.28384268 4.03384256 3.19900036
v 9.9999586e-4 4.15099955 3.19900036
v -0.28184274 4.03384256 3.19900036
v -0.39900002 3.75099969 3.19899988
v -0.28184271 3.46815705 3.19899988
v 1.0000658e-3 3.35099983 3.19899988
v 0.28384274 3.46815705 3.19899988
v 0.76692212 3.43374443 3.03090858
v 0.31825531 4.51692200 3.03090906
v -0.76492226 4.06825495 3.03090906
v -0.31625524 2.98507738 3.03090858
vt 6.6046463e-3 0.89900541
vt 4.8933867e-2 0.86230576
vt 5.8505718e-2 0.77370524
vt 6.2486295e-2 0.82958698
vt 6.2486295e-2 0.89502454
vt 9.5205136e-2 0.81603456
vt 9.5205136e-2 0.90857708
vt 0.12792391 0.82958698
vt 0.12792391 0.89502454
vt 0.13190448 0.95090640
vt 0.14147639 0.86230576
vt 0.18380576 0.82560623
vt 0.24733809 0.10454288
vt 0.26548842 0.16403666
vt 0.27433231 0.10568479
vt 0.71552342 0.42009583
vt 0.71552342 0.56854963
vt 0.71552342 0.78371012
vt 0.75151408 0.42009583
vt 0.75151408 0.56854963
vt 0.75151408 0.78371012
vt 0.75151408 0.86545730
vt 0.75558943 0.91271502
vt 0.76601452 0.88754684
vt 0.76601452 0.93788320
vt 0.78750455 0.42009583
vt 0.78750455 0.56854963
vt 0.78754568 0.78506041
vt 0.78754568 0.86498493
vt 0.79118282 0.87712175
vt 0.79118282 0.94830829
vt 0.81635100 0.88754684
vt 0.81635100 0.93788320
vt 0.82677609 0.91271502
vt 0.84944612 0.84273869
vn 0.87946522 7.9096008e-8 -0.47596316
vn 0.62187596 0.62187572 -0.47596310
vn 2.5979770e-8 0.87946518 -0.47596323
vn -0.62187597 0.62187571 -0.47596311
vn -0.87946521 2.5977278e-8 -0.47596317
vn -0.62187583 -0.62187579 -0.47596319
vn 2.1194315e-7 -0.87946518 -0.47596323
vn 0.62187602 -0.62187566 -0.47596311
vn 1.00000000 1.2718938e-7 1.5119994e-9
vn 0.70710679 0.70710677 4.1271341e-8
vn 3.1686804e-8 1.00000000 7.0500491e-8
vn -0.70710683 0.70710674 3.6529704e-8
vn -1.00000000 -7.7153224e-9 -1.9393585e-8
vn -0.70710674 -0.70710682 -4.9447539e-8
vn 2.4313736e-7 -1.00000000 -4.3169967e-8
vn 0.70710695 -0.70710661 -1.8904573e-8
vn 0.96516456 0.20372551 -0.16417458
vn 0.82652991 0.53841900 -0.16417457
vn -0.20372533 0.96516461 -0.16417450
vn -0.53841875 0.82653008 -0.16417452
vn -0.96516457 -0.20372548 -0.16417455
vn -0.82652993 -0.53841894 -0.16417469
vn 0.20372561 -0.96516451 -0.16417472
vn 0.53841888 -0.82652997 -0.16417468
vn 0.65547955 0.34799033 0.67026061
vn 0.70956049 0.21742733 0.67026060
vn -0.34799053 0.65547941 0.67026065
vn -0.21742756 0.70956016 0.67026087
vn -0.65547927 -0.34799135 0.67026035
vn -0.70956040 -0.21742787 0.67026052
vn 0.34799064 -0.65547957 0.67026044
vn 0.21742746 -0.70956065 0.67026038
vn 0.91449024 -0.37879411 0.14220628
vn 0.37879365 0.91449042 0.14220632
vn -0.91449060 0.37879318 0.14220645
vn -0.37879396 -0.91449032 0.14220614
g Box01_01 - Default
usemtl 01 - Default
f 1/31/1 8/25/8 7/23/7 6/24/6 5/30/5 4/32/4 3/34/3 2/33/2
f 1/19/1 9/20/9 16/17/16 8/16/8
f 2/26/2 10/27/10 9/20/9 1/19/1
f 3/19/3 11/20/11 10/17/10 2/16/2
f 4/26/4 12/27/12 11/20/11 3/19/3
f 5/19/5 13/20/13 12/17/12 4/16/4
f 6/26/6 14/27/14 13/20/13 5/19/5
f 7/19/7 15/20/15 14/17/14 6/16/6
f 8/26/8 16/27/16 15/20/15 7/19/7
f 9/20/9 17/21/17 24/18/24 16/17/16
f 10/27/10 18/28/18 17/21/17 9/20/9
f 11/20/11 19/21/19 18/18/18 10/17/10
f 12/27/12 20/28/20 19/21/19 11/20/11
f 13/20/13 21/21/21 20/18/20 12/17/12
f 14/27/14 22/28/22 21/21/21 13/20/13
f 15/20/15 23/21/23 22/18/22 14/17/14
f 16/27/16 24/28/24 23/21/23 15/20/15
f 17/15/17 33/14/33 24/13/24
f 18/28/18 26/29/26 25/22/25 17/21/17
f 18/28/18 34/35/34 26/29/26
f 19/15/19 34/14/34 18/13/18
f 20/28/20 28/29/28 27/22/27 19/21/19
f 20/28/20 35/35/35 28/29/28
f 21/15/21 35/14/35 20/13/20
f 22/28/22 30/29/30 29/22/29 21/21/21
f 22/28/22 36/35/36 30/29/30
f 23/15/23 36/14/36 22/13/22
f 24/28/24 32/29/32 31/22/31 23/21/23
f 24/28/24 33/35/33 32/29/32
f 25/29/25 33/35/33 17/28/17
f 26/4/26 27/6/27 28/8/28 29/11/29 30/9/30 31/7/31 32/5/32 25/2/25
f 26/4/26 34/3/34 27/6/27
f 27/29/27 34/35/34 19/28/19
f 28/8/28 35/12/35 29/11/29
f 29/29/29 35/35/35 21/28/21
f 30/9/30 36/10/36 31/7/31
f 31/29/31 36/35/36 23/28/23
f 32/5/32 33/1/33 25/2/25
