# Exported from Wings 3D 1.0.1
mtllib frontwheels.mtl
o Box01_sep9
#48 vertices, 38 faces
v -1.49900007 0.80100012 3.49900007
v -1.49900007 1.30100024 3.36502552
v -1.49900007 1.66702569 2.99900007
v -1.49899995 1.80100024 2.49900007
v -1.49899995 1.66702569 1.99899995
v -1.49899983 1.30100024 1.63297451
v -1.49899983 0.80100012 1.49899995
v -1.49899983 0.30100015 1.63297462
v -1.49899983 -6.5025233e-2 1.99899995
v -1.49899995 -0.19899981 2.49900007
v -1.49899995 -6.5025158e-2 2.99900007
v -1.49900007 0.30100030 3.36502552
v -2.34303665 0.80100012 3.49899983
v -2.34303665 1.30100012 3.36502552
v -2.34303665 1.66702569 2.99900007
v -2.34303665 1.80100024 2.49900007
v -2.34303665 1.66702557 1.99899983
v -2.34303641 1.30100024 1.63297451
v -2.34303641 0.80100012 1.49899983
v -2.34303641 0.30100012 1.63297451
v -2.34303641 -6.5025270e-2 1.99899995
v -2.34303665 -0.19899978 2.49900007
v -2.34303665 -6.5025195e-2 2.99900007
v -2.34303665 0.30100024 3.36502552
v -2.86662221 0.80100006 3.40544367
v -2.86662221 1.25422204 3.28400326
v -2.86662221 1.58600354 2.95222187
v -2.86662221 1.70744395 2.49899983
v -2.86662197 1.58600354 2.04577804
v -2.86662197 1.25422204 1.71399641
v -2.86662197 0.80100006 1.59255600
v -2.86662197 0.34777820 1.71399641
v -2.86662197 1.5996788e-2 2.04577804
v -2.86662197 -0.10544364 2.49899983
v -2.86662221 1.5996806e-2 2.95222187
v -2.86662221 0.34777832 3.28400326
v -3.04745054 0.80100006 3.00921202
v -3.04745054 1.05610633 2.94085646
v -3.04745054 1.24285698 2.75410604
v -3.04745054 1.31121230 2.49899983
v -3.04745054 1.24285698 2.24389362
v -3.04745054 1.05610621 2.05714297
v -3.04745030 0.80100006 1.98878741
v -3.04745030 0.54589397 2.05714297
v -3.04745054 0.35914332 2.24389362
v -3.04745054 0.29078782 2.49899983
v -3.04745054 0.35914335 2.75410604
v -3.04745054 0.54589403 2.94085670
vt 0.11712954 0.44834682
vt 0.13733712 0.37293145
vt 0.13733712 0.52376223
vt 0.14145961 0.89696330
vt 0.14233544 0.97310710
vt 0.17640218 0.70318848
vt 0.18306196 0.44834682
vt 0.18958963 0.65397292
vt 0.18958963 0.75240451
vt 0.19254488 0.31772336
vt 0.19254488 0.57897007
vt 0.19443625 0.40589747
vt 0.19443625 0.49079618
vt 0.22551124 0.37482235
vt 0.22551124 0.52187121
vt 0.22561802 0.61794430
vt 0.22561802 0.78843278
vt 0.24179193 0.98559809
vt 0.24273863 0.88798076
vt 0.26796058 0.29751590
vt 0.26796058 0.36344799
vt 0.26796058 0.53324544
vt 0.26796058 0.59917760
vt 0.27483374 0.60475713
vt 0.27483374 0.80162030
vt 0.31040949 0.52187121
vt 0.31040987 0.37482235
vt 0.32404968 0.61794430
vt 0.32404968 0.78843278
vt 0.34148473 0.40589747
vt 0.34148473 0.49079618
vt 0.34337589 0.31772336
vt 0.34337589 0.57897007
vt 0.35285902 0.44834682
vt 0.36007816 0.65397292
vt 0.36007816 0.75240451
vt 0.37326539 0.70318872
vt 0.39858362 0.37293145
vt 0.39858362 0.52376223
vt 0.41668016 0.98492348
vt 0.41809878 0.88845319
vt 0.41879123 0.44834682
vn 0.45970069 -3.0497047e-8 0.88807391
vn 0.45970076 0.44403677 0.76909464
vn 0.45970082 0.76909449 0.44403696
vn 0.45970081 0.88807385 4.9351966e-8
vn 0.45970083 0.76909455 -0.44403684
vn 0.45970089 0.44403693 -0.76909447
vn 0.45970095 -6.3342882e-8 -0.88807378
vn 0.45970094 -0.44403696 -0.76909442
vn 0.45970090 -0.76909453 -0.44403680
vn 0.45970085 -0.88807383 1.4724043e-7
vn 0.45970085 -0.76909446 0.44403698
vn 0.45970081 -0.44403680 0.76909459
vn -8.8339644e-2 -4.9678286e-8 0.99609041
vn -8.8339663e-2 0.49804501 0.86263971
vn -8.8339642e-2 0.86263959 0.49804522
vn -8.8339587e-2 0.99609042 -4.6716395e-8
vn -8.8339542e-2 0.86263962 -0.49804520
vn -8.8339465e-2 0.49804521 -0.86263961
vn -8.8339367e-2 -6.0832494e-8 -0.99609044
vn -8.8339367e-2 -0.49804530 -0.86263957
vn -8.8339429e-2 -0.86263967 -0.49804512
vn -8.8339480e-2 -0.99609043 4.2954208e-8
vn -8.8339535e-2 -0.86263961 0.49804521
vn -8.8339602e-2 -0.49804509 0.86263967
vn -0.61858583 -1.6581367e-8 0.78571724
vn -0.61858588 0.39285845 0.68045114
vn -0.61858589 0.68045103 0.39285861
vn -0.61858577 0.78571728 -1.5672989e-7
vn -0.61858561 0.68045120 -0.39285877
vn -0.61858557 0.39285867 -0.68045129
vn -0.61858561 -9.0481598e-8 -0.78571741
vn -0.61858561 -0.39285874 -0.68045122
vn -0.61858553 -0.68045130 -0.39285871
vn -0.61858554 -0.78571746 -1.1141331e-7
vn -0.61858574 -0.68045119 0.39285858
vn -0.61858582 -0.39285852 0.68045115
vn -0.95943136 -2.0477572e-9 0.28194232
vn -0.95943136 0.14097113 0.24416922
vn -0.95943136 0.24416923 0.14097113
vn -0.95943132 0.28194246 -1.8136711e-7
vn -0.95943125 0.24416947 -0.14097147
vn -0.95943124 0.14097126 -0.24416960
vn -0.95943127 -9.9473396e-8 -0.28194261
vn -0.95943127 -0.14097127 -0.24416949
vn -0.95943123 -0.24416953 -0.14097144
vn -0.95943123 -0.28194274 -1.7280995e-7
vn -0.95943131 -0.24416943 0.14097111
vn -0.95943134 -0.14097119 0.24416927
g Box01_sep9_01 - Default
usemtl 01 - Default
f 1/6/1 12/8/12 11/16/11 10/24/10 9/28/9 8/35/8 7/37/7 6/36/6 5/29/5 4/25/4 3/17/3 2/9/2
f 1/40/1 13/18/13 24/19/24 12/41/12
f 2/41/2 14/19/14 13/18/13 1/40/1
f 3/41/3 15/19/15 14/18/14 2/40/2
f 4/40/4 16/18/16 15/19/15 3/41/3
f 5/41/5 17/19/17 16/18/16 4/40/4
f 6/40/6 18/18/18 17/19/17 5/41/5
f 7/40/7 19/18/19 18/19/18 6/41/6
f 8/41/8 20/19/20 19/18/19 7/40/7
f 9/41/9 21/19/21 20/18/20 8/40/8
f 10/40/10 22/18/22 21/19/21 9/41/9
f 11/41/11 23/19/23 22/18/22 10/40/10
f 12/40/12 24/18/24 23/19/23 11/41/11
f 13/18/13 25/5/25 36/4/36 24/19/24
f 14/19/14 26/4/26 25/5/25 13/18/13
f 15/19/15 27/4/27 26/5/26 14/18/14
f 16/18/16 28/5/28 27/4/27 15/19/15
f 17/19/17 29/4/29 28/5/28 16/18/16
f 18/18/18 30/5/30 29/4/29 17/19/17
f 19/18/19 31/5/31 30/4/30 18/19/18
f 20/19/20 32/4/32 31/5/31 19/18/19
f 21/19/21 33/4/33 32/5/32 20/18/20
f 22/18/22 34/5/34 33/4/33 21/19/21
f 23/19/23 35/4/35 34/5/34 22/18/22
f 24/18/24 36/5/36 35/4/35 23/19/23
f 25/42/25 37/34/37 48/30/48 36/38/36
f 26/39/26 38/31/38 37/34/37 25/42/25
f 27/33/27 39/26/39 38/31/38 26/39/26
f 28/23/28 40/22/40 39/26/39 27/33/27
f 29/11/29 41/15/41 40/22/40 28/23/28
f 30/3/30 42/13/42 41/15/41 29/11/29
f 31/1/31 43/7/43 42/13/42 30/3/30
f 32/2/32 44/12/44 43/7/43 31/1/31
f 33/10/33 45/14/45 44/12/44 32/2/32
f 34/20/34 46/21/46 45/14/45 33/10/33
f 35/32/35 47/27/47 46/21/46 34/20/34
f 36/38/36 48/30/48 47/27/47 35/32/35
f 38/31/38 39/26/39 40/22/40 41/15/41 42/13/42 43/7/43 44/12/44 45/14/45 46/21/46 47/27/47 48/30/48 37/34/37
o Box01_sep6
#48 vertices, 38 faces
v 1.50100017 0.80100012 3.49900007
v 1.50100017 1.30100024 3.36502552
v 1.50100017 1.66702569 2.99900007
v 1.50100005 1.80100024 2.49900007
v 1.50100005 1.66702569 1.99899995
v 1.50099993 1.30100024 1.63297451
v 1.50099993 0.80100012 1.49899995
v 1.50099993 0.30100015 1.63297462
v 1.50099993 -6.5025233e-2 1.99899995
v 1.50100005 -0.19899981 2.49900007
v 1.50100005 -6.5025158e-2 2.99900007
v 1.50100017 0.30100030 3.36502552
v 2.34503651 0.80100012 3.49899983
v 2.34503651 1.30100012 3.36502552
v 2.34503651 1.66702569 2.99900007
v 2.34503651 1.80100024 2.49900007
v 2.34503651 1.66702557 1.99899983
v 2.34503627 1.30100024 1.63297451
v 2.34503627 0.80100012 1.49899983
v 2.34503627 0.30100012 1.63297451
v 2.34503627 -6.5025270e-2 1.99899995
v 2.34503651 -0.19899978 2.49900007
v 2.34503651 -6.5025195e-2 2.99900007
v 2.34503651 0.30100024 3.36502552
v 2.86862206 0.80100006 3.40544367
v 2.86862206 1.25422204 3.28400326
v 2.86862206 1.58600354 2.95222187
v 2.86862206 1.70744395 2.49899983
v 2.86862183 1.58600354 2.04577804
v 2.86862183 1.25422204 1.71399641
v 2.86862183 0.80100006 1.59255600
v 2.86862183 0.34777820 1.71399641
v 2.86862183 1.5996788e-2 2.04577804
v 2.86862183 -0.10544364 2.49899983
v 2.86862206 1.5996806e-2 2.95222187
v 2.86862206 0.34777832 3.28400326
v 3.04945040 0.80100006 3.00921202
v 3.04945040 1.05610633 2.94085646
v 3.04945040 1.24285698 2.75410604
v 3.04945040 1.31121230 2.49899983
v 3.04945040 1.24285698 2.24389362
v 3.04945040 1.05610621 2.05714297
v 3.04945016 0.80100006 1.98878741
v 3.04945016 0.54589397 2.05714297
v 3.04945040 0.35914332 2.24389362
v 3.04945040 0.29078782 2.49899983
v 3.04945040 0.35914335 2.75410604
v 3.04945040 0.54589403 2.94085670
vt 0.11712954 0.44834682
vt 0.13733712 0.37293145
vt 0.13733712 0.52376223
vt 0.14145961 0.89696330
vt 0.14233544 0.97310710
vt 0.17640218 0.70318848
vt 0.18306196 0.44834682
vt 0.18958963 0.65397292
vt 0.18958963 0.75240451
vt 0.19254488 0.31772336
vt 0.19254488 0.57897007
vt 0.19443625 0.40589747
vt 0.19443625 0.49079618
vt 0.22551124 0.37482235
vt 0.22551124 0.52187121
vt 0.22561802 0.61794430
vt 0.22561802 0.78843278
vt 0.24179193 0.98559809
vt 0.24273863 0.88798076
vt 0.26796058 0.29751590
vt 0.26796058 0.36344799
vt 0.26796058 0.53324544
vt 0.26796058 0.59917760
vt 0.27483374 0.60475713
vt 0.27483374 0.80162030
vt 0.31040949 0.52187121
vt 0.31040987 0.37482235
vt 0.32404968 0.61794430
vt 0.32404968 0.78843278
vt 0.34148473 0.40589747
vt 0.34148473 0.49079618
vt 0.34337589 0.31772336
vt 0.34337589 0.57897007
vt 0.35285902 0.44834682
vt 0.36007816 0.65397292
vt 0.36007816 0.75240451
vt 0.37326539 0.70318872
vt 0.39858362 0.37293145
vt 0.39858362 0.52376223
vt 0.41668016 0.98492348
vt 0.41809878 0.88845319
vt 0.41879123 0.44834682
vn -0.45970069 -3.0497047e-8 0.88807391
vn -0.45970076 0.44403677 0.76909464
vn -0.45970082 0.76909449 0.44403696
vn -0.45970081 0.88807385 4.9351966e-8
vn -0.45970083 0.76909455 -0.44403684
vn -0.45970089 0.44403693 -0.76909447
vn -0.45970095 -6.3342882e-8 -0.88807378
vn -0.45970094 -0.44403696 -0.76909442
vn -0.45970090 -0.76909453 -0.44403680
vn -0.45970085 -0.88807383 1.4724043e-7
vn -0.45970085 -0.76909446 0.44403698
vn -0.45970081 -0.44403680 0.76909459
vn 8.8339644e-2 -4.9678286e-8 0.99609041
vn 8.8339663e-2 0.49804501 0.86263971
vn 8.8339642e-2 0.86263959 0.49804522
vn 8.8339587e-2 0.99609042 -4.6716395e-8
vn 8.8339542e-2 0.86263962 -0.49804520
vn 8.8339465e-2 0.49804521 -0.86263961
vn 8.8339367e-2 -6.0832494e-8 -0.99609044
vn 8.8339367e-2 -0.49804530 -0.86263957
vn 8.8339429e-2 -0.86263967 -0.49804512
vn 8.8339480e-2 -0.99609043 4.2954208e-8
vn 8.8339535e-2 -0.86263961 0.49804521
vn 8.8339602e-2 -0.49804509 0.86263967
vn 0.61858583 -1.6581367e-8 0.78571724
vn 0.61858588 0.39285845 0.68045114
vn 0.61858589 0.68045103 0.39285861
vn 0.61858577 0.78571728 -1.5672989e-7
vn 0.61858561 0.68045120 -0.39285877
vn 0.61858557 0.39285867 -0.68045129
vn 0.61858561 -9.0481598e-8 -0.78571741
vn 0.61858561 -0.39285874 -0.68045122
vn 0.61858553 -0.68045130 -0.39285871
vn 0.61858554 -0.78571746 -1.1141331e-7
vn 0.61858574 -0.68045119 0.39285858
vn 0.61858582 -0.39285852 0.68045115
vn 0.95943136 -2.0477572e-9 0.28194232
vn 0.95943136 0.14097113 0.24416922
vn 0.95943136 0.24416923 0.14097113
vn 0.95943132 0.28194246 -1.8136711e-7
vn 0.95943125 0.24416947 -0.14097147
vn 0.95943124 0.14097126 -0.24416960
vn 0.95943127 -9.9473396e-8 -0.28194261
vn 0.95943127 -0.14097127 -0.24416949
vn 0.95943123 -0.24416953 -0.14097144
vn 0.95943123 -0.28194274 -1.7280995e-7
vn 0.95943131 -0.24416943 0.14097111
vn 0.95943134 -0.14097119 0.24416927
g Box01_sep6_01 - Default
usemtl 01 - Default
f 49/82/49 61/60/61 62/61/62 50/83/50
f 50/78/50 51/71/51 52/67/52 53/59/53 54/51/54 55/48/55 56/50/56 57/58/57 58/66/58 59/70/59 60/77/60 49/79/49
f 50/82/50 62/60/62 63/61/63 51/83/51
f 51/83/51 63/61/63 64/60/64 52/82/52
f 52/82/52 64/60/64 65/61/65 53/83/53
f 53/83/53 65/61/65 66/60/66 54/82/54
f 54/83/54 66/61/66 67/60/67 55/82/55
f 55/82/55 67/60/67 68/61/68 56/83/56
f 56/82/56 68/60/68 69/61/69 57/83/57
f 57/83/57 69/61/69 70/60/70 58/82/58
f 58/82/58 70/60/70 71/61/71 59/83/59
f 59/83/59 71/61/71 72/60/72 60/82/60
f 60/83/60 72/61/72 61/60/61 49/82/49
f 61/60/61 73/47/73 74/46/74 62/61/62
f 62/60/62 74/47/74 75/46/75 63/61/63
f 63/61/63 75/46/75 76/47/76 64/60/64
f 64/60/64 76/47/76 77/46/77 65/61/65
f 65/61/65 77/46/77 78/47/78 66/60/66
f 66/61/66 78/46/78 79/47/79 67/60/67
f 67/60/67 79/47/79 80/46/80 68/61/68
f 68/60/68 80/47/80 81/46/81 69/61/69
f 69/61/69 81/46/81 82/47/82 70/60/70
f 70/60/70 82/47/82 83/46/83 71/61/71
f 71/61/71 83/46/83 84/47/84 72/60/72
f 72/61/72 84/46/84 73/47/73 61/60/61
f 73/43/73 85/49/85 86/55/86 74/45/74
f 74/45/74 86/55/86 87/57/87 75/53/75
f 75/53/75 87/57/87 88/64/88 76/65/76
f 76/65/76 88/64/88 89/68/89 77/75/77
f 77/75/77 89/68/89 90/73/90 78/81/78
f 78/81/78 90/73/90 91/76/91 79/84/79
f 79/84/79 91/76/91 92/72/92 80/80/80
f 80/80/80 92/72/92 93/69/93 81/74/81
f 81/74/81 93/69/93 94/63/94 82/62/82
f 82/62/82 94/63/94 95/56/95 83/52/83
f 83/52/83 95/56/95 96/54/96 84/44/84
f 84/44/84 96/54/96 85/49/85 73/43/73
f 85/49/85 96/54/96 95/56/95 94/63/94 93/69/93 92/72/92 91/76/91 90/73/90 89/68/89 88/64/88 87/57/87 86/55/86
