# Exported from Wings 3D 1.0.1
mtllib middlewheels.mtl
o Box01_sep8
#48 vertices, 38 faces
v -1.49900007 0.80100012 1.49899995
v -1.49900007 1.30100024 1.36502540
v -1.49900007 1.66702569 0.99900001
v -1.49899995 1.80100024 0.49900001
v -1.49899995 1.66702569 -1.0000209e-3
v -1.49899983 1.30100024 -0.36702541
v -1.49899983 0.80100012 -0.50099999
v -1.49899983 0.30100015 -0.36702535
v -1.49899983 -6.5025233e-2 -9.9994941e-4
v -1.49899995 -0.19899981 0.49900007
v -1.49899995 -6.5025158e-2 0.99900013
v -1.49900007 0.30100030 1.36502540
v -2.34303665 0.80100012 1.49899983
v -2.34303665 1.30100012 1.36502528
v -2.34303665 1.66702569 0.99899989
v -2.34303665 1.80100024 0.49899989
v -2.34303665 1.66702557 -1.0000989e-3
v -2.34303641 1.30100024 -0.36702549
v -2.34303641 0.80100012 -0.50100005
v -2.34303641 0.30100012 -0.36702541
v -2.34303641 -6.5025270e-2 -1.0000571e-3
v -2.34303665 -0.19899978 0.49899998
v -2.34303665 -6.5025195e-2 0.99900001
v -2.34303665 0.30100024 1.36502540
v -2.86662221 0.80100006 1.40544355
v -2.86662221 1.25422204 1.28400302
v -2.86662221 1.58600354 0.95222169
v -2.86662221 1.70744395 0.49899980
v -2.86662197 1.58600354 4.5777898e-2
v -2.86662197 1.25422204 -0.28600356
v -2.86662197 0.80100006 -0.40744391
v -2.86662197 0.34777820 -0.28600347
v -2.86662197 1.5996788e-2 4.5777977e-2
v -2.86662197 -0.10544364 0.49899989
v -2.86662221 1.5996806e-2 0.95222175
v -2.86662221 0.34777832 1.28400314
v -3.04745054 0.80100006 1.00921190
v -3.04745054 1.05610633 0.94085652
v -3.04745054 1.24285698 0.75410587
v -3.04745054 1.31121230 0.49899974
v -3.04745054 1.24285698 0.24389358
v -3.04745054 1.05610621 5.7142958e-2
v -3.04745030 0.80100006 -1.1212555e-2
v -3.04745030 0.54589397 5.7142995e-2
v -3.04745054 0.35914332 0.24389364
v -3.04745054 0.29078782 0.49899977
v -3.04745054 0.35914335 0.75410593
v -3.04745054 0.54589403 0.94085658
vt 0.11712954 0.44834682
vt 0.13733712 0.37293145
vt 0.13733712 0.52376223
vt 0.14145961 0.89696330
vt 0.14233544 0.97310710
vt 0.17640218 0.70318848
vt 0.18306196 0.44834682
vt 0.18958963 0.65397292
vt 0.18958963 0.75240451
vt 0.19254488 0.31772336
vt 0.19254488 0.57897007
vt 0.19443625 0.40589747
vt 0.19443625 0.49079618
vt 0.22551124 0.37482235
vt 0.22551124 0.52187121
vt 0.22561802 0.61794430
vt 0.22561802 0.78843278
vt 0.24179193 0.98559809
vt 0.24273863 0.88798076
vt 0.26796058 0.29751590
vt 0.26796058 0.36344799
vt 0.26796058 0.53324544
vt 0.26796058 0.59917760
vt 0.27483374 0.60475713
vt 0.27483374 0.80162030
vt 0.31040949 0.52187121
vt 0.31040987 0.37482235
vt 0.32404968 0.61794430
vt 0.32404968 0.78843278
vt 0.34148473 0.40589747
vt 0.34148473 0.49079618
vt 0.34337589 0.31772336
vt 0.34337589 0.57897007
vt 0.35285902 0.44834682
vt 0.36007816 0.65397292
vt 0.36007816 0.75240451
vt 0.37326539 0.70318872
vt 0.39858362 0.37293145
vt 0.39858362 0.52376223
vt 0.41668016 0.98492348
vt 0.41809878 0.88845319
vt 0.41879123 0.44834682
vn 0.45970073 1.8890401e-8 0.88807389
vn 0.45970071 0.44403683 0.76909463
vn 0.45970077 0.76909449 0.44403700
vn 0.45970081 0.88807385 1.2572623e-8
vn 0.45970084 0.76909453 -0.44403687
vn 0.45970090 0.44403690 -0.76909448
vn 0.45970092 -7.5689742e-8 -0.88807379
vn 0.45970092 -0.44403694 -0.76909444
vn 0.45970092 -0.76909451 -0.44403682
vn 0.45970085 -0.88807383 1.1773684e-7
vn 0.45970083 -0.76909444 0.44403704
vn 0.45970080 -0.44403678 0.76909460
vn -8.8339686e-2 3.5908605e-8 0.99609041
vn -8.8339712e-2 0.49804509 0.86263966
vn -8.8339669e-2 0.86263957 0.49804526
vn -8.8339581e-2 0.99609042 -6.6514095e-8
vn -8.8339500e-2 0.86263959 -0.49804524
vn -8.8339427e-2 0.49804514 -0.86263966
vn -8.8339379e-2 -1.1107243e-7 -0.99609043
vn -8.8339375e-2 -0.49804524 -0.86263961
vn -8.8339420e-2 -0.86263964 -0.49804518
vn -8.8339482e-2 -0.99609043 3.9070271e-8
vn -8.8339561e-2 -0.86263958 0.49804526
vn -8.8339632e-2 -0.49804510 0.86263967
vn -0.61858586 4.7832528e-8 0.78571721
vn -0.61858584 0.39285853 0.68045112
vn -0.61858586 0.68045104 0.39285864
vn -0.61858577 0.78571728 -1.4322012e-7
vn -0.61858559 0.68045119 -0.39285882
vn -0.61858555 0.39285858 -0.68045136
vn -0.61858557 -1.5998105e-7 -0.78571744
vn -0.61858558 -0.39285868 -0.68045128
vn -0.61858554 -0.68045126 -0.39285877
vn -0.61858555 -0.78571745 -8.6811458e-8
vn -0.61858575 -0.68045117 0.39285860
vn -0.61858584 -0.39285853 0.68045112
vn -0.95943134 -1.5025578e-9 0.28194237
vn -0.95943134 0.14097118 0.24416928
vn -0.95943134 0.24416927 0.14097115
vn -0.95943132 0.28194246 -1.6662592e-7
vn -0.95943125 0.24416945 -0.14097148
vn -0.95943124 0.14097122 -0.24416964
vn -0.95943126 -1.2502490e-7 -0.28194265
vn -0.95943126 -0.14097126 -0.24416953
vn -0.95943124 -0.24416951 -0.14097146
vn -0.95943123 -0.28194274 -1.6043470e-7
vn -0.95943131 -0.24416942 0.14097112
vn -0.95943134 -0.14097119 0.24416927
g Box01_sep8_01 - Default
usemtl 01 - Default
f 1/6/1 12/8/12 11/16/11 10/24/10 9/28/9 8/35/8 7/37/7 6/36/6 5/29/5 4/25/4 3/17/3 2/9/2
f 1/40/1 13/18/13 24/19/24 12/41/12
f 2/41/2 14/19/14 13/18/13 1/40/1
f 3/40/3 15/18/15 14/19/14 2/41/2
f 4/40/4 16/18/16 15/19/15 3/41/3
f 5/41/5 17/19/17 16/18/16 4/40/4
f 6/40/6 18/18/18 17/19/17 5/41/5
f 7/40/7 19/18/19 18/19/18 6/41/6
f 8/41/8 20/19/20 19/18/19 7/40/7
f 9/41/9 21/19/21 20/18/20 8/40/8
f 10/40/10 22/18/22 21/19/21 9/41/9
f 11/41/11 23/19/23 22/18/22 10/40/10
f 12/41/12 24/19/24 23/18/23 11/40/11
f 13/18/13 25/5/25 36/4/36 24/19/24
f 14/19/14 26/4/26 25/5/25 13/18/13
f 15/18/15 27/5/27 26/4/26 14/19/14
f 16/18/16 28/5/28 27/4/27 15/19/15
f 17/19/17 29/4/29 28/5/28 16/18/16
f 18/18/18 30/5/30 29/4/29 17/19/17
f 19/18/19 31/5/31 30/4/30 18/19/18
f 20/19/20 32/4/32 31/5/31 19/18/19
f 21/19/21 33/4/33 32/5/32 20/18/20
f 22/18/22 34/5/34 33/4/33 21/19/21
f 23/19/23 35/4/35 34/5/34 22/18/22
f 24/19/24 36/4/36 35/5/35 23/18/23
f 25/23/25 37/22/37 48/26/48 36/33/36
f 26/11/26 38/15/38 37/22/37 25/23/25
f 27/3/27 39/13/39 38/15/38 26/11/26
f 28/1/28 40/7/40 39/13/39 27/3/27
f 29/2/29 41/12/41 40/7/40 28/1/28
f 30/10/30 42/14/42 41/12/41 29/2/29
f 31/20/31 43/21/43 42/14/42 30/10/30
f 32/32/32 44/27/44 43/21/43 31/20/31
f 33/38/33 45/30/45 44/27/44 32/32/32
f 34/42/34 46/34/46 45/30/45 33/38/33
f 35/39/35 47/31/47 46/34/46 34/42/34
f 36/33/36 48/26/48 47/31/47 35/39/35
f 38/15/38 39/13/39 40/7/40 41/12/41 42/14/42 43/21/43 44/27/44 45/30/45 46/34/46 47/31/47 48/26/48 37/22/37
o Box01_sep5
#48 vertices, 38 faces
v 1.50100017 0.80100012 1.49899995
v 1.50100017 1.30100024 1.36502540
v 1.50100017 1.66702569 0.99900001
v 1.50100005 1.80100024 0.49900001
v 1.50100005 1.66702569 -1.0000209e-3
v 1.50099993 1.30100024 -0.36702541
v 1.50099993 0.80100012 -0.50099999
v 1.50099993 0.30100015 -0.36702535
v 1.50099993 -6.5025233e-2 -9.9994941e-4
v 1.50100005 -0.19899981 0.49900007
v 1.50100005 -6.5025158e-2 0.99900013
v 1.50100017 0.30100030 1.36502540
v 2.34503651 0.80100012 1.49899983
v 2.34503651 1.30100012 1.36502528
v 2.34503651 1.66702569 0.99899989
v 2.34503651 1.80100024 0.49899989
v 2.34503651 1.66702557 -1.0000989e-3
v 2.34503627 1.30100024 -0.36702549
v 2.34503627 0.80100012 -0.50100005
v 2.34503627 0.30100012 -0.36702541
v 2.34503627 -6.5025270e-2 -1.0000571e-3
v 2.34503651 -0.19899978 0.49899998
v 2.34503651 -6.5025195e-2 0.99900001
v 2.34503651 0.30100024 1.36502540
v 2.86862206 0.80100006 1.40544355
v 2.86862206 1.25422204 1.28400302
v 2.86862206 1.58600354 0.95222169
v 2.86862206 1.70744395 0.49899980
v 2.86862183 1.58600354 4.5777898e-2
v 2.86862183 1.25422204 -0.28600356
v 2.86862183 0.80100006 -0.40744391
v 2.86862183 0.34777820 -0.28600347
v 2.86862183 1.5996788e-2 4.5777977e-2
v 2.86862183 -0.10544364 0.49899989
v 2.86862206 1.5996806e-2 0.95222175
v 2.86862206 0.34777832 1.28400314
v 3.04945040 0.80100006 1.00921190
v 3.04945040 1.05610633 0.94085652
v 3.04945040 1.24285698 0.75410587
v 3.04945040 1.31121230 0.49899974
v 3.04945040 1.24285698 0.24389358
v 3.04945040 1.05610621 5.7142958e-2
v 3.04945016 0.80100006 -1.1212555e-2
v 3.04945016 0.54589397 5.7142995e-2
v 3.04945040 0.35914332 0.24389364
v 3.04945040 0.29078782 0.49899977
v 3.04945040 0.35914335 0.75410593
v 3.04945040 0.54589403 0.94085658
vt 0.11712954 0.44834682
vt 0.13733712 0.37293145
vt 0.13733712 0.52376223
vt 0.14145961 0.89696330
vt 0.14233544 0.97310710
vt 0.17640218 0.70318848
vt 0.18306196 0.44834682
vt 0.18958963 0.65397292
vt 0.18958963 0.75240451
vt 0.19254488 0.31772336
vt 0.19254488 0.57897007
vt 0.19443625 0.40589747
vt 0.19443625 0.49079618
vt 0.22551124 0.37482235
vt 0.22551124 0.52187121
vt 0.22561802 0.61794430
vt 0.22561802 0.78843278
vt 0.24179193 0.98559809
vt 0.24273863 0.88798076
vt 0.26796058 0.29751590
vt 0.26796058 0.36344799
vt 0.26796058 0.53324544
vt 0.26796058 0.59917760
vt 0.27483374 0.60475713
vt 0.27483374 0.80162030
vt 0.31040949 0.52187121
vt 0.31040987 0.37482235
vt 0.32404968 0.61794430
vt 0.32404968 0.78843278
vt 0.34148473 0.40589747
vt 0.34148473 0.49079618
vt 0.34337589 0.31772336
vt 0.34337589 0.57897007
vt 0.35285902 0.44834682
vt 0.36007816 0.65397292
vt 0.36007816 0.75240451
vt 0.37326539 0.70318872
vt 0.39858362 0.37293145
vt 0.39858362 0.52376223
vt 0.41668016 0.98492348
vt 0.41809878 0.88845319
vt 0.41879123 0.44834682
vn -0.45970073 1.8890401e-8 0.88807389
vn -0.45970071 0.44403683 0.76909463
vn -0.45970077 0.76909449 0.44403700
vn -0.45970081 0.88807385 1.2572623e-8
vn -0.45970084 0.76909453 -0.44403687
vn -0.45970090 0.44403690 -0.76909448
vn -0.45970092 -7.5689742e-8 -0.88807379
vn -0.45970092 -0.44403694 -0.76909444
vn -0.45970092 -0.76909451 -0.44403682
vn -0.45970085 -0.88807383 1.1773684e-7
vn -0.45970083 -0.76909444 0.44403704
vn -0.45970080 -0.44403678 0.76909460
vn 8.8339686e-2 3.5908605e-8 0.99609041
vn 8.8339712e-2 0.49804509 0.86263966
vn 8.8339669e-2 0.86263957 0.49804526
vn 8.8339581e-2 0.99609042 -6.6514095e-8
vn 8.8339500e-2 0.86263959 -0.49804524
vn 8.8339427e-2 0.49804514 -0.86263966
vn 8.8339379e-2 -1.1107243e-7 -0.99609043
vn 8.8339375e-2 -0.49804524 -0.86263961
vn 8.8339420e-2 -0.86263964 -0.49804518
vn 8.8339482e-2 -0.99609043 3.9070271e-8
vn 8.8339561e-2 -0.86263958 0.49804526
vn 8.8339632e-2 -0.49804510 0.86263967
vn 0.61858586 4.7832528e-8 0.78571721
vn 0.61858584 0.39285853 0.68045112
vn 0.61858586 0.68045104 0.39285864
vn 0.61858577 0.78571728 -1.4322012e-7
vn 0.61858559 0.68045119 -0.39285882
vn 0.61858555 0.39285858 -0.68045136
vn 0.61858557 -1.5998105e-7 -0.78571744
vn 0.61858558 -0.39285868 -0.68045128
vn 0.61858554 -0.68045126 -0.39285877
vn 0.61858555 -0.78571745 -8.6811458e-8
vn 0.61858575 -0.68045117 0.39285860
vn 0.61858584 -0.39285853 0.68045112
vn 0.95943134 -1.5025579e-9 0.28194237
vn 0.95943134 0.14097118 0.24416928
vn 0.95943134 0.24416927 0.14097115
vn 0.95943132 0.28194246 -1.6662592e-7
vn 0.95943125 0.24416945 -0.14097148
vn 0.95943124 0.14097122 -0.24416964
vn 0.95943126 -1.2502490e-7 -0.28194265
vn 0.95943126 -0.14097126 -0.24416953
vn 0.95943124 -0.24416951 -0.14097146
vn 0.95943123 -0.28194274 -1.6043470e-7
vn 0.95943131 -0.24416942 0.14097112
vn 0.95943134 -0.14097119 0.24416927
g Box01_sep5_01 - Default
usemtl 01 - Default
f 49/82/49 61/60/61 62/61/62 50/83/50
f 50/78/50 51/71/51 52/67/52 53/59/53 54/51/54 55/48/55 56/50/56 57/58/57 58/66/58 59/70/59 60/77/60 49/79/49
f 50/83/50 62/61/62 63/60/63 51/82/51
f 51/83/51 63/61/63 64/60/64 52/82/52
f 52/82/52 64/60/64 65/61/65 53/83/53
f 53/83/53 65/61/65 66/60/66 54/82/54
f 54/83/54 66/61/66 67/60/67 55/82/55
f 55/82/55 67/60/67 68/61/68 56/83/56
f 56/82/56 68/60/68 69/61/69 57/83/57
f 57/83/57 69/61/69 70/60/70 58/82/58
f 58/82/58 70/60/70 71/61/71 59/83/59
f 59/82/59 71/60/71 72/61/72 60/83/60
f 60/83/60 72/61/72 61/60/61 49/82/49
f 61/60/61 73/47/73 74/46/74 62/61/62
f 62/61/62 74/46/74 75/47/75 63/60/63
f 63/61/63 75/46/75 76/47/76 64/60/64
f 64/60/64 76/47/76 77/46/77 65/61/65
f 65/61/65 77/46/77 78/47/78 66/60/66
f 66/61/66 78/46/78 79/47/79 67/60/67
f 67/60/67 79/47/79 80/46/80 68/61/68
f 68/60/68 80/47/80 81/46/81 69/61/69
f 69/61/69 81/46/81 82/47/82 70/60/70
f 70/60/70 82/47/82 83/46/83 71/61/71
f 71/60/71 83/47/83 84/46/84 72/61/72
f 72/61/72 84/46/84 73/47/73 61/60/61
f 73/62/73 85/63/85 86/56/86 74/52/74
f 74/52/74 86/56/86 87/54/87 75/44/75
f 75/44/75 87/54/87 88/49/88 76/43/76
f 76/43/76 88/49/88 89/55/89 77/45/77
f 77/45/77 89/55/89 90/57/90 78/53/78
f 78/53/78 90/57/90 91/64/91 79/65/79
f 79/65/79 91/64/91 92/68/92 80/75/80
f 80/75/80 92/68/92 93/73/93 81/81/81
f 81/81/81 93/73/93 94/76/94 82/84/82
f 82/84/82 94/76/94 95/72/95 83/80/83
f 83/80/83 95/72/95 96/69/96 84/74/84
f 84/74/84 96/69/96 85/63/85 73/62/73
f 85/63/85 96/69/96 95/72/95 94/76/94 93/73/93 92/68/92 91/64/91 90/57/90 89/55/89 88/49/88 87/54/87 86/56/86
