# Exported from Wings 3D 1.0.1
mtllib turret.mtl
o Box01_sep3
#42 vertices, 44 faces
v -0.49900001 1.50100005 -1.00100005
v 0.50099999 1.50100005 -1.00100005
v -0.49900001 1.50100005 -2.00099993
v 0.50099999 1.50100005 -2.00099993
v -0.49900001 2.50099993 -1.00100005
v 0.50099999 2.50099993 -1.00100005
v -0.49900001 2.50099993 -2.00099993
v 0.50099999 2.50099993 -2.00099993
v -1.03586972 1.50100005 -1.00100005
v 1.03786981 1.50100005 -1.00100005
v -1.03586972 1.50100005 -2.00099993
v 1.03786981 1.50100005 -2.00099993
v -1.03586972 2.50099993 -1.00100005
v 1.03786981 2.50099993 -1.00100005
v -1.03586972 2.50099993 -2.00099993
v 1.03786981 2.50099993 -2.00099993
v -0.49900001 3.50099993 -1.00100005
v 0.50099999 3.50099993 -1.00100005
v -0.49900001 3.50099993 -2.00099993
v 0.50099999 3.50099993 -2.00099993
v -0.72941220 3.50099993 -1.00100005
v 0.73141217 3.50099993 -1.00100005
v -0.72941220 3.50099993 -2.00099993
v 0.73141217 3.50099993 -2.00099993
v -0.49900001 1.50100005 -0.59904093
v 0.50099999 1.50100005 -0.59904093
v -0.49900001 2.50099993 -0.59904093
v 0.50099999 2.50099993 -0.59904093
v -1.03586972 1.50100005 -0.80471414
v 1.03786981 1.50100005 -0.80471414
v -1.03586972 2.50099993 -0.80471414
v 1.03786981 2.50099993 -0.80471414
v -0.69082052 3.00099993 -3.00099993
v 0.69282049 3.00099993 -3.00099993
v -0.49899998 3.80454183 -1.39831865
v 0.50099999 3.80454183 -1.39831853
v -0.49900001 3.80454183 -1.60368168
v 0.50099999 3.80454183 -1.60368156
v -0.72941220 3.80454183 -1.39831865
v 0.73141217 3.80454183 -1.39831853
v -0.72941220 3.80454183 -1.60368168
v 0.73141217 3.80454183 -1.60368156
vt 7.9313759e-3 0.12980425
vt 7.9313759e-3 0.21878743
vt 1.1601605e-2 0.65955508
vt 1.1601605e-2 0.76628041
vt 3.3410825e-2 0.60262626
vt 5.2422907e-2 4.0820844e-2
vt 5.4224648e-2 0.60262626
vt 5.4224648e-2 0.65955508
vt 5.4224648e-2 0.76628041
vt 9.6914433e-2 0.12980425
vt 9.6914433e-2 0.21878743
vt 0.12392464 0.16515899
vt 0.12392464 0.18343282
vt 0.15966682 0.60262626
vt 0.16026311 0.65955508
vt 0.16026311 0.76628041
vt 0.34206995 0.79555535
vt 0.42864934 0.38576359
vt 0.43105325 0.75106382
vt 0.43105325 0.84004712
vt 0.43105325 0.92903042
vt 0.46640798 0.72405362
vt 0.47255555 0.51300973
vt 0.48468181 0.72405362
vt 0.49696389 0.38576359
vt 0.52003652 0.75106382
vt 0.52003652 0.84004712
vt 0.52003652 0.92903042
vt 0.53750259 0.84004712
vt 0.53750259 0.92903042
vt 0.54505289 0.20362337
vt 0.54505289 0.22412618
vt 0.55742091 0.97728628
vt 0.55742157 0.80295932
vt 0.58040762 0.20362350
vt 0.58040762 0.22412631
vt 0.59868145 0.20362356
vt 0.59868145 0.22412637
vt 0.63403618 0.20362370
vt 0.63403618 0.22412650
vt 0.72301936 0.22069275
vt 0.72514069 0.40078902
vt 0.72514117 0.25179166
vt 0.73506868 0.97731936
vt 0.73506933 0.80299246
vt 0.80513304 0.40078935
vt 0.80513358 0.25179198
vt 0.84263587 0.71407056
vt 0.88163042 0.84131694
vt 0.91094947 0.84131718
vt 0.91095042 0.71407104
vn 5.1698911e-17 -1.00000000 -1.1102232e-16
vn -5.1698899e-17 -1.00000000 -1.1102232e-16
vn 7.3113301e-17 -0.70710678 -0.70710678
vn -7.3113284e-17 -0.70710678 -0.70710678
vn 0.30151134 0.90453403 0.30151134
vn -0.30151134 0.90453403 0.30151134
vn 0.60073882 3.1997297e-2 -0.79880476
vn -0.60073882 3.1997297e-2 -0.79880476
vn -0.70710678 -0.70710678 -7.8504632e-17
vn 0.70710678 -0.70710678 -7.8504632e-17
vn -0.57735027 -0.57735027 -0.57735027
vn 0.57735027 -0.57735027 -0.57735027
vn -0.87512308 0.38278018 0.29603872
vn 0.87512307 0.38278021 0.29603872
vn -0.86794511 -9.3856112e-2 -0.48771130
vn 0.86794510 -9.3856052e-2 -0.48771133
vn 0.74462372 0.29585298 0.59833646
vn -0.74462370 0.29585296 0.59833650
vn 0.81800784 0.46332124 -0.34087622
vn -0.81800784 0.46332128 -0.34087618
vn -0.70992681 0.39473653 0.58325551
vn 0.70992678 0.39473653 0.58325554
vn -0.74618003 0.58484759 -0.31807022
vn 0.74617999 0.58484765 -0.31807020
vn -0.12754097 -0.71302994 0.68943572
vn 0.12754094 -0.71302994 0.68943572
vn -0.12754097 0.71302994 0.68943572
vn 0.12754094 0.71302994 0.68943572
vn -0.70438466 -0.51879061 0.48445696
vn 0.70438464 -0.51879062 0.48445699
vn -0.70438466 0.51879061 0.48445696
vn 0.70438464 0.51879062 0.48445699
vn 3.2144569e-2 0.22231927 -0.97444388
vn -3.2144598e-2 0.22231933 -0.97444386
vn 0.46679690 0.83773124 0.28338496
vn -0.46679689 0.83773121 0.28338502
vn 0.46679692 0.83773115 -0.28338516
vn -0.46679690 0.83773119 -0.28338508
vn -0.46679689 0.83773124 0.28338496
vn 0.46679689 0.83773121 0.28338502
vn -0.46679691 0.83773116 -0.28338514
vn 0.46679690 0.83773119 -0.28338508
g Box01_sep3_01 - Default
usemtl 01 - Default
f 1/8/1 3/15/3 4/16/4 2/9/2
f 1/8/1 9/7/9 11/14/11 3/15/3
f 1/8/1 25/3/25 29/5/29 9/7/9
f 2/9/2 26/4/26 25/3/25 1/8/1
f 3/33/3 7/34/7 8/45/8 4/44/4
f 3/46/3 11/42/11 15/43/15 7/47/7
f 4/15/4 12/14/12 10/7/10 2/8/2
f 5/51/5 17/50/17 21/49/21 13/48/13
f 5/8/5 27/3/27 28/4/28 6/9/6
f 6/9/6 8/16/8 7/15/7 5/8/5
f 6/2/6 18/11/18 20/10/20 8/1/8
f 6/8/6 28/3/28 32/5/32 14/7/14
f 7/1/7 19/10/19 17/11/17 5/2/5
f 7/1/7 33/6/33 19/10/19
f 8/43/8 16/47/16 12/46/12 4/42/4
f 8/25/8 34/23/34 16/18/16
f 9/28/9 13/27/13 15/20/15 11/21/11
f 9/28/9 29/30/29 31/29/31 13/27/13
f 10/7/10 30/5/30 26/3/26 2/8/2
f 12/21/12 16/20/16 14/27/14 10/28/10
f 13/27/13 21/26/21 23/19/23 15/20/15
f 13/7/13 31/5/31 27/3/27 5/8/5
f 14/48/14 22/49/22 18/50/18 6/51/6
f 14/27/14 32/29/32 30/30/30 10/28/10
f 15/18/15 33/23/33 7/25/7
f 16/20/16 24/19/24 22/26/22 14/27/14
f 16/20/16 34/17/34 24/19/24
f 17/31/17 35/35/35 39/36/39 21/32/21
f 18/11/18 36/13/36 38/12/38 20/10/20
f 19/39/19 33/41/33 23/40/23
f 19/10/19 37/12/37 35/13/35 17/11/17
f 20/10/20 34/6/34 8/1/8
f 20/39/20 38/37/38 42/38/42 24/40/24
f 21/26/21 39/24/39 41/22/41 23/19/23
f 22/32/22 40/36/40 36/35/36 18/31/18
f 23/19/23 33/17/33 15/20/15
f 23/40/23 41/38/41 37/37/37 19/39/19
f 24/40/24 34/41/34 20/39/20
f 24/19/24 42/22/42 40/24/40 22/26/22
f 26/33/26 28/34/28 27/45/27 25/44/25
f 26/46/26 30/42/30 32/43/32 28/47/28
f 27/43/27 31/47/31 29/46/29 25/42/25
f 36/35/36 40/36/40 42/38/42 38/37/38
f 37/37/37 41/38/41 39/36/39 35/35/35
