# Exported from Wings 3D 1.0.1
mtllib barrel1.mtl
o Box01_sep4
#21 vertices, 21 faces
v 0.87159371 2.70099998 0.12840641
v 1.13040638 2.70099998 0.12840641
v 0.87159371 2.70099998 -0.13040617
v 1.13040638 2.70099998 -0.13040617
v 0.87159371 2.95981264 0.12840641
v 1.13040638 2.95981264 0.12840641
v 0.87159371 2.95981264 -0.13040617
v 1.13040638 2.95981264 -0.13040617
v -0.20838325 2.51945925 0.30994725
v -0.20838325 2.51945925 -0.31194699
v -0.20838325 3.14135337 0.30994725
v -0.20838325 3.14135337 -0.31194699
v -0.94096774 2.51945925 0.30994725
v -0.94096774 2.51945925 -0.31194699
v -0.94096774 3.14135337 0.30994725
v -0.94096774 3.14135337 -0.31194699
v -1.09789157 2.61361241 0.21579407
v -1.09789157 2.61361241 -0.21779384
v -1.09789157 3.04720020 0.21579407
v -1.09789157 3.04720020 -0.21779384
v 1.00100005 2.83040619 -0.38921872
vt 0.40530309 0.82714659
vt 0.40530309 0.91503716
vt 0.49661320 0.82711977
vt 0.49661320 0.91501027
vt 0.52842253 0.80803448
vt 0.52842253 0.93409568
vt 0.67692137 0.80803448
vt 0.67692137 0.93409568
vt 0.89473128 0.89676851
vt 0.89497298 0.84532332
vt 0.92138046 0.79301471
vt 0.94716972 0.89655757
vt 0.94741946 0.84518272
vn 0.11722072 -0.70223191 0.70223190
vn 0.57735027 -0.57735027 0.57735027
vn -0.16147626 -0.82636293 -0.53949025
vn 0.67071622 -0.67071628 -0.31666926
vn 0.11722072 0.70223191 0.70223190
vn 0.57735027 0.57735027 0.57735027
vn -0.16147626 0.82636281 -0.53949043
vn 0.67071623 0.67071617 -0.31666949
vn 0.11722072 -0.70223191 0.70223190
vn 0.11722071 -0.70223191 -0.70223191
vn 0.11722072 0.70223191 0.70223190
vn 0.11722071 0.70223191 -0.70223191
vn -0.36472726 -0.65839731 0.65839730
vn -0.36472721 -0.65839731 -0.65839733
vn -0.36472726 0.65839731 0.65839730
vn -0.36472721 0.65839731 -0.65839733
vn -0.85837030 -0.36276745 0.36276744
vn -0.85837027 -0.36276746 -0.36276748
vn -0.85837030 0.36276745 0.36276744
vn -0.85837027 0.36276746 -0.36276748
vn 0.0000000e+0 -1.8424032e-7 -1.00000000
g Box01_sep4_01 - Default
usemtl 01 - Default
f 1/9/1 3/10/3 4/13/4 2/12/2
f 1/9/1 9/8/9 10/7/10 3/10/3
f 2/12/2 6/13/6 5/10/5 1/9/1
f 3/10/3 10/7/10 12/8/12 7/9/7
f 3/10/3 21/11/21 4/13/4
f 4/13/4 8/10/8 6/9/6 2/12/2
f 4/13/4 21/11/21 8/10/8
f 5/10/5 11/7/11 9/8/9 1/9/1
f 6/12/6 8/13/8 7/10/7 5/9/5
f 7/10/7 12/7/12 11/8/11 5/9/5
f 7/10/7 21/11/21 3/13/3
f 8/13/8 21/11/21 7/10/7
f 9/8/9 13/6/13 14/5/14 10/7/10
f 10/7/10 14/5/14 16/6/16 12/8/12
f 11/7/11 15/5/15 13/6/13 9/8/9
f 12/7/12 16/5/16 15/6/15 11/8/11
f 13/6/13 17/4/17 18/3/18 14/5/14
f 14/5/14 18/3/18 20/4/20 16/6/16
f 15/5/15 19/3/19 17/4/17 13/6/13
f 16/5/16 20/3/20 19/4/19 15/6/15
f 17/4/17 19/3/19 20/1/20 18/2/18
