# Exported from Wings 3D 1.0.1
mtllib base.mtl
o Box01_sep10
#114 vertices, 149 faces
v -1.49899995 1.0000000e-3 1.49899995
v -0.49900001 1.0000000e-3 1.49899995
v 0.25872403 1.0000000e-3 1.49899995
v 0.66300565 1.0000000e-3 1.49899995
v -1.49899995 1.0000000e-3 0.49900001
v -0.49900001 1.0000000e-3 0.49900001
v 0.25872403 1.0000000e-3 0.49900001
v 0.66300565 1.0000000e-3 0.49900001
v -1.49899995 1.0000000e-3 -0.50099999
v -0.49900001 1.0000000e-3 -0.50099999
v 0.25872403 1.0000000e-3 -0.50099999
v 0.66300565 1.0000000e-3 -0.50099999
v -1.49899995 1.0000000e-3 -1.50100005
v -0.49900001 1.0000000e-3 -1.50100005
v 0.25872403 1.0000000e-3 -1.50100005
v 0.66300565 1.0000000e-3 -1.50100005
v -1.49899995 1.00100005 1.49899995
v -0.49900001 1.00100005 1.49899995
v 0.25872403 1.00100005 1.49899995
v 0.66300565 1.29987121 1.49899995
v -1.49899995 1.00100005 0.49900001
v -0.49900001 1.00100005 0.49900001
v 0.12986203 1.50100005 0.49900001
v 0.66300565 1.29987121 0.49900001
v -1.49899995 1.00100005 -0.50099999
v -0.49900001 1.00100005 -0.50099999
v 0.12986203 1.50100005 -0.50099999
v 0.66300565 1.29987121 -0.50099999
v -1.49899995 1.00100005 -1.50100005
v -0.49900001 1.00100005 -1.50100005
v 0.25872403 1.00100005 -1.50100005
v 0.66300565 1.29987121 -1.50100005
v -2.91795635 1.0000080e-3 0.49900001
v -2.91795635 9.9999213e-4 -0.50099999
v -3.35673690 0.67074949 0.49900001
v -3.35673690 0.67074949 -0.50099999
v -3.91795635 1.0000080e-3 0.49900001
v -3.91795635 9.9999213e-4 -0.50099999
v -3.91795635 0.34010297 0.49899998
v -3.91795635 0.34010297 -0.50099999
v -2.91795635 9.9999411e-4 1.49899995
v -3.18044424 1.00100005 1.49899995
v -3.91795635 9.9998573e-4 1.00755906
v -3.91795635 0.34010297 1.00755906
v -2.91795635 1.0000060e-3 -1.50100005
v -3.18044424 1.00100005 -1.50100005
v -3.91795635 1.0000144e-3 -1.00955915
v -3.91795635 0.34010297 -1.00955915
v -1.96459866 1.31273854 0.45217901
v -0.49900001 1.14723027 0.49899998
v -1.96459866 1.31273854 -0.45417905
v -0.49900001 1.14723027 -0.50099999
v 0.12986203 1.50100005 1.49899995
v 0.66300565 1.79987121 1.47654366
v 0.66300565 1.79987121 -1.47854376
v 0.12986203 1.50100005 -1.50100005
v 2.15479183 1.0000000e-3 0.49900001
v 2.15479183 1.0000000e-3 -0.50099999
v 2.15479183 1.30100000 1.49899995
v 2.15479183 1.30100000 0.49900001
v 2.15479183 1.30100000 -0.50099999
v 2.15479183 1.30100000 -1.50100005
v 1.50655091 2.20099998 0.93470585
v 1.50655091 2.20099998 -0.93670583
v 3.15479183 1.0000000e-3 0.26494682
v 3.15479183 1.0000000e-3 -0.26694679
v 3.15479183 1.00100005 0.79684043
v 3.15479183 1.00100005 0.26494682
v 3.15479183 1.00100005 -0.26694679
v 3.15479183 1.00100005 -0.79884040
v 2.75284505 1.90996540 0.38540822
v 2.75284505 1.90996540 -0.38740820
v 2.15479183 1.0000000e-3 1.49899995
v 2.15479183 1.0000000e-3 -1.50100005
v 3.15479183 1.0000000e-3 0.79684043
v 3.15479183 1.0000000e-3 -0.79884040
v -1.25279796 0.30774885 2.08866358
v -0.41693270 0.30774885 2.08866358
v 0.17665668 0.30774885 2.08866358
v 0.41680366 0.30774885 2.08866358
v -1.25279796 0.56254739 2.08866358
v -0.41693270 0.56254739 2.08866358
v 0.29673016 0.56254739 2.08866358
v -1.25279796 0.30774885 -2.09066343
v -0.41693270 0.30774885 -2.09066343
v 0.17665668 0.30774885 -2.09066343
v 0.41680366 0.30774885 -2.09066343
v -1.25279796 0.56254739 -2.09066343
v -0.41693270 0.56254739 -2.09066343
v 0.29673016 0.56254739 -2.09066343
v -2.93735099 1.13048565 -1.0000585e-3
v -0.89848155 1.32843697 -1.0000964e-3
v -1.91157758 1.73047030 -1.0000743e-3
v -3.28053236 0.65435034 0.76627386
v -3.28053236 0.65435034 -0.76827395
v -2.98344779 0.80163848 0.85529751
v -2.98344779 0.80163848 -0.85729748
v -0.65457743 2.20099998 -1.0000298e-3
v 0.56518763 0.61042362 2.58483243
v 0.56518763 0.61042362 -2.58683228
v 0.50099999 2.30099988 -0.78254032
v 0.50099999 2.30099988 0.78054035
v 3.01221991 1.82575524 0.12806363
v 3.01221991 1.82575524 -0.13006364
v -2.09174299 1.20108545 1.11984551
v -1.09174275 1.20108545 1.11984551
v -2.09174299 1.20108545 0.84068590
v -1.09174275 1.20108545 0.84068590
v -2.09174299 1.20108545 -0.84268588
v -1.09174275 1.20108545 -0.84268588
v -2.09174299 1.20108545 -1.12184560
v -1.09174275 1.20108545 -1.12184560
v 1.20100009 1.40100002 -2.50099993
v 1.20100009 1.40100002 2.49900007
vt 1.6872456e-2 0.83668411
vt 1.6872978e-2 0.98120701
vt 1.8291930e-2 0.72786844
vt 2.5094541e-2 0.29159072
vt 2.5094876e-2 0.38451511
vt 2.5095141e-2 0.46385410
vt 2.7673328e-2 0.18518849
vt 2.8713496e-2 0.21216443
vt 2.9880127e-2 0.56251079
vt 2.9881826e-2 0.72025830
vt 2.9994160e-2 0.81429732
vt 5.3420857e-2 0.29159063
vt 5.3421199e-2 0.38451505
vt 5.3421430e-2 0.45050511
vt 5.3421535e-2 0.47720253
vt 5.8359817e-2 0.79376459
vt 7.4331179e-2 0.31269351
vt 7.4331179e-2 0.39203256
vt 7.4331179e-2 0.48495686
vt 8.9394487e-2 0.79376477
vt 0.10433651 0.51373011
vt 0.11145239 0.85283470
vt 0.12804399 0.87003517
vt 0.12804438 0.98120660
vt 0.12855557 1.8480081e-2
vt 0.12855557 0.16300298
vt 0.12946339 0.72786897
vt 0.13581537 0.23556972
vt 0.13988492 0.32408163
vt 0.13988492 0.40115604
vt 0.13988492 0.51232737
vt 0.14105323 0.72025704
vt 0.14116563 0.85101169
vt 0.14238136 0.27197403
vt 0.14491288 0.90026438
vt 0.15200922 0.83161408
vt 0.17570907 0.66849542
vt 0.18203603 0.46705210
vt 0.18203603 0.57822347
vt 0.18243946 0.17998438
vt 0.19954705 0.98225468
vt 0.20064405 0.69008571
vt 0.20261827 0.17819601
vt 0.21307065 0.46705210
vt 0.21307065 0.57822347
vt 0.21700522 0.17471465
vt 0.22637111 0.91139138
vt 0.22666399 0.80125713
vt 0.25105634 0.33124447
vt 0.25105634 0.40115604
vt 0.25105634 0.51232737
vt 0.25608426 0.91986310
vt 0.25608426 0.98225468
vt 0.25661525 0.26372281
vt 0.25674814 0.67203540
vt 0.25674936 0.56086391
vt 0.25977540 0.69008571
vt 0.28901330 0.68853116
vt 0.29439983 1.8480081e-2
vt 0.29439983 0.16287749
vt 0.30249003 0.45981339
vt 0.30822411 6.2200192e-2
vt 0.31413952 0.14649628
vt 0.31588069 0.56086451
vt 0.31645790 0.67203593
vt 0.32817668 0.17471465
vt 0.32817668 0.28588617
vt 0.33109918 0.46917552
vt 0.33783543 0.80125713
vt 0.34106416 1.6973097e-2
vt 0.34412381 0.27725866
vt 0.34459907 0.77573836
vt 0.34662023 0.22167286
vt 0.35421842 0.79387552
vt 0.35606584 0.12854943
vt 0.36101249 0.33124447
vt 0.36101249 0.40115604
vt 0.36153096 0.46917582
vt 0.36660597 0.91986310
vt 0.36660597 0.98225468
vt 0.37322167 5.8202680e-2
vt 0.37322167 8.6529076e-2
vt 0.37674627 0.67203665
vt 0.37674746 0.56086516
vt 0.38034138 0.29452041
vt 0.38034138 0.35010597
vt 0.38541469 0.94012254
vt 0.38849485 0.36650184
vt 0.38928854 0.50128907
vt 0.39024341 0.47732162
vt 0.39996579 0.98162174
vt 0.40018478 0.68853116
vt 0.40980414 0.74276590
vt 0.42431420 0.63570106
vt 0.42592821 0.13537921
vt 0.43290579 0.42208764
vt 0.43877551 9.4592534e-3
vt 0.43877551 0.12063067
vt 0.45529196 0.43841752
vt 0.45779172 0.23291549
vt 0.46538982 0.79387552
vt 0.46718812 0.22431628
vt 0.46979517 0.95190489
vt 0.46979517 0.98960328
vt 0.47411963 0.24992624
vt 0.47442272 0.93284202
vt 0.49466744 0.23799449
vt 0.50775653 0.50397438
vt 0.52633232 0.95190489
vt 0.52751923 0.50548881
vt 0.52817386 0.97797084
vt 0.53624904 0.39252228
vt 0.54618549 0.34998044
vt 0.54982710 0.24331695
vt 0.54982710 0.27164349
vt 0.54994702 9.4592534e-3
vt 0.54994702 0.12063067
vt 0.55142766 0.37170696
vt 0.55439538 0.14649628
vt 0.55765355 0.28747115
vt 0.55765355 0.33241552
vt 0.56070465 0.64818287
vt 0.56080943 0.45675945
vt 0.56719971 0.34817991
vt 0.57477856 0.15074442
vt 0.58622110 0.64486414
vt 0.58622110 0.65015084
vt 0.58708429 0.60752499
vt 0.58708429 0.62043494
vt 0.58718079 0.60727227
vt 0.58718079 0.62018222
vt 0.59304750 0.62529403
vt 0.59304750 0.63523340
vt 0.59616041 0.64253783
vt 0.59616041 0.65247715
vt 0.59702367 0.60752499
vt 0.59702367 0.62043494
vt 0.59712017 0.60727227
vt 0.59712017 0.62018222
vt 0.60596871 0.62529403
vt 0.60596871 0.63523340
vt 0.60781616 0.61437768
vt 0.60791266 0.61412495
vt 0.61098784 0.63259447
vt 0.61098784 0.64253378
vt 0.61098784 0.65247715
vt 0.61196005 0.62180197
vt 0.61343491 0.62673354
vt 0.61438853 0.10924537
vt 0.61500609 0.63259447
vt 0.61500609 0.64253378
vt 0.61500609 0.65247715
vt 0.61538076 0.16134775
vt 0.61582184 0.62673354
vt 0.62172168 0.62673354
vt 0.62253743 0.63259447
vt 0.62253743 0.64253378
vt 0.62253743 0.65247715
vt 0.63002968 0.62673354
vt 0.63247681 0.63259447
vt 0.63247681 0.64253378
vt 0.63247681 0.65247715
vt 0.63476819 0.61009341
vt 0.63476819 0.62003279
vt 0.63711125 0.29259419
vt 0.63750386 0.95190489
vt 0.63934541 0.97797060
vt 0.64306360 0.60519034
vt 0.64306360 0.61512971
vt 0.64316624 0.63093472
vt 0.64316624 0.64087409
vt 0.64658028 0.63259447
vt 0.64658028 0.64253378
vt 0.64658028 0.65247715
vt 0.64959562 0.61009341
vt 0.64959562 0.62003279
vt 0.65143710 0.34817991
vt 0.65598476 0.60519034
vt 0.65598476 0.61512971
vt 0.65598583 0.59237480
vt 0.65598708 0.41860479
vt 0.65651965 0.63747907
vt 0.65651965 0.64253378
vt 0.65651965 0.65247715
vt 0.65799361 0.63093472
vt 0.65799361 0.64087409
vt 0.66502339 0.39493734
vt 0.66882497 0.22766152
vt 0.67568243 0.18317457
vt 0.67568243 0.22087309
vt 0.68594998 0.13114585
vt 0.69404095 0.95190489
vt 0.69404095 0.98960328
vt 0.75619137 0.30371132
vt 0.75767267 0.29434592
vt 0.76777416 0.60951436
vt 0.76777577 0.40146694
vt 0.78685385 0.18317457
vt 0.90632725 0.54844916
vt 0.90632790 0.46253404
vt 0.93516231 0.51983994
vt 0.93516266 0.49114358
vn -0.68085391 -0.66822918 0.29984615
vn 0.0000000e+0 -0.97137546 0.23754939
vn 0.0000000e+0 -0.97137546 0.23754939
vn 0.58175215 -0.76030101 0.28897545
vn -0.30151134 -0.90453403 0.30151135
vn 0.0000000e+0 -1.00000000 -6.1149004e-17
vn 0.0000000e+0 -1.00000000 -6.1149004e-17
vn 0.30151134 -0.90453403 0.30151134
vn -0.30151134 -0.90453403 -0.30151134
vn 0.0000000e+0 -1.00000000 -6.1257421e-17
vn 0.0000000e+0 -1.00000000 -6.1257421e-17
vn 0.30151134 -0.90453403 -0.30151134
vn -0.68085389 -0.66822915 -0.29984625
vn 0.0000000e+0 -0.97137544 -0.23754948
vn 0.0000000e+0 -0.97137544 -0.23754948
vn 0.58175210 -0.76030102 -0.28897553
vn -0.80951070 0.26689997 0.52293101
vn -6.0537221e-2 0.84438035 0.53231294
vn -0.22099863 0.19153512 0.95628129
vn 0.85945586 -0.17762128 0.47936032
vn -0.47816711 4.3069080e-2 0.87721221
vn 1.7764880e-2 0.98996351 0.14020217
vn -0.77774066 0.50009614 0.38081928
vn 0.57764146 -0.57720454 0.57720470
vn -0.47816710 4.3068960e-2 -0.87721223
vn 1.7764880e-2 0.98996351 -0.14020218
vn -0.77774066 0.50009613 -0.38081929
vn 0.57764146 -0.57720454 -0.57720470
vn -0.80951065 0.26689992 -0.52293110
vn -6.0537221e-2 0.84438031 -0.53231300
vn -0.22099856 0.19153504 -0.95628132
vn 0.85945584 -0.17762133 -0.47936034
vn 0.52178625 -0.84842371 8.8973708e-2
vn 0.52178624 -0.84842371 -8.8973707e-2
vn -0.47010264 0.81341413 0.34257986
vn -0.47010265 0.81341413 -0.34257985
vn -0.70710678 -0.70710678 -2.8603107e-9
vn -0.70710678 -0.70710678 -2.8603096e-9
vn -0.79720188 0.60204668 4.4821340e-2
vn -0.79720188 0.60204668 -4.4821320e-2
vn 0.74269891 -0.38257843 0.54957445
vn -0.48648522 0.79941994 0.35250517
vn -0.72211740 -0.53813943 0.43468658
vn -0.81710114 0.54312393 0.19329283
vn 0.74269891 -0.38257843 -0.54957446
vn -0.48648522 0.79941997 -0.35250510
vn -0.72211739 -0.53813942 -0.43468659
vn -0.81710114 0.54312393 -0.19329283
vn -8.2063388e-2 0.64508571 0.75969075
vn 0.54123943 0.70647322 0.45602135
vn -8.2063390e-2 0.64508561 -0.75969083
vn 0.54123945 0.70647317 -0.45602141
vn -0.57149303 0.58269294 0.57781022
vn -7.2077360e-2 0.87111466 0.48576137
vn -7.2077358e-2 0.87111467 -0.48576135
vn -0.57149300 0.58269293 -0.57781026
vn -0.30151134 -0.90453403 0.30151134
vn -0.30151134 -0.90453403 -0.30151134
vn 0.19692510 0.22144529 0.95508245
vn -0.57705897 -0.57749578 0.57749595
vn -0.57705897 -0.57749578 -0.57749595
vn 0.19692514 0.22144533 -0.95508243
vn 7.1145158e-2 0.92532230 0.37244732
vn 7.1145161e-2 0.92532231 -0.37244728
vn 0.70710678 -0.70710678 -4.3239476e-17
vn 0.70710678 -0.70710678 -4.3339566e-17
vn 0.87433851 0.26691611 0.40532452
vn 0.97571113 0.17050833 0.13753075
vn 0.97571113 0.17050832 -0.13753076
vn 0.87433852 0.26691611 -0.40532448
vn 0.60310801 0.71573491 0.35211400
vn 0.60310801 0.71573491 -0.35211399
vn -0.31266559 -0.73507473 0.60158572
vn -0.31266555 -0.73507475 -0.60158570
vn 0.77302984 -0.49092235 0.40177122
vn 0.77302986 -0.49092234 -0.40177119
vn -0.41066998 -0.39480319 0.82187627
vn 0.0000000e+0 -0.51889339 0.85483896
vn 0.0000000e+0 -0.51889339 0.85483896
vn -0.20951692 -0.64480281 0.73507279
vn -0.39623625 0.34457158 0.85103893
vn 0.0000000e+0 0.44906042 0.89350139
vn -0.42528728 0.36318836 0.82899032
vn -0.41066992 -0.39480312 -0.82187633
vn 0.0000000e+0 -0.51889332 -0.85483901
vn 0.0000000e+0 -0.51889332 -0.85483901
vn -0.20951700 -0.64480275 -0.73507282
vn -0.39623619 0.34457151 -0.85103899
vn 0.0000000e+0 0.44906033 -0.89350144
vn -0.42528726 0.36318829 -0.82899036
vn -0.52399603 0.85172070 -4.1690460e-8
vn 0.26585193 0.96401388 -4.3328760e-8
vn -9.5053138e-2 0.99547220 -6.7757770e-8
vn -0.72160956 0.69109884 4.0768064e-2
vn -0.72160954 0.69109886 -4.0768012e-2
vn 0.80061238 0.53581127 -0.26819040
vn 0.80061238 0.53581128 0.26819040
vn -0.58859464 0.80842832 4.9773342e-9
vn -0.26165902 -0.39665335 0.87988674
vn -0.26165919 -0.39665333 -0.87988670
vn -0.34644492 0.38097854 -0.85722300
vn -0.34644494 0.38097855 0.85722299
vn 0.80175314 0.53858693 0.25906762
vn 0.80175313 0.53858692 -0.25906764
vn -0.29221107 0.85602788 0.42641406
vn 0.11074970 0.98062002 0.16161334
vn -0.29248659 0.83719597 -0.46211958
vn 0.11130930 0.97810107 -0.17586510
vn -0.29248659 0.83719597 0.46211958
vn 0.11130930 0.97810107 0.17586510
vn -0.29221107 0.85602788 -0.42641406
vn 0.11074970 0.98062002 -0.16161334
vn 0.55524183 -0.32469301 -0.76568986
vn 0.55524180 -0.32469301 0.76568988
g Box01_sep10_01 - Default
usemtl 01 - Default
f 1/160/1 5/161/5 6/157/6 2/156/2
f 1/98/1 17/97/17 21/116/21 5/117/5
f 1/98/1 77/82/77 81/81/81 17/97/17
f 2/156/2 6/157/6 7/151/7 3/150/3
f 2/156/2 78/155/78 77/159/77 1/160/1
f 3/150/3 7/151/7 8/145/8 4/144/4
f 3/150/3 79/154/79 78/155/78 2/156/2
f 4/144/4 80/148/80 79/154/79 3/150/3
f 4/144/4 99/147/99 80/148/80
f 5/161/5 9/162/9 10/158/10 6/157/6
f 5/161/5 33/173/33 34/174/34 9/162/9
f 6/157/6 10/158/10 11/152/11 7/151/7
f 7/151/7 11/152/11 12/146/12 8/145/8
f 8/129/8 24/128/24 20/136/20 4/137/4
f 8/59/8 57/25/57 60/26/60 24/60/24
f 9/161/9 13/160/13 14/156/14 10/157/10
f 9/117/9 25/116/25 29/97/29 13/98/13
f 9/10/9 34/9/34 36/21/36 25/32/25
f 10/157/10 14/156/14 15/150/15 11/151/11
f 11/151/11 15/150/15 16/144/16 12/145/12
f 12/146/12 58/135/58 57/134/57 8/145/8
f 13/160/13 84/159/84 85/155/85 14/156/14
f 14/156/14 85/155/85 86/154/86 15/150/15
f 15/150/15 86/154/86 87/148/87 16/144/16
f 16/139/16 32/138/32 28/130/28 12/131/12
f 16/139/16 100/143/100 32/138/32
f 17/31/17 81/19/81 82/18/82 18/30/18
f 17/27/17 105/20/105 107/16/107 21/3/21
f 18/30/18 53/29/53 23/49/23 22/50/22
f 18/30/18 82/18/82 83/17/83 19/29/19
f 18/30/18 106/38/106 105/39/105 17/31/17
f 19/177/19 53/165/53 18/124/18
f 19/62/19 83/75/83 20/70/20
f 19/177/19 114/194/114 53/165/53
f 20/86/20 59/113/59 54/85/54
f 20/136/20 99/142/99 4/137/4
f 20/120/20 114/188/114 19/121/19
f 21/32/21 35/21/35 33/9/33 5/10/5
f 21/32/21 49/37/49 35/21/35
f 21/51/21 107/45/107 108/44/108 22/50/22
f 22/36/22 50/36/50 49/37/49 21/32/21
f 22/50/22 108/44/108 106/38/106 18/30/18
f 23/49/23 27/76/27 26/77/26 22/50/22
f 23/92/23 98/72/98 27/58/27
f 23/102/23 102/95/102 98/119/98
f 24/176/24 60/164/60 59/163/59 20/175/20
f 25/32/25 51/37/51 52/36/52 26/36/26
f 25/27/25 109/20/109 111/16/111 29/3/29
f 26/111/26 52/111/52 50/167/50 22/167/22
f 26/50/26 110/44/110 109/45/109 25/51/25
f 27/49/27 56/29/56 30/30/30 26/50/26
f 27/49/27 64/43/64 55/34/55
f 27/102/27 101/95/101 64/63/64
f 28/60/28 61/26/61 58/25/58 12/59/12
f 29/97/29 88/81/88 84/82/84 13/98/13
f 29/31/29 111/39/111 112/38/112 30/30/30
f 30/124/30 56/165/56 31/177/31
f 30/30/30 89/18/89 88/19/88 29/31/29
f 30/30/30 112/38/112 110/44/110 26/50/26
f 31/29/31 90/17/90 89/18/89 30/30/30
f 31/121/31 113/188/113 32/120/32
f 32/186/32 62/171/62 61/170/61 28/185/28
f 32/70/32 90/75/90 31/62/31
f 32/153/32 100/107/100 90/114/90
f 32/73/32 113/100/113 55/71/55
f 33/173/33 37/183/37 38/184/38 34/174/34
f 33/173/33 41/172/41 43/182/43 37/183/37
f 33/46/33 96/54/96 41/66/41
f 34/106/34 97/87/97 36/91/36
f 35/74/35 91/93/91 36/101/36
f 35/33/35 94/22/94 42/11/42
f 35/91/35 96/87/96 33/106/33
f 36/79/36 40/80/40 39/53/39 35/52/35
f 36/21/36 51/37/51 25/32/25
f 36/40/36 91/28/91 51/7/51
f 36/52/36 95/47/95 40/53/40
f 36/125/36 97/149/97 46/191/46
f 37/111/37 39/109/39 40/166/40 38/167/38
f 37/111/37 43/104/43 44/103/44 39/109/39
f 38/183/38 47/182/47 45/172/45 34/173/34
f 39/53/39 94/47/94 35/52/35
f 40/166/40 48/192/48 47/193/47 38/167/38
f 40/53/40 95/47/95 48/41/48
f 41/66/41 96/54/96 42/67/42
f 42/195/42 44/190/44 43/189/43 41/198/41
f 42/35/42 94/47/94 44/41/44
f 42/191/42 96/149/96 35/125/35
f 44/41/44 94/47/94 39/53/39
f 45/198/45 47/189/47 48/190/48 46/195/46
f 45/66/45 97/54/97 34/46/34
f 46/11/46 95/22/95 36/33/36
f 46/67/46 97/54/97 45/66/45
f 48/41/48 95/47/95 46/35/46
f 49/7/49 91/28/91 35/40/35
f 49/112/49 93/123/93 91/99/91
f 50/88/50 92/96/92 49/118/49
f 51/118/51 92/96/92 52/88/52
f 51/112/51 93/123/93 92/187/92
f 52/88/52 92/96/92 50/90/50
f 53/29/53 54/34/54 23/49/23
f 53/29/53 114/8/114 54/34/54
f 54/34/54 63/43/63 23/49/23
f 54/71/54 114/100/114 20/73/20
f 55/34/55 56/29/56 27/49/27
f 55/85/55 62/113/62 32/86/32
f 55/85/55 64/105/64 62/113/62
f 55/34/55 113/8/113 56/29/56
f 56/165/56 113/194/113 31/177/31
f 57/169/57 73/168/73 59/178/59 60/179/60
f 58/135/58 66/127/66 65/126/65 57/134/57
f 58/48/58 74/69/74 76/57/76 66/42/66
f 59/113/59 63/105/63 54/85/54
f 59/94/59 71/108/71 63/122/63
f 59/1/59 73/2/73 75/24/75 67/23/67
f 61/140/61 62/141/62 74/133/74 58/132/58
f 62/94/62 72/108/72 70/89/70
f 63/197/63 71/200/71 72/199/72 64/196/64
f 63/63/63 102/95/102 23/102/23
f 64/122/64 72/108/72 62/94/62
f 64/196/64 98/110/98 63/197/63
f 64/196/64 101/180/101 98/110/98
f 65/42/65 75/57/75 73/69/73 57/48/57
f 66/65/66 69/64/69 68/84/68 65/83/65
f 66/65/66 76/55/76 70/56/70 69/64/69
f 67/89/67 71/108/71 59/94/59
f 68/64/68 67/56/67 75/55/75 65/65/65
f 68/64/68 71/61/71 67/56/67
f 68/64/68 103/68/103 71/61/71
f 69/64/69 104/68/104 103/78/103 68/84/68
f 70/56/70 72/61/72 69/64/69
f 70/23/70 76/24/76 74/2/74 62/1/62
f 71/200/71 103/202/103 104/201/104 72/199/72
f 72/61/72 104/68/104 69/64/69
f 78/13/78 82/5/82 81/4/81 77/12/77
f 79/14/79 83/6/83 82/5/82 78/13/78
f 80/15/80 83/6/83 79/14/79
f 80/115/80 99/107/99 83/114/83
f 83/114/83 99/107/99 20/153/20
f 84/12/84 88/4/88 89/5/89 85/13/85
f 85/13/85 89/5/89 90/6/90 86/14/86
f 86/14/86 90/6/90 87/15/87
f 87/148/87 100/147/100 16/144/16
f 90/114/90 100/107/100 87/115/87
f 91/99/91 93/123/93 51/112/51
f 92/187/92 93/123/93 49/112/49
f 98/119/98 101/95/101 27/102/27
f 98/110/98 102/181/102 63/197/63
f 106/38/106 108/44/108 107/45/107 105/39/105
f 110/44/110 112/38/112 111/39/111 109/45/109
o Box01
#3 vertices, 2 faces
v 2.15479183 1.0000000e-3 -0.50099999
v 2.15479183 1.30100000 -0.50099999
v 3.15479183 1.00100005 -0.26694679
vt 1.6872456e-2 0.83668411
vt 1.6872978e-2 0.98120701
vt 1.7384185e-2 0.12965156
vt 0.12804399 0.87003517
vt 0.12855557 1.8480081e-2
vt 0.12855557 0.16300298
vn 0.0000000e+0 0.0000000e+0 0.0000000e+0
vn 0.0000000e+0 0.0000000e+0 0.0000000e+0
vn 0.0000000e+0 0.0000000e+0 0.0000000e+0
g Box01_01 - Default
usemtl 01 - Default
f 115/204/115 117/206/117 116/203/116
f 116/208/116 117/205/117 115/207/115
