# Exported from Wings 3D 1.0.1
mtllib frontwheels.mtl
o Box01_sep9
#48 vertices, 38 faces
v -1.86701024 0.41091633 -0.50099999
v -1.91148853 0.57691121 -0.50099999
v -2.03300524 0.69842786 -0.50099999
v -2.19900012 0.74290603 -0.50099999
v -2.36499500 0.69842780 -0.50099999
v -2.48651171 0.57691115 -0.50099999
v -2.53098989 0.41091630 -0.50099999
v -2.48651171 0.24492146 -0.50099999
v -2.36499500 0.12340480 -0.50099999
v -2.19900012 7.8926615e-2 -0.50099999
v -2.03300524 0.12340482 -0.50099999
v -1.91148841 0.24492152 -0.50099999
v -1.64398408 0.41091633 -0.81919920
v -1.71834207 0.68842429 -0.81919920
v -1.92149198 0.89157426 -0.81919920
v -2.19900012 0.96593231 -0.81919920
v -2.47650814 0.89157420 -0.81919920
v -2.67965794 0.68842429 -0.81919920
v -2.75401616 0.41091630 -0.81919926
v -2.67965794 0.13340834 -0.81919926
v -2.47650814 -6.9741577e-2 -0.81919926
v -2.19900012 -0.14409959 -0.81919926
v -1.92149198 -6.9741532e-2 -0.81919926
v -1.71834207 0.13340846 -0.81919926
v -1.64398408 0.41091639 -1.76856089
v -1.71834219 0.68842435 -1.76856089
v -1.92149210 0.89157432 -1.76856101
v -2.19900012 0.96593231 -1.76856089
v -2.47650814 0.89157426 -1.76856101
v -2.67965817 0.68842435 -1.76856101
v -2.75401616 0.41091633 -1.76856101
v -2.67965794 0.13340838 -1.76856101
v -2.47650814 -6.9741532e-2 -1.76856101
v -2.19900012 -0.14409955 -1.76856101
v -1.92149198 -6.9741488e-2 -1.76856101
v -1.71834207 0.13340850 -1.76856089
v -1.86701024 0.41091639 -2.08675981
v -1.91148853 0.57691127 -2.08675981
v -2.03300524 0.69842792 -2.08675981
v -2.19900012 0.74290609 -2.08675981
v -2.36499500 0.69842792 -2.08675981
v -2.48651171 0.57691121 -2.08675981
v -2.53098989 0.41091636 -2.08675981
v -2.48651171 0.24492152 -2.08675981
v -2.36499500 0.12340487 -2.08675981
v -2.19900012 7.8926682e-2 -2.08675981
v -2.03300524 0.12340489 -2.08675981
v -1.91148841 0.24492159 -2.08675981
vt 0.46549267 0.75716305
vt 0.46554154 0.70290279
vt 0.57749361 0.77309120
vt 0.57855171 0.68395513
vt 0.82076615 0.10832280
vt 0.83181936 6.7071795e-2
vt 0.83181936 0.14957350
vt 0.86201715 3.6874175e-2
vt 0.86201715 0.17977130
vt 0.89057487 0.77309120
vt 0.89163297 0.68395513
vt 0.90326792 2.5821149e-2
vt 0.90326792 0.19082439
vt 0.94451863 3.6874175e-2
vt 0.94451863 0.17977130
vt 0.97471666 6.7072034e-2
vt 0.97471666 0.14957350
vt 0.98576981 0.10832280
vt 0.98844618 0.75716305
vt 0.98849481 0.70290279
vn 0.60211359 1.1847250e-8 0.79841044
vn 0.52144558 0.30105678 0.79841050
vn 0.30105670 0.52144558 0.79841053
vn -9.7546307e-8 0.60211349 0.79841051
vn -0.30105686 0.52144558 0.79841046
vn -0.52144567 0.30105686 0.79841041
vn -0.60211361 -3.6647097e-8 0.79841042
vn -0.52144571 -0.30105691 0.79841037
vn -0.30105682 -0.52144569 0.79841041
vn 2.1693615e-8 -0.60211361 0.79841042
vn 0.30105677 -0.52144569 0.79841043
vn 0.52144567 -0.30105684 0.79841042
vn 0.95311576 4.1489000e-8 0.30260592
vn 0.82542245 0.47655786 0.30260599
vn 0.47655783 0.82542245 0.30260604
vn -1.3618378e-7 0.95311573 0.30260603
vn -0.47655795 0.82542239 0.30260601
vn -0.82542240 0.47655795 0.30260598
vn -0.95311575 -1.4300832e-7 0.30260595
vn -0.82542241 -0.47655803 0.30260584
vn -0.47655793 -0.82542244 0.30260590
vn 2.6740112e-8 -0.95311577 0.30260590
vn 0.47655789 -0.82542246 0.30260592
vn 0.82542249 -0.47655784 0.30260590
vn 0.95311569 1.2148462e-7 -0.30260615
vn 0.82542239 0.47655784 -0.30260618
vn 0.47655779 0.82542239 -0.30260625
vn -9.5736984e-8 0.95311567 -0.30260620
vn -0.47655777 0.82542242 -0.30260622
vn -0.82542234 0.47655788 -0.30260626
vn -0.95311565 -2.4494996e-7 -0.30260627
vn -0.82542230 -0.47655797 -0.30260622
vn -0.47655787 -0.82542233 -0.30260629
vn 2.6740106e-8 -0.95311564 -0.30260630
vn 0.47655787 -0.82542233 -0.30260630
vn 0.82542244 -0.47655774 -0.30260620
vn 0.60211336 1.2341120e-7 -0.79841061
vn 0.52144543 0.30105672 -0.79841062
vn 0.30105657 0.52144538 -0.79841071
vn -4.1138145e-8 0.60211330 -0.79841066
vn -0.30105650 0.52144542 -0.79841071
vn -0.52144527 0.30105658 -0.79841078
vn -0.60211319 -1.7881747e-7 -0.79841074
vn -0.52144536 -0.30105672 -0.79841067
vn -0.30105661 -0.52144533 -0.79841072
vn 2.1693599e-8 -0.60211320 -0.79841073
vn 0.30105663 -0.52144531 -0.79841073
vn 0.52144545 -0.30105660 -0.79841065
g Box01_sep9_01 - Default
usemtl 01 - Default
f 1/19/1 13/10/13 14/11/14 2/20/2
f 2/6/2 3/8/3 4/12/4 5/14/5 6/16/6 7/18/7 8/17/8 9/15/9 10/13/10 11/9/11 12/7/12 1/5/1
f 2/19/2 14/10/14 15/11/15 3/20/3
f 3/2/3 15/4/15 16/3/16 4/1/4
f 4/1/4 16/3/16 17/4/17 5/2/5
f 5/2/5 17/4/17 18/3/18 6/1/6
f 6/2/6 18/4/18 19/3/19 7/1/7
f 7/1/7 19/3/19 20/4/20 8/2/8
f 8/1/8 20/3/20 21/4/21 9/2/9
f 9/20/9 21/11/21 22/10/22 10/19/10
f 10/19/10 22/10/22 23/11/23 11/20/11
f 11/20/11 23/11/23 24/10/24 12/19/12
f 12/20/12 24/11/24 13/10/13 1/19/1
f 13/10/13 25/3/25 26/4/26 14/11/14
f 14/10/14 26/3/26 27/4/27 15/11/15
f 15/4/15 27/11/27 28/10/28 16/3/16
f 16/3/16 28/10/28 29/11/29 17/4/17
f 17/4/17 29/11/29 30/10/30 18/3/18
f 18/4/18 30/11/30 31/10/31 19/3/19
f 19/3/19 31/10/31 32/11/32 20/4/20
f 20/3/20 32/10/32 33/11/33 21/4/21
f 21/11/21 33/4/33 34/3/34 22/10/22
f 22/10/22 34/3/34 35/4/35 23/11/23
f 23/11/23 35/4/35 36/3/36 24/10/24
f 24/11/24 36/4/36 25/3/25 13/10/13
f 25/3/25 37/1/37 38/2/38 26/4/26
f 26/3/26 38/1/38 39/2/39 27/4/27
f 27/11/27 39/20/39 40/19/40 28/10/28
f 28/10/28 40/19/40 41/20/41 29/11/29
f 29/11/29 41/20/41 42/19/42 30/10/30
f 30/11/30 42/20/42 43/19/43 31/10/31
f 31/10/31 43/19/43 44/20/44 32/11/32
f 32/10/32 44/19/44 45/20/45 33/11/33
f 33/4/33 45/2/45 46/1/46 34/3/34
f 34/3/34 46/1/46 47/2/47 35/4/35
f 35/4/35 47/2/47 48/1/48 36/3/36
f 36/4/36 48/2/48 37/1/37 25/3/25
f 37/18/37 48/17/48 47/15/47 46/13/46 45/9/45 44/7/44 43/5/43 42/6/42 41/8/41 40/12/40 39/14/39 38/16/38
o Box01_sep7
#48 vertices, 38 faces
v -1.86701024 0.41091633 0.49900001
v -1.91148853 0.57691121 0.49900001
v -2.03300524 0.69842786 0.49900001
v -2.19900012 0.74290603 0.49900001
v -2.36499500 0.69842780 0.49900001
v -2.48651171 0.57691115 0.49900001
v -2.53098989 0.41091630 0.49900001
v -2.48651171 0.24492146 0.49900001
v -2.36499500 0.12340480 0.49900001
v -2.19900012 7.8926615e-2 0.49900001
v -2.03300524 0.12340482 0.49900001
v -1.91148841 0.24492152 0.49900001
v -1.64398408 0.41091633 0.81719923
v -1.71834207 0.68842429 0.81719929
v -1.92149198 0.89157426 0.81719929
v -2.19900012 0.96593225 0.81719929
v -2.47650814 0.89157420 0.81719929
v -2.67965794 0.68842429 0.81719929
v -2.75401616 0.41091627 0.81719929
v -2.67965794 0.13340831 0.81719923
v -2.47650814 -6.9741607e-2 0.81719923
v -2.19900012 -0.14409962 0.81719923
v -1.92149198 -6.9741555e-2 0.81719923
v -1.71834207 0.13340843 0.81719923
v -1.64398408 0.41091627 1.76656079
v -1.71834219 0.68842423 1.76656079
v -1.92149210 0.89157420 1.76656091
v -2.19900012 0.96593225 1.76656079
v -2.47650814 0.89157414 1.76656091
v -2.67965817 0.68842423 1.76656091
v -2.75401616 0.41091624 1.76656091
v -2.67965794 0.13340826 1.76656091
v -2.47650814 -6.9741644e-2 1.76656091
v -2.19900012 -0.14409965 1.76656091
v -1.92149198 -6.9741599e-2 1.76656091
v -1.71834207 0.13340838 1.76656079
v -1.86701024 0.41091624 2.08475995
v -1.91148853 0.57691109 2.08475995
v -2.03300524 0.69842780 2.08475995
v -2.19900012 0.74290597 2.08475995
v -2.36499500 0.69842774 2.08475995
v -2.48651171 0.57691109 2.08475995
v -2.53098989 0.41091621 2.08475995
v -2.48651171 0.24492139 2.08475995
v -2.36499500 0.12340473 2.08475995
v -2.19900012 7.8926541e-2 2.08475995
v -2.03300524 0.12340476 2.08475995
v -1.91148841 0.24492146 2.08475995
vt 0.46549267 0.75716305
vt 0.46554154 0.70290279
vt 0.57749361 0.77309120
vt 0.57855171 0.68395513
vt 0.82076615 0.10832280
vt 0.83181936 6.7071795e-2
vt 0.83181936 0.14957350
vt 0.86201715 3.6874175e-2
vt 0.86201715 0.17977130
vt 0.89057487 0.77309120
vt 0.89163297 0.68395513
vt 0.90326792 2.5821149e-2
vt 0.90326792 0.19082439
vt 0.94451863 3.6874175e-2
vt 0.94451863 0.17977130
vt 0.97471666 6.7072034e-2
vt 0.97471666 0.14957350
vt 0.98576981 0.10832280
vt 0.98844618 0.75716305
vt 0.98849481 0.70290279
vn 0.60211359 7.5026291e-8 -0.79841044
vn 0.52144560 0.30105682 -0.79841046
vn 0.30105670 0.52144565 -0.79841048
vn -9.7546315e-8 0.60211359 -0.79841044
vn -0.30105686 0.52144566 -0.79841042
vn -0.52144570 0.30105690 -0.79841037
vn -0.60211361 1.7324574e-8 -0.79841042
vn -0.52144567 -0.30105686 -0.79841041
vn -0.30105678 -0.52144562 -0.79841047
vn 2.6835879e-8 -0.60211353 -0.79841048
vn 0.30105674 -0.52144562 -0.79841048
vn 0.52144564 -0.30105678 -0.79841046
vn 0.95311576 9.0290284e-8 -0.30260592
vn 0.82542246 0.47655789 -0.30260592
vn 0.47655782 0.82542249 -0.30260595
vn -1.3618378e-7 0.95311576 -0.30260593
vn -0.47655794 0.82542243 -0.30260592
vn -0.82542241 0.47655797 -0.30260591
vn -0.95311575 -1.0080906e-7 -0.30260595
vn -0.82542240 -0.47655799 -0.30260591
vn -0.47655791 -0.82542242 -0.30260600
vn 3.3692396e-8 -0.95311574 -0.30260601
vn 0.47655787 -0.82542243 -0.30260602
vn 0.82542248 -0.47655781 -0.30260597
vn 0.95311574 1.2533280e-7 0.30260598
vn 0.82542243 0.47655785 0.30260606
vn 0.47655785 0.82542240 0.30260614
vn -1.2037606e-7 0.95311570 0.30260611
vn -0.47655782 0.82542243 0.30260612
vn -0.82542236 0.47655792 0.30260613
vn -0.95311571 -2.4110178e-7 0.30260610
vn -0.82542236 -0.47655800 0.30260601
vn -0.47655790 -0.82542240 0.30260606
vn 3.3085079e-8 -0.95311572 0.30260606
vn 0.47655789 -0.82542240 0.30260607
vn 0.82542249 -0.47655778 0.30260600
vn 0.60211355 1.2389749e-7 0.79841047
vn 0.52144560 0.30105679 0.79841048
vn 0.30105671 0.52144549 0.79841058
vn -7.5500443e-8 0.60211342 0.79841056
vn -0.30105663 0.52144553 0.79841059
vn -0.52144540 0.30105669 0.79841065
vn -0.60211338 -1.7833126e-7 0.79841059
vn -0.52144554 -0.30105682 0.79841051
vn -0.30105672 -0.52144553 0.79841055
vn 2.5988895e-8 -0.60211343 0.79841056
vn 0.30105673 -0.52144551 0.79841056
vn 0.52144562 -0.30105671 0.79841050
g Box01_sep7_01 - Default
usemtl 01 - Default
f 49/38/49 60/37/60 59/35/59 58/33/58 57/29/57 56/27/56 55/25/55 54/26/54 53/28/53 52/32/52 51/34/51 50/36/50
f 49/21/49 61/23/61 72/24/72 60/22/60
f 50/22/50 62/24/62 61/23/61 49/21/49
f 51/22/51 63/24/63 62/23/62 50/21/50
f 52/39/52 64/30/64 63/31/63 51/40/51
f 53/40/53 65/31/65 64/30/64 52/39/52
f 54/39/54 66/30/66 65/31/65 53/40/53
f 55/39/55 67/30/67 66/31/66 54/40/54
f 56/40/56 68/31/68 67/30/67 55/39/55
f 57/40/57 69/31/69 68/30/68 56/39/56
f 58/21/58 70/23/70 69/24/69 57/22/57
f 59/22/59 71/24/71 70/23/70 58/21/58
f 60/21/60 72/23/72 71/24/71 59/22/59
f 61/23/61 73/30/73 84/31/84 72/24/72
f 62/24/62 74/31/74 73/30/73 61/23/61
f 63/24/63 75/31/75 74/30/74 62/23/62
f 64/30/64 76/23/76 75/24/75 63/31/63
f 65/31/65 77/24/77 76/23/76 64/30/64
f 66/30/66 78/23/78 77/24/77 65/31/65
f 67/30/67 79/23/79 78/24/78 66/31/66
f 68/31/68 80/24/80 79/23/79 67/30/67
f 69/31/69 81/24/81 80/23/80 68/30/68
f 70/23/70 82/30/82 81/31/81 69/24/69
f 71/24/71 83/31/83 82/30/82 70/23/70
f 72/23/72 84/30/84 83/31/83 71/24/71
f 73/30/73 85/39/85 96/40/96 84/31/84
f 74/31/74 86/40/86 85/39/85 73/30/73
f 75/31/75 87/40/87 86/39/86 74/30/74
f 76/23/76 88/21/88 87/22/87 75/24/75
f 77/24/77 89/22/89 88/21/88 76/23/76
f 78/23/78 90/21/90 89/22/89 77/24/77
f 79/23/79 91/21/91 90/22/90 78/24/78
f 80/24/80 92/22/92 91/21/91 79/23/79
f 81/24/81 93/22/93 92/21/92 80/23/80
f 82/30/82 94/39/94 93/40/93 81/31/81
f 83/31/83 95/40/95 94/39/94 82/30/82
f 84/30/84 96/39/96 95/40/95 83/31/83
f 86/26/86 87/28/87 88/32/88 89/34/89 90/36/90 91/38/91 92/37/92 93/35/93 94/33/94 95/29/95 96/27/96 85/25/85
