# Exported from Wings 3D 0.99.04a
mtllib base.mtl
o Box01_sep5
#68 vertices, 84 faces
v -2.99900007 1.0000000e-3 2.99900007
v 3.00099993 1.0000000e-3 2.99900007
v -2.03462982 1.12204361 -0.64867264
v 2.03662968 1.12204361 -0.64867264
v -2.99900007 4.32637691 2.99900007
v 3.00099993 4.32637691 2.99900007
v -2.03462982 3.21488333 -0.64867264
v 2.03662968 3.21488333 -0.64867264
v -2.99900007 1.0000000e-3 8.99899960
v 3.00099993 1.0000000e-3 8.99899960
v -2.99900007 4.32637644 8.99899960
v 3.00099993 4.32637644 8.99899960
v -10.21233654 1.0000000e-3 2.96568489
v 10.21433735 1.0000000e-3 2.96568489
v -10.21233654 2.26853943 2.96568489
v 10.21433735 2.26853943 2.96568489
v -10.14464569 1.0000000e-3 8.99899960
v 10.14664650 1.0000000e-3 8.99899960
v -10.14464569 2.26853919 8.99899960
v 10.14664650 2.26853919 8.99899960
v -2.99029779 2.32629108 24.98726273
v 2.99229670 2.32629108 24.98726273
v -14.89618301 1.13476980 14.47184849
v 14.89818382 1.13476980 14.47184849
v -2.03462982 1.12204361 -8.13212585
v 2.03662968 1.12204361 -8.13212585
v -2.03462982 3.21488333 -8.13212585
v 2.03662968 3.21488333 -8.13212585
v -4.74880266 1.12204361 -0.64867264
v 4.75080252 1.12204361 -0.64867264
v -4.74880266 3.21488333 -0.64867264
v 4.75080252 3.21488333 -0.64867264
v -4.74880266 1.12204361 -5.64867258
v 4.75080252 1.12204361 -5.64867258
v -4.74880266 3.21488333 -5.64867258
v 4.75080252 3.21488333 -5.64867258
v -1.26604736 1.57181060 11.99899960
v 1.26804745 1.57181060 11.99899960
v -1.26604736 2.75556588 11.99899960
v 1.26804745 2.75556588 11.99899960
v -3.67275810 5.20262814 2.99900055
v 3.67475796 5.20262814 2.99900055
v -3.67275810 5.20262766 8.99899960
v 3.67475796 5.20262766 8.99899960
v -6.04790449 5.19190216 2.99900007
v 6.04990435 5.19190216 2.99900007
v -6.04790449 5.19190168 8.99899960
v 6.04990435 5.19190168 8.99899960
v -3.68630552 6.20406485 4.59531546
v 3.68830585 6.20406485 4.59531546
v -6.06145144 6.19333982 4.59531546
v 6.06345224 6.19333982 4.59531498
v -7.74880266 4.00185823 -5.27962732
v 7.75080252 4.00185823 -5.27962732
v -2.99900007 1.0000000e-3 -1.0000000e-3
v 3.00099993 1.0000000e-3 -1.0000000e-3
v -2.99900007 4.32637691 -1.0000000e-3
v 3.00099993 4.32637691 -1.0000000e-3
v -2.03462982 5.17562342 -0.64867276
v 2.03662968 5.17562342 -0.64867270
v -2.03463006 5.17562342 -4.06134081
v 2.03662944 5.17562342 -4.06134129
v -1.50771356 6.32637691 3.85427976
v 1.50971365 6.32637691 3.85427976
v -1.50771332 6.32637644 6.81759119
v 1.50971389 6.32637644 6.81759119
v -11.06759739 1.13476980 -6.25655270
v 11.06959820 1.13476980 -6.25655270
vt 5.7930145e-3 0.85563606
vt 5.7930145e-3 0.99251217
vt 7.5781755e-3 0.68021584
vt 7.5781755e-3 0.76804924
vt 8.7580094e-3 0.78332335
vt 8.7580094e-3 0.84155792
vt 1.3044180e-2 0.29926401
vt 1.3675163e-2 0.31239820
vt 1.5775757e-2 0.57484365
vt 2.0521551e-2 0.12817489
vt 2.0521551e-2 0.15941042
vt 2.4370832e-2 0.10212541
vt 6.6592082e-2 2.1489659e-2
vt 6.6930443e-2 0.39029849
vt 6.6930443e-2 0.49612123
vt 6.9031030e-2 0.50342166
vt 7.5441003e-2 0.17733449
vt 8.7388217e-2 0.12817489
vt 8.7388217e-2 0.15941042
vt 9.7822040e-2 0.13546388
vt 9.8409742e-2 2.1489659e-2
vt 0.11011549 0.84155792
vt 0.12052732 0.99251217
vt 0.12052733 0.85563606
vt 0.12185314 1.0915254e-2
vt 0.14063086 0.10212541
vt 0.15744039 0.58313298
vt 0.16668384 0.17733449
vt 0.16938309 0.68021584
vt 0.17468572 0.39029849
vt 0.17468579 0.49612123
vt 0.17678645 0.50342166
vt 0.18861333 0.58237106
vt 0.18861333 0.66069317
vt 0.19810441 0.45098054
vt 0.19831106 0.38745219
vt 0.22577581 0.51114643
vt 0.22577581 0.54493886
vt 0.22794111 0.31239820
vt 0.22908069 0.29926401
vt 0.22984853 0.21112014
vt 0.22984853 0.24081852
vt 0.23004173 0.57484365
vt 0.23101918 0.78332335
vt 0.24207258 0.18232845
vt 0.24975005 0.76804924
vt 0.25262293 0.10339491
vt 0.25262293 0.16753285
vt 0.25738755 0.85563606
vt 0.25738755 0.99251217
vt 0.26148930 0.29310143
vt 0.26169685 0.47823817
vt 0.28427491 0.57253587
vt 0.28698349 0.44430351
vt 0.28733727 0.47252640
vt 0.28750917 0.33694273
vt 0.29018834 0.58237106
vt 0.29018834 0.66069317
vt 0.31807792 0.46102315
vt 0.33001161 0.21173239
vt 0.34475470 0.18048070
vt 0.35032439 0.15151775
vt 0.35115173 0.22596933
vt 0.38399291 0.31984049
vt 0.45681354 0.62706292
vt 0.45716408 0.51114643
vt 0.45716408 0.54493886
vt 0.46232128 0.52621901
vt 0.49082053 0.50030822
vt 0.49357820 0.44422618
vt 0.49410382 0.33706689
vt 0.53577292 0.61100793
vt 0.54917341 0.57275510
vt 0.55343902 0.46102315
vt 0.55662352 0.60863805
vt 0.55718374 0.44488660
vt 0.55791092 0.33752581
vt 0.56414557 0.44714180
vt 0.57088828 0.10836820
vt 0.57277459 0.54754752
vt 0.59546882 0.40756384
vt 0.60081518 0.27671343
vt 0.61931777 0.10467730
vt 0.62022489 0.31319311
vt 0.62022525 0.22781342
vt 0.64095914 0.54754752
vt 0.65711021 0.60863805
vt 0.67455614 0.56417227
vt 0.67455614 0.61135232
vt 0.68478411 0.33647773
vt 0.68605930 0.31319338
vt 0.68605959 0.22781366
vt 0.68697411 0.10467754
vt 0.69633120 0.27105519
vt 0.70679653 0.19363965
vt 0.70679653 0.26063079
vt 0.74459392 0.13769627
vt 0.74461687 0.11250770
vt 0.74461687 0.11742246
vt 0.74483287 0.15703571
vt 0.74622571 0.12931859
vt 0.74817336 0.15059805
vt 0.74861640 0.14427686
vt 0.75170290 0.11250770
vt 0.75170290 0.11742246
vt 0.75242400 0.12472892
vt 0.75370574 0.11148274
vt 0.75438583 0.11870348
vt 0.75697374 9.2388868e-2
vt 0.75890517 0.14628088
vt 0.75999308 0.14069581
vt 0.76093930 0.14293981
vt 0.76127934 0.10639846
vt 0.76142126 0.32668939
vt 0.76162493 0.13231814
vt 0.76271272 0.12673295
vt 0.76334417 0.13059318
vt 0.76415282 0.15897214
vt 0.76711261 0.14414227
vt 0.76931727 0.10639846
vt 0.76951742 0.13179564
vt 0.77234012 0.11693895
vt 0.77252007 0.56417227
vt 0.77252007 0.61135232
vt 0.77358615 9.2388868e-2
vt 0.77659512 0.16125119
vt 0.77945912 0.14654708
vt 0.78186405 0.13420057
vt 0.78472805 0.11949658
vt 0.78595245 0.17322230
vt 0.78632700 0.14418352
vt 0.78665632 0.35229999
vt 0.78734273 0.13896894
vt 0.79789436 0.11191261
vt 0.80808395 6.4050302e-2
vt 0.80808395 0.16335316
vt 0.81631476 0.19462138
vt 0.89377266 1.3415480e-2
vt 0.94242674 0.29854852
vt 0.94645208 0.26366046
vt 0.95442152 0.22461686
vt 0.98714811 6.4050302e-2
vt 0.98714811 0.11610894
vt 0.98720640 0.52593607
vt 0.98720759 0.29134881
vt 0.98785108 0.12651168
vt 0.98785108 0.19538625
vn 0.0000000e+0 -0.95587598 -0.29377051
vn -0.96678322 3.6677446e-17 -0.25559776
vn 0.0000000e+0 -1.00000000 -6.1221288e-17
vn -1.0039845e-20 -1.00000000 -6.1231941e-17
vn 1.00000000 0.0000000e+0 0.0000000e+0
vn -1.7856679e-20 -1.00000000 -6.1244368e-17
vn 0.0000000e+0 -0.95587598 -0.29377051
vn 0.96678322 3.2092765e-17 -0.25559776
vn 0.0000000e+0 -1.00000000 -6.1221288e-17
vn 1.0039844e-20 -1.00000000 -6.1231941e-17
vn -1.00000000 0.0000000e+0 0.0000000e+0
vn 1.7856677e-20 -1.00000000 -6.1244360e-17
vn 0.0000000e+0 -0.95587598 -0.29377051
vn -0.96678322 3.6677446e-17 -0.25559776
vn 0.0000000e+0 -1.00000000 -5.9342819e-17
vn 0.0000000e+0 -7.8180195e-17 1.00000000
vn -5.2427358e-17 -1.00000000 -7.1148456e-17
vn 0.0000000e+0 -0.95587598 -0.29377051
vn 0.96678322 3.2092765e-17 -0.25559776
vn 0.0000000e+0 -1.00000000 -5.9342819e-17
vn 0.0000000e+0 -7.8180195e-17 1.00000000
vn 5.2427358e-17 -1.00000000 -7.1148456e-17
vn 0.0000000e+0 0.95657650 -0.29148137
vn -0.96678322 3.6677446e-17 -0.25559776
vn 0.79274699 0.60955082 4.8442753e-8
vn 1.9741843e-3 6.9542734e-3 -0.99997387
vn 1.00000000 0.0000000e+0 0.0000000e+0
vn -0.27433708 0.96163359 0.0000000e+0
vn 0.0000000e+0 0.39319554 -0.91945488
vn -0.80167333 0.59776239 8.4924472e-8
vn 0.0000000e+0 0.95657650 -0.29148137
vn 0.96678322 3.2092765e-17 -0.25559776
vn -0.79274699 0.60955082 4.8442753e-8
vn -1.9741842e-3 6.9542730e-3 -0.99997387
vn -1.00000000 0.0000000e+0 0.0000000e+0
vn 0.27433705 0.96163360 0.0000000e+0
vn 0.0000000e+0 0.39319554 -0.91945488
vn 0.80167343 0.59776226 4.2276417e-8
vn 0.0000000e+0 0.95657650 -0.29148137
vn -0.96678322 3.6677446e-17 -0.25559776
vn 0.0000000e+0 -7.8180195e-17 1.00000000
vn -1.0485472e-16 1.00000000 7.1148456e-17
vn -7.3201726e-9 4.5598582e-8 1.00000000
vn -1.00000000 -8.3512249e-8 2.1881050e-8
vn 0.0000000e+0 0.95657650 -0.29148137
vn 0.96678322 3.2092765e-17 -0.25559776
vn 0.0000000e+0 -7.8180195e-17 1.00000000
vn 1.0485472e-16 1.00000000 7.1148456e-17
vn -7.3201726e-9 4.5598582e-8 1.00000000
vn 1.00000000 8.3512246e-8 -2.1881049e-8
vn 0.0000000e+0 -1.00000000 -6.1221288e-17
vn -1.0039845e-20 -1.00000000 -6.1231941e-17
vn 0.99999985 0.0000000e+0 -5.4429157e-4
vn 0.0000000e+0 -0.98958886 0.14392321
vn 0.0000000e+0 -0.88590653 0.46386379
vn -0.86591266 0.0000000e+0 0.50019523
vn 0.0000000e+0 -1.00000000 -6.1221288e-17
vn 1.0039844e-20 -1.00000000 -6.1231941e-17
vn -0.99999985 0.0000000e+0 -5.4435122e-4
vn 0.0000000e+0 -0.98958886 0.14392321
vn 0.0000000e+0 -0.88590653 0.46386379
vn 0.86591269 0.0000000e+0 0.50019518
vn 0.99999985 0.0000000e+0 -5.4429157e-4
vn -0.27475465 0.95405960 0.11949964
vn 0.0000000e+0 0.88590654 0.46386378
vn -0.86591266 0.0000000e+0 0.50019523
vn 0.79274699 0.60955082 4.8442753e-8
vn 0.0000000e+0 0.0000000e+0 1.00000000
vn -0.80167333 0.59776239 8.4924472e-8
vn 0.0000000e+0 0.73709091 0.67579360
vn -0.99999985 0.0000000e+0 -5.4435122e-4
vn 0.27475462 0.95405961 0.11949965
vn 0.86591269 0.0000000e+0 0.50019518
vn 0.0000000e+0 0.88590654 0.46386378
vn -0.79274699 0.60955082 4.8442753e-8
vn 0.0000000e+0 0.0000000e+0 1.00000000
vn 0.0000000e+0 0.73709091 0.67579360
vn 0.80167343 0.59776226 4.2276417e-8
vn -0.38036472 6.9089404e-17 -0.92483657
vn -1.0039845e-20 -1.00000000 -6.1231941e-17
vn 0.99572728 0.0000000e+0 -9.2342726e-2
vn -0.22929024 -0.97335470 2.5725247e-3
vn -1.7856679e-20 -1.00000000 -6.1244368e-17
vn -0.40399450 -0.91171294 -7.4618758e-2
vn 0.38036467 6.9089396e-17 -0.92483659
vn 1.0039844e-20 -1.00000000 -6.1231941e-17
vn -0.99572728 0.0000000e+0 -9.2342726e-2
vn 0.22929024 -0.97335470 2.5725247e-3
vn 1.7856677e-20 -1.00000000 -6.1244360e-17
vn 0.40399450 -0.91171294 -7.4618758e-2
vn -0.38036472 6.9089404e-17 -0.92483657
vn 0.99572728 0.0000000e+0 -9.2342726e-2
vn -0.22929012 0.97335473 2.5725618e-3
vn 1.9741843e-3 6.9542734e-3 -0.99997387
vn -0.57769801 0.81624411 3.2497658e-3
vn -0.27433708 0.96163359 0.0000000e+0
vn -0.40399445 0.91171296 -7.4618749e-2
vn 0.38036467 6.9089396e-17 -0.92483659
vn -0.99572728 0.0000000e+0 -9.2342726e-2
vn 0.22929012 0.97335473 2.5725618e-3
vn -1.9741842e-3 6.9542730e-3 -0.99997387
vn 0.57769792 0.81624418 3.2497653e-3
vn 0.27433705 0.96163360 0.0000000e+0
vn 0.40399445 0.91171296 -7.4618749e-2
vn -1.0039845e-20 -1.00000000 -6.1231941e-17
vn -0.91278199 0.0000000e+0 0.40844711
vn 0.0000000e+0 -0.98958886 0.14392321
vn -0.22929024 -0.97335470 2.5725247e-3
vn 0.75511507 0.0000000e+0 0.65559227
vn 1.0039844e-20 -1.00000000 -6.1231941e-17
vn 0.91278195 0.0000000e+0 0.40844720
vn 0.0000000e+0 -0.98958886 0.14392321
vn -0.75511507 0.0000000e+0 0.65559227
vn 0.22929024 -0.97335470 2.5725247e-3
vn -0.91278199 0.0000000e+0 0.40844711
vn -0.27475465 0.95405960 0.11949964
vn 0.75511507 0.0000000e+0 0.65559227
vn -0.22929012 0.97335473 2.5725618e-3
vn -0.57769801 0.81624411 3.2497658e-3
vn 0.0000000e+0 0.0000000e+0 1.00000000
vn 0.91278195 0.0000000e+0 0.40844720
vn 0.27475462 0.95405961 0.11949965
vn 0.22929012 0.97335473 2.5725618e-3
vn -0.75511507 0.0000000e+0 0.65559227
vn 0.0000000e+0 0.0000000e+0 1.00000000
vn 0.57769792 0.81624418 3.2497653e-3
vn 0.99999985 0.0000000e+0 -5.4429157e-4
vn -0.91278199 0.0000000e+0 0.40844711
vn -0.27475465 0.95405960 0.11949964
vn 0.0000000e+0 -0.98958886 0.14392321
vn -0.99999985 0.0000000e+0 -5.4435122e-4
vn 0.91278195 0.0000000e+0 0.40844720
vn 0.0000000e+0 -0.98958886 0.14392321
vn 0.27475462 0.95405961 0.11949965
vn -0.22929024 -0.97335470 2.5725247e-3
vn 0.75511507 0.0000000e+0 0.65559227
vn -0.22929012 0.97335473 2.5725618e-3
vn -0.40399450 -0.91171294 -7.4618758e-2
vn -0.40399445 0.91171296 -7.4618749e-2
vn 0.22929012 0.97335473 2.5725618e-3
vn -0.75511507 0.0000000e+0 0.65559227
vn 0.22929024 -0.97335470 2.5725247e-3
vn 0.40399445 0.91171296 -7.4618749e-2
vn 0.40399450 -0.91171294 -7.4618758e-2
vn 0.0000000e+0 0.0000000e+0 -1.00000000
vn 0.0000000e+0 -1.00000000 -5.9342819e-17
vn -0.67505398 0.0000000e+0 -0.73776834
vn -5.2427358e-17 -1.00000000 -7.1148456e-17
vn 0.0000000e+0 0.0000000e+0 -1.00000000
vn 0.0000000e+0 -1.00000000 -5.9342819e-17
vn 0.67505398 0.0000000e+0 -0.73776834
vn 5.2427358e-17 -1.00000000 -7.1148456e-17
vn 0.0000000e+0 0.0000000e+0 -1.00000000
vn -0.67505398 0.0000000e+0 -0.73776834
vn -1.0485472e-16 1.00000000 7.1148456e-17
vn -2.5412549e-8 0.90093829 -0.43394724
vn -1.00000000 -8.3512249e-8 2.1881050e-8
vn 0.0000000e+0 0.0000000e+0 -1.00000000
vn 0.67505398 0.0000000e+0 -0.73776834
vn 1.0485472e-16 1.00000000 7.1148456e-17
vn -2.5412549e-8 0.90093829 -0.43394724
vn 1.00000000 8.3512246e-8 -2.1881049e-8
vn 0.0000000e+0 -7.8180195e-17 1.00000000
vn -5.2427358e-17 -1.00000000 -7.1148456e-17
vn -0.83928074 9.1311421e-17 0.54369830
vn -0.69250863 -0.72140959 0.0000000e+0
vn 0.0000000e+0 -7.8180195e-17 1.00000000
vn 5.2427358e-17 -1.00000000 -7.1148456e-17
vn 0.83928074 9.1349875e-17 0.54369830
vn 0.69250863 -0.72140959 0.0000000e+0
vn 0.0000000e+0 -7.8180195e-17 1.00000000
vn -1.0485472e-16 1.00000000 7.1148456e-17
vn -0.83928074 9.1311421e-17 0.54369830
vn 0.25373974 0.96727253 0.0000000e+0
vn 0.0000000e+0 -7.8180195e-17 1.00000000
vn 1.0485472e-16 1.00000000 7.1148456e-17
vn 0.83928074 9.1349875e-17 0.54369830
vn -0.25373974 0.96727253 0.0000000e+0
vn -0.67505398 0.0000000e+0 -0.73776834
vn -5.2427358e-17 -1.00000000 -7.1148456e-17
vn -0.12209474 0.0000000e+0 -0.99251845
vn -0.69250863 -0.72140959 0.0000000e+0
vn 0.67505398 0.0000000e+0 -0.73776834
vn 5.2427358e-17 -1.00000000 -7.1148456e-17
vn 0.69250863 -0.72140959 0.0000000e+0
vn 0.12209474 0.0000000e+0 -0.99251845
vn -0.67505398 0.0000000e+0 -0.73776834
vn -1.0485472e-16 1.00000000 7.1148456e-17
vn 0.25373974 0.96727253 0.0000000e+0
vn -0.12209474 0.0000000e+0 -0.99251845
vn 0.67505398 0.0000000e+0 -0.73776834
vn 1.0485472e-16 1.00000000 7.1148456e-17
vn 0.12209474 0.0000000e+0 -0.99251845
vn -0.25373974 0.96727253 0.0000000e+0
vn 0.0000000e+0 0.0000000e+0 1.00000000
vn 0.0000000e+0 -0.88590653 0.46386379
vn -0.86591266 0.0000000e+0 0.50019523
vn 0.0000000e+0 0.0000000e+0 1.00000000
vn 0.0000000e+0 -0.88590653 0.46386379
vn 0.86591269 0.0000000e+0 0.50019518
vn 0.0000000e+0 0.0000000e+0 1.00000000
vn 0.0000000e+0 0.88590654 0.46386378
vn -0.86591266 0.0000000e+0 0.50019523
vn 0.0000000e+0 0.0000000e+0 1.00000000
vn 0.86591269 0.0000000e+0 0.50019518
vn 0.0000000e+0 0.88590654 0.46386378
vn 0.79274699 0.60955082 4.8442753e-8
vn 1.9741843e-3 6.9542734e-3 -0.99997387
vn 0.99990851 1.3526745e-2 1.0750093e-9
vn -3.8251431e-3 0.84708425 -0.53144486
vn -0.79274699 0.60955082 4.8442753e-8
vn -1.9741842e-3 6.9542730e-3 -0.99997387
vn -0.99990850 1.3527221e-2 1.0750471e-9
vn 3.8250892e-3 0.84708421 -0.53144492
vn 0.79274699 0.60955082 4.8442753e-8
vn 0.0000000e+0 0.0000000e+0 1.00000000
vn 0.99990851 1.3526745e-2 1.0750093e-9
vn -4.4032426e-3 0.97509174 0.22175824
vn -0.79274699 0.60955082 4.8442753e-8
vn 0.0000000e+0 0.0000000e+0 1.00000000
vn -0.99990850 1.3527221e-2 1.0750471e-9
vn 4.4032644e-3 0.97509174 0.22175823
vn 1.9741843e-3 6.9542734e-3 -0.99997387
vn -0.57769801 0.81624411 3.2497658e-3
vn -3.8251431e-3 0.84708425 -0.53144486
vn -0.99990852 -1.3526256e-2 -1.0749704e-9
vn -1.9741842e-3 6.9542730e-3 -0.99997387
vn 0.57769792 0.81624418 3.2497653e-3
vn 0.99990850 -1.3527208e-2 -1.0750460e-9
vn 3.8250892e-3 0.84708421 -0.53144492
vn -0.57769801 0.81624411 3.2497658e-3
vn 0.0000000e+0 0.0000000e+0 1.00000000
vn -0.99990852 -1.3526256e-2 -1.0749704e-9
vn -4.4032426e-3 0.97509174 0.22175824
vn 0.0000000e+0 0.0000000e+0 1.00000000
vn 0.57769792 0.81624418 3.2497653e-3
vn 4.4032644e-3 0.97509174 0.22175823
vn 0.99990850 -1.3527208e-2 -1.0750460e-9
vn 0.99990851 1.3526745e-2 1.0750093e-9
vn -3.8251431e-3 0.84708425 -0.53144486
vn -4.4032426e-3 0.97509174 0.22175824
vn -0.99990850 1.3527221e-2 1.0750471e-9
vn 4.4032644e-3 0.97509174 0.22175823
vn 3.8250892e-3 0.84708421 -0.53144492
vn -3.8251431e-3 0.84708425 -0.53144486
vn -0.99990852 -1.3526256e-2 -1.0749704e-9
vn -4.4032426e-3 0.97509174 0.22175824
vn 4.4032644e-3 0.97509174 0.22175823
vn 0.99990850 -1.3527208e-2 -1.0750460e-9
vn 3.8250892e-3 0.84708421 -0.53144492
vn -0.83928074 9.1311421e-17 0.54369830
vn 0.25373974 0.96727253 0.0000000e+0
vn -0.12209474 0.0000000e+0 -0.99251845
vn -0.69250863 -0.72140959 0.0000000e+0
vn 0.83928074 9.1349875e-17 0.54369830
vn 0.69250863 -0.72140959 0.0000000e+0
vn 0.12209474 0.0000000e+0 -0.99251845
vn -0.25373974 0.96727253 0.0000000e+0
vn -0.38036472 6.9089404e-17 -0.92483657
vn 1.00000000 0.0000000e+0 0.0000000e+0
vn -1.7856679e-20 -1.00000000 -6.1244368e-17
vn 0.38036467 6.9089396e-17 -0.92483659
vn -1.00000000 0.0000000e+0 0.0000000e+0
vn 1.7856677e-20 -1.00000000 -6.1244360e-17
vn -0.38036472 6.9089404e-17 -0.92483657
vn 1.00000000 0.0000000e+0 0.0000000e+0
vn -0.27433708 0.96163359 0.0000000e+0
vn 0.38036467 6.9089396e-17 -0.92483659
vn -1.00000000 0.0000000e+0 0.0000000e+0
vn 0.27433705 0.96163360 0.0000000e+0
vn 0.0000000e+0 1.00000000 0.0000000e+0
vn -7.3201726e-9 4.5598582e-8 1.00000000
vn -1.00000000 -8.3512249e-8 2.1881050e-8
vn 0.0000000e+0 1.00000000 0.0000000e+0
vn -7.3201726e-9 4.5598582e-8 1.00000000
vn 1.00000000 8.3512246e-8 -2.1881049e-8
vn 0.0000000e+0 1.00000000 0.0000000e+0
vn -2.5412549e-8 0.90093829 -0.43394724
vn -1.00000000 -8.3512249e-8 2.1881050e-8
vn 0.0000000e+0 1.00000000 0.0000000e+0
vn -2.5412549e-8 0.90093829 -0.43394724
vn 1.00000000 8.3512246e-8 -2.1881049e-8
vn 0.0000000e+0 1.00000000 1.6091362e-7
vn 0.0000000e+0 0.39319554 -0.91945488
vn -0.80167333 0.59776239 8.4924472e-8
vn 0.0000000e+0 1.00000000 1.6091362e-7
vn 0.0000000e+0 0.39319554 -0.91945488
vn 0.80167343 0.59776226 4.2276417e-8
vn 0.0000000e+0 1.00000000 1.6091362e-7
vn -0.80167333 0.59776239 8.4924472e-8
vn 0.0000000e+0 0.73709091 0.67579360
vn 0.0000000e+0 1.00000000 1.6091362e-7
vn 0.0000000e+0 0.73709091 0.67579360
vn 0.80167343 0.59776226 4.2276417e-8
vn 0.99572728 0.0000000e+0 -9.2342726e-2
vn -0.40399450 -0.91171294 -7.4618758e-2
vn -0.40399445 0.91171296 -7.4618749e-2
vn -0.99572728 0.0000000e+0 -9.2342726e-2
vn 0.40399445 0.91171296 -7.4618749e-2
vn 0.40399450 -0.91171294 -7.4618758e-2
g Box01_sep5_01 - Default
usemtl 01 - Default
f 1/119/1 3/111/13 4/115/18 2/121/7
f 1/109/2 5/125/24 7/120/40 3/113/14
f 1/105/5 55/104/260 57/98/266 5/99/27
f 2/121/9 10/128/57 9/127/51 1/119/3
f 2/121/10 14/122/86 18/129/110 10/128/58
f 2/121/12 56/117/264 14/122/89
f 3/111/15 25/97/146 26/101/150 4/115/20
f 3/111/17 29/110/164 33/103/180 25/97/148
f 4/113/19 8/120/46 6/125/32 2/109/8
f 4/57/21 30/33/167 32/34/175 8/58/47
f 5/38/25 41/37/207 43/66/215 11/67/67
f 5/147/28 57/146/267 15/137/96
f 5/9/29 63/16/284 64/32/287 6/43/37
f 6/75/31 8/80/45 7/86/39 5/87/23
f 6/73/34 42/72/212 46/65/227 16/53/101
f 6/104/35 58/105/269 56/99/263 2/98/11
f 6/52/38 64/35/288 66/36/294 12/51/78
f 7/33/41 31/57/171 29/58/163 3/34/16
f 7/5/44 59/6/273 61/22/279 27/44/157
f 8/4/48 32/3/176 36/29/192 28/46/160
f 8/89/49 60/88/275 59/123/272 7/124/43
f 9/127/52 17/126/105 13/118/80 1/119/4
f 9/144/54 21/68/130 17/145/107
f 9/12/56 37/13/197 39/21/203 11/26/66
f 10/96/59 22/141/131 12/95/71
f 10/128/61 38/133/199 37/131/196 9/127/55
f 11/95/63 21/141/127 9/96/53
f 11/40/65 39/28/202 40/17/206 12/7/74
f 11/132/68 43/114/216 47/90/232 19/78/120
f 11/51/69 65/36/290 63/35/285 5/52/30
f 12/144/72 22/68/134 20/145/122
f 12/26/73 40/21/205 38/13/200 10/12/62
f 12/67/75 44/66/219 42/37/211 6/38/33
f 12/8/77 66/14/293 65/30/291 11/39/70
f 13/118/83 55/112/261 1/119/6
f 13/42/81 67/63/295 15/41/92
f 14/122/88 24/134/142 18/129/114
f 14/142/85 56/135/262 58/136/268 16/143/98
f 14/122/90 68/107/300 24/134/144
f 15/79/93 23/25/137 19/62/118
f 15/53/94 45/65/223 41/72/208 5/73/26
f 15/143/91 57/136/265 55/135/259 13/142/79
f 15/79/97 67/138/297 23/25/139
f 16/79/102 46/82/228 48/64/236 20/62/126
f 16/137/103 58/146/270 6/147/36
f 16/41/99 68/63/298 14/42/87
f 17/140/106 21/94/128 19/139/115
f 17/126/108 23/130/135 13/118/82
f 18/145/112 22/68/133 10/144/60
f 18/48/113 24/20/141 20/47/124
f 19/145/116 21/68/129 11/144/64
f 19/47/117 23/20/136 17/48/109
f 19/62/119 47/64/231 45/82/224 15/79/95
f 20/139/121 22/94/132 18/140/111
f 20/62/123 24/25/140 16/79/100
f 20/78/125 48/90/235 44/114/220 12/132/76
f 23/130/138 67/100/296 13/118/84
f 24/25/143 68/138/299 16/79/104
f 25/92/145 27/85/153 28/83/158 26/93/149
f 25/92/147 33/91/179 35/84/187 27/85/154
f 26/101/152 34/106/184 30/116/168 4/115/22
f 27/46/155 35/29/188 31/3/172 7/4/42
f 27/50/156 61/23/278 62/24/281 28/49/161
f 28/85/159 36/84/191 34/91/183 26/92/151
f 28/44/162 62/22/282 60/6/276 8/5/50
f 29/110/166 53/102/254 33/103/182
f 30/61/169 54/45/255 32/60/177
f 31/60/173 53/45/251 29/61/165
f 32/3/178 54/27/258 36/29/194
f 33/91/181 53/81/253 35/84/190
f 34/106/185 54/108/256 30/116/170
f 35/29/189 53/27/252 31/3/174
f 36/84/193 54/81/257 34/91/186
f 38/11/198 40/10/204 39/18/201 37/19/195
f 41/37/209 49/55/239 43/66/217
f 42/77/214 50/71/244 52/70/250 46/76/230
f 43/56/218 49/71/241 51/70/247 47/54/234
f 44/66/221 50/55/242 42/37/213
f 45/76/225 51/70/245 49/71/240 41/77/210
f 46/74/229 52/69/249 48/59/238
f 47/59/233 51/69/246 45/74/226
f 48/54/237 52/70/248 50/71/243 44/56/222
f 60/1/274 62/24/280 61/23/277 59/2/271
f 63/31/283 65/30/289 66/14/292 64/15/286
