# Exported from Wings 3D 1.0.1
mtllib door1.mtl
o Object02
#44 vertices, 42 faces
v -0.74977139 4.49862838 3.00000024
v -0.24977043 4.49868274 3.00000048
v -0.74977139 4.49862791 2.3841858e-7
v -0.24977043 4.49868227 3.5762787e-7
v -0.75015095 7.99862791 3.00000024
v -0.25015095 7.99868227 3.00000024
v -0.75015095 7.99862791 2.3841858e-7
v -0.25015095 7.99868227 2.3841858e-7
v -0.74982575 4.99862838 4.00000000
v -0.24982479 4.99868227 4.00000000
v -0.74982575 4.99862838 -1.00000000
v -0.24982479 4.99868227 -1.00000000
v -0.75015095 7.99862791 4.00000000
v -0.25015095 7.99868227 4.00000000
v -0.75015095 7.99862791 -0.99999976
v -0.25015095 7.99868227 -0.99999976
v -0.74993351 5.99862838 4.50000000
v -0.24993351 5.99868274 4.50000000
v -0.74993351 5.99862838 -1.50000000
v -0.24993351 5.99868274 -1.50000000
v -0.75015095 7.99862791 4.50000000
v -0.25015095 7.99868227 4.50000000
v -0.75015095 7.99862791 -1.49999976
v -0.25015095 7.99868227 -1.49999976
v -0.50017765 8.24865509 3.00000024
v -0.25017861 8.24868179 3.00000024
v -0.50017765 8.24865509 2.3841858e-7
v -0.25017861 8.24868179 2.3841858e-7
v -0.50017765 8.24865509 4.00000000
v -0.25017861 8.24868179 4.00000000
v -0.50017765 8.24865509 -0.99999976
v -0.25017861 8.24868179 -0.99999976
v 2.2861261e-4 4.49870945 3.00000048
v 2.2861261e-4 4.49870945 3.5762787e-7
v -1.5094977e-4 7.99870945 3.00000024
v -1.5094977e-4 7.99870945 2.3841858e-7
v 1.7473001e-4 4.99870945 4.00000000
v 1.7473001e-4 4.99870945 -1.00000000
v -1.5094977e-4 7.99870945 4.00000000
v -1.5094977e-4 7.99870945 -0.99999976
v 6.6011140e-5 5.99870945 4.50000000
v 6.6011140e-5 5.99870992 -1.50000000
v -1.5094977e-4 7.99870945 4.50000000
v -1.5094977e-4 7.99870945 -1.49999976
vt 6.9057196e-2 0.87928647
vt 6.9058344e-2 0.77423793
vt 6.9061697e-2 0.45909184
vt 6.9062933e-2 0.35404295
vt 7.0447430e-2 0.93237239
vt 7.0454285e-2 0.30208027
vt 0.28054440 0.93237466
vt 0.28055125 0.30208254
vt 0.38420314 0.87928993
vt 0.38420880 0.35404637
vt 0.43672872 0.77424186
vt 0.43673211 0.45909578
vt 0.45504358 0.76095700
vt 0.45504382 0.67691779
vt 0.47629502 0.76091301
vt 0.47629526 0.67687380
vt 0.85966271 0.63955516
vt 0.88067001 0.66056728
vt 0.90167993 0.66056967
vt 0.90168232 0.63955998
vt 0.92362815 0.32556570
vt 0.92362839 0.28354627
vt 0.92366725 0.40990320
vt 0.92375928 0.73384893
vt 0.92404288 0.90138924
vt 0.92423040 0.65811515
vt 0.96535021 0.90137136
vt 0.96564752 0.28354645
vt 0.96564752 0.32556587
vt 0.96606654 0.73384154
vt 0.96614486 0.40982822
vt 0.96618134 0.65810788
vt 0.98601288 0.65814161
vt 0.98612338 0.90082490
vt 0.98612720 0.40880087
vt 0.98665708 0.32556593
vt 0.98665720 0.28354651
vt 0.98675567 0.73371708
vn -0.71655344 -0.67887660 0.16024270
vn 1.0520958e-4 -0.97324897 0.22975297
vn -0.71655343 -0.67887663 -0.16024263
vn 1.0546978e-4 -0.97324900 -0.22975285
vn -0.80742254 0.50904003 -0.29823997
vn 0.30141285 0.90456691 -0.30151119
vn -0.80742254 0.50904003 0.29823997
vn 0.30141285 0.90456691 0.30151119
vn -0.72542345 -0.48674283 0.48666441
vn 7.6342024e-5 -0.70710675 0.70710681
vn -0.72542341 -0.48674282 -0.48666446
vn 7.6721345e-5 -0.70710674 -0.70710682
vn -0.80742251 0.50903999 0.29824014
vn 0.30141285 0.90456691 0.30151119
vn -0.80742251 0.50903999 -0.29824014
vn 0.30141285 0.90456691 -0.30151119
vn -0.45694403 -0.20441103 0.86568948
vn 2.4814153e-5 -0.22975287 0.97324900
vn -0.45694404 -0.20441098 -0.86568949
vn 2.4923699e-5 -0.22975279 -0.97324902
vn -0.57741285 0.57728742 0.57735053
vn -7.6875851e-5 0.70710678 0.70710678
vn -0.57741283 0.57728747 -0.57735050
vn -7.6875856e-5 0.70710682 -0.70710674
vn -0.33664393 0.81248377 -0.47596322
vn 0.57728786 0.57741340 -0.57734954
vn -0.33664393 0.81248377 0.47596322
vn 0.57728786 0.57741340 0.57734954
vn -0.33664393 0.81248377 0.47596322
vn 0.57728786 0.57741340 0.57734954
vn -0.33664393 0.81248377 -0.47596322
vn 0.57728786 0.57741340 -0.57734954
vn 0.71670046 -0.67872139 0.16024270
vn 0.71670061 -0.67872127 -0.16024256
vn 0.70702999 0.70718357 -6.4841336e-8
vn 0.70702999 0.70718357 6.4841301e-8
vn 0.72552889 -0.48658564 0.48666441
vn 0.72552912 -0.48658547 -0.48666423
vn 0.70702997 0.70718358 2.5936299e-9
vn 0.70702997 0.70718358 -2.5717022e-9
vn 0.45698833 -0.20431191 0.86568950
vn 0.45698848 -0.20431180 -0.86568945
vn 0.57728750 0.57741292 0.57735038
vn 0.57728747 0.57741297 -0.57735036
g Object02_01 - Default
usemtl 01 - Default
f 1/26/1 3/23/3 4/31/4 2/32/2
f 1/11/1 5/2/5 7/3/7 3/12/3
f 1/11/1 9/9/9 13/1/13 5/2/5
f 2/32/2 10/30/10 9/24/9 1/26/1
f 2/32/2 33/33/33 37/38/37 10/30/10
f 3/24/3 11/26/11 12/32/12 4/30/4
f 4/31/4 34/35/34 33/33/33 2/32/2
f 5/17/5 25/18/25 26/19/26 6/20/6
f 6/31/6 8/32/8 7/26/7 5/23/5
f 6/14/6 26/16/26 30/15/30 14/13/14
f 6/31/6 35/35/35 36/33/36 8/32/8
f 7/3/7 15/4/15 11/10/11 3/12/3
f 7/16/7 27/14/27 31/13/31 15/15/15
f 8/20/8 28/19/28 27/18/27 7/17/7
f 8/31/8 36/35/36 40/36/40 16/29/16
f 9/9/9 17/7/17 21/5/21 13/1/13
f 10/32/10 18/30/18 17/24/17 9/26/9
f 10/32/10 37/33/37 41/38/41 18/30/18
f 11/26/11 19/24/19 20/30/20 12/32/12
f 12/32/12 38/33/38 34/38/34 4/30/4
f 13/21/13 21/22/21 22/28/22 14/29/14
f 13/16/13 29/14/29 25/13/25 5/15/5
f 14/20/14 30/19/30 29/18/29 13/17/13
f 14/29/14 39/36/39 35/35/35 6/31/6
f 15/4/15 23/6/23 19/8/19 11/10/11
f 15/17/15 31/18/31 32/19/32 16/20/16
f 16/29/16 24/28/24 23/22/23 15/21/15
f 16/14/16 32/16/32 28/15/28 8/13/8
f 16/29/16 40/36/40 44/37/44 24/28/24
f 18/30/18 22/27/22 21/25/21 17/24/17
f 18/30/18 41/38/41 43/34/43 22/27/22
f 19/24/19 23/25/23 24/27/24 20/30/20
f 20/30/20 42/38/42 38/33/38 12/32/12
f 22/28/22 43/37/43 39/36/39 14/29/14
f 24/27/24 44/34/44 42/38/42 20/30/20
f 25/13/25 29/14/29 30/16/30 26/15/26
f 28/16/28 32/15/32 31/13/31 27/14/27
f 34/11/34 36/2/36 35/3/35 33/12/33
f 34/11/34 38/9/38 40/1/40 36/2/36
f 35/3/35 39/4/39 37/10/37 33/12/33
f 38/9/38 42/7/42 44/5/44 40/1/40
f 39/4/39 43/6/43 41/8/41 37/10/37
