# Exported from Wings 3D 0.99.04a
mtllib frontengines.mtl
o plane bas0
#70 vertices, 66 faces
v -1.72204834 0.72823046 2.75182780
v -2.09617133 0.51223046 2.75182780
v -2.47029433 0.72823046 2.75182780
v -2.47029433 1.16023046 2.75182780
v -2.09617133 1.37623036 2.75182780
v -1.72204834 1.16023036 2.75182780
v -1.72204834 0.72823046 2.53582780
v -2.09617133 0.51223036 2.53582780
v -2.47029433 0.72823046 2.53582780
v -2.47029433 1.16023046 2.53582780
v -2.09617133 1.37623036 2.53582780
v -1.72204834 1.16023036 2.53582780
v -1.72204834 0.72823036 2.31982780
v -2.09617133 0.51223036 2.31982780
v -2.47029433 0.72823036 2.31982780
v -2.47029433 1.16023036 2.31982780
v -2.09617133 1.37623036 2.31982780
v -1.72204834 1.16023036 2.31982780
v -1.72204844 0.72823036 2.10382780
v -2.09617133 0.51223036 2.10382780
v -2.47029433 0.72823036 2.10382780
v -2.47029433 1.16023036 2.10382780
v -2.09617133 1.37623036 2.10382760
v -1.72204834 1.16023036 2.10382760
v -1.70277856 1.44321167 2.53582760
v -1.62627097 1.36306324 2.53582760
v -1.70277856 1.44321167 2.31982760
v -1.62627097 1.36306304 2.31982760
v -1.69814113 1.58323791 2.53582760
v -1.62163354 1.57901339 2.53582760
v -1.69814113 1.58323791 2.31982760
v -1.62163354 1.57901339 2.31982760
v -2.56426080 1.45585061 2.53582780
v -2.56426080 1.45585061 2.31982760
v -1.10438338 1.48453770 4.52201551
v 1.72967647 0.72823056 2.75182780
v 2.10379946 0.51223046 2.75182780
v 2.47792245 0.72823046 2.75182780
v 2.47792245 1.16023046 2.75182780
v 2.10379946 1.37623036 2.75182780
v 1.72967647 1.16023046 2.75182780
v 1.72967647 0.72823046 2.53582780
v 2.10379946 0.51223046 2.53582780
v 2.47792245 0.72823036 2.53582780
v 2.47792245 1.16023036 2.53582780
v 2.10379946 1.37623036 2.53582780
v 1.72967647 1.16023036 2.53582780
v 1.72967647 0.72823046 2.31982780
v 2.10379946 0.51223036 2.31982780
v 2.47792245 0.72823036 2.31982780
v 2.47792245 1.16023036 2.31982780
v 2.10379946 1.37623036 2.31982780
v 1.72967647 1.16023036 2.31982780
v 1.72967647 0.72823036 2.10382780
v 2.10379946 0.51223036 2.10382780
v 2.47792245 0.72823036 2.10382780
v 2.47792245 1.16023036 2.10382780
v 2.10379946 1.37623036 2.10382760
v 1.72967647 1.16023036 2.10382760
v 1.71040669 1.44321167 2.53582760
v 1.63389910 1.36306324 2.53582760
v 1.71040669 1.44321167 2.31982760
v 1.63389910 1.36306304 2.31982760
v 1.70576936 1.58323791 2.53582760
v 1.62926177 1.57901339 2.53582760
v 1.70576936 1.58323791 2.31982760
v 1.62926177 1.57901339 2.31982760
v 2.57188893 1.45585061 2.53582780
v 2.57188893 1.45585061 2.31982760
v 1.11201161 1.48453791 4.52201551
vt 1.8267881e-2 0.54101992
vt 1.8577799e-2 0.56730336
vt 2.1047875e-2 0.55277741
vt 2.1340333e-2 0.31084087
vt 2.1564282e-2 0.33433437
vt 2.1688353e-2 0.49177504
vt 2.4094202e-2 0.73555553
vt 4.3383013e-2 0.44860220
vt 4.5231082e-2 0.57123250
vt 4.6125304e-2 0.48347950
vt 4.9479418e-2 0.64785111
vt 6.0872268e-2 0.45478487
vt 6.2207274e-2 0.55835652
vt 9.8879538e-2 0.58106411
vt 0.11505540 0.54085231
vt 0.13729754 0.62251341
vt 0.16732576 0.64185119
vt 0.21442294 0.50275028
vt 0.22411883 0.48191309
vt 0.24445117 0.52208793
vt 0.36920205 0.31777334
vt 0.46941710 0.15966600
vt 0.46941712 0.17810923
vt 0.50352788 0.15958118
vt 0.50352788 0.17802444
vt 0.51093137 0.29902527
vt 0.51093137 0.33481726
vt 0.52841181 0.58151340
vt 0.53487700 0.57147408
vt 0.54454160 0.29902527
vt 0.54454160 0.33481726
vt 0.55673397 0.59975219
vt 0.56319928 0.58971286
vt 0.57414293 0.61671555
vt 0.58032560 0.29902527
vt 0.58032560 0.33481738
vt 0.60766149 0.45845532
vt 0.63598359 0.47669446
vt 0.64444304 0.55870175
vt 0.64444304 0.63248360
vt 0.64448035 0.48162162
vt 0.68768841 0.55870175
vt 0.68768853 0.63248348
vt 0.68772584 0.48162162
vt 0.73093390 0.55870175
vt 0.73093396 0.63248348
vt 0.73097128 0.48162162
vt 0.77417940 0.55870175
vt 0.77417940 0.63248348
vt 0.77421659 0.48162162
vt 0.84761065 0.22630723
vt 0.84884477 9.0556316e-2
vt 0.88306063 0.16359034
vt 0.88382024 0.28902400
vt 0.88415688 2.9394051e-2
vt 0.88415688 0.15171872
vt 0.95478106 2.9394051e-2
vt 0.95478106 0.15171872
vt 0.95623940 0.16359034
vt 0.95623940 0.28902400
vt 0.99009317 9.0556316e-2
vt 0.99244899 0.22630723
vn 4.5795296e-16 0.0000000e+0 1.00000000
vn 0.50000007 -0.86602536 2.0647654e-7
vn 1.00000000 0.0000000e+0 0.0000000e+0
vn 4.5795296e-16 0.0000000e+0 1.00000000
vn 0.50000007 -0.86602536 2.0647654e-7
vn -0.50000007 -0.86602536 2.0647654e-7
vn 4.5795296e-16 0.0000000e+0 1.00000000
vn -0.50000007 -0.86602536 2.0647654e-7
vn -1.00000000 0.0000000e+0 0.0000000e+0
vn 4.5795296e-16 0.0000000e+0 1.00000000
vn -1.00000000 0.0000000e+0 0.0000000e+0
vn -0.49999980 0.86602552 0.0000000e+0
vn 4.5795296e-16 0.0000000e+0 1.00000000
vn -0.49999980 0.86602552 0.0000000e+0
vn 0.49999998 0.86602541 2.9744914e-16
vn 4.5795296e-16 0.0000000e+0 1.00000000
vn 0.49999998 0.86602541 2.9744914e-16
vn 1.00000000 0.0000000e+0 0.0000000e+0
vn 0.50000007 -0.86602536 2.0647654e-7
vn 1.00000000 0.0000000e+0 0.0000000e+0
vn 0.50000007 -0.86602536 2.0647654e-7
vn 1.00000000 0.0000000e+0 -5.9489838e-16
vn 0.50000007 -0.86602536 2.0647654e-7
vn -0.50000007 -0.86602536 2.0647654e-7
vn 0.50000007 -0.86602536 2.0647654e-7
vn -0.50000007 -0.86602536 2.0647654e-7
vn -0.50000007 -0.86602536 2.0647654e-7
vn -1.00000000 0.0000000e+0 0.0000000e+0
vn -0.50000007 -0.86602536 2.0647654e-7
vn -1.00000000 0.0000000e+0 1.1897966e-15
vn -1.00000000 0.0000000e+0 0.0000000e+0
vn -0.49999980 0.86602552 0.0000000e+0
vn -1.00000000 0.0000000e+0 1.1897966e-15
vn -0.49999989 0.86602547 -2.0647656e-7
vn -0.49999980 0.86602552 0.0000000e+0
vn 0.49999998 0.86602541 2.9744914e-16
vn -0.49999989 0.86602547 -2.0647656e-7
vn 4.5790126e-7 6.9675978e-7 1.00000000
vn -0.16785009 0.98581253 0.0000000e+0
vn 0.49999998 0.86602541 2.9744914e-16
vn 1.00000000 0.0000000e+0 0.0000000e+0
vn 1.00000000 0.0000000e+0 -5.9489838e-16
vn 4.5790126e-7 6.9675978e-7 1.00000000
vn 0.90425688 -0.42698888 2.0360416e-7
vn 0.50000007 -0.86602536 2.0647654e-7
vn 1.00000000 0.0000000e+0 -5.9489838e-16
vn 0.50000003 -0.86602538 -1.1920930e-7
vn 1.00000000 -1.1920935e-7 -2.3841847e-7
vn 0.50000007 -0.86602536 2.0647654e-7
vn -0.50000007 -0.86602536 2.0647654e-7
vn 0.50000003 -0.86602538 -1.1920930e-7
vn -0.49999998 -0.86602541 5.9489829e-16
vn -0.50000007 -0.86602536 2.0647654e-7
vn -1.00000000 0.0000000e+0 1.1897966e-15
vn -0.49999998 -0.86602541 5.9489829e-16
vn -1.00000000 0.0000000e+0 0.0000000e+0
vn -1.00000000 0.0000000e+0 1.1897966e-15
vn -0.49999989 0.86602547 -2.0647656e-7
vn -1.00000000 0.0000000e+0 0.0000000e+0
vn -0.49999998 0.86602541 2.9744900e-16
vn -0.49999989 0.86602547 -2.0647656e-7
vn -0.49999998 0.86602541 2.9744900e-16
vn 0.49999998 0.86602541 2.9744886e-16
vn -0.16785009 0.98581253 0.0000000e+0
vn -4.5790157e-7 -6.9675977e-7 -1.00000000
vn 1.00000000 0.0000000e+0 -5.9489838e-16
vn 0.49999998 0.86602541 2.9744886e-16
vn 1.00000000 -1.1920935e-7 -2.3841847e-7
vn -4.5790157e-7 -6.9675977e-7 -1.00000000
vn 0.90425688 -0.42698888 2.0360416e-7
vn 0.50000003 -0.86602538 -1.1920930e-7
vn 1.00000000 -1.1920935e-7 -2.3841847e-7
vn -1.3765103e-7 -2.3841857e-7 -1.00000000
vn 0.50000003 -0.86602538 -1.1920930e-7
vn -0.49999998 -0.86602541 5.9489829e-16
vn -1.3765103e-7 -2.3841857e-7 -1.00000000
vn -0.49999998 -0.86602541 5.9489829e-16
vn -1.00000000 0.0000000e+0 0.0000000e+0
vn -1.3765103e-7 -2.3841857e-7 -1.00000000
vn -1.00000000 0.0000000e+0 0.0000000e+0
vn -0.49999998 0.86602541 2.9744900e-16
vn -1.3765103e-7 -2.3841857e-7 -1.00000000
vn -0.49999998 0.86602541 2.9744900e-16
vn 0.49999998 0.86602541 2.9744886e-16
vn -1.3765103e-7 -2.3841857e-7 -1.00000000
vn 0.49999998 0.86602541 2.9744886e-16
vn 1.00000000 -1.1920935e-7 -2.3841847e-7
vn -1.3765103e-7 -2.3841857e-7 -1.00000000
vn 4.5790126e-7 6.9675978e-7 1.00000000
vn -0.16785009 0.98581253 0.0000000e+0
vn 0.0000000e+0 0.0000000e+0 1.00000000
vn -1.4669584e-2 -0.99989240 0.0000000e+0
vn 0.95718954 -3.1700497e-2 -0.28772079
vn -1.4664914e-2 -0.99957445 2.5216074e-2
vn 4.5790126e-7 6.9675978e-7 1.00000000
vn 0.90425688 -0.42698888 2.0360416e-7
vn 0.0000000e+0 0.0000000e+0 1.00000000
vn 0.99976950 -2.1469589e-2 1.0237497e-8
vn -0.16785009 0.98581253 0.0000000e+0
vn -4.5790157e-7 -6.9675977e-7 -1.00000000
vn 0.0000000e+0 -1.0046836e-15 -1.00000000
vn -1.4669584e-2 -0.99989240 0.0000000e+0
vn 9.1990608e-16 0.0000000e+0 -1.00000000
vn -4.5790157e-7 -6.9675977e-7 -1.00000000
vn 0.90425688 -0.42698888 2.0360416e-7
vn 0.0000000e+0 -1.0046836e-15 -1.00000000
vn 0.99976950 -2.1469589e-2 1.0237497e-8
vn 5.5132995e-2 0.99847902 0.0000000e+0
vn 0.0000000e+0 0.0000000e+0 1.00000000
vn -0.14551273 0.98935638 0.0000000e+0
vn 0.95718954 -3.1700497e-2 -0.28772079
vn -0.14489196 0.98513589 9.2269138e-2
vn 5.5132995e-2 0.99847902 0.0000000e+0
vn 0.0000000e+0 0.0000000e+0 1.00000000
vn 0.99976950 -2.1469589e-2 1.0237497e-8
vn 5.5132995e-2 0.99847902 0.0000000e+0
vn 0.0000000e+0 -1.0046836e-15 -1.00000000
vn -0.14551273 0.98935638 0.0000000e+0
vn 9.1990608e-16 0.0000000e+0 -1.00000000
vn 5.5132995e-2 0.99847902 0.0000000e+0
vn 0.0000000e+0 -1.0046836e-15 -1.00000000
vn 0.99976950 -2.1469589e-2 1.0237497e-8
vn -0.14551273 0.98935638 0.0000000e+0
vn -1.4669584e-2 -0.99989240 0.0000000e+0
vn -0.14489196 0.98513589 9.2269138e-2
vn -1.4664914e-2 -0.99957445 2.5216074e-2
vn -0.14551273 0.98935638 0.0000000e+0
vn -1.4669584e-2 -0.99989240 0.0000000e+0
vn 9.1990608e-16 0.0000000e+0 -1.00000000
vn 0.95718954 -3.1700497e-2 -0.28772079
vn -0.14489196 0.98513589 9.2269138e-2
vn -1.4664914e-2 -0.99957445 2.5216074e-2
vn -6.8692945e-16 0.0000000e+0 1.00000000
vn -0.50000007 -0.86602536 2.0647654e-7
vn -1.00000000 0.0000000e+0 0.0000000e+0
vn -6.8692945e-16 0.0000000e+0 1.00000000
vn -0.50000007 -0.86602536 2.0647654e-7
vn 0.49999989 -0.86602547 2.0647656e-7
vn -6.8692945e-16 0.0000000e+0 1.00000000
vn 0.49999989 -0.86602547 2.0647656e-7
vn 1.00000000 0.0000000e+0 1.1897966e-15
vn -6.8692945e-16 0.0000000e+0 1.00000000
vn 1.00000000 0.0000000e+0 1.1897966e-15
vn 0.49999989 0.86602547 -2.0647656e-7
vn -6.8692945e-16 0.0000000e+0 1.00000000
vn 0.49999989 0.86602547 -2.0647656e-7
vn -0.49999989 0.86602547 -2.0647656e-7
vn -6.8692945e-16 0.0000000e+0 1.00000000
vn -0.49999989 0.86602547 -2.0647656e-7
vn -1.00000000 0.0000000e+0 0.0000000e+0
vn -0.50000007 -0.86602536 2.0647654e-7
vn -1.00000000 0.0000000e+0 0.0000000e+0
vn -0.50000007 -0.86602536 2.0647654e-7
vn -1.00000000 0.0000000e+0 0.0000000e+0
vn -0.50000007 -0.86602536 2.0647654e-7
vn 0.49999989 -0.86602547 2.0647656e-7
vn -0.50000007 -0.86602536 2.0647654e-7
vn 0.49999989 -0.86602547 2.0647656e-7
vn 0.49999989 -0.86602547 2.0647656e-7
vn 1.00000000 0.0000000e+0 1.1897966e-15
vn 0.49999989 -0.86602547 2.0647656e-7
vn 1.00000000 0.0000000e+0 0.0000000e+0
vn 1.00000000 0.0000000e+0 1.1897966e-15
vn 0.49999989 0.86602547 -2.0647656e-7
vn 1.00000000 0.0000000e+0 0.0000000e+0
vn 0.49999998 0.86602541 0.0000000e+0
vn 0.49999989 0.86602547 -2.0647656e-7
vn -0.49999989 0.86602547 -2.0647656e-7
vn 0.49999998 0.86602541 0.0000000e+0
vn -4.5790126e-7 6.9675978e-7 1.00000000
vn 0.16785009 0.98581253 0.0000000e+0
vn -0.49999989 0.86602547 -2.0647656e-7
vn -1.00000000 0.0000000e+0 0.0000000e+0
vn -1.00000000 0.0000000e+0 0.0000000e+0
vn -4.5790126e-7 6.9675978e-7 1.00000000
vn -0.90425688 -0.42698888 2.0360416e-7
vn -0.50000007 -0.86602536 2.0647654e-7
vn -1.00000000 0.0000000e+0 0.0000000e+0
vn -0.50000007 -0.86602536 2.0647654e-7
vn -1.00000000 0.0000000e+0 0.0000000e+0
vn -0.50000007 -0.86602536 2.0647654e-7
vn 0.49999989 -0.86602547 2.0647656e-7
vn -0.50000007 -0.86602536 2.0647654e-7
vn 0.49999998 -0.86602541 2.9744914e-16
vn 0.49999989 -0.86602547 2.0647656e-7
vn 1.00000000 0.0000000e+0 0.0000000e+0
vn 0.49999998 -0.86602541 2.9744914e-16
vn 1.00000000 0.0000000e+0 0.0000000e+0
vn 1.00000000 0.0000000e+0 0.0000000e+0
vn 0.49999998 0.86602541 0.0000000e+0
vn 1.00000000 0.0000000e+0 0.0000000e+0
vn 0.49999998 0.86602541 0.0000000e+0
vn 0.49999998 0.86602541 0.0000000e+0
vn 0.49999998 0.86602541 0.0000000e+0
vn -0.49999998 0.86602541 2.9744886e-16
vn 0.16785009 0.98581253 0.0000000e+0
vn 4.5790157e-7 -6.9675977e-7 -1.00000000
vn -1.00000000 0.0000000e+0 0.0000000e+0
vn -0.49999998 0.86602541 2.9744886e-16
vn -1.00000000 0.0000000e+0 0.0000000e+0
vn 4.5790157e-7 -6.9675977e-7 -1.00000000
vn -0.90425688 -0.42698888 2.0360416e-7
vn -0.50000007 -0.86602536 2.0647654e-7
vn -1.00000000 0.0000000e+0 0.0000000e+0
vn 1.3765102e-7 -2.3841858e-7 -1.00000000
vn -0.50000007 -0.86602536 2.0647654e-7
vn 0.49999998 -0.86602541 2.9744914e-16
vn 1.3765102e-7 -2.3841858e-7 -1.00000000
vn 0.49999998 -0.86602541 2.9744914e-16
vn 1.00000000 0.0000000e+0 0.0000000e+0
vn 1.3765102e-7 -2.3841858e-7 -1.00000000
vn 1.00000000 0.0000000e+0 0.0000000e+0
vn 0.49999998 0.86602541 0.0000000e+0
vn 1.3765102e-7 -2.3841858e-7 -1.00000000
vn 0.49999998 0.86602541 0.0000000e+0
vn -0.49999998 0.86602541 2.9744886e-16
vn 1.3765102e-7 -2.3841858e-7 -1.00000000
vn -0.49999998 0.86602541 2.9744886e-16
vn -1.00000000 0.0000000e+0 0.0000000e+0
vn 1.3765102e-7 -2.3841858e-7 -1.00000000
vn -4.5790126e-7 6.9675978e-7 1.00000000
vn 0.16785009 0.98581253 0.0000000e+0
vn 0.0000000e+0 0.0000000e+0 1.00000000
vn 1.4669584e-2 -0.99989240 0.0000000e+0
vn -0.95718958 -3.1699794e-2 -0.28772076
vn 1.4664914e-2 -0.99957445 2.5216177e-2
vn -4.5790126e-7 6.9675978e-7 1.00000000
vn -0.90425688 -0.42698888 2.0360416e-7
vn 0.0000000e+0 0.0000000e+0 1.00000000
vn -0.99976951 -2.1469112e-2 1.0237271e-8
vn 0.16785009 0.98581253 0.0000000e+0
vn 4.5790157e-7 -6.9675977e-7 -1.00000000
vn 0.0000000e+0 -1.0046839e-15 -1.00000000
vn 1.4669584e-2 -0.99989240 0.0000000e+0
vn -9.1990609e-16 0.0000000e+0 -1.00000000
vn 4.5790157e-7 -6.9675977e-7 -1.00000000
vn -0.90425688 -0.42698888 2.0360416e-7
vn 0.0000000e+0 -1.0046839e-15 -1.00000000
vn -0.99976951 -2.1469112e-2 1.0237271e-8
vn -5.5132995e-2 0.99847902 0.0000000e+0
vn 0.0000000e+0 0.0000000e+0 1.00000000
vn 0.14551274 0.98935638 0.0000000e+0
vn -0.95718958 -3.1699794e-2 -0.28772076
vn 0.14489198 0.98513590 9.2269042e-2
vn -5.5132995e-2 0.99847902 0.0000000e+0
vn 0.0000000e+0 0.0000000e+0 1.00000000
vn -0.99976951 -2.1469112e-2 1.0237271e-8
vn -5.5132995e-2 0.99847902 0.0000000e+0
vn 0.0000000e+0 -1.0046839e-15 -1.00000000
vn 0.14551274 0.98935638 0.0000000e+0
vn -9.1990609e-16 0.0000000e+0 -1.00000000
vn -5.5132995e-2 0.99847902 0.0000000e+0
vn 0.0000000e+0 -1.0046839e-15 -1.00000000
vn -0.99976951 -2.1469112e-2 1.0237271e-8
vn 0.14551274 0.98935638 0.0000000e+0
vn 1.4669584e-2 -0.99989240 0.0000000e+0
vn 0.14489198 0.98513590 9.2269042e-2
vn 1.4664914e-2 -0.99957445 2.5216177e-2
vn 0.14551274 0.98935638 0.0000000e+0
vn 1.4669584e-2 -0.99989240 0.0000000e+0
vn -9.1990609e-16 0.0000000e+0 -1.00000000
vn -0.95718958 -3.1699794e-2 -0.28772076
vn 0.14489198 0.98513590 9.2269042e-2
vn 1.4664914e-2 -0.99957445 2.5216177e-2
g plane bas0_8 - Default
usemtl 8 - Default
f 1/55/1 6/57/16 5/61/13 4/58/10 3/56/7 2/52/4
f 1/49/3 7/46/20 12/45/41 6/48/18
f 2/48/5 8/45/23 7/47/19 1/50/2
f 3/49/8 9/46/27 8/45/24 2/48/6
f 4/39/11 10/42/31 9/43/28 3/40/9
f 5/48/14 11/45/35 10/46/32 4/49/12
f 6/50/17 12/47/40 11/45/36 5/48/15
f 7/46/22 13/43/46 18/42/66 12/45/42
f 8/45/25 14/42/49 13/44/45 7/47/21
f 9/46/29 15/43/53 14/42/50 8/45/26
f 10/42/33 16/45/57 15/46/54 9/43/30
f 11/45/37 17/42/61 16/43/58 10/46/34
f 11/25/39 25/23/90 27/22/99 17/24/64
f 12/1/43 26/6/95 25/10/89 11/15/38
f 13/43/48 19/40/72 24/39/87 18/42/68
f 14/42/51 20/39/74 19/41/71 13/44/47
f 15/43/55 21/40/77 20/39/75 14/42/52
f 16/45/59 22/48/80 21/49/78 15/46/56
f 17/42/62 23/39/83 22/40/81 16/43/60
f 17/11/65 27/9/100 28/13/104 18/14/69
f 18/44/67 24/41/86 23/39/84 17/42/63
f 18/26/70 28/30/105 26/31/96 12/27/44
f 20/51/76 21/53/79 22/59/82 23/62/85 24/60/88 19/54/73
f 25/20/92 33/17/124 34/16/128 27/18/102
f 25/20/94 35/34/132 33/17/126
f 26/6/97 30/8/114 29/12/109 25/10/91
f 27/9/101 31/2/117 32/3/121 28/13/106
f 27/9/103 34/7/129 31/2/119
f 28/30/107 32/35/122 30/36/115 26/31/98
f 29/5/111 35/21/130 25/4/93
f 30/28/113 32/32/120 31/33/116 29/29/108
f 31/33/118 34/38/127 33/37/123 29/29/110
f 33/37/125 35/19/131 29/29/112
f 36/49/134 42/46/151 43/45/155 37/48/137
f 37/52/136 38/55/139 39/57/142 40/61/145 41/58/148 36/56/133
f 37/48/138 43/45/156 44/47/159 38/50/140
f 38/49/141 44/46/160 45/45/163 39/48/143
f 39/49/144 45/46/164 46/45/167 40/48/146
f 40/48/147 46/45/168 47/47/172 41/50/149
f 41/39/150 47/42/173 42/43/152 36/40/135
f 42/46/153 48/43/177 49/42/181 43/45/157
f 43/45/158 49/42/182 50/44/185 44/47/161
f 44/46/162 50/43/186 51/42/189 45/45/165
f 45/46/166 51/43/190 52/42/193 46/45/169
f 46/15/170 60/10/221 61/6/227 47/1/175
f 47/42/174 53/45/198 48/46/178 42/43/154
f 47/26/176 61/30/228 63/31/237 53/27/202
f 48/43/179 54/40/203 55/39/206 49/42/183
f 49/42/184 55/39/207 56/41/209 50/44/187
f 50/43/188 56/40/210 57/39/212 51/42/191
f 51/43/192 57/40/213 58/39/215 52/42/194
f 52/42/195 58/39/216 59/41/218 53/44/199
f 52/22/196 62/24/231 60/25/222 46/23/171
f 53/45/200 59/48/219 54/49/204 48/46/180
f 53/14/201 63/13/236 62/9/232 52/11/197
f 54/53/205 59/59/220 58/62/217 57/60/214 56/54/211 55/51/208
f 60/10/223 64/12/241 65/8/246 61/6/229
f 60/4/225 70/21/262 64/5/243
f 61/30/230 65/35/247 67/36/254 63/31/239
f 62/18/234 69/16/260 68/17/256 60/20/224
f 63/13/238 67/3/253 66/2/249 62/9/233
f 64/29/240 66/33/248 67/32/252 65/28/245
f 64/29/242 68/37/255 69/38/259 66/33/250
f 64/29/244 70/19/263 68/37/257
f 66/2/251 69/7/261 62/9/235
f 68/17/258 70/34/264 60/20/226
