# Exported from Wings 3D 0.99.04a
mtllib rearengines.mtl
o plane bas0
#72 vertices, 70 faces
v -1.71916855 0.72823056 -0.21422855
v -1.34504556 0.51223046 -0.21422850
v -0.97092256 0.72823046 -0.21422850
v -0.97092256 1.16023046 -0.21422855
v -1.34504556 1.37623036 -0.21422860
v -1.71916855 1.16023046 -0.21422860
v -1.71916855 0.72823046 -0.43022850
v -1.34504556 0.51223046 -0.43022850
v -0.97092256 0.72823036 -0.43022850
v -0.97092256 1.16023036 -0.43022860
v -1.34504556 1.37623036 -0.43022860
v -1.71916855 1.16023036 -0.43022860
v -1.71916855 0.72823046 -0.64622850
v -1.34504556 0.51223036 -0.64622850
v -0.97092256 0.72823036 -0.64622850
v -0.97092256 1.16023036 -0.64622860
v -1.34504556 1.37623036 -0.64622860
v -1.71916845 1.16023036 -0.64622860
v -1.71916845 0.72823036 -0.86222850
v -1.34504556 0.51223036 -0.86222850
v -0.97092256 0.72823036 -0.86222850
v -0.97092256 1.16023036 -0.86222860
v -1.34504545 1.37623036 -0.86222860
v -1.71916845 1.16023036 -0.86222860
v -1.73843823 1.44321167 -0.43022871
v -1.81494592 1.36306324 -0.43022871
v -1.73843823 1.44321167 -0.64622881
v -1.81494592 1.36306304 -0.64622871
v -1.74307576 1.58323791 -0.43022871
v -1.81958324 1.57901339 -0.43022871
v -1.74307576 1.58323791 -0.64622881
v -1.81958324 1.57901339 -0.64622871
v -0.87695619 1.45585061 -0.43022860
v -0.87695619 1.45585061 -0.64622871
v -2.55818770 1.46129688 1.55795328
v -4.71059827 1.53338456 -0.99070767
v 1.71374409 0.72823056 -0.21422855
v 1.33962120 0.51223046 -0.21422850
v 0.96549811 0.72823036 -0.21422850
v 0.96549811 1.16023046 -0.21422855
v 1.33962110 1.37623036 -0.21422860
v 1.71374409 1.16023046 -0.21422860
v 1.71374409 0.72823046 -0.43022850
v 1.33962110 0.51223036 -0.43022850
v 0.96549811 0.72823036 -0.43022850
v 0.96549811 1.16023036 -0.43022850
v 1.33962100 1.37623036 -0.43022860
v 1.71374399 1.16023046 -0.43022860
v 1.71374409 0.72823046 -0.64622850
v 1.33962110 0.51223036 -0.64622840
v 0.96549811 0.72823036 -0.64622840
v 0.96549811 1.16023036 -0.64622850
v 1.33962100 1.37623036 -0.64622860
v 1.71374399 1.16023036 -0.64622860
v 1.71374409 0.72823036 -0.86222850
v 1.33962110 0.51223036 -0.86222840
v 0.96549811 0.72823036 -0.86222840
v 0.96549800 1.16023036 -0.86222850
v 1.33962100 1.37623036 -0.86222850
v 1.71374399 1.16023036 -0.86222850
v 1.73301377 1.44321167 -0.43022871
v 1.80952146 1.36306324 -0.43022860
v 1.73301377 1.44321167 -0.64622871
v 1.80952146 1.36306324 -0.64622860
v 1.73765110 1.58323812 -0.43022871
v 1.81415879 1.57901339 -0.43022871
v 1.73765110 1.58323791 -0.64622871
v 1.81415879 1.57901339 -0.64622871
v 0.87153163 1.45585061 -0.43022860
v 0.87153163 1.45585061 -0.64622871
v 2.55276304 1.46129688 1.55795307
v 4.70517382 1.53338498 -0.99070746
vt 1.6387016e-2 0.98663580
vt 1.8267881e-2 0.54101992
vt 1.8577799e-2 0.56730336
vt 2.1047875e-2 0.55277741
vt 2.1688353e-2 0.49177504
vt 2.3252264e-2 0.14369334
vt 2.3888610e-2 0.16324520
vt 2.4094202e-2 0.73555553
vt 4.3383013e-2 0.44860220
vt 4.5231082e-2 0.57123250
vt 4.6125304e-2 0.48347950
vt 4.9479418e-2 0.64785111
vt 6.0872268e-2 0.45478487
vt 6.2207274e-2 0.55835652
vt 7.5654328e-2 0.63243818
vt 9.8381639e-2 0.61315942
vt 9.8879538e-2 0.58106411
vt 0.11505540 0.54085231
vt 0.14347009 0.65194112
vt 0.15258518 0.72313201
vt 0.15941888 0.73118794
vt 0.17531249 0.70385313
vt 0.18214619 0.71190941
vt 0.37877807 0.87008488
vt 0.39637715 0.85502368
vt 0.43884692 0.94027609
vt 0.44556192 0.15628266
vt 0.45644599 0.92521489
vt 0.46941710 0.15966600
vt 0.46941712 0.17810923
vt 0.47633901 0.98525393
vt 0.50120968 0.64960217
vt 0.50352788 0.15958118
vt 0.50352788 0.17802444
vt 0.51093137 0.29902527
vt 0.51093137 0.33481726
vt 0.54454160 0.29902527
vt 0.54454160 0.33481726
vt 0.58032560 0.29902527
vt 0.58032560 0.33481738
vt 0.64444304 0.55870175
vt 0.64444304 0.63248360
vt 0.64448035 0.48162162
vt 0.68768841 0.55870175
vt 0.68768853 0.63248348
vt 0.68772584 0.48162162
vt 0.73093390 0.55870175
vt 0.73093396 0.63248348
vt 0.73097128 0.48162162
vt 0.77417940 0.55870175
vt 0.77417940 0.63248348
vt 0.77421659 0.48162162
vt 0.84761065 0.22630723
vt 0.84884477 9.0556316e-2
vt 0.88306063 0.16359034
vt 0.88382024 0.28902400
vt 0.88415688 2.9394051e-2
vt 0.88415688 0.15171872
vt 0.95478106 2.9394051e-2
vt 0.95478106 0.15171872
vt 0.95623940 0.16359034
vt 0.95623940 0.28902400
vt 0.99009317 9.0556316e-2
vt 0.99244899 0.22630723
vn -6.8825503e-8 1.1920930e-7 1.00000000
vn -0.50000007 -0.86602536 2.0647656e-7
vn -1.00000000 0.0000000e+0 -5.9489852e-16
vn -6.8825503e-8 1.1920930e-7 1.00000000
vn -0.50000007 -0.86602536 2.0647656e-7
vn 0.49999989 -0.86602547 2.0647656e-7
vn -6.8825503e-8 1.1920930e-7 1.00000000
vn 0.49999989 -0.86602547 2.0647656e-7
vn 1.00000000 0.0000000e+0 -2.9744912e-16
vn -6.8825503e-8 1.1920930e-7 1.00000000
vn 1.00000000 0.0000000e+0 -2.9744912e-16
vn 0.49999989 0.86602547 -2.0647654e-7
vn -6.8825503e-8 1.1920930e-7 1.00000000
vn 0.49999989 0.86602547 -2.0647654e-7
vn -0.49999989 0.86602547 -2.0647656e-7
vn -6.8825503e-8 1.1920930e-7 1.00000000
vn -0.49999989 0.86602547 -2.0647656e-7
vn -1.00000000 0.0000000e+0 -5.9489852e-16
vn -0.50000007 -0.86602536 2.0647656e-7
vn -1.00000000 0.0000000e+0 -5.9489852e-16
vn -0.50000007 -0.86602536 2.0647654e-7
vn -1.00000000 1.1920926e-7 -2.3841858e-7
vn -0.50000007 -0.86602536 2.0647656e-7
vn 0.49999989 -0.86602547 2.0647656e-7
vn -0.50000007 -0.86602536 2.0647654e-7
vn 0.49999989 -0.86602547 2.0647656e-7
vn 0.49999989 -0.86602547 2.0647656e-7
vn 1.00000000 0.0000000e+0 -2.9744912e-16
vn 0.49999989 -0.86602547 2.0647656e-7
vn 1.00000000 0.0000000e+0 0.0000000e+0
vn 1.00000000 0.0000000e+0 -2.9744912e-16
vn 0.49999989 0.86602547 -2.0647654e-7
vn 1.00000000 0.0000000e+0 0.0000000e+0
vn 0.49999998 0.86602541 1.4872457e-16
vn 0.49999989 0.86602547 -2.0647654e-7
vn -0.49999989 0.86602547 -2.0647656e-7
vn 0.49999998 0.86602541 1.4872457e-16
vn -2.2895063e-7 3.4837997e-7 1.00000000
vn 0.16785013 0.98581252 0.0000000e+0
vn -0.49999989 0.86602547 -2.0647656e-7
vn -1.00000000 0.0000000e+0 -5.9489852e-16
vn -1.00000000 1.1920926e-7 -2.3841858e-7
vn -2.2895063e-7 3.4837997e-7 1.00000000
vn -0.90425679 -0.42698907 -1.1987366e-8
vn -0.50000007 -0.86602536 2.0647654e-7
vn -1.00000000 1.1920926e-7 -2.3841858e-7
vn -0.50000012 -0.86602533 8.7267211e-8
vn -1.00000000 1.1920925e-7 -2.3841861e-7
vn -0.50000007 -0.86602536 2.0647654e-7
vn 0.49999989 -0.86602547 2.0647656e-7
vn -0.50000012 -0.86602533 8.7267211e-8
vn 0.49999998 -0.86602541 0.0000000e+0
vn 0.49999989 -0.86602547 2.0647656e-7
vn 1.00000000 0.0000000e+0 0.0000000e+0
vn 0.49999998 -0.86602541 0.0000000e+0
vn 1.00000000 0.0000000e+0 0.0000000e+0
vn 1.00000000 0.0000000e+0 0.0000000e+0
vn 0.49999998 0.86602541 1.4872457e-16
vn 1.00000000 0.0000000e+0 0.0000000e+0
vn 0.50000003 0.86602538 1.1920930e-7
vn 0.49999998 0.86602541 1.4872457e-16
vn 0.50000003 0.86602538 1.1920930e-7
vn -0.50000003 0.86602538 -1.1920930e-7
vn 0.16785013 0.98581252 0.0000000e+0
vn 2.3913036e-7 -7.1165712e-7 -1.00000000
vn -1.00000000 1.1920926e-7 -2.3841858e-7
vn -0.50000003 0.86602538 -1.1920930e-7
vn -1.00000000 1.1920925e-7 -2.3841861e-7
vn 2.3913036e-7 -7.1165712e-7 -1.00000000
vn -0.90425679 -0.42698907 -1.1987366e-8
vn -0.50000012 -0.86602533 8.7267211e-8
vn -1.00000000 1.1920925e-7 -2.3841861e-7
vn -1.1448824e-16 -1.5894572e-7 -1.00000000
vn -0.50000012 -0.86602533 8.7267211e-8
vn 0.49999998 -0.86602541 0.0000000e+0
vn -1.1448824e-16 -1.5894572e-7 -1.00000000
vn 0.49999998 -0.86602541 0.0000000e+0
vn 1.00000000 0.0000000e+0 0.0000000e+0
vn -1.1448824e-16 -1.5894572e-7 -1.00000000
vn 1.00000000 0.0000000e+0 0.0000000e+0
vn 0.50000003 0.86602538 1.1920930e-7
vn -1.1448824e-16 -1.5894572e-7 -1.00000000
vn 0.50000003 0.86602538 1.1920930e-7
vn -0.50000003 0.86602538 -1.1920930e-7
vn -1.1448824e-16 -1.5894572e-7 -1.00000000
vn -0.50000003 0.86602538 -1.1920930e-7
vn -1.00000000 1.1920925e-7 -2.3841861e-7
vn -1.1448824e-16 -1.5894572e-7 -1.00000000
vn -2.2895063e-7 3.4837997e-7 1.00000000
vn 0.16785013 0.98581252 0.0000000e+0
vn 0.0000000e+0 0.0000000e+0 1.00000000
vn 1.4669588e-2 -0.99989240 0.0000000e+0
vn 1.4667904e-2 -0.99977776 1.5142075e-2
vn 0.18548666 6.1431404e-3 -0.98262758
vn -2.9728737e-2 -0.99955299 -3.1651970e-3
vn -2.2895063e-7 3.4837997e-7 1.00000000
vn -0.90425679 -0.42698907 -1.1987366e-8
vn 0.0000000e+0 0.0000000e+0 1.00000000
vn -0.99976951 -2.1469112e-2 1.0237271e-8
vn 0.16785013 0.98581252 0.0000000e+0
vn 2.3913036e-7 -7.1165712e-7 -1.00000000
vn -1.3271633e-6 -3.4578844e-8 -1.00000000
vn 1.4669588e-2 -0.99989240 0.0000000e+0
vn 1.1949965e-7 3.9577140e-9 -1.00000000
vn 2.3913036e-7 -7.1165712e-7 -1.00000000
vn -0.90425679 -0.42698907 -1.1987366e-8
vn -1.3271633e-6 -3.4578844e-8 -1.00000000
vn -0.99976951 -2.1469112e-2 1.0237271e-8
vn -5.5133069e-2 0.99847902 2.6203025e-17
vn 0.0000000e+0 0.0000000e+0 1.00000000
vn 0.14551274 0.98935638 0.0000000e+0
vn 0.14447045 0.98226979 0.11947527
vn 0.18548666 6.1431404e-3 -0.98262758
vn -2.6301113e-2 0.99838018 5.0450693e-2
vn -5.5133069e-2 0.99847902 2.6203025e-17
vn 0.0000000e+0 0.0000000e+0 1.00000000
vn -0.99976951 -2.1469112e-2 1.0237271e-8
vn -5.5133069e-2 0.99847902 2.6203025e-17
vn -1.3271633e-6 -3.4578844e-8 -1.00000000
vn 0.14551274 0.98935638 0.0000000e+0
vn 1.1949965e-7 3.9577140e-9 -1.00000000
vn -5.5133069e-2 0.99847902 2.6203025e-17
vn -1.3271633e-6 -3.4578844e-8 -1.00000000
vn -0.99976951 -2.1469112e-2 1.0237271e-8
vn 0.14551274 0.98935638 0.0000000e+0
vn 1.4669588e-2 -0.99989240 0.0000000e+0
vn 0.14447045 0.98226979 0.11947527
vn 1.4667904e-2 -0.99977776 1.5142075e-2
vn 0.14551274 0.98935638 0.0000000e+0
vn 1.4669588e-2 -0.99989240 0.0000000e+0
vn 1.1949965e-7 3.9577140e-9 -1.00000000
vn 0.14447045 0.98226979 0.11947527
vn 1.4667904e-2 -0.99977776 1.5142075e-2
vn -2.6301113e-2 0.99838018 5.0450693e-2
vn -2.9728737e-2 -0.99955299 -3.1651970e-3
vn 0.18548666 6.1431404e-3 -0.98262758
vn -2.6301113e-2 0.99838018 5.0450693e-2
vn -2.9728737e-2 -0.99955299 -3.1651970e-3
vn 6.8825495e-8 1.1920930e-7 1.00000000
vn 0.50000021 -0.86602528 2.9374373e-7
vn 1.00000000 1.1920926e-7 -2.3841864e-7
vn 6.8825495e-8 1.1920930e-7 1.00000000
vn 0.50000021 -0.86602528 2.9374373e-7
vn -0.49999984 -0.86602550 3.2568582e-7
vn 6.8825495e-8 1.1920930e-7 1.00000000
vn -0.49999984 -0.86602550 3.2568582e-7
vn -1.00000000 0.0000000e+0 0.0000000e+0
vn 6.8825495e-8 1.1920930e-7 1.00000000
vn -1.00000000 0.0000000e+0 0.0000000e+0
vn -0.49999994 0.86602544 -8.7267288e-8
vn 6.8825495e-8 1.1920930e-7 1.00000000
vn -0.49999994 0.86602544 -8.7267288e-8
vn 0.49999980 0.86602552 -2.3841848e-7
vn 6.8825495e-8 1.1920930e-7 1.00000000
vn 0.49999980 0.86602552 -2.3841848e-7
vn 1.00000000 1.1920926e-7 -2.3841864e-7
vn 0.50000021 -0.86602528 2.9374373e-7
vn 1.00000000 1.1920926e-7 -2.3841864e-7
vn 0.50000016 -0.86602531 0.0000000e+0
vn 1.00000000 2.3841861e-7 -5.7110245e-14
vn 0.50000021 -0.86602528 2.9374373e-7
vn -0.49999984 -0.86602550 3.2568582e-7
vn 0.50000016 -0.86602531 0.0000000e+0
vn -0.49999998 -0.86602541 -1.4872464e-16
vn -0.49999984 -0.86602550 3.2568582e-7
vn -1.00000000 0.0000000e+0 0.0000000e+0
vn -0.49999998 -0.86602541 -1.4872464e-16
vn -1.00000000 0.0000000e+0 0.0000000e+0
vn -1.00000000 0.0000000e+0 0.0000000e+0
vn -0.49999994 0.86602544 -8.7267288e-8
vn -1.00000000 0.0000000e+0 0.0000000e+0
vn -0.50000008 0.86602536 0.0000000e+0
vn -0.49999994 0.86602544 -8.7267288e-8
vn 0.49999980 0.86602552 -2.3841848e-7
vn -0.50000008 0.86602536 0.0000000e+0
vn 1.0179421e-8 3.6327738e-7 1.00000000
vn -0.16785009 0.98581253 0.0000000e+0
vn 0.49999980 0.86602552 -2.3841848e-7
vn 1.00000000 1.1920926e-7 -2.3841864e-7
vn 1.00000000 2.3841861e-7 -5.7110245e-14
vn 1.0179421e-8 3.6327738e-7 1.00000000
vn 0.90425674 -0.42698916 1.0180215e-7
vn 0.50000016 -0.86602531 0.0000000e+0
vn 1.00000000 2.3841861e-7 -5.7110245e-14
vn 0.50000007 -0.86602536 2.0647654e-7
vn 1.00000000 2.3841861e-7 -5.7110258e-14
vn 0.50000016 -0.86602531 0.0000000e+0
vn -0.49999998 -0.86602541 -1.4872464e-16
vn 0.50000007 -0.86602536 2.0647654e-7
vn -0.49999998 -0.86602541 -1.4872457e-16
vn -0.49999998 -0.86602541 -1.4872464e-16
vn -1.00000000 0.0000000e+0 0.0000000e+0
vn -0.49999998 -0.86602541 -1.4872457e-16
vn -1.00000000 -1.1920923e-7 2.3841858e-7
vn -1.00000000 0.0000000e+0 0.0000000e+0
vn -0.50000008 0.86602536 0.0000000e+0
vn -1.00000000 -1.1920923e-7 2.3841858e-7
vn -0.50000003 0.86602538 1.1920933e-7
vn -0.50000008 0.86602536 0.0000000e+0
vn -0.50000003 0.86602538 1.1920933e-7
vn 0.49999998 0.86602541 -2.9744929e-16
vn -0.16785009 0.98581253 0.0000000e+0
vn -1.0179418e-8 -3.6327725e-7 -1.00000000
vn 1.00000000 2.3841861e-7 -5.7110245e-14
vn 0.49999998 0.86602541 -2.9744929e-16
vn 1.00000000 2.3841861e-7 -5.7110258e-14
vn -1.0179418e-8 -3.6327725e-7 -1.00000000
vn 0.90425674 -0.42698916 1.0180215e-7
vn 0.50000007 -0.86602536 2.0647654e-7
vn 1.00000000 2.3841861e-7 -5.7110258e-14
vn -6.8825511e-8 -1.1920930e-7 -1.00000000
vn 0.50000007 -0.86602536 2.0647654e-7
vn -0.49999998 -0.86602541 -1.4872457e-16
vn -6.8825511e-8 -1.1920930e-7 -1.00000000
vn -0.49999998 -0.86602541 -1.4872457e-16
vn -1.00000000 -1.1920923e-7 2.3841858e-7
vn -6.8825511e-8 -1.1920930e-7 -1.00000000
vn -1.00000000 -1.1920923e-7 2.3841858e-7
vn -0.50000003 0.86602538 1.1920933e-7
vn -6.8825511e-8 -1.1920930e-7 -1.00000000
vn -0.50000003 0.86602538 1.1920933e-7
vn 0.49999998 0.86602541 -2.9744929e-16
vn -6.8825511e-8 -1.1920930e-7 -1.00000000
vn 0.49999998 0.86602541 -2.9744929e-16
vn 1.00000000 2.3841861e-7 -5.7110258e-14
vn -6.8825511e-8 -1.1920930e-7 -1.00000000
vn 1.0179421e-8 3.6327738e-7 1.00000000
vn -0.16785009 0.98581253 0.0000000e+0
vn -5.0629981e-7 3.0252714e-7 1.00000000
vn -1.4669586e-2 -0.99989240 0.0000000e+0
vn -1.4667903e-2 -0.99977776 1.5142074e-2
vn -0.18548658 6.1428561e-3 -0.98262760
vn 2.9728866e-2 -0.99955299 -3.1652475e-3
vn 1.0179421e-8 3.6327738e-7 1.00000000
vn 0.90425674 -0.42698916 1.0180215e-7
vn -5.0629981e-7 3.0252714e-7 1.00000000
vn 0.99976951 -2.1469123e-2 0.0000000e+0
vn -0.16785009 0.98581253 0.0000000e+0
vn -1.0179418e-8 -3.6327725e-7 -1.00000000
vn 5.0630013e-7 -3.0252733e-7 -1.00000000
vn -1.4669586e-2 -0.99989240 0.0000000e+0
vn 2.2997655e-16 0.0000000e+0 -1.00000000
vn -1.0179418e-8 -3.6327725e-7 -1.00000000
vn 0.90425674 -0.42698916 1.0180215e-7
vn 5.0630013e-7 -3.0252733e-7 -1.00000000
vn 0.99976951 -2.1469123e-2 0.0000000e+0
vn 5.5134261e-2 0.99847895 -4.7611187e-7
vn -5.0629981e-7 3.0252714e-7 1.00000000
vn -0.14551288 0.98935636 -4.7176176e-7
vn -0.14447069 0.98226973 0.11947548
vn -0.18548658 6.1428561e-3 -0.98262760
vn 2.6301063e-2 0.99838017 5.0450822e-2
vn 5.5134261e-2 0.99847895 -4.7611187e-7
vn -5.0629981e-7 3.0252714e-7 1.00000000
vn 0.99976951 -2.1469123e-2 0.0000000e+0
vn 5.5134261e-2 0.99847895 -4.7611187e-7
vn 5.0630013e-7 -3.0252733e-7 -1.00000000
vn -0.14551288 0.98935636 -4.7176176e-7
vn 2.2997655e-16 0.0000000e+0 -1.00000000
vn 5.5134261e-2 0.99847895 -4.7611187e-7
vn 5.0630013e-7 -3.0252733e-7 -1.00000000
vn 0.99976951 -2.1469123e-2 0.0000000e+0
vn -0.14551288 0.98935636 -4.7176176e-7
vn -1.4669586e-2 -0.99989240 0.0000000e+0
vn -0.14447069 0.98226973 0.11947548
vn -1.4667903e-2 -0.99977776 1.5142074e-2
vn -0.14551288 0.98935636 -4.7176176e-7
vn -1.4669586e-2 -0.99989240 0.0000000e+0
vn 2.2997655e-16 0.0000000e+0 -1.00000000
vn -0.14447069 0.98226973 0.11947548
vn -1.4667903e-2 -0.99977776 1.5142074e-2
vn 2.6301063e-2 0.99838017 5.0450822e-2
vn 2.9728866e-2 -0.99955299 -3.1652475e-3
vn -0.18548658 6.1428561e-3 -0.98262760
vn 2.6301063e-2 0.99838017 5.0450822e-2
vn 2.9728866e-2 -0.99955299 -3.1652475e-3
g plane bas0_8 - Default
usemtl 8 - Default
f 1/51/2 7/48/19 8/47/23 2/50/5
f 2/54/4 3/57/7 4/59/10 5/63/13 6/60/16 1/58/1
f 2/50/6 8/47/24 9/49/27 3/52/8
f 3/51/9 9/48/28 10/47/31 4/50/11
f 4/51/12 10/48/32 11/47/35 5/50/14
f 5/50/15 11/47/36 12/49/40 6/52/17
f 6/41/18 12/44/41 7/45/20 1/42/3
f 7/48/21 13/45/45 14/44/49 8/47/25
f 8/47/26 14/44/50 15/46/53 9/49/29
f 9/48/30 15/45/54 16/44/57 10/47/33
f 10/48/34 16/45/58 17/44/61 11/47/37
f 11/18/38 25/11/89 26/5/96 12/2/43
f 12/44/42 18/47/66 13/48/46 7/45/22
f 12/36/44 26/38/97 28/37/106 18/35/70
f 13/45/47 19/42/71 20/41/74 14/44/51
f 14/44/52 20/41/75 21/43/77 15/46/55
f 15/45/56 21/42/78 22/41/80 16/44/59
f 16/45/60 22/42/81 23/41/83 17/44/62
f 17/44/63 23/41/84 24/43/86 18/46/67
f 17/29/64 27/33/100 25/34/90 11/30/39
f 18/47/68 24/50/87 19/51/72 13/48/48
f 18/17/69 28/14/105 27/10/101 17/12/65
f 19/55/73 24/61/88 23/64/85 22/62/82 21/56/79 20/53/76
f 25/11/91 29/13/110 30/9/116 26/5/98
f 25/6/94 36/27/136 29/7/113
f 26/38/99 30/40/117 32/39/124 28/37/108
f 27/24/103 34/26/130 33/28/126 25/25/92
f 28/14/107 32/4/123 31/3/119 27/10/102
f 29/20/109 31/22/118 32/23/122 30/21/115
f 29/20/111 33/15/125 34/16/129 31/22/120
f 29/20/112 35/1/132 33/15/127
f 29/20/114 36/31/137 35/1/134
f 31/3/121 34/8/131 27/10/104
f 33/28/128 35/32/133 25/25/93
f 35/32/135 36/19/138 25/25/95
f 37/57/139 42/59/154 41/63/151 40/60/148 39/58/145 38/54/142
f 37/51/141 43/48/158 48/47/179 42/50/156
f 38/50/143 44/47/161 43/49/157 37/52/140
f 39/51/146 45/48/165 44/47/162 38/50/144
f 40/41/149 46/44/169 45/45/166 39/42/147
f 41/50/152 47/47/173 46/48/170 40/51/150
f 42/52/155 48/49/178 47/47/174 41/50/153
f 43/48/160 49/45/184 54/44/204 48/47/180
f 44/47/163 50/44/187 49/46/183 43/49/159
f 45/48/167 51/45/191 50/44/188 44/47/164
f 46/44/171 52/47/195 51/48/192 45/45/168
f 47/47/175 53/44/199 52/45/196 46/48/172
f 47/29/177 61/33/228 63/34/238 53/30/202
f 48/2/181 62/5/234 61/11/227 47/18/176
f 49/45/186 55/42/210 60/41/225 54/44/206
f 50/44/189 56/41/212 55/43/209 49/46/185
f 51/45/193 57/42/215 56/41/213 50/44/190
f 52/47/197 58/50/218 57/51/216 51/48/194
f 53/44/200 59/41/221 58/42/219 52/45/198
f 53/12/203 63/10/239 64/14/243 54/17/207
f 54/46/205 60/43/224 59/41/222 53/44/201
f 54/36/208 64/38/244 62/37/235 48/35/182
f 56/53/214 57/55/217 58/61/220 59/64/223 60/62/226 55/56/211
f 61/25/230 69/28/264 70/26/268 63/24/241
f 61/25/231 71/32/271 69/28/266
f 61/25/233 72/19/276 71/32/273
f 62/5/236 66/9/254 65/13/248 61/11/229
f 63/10/240 67/3/257 68/4/261 64/14/245
f 63/10/242 70/8/269 67/3/259
f 64/38/246 68/40/262 66/39/255 62/37/237
f 65/7/251 72/27/274 61/6/232
f 66/21/253 68/23/260 67/22/256 65/20/247
f 67/22/258 70/16/267 69/15/263 65/20/249
f 69/15/265 71/1/270 65/20/250
f 71/1/272 72/31/275 65/20/252
