# Exported from Wings 3D 1.0.1
mtllib barrel1.mtl
o Box01_sep4
#65 vertices, 65 faces
v 1.0000000e-3 2.77859926 -1.00100005
v 0.70289296 2.48049212 -1.45792353
v 1.29910707 2.48049212 -1.45792353
v 0.61348319 2.39108253 -1.66714990
v 1.38851678 2.39108253 -1.66714978
v 0.70289296 3.07670641 -1.45792353
v 1.29910707 3.07670641 -1.45792353
v 0.61348319 3.16611600 -1.66714978
v 1.38851678 3.16611600 -1.66714966
v 0.61348319 2.39108253 -1.95639241
v 1.38851678 2.39108253 -1.95639241
v 0.61348319 3.16611600 -1.95639241
v 1.38851678 3.16611600 -1.95639241
v 0.46062136 2.23822069 -2.22092509
v 1.54137862 2.23822069 -2.22092509
v 0.46062136 3.31897783 -2.22092509
v 1.54137862 3.31897783 -2.22092509
v 0.46062130 2.23822069 -3.30168223
v 1.54137862 2.23822069 -3.30168223
v 0.46062130 3.31897783 -3.30168223
v 1.54137862 3.31897783 -3.30168223
v 0.55868369 2.33628297 -3.19014144
v 1.44331634 2.33628297 -3.19014144
v 0.55868369 3.22091556 -3.19014144
v 1.44331634 3.22091556 -3.19014144
v 0.70289296 2.48049235 -0.86960691
v 1.29910707 2.48049235 -0.86960691
v 0.70289296 3.07670641 -0.86960691
v 1.29910707 3.07670641 -0.86960691
v 0.61136109 2.38896012 -0.53235799
v 1.39063895 2.38896012 -0.53235799
v 0.61136109 3.16823792 -0.53235793
v 1.39063895 3.16823792 -0.53235799
v 0.72954559 2.50714469 -3.3815932e-2
v 1.27245450 2.50714469 -3.3815932e-2
v 0.72954559 3.05005360 -3.3815932e-2
v 1.27245450 3.05005360 -3.3815991e-2
v 0.82545739 3.28828549 -0.53235793
v 1.17654264 3.28828549 -0.53235799
v 0.87870264 3.13368845 -3.3815991e-2
v 1.12329745 3.13368845 -3.3815991e-2
v 1.51068664 2.60305643 -0.53235793
v 1.51068664 2.95414162 -0.53235799
v 1.35608947 2.65630150 -3.3815991e-2
v 1.35608947 2.90089631 -3.3815991e-2
v 0.49131340 2.60305643 -0.53235793
v 0.49131340 2.95414162 -0.53235793
v 0.64591056 2.65630150 -3.3815932e-2
v 0.64591056 2.90089631 -3.3815932e-2
v 0.82545739 2.26891232 -0.53235793
v 1.17654264 2.26891232 -0.53235793
v 0.87870264 2.42350960 -3.3815932e-2
v 1.12329745 2.42350960 -3.3815932e-2
v 0.91259134 2.69019032 0.37856418
v 1.08940876 2.69019032 0.37856418
v 0.91259134 2.86700773 0.37856418
v 1.08940876 2.86700773 0.37856418
v 0.96116954 2.89424634 0.37856418
v 1.04083049 2.89424634 0.37856418
v 1.11664748 2.73876858 0.37856418
v 1.11664748 2.81842947 0.37856418
v 0.88535267 2.73876858 0.37856418
v 0.88535267 2.81842947 0.37856418
v 0.96116954 2.66295171 0.37856418
v 1.04083049 2.66295171 0.37856418
vt -4.4749178e-2 7.9124331e-2
vt -4.4749178e-2 8.6746156e-2
vt -4.2143025e-2 7.4476428e-2
vt -4.2143025e-2 9.1394067e-2
vt -3.7495129e-2 7.1870305e-2
vt -3.7495129e-2 9.4000220e-2
vt -2.9873304e-2 7.1870305e-2
vt -2.9873304e-2 9.4000220e-2
vt -2.5225405e-2 7.4476428e-2
vt -2.5225405e-2 9.1394067e-2
vt -2.2619247e-2 7.9124331e-2
vt -2.2619247e-2 8.6746156e-2
vt 0.21508312 0.18742640
vt 0.33034852 0.14223625
vt 0.33034852 0.23938359
vt 0.33804590 0.52833027
vt 0.36488050 0.54337686
vt 0.40888506 0.54337686
vt 0.43571961 0.52833027
vt 0.48524064 0.65475667
vt 0.48524064 0.79021728
vt 0.49753171 0.66704750
vt 0.49753171 0.77792645
vt 0.58389813 0.16109554
vt 0.58495760 0.18037060
vt 0.58510882 0.15410039
vt 0.60841042 0.66704750
vt 0.60841042 0.77792645
vt 0.62070149 0.65475667
vt 0.62070149 0.79021728
vt 0.62795639 0.79882717
vt 0.62795639 0.93428791
vt 0.63667721 0.69175613
vt 0.63667721 0.78942978
vt 0.66662341 0.11391483
vt 0.66662341 0.14345349
vt 0.66662341 0.19189201
vt 0.66662341 0.22143011
vt 0.67894757 0.70322859
vt 0.67894757 0.77795732
vt 0.75230193 0.70336020
vt 0.75230193 0.77808893
vt 0.76341718 0.79882717
vt 0.76341718 0.93428791
vt 0.76535225 9.0510376e-2
vt 0.76535225 0.13290887
vt 0.76535225 0.20243607
vt 0.76535225 0.24483475
vt 0.77293456 0.94340795
vt 0.77852607 0.69215369
vt 0.77852607 0.78929543
vt 0.78440714 0.98567826
vt 0.79657340 0.81798661
vt 0.79657340 0.91512847
vt 0.81477946 0.69215369
vt 0.81477946 0.78929543
vt 0.83282679 0.81798661
vt 0.83282679 0.91512847
vt 0.84793568 0.67299426
vt 0.84793568 0.80845499
vt 0.85905087 0.82919312
vt 0.85905087 0.90392196
vt 0.85913599 0.98567826
vt 0.87060845 0.94340795
vt 0.91632110 0.99189639
vt 0.93278980 0.82919312
vt 0.93278980 0.90392196
vt 0.97506016 0.81772065
vt 0.97506016 0.91539454
vt 0.98339647 0.67299426
vt 0.98339647 0.80845499
vn -0.99543831 -5.7543637e-8 9.5407406e-2
vn -0.54700653 -0.83698725 -1.5368771e-2
vn 0.67921518 -0.67921530 0.27808869
vn -0.67921521 -0.67921531 0.27808856
vn 0.67921521 -0.67921533 0.27808856
vn -0.54700661 0.83698720 -1.5368945e-2
vn 0.67921522 0.67921528 0.27808863
vn -0.67921523 0.67921527 0.27808863
vn 0.67921522 0.67921528 0.27808863
vn -0.66116183 -0.66116183 0.35458436
vn 0.66116183 -0.66116183 0.35458436
vn -0.66116183 0.66116183 0.35458436
vn 0.66116183 0.66116183 0.35458436
vn -0.66116183 -0.66116183 0.35458438
vn 0.66116183 -0.66116183 0.35458436
vn -0.66116183 0.66116183 0.35458438
vn 0.66116183 0.66116183 0.35458436
vn -0.18217444 -0.18217415 -0.96624275
vn 0.18217421 -0.18217421 -0.96624278
vn -0.18217444 0.18217415 -0.96624275
vn 0.18217421 0.18217421 -0.96624278
vn 0.29428211 0.29428226 -0.90928323
vn -0.29428230 0.29428230 -0.90928316
vn 0.29428211 -0.29428226 -0.90928323
vn -0.29428230 -0.29428230 -0.90928316
vn -0.46627290 -0.87365378 0.13899157
vn 0.69486887 -0.69486878 -0.18524208
vn -0.46627287 0.87365374 0.13899189
vn 0.69486885 0.69486895 -0.18524153
vn -0.60705566 -0.60705560 -0.51280300
vn 0.60705567 -0.60705559 -0.51280301
vn -0.60705570 0.60705583 -0.51280270
vn 0.60705569 0.60705579 -0.51280275
vn -0.63902411 -0.63902420 0.42813113
vn 0.63902416 -0.63902417 0.42813110
vn -0.63902401 0.63902427 0.42813117
vn 0.63902407 0.63902426 0.42813110
vn -0.24664963 0.94602942 -0.21021964
vn 0.24664958 0.94602943 -0.21021967
vn -0.22863205 0.87842341 0.41964234
vn 0.22863208 0.87842341 0.41964233
vn 0.94602937 -0.24664997 -0.21021948
vn 0.94602944 0.24664969 -0.21021947
vn 0.87842327 -0.22863250 0.41964239
vn 0.87842337 0.22863221 0.41964235
vn -0.94602936 -0.24665002 -0.21021948
vn -0.94602942 0.24664978 -0.21021945
vn -0.87842320 -0.22863257 0.41964250
vn -0.87842331 0.22863222 0.41964246
vn -0.24665007 -0.94602939 -0.21021926
vn 0.24665007 -0.94602938 -0.21021929
vn -0.22863251 -0.87842319 0.41964256
vn 0.22863249 -0.87842320 0.41964255
vn -0.26736197 -0.26736208 0.92576190
vn 0.26736198 -0.26736208 0.92576190
vn -0.26736189 0.26736201 0.92576194
vn 0.26736192 0.26736202 0.92576193
vn -0.15994609 0.61569348 0.77158201
vn 0.15994609 0.61569347 0.77158201
vn 0.61569340 -0.15994649 0.77158198
vn 0.61569353 0.15994624 0.77158193
vn -0.61569327 -0.15994651 0.77158208
vn -0.61569341 0.15994621 0.77158203
vn -0.15994641 -0.61569335 0.77158204
vn 0.15994637 -0.61569337 0.77158204
g Box01_sep4_01 - Default
usemtl 01 - Default
f 1/13/1 6/14/6 2/15/2
f 1/65/1 28/67/28 6/62/6
f 2/62/2 4/58/4 5/57/5 3/61/3
f 2/42/2 6/41/6 8/50/8 4/51/4
f 2/62/2 26/67/26 1/65/1
f 3/61/3 27/66/27 26/67/26 2/62/2
f 4/58/4 10/54/10 11/53/11 5/57/5
f 5/51/5 9/50/9 7/41/7 3/42/3
f 5/51/5 11/56/11 13/55/13 9/50/9
f 6/62/6 28/67/28 29/66/29 7/61/7
f 7/61/7 9/57/9 8/58/8 6/62/6
f 7/41/7 29/39/29 27/40/27 3/42/3
f 8/50/8 12/55/12 10/56/10 4/51/4
f 9/57/9 13/53/13 12/54/12 8/58/8
f 10/54/10 14/44/14 15/43/15 11/53/11
f 11/56/11 15/60/15 17/59/17 13/55/13
f 12/55/12 16/59/16 14/60/14 10/56/10
f 13/53/13 17/43/17 16/44/16 12/54/12
f 14/44/14 18/32/18 19/31/19 15/43/15
f 15/60/15 19/71/19 21/70/21 17/59/17
f 16/59/16 20/70/20 18/71/18 14/60/14
f 17/43/17 21/31/21 20/32/20 16/44/16
f 18/21/18 22/23/22 23/28/23 19/30/19
f 19/30/19 23/28/23 25/27/25 21/29/21
f 20/20/20 24/22/24 22/23/22 18/21/18
f 21/29/21 25/27/25 24/22/24 20/20/20
f 22/23/22 24/22/24 25/27/25 23/28/23
f 26/15/26 28/14/28 1/13/1
f 26/52/26 30/49/30 32/64/32 28/63/28
f 27/66/27 31/68/31 30/69/30 26/67/26
f 28/67/28 32/69/32 33/68/33 29/66/29
f 29/39/29 33/33/33 31/34/31 27/40/27
f 30/16/30 46/17/46 47/18/47 32/19/32
f 30/48/30 50/47/50 52/37/52 34/38/34
f 31/48/31 42/47/42 44/37/44 35/38/35
f 31/16/31 51/17/51 50/18/50 30/19/30
f 32/19/32 38/18/38 39/17/39 33/16/33
f 32/45/32 47/46/47 49/36/49 36/35/36
f 33/45/33 39/46/39 41/36/41 37/35/37
f 33/19/33 43/18/43 42/17/42 31/16/31
f 34/38/34 48/37/48 46/47/46 30/48/30
f 34/38/34 54/25/54 62/25/62 48/37/48
f 35/35/35 53/36/53 51/46/51 31/45/31
f 35/35/35 55/26/55 65/24/65 53/36/53
f 36/38/36 40/37/40 38/47/38 32/48/32
f 36/38/36 56/25/56 58/25/58 40/37/40
f 37/35/37 45/36/45 43/46/43 33/45/33
f 37/35/37 57/26/57 61/26/61 45/36/45
f 38/47/38 40/37/40 41/36/41 39/46/39
f 40/37/40 58/25/58 59/26/59 41/36/41
f 41/36/41 59/26/59 57/26/57 37/35/37
f 43/46/43 45/36/45 44/37/44 42/47/42
f 44/37/44 60/25/60 55/25/55 35/38/35
f 45/36/45 61/26/61 60/25/60 44/37/44
f 46/47/46 48/37/48 49/36/49 47/46/47
f 48/37/48 62/25/62 63/26/63 49/36/49
f 49/36/49 63/26/63 56/26/56 36/35/36
f 51/46/51 53/36/53 52/37/52 50/47/50
f 52/37/52 64/25/64 54/25/54 34/38/34
f 53/36/53 65/24/65 64/25/64 52/37/52
f 54/3/54 64/5/64 65/7/65 55/9/55
f 55/9/55 57/10/57 56/4/56 54/3/54
f 55/9/55 60/11/60 61/12/61 57/10/57
f 56/4/56 63/2/63 62/1/62 54/3/54
f 57/10/57 59/8/59 58/6/58 56/4/56
