# Exported from Wings 3D 1.0.1
mtllib turret.mtl
o Box01_sep5
#25 vertices, 29 faces
v -1.49899995 2.27859926 -1.80100000
v -0.49900001 2.27859926 -1.80100000
v -1.49899995 3.27859926 -1.80100000
v -0.49900001 3.27859926 -1.80100000
v -1.49899995 2.27859926 -0.80099994
v -0.49900001 2.27859926 -0.80099994
v -1.49899995 3.27859926 -0.80099994
v -0.49900001 3.27859926 -0.80099994
v -1.21951449 2.55808473 0.19900003
v -0.77848554 2.55808473 0.19900003
v -1.21951449 2.99911356 0.19900006
v -0.77848554 2.99911356 0.19900006
v -1.26671958 2.51087976 -2.27727747
v -0.73128051 2.51087976 -2.27727747
v -1.26671958 3.04631877 -2.27727747
v -0.73128051 3.04631877 -2.27727747
v -1.21366668 3.61930418 -1.85275388
v -0.80731547 3.61930418 -1.85275388
v -1.21366668 3.61930394 -1.44640255
v -0.80731547 3.61930394 -1.44640255
v -1.11927927 3.52491665 -2.04628968
v -0.90170294 3.52491665 -2.04628968
v -1.32418072 3.40594244 -2.03228760
v -0.70650601 3.41452360 -2.03305221
v 1.0000000e-3 2.77859926 -1.00100005
vt 1.4929408e-2 0.11688698
vt 1.4929766e-2 6.2182076e-2
vt 4.2685978e-2 1.3104031e-2
vt 4.4842355e-2 0.16840522
vt 0.13526249 0.15395854
vt 0.13526320 1.9333759e-2
vt 0.26988697 0.15395953
vt 0.26988804 1.9334743e-2
vt 0.43966538 0.28263882
vt 0.43966538 0.36912504
vt 0.49710572 0.51435620
vt 0.49710572 0.60239404
vt 0.51659566 0.40664387
vt 0.51912642 0.24344608
vt 0.67795628 0.40654445
vt 0.67941111 0.24299648
vt 0.69309849 0.45703912
vt 0.69314986 0.66175985
vt 0.78270304 0.15737593
vt 0.78270304 0.24386215
vt 0.79854250 1.7680883e-2
vt 0.79854250 8.4885240e-2
vt 0.82193315 0.52181745
vt 0.82198435 0.59943914
vt 0.83948022 0.29016417
vt 0.83948022 0.36140078
vt 0.85892880 0.12114077
vt 0.85915494 0.28204501
vt 0.86574697 1.7680883e-2
vt 0.86574697 8.4885240e-2
vt 0.88985628 0.45802748
vt 0.90310007 0.59943914
vt 0.90575582 0.52326852
vt 0.94530857 0.58238524
vt 0.94550049 0.50180405
vt 0.94620234 0.54125708
vt 0.98168653 0.41139093
vt 0.98978740 0.20112997
vn -0.67219017 -0.67219014 -0.31035590
vn 0.63805246 -0.67757512 -0.36576086
vn -0.91451790 0.31293341 -0.25637803
vn 0.85094774 0.41391622 -0.32335941
vn -0.69417624 -0.69417624 0.19036462
vn 0.55669042 -0.72809637 0.39996431
vn -0.71295674 0.65020679 0.26253348
vn 0.59486052 0.68943390 0.41330602
vn -0.46873800 -0.46873803 0.74871179
vn 0.46873798 -0.46873802 0.74871181
vn -0.46873798 0.46873792 0.74871187
vn 0.46873797 0.46873791 0.74871188
vn -0.39653546 -0.39653542 -0.82796092
vn 0.39653540 -0.39653540 -0.82796096
vn -0.47615988 0.26235034 -0.83931166
vn 0.46449251 0.28347744 -0.83897989
vn -0.43902794 0.85492537 -0.27632784
vn 0.42213756 0.86065131 -0.28474410
vn -0.28594613 0.94229324 0.17412141
vn 0.27447984 0.94593628 0.17281599
vn -0.20775256 0.66833729 -0.71425776
vn 0.20512134 0.67233425 -0.71126078
vn -0.63205911 0.53336646 -0.56215789
vn 0.60273366 0.55770857 -0.57067792
vn 0.98874624 -4.8220737e-17 0.14960240
g Box01_sep5_01 - Default
usemtl 01 - Default
f 1/14/1 5/16/5 7/15/7 3/13/3
f 1/13/1 13/10/13 14/9/14 2/14/2
f 2/14/2 6/16/6 5/15/5 1/13/1
f 2/28/2 14/20/14 16/19/16 4/27/4
f 2/27/2 25/38/25 6/28/6
f 3/13/3 15/10/15 13/9/13 1/14/1
f 3/31/3 23/35/23 15/37/15
f 4/31/4 18/33/18 20/23/20 8/17/8
f 4/31/4 24/35/24 18/33/18
f 4/27/4 25/38/25 2/28/2
f 5/16/5 9/25/9 11/26/11 7/15/7
f 6/16/6 10/25/10 9/26/9 5/15/5
f 6/27/6 25/38/25 8/28/8
f 7/18/7 11/12/11 12/11/12 8/17/8
f 7/17/7 19/23/19 17/33/17 3/31/3
f 8/16/8 12/25/12 10/26/10 6/15/6
f 8/17/8 20/23/20 19/24/19 7/18/7
f 8/28/8 25/38/25 4/27/4
f 10/22/10 12/21/12 11/29/11 9/30/9
f 13/7/13 15/5/15 16/6/16 14/8/14
f 15/5/15 21/1/21 22/2/22 16/6/16
f 15/5/15 23/4/23 21/1/21
f 16/37/16 24/35/24 4/31/4
f 17/32/17 19/24/19 20/23/20 18/33/18
f 17/33/17 23/35/23 3/31/3
f 18/33/18 22/36/22 21/34/21 17/32/17
f 18/33/18 24/35/24 22/36/22
f 21/36/21 23/35/23 17/33/17
f 22/2/22 24/3/24 16/6/16
o Box01
#28 vertices, 36 faces
v -0.49899998 1.70100009 -0.50099999
v 0.50100005 1.70100009 -0.50099999
v -0.49899998 1.70100009 -1.50100005
v 0.50100005 1.70100009 -1.50100005
v -0.16150349 2.16024828 -1.03277218
v 0.16350362 2.16024828 -1.03277218
v -0.16150351 2.16024828 -1.29821861
v 0.16350360 2.16024828 -1.29821861
v -0.16150351 2.82672024 -0.60303074
v 0.16350360 2.82672024 -0.60303074
v -0.16150351 2.82672024 -1.39896929
v 0.16350360 2.82672024 -1.39896929
v -0.16150349 3.07443261 -0.86095834
v 0.16350362 3.07443261 -0.86095828
v -0.16150352 3.07443261 -1.14104176
v 0.16350359 3.07443261 -1.14104176
v -0.74571246 1.20100009 -0.25428748
v 0.74771255 1.20100009 -0.25428748
v -0.74571246 1.20100009 -1.74771249
v 0.74771255 1.20100009 -1.74771249
v -0.14068918 1.20100009 -2.06007862
v 0.14268924 1.20100009 -2.06007862
v 1.0000776e-3 1.60612488 -0.26654989
v -0.36412796 1.45249498 -0.22427388
v 0.36612806 1.45249510 -0.22427388
v 1.0000105e-3 3.67182112 0.38168281
v 1.0000438e-3 3.77637959 -1.00100005
v 1.0000782e-3 1.43898046 -3.12357712
vt -0.10564377 0.13405740
vt -0.10564377 0.14818844
vt -9.0067171e-2 0.10388717
vt -9.0067171e-2 0.17835864
vt -1.5595764e-2 0.10388717
vt -1.5595764e-2 0.17835864
vt 5.5969507e-3 0.19579554
vt 3.7582755e-2 0.26062199
vt 5.5069655e-2 0.22840303
vt 0.10240909 0.24832207
vt 0.14932027 0.22769421
vt 0.19276583 0.37113839
vt 0.19879368 0.19508743
vt 0.28429082 1.5552644e-2
vt 0.31979629 8.7509617e-2
vt 0.33447990 0.24951655
vt 0.37159929 0.28516585
vt 0.39175335 0.38618582
vt 0.39632568 0.15360190
vt 0.41190729 0.28516585
vt 0.43452728 0.15360190
vt 0.44902667 0.24951655
vt 0.46371010 8.7509617e-2
vt 0.49921554 1.5552644e-2
vt 0.61856925 0.43192345
vt 0.69722182 4.9801365e-2
vt 0.77779698 0.63403207
vt 0.78564870 0.45248765
vt 0.78564882 0.41034967
vt 0.81763160 0.40952927
vt 0.81763172 0.45166725
vt 0.85021758 0.39123216
vt 0.88255882 7.9803213e-2
vt 0.88255894 0.11221717
vt 0.88736594 0.61296242
vt 0.88736629 0.65510029
vt 0.89397466 0.32228670
vt 0.90864062 0.43059838
vt 0.91504359 0.42162910
vt 0.92836070 4.6143696e-2
vt 0.92836106 0.14587633
vt 0.93611252 0.32228670
vt 0.95016867 0.32790646
vt 0.97123742 0.23689744
vt 0.97377551 0.61296177
vt 0.97377580 0.65509975
vt 0.97822696 2.1538362e-2
vt 0.97822720 8.1878886e-2
vt 0.97822732 0.11014090
vt 0.97822750 0.17048143
vt 0.97986984 0.39123216
vt 0.99230647 0.32790646
vn -0.44800946 0.76038297 0.47021831
vn 0.44800948 0.76038300 0.47021824
vn -0.50222280 0.65954181 -0.55926457
vn 0.50222280 0.65954180 -0.55926458
vn -0.72849636 0.32559753 0.60272655
vn 0.72849638 0.32559752 0.60272653
vn -0.97540307 1.8595880e-2 -0.21964301
vn 0.97540307 1.8595873e-2 -0.21964301
vn -0.83278128 -0.33697031 0.43923382
vn 0.83278128 -0.33697031 0.43923382
vn -0.82595851 0.41007857 -0.38681791
vn 0.82595851 0.41007858 -0.38681792
vn -0.88652375 0.42212616 0.18943376
vn 0.88652374 0.42212618 0.18943373
vn -0.69787211 0.40383872 -0.59151399
vn 0.69787207 0.40383870 -0.59151405
vn -0.61221767 -5.3494774e-2 0.78887758
vn 0.61221776 -5.3494733e-2 0.78887751
vn -0.71591812 -0.56200764 -0.41425675
vn 0.71591813 -0.56200762 -0.41425677
vn -0.25676058 0.20096439 -0.94535037
vn 0.25676057 0.20096440 -0.94535037
vn -3.3292274e-8 0.67900077 0.73413756
vn -0.16975971 0.37404504 0.91174116
vn 0.16975973 0.37404513 0.91174112
vn 1.4549784e-7 0.63634088 0.77140799
vn -2.1561110e-7 1.00000000 -9.4834490e-9
vn 5.9822024e-9 -0.38165597 -0.92430445
g Box01_01 - Default
usemtl 01 - Default
f 26/53/26 30/57/30 32/59/32 28/61/28
f 26/89/26 48/77/48 27/70/27
f 26/46/26 49/47/49 48/48/48
f 27/70/27 31/75/31 30/80/30 26/89/26
f 27/53/27 43/52/43 45/62/45 29/61/29
f 27/46/27 50/47/50 43/45/43
f 28/79/28 32/72/32 33/71/33 29/78/29
f 28/61/28 44/62/44 42/52/42 26/53/26
f 28/79/28 46/87/46 44/88/44
f 29/61/29 33/59/33 31/57/31 27/53/27
f 29/78/29 47/86/47 46/87/46 28/79/28
f 30/57/30 34/54/34 36/60/36 32/59/32
f 31/84/31 35/74/35 34/73/34 30/83/30
f 32/66/32 53/63/53 33/67/33
f 33/59/33 37/60/37 35/54/35 31/57/31
f 33/59/33 53/64/53 37/60/37
f 34/54/34 38/55/38 40/58/40 36/60/36
f 34/54/34 51/50/51 38/55/38
f 35/74/35 51/65/51 34/73/34
f 36/67/36 40/68/40 41/69/41 37/66/37
f 36/60/36 53/64/53 32/59/32
f 37/60/37 41/58/41 39/55/39 35/54/35
f 37/66/37 53/63/53 36/67/36
f 38/66/38 51/63/51 39/67/39
f 38/55/38 52/56/52 40/58/40
f 39/55/39 51/50/51 35/54/35
f 39/81/39 52/82/52 38/90/38
f 40/68/40 52/76/52 41/69/41
f 41/58/41 52/56/52 39/55/39
f 42/44/42 44/42/44 45/41/45 43/43/43
f 42/45/42 49/47/49 26/46/26
f 43/51/43 50/49/50 49/47/49 42/45/42
f 44/42/44 46/40/46 47/39/47 45/41/45
f 45/85/45 47/86/47 29/78/29
f 48/48/48 50/47/50 27/46/27
f 49/47/49 50/49/50 48/48/48
