# Exported from Wings 3D 1.0.1
mtllib door1.mtl
o Object01
#40 vertices, 38 faces
v -1.50000000 3.19539284 -1.80487478
v -0.50000000 3.19539284 -1.80487478
v -1.50000000 1.99539255 -1.80487478
v -0.50000000 1.99539255 -1.80487478
v -1.50000000 2.99539255 -2.30487455
v -0.50000000 2.99539255 -2.30487455
v -1.50000000 1.99539255 -2.10487450
v -0.50000000 1.99539255 -2.10487450
v -1.50000000 3.99539255 -1.80487478
v -0.50000000 3.99539255 -1.80487478
v -1.50000000 3.99539255 -2.80487478
v -0.50000006 3.99539255 -2.80487478
v -1.50000000 4.99539255 -1.80487478
v -0.50000000 4.99539255 -1.80487478
v -1.50000000 4.99539255 -2.30487502
v -0.50000000 4.99539255 -2.30487502
v 0.50000000 3.19539284 -1.80487478
v 0.50000000 1.99539255 -1.80487478
v 0.50000000 2.99539255 -2.30487455
v 0.50000000 1.99539255 -2.10487450
v 1.50000000 3.19539284 -1.80487478
v 1.50000000 1.99539255 -1.80487478
v 1.50000000 2.99539255 -2.30487455
v 1.50000000 1.99539255 -2.10487450
v 0.50000000 3.99539255 -1.80487478
v 0.49999988 3.99539255 -2.80487478
v 1.50000000 3.99539255 -1.80487478
v 1.50000000 3.99539255 -2.80487478
v 0.50000000 4.99539255 -1.80487478
v 0.50000000 4.99539255 -2.30487502
v 1.50000000 4.99539255 -1.80487478
v 1.50000000 4.99539255 -2.30487502
v -1.50000000 2.99539255 -0.80487472
v -0.50000000 2.99539255 -0.80487472
v -1.50000000 1.99539255 -0.80487472
v -0.50000000 1.99539255 -0.80487472
v 0.50000000 2.99539255 -0.80487472
v 0.50000000 1.99539255 -0.80487472
v 1.50000000 2.99539255 -0.80487472
v 1.50000000 1.99539255 -0.80487472
vt 0.60434687 0.23210335
vt 0.60434687 0.31571245
vt 0.60434687 0.39932168
vt 0.60434687 0.48293102
vt 0.61034638 0.49408150
vt 0.61034638 0.57769060
vt 0.68626541 0.11965418
vt 0.68626624 0.20326340
vt 0.68795609 0.23210335
vt 0.68795609 0.31571245
vt 0.68795609 0.39932168
vt 0.68795609 0.48293102
vt 0.69395560 0.49408150
vt 0.69395560 0.57769060
vt 0.69867134 0.28087938
vt 0.69867134 0.30596209
vt 0.69867134 0.38957131
vt 0.73129112 0.20326281
vt 0.73187178 3.6390543e-2
vt 0.73187274 0.11999977
vt 0.77121913 0.39990401
vt 0.77121913 0.48195106
vt 0.77721864 0.49310154
vt 0.77721864 0.57827282
vt 0.78228068 0.26415741
vt 0.78228068 0.38957131
vt 0.79900253 0.30596209
vt 0.80271012 0.20326209
vt 0.80329055 3.6389828e-2
vt 0.80329150 0.11999905
vt 0.80331993 0.32220769
vt 0.80332041 0.38909507
vt 0.80332088 0.47270429
vt 0.81382775 0.18586653
vt 0.81409264 2.0567894e-2
vt 0.81409264 0.10417712
vt 0.81409264 0.12925994
vt 0.81432867 0.18629235
vt 0.83054948 0.14406198
vt 0.83105052 0.14448756
vt 0.86588991 0.22235298
vt 0.86588991 0.30596209
vt 0.88692927 0.32220721
vt 0.88692963 0.38909459
vt 0.88692999 0.47270381
vt 0.89671421 0.32187939
vt 0.89671421 0.36368406
vt 0.89743686 0.14406198
vt 0.89743686 0.22767133
vt 0.89770198 2.0567894e-2
vt 0.89770198 0.10417712
vt 0.89770198 0.12925994
vt 0.89793801 0.14448756
vt 0.89793801 0.22809690
vt 0.94949913 0.26415741
vt 0.94949913 0.30596209
vt 0.98032355 0.32187939
vt 0.98032355 0.36368406
vt 0.98104620 0.14406198
vt 0.98104620 0.18586653
vt 0.98154712 0.14448756
vt 0.98154712 0.18629235
vt 0.98154724 1.9587938e-2
vt 0.98154724 0.10475934
vt 0.98154724 0.12984216
vn -1.00000000 0.0000000e+0 0.0000000e+0
vn 0.0000000e+0 0.0000000e+0 1.00000000
vn -1.00000000 0.0000000e+0 0.0000000e+0
vn -1.00000000 0.0000000e+0 0.0000000e+0
vn 0.0000000e+0 0.98058062 0.19611639
vn 0.0000000e+0 0.0000000e+0 1.00000000
vn 1.00000000 2.1287368e-8 -4.2574756e-8
vn -2.0616328e-16 0.92847645 -0.37139129
vn 0.0000000e+0 0.98058062 0.19611639
vn 0.0000000e+0 0.98058062 0.19611639
vn 0.0000000e+0 -1.00000000 0.0000000e+0
vn -1.00000000 0.0000000e+0 0.0000000e+0
vn -1.00000000 0.0000000e+0 0.0000000e+0
vn 0.0000000e+0 -1.00000000 0.0000000e+0
vn 0.0000000e+0 -1.00000000 0.0000000e+0
vn 0.0000000e+0 -1.00000000 0.0000000e+0
vn 0.0000000e+0 -1.00000000 0.0000000e+0
vn 0.0000000e+0 -1.00000000 0.0000000e+0
vn 0.0000000e+0 -0.19611618 -0.98058067
vn -1.00000000 0.0000000e+0 0.0000000e+0
vn 0.0000000e+0 -0.44721377 -0.89442711
vn -1.00000000 0.0000000e+0 0.0000000e+0
vn 0.0000000e+0 -0.19611618 -0.98058067
vn 0.0000000e+0 -0.44721377 -0.89442711
vn 1.00000000 2.1287368e-8 -4.2574756e-8
vn 0.0000000e+0 -0.19611618 -0.98058067
vn -2.0616328e-16 0.92847645 -0.37139129
vn 0.0000000e+0 -0.19611618 -0.98058067
vn 0.0000000e+0 -1.00000000 0.0000000e+0
vn -1.00000000 0.0000000e+0 0.0000000e+0
vn 0.0000000e+0 -0.19611618 -0.98058067
vn 0.0000000e+0 -1.00000000 0.0000000e+0
vn 0.0000000e+0 -0.19611618 -0.98058067
vn 0.0000000e+0 -1.00000000 0.0000000e+0
vn 0.0000000e+0 0.0000000e+0 1.00000000
vn -1.00000000 0.0000000e+0 0.0000000e+0
vn 0.0000000e+0 0.0000000e+0 1.00000000
vn -1.00000000 0.0000000e+0 0.0000000e+0
vn 0.0000000e+0 0.0000000e+0 1.00000000
vn 1.00000000 2.1287368e-8 -4.2574756e-8
vn 0.0000000e+0 0.0000000e+0 1.00000000
vn 1.00000000 -1.9868221e-8 -3.9736424e-8
vn 0.0000000e+0 -0.44721377 -0.89442711
vn -1.00000000 0.0000000e+0 0.0000000e+0
vn 0.0000000e+0 0.44721342 -0.89442728
vn -1.00000000 0.0000000e+0 0.0000000e+0
vn 0.0000000e+0 -0.44721377 -0.89442711
vn 1.00000000 2.1287368e-8 -4.2574756e-8
vn 1.00000000 -1.9868221e-8 -3.9736424e-8
vn 0.0000000e+0 0.44721342 -0.89442728
vn 0.0000000e+0 1.00000000 0.0000000e+0
vn 0.0000000e+0 0.0000000e+0 1.00000000
vn -1.00000000 0.0000000e+0 0.0000000e+0
vn 0.0000000e+0 1.00000000 0.0000000e+0
vn 0.0000000e+0 0.0000000e+0 1.00000000
vn 1.00000000 -1.9868221e-8 -3.9736424e-8
vn 0.0000000e+0 1.00000000 0.0000000e+0
vn 0.0000000e+0 0.44721342 -0.89442728
vn -1.00000000 0.0000000e+0 0.0000000e+0
vn 0.0000000e+0 1.00000000 0.0000000e+0
vn 1.00000000 -1.9868221e-8 -3.9736424e-8
vn 0.0000000e+0 0.44721342 -0.89442728
vn -2.0616328e-16 0.92847645 -0.37139129
vn -1.00000000 -4.2574736e-8 8.5149513e-8
vn 0.0000000e+0 0.0000000e+0 1.00000000
vn 0.0000000e+0 0.98058062 0.19611639
vn 0.0000000e+0 0.98058062 0.19611639
vn 0.0000000e+0 -1.00000000 0.0000000e+0
vn 0.0000000e+0 -1.00000000 0.0000000e+0
vn 0.0000000e+0 -1.00000000 0.0000000e+0
vn 0.0000000e+0 -1.00000000 0.0000000e+0
vn 0.0000000e+0 -0.19611618 -0.98058067
vn -2.0616328e-16 0.92847645 -0.37139129
vn 0.0000000e+0 -0.19611618 -0.98058067
vn -1.00000000 -4.2574736e-8 8.5149513e-8
vn 0.0000000e+0 -0.44721377 -0.89442711
vn 0.0000000e+0 -0.19611618 -0.98058067
vn 0.0000000e+0 -1.00000000 0.0000000e+0
vn 0.0000000e+0 -1.00000000 0.0000000e+0
vn 0.0000000e+0 -0.19611618 -0.98058067
vn 1.00000000 0.0000000e+0 0.0000000e+0
vn 1.00000000 0.0000000e+0 0.0000000e+0
vn 0.0000000e+0 0.0000000e+0 1.00000000
vn 1.00000000 0.0000000e+0 0.0000000e+0
vn 0.0000000e+0 0.98058062 0.19611639
vn 1.00000000 0.0000000e+0 0.0000000e+0
vn 0.0000000e+0 -1.00000000 0.0000000e+0
vn 1.00000000 0.0000000e+0 0.0000000e+0
vn 0.0000000e+0 -1.00000000 0.0000000e+0
vn 1.00000000 0.0000000e+0 0.0000000e+0
vn 0.0000000e+0 -0.19611618 -0.98058067
vn 1.00000000 0.0000000e+0 0.0000000e+0
vn 0.0000000e+0 -0.44721377 -0.89442711
vn 1.00000000 0.0000000e+0 0.0000000e+0
vn 0.0000000e+0 -1.00000000 0.0000000e+0
vn 0.0000000e+0 -0.19611618 -0.98058067
vn -1.00000000 -4.2574736e-8 8.5149513e-8
vn 0.0000000e+0 0.0000000e+0 1.00000000
vn -1.00000000 3.9736442e-8 7.9472847e-8
vn 0.0000000e+0 0.0000000e+0 1.00000000
vn -1.00000000 -4.2574736e-8 8.5149513e-8
vn 0.0000000e+0 -0.44721377 -0.89442711
vn -1.00000000 3.9736442e-8 7.9472847e-8
vn 0.0000000e+0 0.44721342 -0.89442728
vn 1.00000000 0.0000000e+0 0.0000000e+0
vn 0.0000000e+0 0.0000000e+0 1.00000000
vn 0.0000000e+0 0.0000000e+0 1.00000000
vn 1.00000000 0.0000000e+0 0.0000000e+0
vn 1.00000000 0.0000000e+0 0.0000000e+0
vn 0.0000000e+0 -0.44721377 -0.89442711
vn 1.00000000 0.0000000e+0 0.0000000e+0
vn 0.0000000e+0 0.44721342 -0.89442728
vn 0.0000000e+0 1.00000000 0.0000000e+0
vn -1.00000000 3.9736442e-8 7.9472847e-8
vn 0.0000000e+0 0.0000000e+0 1.00000000
vn 0.0000000e+0 1.00000000 0.0000000e+0
vn -1.00000000 3.9736442e-8 7.9472847e-8
vn 0.0000000e+0 0.44721342 -0.89442728
vn 0.0000000e+0 1.00000000 0.0000000e+0
vn 0.0000000e+0 0.0000000e+0 1.00000000
vn 1.00000000 0.0000000e+0 0.0000000e+0
vn 0.0000000e+0 1.00000000 0.0000000e+0
vn 1.00000000 0.0000000e+0 0.0000000e+0
vn 0.0000000e+0 0.44721342 -0.89442728
vn 0.0000000e+0 0.0000000e+0 1.00000000
vn -1.00000000 0.0000000e+0 0.0000000e+0
vn 0.0000000e+0 0.98058062 0.19611639
vn 0.0000000e+0 0.0000000e+0 1.00000000
vn 0.0000000e+0 0.0000000e+0 1.00000000
vn 0.0000000e+0 0.98058062 0.19611639
vn 0.0000000e+0 0.98058062 0.19611639
vn 0.0000000e+0 0.0000000e+0 1.00000000
vn -1.00000000 0.0000000e+0 0.0000000e+0
vn 0.0000000e+0 -1.00000000 0.0000000e+0
vn 0.0000000e+0 0.0000000e+0 1.00000000
vn 0.0000000e+0 0.0000000e+0 1.00000000
vn 0.0000000e+0 -1.00000000 0.0000000e+0
vn 0.0000000e+0 -1.00000000 0.0000000e+0
vn 0.0000000e+0 0.0000000e+0 1.00000000
vn 0.0000000e+0 0.0000000e+0 1.00000000
vn 0.0000000e+0 0.98058062 0.19611639
vn 0.0000000e+0 0.98058062 0.19611639
vn 0.0000000e+0 0.0000000e+0 1.00000000
vn 0.0000000e+0 0.0000000e+0 1.00000000
vn 0.0000000e+0 -1.00000000 0.0000000e+0
vn 0.0000000e+0 -1.00000000 0.0000000e+0
vn 0.0000000e+0 0.0000000e+0 1.00000000
vn 1.00000000 0.0000000e+0 0.0000000e+0
vn 0.0000000e+0 0.98058062 0.19611639
vn 0.0000000e+0 0.0000000e+0 1.00000000
vn 1.00000000 0.0000000e+0 0.0000000e+0
vn 0.0000000e+0 -1.00000000 0.0000000e+0
g Object01_01 - Default 2
usemtl 01 - Default 2
f 1/27/1 5/25/20 7/15/30 3/16/12
f 1/27/3 9/42/36 11/41/44 5/25/22
f 1/19/5 33/29/127 34/30/130 2/20/9
f 2/43/6 10/44/39 9/32/35 1/31/2
f 2/20/8 17/18/63 19/8/73 6/7/27
f 2/20/10 34/30/131 37/28/141 17/18/66
f 3/36/11 7/37/29 8/52/32 4/51/15
f 3/16/13 35/17/133 33/26/126 1/27/4
f 4/51/17 36/50/137 35/35/134 3/36/14
f 5/3/21 11/2/43 12/10/47 6/11/24
f 6/11/23 8/12/31 7/4/28 5/3/19
f 6/38/25 12/54/48 10/53/40 2/40/7
f 6/11/26 19/21/72 20/22/77 8/12/33
f 8/65/34 20/52/78 18/51/68 4/64/16
f 9/42/38 13/56/53 15/55/59 11/41/46
f 10/44/41 14/45/55 13/33/52 9/32/37
f 11/2/45 15/1/58 16/9/62 12/10/50
f 12/54/49 16/62/61 14/61/56 10/53/42
f 14/46/54 16/47/60 15/58/57 13/57/51
f 17/39/64 25/48/97 26/49/101 19/34/75
f 17/20/67 37/30/142 39/29/149 21/19/85
f 18/51/70 38/50/145 36/63/138 4/64/18
f 19/11/74 23/3/91 24/4/96 20/12/80
f 19/11/76 26/10/102 28/2/110 23/3/93
f 20/52/79 24/37/95 22/36/87 18/51/69
f 21/43/83 27/44/106 25/32/98 17/31/65
f 21/27/84 39/26/148 40/17/151 22/16/88
f 22/16/86 24/15/94 23/25/90 21/27/81
f 22/36/89 40/35/152 38/50/146 18/51/71
f 23/25/92 28/41/109 27/42/105 21/27/82
f 25/48/99 29/59/114 30/60/117 26/49/103
f 26/10/104 30/9/118 32/1/124 28/2/112
f 27/44/107 31/45/120 29/33/115 25/32/100
f 28/41/111 32/55/123 31/56/121 27/42/108
f 29/58/113 31/47/119 32/46/122 30/57/116
f 33/5/125 35/6/132 36/14/135 34/13/128
f 36/24/136 38/14/143 37/13/139 34/23/129
f 38/14/144 40/6/150 39/5/147 37/13/140
