# Exported from Wings 3D 0.99.04a
mtllib barrel1.mtl
o medtank
#81 vertices, 81 faces
v 0.50736982 11.43229103 7.11928415
v 0.21074516 11.69927406 7.11928558
v -0.20874539 11.69927406 7.11928558
v -0.50537002 11.43229103 7.11928558
v -0.50537002 11.05472279 7.11928558
v -0.20874539 10.78773975 7.11928511
v 0.21074526 10.78773975 7.11928511
v 0.50736988 11.05472279 7.11928511
v 1.25755620 11.76398754 9.06509972
v 0.52148235 12.50006104 9.06510162
v -0.51948279 12.50006104 9.06510162
v -1.25555634 11.76398754 9.06510162
v -1.25555611 10.72302246 9.06509972
v -0.51948279 9.98694897 9.06509972
v 0.52148271 9.98694897 9.06509972
v 1.25755620 10.72302246 9.06509972
v 0.67755103 11.52374363 9.88172340
v 0.28123662 11.92005730 9.88172340
v -0.27923670 11.92005730 9.88172340
v -0.67555112 11.52374363 9.88172340
v -0.67555112 10.96327019 9.88172340
v -0.27923661 10.56695557 9.88172340
v 0.28123665 10.56695557 9.88172340
v 0.67755109 10.96327019 9.88172340
v 1.07683468 11.68913174 10.85824776
v 0.44662529 12.31934166 10.85824776
v -0.44462532 12.31934166 10.85824776
v -1.07483459 11.68913174 10.85824776
v -1.07483459 10.79788113 10.85824776
v -0.44462517 10.16767216 10.85824776
v 0.44662538 10.16767216 10.85824776
v 1.07683456 10.79788113 10.85824776
v 1.07683456 11.68913174 15.51047611
v 0.44662535 12.31934166 15.51047611
v -0.44462526 12.31934166 15.51047611
v -1.07483459 11.68913174 15.51047611
v -1.07483459 10.79788113 15.51047611
v -0.44462520 10.16767216 15.51047611
v 0.44662544 10.16767216 15.51047611
v 1.07683468 10.79788113 15.51047611
v 1.0001002e-3 11.24350643 16.68007660
v 0.50736988 11.43229103 2.39847183
v 0.21074517 11.69927406 2.39847207
v -0.20874541 11.69927406 2.39847207
v -0.50537002 11.43229103 2.39847183
v -0.50537002 11.05472279 2.39847183
v -0.20874538 10.78773975 2.39847183
v 0.21074525 10.78773975 2.39847183
v 0.50736988 11.05472279 2.39847183
v 0.98732764 11.43229294 3.16698337
v -0.98532784 11.43229103 3.16698408
v -0.98532772 11.05472279 3.16698408
v 0.98732764 11.05472279 3.16698360
v 0.98732769 11.43229294 2.39847207
v -0.98532784 11.43229103 2.39847207
v -0.98532784 11.05472088 2.39847207
v 0.98732764 11.05472279 2.39847207
v 1.78390622 11.43229103 3.16698360
v -1.78190613 11.43229008 3.16698456
v -1.78190601 11.05471992 3.16698456
v 1.78390646 11.05472279 3.16698384
v 1.78390646 11.43229103 2.39847279
v -1.78190613 11.43229008 2.39847279
v -1.78190613 11.05471992 2.39847279
v 1.78390622 11.05472279 2.39847279
v 0.98732835 12.04226112 2.45257854
v -0.98533154 12.04226017 2.45257974
v 0.98732853 11.51817989 1.46299458
v -0.98533165 11.51817989 1.46299481
v 1.78390706 12.04226017 2.45257878
v -1.78191006 12.04225922 2.45258021
v 1.78390729 11.51817989 1.46299481
v -1.78190994 11.51817894 1.46299565
v 0.98732662 10.52571678 2.18554235
v -0.98532462 10.52571583 2.18554115
v 1.78390527 10.52571583 2.18554282
v -1.78190303 10.52571487 2.18554187
v 0.98732746 10.61160564 1.71629477
v -0.98532861 10.61160469 1.71629429
v 1.78390598 10.61160469 1.71629512
v -1.78190672 10.61160278 1.71629512
vt 0.47828552 0.82710022
vt 0.47828576 0.89677256
vt 0.47828588 0.94707090
vt 0.47833857 0.76802284
vt 0.47833887 0.82410663
vt 0.50480247 0.76802272
vt 0.50480264 0.82410640
vt 0.50749552 0.75954872
vt 0.50749576 0.82381123
vt 0.53436923 0.82709998
vt 0.53436947 0.89677233
vt 0.53436959 0.94707066
vt 0.55091876 0.83327252
vt 0.55091900 0.87724239
vt 0.55907702 0.91996282
vt 0.55907702 0.95489544
vt 0.56357926 0.75954849
vt 0.56357950 0.82381099
vt 0.58377826 0.89526176
vt 0.58377826 0.97959656
vt 0.59460664 0.93495452
vt 0.59460664 0.93990386
vt 0.59649426 0.83327240
vt 0.59649450 0.87724215
vt 0.59849501 0.93145478
vt 0.59849501 0.94340372
vt 0.60399407 0.93145478
vt 0.60399407 0.94340372
vt 0.60539675 0.70871574
vt 0.60539675 0.72602892
vt 0.60788226 0.93495452
vt 0.60788226 0.93990386
vt 0.61871082 0.89526176
vt 0.61871082 0.97959656
vt 0.64192325 0.70871574
vt 0.64192325 0.72602892
vt 0.64341182 0.91996282
vt 0.64341182 0.95489544
vt 0.65006083 0.36398751
vt 0.65006191 0.68049175
vt 0.65697926 0.91848105
vt 0.65697926 0.95708746
vt 0.66393113 0.70871586
vt 0.66393113 0.72602910
vt 0.67753255 0.73827118
vt 0.67753273 0.69647378
vt 0.68427825 0.89118207
vt 0.68427825 0.98438638
vt 0.69637120 0.93479770
vt 0.69637120 0.94077086
vt 0.69676799 0.73827136
vt 0.69676811 0.69647396
vt 0.70059478 0.93057412
vt 0.70059478 0.94499445
vt 0.70656800 0.93057412
vt 0.70656800 0.94499445
vt 0.70825887 0.36482146
vt 0.70826012 0.68132585
vt 0.71036935 0.70871603
vt 0.71036935 0.72602928
vt 0.71079159 0.93479770
vt 0.71079159 0.94077086
vt 0.71804434 0.81538314
vt 0.71933389 0.86804914
vt 0.72288465 0.89118207
vt 0.72288465 0.98438638
vt 0.73237729 0.70871603
vt 0.73237729 0.72602928
vt 0.74258924 0.83046675
vt 0.75018364 0.91848105
vt 0.75018364 0.95708746
vt 0.75843996 0.83866221
vt 0.75912488 0.79845166
vt 0.76264870 0.91805667
vt 0.76264870 0.95541018
vt 0.76295012 0.87607628
vt 0.76890373 0.70871639
vt 0.76890373 0.72602946
vt 0.77440411 0.80621815
vt 0.77608746 0.85882533
vt 0.78906161 0.89164376
vt 0.78906161 0.98182315
vt 0.79657495 0.93210948
vt 0.79657495 0.94135749
vt 0.80311435 0.92556995
vt 0.80311435 0.94789690
vt 0.81236267 0.92556995
vt 0.81236267 0.94789690
vt 0.81890190 0.93210948
vt 0.81890190 0.94135749
vt 0.82641518 0.89164376
vt 0.82641518 0.98182315
vt 0.82660985 0.50070411
vt 0.82686985 0.85287005
vt 0.85282820 0.91805667
vt 0.85282820 0.95541018
vt 0.87706649 0.90822482
vt 0.87706649 0.95342463
vt 0.88945544 0.85226876
vt 0.88945758 0.50100964
vt 0.90902770 0.87626374
vt 0.90902770 0.98538566
vt 0.91996491 0.85459316
vt 0.91996706 0.49974212
vt 0.93162757 0.93082464
vt 0.95422751 0.87626374
vt 0.95422751 0.98538566
vt 0.98432404 0.85459310
vt 0.98432440 0.79682618
vt 0.98618859 0.90822482
vt 0.98618859 0.95342463
vn 0.64719589 0.66632283 -0.37033952
vn 0.93305676 -2.0263885e-7 -0.35972917
vn 0.66899355 0.74326821 5.2791653e-9
vn 0.99270702 2.6866470e-7 0.12055191
vn -3.9739926e-6 1.00000000 -8.6301494e-14
vn 0.64719589 0.66632283 -0.37033952
vn 0.0000000e+0 0.92475026 -0.38057450
vn 0.66899355 0.74326821 5.2791653e-9
vn 0.0000000e+0 1.00000000 0.0000000e+0
vn 0.0000000e+0 0.92475026 -0.38057450
vn -0.64719662 0.66632214 -0.37033950
vn 0.0000000e+0 1.00000000 0.0000000e+0
vn -0.66899363 0.74326814 1.0558330e-9
vn -0.64719662 0.66632214 -0.37033950
vn -0.93305679 3.2686631e-7 -0.35972911
vn -0.66899363 0.74326814 1.0558330e-9
vn -0.99270703 -1.5671326e-7 0.12055190
vn 0.0000000e+0 1.00000000 0.0000000e+0
vn -0.93305679 3.2686631e-7 -0.35972911
vn -0.64719640 -0.66632159 -0.37034086
vn -0.66899361 -0.74326816 -1.0558330e-9
vn -0.99270703 -1.5671326e-7 0.12055190
vn 5.5636384e-7 -1.00000000 3.4746500e-7
vn -0.64719640 -0.66632159 -0.37034086
vn 0.0000000e+0 -0.92474953 -0.38057629
vn -0.66899361 -0.74326816 -1.0558330e-9
vn 0.0000000e+0 -1.00000000 0.0000000e+0
vn 0.0000000e+0 -0.92474953 -0.38057629
vn 0.64719626 -0.66632173 -0.37034086
vn 0.0000000e+0 -1.00000000 0.0000000e+0
vn 0.66899363 -0.74326814 -1.0558331e-9
vn 0.64719626 -0.66632173 -0.37034086
vn 0.93305676 -2.0263885e-7 -0.35972917
vn 0.66899363 -0.74326814 -1.0558331e-9
vn 0.99270702 2.6866470e-7 0.12055191
vn 0.0000000e+0 -1.00000000 0.0000000e+0
vn 0.64719589 0.66632283 -0.37033952
vn 0.93305676 -2.0263885e-7 -0.35972917
vn 0.57649583 0.57649541 0.57905578
vn 0.81528763 3.0344549e-8 0.57905620
vn 0.64719589 0.66632283 -0.37033952
vn 0.0000000e+0 0.92475026 -0.38057450
vn 0.57649583 0.57649541 0.57905578
vn 0.0000000e+0 0.81528765 0.57905617
vn 0.0000000e+0 0.92475026 -0.38057450
vn -0.64719662 0.66632214 -0.37033950
vn 0.0000000e+0 0.81528765 0.57905617
vn -0.57649514 0.57649555 0.57905633
vn -0.64719662 0.66632214 -0.37033950
vn -0.93305679 3.2686631e-7 -0.35972911
vn -0.57649514 0.57649555 0.57905633
vn -0.81528732 -8.1104738e-7 0.57905663
vn -0.93305679 3.2686631e-7 -0.35972911
vn -0.64719640 -0.66632159 -0.37034086
vn -0.81528732 -8.1104738e-7 0.57905663
vn -0.57649510 -0.57649495 0.57905696
vn -0.64719640 -0.66632159 -0.37034086
vn 0.0000000e+0 -0.92474953 -0.38057629
vn -0.57649510 -0.57649495 0.57905696
vn 0.0000000e+0 -0.81528694 0.57905717
vn 0.0000000e+0 -0.92474953 -0.38057629
vn 0.64719626 -0.66632173 -0.37034086
vn 0.0000000e+0 -0.81528694 0.57905717
vn 0.57649507 -0.57649498 0.57905696
vn 0.64719626 -0.66632173 -0.37034086
vn 0.93305676 -2.0263885e-7 -0.35972917
vn 0.57649507 -0.57649498 0.57905696
vn 0.81528763 3.0344549e-8 0.57905620
vn 0.57649583 0.57649541 0.57905578
vn 0.81528763 3.0344549e-8 0.57905620
vn 0.65450826 0.65450840 -0.37846756
vn 0.92561460 -3.8003730e-8 -0.37846746
vn 0.57649583 0.57649541 0.57905578
vn 0.0000000e+0 0.81528765 0.57905617
vn 0.65450826 0.65450840 -0.37846756
vn 0.0000000e+0 0.92561433 -0.37846811
vn 0.0000000e+0 0.81528765 0.57905617
vn -0.57649514 0.57649555 0.57905633
vn 0.0000000e+0 0.92561433 -0.37846811
vn -0.65450832 0.65450838 -0.37846749
vn -0.57649514 0.57649555 0.57905633
vn -0.81528732 -8.1104738e-7 0.57905663
vn -0.65450832 0.65450838 -0.37846749
vn -0.92561463 0.0000000e+0 -0.37846739
vn -0.81528732 -8.1104738e-7 0.57905663
vn -0.57649510 -0.57649495 0.57905696
vn -0.92561463 0.0000000e+0 -0.37846739
vn -0.65450825 -0.65450846 -0.37846747
vn -0.57649510 -0.57649495 0.57905696
vn 0.0000000e+0 -0.81528694 0.57905717
vn -0.65450825 -0.65450846 -0.37846747
vn 0.0000000e+0 -0.92561465 -0.37846734
vn 0.0000000e+0 -0.81528694 0.57905717
vn 0.57649507 -0.57649498 0.57905696
vn 0.0000000e+0 -0.92561465 -0.37846734
vn 0.65450833 -0.65450835 -0.37846752
vn 0.57649507 -0.57649498 0.57905696
vn 0.81528763 3.0344549e-8 0.57905620
vn 0.65450833 -0.65450835 -0.37846752
vn 0.92561460 -3.8003730e-8 -0.37846746
vn 0.65450826 0.65450840 -0.37846756
vn 0.92561460 -3.8003730e-8 -0.37846746
vn 0.70710713 0.70710643 4.5297510e-9
vn 1.00000000 0.0000000e+0 0.0000000e+0
vn 0.65450826 0.65450840 -0.37846756
vn 0.0000000e+0 0.92561433 -0.37846811
vn 0.70710713 0.70710643 4.5297510e-9
vn 0.0000000e+0 1.00000000 3.8182924e-16
vn 0.0000000e+0 0.92561433 -0.37846811
vn -0.65450832 0.65450838 -0.37846749
vn 0.0000000e+0 1.00000000 3.8182924e-16
vn -0.70710713 0.70710643 4.5297510e-9
vn -0.65450832 0.65450838 -0.37846749
vn -0.92561463 0.0000000e+0 -0.37846739
vn -0.70710713 0.70710643 4.5297510e-9
vn -1.00000000 0.0000000e+0 0.0000000e+0
vn -0.92561463 0.0000000e+0 -0.37846739
vn -0.65450825 -0.65450846 -0.37846747
vn -1.00000000 0.0000000e+0 0.0000000e+0
vn -0.70710654 -0.70710702 -2.2648737e-9
vn -0.65450825 -0.65450846 -0.37846747
vn 0.0000000e+0 -0.92561465 -0.37846734
vn -0.70710654 -0.70710702 -2.2648737e-9
vn 0.0000000e+0 -1.00000000 -3.8182924e-16
vn 0.0000000e+0 -0.92561465 -0.37846734
vn 0.65450833 -0.65450835 -0.37846752
vn 0.0000000e+0 -1.00000000 -3.8182924e-16
vn 0.70710665 -0.70710691 -1.3589243e-8
vn 0.65450833 -0.65450835 -0.37846752
vn 0.92561460 -3.8003730e-8 -0.37846746
vn 0.70710665 -0.70710691 -1.3589243e-8
vn 1.00000000 0.0000000e+0 0.0000000e+0
vn 0.70710713 0.70710643 4.5297510e-9
vn 1.00000000 0.0000000e+0 0.0000000e+0
vn 0.52042593 0.52042534 0.67698916
vn 0.73599307 9.8442806e-8 0.67698907
vn 0.70710713 0.70710643 4.5297510e-9
vn 0.0000000e+0 1.00000000 3.8182924e-16
vn 0.52042593 0.52042534 0.67698916
vn 0.0000000e+0 0.73599285 0.67698931
vn 0.0000000e+0 1.00000000 3.8182924e-16
vn -0.70710713 0.70710643 4.5297510e-9
vn 0.0000000e+0 0.73599285 0.67698931
vn -0.52042585 0.52042536 0.67698920
vn -0.70710713 0.70710643 4.5297510e-9
vn -1.00000000 0.0000000e+0 0.0000000e+0
vn -0.52042585 0.52042536 0.67698920
vn -0.73599302 0.0000000e+0 0.67698913
vn -1.00000000 0.0000000e+0 0.0000000e+0
vn -0.70710654 -0.70710702 -2.2648737e-9
vn -0.73599302 0.0000000e+0 0.67698913
vn -0.52042551 -0.52042586 0.67698908
vn -0.70710654 -0.70710702 -2.2648737e-9
vn 0.0000000e+0 -1.00000000 -3.8182924e-16
vn -0.52042551 -0.52042586 0.67698908
vn 0.0000000e+0 -0.73599314 0.67698899
vn 0.0000000e+0 -1.00000000 -3.8182924e-16
vn 0.70710665 -0.70710691 -1.3589243e-8
vn 0.0000000e+0 -0.73599314 0.67698899
vn 0.52042558 -0.52042580 0.67698907
vn 0.70710665 -0.70710691 -1.3589243e-8
vn 1.00000000 0.0000000e+0 0.0000000e+0
vn 0.52042558 -0.52042580 0.67698907
vn 0.73599307 9.8442806e-8 0.67698907
vn 0.52042593 0.52042534 0.67698916
vn 0.0000000e+0 0.73599285 0.67698931
vn -0.52042585 0.52042536 0.67698920
vn -0.73599302 0.0000000e+0 0.67698913
vn -0.52042551 -0.52042586 0.67698908
vn 0.0000000e+0 -0.73599314 0.67698899
vn 0.52042558 -0.52042580 0.67698907
vn 0.73599307 9.8442806e-8 0.67698907
vn -1.4517280e-16 2.2325338e-7 -1.00000000
vn 0.66899355 0.74326821 5.2791653e-9
vn 4.9674906e-7 -3.9209437e-14 -1.00000000
vn -3.9739926e-6 1.00000000 -8.6301494e-14
vn -1.4517280e-16 2.2325338e-7 -1.00000000
vn 0.66899355 0.74326821 5.2791653e-9
vn 0.0000000e+0 1.00000000 0.0000000e+0
vn -1.4517280e-16 2.2325338e-7 -1.00000000
vn 0.0000000e+0 1.00000000 0.0000000e+0
vn -0.66899363 0.74326814 1.0558330e-9
vn -1.4517280e-16 2.2325338e-7 -1.00000000
vn -0.66899363 0.74326814 1.0558330e-9
vn -4.9674903e-7 0.0000000e+0 -1.00000000
vn 0.0000000e+0 1.00000000 0.0000000e+0
vn -1.4517280e-16 2.2325338e-7 -1.00000000
vn -0.66899361 -0.74326816 -1.0558330e-9
vn -4.9674903e-7 0.0000000e+0 -1.00000000
vn 5.5636384e-7 -1.00000000 3.4746500e-7
vn -1.4517280e-16 2.2325338e-7 -1.00000000
vn -0.66899361 -0.74326816 -1.0558330e-9
vn 0.0000000e+0 -1.00000000 0.0000000e+0
vn -1.4517280e-16 2.2325338e-7 -1.00000000
vn 0.0000000e+0 -1.00000000 0.0000000e+0
vn 0.66899363 -0.74326814 -1.0558331e-9
vn -1.4517280e-16 2.2325338e-7 -1.00000000
vn 0.66899363 -0.74326814 -1.0558331e-9
vn 4.9674906e-7 -3.9209437e-14 -1.00000000
vn 0.0000000e+0 -1.00000000 0.0000000e+0
vn 0.99270702 2.6866470e-7 0.12055191
vn -3.9739926e-6 1.00000000 -8.6301494e-14
vn -2.9930247e-7 6.3145655e-7 1.00000000
vn -1.00000000 1.1164445e-6 -4.6841954e-7
vn 1.1713851e-6 0.76050621 0.64933066
vn -0.99270703 -1.5671326e-7 0.12055190
vn 0.0000000e+0 1.00000000 0.0000000e+0
vn 5.9860677e-7 1.8899711e-13 1.00000000
vn 1.00000000 6.2292156e-6 -1.9247052e-6
vn -5.2179364e-7 0.76050574 0.64933120
vn -0.99270703 -1.5671326e-7 0.12055190
vn 5.5636384e-7 -1.00000000 3.4746500e-7
vn 5.9860677e-7 1.8899711e-13 1.00000000
vn 2.3944280e-6 -1.00000000 1.2409359e-6
vn 0.99270702 2.6866470e-7 0.12055191
vn 0.0000000e+0 -1.00000000 0.0000000e+0
vn -2.9930247e-7 6.3145655e-7 1.00000000
vn 0.0000000e+0 -1.00000000 0.0000000e+0
vn 4.9674906e-7 -3.9209437e-14 -1.00000000
vn -3.9739926e-6 1.00000000 -8.6301494e-14
vn 8.9790972e-7 -3.5436941e-13 -1.00000000
vn -1.00000000 1.1164445e-6 -4.6841954e-7
vn -1.1390507e-6 -0.22865055 0.97350856
vn -1.00000000 1.1601525e-6 -1.0462146e-6
vn -4.9674903e-7 0.0000000e+0 -1.00000000
vn 0.0000000e+0 1.00000000 0.0000000e+0
vn -8.9791016e-7 0.0000000e+0 -1.00000000
vn 1.00000000 6.2292156e-6 -1.9247052e-6
vn 1.1478679e-6 -0.22865176 0.97350828
vn 1.00000000 3.3370486e-6 -5.1504617e-6
vn -4.9674903e-7 0.0000000e+0 -1.00000000
vn 5.5636384e-7 -1.00000000 3.4746500e-7
vn -8.9791016e-7 0.0000000e+0 -1.00000000
vn 2.3944280e-6 -1.00000000 1.2409359e-6
vn 4.9674906e-7 -3.9209437e-14 -1.00000000
vn 0.0000000e+0 -1.00000000 0.0000000e+0
vn 0.0000000e+0 -1.00000000 0.0000000e+0
vn 8.9790972e-7 -3.5436941e-13 -1.00000000
vn 1.00000000 0.0000000e+0 0.0000000e+0
vn -2.9930247e-7 6.3145655e-7 1.00000000
vn 1.00000000 -1.0284267e-6 5.7779324e-7
vn 1.1713851e-6 0.76050621 0.64933066
vn -1.00000000 -1.5786376e-7 7.7558532e-8
vn 5.9860677e-7 1.8899711e-13 1.00000000
vn -1.00000000 -6.6183449e-6 1.9050917e-6
vn -5.2179364e-7 0.76050574 0.64933120
vn -1.00000000 -1.5786376e-7 7.7558532e-8
vn 5.9860677e-7 1.8899711e-13 1.00000000
vn 2.3944280e-6 -1.00000000 1.2409359e-6
vn 1.00000000 0.0000000e+0 0.0000000e+0
vn -2.9930247e-7 6.3145655e-7 1.00000000
vn 0.0000000e+0 -1.00000000 0.0000000e+0
vn 1.00000000 0.0000000e+0 0.0000000e+0
vn 8.9790972e-7 -3.5436941e-13 -1.00000000
vn 1.00000000 -1.0284267e-6 5.7779324e-7
vn -1.1390507e-6 -0.22865055 0.97350856
vn 1.00000000 -1.3598270e-6 9.3693225e-7
vn -1.00000000 -1.5786376e-7 7.7558532e-8
vn -8.9791016e-7 0.0000000e+0 -1.00000000
vn -1.00000000 -6.6183449e-6 1.9050917e-6
vn 1.1478679e-6 -0.22865176 0.97350828
vn -1.00000000 -3.3747464e-6 4.9336971e-6
vn -1.00000000 -1.5786376e-7 7.7558532e-8
vn -8.9791016e-7 0.0000000e+0 -1.00000000
vn 2.3944280e-6 -1.00000000 1.2409359e-6
vn 1.00000000 0.0000000e+0 0.0000000e+0
vn 0.0000000e+0 -1.00000000 0.0000000e+0
vn 8.9790972e-7 -3.5436941e-13 -1.00000000
vn 6.6907918e-7 0.88372020 -0.46801561
vn -1.00000000 1.1164445e-6 -4.6841954e-7
vn 1.1713851e-6 0.76050621 0.64933066
vn -1.4432178e-6 0.88372052 -0.46801499
vn 1.00000000 6.2292156e-6 -1.9247052e-6
vn -5.2179364e-7 0.76050574 0.64933120
vn 6.6907918e-7 0.88372020 -0.46801561
vn -1.00000000 1.1164445e-6 -4.6841954e-7
vn 1.9924521e-7 -0.26909725 -0.96311301
vn -1.00000000 1.1601525e-6 -1.0462146e-6
vn -1.4432178e-6 0.88372052 -0.46801499
vn 1.00000000 6.2292156e-6 -1.9247052e-6
vn -5.2567234e-7 -0.26909622 -0.96311330
vn 1.00000000 3.3370486e-6 -5.1504617e-6
vn 6.6907918e-7 0.88372020 -0.46801561
vn 1.00000000 -1.0284267e-6 5.7779324e-7
vn 1.1713851e-6 0.76050621 0.64933066
vn -1.4432178e-6 0.88372052 -0.46801499
vn -1.00000000 -6.6183449e-6 1.9050917e-6
vn -5.2179364e-7 0.76050574 0.64933120
vn 6.6907918e-7 0.88372020 -0.46801561
vn 1.00000000 -1.0284267e-6 5.7779324e-7
vn 1.9924521e-7 -0.26909725 -0.96311301
vn 1.00000000 -1.3598270e-6 9.3693225e-7
vn -1.4432178e-6 0.88372052 -0.46801499
vn -1.00000000 -6.6183449e-6 1.9050917e-6
vn -5.2567234e-7 -0.26909622 -0.96311330
vn -1.00000000 -3.3747464e-6 4.9336971e-6
vn -1.0833452e-6 -0.98365852 -0.18004419
vn -1.1390507e-6 -0.22865055 0.97350856
vn -1.00000000 1.1601525e-6 -1.0462146e-6
vn 1.5913394e-6 -0.98365864 -0.18004353
vn 1.1478679e-6 -0.22865176 0.97350828
vn 1.00000000 3.3370486e-6 -5.1504617e-6
vn -1.0833452e-6 -0.98365852 -0.18004419
vn -1.1390507e-6 -0.22865055 0.97350856
vn 1.00000000 -1.3598270e-6 9.3693225e-7
vn 1.5913394e-6 -0.98365864 -0.18004353
vn 1.1478679e-6 -0.22865176 0.97350828
vn -1.00000000 -3.3747464e-6 4.9336971e-6
vn -1.0833452e-6 -0.98365852 -0.18004419
vn 1.9924521e-7 -0.26909725 -0.96311301
vn -1.00000000 1.1601525e-6 -1.0462146e-6
vn 1.5913394e-6 -0.98365864 -0.18004353
vn -5.2567234e-7 -0.26909622 -0.96311330
vn 1.00000000 3.3370486e-6 -5.1504617e-6
vn -1.0833452e-6 -0.98365852 -0.18004419
vn 1.9924521e-7 -0.26909725 -0.96311301
vn 1.00000000 -1.3598270e-6 9.3693225e-7
vn 1.5913394e-6 -0.98365864 -0.18004353
vn -5.2567234e-7 -0.26909622 -0.96311330
vn -1.00000000 -3.3747464e-6 4.9336971e-6
g medtank_2 - Default
usemtl 2 - Default
f 1/22/2 9/16/38 16/15/66 8/21/33
f 1/100/3 42/99/174 43/94/178 2/93/8
f 1/104/5 50/109/202 54/108/220 42/103/176
f 2/26/6 10/20/41 9/16/37 1/22/1
f 2/100/9 43/99/179 44/94/181 3/93/12
f 3/28/10 11/34/45 10/20/42 2/26/7
f 3/100/13 44/99/182 45/94/184 4/93/16
f 4/32/14 12/38/49 11/34/46 3/28/11
f 4/100/17 51/99/206 52/94/211 5/93/22
f 5/31/19 13/37/53 12/38/50 4/32/15
f 5/93/21 46/94/188 47/99/192 6/100/26
f 5/104/23 52/109/212 56/108/232 46/103/190
f 6/27/24 14/33/57 13/37/54 5/31/20
f 6/93/27 47/94/193 48/99/195 7/100/30
f 7/25/28 15/19/61 14/33/58 6/27/25
f 7/93/31 48/94/196 49/99/198 8/100/34
f 8/21/32 16/15/65 15/19/62 7/25/29
f 8/93/35 53/94/215 50/99/201 1/100/4
f 9/71/40 17/62/70 24/61/98 16/70/68
f 10/66/43 18/56/73 17/62/69 9/71/39
f 11/48/47 19/54/77 18/56/74 10/66/44
f 12/42/51 20/50/81 19/54/78 11/48/48
f 13/41/55 21/49/85 20/50/82 12/42/52
f 14/47/59 22/53/89 21/49/86 13/41/56
f 15/65/63 23/55/93 22/53/90 14/47/60
f 16/70/67 24/61/97 23/55/94 15/65/64
f 17/85/72 25/81/102 32/91/130 24/87/100
f 18/83/75 26/74/105 25/81/101 17/85/71
f 19/84/79 27/75/109 26/74/106 18/83/76
f 20/86/83 28/82/113 27/75/110 19/84/80
f 21/88/87 29/92/117 28/82/114 20/86/84
f 22/90/91 30/96/121 29/92/118 21/88/88
f 23/89/95 31/95/125 30/96/122 22/90/92
f 24/87/99 32/91/129 31/95/126 23/89/96
f 25/40/104 33/39/134 40/57/162 32/58/132
f 26/40/107 34/39/137 33/57/133 25/58/103
f 27/58/111 35/57/141 34/39/138 26/40/108
f 28/58/115 36/57/145 35/39/142 27/40/112
f 29/58/119 37/57/149 36/39/146 28/40/116
f 30/40/123 38/39/153 37/57/150 29/58/120
f 31/40/127 39/39/157 38/57/154 30/58/124
f 32/40/131 40/39/161 39/57/158 31/58/128
f 33/102/136 41/105/172 40/107/164
f 34/98/139 41/105/165 33/102/135
f 35/97/143 41/105/166 34/98/140
f 36/101/147 41/105/167 35/97/144
f 37/106/151 41/105/168 36/101/148
f 38/110/155 41/105/169 37/106/152
f 39/111/159 41/105/170 38/110/156
f 40/107/163 41/105/171 39/111/160
f 42/43/173 49/44/197 48/45/194 47/51/191 46/60/187 45/59/183 44/52/180 43/46/177
f 42/43/175 54/35/219 57/36/235 49/44/199
f 45/103/186 55/108/226 51/109/207 4/104/18
f 46/60/189 56/68/231 55/67/225 45/59/185
f 49/103/200 57/108/236 53/109/216 8/104/36
f 50/73/204 66/63/270 68/64/276 54/69/222
f 51/4/208 59/5/244 60/7/248 52/6/213
f 51/3/210 67/2/274 71/11/288 59/12/246
f 52/13/214 60/23/249 64/24/265 56/14/234
f 53/6/217 61/7/251 58/5/240 50/4/203
f 54/35/221 62/29/254 65/30/268 57/36/238
f 54/17/223 74/18/298 76/9/304 62/8/256
f 55/69/228 69/64/280 67/63/273 51/73/209
f 55/69/230 75/80/302 79/76/314 69/64/282
f 56/68/233 64/78/264 63/77/259 55/67/227
f 57/24/237 65/14/267 61/13/252 53/23/218
f 58/3/242 70/2/285 66/11/271 50/12/205
f 59/73/243 63/69/258 64/72/263 60/79/247
f 59/73/245 71/63/287 73/64/294 63/69/260
f 61/79/250 65/72/266 62/69/253 58/73/239
f 62/69/255 72/64/290 70/63/284 58/73/241
f 62/69/257 76/80/305 80/76/317 72/64/292
f 63/17/261 77/18/307 75/9/301 55/8/229
f 66/11/269 70/2/283 72/1/289 68/10/275
f 68/64/278 78/76/311 74/80/299 54/69/224
f 69/1/279 73/10/293 71/11/286 67/2/272
f 69/17/281 79/18/313 81/9/319 73/8/295
f 72/17/291 80/18/316 78/9/310 68/8/277
f 73/64/296 81/76/320 77/80/308 63/69/262
f 74/5/297 78/7/309 80/6/315 76/4/303
f 77/4/306 81/6/318 79/7/312 75/5/300
