# Exported from Wings 3D 0.99.04a
mtllib barrel1.mtl
o cube1_sep14
#16 vertices, 10 faces
v -3.33901715 2.60316825 1.9609863e-2
v -3.33901715 2.65824819 -0.11336461
v -3.33901715 2.79122257 -0.16844444
v -3.33901715 2.92419696 -0.11336461
v -3.33901715 2.97927690 1.9609863e-2
v -3.33901715 2.92419696 0.15258433
v -3.33901715 2.79122257 0.20766416
v -3.33901715 2.65824819 0.15258433
v -0.68245268 2.60316825 1.9609863e-2
v -0.68245268 2.65824819 -0.11336461
v -0.68245268 2.79122257 -0.16844444
v -0.68245268 2.92419696 -0.11336461
v -0.68245268 2.97927690 1.9609863e-2
v -0.68245268 2.92419696 0.15258433
v -0.68245268 2.79122257 0.20766416
v -0.68245268 2.65824819 0.15258433
vt 1.3630597e-2 0.89953113
vt 1.9518906e-2 0.88531548
vt 1.9518906e-2 0.91374671
vt 3.3734541e-2 0.88212085
vt 3.3734541e-2 0.91963506
vt 4.5664497e-2 0.88760120
vt 4.6045441e-2 0.91184193
vt 5.1144790e-2 0.89953119
vt 0.94964039 0.19322756
vt 0.94964039 0.99215955
vt 0.99292588 0.19322756
vt 0.99292588 0.99215955
vn -0.47596325 -0.87946517 1.3066442e-8
vn -0.47596308 -0.62187570 -0.62187600
vn -0.47596318 2.6421264e-17 -0.87946521
vn -0.47596308 0.62187570 -0.62187600
vn -0.47596325 0.87946517 1.3066442e-8
vn -0.47596308 0.62187571 0.62187599
vn -0.47596319 0.0000000e+0 0.87946520
vn -0.47596308 -0.62187571 0.62187599
vn 0.47596325 -0.87946517 1.3066442e-8
vn 0.47596308 -0.62187570 -0.62187600
vn 0.47596318 2.6421264e-17 -0.87946521
vn 0.47596308 0.62187570 -0.62187600
vn 0.47596325 0.87946517 1.3066442e-8
vn 0.47596308 0.62187571 0.62187599
vn 0.47596319 0.0000000e+0 0.87946520
vn 0.47596308 -0.62187571 0.62187599
g cube1_sep14_01 - Default
usemtl 01 - Default
f 1/4/1 8/6/8 7/8/7 6/7/6 5/5/5 4/3/4 3/1/3 2/2/2
f 1/10/1 9/9/9 16/11/16 8/12/8
f 2/10/2 10/9/10 9/11/9 1/12/1
f 3/10/3 11/9/11 10/11/10 2/12/2
f 4/10/4 12/9/12 11/11/11 3/12/3
f 5/11/5 13/12/13 12/10/12 4/9/4
f 6/11/6 14/12/14 13/10/13 5/9/5
f 7/11/7 15/12/15 14/10/14 6/9/6
f 8/11/8 16/12/16 15/10/15 7/9/7
f 10/6/10 11/8/11 12/7/12 13/5/13 14/3/14 15/1/15 16/2/16 9/4/9
o cube1_sep13
#16 vertices, 10 faces
v -1.23047411 2.55694270 1.9609863e-2
v -1.23047411 2.62556171 -0.14605108
v -1.23047411 2.79122257 -0.21467008
v -1.23047411 2.95688343 -0.14605108
v -1.23047411 3.02550244 1.9609863e-2
v -1.23047411 2.95688343 0.18527080
v -1.23047411 2.79122257 0.25388980
v -1.23047411 2.62556171 0.18527080
v -7.5077012e-2 2.55694270 1.9609863e-2
v -7.5077012e-2 2.62556171 -0.14605108
v -7.5077012e-2 2.79122257 -0.21467008
v -7.5077012e-2 2.95688343 -0.14605108
v -7.5077012e-2 3.02550244 1.9609863e-2
v -7.5077012e-2 2.95688343 0.18527080
v -7.5077012e-2 2.79122257 0.25388980
v -7.5077012e-2 2.62556171 0.18527080
vt 1.9476557e-2 0.89953113
vt 2.3652624e-2 0.88944918
vt 2.3652624e-2 0.90961301
vt 3.3734541e-2 0.88212085
vt 3.3734541e-2 0.91378909
vt 4.5664497e-2 0.88760120
vt 4.6045441e-2 0.91184193
vt 5.1144790e-2 0.89953119
vt 0.88615894 0.62905592
vt 0.88615894 0.99219030
vt 0.94251502 0.62905592
vt 0.94251502 0.99219030
vn -0.47596315 -0.87946522 3.4960988e-9
vn -0.47596314 -0.62187586 -0.62187580
vn -0.47596317 5.2842527e-17 -0.87946521
vn -0.47596314 0.62187586 -0.62187580
vn -0.47596315 0.87946522 3.4960988e-9
vn -0.47596314 0.62187586 0.62187580
vn -0.47596317 -2.6421263e-17 0.87946521
vn -0.47596314 -0.62187586 0.62187580
vn 0.47596315 -0.87946522 3.4960988e-9
vn 0.47596314 -0.62187586 -0.62187580
vn 0.47596317 5.2842527e-17 -0.87946521
vn 0.47596314 0.62187586 -0.62187580
vn 0.47596315 0.87946522 3.4960988e-9
vn 0.47596314 0.62187586 0.62187580
vn 0.47596317 -2.6421263e-17 0.87946521
vn 0.47596314 -0.62187586 0.62187580
g cube1_sep13_01 - Default
usemtl 01 - Default
f 17/16/17 24/18/24 23/20/23 22/19/22 21/17/21 20/15/20 19/13/19 18/14/18
f 17/22/17 25/21/25 32/23/32 24/24/24
f 18/22/18 26/21/26 25/23/25 17/24/17
f 19/22/19 27/21/27 26/23/26 18/24/18
f 20/22/20 28/21/28 27/23/27 19/24/19
f 21/23/21 29/24/29 28/22/28 20/21/20
f 22/23/22 30/24/30 29/22/29 21/21/21
f 23/23/23 31/24/31 30/22/30 22/21/22
f 24/23/24 32/24/32 31/22/31 23/21/23
f 26/18/26 27/20/27 28/19/28 29/17/29 30/15/30 31/13/31 32/14/32 25/16/25
o cube1_sep12
#16 vertices, 10 faces
v -0.47305128 2.76287913 0.45455623
v -0.33949199 3.08532000 0.45444366
v -1.7051280e-2 3.21887922 0.45439705
v 0.30538940 3.08532000 0.45444366
v 0.43894872 2.76287913 0.45455623
v 0.30538940 2.44043851 0.45466876
v -1.7051280e-2 2.30687928 0.45471540
v -0.33949199 2.44043851 0.45466876
v -0.47305128 2.76256084 -0.45744371
v -0.33949199 3.08500147 -0.45755628
v -1.7051280e-2 3.21856093 -0.45760289
v 0.30538940 3.08500147 -0.45755628
v 0.43894872 2.76256084 -0.45744371
v 0.30538940 2.44012022 -0.45733118
v -1.7051280e-2 2.30656099 -0.45728457
v -0.33949199 2.44012022 -0.45733118
vt 1.5865738e-2 0.89953113
vt 2.1099390e-2 0.88689595
vt 2.1099390e-2 0.91216624
vt 3.3734541e-2 0.88212085
vt 3.3734541e-2 0.91739988
vt 4.5664497e-2 0.88760120
vt 4.6045441e-2 0.91184193
vt 5.1144790e-2 0.89953119
vt 0.88719201 0.73975831
vt 0.88719201 0.88148785
vt 0.88721490 0.73974961
vt 0.88721490 0.88149661
vt 0.88723773 0.73974085
vt 0.88723773 0.88150537
vt 0.94143623 0.73974085
vt 0.94143623 0.88150537
vt 0.94145912 0.73974961
vt 0.94145912 0.88149661
vt 0.94148195 0.73975831
vt 0.94148195 0.88148785
vn -0.87946524 1.6608169e-4 0.47596309
vn -0.62187591 0.62204186 0.47574602
vn 1.4369579e-8 0.87963133 0.47565610
vn 0.62187590 0.62204188 0.47574601
vn 0.87946523 1.6608170e-4 0.47596310
vn 0.62187575 -0.62170973 0.47618017
vn 1.4369570e-8 -0.87929907 0.47627004
vn -0.62187576 -0.62170972 0.47618018
vn -0.87946522 -1.6618893e-4 -0.47596313
vn -0.62187588 0.62170956 -0.47618023
vn 1.4369578e-8 0.87929900 -0.47627017
vn 0.62187587 0.62170958 -0.47618022
vn 0.87946521 -1.6618893e-4 -0.47596314
vn 0.62187573 -0.62204199 -0.47574609
vn 1.4369570e-8 -0.87963130 -0.47565615
vn -0.62187574 -0.62204197 -0.47574610
g cube1_sep12_01 - Default
usemtl 01 - Default
f 33/25/33 40/26/40 39/28/39 38/30/38 37/32/37 36/31/36 35/29/35 34/27/34
f 33/34/33 41/37/41 48/43/48 40/40/40
f 34/34/34 42/37/42 41/43/41 33/40/33
f 35/41/35 43/42/43 42/36/42 34/35/34
f 36/41/36 44/42/44 43/36/43 35/35/35
f 37/39/37 45/44/45 44/38/44 36/33/36
f 38/39/38 46/44/46 45/38/45 37/33/37
f 39/41/39 47/42/47 46/36/46 38/35/38
f 40/41/40 48/42/48 47/36/47 39/35/39
f 42/31/42 43/29/43 44/27/44 45/25/45 46/26/46 47/28/47 48/30/48 41/32/41
