# Exported from Wings 3D 1.0.1
mtllib frontwheels.mtl
o Box01_sep5
#72 vertices, 62 faces
v 0.50099987 9.9997560e-4 2.92140651
v 0.50099987 0.26220319 2.85141730
v 0.50099987 0.45341724 2.66020346
v 0.50099999 0.52340639 2.39900017
v 0.50100005 0.45341724 2.13779688
v 0.50100011 0.26220322 1.94658279
v 0.50100017 9.9997665e-4 1.87659371
v 0.50100017 -0.26020318 1.94658279
v 0.50100011 -0.45141721 2.13779712
v 0.50100005 -0.52140641 2.39900017
v 0.50099999 -0.45141718 2.66020346
v 0.50099987 -0.26020312 2.85141730
v 0.39455876 9.9995127e-4 3.31088638
v 0.39455876 0.45694315 3.18871689
v 0.39455882 0.79071677 2.85494328
v 0.39455891 0.91288638 2.39900017
v 0.39455903 0.79071683 1.94305682
v 0.39455914 0.45694315 1.60928321
v 0.39455917 9.9995302e-4 1.48711360
v 0.39455917 -0.45494324 1.60928333
v 0.39455914 -0.78871673 1.94305694
v 0.39455903 -0.91088641 2.39900017
v 0.39455891 -0.78871673 2.85494351
v 0.39455882 -0.45494312 3.18871689
v 0.22564667 9.9993788e-4 3.39900017
v 0.22564667 0.50099993 3.26502562
v 0.22564678 0.86702543 2.89900017
v 0.22564694 1.00100005 2.39900017
v 0.22564715 0.86702543 1.89900005
v 0.22564729 0.50099993 1.53297472
v 0.22564742 9.9993986e-4 1.39899993
v 0.22564742 -0.49900004 1.53297472
v 0.22564729 -0.86502540 1.89900005
v 0.22564715 -0.99900001 2.39900017
v 0.22564694 -0.86502534 2.89900017
v 0.22564678 -0.49899992 3.26502562
v -0.22364721 9.9992915e-4 3.39900017
v -0.22364721 0.50099993 3.26502538
v -0.22364710 0.86702543 2.89900017
v -0.22364697 1.00100005 2.39899993
v -0.22364676 0.86702543 1.89900005
v -0.22364663 0.50099993 1.53297460
v -0.22364646 9.9993113e-4 1.39899993
v -0.22364646 -0.49900001 1.53297460
v -0.22364663 -0.86502540 1.89900005
v -0.22364676 -0.99900001 2.39900017
v -0.22364697 -0.86502534 2.89900017
v -0.22364710 -0.49899992 3.26502562
v -0.39255920 9.9992729e-4 3.31088638
v -0.39255920 0.45694312 3.18871689
v -0.39255917 0.79071677 2.85494328
v -0.39255908 0.91288632 2.39899993
v -0.39255896 0.79071677 1.94305682
v -0.39255887 0.45694312 1.60928321
v -0.39255884 9.9992915e-4 1.48711348
v -0.39255884 -0.45494327 1.60928321
v -0.39255887 -0.78871685 1.94305682
v -0.39255896 -0.91088641 2.39900017
v -0.39255908 -0.78871679 2.85494328
v -0.39255917 -0.45494315 3.18871689
v -0.49900019 9.9995278e-4 2.92140651
v -0.49900019 0.26220316 2.85141730
v -0.49900007 0.45341721 2.66020322
v -0.49900001 0.52340639 2.39900017
v -0.49899998 0.45341718 2.13779688
v -0.49899989 0.26220319 1.94658267
v -0.49899986 9.9995371e-4 1.87659359
v -0.49899986 -0.26020321 1.94658279
v -0.49899989 -0.45141727 2.13779688
v -0.49899998 -0.52140641 2.39900017
v -0.49900001 -0.45141718 2.66020346
v -0.49900007 -0.26020318 2.85141730
vt 1.6408958e-2 8.7565452e-2
vt 1.6441885e-2 0.21951754
vt 0.12746218 0.21953255
vt 0.12757769 8.7279752e-2
vt 0.16840501 0.19992185
vt 0.16862711 0.10590795
vt 0.41070837 0.85375828
vt 0.42961222 0.78320789
vt 0.42961222 0.92430836
vt 0.47097433 0.85375828
vt 0.48125851 0.73156154
vt 0.48125851 0.97595483
vt 0.48180416 0.81334102
vt 0.48180416 0.89417529
vt 0.51139158 0.78375345
vt 0.51139158 0.92376286
vt 0.55180877 0.71265763
vt 0.55180877 0.77292383
vt 0.55180877 0.93459255
vt 0.55180877 0.99485862
vt 0.59222603 0.78375345
vt 0.59222603 0.92376286
vt 0.62181360 0.81334102
vt 0.62181360 0.89417529
vt 0.62235910 0.73156154
vt 0.62235910 0.97595465
vt 0.63264322 0.85375828
vt 0.67400545 0.78320789
vt 0.67400545 0.92430836
vt 0.69290936 0.85375828
vn 0.98421069 5.0557908e-8 0.17700091
vn 0.98421069 8.8500386e-2 0.15328734
vn 0.98421070 0.15328714 8.8500606e-2
vn 0.98421071 0.17700076 2.8187997e-7
vn 0.98421074 0.15328718 -8.8500075e-2
vn 0.98421076 8.8500410e-2 -0.15328685
vn 0.98421076 4.2241292e-8 -0.17700049
vn 0.98421076 -8.8500329e-2 -0.15328687
vn 0.98421075 -0.15328707 -8.8500085e-2
vn 0.98421074 -0.17700064 2.5330438e-7
vn 0.98421072 -0.15328698 8.8500633e-2
vn 0.98421070 -8.8500223e-2 0.15328735
vn 0.78200035 2.6563087e-8 0.62327799
vn 0.78200031 0.31163892 0.53977467
vn 0.78200031 0.53977453 0.31163918
vn 0.78200034 0.62327800 2.5782839e-7
vn 0.78200034 0.53977468 -0.31163883
vn 0.78200036 0.31163912 -0.53977449
vn 0.78200049 1.8332568e-8 -0.62327781
vn 0.78200053 -0.31163903 -0.53977429
vn 0.78200049 -0.53977451 -0.31163875
vn 0.78200038 -0.62327795 2.2550759e-7
vn 0.78200026 -0.53977451 0.31163931
vn 0.78200030 -0.31163884 0.53977474
vn 0.23896020 4.5758647e-8 0.97102936
vn 0.23896007 0.48551462 0.84093616
vn 0.23896010 0.84093605 0.48551480
vn 0.23896018 0.97102937 8.6802731e-8
vn 0.23896014 0.84093611 -0.48551469
vn 0.23896014 0.48551476 -0.84093607
vn 0.23896035 1.2587533e-9 -0.97102932
vn 0.23896042 -0.48551481 -0.84093596
vn 0.23896034 -0.84093610 -0.48551460
vn 0.23896017 -0.97102937 1.3745197e-7
vn 0.23896002 -0.84093606 0.48551484
vn 0.23896014 -0.48551462 0.84093615
vn -0.23896027 7.4678545e-8 0.97102935
vn -0.23896015 0.48551465 0.84093613
vn -0.23896015 0.84093609 0.48551473
vn -0.23896008 0.97102939 -1.2246963e-7
vn -0.23895986 0.84093609 -0.48551485
vn -0.23895961 0.48551475 -0.84093623
vn -0.23895948 -3.5354098e-8 -0.97102954
vn -0.23895944 -0.48551487 -0.84093620
vn -0.23895958 -0.84093623 -0.48551476
vn -0.23895973 -0.97102948 2.0403668e-8
vn -0.23895989 -0.84093618 0.48551469
vn -0.23896016 -0.48551473 0.84093608
vn -0.78200043 -1.1823886e-8 0.62327789
vn -0.78200033 0.31163902 0.53977459
vn -0.78200039 0.53977459 0.31163887
vn -0.78200037 0.62327797 -2.2434450e-7
vn -0.78200022 0.53977461 -0.31163926
vn -0.78200005 0.31163910 -0.53977495
vn -0.78199999 -6.2774613e-8 -0.62327844
vn -0.78199996 -0.31163927 -0.53977498
vn -0.78200002 -0.53977489 -0.31163927
vn -0.78200012 -0.62327828 -1.2466560e-7
vn -0.78200025 -0.53977475 0.31163892
vn -0.78200042 -0.31163906 0.53977443
vn -0.98421076 -8.4040339e-8 0.17700051
vn -0.98421076 8.8500298e-2 0.15328689
vn -0.98421077 0.15328700 8.8500062e-2
vn -0.98421075 0.17700054 -2.3035304e-7
vn -0.98421073 0.15328696 -8.8500524e-2
vn -0.98421072 8.8500246e-2 -0.15328722
vn -0.98421072 -6.1222708e-8 -0.17700075
vn -0.98421072 -8.8500347e-2 -0.15328715
vn -0.98421072 -0.15328706 -8.8500489e-2
vn -0.98421073 -0.17700066 -2.1537184e-7
vn -0.98421075 -0.15328707 8.8500089e-2
vn -0.98421076 -8.8500389e-2 0.15328684
g Box01_sep5_01 - Default
usemtl 01 - Default
f 1/18/1 12/21/12 11/23/11 10/27/10 9/24/9 8/22/8 7/19/7 6/16/6 5/14/5 4/10/4 3/13/3 2/15/2
f 1/18/1 13/17/13 24/25/24 12/21/12
f 2/15/2 14/11/14 13/17/13 1/18/1
f 3/13/3 15/8/15 14/11/14 2/15/2
f 4/10/4 16/7/16 15/8/15 3/13/3
f 5/14/5 17/9/17 16/7/16 4/10/4
f 6/16/6 18/12/18 17/9/17 5/14/5
f 7/19/7 19/20/19 18/12/18 6/16/6
f 8/22/8 20/26/20 19/20/19 7/19/7
f 9/24/9 21/29/21 20/26/20 8/22/8
f 10/27/10 22/30/22 21/29/21 9/24/9
f 11/23/11 23/28/23 22/30/22 10/27/10
f 12/21/12 24/25/24 23/28/23 11/23/11
f 13/6/13 25/4/25 36/3/36 24/5/24
f 14/5/14 26/3/26 25/4/25 13/6/13
f 15/6/15 27/4/27 26/3/26 14/5/14
f 16/6/16 28/4/28 27/3/27 15/5/15
f 17/5/17 29/3/29 28/4/28 16/6/16
f 18/5/18 30/3/30 29/4/29 17/6/17
f 19/6/19 31/4/31 30/3/30 18/5/18
f 20/5/20 32/3/32 31/4/31 19/6/19
f 21/6/21 33/4/33 32/3/32 20/5/20
f 22/6/22 34/4/34 33/3/33 21/5/21
f 23/5/23 35/3/35 34/4/34 22/6/22
f 24/5/24 36/3/36 35/4/35 23/6/23
f 25/1/25 37/4/37 48/3/48 36/2/36
f 26/2/26 38/3/38 37/4/37 25/1/25
f 27/4/27 39/1/39 38/2/38 26/3/26
f 28/4/28 40/1/40 39/2/39 27/3/27
f 29/3/29 41/2/41 40/1/40 28/4/28
f 30/3/30 42/2/42 41/1/41 29/4/29
f 31/1/31 43/4/43 42/3/42 30/2/30
f 32/2/32 44/3/44 43/4/43 31/1/31
f 33/1/33 45/4/45 44/3/44 32/2/32
f 34/1/34 46/4/46 45/3/45 33/2/33
f 35/2/35 47/3/47 46/4/46 34/1/34
f 36/2/36 48/3/48 47/4/47 35/1/35
f 37/4/37 49/6/49 60/5/60 48/3/48
f 38/3/38 50/5/50 49/6/49 37/4/37
f 39/4/39 51/6/51 50/5/50 38/3/38
f 40/4/40 52/6/52 51/5/51 39/3/39
f 41/3/41 53/5/53 52/6/52 40/4/40
f 42/3/42 54/5/54 53/6/53 41/4/41
f 43/4/43 55/6/55 54/5/54 42/3/42
f 44/3/44 56/5/56 55/6/55 43/4/43
f 45/4/45 57/6/57 56/5/56 44/3/44
f 46/4/46 58/6/58 57/5/57 45/3/45
f 47/3/47 59/5/59 58/6/58 46/4/46
f 48/3/48 60/5/60 59/6/59 47/4/47
f 49/30/49 61/27/61 72/23/72 60/28/60
f 50/29/50 62/24/62 61/27/61 49/30/49
f 51/26/51 63/22/63 62/24/62 50/29/50
f 52/20/52 64/19/64 63/22/63 51/26/51
f 53/12/53 65/16/65 64/19/64 52/20/52
f 54/9/54 66/14/66 65/16/65 53/12/53
f 55/7/55 67/10/67 66/14/66 54/9/54
f 56/8/56 68/13/68 67/10/67 55/7/55
f 57/11/57 69/15/69 68/13/68 56/8/56
f 58/17/58 70/18/70 69/15/69 57/11/57
f 59/25/59 71/21/71 70/18/70 58/17/58
f 60/28/60 72/23/72 71/21/71 59/25/59
f 62/24/62 63/22/63 64/19/64 65/16/65 66/14/66 67/10/67 68/13/68 69/15/69 70/18/70 71/21/71 72/23/72 61/27/61
