# Exported from Wings 3D 1.0.1
mtllib rearwheels.mtl
o Box01_sep4
#72 vertices, 62 faces
v 3.40251231 0.80100006 -2.35908794
v 3.40251231 1.27195597 -2.48528004
v 3.40251231 1.61671972 -2.83004379
v 3.40251255 1.74291193 -3.30099964
v 3.40251255 1.61671972 -3.77195549
v 3.40251279 1.27195597 -4.11671925
v 3.40251279 0.80100006 -4.24291134
v 3.40251279 0.33004415 -4.11671925
v 3.40251279 -1.4719452e-2 -3.77195549
v 3.40251255 -0.14091170 -3.30099940
v 3.40251255 -1.4719441e-2 -2.83004355
v 3.40251231 0.33004433 -2.48528004
v 3.21059632 0.80100000 -1.65684581
v 3.21059632 1.62307692 -1.87712073
v 3.21059656 2.22487926 -2.47892284
v 3.21059656 2.44515419 -3.30099988
v 3.21059680 2.22487926 -4.12307692
v 3.21059704 1.62307703 -4.72487879
v 3.21059704 0.80100000 -4.94515371
v 3.21059704 -2.1076942e-2 -4.72487879
v 3.21059704 -0.62287897 -4.12307644
v 3.21059680 -0.84315383 -3.30099940
v 3.21059656 -0.62287897 -2.47892261
v 3.21059656 -2.1076746e-2 -1.87712061
v 2.90604353 0.80099994 -1.49797475
v 2.90604353 1.70251238 -1.73953426
v 2.90604377 2.36246562 -2.39948726
v 2.90604401 2.60402513 -3.30099988
v 2.90604448 2.36246562 -4.20251226
v 2.90604472 1.70251238 -4.86246538
v 2.90604496 0.80100000 -5.10402489
v 2.90604496 -0.10051247 -4.86246490
v 2.90604472 -0.76046544 -4.20251226
v 2.90604448 -1.00202489 -3.30099964
v 2.90604401 -0.76046526 -2.39948702
v 2.90604377 -0.10051228 -1.73953414
v 2.09595561 0.80099994 -1.49797487
v 2.09595561 1.70251250 -1.73953438
v 2.09595561 2.36246562 -2.39948726
v 2.09595585 2.60402513 -3.30099988
v 2.09595633 2.36246562 -4.20251226
v 2.09595656 1.70251250 -4.86246538
v 2.09595680 0.80100000 -5.10402489
v 2.09595680 -0.10051239 -4.86246538
v 2.09595656 -0.76046538 -4.20251226
v 2.09595633 -1.00202489 -3.30099964
v 2.09595585 -0.76046520 -2.39948702
v 2.09595561 -0.10051227 -1.73953438
v 1.79140306 0.80099994 -1.65684593
v 1.79140306 1.62307692 -1.87712085
v 1.79140317 2.22487926 -2.47892284
v 1.79140329 2.44515395 -3.30099988
v 1.79140353 2.22487926 -4.12307692
v 1.79140365 1.62307692 -4.72487926
v 1.79140377 0.80100000 -4.94515371
v 1.79140377 -2.1077003e-2 -4.72487879
v 1.79140365 -0.62287915 -4.12307692
v 1.79140353 -0.84315383 -3.30099964
v 1.79140329 -0.62287903 -2.47892261
v 1.79140317 -2.1076808e-2 -1.87712073
v 1.59948730 0.80100000 -2.35908794
v 1.59948730 1.27195597 -2.48528028
v 1.59948754 1.61671960 -2.83004403
v 1.59948766 1.74291193 -3.30099988
v 1.59948766 1.61671960 -3.77195573
v 1.59948790 1.27195597 -4.11671925
v 1.59948790 0.80100000 -4.24291134
v 1.59948790 0.33004415 -4.11671925
v 1.59948790 -1.4719530e-2 -3.77195573
v 1.59948766 -0.14091167 -3.30099964
v 1.59948766 -1.4719411e-2 -2.83004379
v 1.59948754 0.33004424 -2.48528004
vt 9.5264623e-3 0.78575373
vt 1.7471891e-2 0.48648444
vt 1.7473184e-2 0.31328586
vt 3.6995396e-2 0.68323833
vt 3.6995396e-2 0.88826919
vt 4.3655347e-2 0.24765876
vt 9.7098164e-2 0.78575373
vt 0.11204191 0.60819203
vt 0.11204191 0.96331561
vt 0.11283466 0.72702414
vt 0.11283466 0.84448332
vt 0.15582772 0.68403113
vt 0.15582772 0.88747638
vt 0.17728300 0.24765968
vt 0.21312106 0.48648578
vt 0.21312231 0.31328723
vt 0.21455728 0.58072299
vt 0.21455728 0.66829455
vt 0.21455728 0.90321290
vt 0.21469858 0.99084032
vt 0.27328685 0.68403113
vt 0.27328685 0.88747638
vt 0.31627995 0.72702414
vt 0.31627995 0.84448332
vt 0.31707263 0.60819203
vt 0.31707269 0.96331561
vt 0.33201638 0.78575373
vt 0.39211911 0.68323833
vt 0.39211911 0.88826919
vt 0.41958797 0.78575373
vn 0.98421069 9.8454385e-8 0.17700090
vn 0.98421069 8.8500361e-2 0.15328734
vn 0.98421071 0.15328709 8.8500570e-2
vn 0.98421072 0.17700072 2.0719239e-7
vn 0.98421074 0.15328716 -8.8500089e-2
vn 0.98421076 8.8500379e-2 -0.15328685
vn 0.98421076 2.3566662e-8 -0.17700050
vn 0.98421076 -8.8500293e-2 -0.15328691
vn 0.98421076 -0.15328706 -8.8500089e-2
vn 0.98421073 -0.17700066 2.8124461e-7
vn 0.98421072 -0.15328703 8.8500576e-2
vn 0.98421071 -8.8500222e-2 0.15328729
vn 0.78200017 1.1210450e-7 0.62327821
vn 0.78200015 0.31163900 0.53977486
vn 0.78200020 0.53977464 0.31163926
vn 0.78200023 0.62327814 1.5854821e-7
vn 0.78200034 0.53977467 -0.31163885
vn 0.78200051 0.31163898 -0.53977435
vn 0.78200056 -5.9303054e-8 -0.62327773
vn 0.78200050 -0.31163898 -0.53977436
vn 0.78200053 -0.53977446 -0.31163872
vn 0.78200040 -0.62327793 2.8782673e-7
vn 0.78200027 -0.53977455 0.31163924
vn 0.78200024 -0.31163889 0.53977480
vn 0.23895988 4.4388619e-8 0.97102944
vn 0.23895991 0.48551461 0.84093622
vn 0.23895994 0.84093610 0.48551481
vn 0.23895996 0.97102942 4.4032719e-8
vn 0.23896011 0.84093613 -0.48551467
vn 0.23896033 0.48551467 -0.84093606
vn 0.23896047 -1.2040824e-7 -0.97102930
vn 0.23896043 -0.48551475 -0.84093599
vn 0.23896041 -0.84093609 -0.48551460
vn 0.23896020 -0.97102936 1.7400806e-7
vn 0.23896000 -0.84093606 0.48551485
vn 0.23895991 -0.48551460 0.84093622
vn -0.23896019 -2.0844426e-8 0.97102936
vn -0.23896019 0.48551459 0.84093615
vn -0.23896020 0.84093609 0.48551470
vn -0.23896009 0.97102939 -1.0406314e-7
vn -0.23895984 0.84093614 -0.48551479
vn -0.23895968 0.48551464 -0.84093626
vn -0.23895975 -1.3331371e-7 -0.97102947
vn -0.23895970 -0.48551476 -0.84093619
vn -0.23895969 -0.84093620 -0.48551476
vn -0.23895982 -0.97102946 1.5480137e-8
vn -0.23895998 -0.84093612 0.48551475
vn -0.23896012 -0.48551464 0.84093614
vn -0.78200037 -6.7977450e-8 0.62327797
vn -0.78200040 0.31163897 0.53977451
vn -0.78200046 0.53977451 0.31163882
vn -0.78200038 0.62327796 -1.9371420e-7
vn -0.78200021 0.53977464 -0.31163924
vn -0.78200012 0.31163894 -0.53977494
vn -0.78200016 -1.3139295e-7 -0.62327823
vn -0.78200014 -0.31163907 -0.53977483
vn -0.78200011 -0.53977478 -0.31163924
vn -0.78200016 -0.62327822 -1.3430371e-7
vn -0.78200029 -0.53977469 0.31163894
vn -0.78200034 -0.31163907 0.53977455
vn -0.98421076 -8.7892330e-8 0.17700051
vn -0.98421076 8.8500329e-2 0.15328688
vn -0.98421077 0.15328700 8.8500063e-2
vn -0.98421076 0.17700054 -2.2038518e-7
vn -0.98421074 0.15328692 -8.8500515e-2
vn -0.98421073 8.8500146e-2 -0.15328719
vn -0.98421072 -9.7836970e-8 -0.17700075
vn -0.98421071 -8.8500309e-2 -0.15328720
vn -0.98421072 -0.15328703 -8.8500507e-2
vn -0.98421073 -0.17700065 -2.1803715e-7
vn -0.98421076 -0.15328706 8.8500082e-2
vn -0.98421076 -8.8500404e-2 0.15328684
g Box01_sep4_01 - Default
usemtl 01 - Default
f 1/18/1 12/21/12 11/23/11 10/27/10 9/24/9 8/22/8 7/19/7 6/13/6 5/11/5 4/7/4 3/10/3 2/12/2
f 1/18/1 13/17/13 24/25/24 12/21/12
f 2/12/2 14/8/14 13/17/13 1/18/1
f 3/10/3 15/4/15 14/8/14 2/12/2
f 4/7/4 16/1/16 15/4/15 3/10/3
f 5/11/5 17/5/17 16/1/16 4/7/4
f 6/13/6 18/9/18 17/5/17 5/11/5
f 7/19/7 19/20/19 18/9/18 6/13/6
f 8/22/8 20/26/20 19/20/19 7/19/7
f 9/24/9 21/29/21 20/26/20 8/22/8
f 10/27/10 22/30/22 21/29/21 9/24/9
f 11/23/11 23/28/23 22/30/22 10/27/10
f 12/21/12 24/25/24 23/28/23 11/23/11
f 13/14/13 25/16/25 36/3/36 24/6/24
f 14/6/14 26/3/26 25/16/25 13/14/13
f 15/14/15 27/16/27 26/3/26 14/6/14
f 16/14/16 28/16/28 27/3/27 15/6/15
f 17/6/17 29/3/29 28/16/28 16/14/16
f 18/6/18 30/3/30 29/16/29 17/14/17
f 19/14/19 31/16/31 30/3/30 18/6/18
f 20/6/20 32/3/32 31/16/31 19/14/19
f 21/14/21 33/16/33 32/3/32 20/6/20
f 22/14/22 34/16/34 33/3/33 21/6/21
f 23/6/23 35/3/35 34/16/34 22/14/22
f 24/6/24 36/3/36 35/16/35 23/14/23
f 25/15/25 37/16/37 48/3/48 36/2/36
f 26/2/26 38/3/38 37/16/37 25/15/25
f 27/16/27 39/15/39 38/2/38 26/3/26
f 28/16/28 40/15/40 39/2/39 27/3/27
f 29/3/29 41/2/41 40/15/40 28/16/28
f 30/3/30 42/2/42 41/15/41 29/16/29
f 31/15/31 43/16/43 42/3/42 30/2/30
f 32/2/32 44/3/44 43/16/43 31/15/31
f 33/15/33 45/16/45 44/3/44 32/2/32
f 34/15/34 46/16/46 45/3/45 33/2/33
f 35/2/35 47/3/47 46/16/46 34/15/34
f 36/2/36 48/3/48 47/16/47 35/15/35
f 37/16/37 49/14/49 60/6/60 48/3/48
f 38/3/38 50/6/50 49/14/49 37/16/37
f 39/16/39 51/14/51 50/6/50 38/3/38
f 40/16/40 52/14/52 51/6/51 39/3/39
f 41/3/41 53/6/53 52/14/52 40/16/40
f 42/3/42 54/6/54 53/14/53 41/16/41
f 43/16/43 55/14/55 54/6/54 42/3/42
f 44/3/44 56/6/56 55/14/55 43/16/43
f 45/16/45 57/14/57 56/6/56 44/3/44
f 46/16/46 58/14/58 57/6/57 45/3/45
f 47/3/47 59/6/59 58/14/58 46/16/46
f 48/3/48 60/6/60 59/14/59 47/16/47
f 49/20/49 61/19/61 72/22/72 60/26/60
f 50/9/50 62/13/62 61/19/61 49/20/49
f 51/5/51 63/11/63 62/13/62 50/9/50
f 52/1/52 64/7/64 63/11/63 51/5/51
f 53/4/53 65/10/65 64/7/64 52/1/52
f 54/8/54 66/12/66 65/10/65 53/4/53
f 55/17/55 67/18/67 66/12/66 54/8/54
f 56/25/56 68/21/68 67/18/67 55/17/55
f 57/28/57 69/23/69 68/21/68 56/25/56
f 58/30/58 70/27/70 69/23/69 57/28/57
f 59/29/59 71/24/71 70/27/70 58/30/58
f 60/26/60 72/22/72 71/24/71 59/29/59
f 62/13/62 63/11/63 64/7/64 65/10/65 66/12/66 67/18/67 68/21/68 69/23/69 70/27/70 71/24/71 72/22/72 61/19/61
o Box01_sep3
#72 vertices, 62 faces
v -3.40051246 0.80100006 -2.35908794
v -3.40051246 1.27195597 -2.48528004
v -3.40051246 1.61671972 -2.83004379
v -3.40051270 1.74291193 -3.30099964
v -3.40051270 1.61671972 -3.77195549
v -3.40051293 1.27195597 -4.11671925
v -3.40051293 0.80100006 -4.24291134
v -3.40051293 0.33004415 -4.11671925
v -3.40051293 -1.4719452e-2 -3.77195549
v -3.40051270 -0.14091170 -3.30099940
v -3.40051270 -1.4719441e-2 -2.83004355
v -3.40051246 0.33004433 -2.48528004
v -3.20859647 0.80100000 -1.65684581
v -3.20859647 1.62307692 -1.87712073
v -3.20859671 2.22487926 -2.47892284
v -3.20859671 2.44515419 -3.30099988
v -3.20859694 2.22487926 -4.12307692
v -3.20859718 1.62307703 -4.72487879
v -3.20859718 0.80100000 -4.94515371
v -3.20859718 -2.1076942e-2 -4.72487879
v -3.20859718 -0.62287897 -4.12307644
v -3.20859694 -0.84315383 -3.30099940
v -3.20859671 -0.62287897 -2.47892261
v -3.20859671 -2.1076746e-2 -1.87712061
v -2.90404367 0.80099994 -1.49797475
v -2.90404367 1.70251238 -1.73953426
v -2.90404391 2.36246562 -2.39948726
v -2.90404415 2.60402513 -3.30099988
v -2.90404463 2.36246562 -4.20251226
v -2.90404487 1.70251238 -4.86246538
v -2.90404510 0.80100000 -5.10402489
v -2.90404510 -0.10051247 -4.86246490
v -2.90404487 -0.76046544 -4.20251226
v -2.90404463 -1.00202489 -3.30099964
v -2.90404415 -0.76046526 -2.39948702
v -2.90404391 -0.10051228 -1.73953414
v -2.09395576 0.80099994 -1.49797487
v -2.09395576 1.70251250 -1.73953438
v -2.09395576 2.36246562 -2.39948726
v -2.09395599 2.60402513 -3.30099988
v -2.09395647 2.36246562 -4.20251226
v -2.09395671 1.70251250 -4.86246538
v -2.09395695 0.80100000 -5.10402489
v -2.09395695 -0.10051239 -4.86246538
v -2.09395671 -0.76046538 -4.20251226
v -2.09395647 -1.00202489 -3.30099964
v -2.09395599 -0.76046520 -2.39948702
v -2.09395576 -0.10051227 -1.73953438
v -1.78940296 0.80099994 -1.65684593
v -1.78940296 1.62307692 -1.87712085
v -1.78940308 2.22487926 -2.47892284
v -1.78940320 2.44515395 -3.30099988
v -1.78940344 2.22487926 -4.12307692
v -1.78940356 1.62307692 -4.72487926
v -1.78940368 0.80100000 -4.94515371
v -1.78940368 -2.1077003e-2 -4.72487879
v -1.78940356 -0.62287915 -4.12307692
v -1.78940344 -0.84315383 -3.30099964
v -1.78940320 -0.62287903 -2.47892261
v -1.78940308 -2.1076808e-2 -1.87712073
v -1.59748721 0.80100000 -2.35908794
v -1.59748721 1.27195597 -2.48528028
v -1.59748745 1.61671960 -2.83004403
v -1.59748757 1.74291193 -3.30099988
v -1.59748757 1.61671960 -3.77195573
v -1.59748781 1.27195597 -4.11671925
v -1.59748781 0.80100000 -4.24291134
v -1.59748781 0.33004415 -4.11671925
v -1.59748781 -1.4719530e-2 -3.77195573
v -1.59748757 -0.14091167 -3.30099964
v -1.59748757 -1.4719411e-2 -2.83004379
v -1.59748745 0.33004424 -2.48528004
vt 9.5264623e-3 0.78575373
vt 1.7471891e-2 0.48648444
vt 1.7473184e-2 0.31328586
vt 3.6995396e-2 0.68323833
vt 3.6995396e-2 0.88826919
vt 4.3655347e-2 0.24765876
vt 9.7098164e-2 0.78575373
vt 0.11204191 0.60819203
vt 0.11204191 0.96331561
vt 0.11283466 0.72702414
vt 0.11283466 0.84448332
vt 0.15582772 0.68403113
vt 0.15582772 0.88747638
vt 0.17728300 0.24765968
vt 0.21312106 0.48648578
vt 0.21312231 0.31328723
vt 0.21455728 0.58072299
vt 0.21455728 0.66829455
vt 0.21455728 0.90321290
vt 0.21469858 0.99084032
vt 0.27328685 0.68403113
vt 0.27328685 0.88747638
vt 0.31627995 0.72702414
vt 0.31627995 0.84448332
vt 0.31707263 0.60819203
vt 0.31707269 0.96331561
vt 0.33201638 0.78575373
vt 0.39211911 0.68323833
vt 0.39211911 0.88826919
vt 0.41958797 0.78575373
vn -0.98421069 9.8454385e-8 0.17700090
vn -0.98421069 8.8500361e-2 0.15328734
vn -0.98421071 0.15328709 8.8500570e-2
vn -0.98421072 0.17700072 2.0719239e-7
vn -0.98421074 0.15328716 -8.8500089e-2
vn -0.98421076 8.8500379e-2 -0.15328685
vn -0.98421076 2.3566662e-8 -0.17700050
vn -0.98421076 -8.8500293e-2 -0.15328691
vn -0.98421076 -0.15328706 -8.8500089e-2
vn -0.98421073 -0.17700066 2.8124461e-7
vn -0.98421072 -0.15328703 8.8500576e-2
vn -0.98421071 -8.8500222e-2 0.15328729
vn -0.78200017 1.1210450e-7 0.62327821
vn -0.78200015 0.31163900 0.53977486
vn -0.78200020 0.53977464 0.31163926
vn -0.78200023 0.62327814 1.5854821e-7
vn -0.78200034 0.53977467 -0.31163885
vn -0.78200051 0.31163898 -0.53977435
vn -0.78200056 -5.9303054e-8 -0.62327773
vn -0.78200050 -0.31163898 -0.53977436
vn -0.78200053 -0.53977446 -0.31163872
vn -0.78200040 -0.62327793 2.8782673e-7
vn -0.78200027 -0.53977455 0.31163924
vn -0.78200024 -0.31163889 0.53977480
vn -0.23895988 4.4388619e-8 0.97102944
vn -0.23895991 0.48551461 0.84093622
vn -0.23895994 0.84093610 0.48551481
vn -0.23895996 0.97102942 4.4032719e-8
vn -0.23896011 0.84093613 -0.48551467
vn -0.23896033 0.48551467 -0.84093606
vn -0.23896047 -1.2040824e-7 -0.97102930
vn -0.23896043 -0.48551475 -0.84093599
vn -0.23896041 -0.84093609 -0.48551460
vn -0.23896020 -0.97102936 1.7400806e-7
vn -0.23896000 -0.84093606 0.48551485
vn -0.23895991 -0.48551460 0.84093622
vn 0.23896004 -2.0844419e-8 0.97102940
vn 0.23896004 0.48551461 0.84093618
vn 0.23896004 0.84093612 0.48551471
vn 0.23895994 0.97102943 -1.0406308e-7
vn 0.23895968 0.84093617 -0.48551481
vn 0.23895953 0.48551466 -0.84093630
vn 0.23895959 -1.3331371e-7 -0.97102951
vn 0.23895954 -0.48551478 -0.84093623
vn 0.23895954 -0.84093623 -0.48551478
vn 0.23895967 -0.97102949 1.5480201e-8
vn 0.23895983 -0.84093615 0.48551477
vn 0.23895997 -0.48551466 0.84093618
vn 0.78200027 -6.7977449e-8 0.62327809
vn 0.78200031 0.31163903 0.53977462
vn 0.78200036 0.53977462 0.31163889
vn 0.78200028 0.62327808 -1.9371415e-7
vn 0.78200011 0.53977474 -0.31163930
vn 0.78200002 0.31163900 -0.53977504
vn 0.78200006 -1.3139297e-7 -0.62327835
vn 0.78200005 -0.31163913 -0.53977494
vn 0.78200001 -0.53977489 -0.31163930
vn 0.78200007 -0.62327835 -1.3430365e-7
vn 0.78200020 -0.53977479 0.31163900
vn 0.78200024 -0.31163913 0.53977466
vn 0.98421076 -8.7892330e-8 0.17700051
vn 0.98421076 8.8500329e-2 0.15328688
vn 0.98421077 0.15328700 8.8500063e-2
vn 0.98421076 0.17700054 -2.2038518e-7
vn 0.98421074 0.15328692 -8.8500515e-2
vn 0.98421073 8.8500146e-2 -0.15328719
vn 0.98421072 -9.7836970e-8 -0.17700075
vn 0.98421071 -8.8500309e-2 -0.15328720
vn 0.98421072 -0.15328703 -8.8500507e-2
vn 0.98421073 -0.17700065 -2.1803715e-7
vn 0.98421076 -0.15328706 8.8500082e-2
vn 0.98421076 -8.8500404e-2 0.15328684
g Box01_sep3_01 - Default
usemtl 01 - Default
f 73/48/73 85/47/85 86/55/86 74/51/74
f 74/51/74 75/53/75 76/57/76 77/54/77 78/52/78 79/49/79 80/43/80 81/41/81 82/37/82 83/40/83 84/42/84 73/48/73
f 74/51/74 86/55/86 87/58/87 75/53/75
f 75/53/75 87/58/87 88/60/88 76/57/76
f 76/57/76 88/60/88 89/59/89 77/54/77
f 77/54/77 89/59/89 90/56/90 78/52/78
f 78/52/78 90/56/90 91/50/91 79/49/79
f 79/49/79 91/50/91 92/39/92 80/43/80
f 80/43/80 92/39/92 93/35/93 81/41/81
f 81/41/81 93/35/93 94/31/94 82/37/82
f 82/37/82 94/31/94 95/34/95 83/40/83
f 83/40/83 95/34/95 96/38/96 84/42/84
f 84/42/84 96/38/96 85/47/85 73/48/73
f 85/44/85 97/46/97 98/33/98 86/36/86
f 86/36/86 98/33/98 99/46/99 87/44/87
f 87/36/87 99/33/99 100/46/100 88/44/88
f 88/44/88 100/46/100 101/33/101 89/36/89
f 89/44/89 101/46/101 102/33/102 90/36/90
f 90/36/90 102/33/102 103/46/103 91/44/91
f 91/44/91 103/46/103 104/33/104 92/36/92
f 92/36/92 104/33/104 105/46/105 93/44/93
f 93/36/93 105/33/105 106/46/106 94/44/94
f 94/44/94 106/46/106 107/33/107 95/36/95
f 95/44/95 107/46/107 108/33/108 96/36/96
f 96/36/96 108/33/108 97/46/97 85/44/85
f 97/46/97 109/45/109 110/32/110 98/33/98
f 98/32/98 110/33/110 111/46/111 99/45/99
f 99/32/99 111/33/111 112/46/112 100/45/100
f 100/45/100 112/46/112 113/33/113 101/32/101
f 101/45/101 113/46/113 114/33/114 102/32/102
f 102/33/102 114/32/114 115/45/115 103/46/103
f 103/46/103 115/45/115 116/32/116 104/33/104
f 104/33/104 116/32/116 117/45/117 105/46/105
f 105/33/105 117/32/117 118/45/118 106/46/106
f 106/46/106 118/45/118 119/32/119 107/33/107
f 107/46/107 119/45/119 120/32/120 108/33/108
f 108/33/108 120/32/120 109/45/109 97/46/97
f 109/46/109 121/44/121 122/36/122 110/33/110
f 110/33/110 122/36/122 123/44/123 111/46/111
f 111/33/111 123/36/123 124/44/124 112/46/112
f 112/46/112 124/44/124 125/36/125 113/33/113
f 113/46/113 125/44/125 126/36/126 114/33/114
f 114/33/114 126/36/126 127/44/127 115/46/115
f 115/46/115 127/44/127 128/36/128 116/33/116
f 116/33/116 128/36/128 129/44/129 117/46/117
f 117/33/117 129/36/129 130/44/130 118/46/118
f 118/46/118 130/44/130 131/36/131 119/33/119
f 119/46/119 131/44/131 132/36/132 120/33/120
f 120/33/120 132/36/132 121/44/121 109/46/109
f 121/50/121 133/49/133 134/52/134 122/56/122
f 122/56/122 134/52/134 135/54/135 123/59/123
f 123/59/123 135/54/135 136/57/136 124/60/124
f 124/60/124 136/57/136 137/53/137 125/58/125
f 125/58/125 137/53/137 138/51/138 126/55/126
f 126/55/126 138/51/138 139/48/139 127/47/127
f 127/47/127 139/48/139 140/42/140 128/38/128
f 128/38/128 140/42/140 141/40/141 129/34/129
f 129/34/129 141/40/141 142/37/142 130/31/130
f 130/31/130 142/37/142 143/41/143 131/35/131
f 131/35/131 143/41/143 144/43/144 132/39/132
f 132/39/132 144/43/144 133/49/133 121/50/121
f 133/49/133 144/43/144 143/41/143 142/37/142 141/40/141 140/42/140 139/48/139 138/51/138 137/53/137 136/57/136 135/54/135 134/52/134
