# Exported from Wings 3D 0.99.04a
mtllib barrel1.mtl
o Box01
#43 vertices, 41 faces
v 0.34530023 6.99894817 -6.31113148
v 0.34530014 7.39651163 -6.31113148
v 1.0002019e-3 7.59529360 -6.31113243
v -0.34329981 7.39651163 -6.31113243
v -0.34329972 6.99894817 -6.31113243
v 1.0002856e-3 6.80016668 -6.31113148
v 0.65750933 6.81869419 -4.31113195
v 0.65750933 7.57676561 -4.31113195
v 1.0001683e-3 7.95580156 -4.31113195
v -0.65550900 7.57676561 -4.31113195
v -0.65550888 6.81869419 -4.31113195
v 1.0003508e-3 6.43965872 -4.31113195
v 0.65750945 6.81869371 -3.61807275
v 0.65750939 7.57676513 -3.61807275
v 1.0002017e-3 7.95580108 -3.61807275
v -0.65550888 7.57676513 -3.61807275
v -0.65550882 6.81869371 -3.61807275
v 1.0004459e-3 6.43965824 -3.61807275
v 0.30788308 7.02055080 -2.19562125
v 0.30788299 7.37490852 -2.19562125
v 1.0003322e-3 7.55208738 -2.19562125
v -0.30588239 7.37490852 -2.19562125
v -0.30588236 7.02055080 -2.19562125
v 1.0004154e-3 6.84337194 -2.19562125
v 0.58798790 6.85883243 -1.69015861
v 0.58798784 7.53662689 -1.69015861
v 1.0003789e-3 7.87552412 -1.69015861
v -0.58598709 7.53662689 -1.69015861
v -0.58598697 6.85883196 -1.69015861
v 1.0006040e-3 6.51993473 -1.69015872
v 1.25673330 6.47273166 -1.18417692
v 1.25673306 7.92272718 -1.18417692
v 1.0001544e-3 8.64772422 -1.18417645
v -1.25473261 7.92272670 -1.18417656
v -1.25473237 6.47273166 -1.18417668
v 1.0006634e-3 5.74773414 -1.18417704
v 0.44530234 6.94121130 2.19546318
v 0.44530228 7.45424707 2.19546318
v 1.0002839e-3 7.71076496 2.19546318
v -0.44330174 7.45424707 2.19546318
v -0.44330174 6.94121130 2.19546318
v 1.0004434e-3 6.68469341 2.19546318
v -1.07385623 7.19772966 -3.96460176
vt 8.4107950e-2 0.49010205
vt 8.5291080e-2 0.48448724
vt 0.11866372 0.79403943
vt 0.12001485 0.71748459
vt 0.12020666 0.55262160
vt 0.12401036 0.72256708
vt 0.12401060 0.78673947
vt 0.12787962 0.58249474
vt 0.13048470 0.97898531
vt 0.13086343 0.25377214
vt 0.13623908 0.58549953
vt 0.17025793 0.58577532
vt 0.17348024 0.58249462
vt 0.17412415 0.25377199
vt 0.17702380 0.97922522
vt 0.18249415 0.55253023
vt 0.18436182 0.72256690
vt 0.18436204 0.78673923
vt 0.18617322 0.79403907
vt 0.19111095 0.71748424
vt 0.19273210 0.72233450
vt 0.19273236 0.78951675
vt 0.19533764 0.29312223
vt 0.21112865 0.26577070
vt 0.21112865 0.32047376
vt 0.21830341 0.48459905
vt 0.21835378 0.48954368
vt 0.23146829 0.75592542
vt 0.24271168 0.26577073
vt 0.24271168 0.32047376
vt 0.25850305 0.29312226
vt 0.68947566 0.57576042
vt 0.68947566 0.60956222
vt 0.71874869 0.55885947
vt 0.71874869 0.62646341
vt 0.74802220 0.57576042
vt 0.74802220 0.60956222
vn 1.3849468e-6 -7.9959904e-7 -1.00000000
vn 0.98803393 7.6440335e-8 -0.15423665
vn 0.49401675 -0.85566261 -0.15423662
vn 1.3849468e-6 -7.9959904e-7 -1.00000000
vn 0.98803393 7.6440335e-8 -0.15423665
vn 0.49401741 0.85566224 -0.15423658
vn 1.3849468e-6 -7.9959904e-7 -1.00000000
vn 0.49401741 0.85566224 -0.15423658
vn -0.49401728 0.85566232 -0.15423656
vn 1.3849468e-6 -7.9959904e-7 -1.00000000
vn -0.49401728 0.85566232 -0.15423656
vn -0.98803394 -1.7836078e-7 -0.15423659
vn 1.3849468e-6 -7.9959904e-7 -1.00000000
vn -0.98803394 -1.7836078e-7 -0.15423659
vn -0.49401653 -0.85566275 -0.15423658
vn 1.3849468e-6 -7.9959904e-7 -1.00000000
vn -0.49401653 -0.85566275 -0.15423658
vn 0.49401675 -0.85566261 -0.15423662
vn 0.98803393 7.6440335e-8 -0.15423665
vn 0.49401675 -0.85566261 -0.15423662
vn 1.00000000 3.9313344e-8 -1.2900333e-7
vn 0.49999983 -0.86602550 -6.7315067e-7
vn 0.98803393 7.6440335e-8 -0.15423665
vn 0.49401741 0.85566224 -0.15423658
vn 1.00000000 3.9313344e-8 -1.2900333e-7
vn 0.50000020 0.86602529 5.6228828e-7
vn 0.49401741 0.85566224 -0.15423658
vn -0.49401728 0.85566232 -0.15423656
vn 0.50000020 0.86602529 5.6228828e-7
vn -0.50000023 0.86602527 6.5089413e-7
vn -0.49401728 0.85566232 -0.15423656
vn -0.98803394 -1.7836078e-7 -0.15423659
vn -0.50000023 0.86602527 6.5089413e-7
vn -0.63790825 -1.0031323e-7 -0.77011237
vn -0.67143040 0.74106762 6.2535685e-7
vn -0.98803394 -1.7836078e-7 -0.15423659
vn -0.49401653 -0.85566275 -0.15423658
vn -0.49999969 -0.86602558 -5.4003209e-7
vn -0.63790825 -1.0031323e-7 -0.77011237
vn -0.67143032 -0.74106769 -4.5212335e-7
vn -0.49401653 -0.85566275 -0.15423658
vn 0.49401675 -0.85566261 -0.15423662
vn -0.49999969 -0.86602558 -5.4003209e-7
vn 0.49999983 -0.86602550 -6.7315067e-7
vn 1.00000000 3.9313344e-8 -1.2900333e-7
vn 0.49999983 -0.86602550 -6.7315067e-7
vn 0.97109651 1.3007989e-7 0.23868719
vn 0.48554818 -0.84099428 0.23868723
vn 1.00000000 3.9313344e-8 -1.2900333e-7
vn 0.50000020 0.86602529 5.6228828e-7
vn 0.97109651 1.3007989e-7 0.23868719
vn 0.48554844 0.84099417 0.23868708
vn 0.50000020 0.86602529 5.6228828e-7
vn -0.50000023 0.86602527 6.5089413e-7
vn 0.48554844 0.84099417 0.23868708
vn -0.48554845 0.84099415 0.23868714
vn -0.50000023 0.86602527 6.5089413e-7
vn -0.48554845 0.84099415 0.23868714
vn -0.97109649 -7.8047930e-8 0.23868725
vn -0.67143040 0.74106762 6.2535685e-7
vn -0.63790687 -5.0156504e-8 0.77011352
vn -0.49999969 -0.86602558 -5.4003209e-7
vn -0.97109649 -7.8047930e-8 0.23868725
vn -0.48554804 -0.84099436 0.23868724
vn -0.67143032 -0.74106769 -4.5212335e-7
vn -0.63790687 -5.0156504e-8 0.77011352
vn -0.49999969 -0.86602558 -5.4003209e-7
vn 0.49999983 -0.86602550 -6.7315067e-7
vn -0.48554804 -0.84099436 0.23868724
vn 0.48554818 -0.84099428 0.23868723
vn 0.97109651 1.3007989e-7 0.23868719
vn 0.48554818 -0.84099428 0.23868723
vn 0.87467671 1.2627691e-7 -0.48470678
vn 0.43733873 -0.75749205 -0.48470676
vn 0.97109651 1.3007989e-7 0.23868719
vn 0.48554844 0.84099417 0.23868708
vn 0.87467671 1.2627691e-7 -0.48470678
vn 0.43733841 0.75749245 -0.48470640
vn 0.48554844 0.84099417 0.23868708
vn -0.48554845 0.84099415 0.23868714
vn 0.43733841 0.75749245 -0.48470640
vn -0.43733841 0.75749251 -0.48470632
vn -0.48554845 0.84099415 0.23868714
vn -0.97109649 -7.8047930e-8 0.23868725
vn -0.43733841 0.75749251 -0.48470632
vn -0.87467684 -1.2627687e-7 -0.48470654
vn -0.97109649 -7.8047930e-8 0.23868725
vn -0.48554804 -0.84099436 0.23868724
vn -0.87467684 -1.2627687e-7 -0.48470654
vn -0.43733826 -0.75749227 -0.48470683
vn -0.48554804 -0.84099436 0.23868724
vn 0.48554818 -0.84099428 0.23868723
vn -0.43733826 -0.75749227 -0.48470683
vn 0.43733873 -0.75749205 -0.48470676
vn 0.87467671 1.2627691e-7 -0.48470678
vn 0.43733873 -0.75749205 -0.48470676
vn 0.60336999 8.4509408e-8 -0.79746138
vn 0.30168508 -0.52253352 -0.79746149
vn 0.87467671 1.2627691e-7 -0.48470678
vn 0.43733841 0.75749245 -0.48470640
vn 0.60336999 8.4509408e-8 -0.79746138
vn 0.30168483 0.52253422 -0.79746112
vn 0.43733841 0.75749245 -0.48470640
vn -0.43733841 0.75749251 -0.48470632
vn 0.30168483 0.52253422 -0.79746112
vn -0.30168514 0.52253422 -0.79746101
vn -0.43733841 0.75749251 -0.48470632
vn -0.87467684 -1.2627687e-7 -0.48470654
vn -0.30168514 0.52253422 -0.79746101
vn -0.60337013 -5.6733599e-8 -0.79746127
vn -0.87467684 -1.2627687e-7 -0.48470654
vn -0.43733826 -0.75749227 -0.48470683
vn -0.60337013 -5.6733599e-8 -0.79746127
vn -0.30168509 -0.52253378 -0.79746132
vn -0.43733826 -0.75749227 -0.48470683
vn 0.43733873 -0.75749205 -0.48470676
vn -0.30168509 -0.52253378 -0.79746132
vn 0.30168508 -0.52253352 -0.79746149
vn 0.60336999 8.4509408e-8 -0.79746138
vn 0.30168508 -0.52253352 -0.79746149
vn 0.97236658 1.4762262e-7 0.23345926
vn 0.48618329 -0.84209418 0.23345920
vn 0.60336999 8.4509408e-8 -0.79746138
vn 0.30168483 0.52253422 -0.79746112
vn 0.97236658 1.4762262e-7 0.23345926
vn 0.48618309 0.84209428 0.23345924
vn 0.30168483 0.52253422 -0.79746112
vn -0.30168514 0.52253422 -0.79746101
vn 0.48618309 0.84209428 0.23345924
vn -0.48618326 0.84209419 0.23345922
vn -0.30168514 0.52253422 -0.79746101
vn -0.60337013 -5.6733599e-8 -0.79746127
vn -0.48618326 0.84209419 0.23345922
vn -0.97236659 -1.3227544e-7 0.23345924
vn -0.60337013 -5.6733599e-8 -0.79746127
vn -0.30168509 -0.52253378 -0.79746132
vn -0.97236659 -1.3227544e-7 0.23345924
vn -0.48618313 -0.84209429 0.23345916
vn -0.30168509 -0.52253378 -0.79746132
vn 0.30168508 -0.52253352 -0.79746149
vn -0.48618313 -0.84209429 0.23345916
vn 0.48618329 -0.84209418 0.23345920
vn 3.2470803e-16 0.0000000e+0 1.00000000
vn 0.97236658 1.4762262e-7 0.23345926
vn 0.48618329 -0.84209418 0.23345920
vn 3.2470803e-16 0.0000000e+0 1.00000000
vn 0.97236658 1.4762262e-7 0.23345926
vn 0.48618309 0.84209428 0.23345924
vn 3.2470803e-16 0.0000000e+0 1.00000000
vn 0.48618309 0.84209428 0.23345924
vn -0.48618326 0.84209419 0.23345922
vn 3.2470803e-16 0.0000000e+0 1.00000000
vn -0.48618326 0.84209419 0.23345922
vn -0.97236659 -1.3227544e-7 0.23345924
vn 3.2470803e-16 0.0000000e+0 1.00000000
vn -0.97236659 -1.3227544e-7 0.23345924
vn -0.48618313 -0.84209429 0.23345916
vn 3.2470803e-16 0.0000000e+0 1.00000000
vn -0.48618313 -0.84209429 0.23345916
vn 0.48618329 -0.84209418 0.23345920
vn -0.63790825 -1.0031323e-7 -0.77011237
vn -0.67143040 0.74106762 6.2535685e-7
vn -0.67143032 -0.74106769 -4.5212335e-7
vn -0.63790687 -5.0156504e-8 0.77011352
g Box01_01 - Default
usemtl 01 - Default
f 1/32/1 6/34/16 5/36/13 4/37/10 3/35/7 2/33/4
f 1/9/3 7/3/20 12/19/42 6/15/18
f 2/9/5 8/3/23 7/19/19 1/15/2
f 3/15/8 9/19/27 8/3/24 2/9/6
f 4/9/11 10/3/31 9/19/28 3/15/9
f 5/9/14 11/3/36 10/19/32 4/15/12
f 6/15/17 12/19/41 11/3/37 5/9/15
f 7/7/22 13/6/46 18/17/68 12/18/44
f 8/7/25 14/6/49 13/17/45 7/18/21
f 9/7/29 15/6/53 14/17/50 8/18/26
f 10/7/33 16/6/57 15/17/54 9/18/30
f 10/22/35 43/28/162 16/21/60
f 11/21/39 43/28/161 10/22/34
f 12/7/43 18/6/67 17/17/62 11/18/38
f 13/4/48 19/11/72 24/12/92 18/20/70
f 14/4/51 20/11/75 19/12/71 13/20/47
f 15/20/55 21/12/79 20/11/76 14/4/52
f 16/4/58 22/11/83 21/12/80 15/20/56
f 16/21/61 43/28/164 17/22/66
f 17/4/63 23/11/87 22/12/84 16/20/59
f 17/21/65 43/28/163 11/22/40
f 18/20/69 24/12/91 23/11/88 17/4/64
f 19/8/74 25/5/96 30/16/116 24/13/94
f 20/8/77 26/5/99 25/16/95 19/13/73
f 21/13/81 27/16/103 26/5/100 20/8/78
f 22/8/85 28/5/107 27/16/104 21/13/82
f 23/8/89 29/5/111 28/16/108 22/13/86
f 24/13/93 30/16/115 29/5/112 23/8/90
f 25/5/98 31/1/120 36/27/140 30/16/118
f 26/5/101 32/1/123 31/27/119 25/16/97
f 27/5/105 33/1/127 32/27/124 26/16/102
f 28/5/109 34/1/131 33/27/128 27/16/106
f 29/5/113 35/1/135 34/27/132 28/16/110
f 30/5/117 36/1/139 35/27/136 29/16/114
f 31/26/122 37/14/145 42/10/160 36/2/142
f 32/2/125 38/10/147 37/14/144 31/26/121
f 33/26/129 39/14/150 38/10/148 32/2/126
f 34/2/133 40/10/153 39/14/151 33/26/130
f 35/2/137 41/10/156 40/14/154 34/26/134
f 36/2/141 42/10/159 41/14/157 35/26/138
f 38/29/146 39/31/149 40/30/152 41/25/155 42/23/158 37/24/143
