# Exported from Wings 3D 0.99.04a
mtllib base.mtl
o Box01_sep3
#72 vertices, 81 faces
v -0.99900001 1.9196643e-2 -1.0000437e-3
v 1.00100005 1.9196643e-2 -1.0000437e-3
v -0.99900001 2.01919670 -9.9995639e-4
v 1.00100005 2.01919670 -9.9995639e-4
v -0.99900001 1.9196584e-2 1.99899995
v 1.00100005 1.9196584e-2 1.99899995
v -0.99900001 2.01919658 1.99900007
v 1.00100005 2.01919658 1.99900007
v -4.99900007 1.9196643e-2 -1.0000437e-3
v 5.00099993 1.9196643e-2 -1.0000437e-3
v -4.99900007 2.01919670 -9.9995639e-4
v 5.00099993 2.01919670 -9.9995639e-4
v -4.99900007 1.9196584e-2 1.99899995
v 5.00099993 1.9196584e-2 1.99899995
v -4.99900007 2.01919658 1.99900007
v 5.00099993 2.01919658 1.99900007
v -0.99900001 1.09619058 5.99900007
v 1.00100005 1.09619058 5.99900007
v -0.99900001 2.01919658 5.99900007
v 1.00100005 2.01919658 5.99900007
v -2.82109928 1.09619058 5.99900007
v 2.82309914 1.09619058 5.99900007
v -2.82109928 2.01919658 5.99900007
v 2.82309914 2.01919658 5.99900007
v -0.99900001 1.9196822e-2 -4.00099993
v 1.00100005 1.9196822e-2 -4.00099993
v -0.99900001 2.01919682 -4.00099993
v 1.00100005 2.01919682 -4.00099993
v -4.99900007 1.9196822e-2 -4.00099993
v 5.00099993 1.9196822e-2 -4.00099993
v -4.99900007 2.01919682 -4.00099993
v 5.00099993 2.01919682 -4.00099993
v -0.99900001 1.9197001e-2 -8.00100040
v 1.00100005 1.9197001e-2 -8.00100040
v -0.99900001 2.01919706 -8.00100040
v 1.00100005 2.01919706 -8.00100040
v -2.09872675 1.9197060e-2 -7.31289816
v 2.10072660 1.9197060e-2 -7.31289816
v -2.09872675 2.01919694 -7.31289816
v 2.10072660 2.01919694 -7.31289816
v -0.99900001 4.01919658 -9.9985057e-4
v 1.00100005 4.01919658 -9.9983672e-4
v -0.99900001 4.01919658 1.99900007
v 1.00100005 4.01919658 1.99900007
v -2.82110000 4.01919658 -9.9986058e-4
v 2.82309985 4.01919658 -9.9985639e-4
v -2.82110000 4.01919658 1.99900007
v 2.82309985 4.01919658 1.99900007
v -0.99900001 4.01919682 -4.00099993
v 1.00100005 4.01919682 -4.00099993
v -2.82110000 4.01919682 -4.00099993
v 2.82309985 4.01919682 -4.00099993
v -0.99900013 4.01919682 -6.00592852
v 1.00099993 4.01919682 -6.00592852
v -7.48117781 1.01919674 2.79139638
v 7.48317766 1.01919674 2.79139638
v -7.48117781 1.01919657 3.86772370
v 7.48317766 1.01919657 3.86772370
v -7.70211267 4.96766503 -5.53940487
v 7.70411253 4.96766503 -5.53940487
v -7.70211267 4.96766527 -6.22904253
v 7.70411253 4.96766527 -6.22904253
v -0.63191116 4.68063457 3.13600087
v 0.63391125 4.68063457 3.13600087
v -0.32851797 1.80805088 5.02823734
v 0.33051801 1.80805088 5.02823734
v -0.63191122 3.80805094 4.08355331
v 0.63391137 3.80805094 4.08355331
v -0.99900001 4.73524864 1.57115519
v 1.00099993 4.73524864 1.57115519
v -2.82110000 4.73524864 1.57115519
v 2.82309985 4.73524864 1.57115519
vt 2.7401984e-2 0.33964926
vt 2.7402341e-2 0.24680230
vt 5.5435643e-2 0.53006983
vt 8.3470762e-2 0.33964947
vt 8.3471119e-2 0.24680251
vt 0.14559329 1.6147621e-2
vt 0.24160656 0.97719932
vt 0.24185084 0.47804943
vt 0.26838034 0.40052402
vt 0.26866156 0.30817306
vt 0.30228776 0.20258969
vt 0.30228776 0.28513533
vt 0.31203246 0.10726792
vt 0.38124016 0.13365166
vt 0.39842078 0.30606830
vt 0.39971572 0.39089644
vt 0.44138819 1.5981393e-2
vt 0.45764393 0.97720015
vt 0.46737903 0.24704033
vt 0.46737903 0.28513533
vt 0.47190702 3.5337754e-2
vt 0.48052272 0.22176832
vt 0.48062760 0.64076465
vt 0.48114961 0.46916097
vt 0.48140705 0.98397243
vt 0.48229867 0.20609379
vt 0.48324895 0.30659646
vt 0.50046188 0.94565475
vt 0.50046188 0.98355412
vt 0.50241077 0.65006149
vt 0.50241077 0.88482732
vt 0.52593386 1.3597957e-2
vt 0.53077078 0.41977954
vt 0.56695533 0.84444135
vt 0.57119089 0.38301975
vt 0.57188499 0.44045582
vt 0.61178696 0.29844129
vt 0.62363172 0.14897317
vt 0.62363172 0.26321423
vt 0.65754867 0.21282066
vt 0.65927684 0.13268028
vt 0.66749579 0.63950974
vt 0.66801757 0.46790582
vt 0.67001009 0.19966769
vt 0.69177902 0.51927650
vt 0.69181770 0.52585459
vt 0.69248927 0.96734810
vt 0.72024113 0.51143324
vt 0.72032499 0.52568686
vt 0.72040886 0.53994060
vt 0.72348803 0.54502583
vt 0.72979051 0.44045526
vt 0.73454744 0.53960407
vt 0.73457867 0.52560306
vt 0.73717648 0.65006149
vt 0.74503249 0.14826429
vt 0.74503249 0.18404078
vt 0.74970025 0.27218372
vt 0.74970168 0.53377688
vt 0.76870072 0.55488980
vt 0.76870072 0.64128858
vt 0.76870072 0.86111081
vt 0.76872444 1.2006219e-2
vt 0.77003193 0.13246118
vt 0.77289319 0.88674581
vt 0.77697361 1.7209729e-2
vt 0.77697361 0.11724319
vt 0.78672528 0.25282681
vt 0.81565863 0.14826429
vt 0.81565863 0.18404078
vt 0.81848812 0.19966769
vt 0.83197796 1.7209729e-2
vt 0.83197796 0.11724319
vt 0.83197796 0.21727650
vt 0.85369432 0.88674581
vt 0.85369432 0.96734810
vt 0.86883521 0.55488980
vt 0.86883521 0.64128858
vt 0.86883521 0.86111081
vt 0.86886263 0.27218303
vt 0.86886376 0.53377610
vt 0.87034041 0.97129273
vt 0.88869083 0.46889284
vt 0.89076573 0.41710082
vt 0.89403558 0.26102799
vt 0.89403558 0.29622218
vt 0.90123481 0.30999175
vt 0.93201154 1.7209729e-2
vt 0.93201154 0.11724319
vt 0.93201154 0.21727650
vt 0.94451874 0.30999187
vt 0.95558304 0.41710091
vt 0.95736516 0.19679534
vt 0.95825481 0.46889284
vt 0.95834571 0.20852327
vt 0.95878249 0.19285798
vt 0.96033823 0.18853605
vt 0.96067160 0.20936048
vt 0.96140176 0.19216418
vt 0.96175557 0.18459868
vt 0.96191442 0.19073999
vt 0.96431470 0.20461297
vt 0.96742618 0.19596934
vt 0.96863651 0.20616877
vt 0.96898192 0.19164753
vt 0.96998602 0.17618644
vt 0.97174799 0.19752514
vt 0.97209340 0.18300378
vt 0.97231185 0.17702377
vt 0.97330379 0.19320333
vt 0.97641522 0.18455958
vt 0.97728020 0.20928025
vt 0.97842842 0.64128858
vt 0.97842842 0.86111081
vt 0.97842842 0.97129273
vt 0.98039168 0.20063663
vt 0.98194742 0.19631481
vt 0.98359287 0.26102799
vt 0.98359287 0.29622218
vt 0.98505890 0.18767107
vt 0.98669297 0.20558929
vt 0.98701620 1.7209729e-2
vt 0.98701620 0.11724319
vt 0.98903537 0.20374811
vt 0.98995966 0.19651461
vt 0.99059111 0.19942617
vn 0.0000000e+0 -1.00000000 -2.9802322e-8
vn 0.0000000e+0 -1.00000000 -2.9802322e-8
vn 0.0000000e+0 -1.00000000 -4.4703485e-8
vn 0.0000000e+0 -1.00000000 -4.4703485e-8
vn 0.0000000e+0 -1.00000000 -2.9802322e-8
vn 0.0000000e+0 -1.00000000 -2.9802322e-8
vn 0.0000000e+0 -1.00000000 -4.4703485e-8
vn 0.0000000e+0 -1.00000000 -4.4703485e-8
vn 1.00000000 0.0000000e+0 0.0000000e+0
vn -0.99194525 0.12145703 3.5955721e-2
vn -0.99322279 -6.1496063e-9 0.11622599
vn -1.00000000 0.0000000e+0 0.0000000e+0
vn 0.99194525 0.12145702 3.5955697e-2
vn 0.99322280 -6.9546694e-9 0.11622597
vn 0.0000000e+0 -1.00000000 -2.9802322e-8
vn 0.0000000e+0 -1.00000000 -2.9802322e-8
vn 1.00000000 0.0000000e+0 1.8991118e-17
vn 0.0000000e+0 -0.96561146 0.25998943
vn 0.0000000e+0 -0.86106962 0.50848708
vn -0.97644528 -2.3404939e-2 0.21449200
vn 0.0000000e+0 -1.00000000 -2.9802322e-8
vn 0.0000000e+0 -1.00000000 -2.9802322e-8
vn -1.00000000 0.0000000e+0 -1.8991118e-17
vn 0.0000000e+0 -0.96561146 0.25998943
vn 0.0000000e+0 -0.86106962 0.50848708
vn 0.97644528 -2.3404969e-2 0.21449200
vn 1.00000000 0.0000000e+0 1.8991118e-17
vn 1.00000000 0.0000000e+0 0.0000000e+0
vn 1.00000000 0.0000000e+0 0.0000000e+0
vn -0.97644528 -2.3404939e-2 0.21449200
vn -0.99194525 0.12145703 3.5955721e-2
vn -1.00000000 0.0000000e+0 -1.8991118e-17
vn -1.00000000 0.0000000e+0 0.0000000e+0
vn -1.00000000 0.0000000e+0 0.0000000e+0
vn 0.97644528 -2.3404969e-2 0.21449200
vn 0.99194525 0.12145702 3.5955697e-2
vn 0.0000000e+0 -1.00000000 -2.9802322e-8
vn 0.0000000e+0 -1.00000000 -4.4703485e-8
vn -0.37368614 -0.92755521 -7.0693069e-8
vn -0.37368614 -0.92755521 -4.1464950e-8
vn 0.0000000e+0 -1.00000000 -2.9802322e-8
vn 0.0000000e+0 -1.00000000 -4.4703485e-8
vn 0.37368614 -0.92755521 -7.0693069e-8
vn 0.37368614 -0.92755521 -4.1464950e-8
vn -0.67638438 0.73654882 2.1950866e-8
vn -0.37368599 0.92755527 8.8664698e-8
vn -0.37368603 0.92755526 2.7643301e-8
vn -0.54832725 0.59710099 0.58549776
vn -0.73711053 -0.67577220 -5.1533826e-8
vn 0.67638438 0.73654882 2.1950866e-8
vn 0.37368599 0.92755527 8.8664698e-8
vn 0.37368603 0.92755526 2.7643301e-8
vn 0.54832725 0.59710099 0.58549776
vn 0.73711053 -0.67577220 -5.1533826e-8
vn 0.0000000e+0 -1.00000000 -2.9802322e-8
vn -0.87825690 -1.9502041e-8 0.47818910
vn 0.0000000e+0 -0.96561146 0.25998943
vn -0.37368614 -0.92755521 -7.0693069e-8
vn 0.60145953 -4.7618345e-8 0.79890327
vn 0.0000000e+0 -1.00000000 -2.9802322e-8
vn 0.87825690 -1.9502041e-8 0.47818910
vn 0.0000000e+0 -0.96561146 0.25998943
vn -0.60145953 -4.7618345e-8 0.79890327
vn 0.37368614 -0.92755521 -7.0693069e-8
vn -0.87825690 -1.9502041e-8 0.47818910
vn -0.67638438 0.73654882 2.1950866e-8
vn -0.63471080 0.69116835 0.34558429
vn 0.60145953 -4.7618345e-8 0.79890327
vn -0.37368599 0.92755527 8.8664698e-8
vn 0.87825690 -1.9502041e-8 0.47818910
vn 0.67638438 0.73654882 2.1950866e-8
vn 0.63471080 0.69116835 0.34558429
vn 0.37368599 0.92755527 8.8664698e-8
vn -0.60145953 -4.7618345e-8 0.79890327
vn 0.0000000e+0 0.0000000e+0 1.00000000
vn 1.00000000 0.0000000e+0 1.8991118e-17
vn 0.0000000e+0 -0.96561146 0.25998943
vn 0.0000000e+0 0.0000000e+0 1.00000000
vn -1.00000000 0.0000000e+0 -1.8991118e-17
vn 0.0000000e+0 -0.96561146 0.25998943
vn 0.0000000e+0 0.0000000e+0 1.00000000
vn 1.00000000 0.0000000e+0 1.8991118e-17
vn 0.0000000e+0 0.89442719 0.44721360
vn 1.00000000 0.0000000e+0 0.0000000e+0
vn 0.0000000e+0 0.0000000e+0 1.00000000
vn -1.00000000 0.0000000e+0 -1.8991118e-17
vn 0.0000000e+0 0.89442719 0.44721360
vn -1.00000000 0.0000000e+0 0.0000000e+0
vn 0.0000000e+0 0.0000000e+0 1.00000000
vn -0.87825690 -1.9502041e-8 0.47818910
vn 0.0000000e+0 -0.96561146 0.25998943
vn 0.0000000e+0 0.0000000e+0 1.00000000
vn 0.87825690 -1.9502041e-8 0.47818910
vn 0.0000000e+0 -0.96561146 0.25998943
vn 0.0000000e+0 0.0000000e+0 1.00000000
vn -0.87825690 -1.9502041e-8 0.47818910
vn 0.0000000e+0 0.89442719 0.44721360
vn -0.63471080 0.69116835 0.34558429
vn 0.0000000e+0 0.0000000e+0 1.00000000
vn 0.87825690 -1.9502041e-8 0.47818910
vn 0.0000000e+0 0.89442719 0.44721360
vn 0.63471080 0.69116835 0.34558429
vn 0.0000000e+0 -1.00000000 -4.4703485e-8
vn 0.0000000e+0 -1.00000000 -4.4703485e-8
vn 0.0000000e+0 -1.00000000 -4.4703478e-8
vn -2.0483431e-8 -1.00000000 -6.5186907e-8
vn 0.0000000e+0 -1.00000000 -4.4703485e-8
vn 0.0000000e+0 -1.00000000 -4.4703485e-8
vn 0.0000000e+0 -1.00000000 -4.4703478e-8
vn 2.0483433e-8 -1.00000000 -6.5186908e-8
vn -1.7724809e-8 1.00000000 4.1879830e-8
vn 0.0000000e+0 0.0000000e+0 -1.00000000
vn -1.00000000 -3.9703819e-8 1.9851905e-8
vn 1.7724810e-8 1.00000000 4.1879830e-8
vn 0.0000000e+0 0.0000000e+0 -1.00000000
vn 1.00000000 3.9703819e-8 -1.9851905e-8
vn 0.0000000e+0 -1.00000000 -4.4703485e-8
vn -2.0483431e-8 -1.00000000 -6.5186907e-8
vn -0.75231070 0.0000000e+0 -0.65880848
vn -0.93924974 0.0000000e+0 -0.34323451
vn -0.37368614 -0.92755521 -4.1464950e-8
vn 0.0000000e+0 -1.00000000 -4.4703485e-8
vn 0.75231070 0.0000000e+0 -0.65880848
vn 2.0483433e-8 -1.00000000 -6.5186908e-8
vn 0.37368614 -0.92755521 -4.1464950e-8
vn 0.93924974 0.0000000e+0 -0.34323451
vn -0.75231070 0.0000000e+0 -0.65880848
vn -1.7724809e-8 1.00000000 4.1879830e-8
vn 0.0000000e+0 0.0000000e+0 -1.00000000
vn -0.37368603 0.92755526 2.7643301e-8
vn -0.93924974 0.0000000e+0 -0.34323451
vn -0.73711053 -0.67577220 -5.1533826e-8
vn 0.32913598 -0.35841264 -0.87361884
vn 1.7724810e-8 1.00000000 4.1879830e-8
vn 0.75231070 0.0000000e+0 -0.65880848
vn 0.0000000e+0 0.0000000e+0 -1.00000000
vn 0.93924974 0.0000000e+0 -0.34323451
vn 0.37368603 0.92755526 2.7643301e-8
vn 0.73711053 -0.67577220 -5.1533826e-8
vn -0.32913598 -0.35841264 -0.87361884
vn 0.0000000e+0 0.0000000e+0 -1.00000000
vn -0.53042738 0.0000000e+0 -0.84773038
vn 0.0000000e+0 -1.00000000 -4.4703478e-8
vn -2.0483431e-8 -1.00000000 -6.5186907e-8
vn 0.0000000e+0 0.0000000e+0 -1.00000000
vn 0.53042745 0.0000000e+0 -0.84773034
vn 0.0000000e+0 -1.00000000 -4.4703478e-8
vn 2.0483433e-8 -1.00000000 -6.5186908e-8
vn 0.0000000e+0 0.0000000e+0 -1.00000000
vn -0.53042738 0.0000000e+0 -0.84773038
vn -1.7724809e-8 1.00000000 4.1879830e-8
vn 0.0000000e+0 0.70623404 -0.70797845
vn -1.00000000 -3.9703819e-8 1.9851905e-8
vn 0.0000000e+0 0.0000000e+0 -1.00000000
vn 0.53042745 0.0000000e+0 -0.84773034
vn 1.7724810e-8 1.00000000 4.1879830e-8
vn 0.0000000e+0 0.70623404 -0.70797845
vn 1.00000000 3.9703819e-8 -1.9851905e-8
vn -0.53042738 0.0000000e+0 -0.84773038
vn -2.0483431e-8 -1.00000000 -6.5186907e-8
vn -0.75231070 0.0000000e+0 -0.65880848
vn 0.53042745 0.0000000e+0 -0.84773034
vn 0.75231070 0.0000000e+0 -0.65880848
vn 2.0483433e-8 -1.00000000 -6.5186908e-8
vn -0.53042738 0.0000000e+0 -0.84773038
vn -0.75231070 0.0000000e+0 -0.65880848
vn -1.7724809e-8 1.00000000 4.1879830e-8
vn 0.53042745 0.0000000e+0 -0.84773034
vn 1.7724810e-8 1.00000000 4.1879830e-8
vn 0.75231070 0.0000000e+0 -0.65880848
vn 1.1387342e-9 0.91005305 -0.41449179
vn -2.2204459e-16 1.00000000 5.9604644e-8
vn 0.0000000e+0 1.00000000 5.9604644e-8
vn 1.00000000 0.0000000e+0 0.0000000e+0
vn 8.7517233e-10 0.97848580 -0.20631416
vn -0.99322279 -6.1496063e-9 0.11622599
vn 1.00000000 0.0000000e+0 0.0000000e+0
vn -2.2377452e-9 0.91005305 -0.41449179
vn -2.2204459e-16 1.00000000 5.9604644e-8
vn 4.8744772e-16 1.00000000 5.9604644e-8
vn -1.00000000 0.0000000e+0 0.0000000e+0
vn 8.7517233e-10 0.97848580 -0.20631416
vn 0.99322280 -6.9546694e-9 0.11622597
vn -1.00000000 -1.6648132e-7 0.0000000e+0
vn 0.0000000e+0 0.89442719 0.44721360
vn 1.00000000 0.0000000e+0 0.0000000e+0
vn 1.00000000 0.0000000e+0 0.0000000e+0
vn 1.00000000 0.0000000e+0 0.0000000e+0
vn 0.0000000e+0 0.51292021 0.85843629
vn 0.0000000e+0 0.89442719 0.44721360
vn -1.00000000 0.0000000e+0 0.0000000e+0
vn -1.00000000 0.0000000e+0 0.0000000e+0
vn -1.00000000 -1.6648132e-7 0.0000000e+0
vn 0.0000000e+0 0.51292021 0.85843629
vn 1.1387342e-9 0.91005305 -0.41449179
vn 0.0000000e+0 1.00000000 5.9604644e-8
vn -0.67638438 0.73654882 2.1950866e-8
vn 0.19074995 0.98163866 9.9811929e-8
vn -0.54832725 0.59710099 0.58549776
vn -1.00000000 0.0000000e+0 0.0000000e+0
vn -2.2377452e-9 0.91005305 -0.41449179
vn 4.8744772e-16 1.00000000 5.9604644e-8
vn 0.67638438 0.73654882 2.1950866e-8
vn -0.19074995 0.98163866 9.9811929e-8
vn 0.54832725 0.59710099 0.58549776
vn 1.00000000 0.0000000e+0 0.0000000e+0
vn 0.0000000e+0 0.89442719 0.44721360
vn -0.67638438 0.73654882 2.1950866e-8
vn -0.63471080 0.69116835 0.34558429
vn -1.00000000 0.0000000e+0 0.0000000e+0
vn 0.0000000e+0 0.51292021 0.85843629
vn 0.0000000e+0 0.89442719 0.44721360
vn 0.67638438 0.73654882 2.1950866e-8
vn 0.63471080 0.69116835 0.34558429
vn 0.0000000e+0 0.51292021 0.85843629
vn 1.00000000 0.0000000e+0 0.0000000e+0
vn -2.2204459e-16 1.00000000 5.9604644e-8
vn 0.0000000e+0 1.00000000 5.9604644e-8
vn 0.0000000e+0 1.00000000 0.0000000e+0
vn 0.0000000e+0 0.0000000e+0 -1.00000000
vn -1.00000000 -3.9703819e-8 1.9851905e-8
vn -2.2204459e-16 1.00000000 5.9604644e-8
vn 4.8744772e-16 1.00000000 5.9604644e-8
vn 0.0000000e+0 1.00000000 0.0000000e+0
vn 0.0000000e+0 0.0000000e+0 -1.00000000
vn 1.00000000 3.9703819e-8 -1.9851905e-8
vn 0.0000000e+0 1.00000000 5.9604644e-8
vn 0.0000000e+0 0.0000000e+0 -1.00000000
vn 0.19074995 0.98163866 9.9811929e-8
vn 0.32913598 -0.35841264 -0.87361884
vn 4.8744772e-16 1.00000000 5.9604644e-8
vn 0.0000000e+0 0.0000000e+0 -1.00000000
vn -0.19074995 0.98163866 9.9811929e-8
vn -0.32913598 -0.35841264 -0.87361884
vn 0.0000000e+0 1.00000000 0.0000000e+0
vn 0.0000000e+0 0.70623404 -0.70797845
vn -1.00000000 -3.9703819e-8 1.9851905e-8
vn 0.0000000e+0 1.00000000 0.0000000e+0
vn 0.0000000e+0 0.70623404 -0.70797845
vn 1.00000000 3.9703819e-8 -1.9851905e-8
vn -0.37368614 -0.92755521 -7.0693069e-8
vn -0.37368599 0.92755527 8.8664698e-8
vn -0.37368603 0.92755526 2.7643301e-8
vn -0.93924974 0.0000000e+0 -0.34323451
vn -0.37368614 -0.92755521 -4.1464950e-8
vn 0.37368599 0.92755527 8.8664698e-8
vn 0.37368614 -0.92755521 -7.0693069e-8
vn 0.37368614 -0.92755521 -4.1464950e-8
vn 0.93924974 0.0000000e+0 -0.34323451
vn 0.37368603 0.92755526 2.7643301e-8
vn -0.37368614 -0.92755521 -7.0693069e-8
vn 0.60145953 -4.7618345e-8 0.79890327
vn -0.37368599 0.92755527 8.8664698e-8
vn 0.37368599 0.92755527 8.8664698e-8
vn -0.60145953 -4.7618345e-8 0.79890327
vn 0.37368614 -0.92755521 -7.0693069e-8
vn 0.19074995 0.98163866 9.9811929e-8
vn -0.54832725 0.59710099 0.58549776
vn -0.73711053 -0.67577220 -5.1533826e-8
vn -0.19074995 0.98163866 9.9811929e-8
vn 0.54832725 0.59710099 0.58549776
vn 0.73711053 -0.67577220 -5.1533826e-8
vn 0.19074995 0.98163866 9.9811929e-8
vn -0.73711053 -0.67577220 -5.1533826e-8
vn 0.32913598 -0.35841264 -0.87361884
vn -0.19074995 0.98163866 9.9811929e-8
vn 0.73711053 -0.67577220 -5.1533826e-8
vn -0.32913598 -0.35841264 -0.87361884
vn 0.0000000e+0 0.73560779 0.67740769
vn -0.99194525 0.12145703 3.5955721e-2
vn 8.7517233e-10 0.97848580 -0.20631416
vn -0.99322279 -6.1496063e-9 0.11622599
vn 0.0000000e+0 0.73560779 0.67740769
vn 0.99194525 0.12145702 3.5955697e-2
vn 8.7517233e-10 0.97848580 -0.20631416
vn 0.99322280 -6.9546694e-9 0.11622597
vn 0.0000000e+0 0.42709486 0.90420682
vn 0.0000000e+0 -0.86106962 0.50848708
vn -0.97644528 -2.3404939e-2 0.21449200
vn 0.0000000e+0 0.42709486 0.90420682
vn 0.0000000e+0 -0.86106962 0.50848708
vn 0.97644528 -2.3404969e-2 0.21449200
vn 0.0000000e+0 0.42709486 0.90420682
vn 0.0000000e+0 0.73560779 0.67740769
vn -0.97644528 -2.3404939e-2 0.21449200
vn -0.99194525 0.12145703 3.5955721e-2
vn 0.0000000e+0 0.42709486 0.90420682
vn 0.0000000e+0 0.73560779 0.67740769
vn 0.97644528 -2.3404969e-2 0.21449200
vn 0.99194525 0.12145702 3.5955697e-2
vn 1.1387342e-9 0.91005305 -0.41449179
vn 1.00000000 0.0000000e+0 0.0000000e+0
vn 0.0000000e+0 0.51292021 0.85843629
vn -2.2377452e-9 0.91005305 -0.41449179
vn -1.00000000 -1.6648132e-7 0.0000000e+0
vn 0.0000000e+0 0.51292021 0.85843629
vn 1.1387342e-9 0.91005305 -0.41449179
vn -1.00000000 0.0000000e+0 0.0000000e+0
vn 0.0000000e+0 0.51292021 0.85843629
vn -2.2377452e-9 0.91005305 -0.41449179
vn 0.0000000e+0 0.51292021 0.85843629
vn 1.00000000 0.0000000e+0 0.0000000e+0
g Box01_sep3_01 - Default
usemtl 01 - Default
f 1/110/3 25/117/103 26/116/107 2/107/7
f 2/107/5 6/103/21 5/105/15 1/110/1
f 2/107/6 10/104/41 14/102/60 6/103/22
f 2/107/8 26/116/108 30/112/122 10/104/42
f 3/54/9 41/53/174 43/50/186 7/49/28
f 3/15/11 63/33/272 41/16/176
f 4/15/13 64/33/274 68/35/290 8/27/36
f 5/105/16 13/108/55 9/111/37 1/110/2
f 5/105/18 17/97/77 21/100/91 13/108/57
f 5/22/20 65/37/279 67/35/285 7/27/30
f 6/48/23 18/45/79 20/46/86 8/49/32
f 6/103/25 66/99/281 65/101/278 5/105/19
f 7/49/27 19/46/82 17/45/76 5/48/17
f 7/49/29 43/50/187 19/46/84
f 7/27/31 67/35/286 63/33/270 3/15/10
f 8/49/33 44/50/191 42/53/181 4/54/12
f 8/27/35 68/35/289 66/37/282 6/22/26
f 9/111/38 29/120/117 25/117/104 1/110/4
f 9/111/40 55/109/245 29/120/121
f 10/104/43 56/98/247 58/95/256 14/102/64
f 11/23/46 55/9/242 57/10/253 15/24/69
f 11/6/49 59/17/259 61/21/264 31/13/132
f 12/23/50 46/42/203 48/43/213 16/24/71
f 12/23/52 56/9/250 32/25/138
f 12/7/53 60/8/261 46/18/205
f 13/11/56 21/19/90 23/20/96 15/12/65
f 13/108/58 57/106/251 55/109/241 9/111/39
f 14/102/62 22/93/94 18/96/80 6/103/24
f 14/39/63 58/26/255 16/38/74
f 15/24/66 47/43/208 45/42/197 11/23/45
f 15/38/68 57/26/252 13/39/59
f 16/12/70 24/20/100 22/19/93 14/11/61
f 16/36/72 48/52/214 24/40/102
f 16/24/73 58/10/254 56/9/246 12/23/51
f 18/69/78 22/56/92 24/57/99 20/70/85
f 19/56/81 23/69/95 21/70/89 17/57/75
f 19/59/83 43/58/185 47/80/207 23/81/97
f 20/46/88 44/50/192 8/49/34
f 23/40/98 47/52/209 15/36/67
f 24/81/101 48/80/212 44/58/190 20/59/87
f 25/117/105 33/126/143 34/124/147 26/116/109
f 26/116/110 34/124/148 38/121/164 30/112/124
f 27/30/111 35/31/151 39/34/167 31/55/128
f 27/76/113 49/75/221 53/65/237 35/47/153
f 28/63/115 50/64/225 52/41/232 32/32/136
f 29/120/118 37/125/160 33/126/144 25/117/106
f 29/1/120 55/3/244 31/4/131
f 30/1/123 38/2/163 40/5/170 32/4/135
f 30/112/125 56/98/248 10/104/44
f 31/4/127 39/5/166 37/2/161 29/1/119
f 31/32/129 51/41/228 49/64/220 27/63/112
f 31/25/130 55/9/243 11/23/47
f 31/32/133 61/14/265 51/41/230
f 32/55/134 40/34/169 36/31/156 28/30/114
f 32/4/137 56/3/249 30/1/126
f 32/13/139 62/21/267 60/17/262 12/6/54
f 33/88/141 35/89/149 36/73/154 34/72/145
f 33/88/142 37/122/159 39/123/165 35/89/150
f 35/89/152 53/90/236 54/74/239 36/73/157
f 36/73/155 40/67/168 38/66/162 34/72/146
f 36/47/158 54/65/240 50/75/226 28/76/116
f 41/78/173 49/79/218 51/62/227 45/61/196
f 41/78/175 63/83/271 64/94/275 42/113/182
f 41/53/177 69/51/292 43/50/188
f 42/113/179 50/114/222 49/79/217 41/78/172
f 42/16/183 64/33/276 4/15/14
f 42/78/178 70/77/294 72/60/300 46/61/201
f 43/85/189 69/86/293 71/119/299 47/118/211
f 44/50/193 70/51/295 42/53/184
f 45/18/199 59/8/258 11/7/48
f 45/61/195 71/60/297 69/77/291 41/78/171
f 46/61/202 52/62/231 50/79/223 42/78/180
f 46/61/204 60/28/260 62/29/266 52/62/233
f 46/44/206 72/68/302 48/71/216
f 47/71/210 71/68/298 45/44/200
f 48/86/215 72/85/301 70/118/296 44/119/194
f 50/114/224 54/115/238 53/82/235 49/79/219
f 51/62/229 61/29/263 59/28/257 45/61/198
f 52/41/234 62/14/268 32/32/140
f 63/83/269 67/84/284 68/92/288 64/94/273
f 66/91/280 68/92/287 67/84/283 65/87/277
