# Exported from Wings 3D 0.99.04a
mtllib turret.mtl
o Box01_sep2
#21 vertices, 20 faces
v 1.73305082 3.98498161 -4.95572281
v 9.9984277e-4 3.98498137 -5.95572329
v -1.73105085 3.98498137 -4.95572281
v -1.73105073 3.98498161 -2.95572281
v 1.0001685e-3 3.98498161 -1.95572305
v 1.73305094 3.98498161 -2.95572329
v 1.73305070 4.49201019 -4.95572329
v 9.9978317e-4 4.49201019 -5.95572329
v -1.73105097 4.49201019 -4.95572329
v -1.73105073 4.49201019 -2.95572305
v 1.0001089e-3 4.49201019 -1.95572305
v 1.73305082 4.49201019 -2.95572352
v 0.89007461 5.49201019 -4.46903086
v 9.9989004e-4 5.49201019 -4.98233843
v -0.87801754 5.49542816 -4.46903038
v -0.87801760 5.49542768 -3.44241524
v 1.0000616e-3 5.49201019 -2.92910790
v 0.89007473 5.49201019 -3.44241548
v -2.97558498 6.64117630 -3.95572281
v -0.87388301 7.48683412 -4.22488642
v -0.87388283 7.48683365 -3.68655968
vt 8.4834844e-3 0.97854084
vt 1.1488874e-2 7.3961556e-2
vt 2.6429582e-2 0.19159466
vt 2.8082822e-2 0.19918352
vt 2.8083060e-2 0.23222524
vt 4.4939239e-2 1.6022738e-2
vt 4.4940073e-2 0.13124424
vt 4.9449980e-2 0.75908339
vt 5.4943431e-2 0.13682431
vt 6.4467065e-2 0.63688797
vt 6.5336764e-2 0.85635757
vt 8.0995902e-2 0.50802666
vt 9.7000346e-2 0.63688755
vt 0.11149303 0.75908262
vt 0.11184090 1.6022261e-2
vt 0.11184167 0.13124377
vt 0.11460140 0.13684279
vt 0.12218700 0.97854221
vt 0.14162028 0.19918269
vt 0.14162052 0.23222429
vt 0.14305097 0.19162971
vt 0.14529216 7.3960602e-2
vt 0.19434310 0.25941116
vt 0.19524409 0.11231112
vt 0.27100950 0.23192661
vt 0.32842714 0.12886833
vt 0.40809816 0.18478447
vt 0.42779583 0.15066731
vt 0.42779583 0.21890163
vt 0.46719092 0.15066731
vt 0.46719092 0.21890163
vt 0.48688847 0.18478447
vn 3.4412763e-8 -1.00000000 5.9604641e-8
vn 0.50000006 -3.1906093e-7 -0.86602537
vn 1.00000000 2.3511351e-7 -5.9604655e-8
vn 3.4412763e-8 -1.00000000 5.9604641e-8
vn 0.50000006 -3.1906093e-7 -0.86602537
vn -0.50000011 -4.9539595e-7 -0.86602534
vn 3.4412763e-8 -1.00000000 5.9604641e-8
vn -0.50000011 -4.9539595e-7 -0.86602534
vn -1.00000000 -1.1755668e-7 8.9406969e-8
vn 3.4412763e-8 -1.00000000 5.9604641e-8
vn -1.00000000 -1.1755668e-7 8.9406969e-8
vn -0.49999994 1.7422513e-7 0.86602544
vn 3.4412763e-8 -1.00000000 5.9604641e-8
vn -0.49999994 1.7422513e-7 0.86602544
vn 0.50000015 2.9178190e-7 0.86602532
vn 3.4412763e-8 -1.00000000 5.9604641e-8
vn 0.50000015 2.9178190e-7 0.86602532
vn 1.00000000 2.3511351e-7 -5.9604655e-8
vn 0.50000006 -3.1906093e-7 -0.86602537
vn 1.00000000 2.3511351e-7 -5.9604655e-8
vn 0.38229153 0.64452519 -0.66214837
vn 0.76458304 0.64452523 -6.0229264e-8
vn 0.50000006 -3.1906093e-7 -0.86602537
vn -0.50000011 -4.9539595e-7 -0.86602534
vn 0.38229153 0.64452519 -0.66214837
vn -0.38255915 0.64500530 -0.66152601
vn -0.50000011 -4.9539595e-7 -0.86602534
vn -1.00000000 -1.1755668e-7 8.9406969e-8
vn -0.38255915 0.64500530 -0.66152601
vn -0.86537738 -0.50112073 1.0316101e-7
vn 1.2482020e-2 0.42776519 -0.90380371
vn -1.00000000 -1.1755668e-7 8.9406969e-8
vn -0.49999994 1.7422513e-7 0.86602544
vn -0.38255911 0.64500520 0.66152613
vn -0.86537738 -0.50112073 1.0316101e-7
vn 1.2481925e-2 0.42776490 0.90380385
vn -0.49999994 1.7422513e-7 0.86602544
vn 0.50000015 2.9178190e-7 0.86602532
vn -0.38255911 0.64500520 0.66152613
vn 0.38229168 0.64452511 0.66214836
vn 0.50000015 2.9178190e-7 0.86602532
vn 1.00000000 2.3511351e-7 -5.9604655e-8
vn 0.38229168 0.64452511 0.66214836
vn 0.76458304 0.64452523 -6.0229264e-8
vn 1.9330009e-3 0.99999813 7.6901740e-8
vn 0.38229153 0.64452519 -0.66214837
vn 0.76458304 0.64452523 -6.0229264e-8
vn 1.9330009e-3 0.99999813 7.6901740e-8
vn 0.38229153 0.64452519 -0.66214837
vn -0.38255915 0.64500530 -0.66152601
vn 1.9330009e-3 0.99999813 7.6901740e-8
vn -0.38255915 0.64500530 -0.66152601
vn 1.2482020e-2 0.42776519 -0.90380371
vn 0.99999784 -2.0762447e-3 -7.7439996e-8
vn -0.17354619 0.12019614 -0.97746335
vn 1.9330009e-3 0.99999813 7.6901740e-8
vn -0.38255911 0.64500520 0.66152613
vn 1.2481925e-2 0.42776490 0.90380385
vn 0.99999784 -2.0762447e-3 -7.7439996e-8
vn -0.17354603 0.12019639 0.97746335
vn 1.9330009e-3 0.99999813 7.6901740e-8
vn -0.38255911 0.64500520 0.66152613
vn 0.38229168 0.64452511 0.66214836
vn 1.9330009e-3 0.99999813 7.6901740e-8
vn 0.38229168 0.64452511 0.66214836
vn 0.76458304 0.64452523 -6.0229264e-8
vn -0.86537738 -0.50112073 1.0316101e-7
vn 1.2482020e-2 0.42776519 -0.90380371
vn 1.2481925e-2 0.42776490 0.90380385
vn -0.37328370 0.92771724 9.4574232e-7
vn -0.17354619 0.12019614 -0.97746335
vn -0.17354603 0.12019639 0.97746335
vn 0.99999784 -2.0762447e-3 -7.7439996e-8
vn -0.37328370 0.92771724 9.4574232e-7
vn -0.17354619 0.12019614 -0.97746335
vn 0.99999784 -2.0762447e-3 -7.7439996e-8
vn -0.37328370 0.92771724 9.4574232e-7
vn -0.17354603 0.12019639 0.97746335
g Box01_sep2_01 - Default
usemtl 01 - Default
f 1/28/1 6/30/16 5/32/13 4/31/10 3/29/7 2/27/4
f 1/20/3 7/19/20 12/4/42 6/5/18
f 2/4/5 8/5/23 7/20/19 1/19/2
f 3/19/8 9/20/27 8/5/24 2/4/6
f 4/4/11 10/5/32 9/20/28 3/19/9
f 5/5/14 11/4/37 10/19/33 4/20/12
f 6/20/17 12/19/41 11/4/38 5/5/15
f 7/3/22 13/9/47 18/17/66 12/21/44
f 8/3/25 14/9/49 13/17/46 7/21/21
f 9/3/29 15/9/52 14/17/50 8/21/26
f 9/23/31 19/24/68 15/25/53
f 10/18/35 19/11/67 9/1/30
f 11/3/39 17/9/62 16/17/57 10/21/34
f 12/3/43 18/9/65 17/17/63 11/21/40
f 14/22/48 15/16/51 16/7/56 17/2/61 18/6/64 13/15/45
f 15/8/54 20/10/73 21/13/76 16/14/59
f 16/25/58 19/24/69 10/23/36
f 16/25/60 21/26/78 19/24/72
f 19/24/71 20/26/75 15/25/55
f 19/12/70 21/13/77 20/10/74
