# Exported from Wings 3D 0.99.04a
mtllib top.mtl
o cylinder1
#30 vertices, 26 faces
v 0.40400000 4.24633355 8.2711615e-18
v 0.20200000 4.24633355 0.34987426
v -0.20200000 4.24633355 0.34987426
v -0.40400000 4.24633355 5.7746892e-17
v -0.20200000 4.24633355 -0.34987426
v 0.20200000 4.24633355 -0.34987426
v 0.40400000 3.94414155 8.2711615e-18
v 0.20200000 3.94414155 0.34987426
v -0.20200000 3.94414155 0.34987426
v -0.40400000 3.94414155 5.7746892e-17
v -0.20200000 3.94414155 -0.34987426
v 0.20200000 3.94414155 -0.34987426
v 0.45321645 4.15050086 -0.49491415
v 0.65521645 4.15050086 -0.14503989
v 0.65521645 3.94414155 -0.14503989
v 0.45321645 3.94414155 -0.49491415
v -0.65521645 4.15050086 -0.14503989
v -0.45321645 4.15050086 -0.49491415
v -0.45321645 3.94414155 -0.49491415
v -0.65521645 3.94414155 -0.14503989
v 0.20200000 4.15050086 0.63995404
v -0.20200000 4.15050086 0.63995404
v -0.20200000 3.94414155 0.63995404
v 0.20200000 3.94414155 0.63995404
v 0.12887600 4.35424430 0.22321978
v 0.25775200 4.35424430 8.6261738e-18
v 0.12887600 4.35424430 -0.22321978
v -0.12887600 4.35424430 -0.22321978
v -0.25775200 4.35424430 4.0191690e-17
v -0.12887600 4.35424430 0.22321978
vt 3.1873350e-3 4.8912170e-3
vt 3.5570120e-3 5.5315163e-3
vt 3.6470822e-3 4.6257818e-3
vt 4.0167592e-3 3.4546120e-3
vt 4.0167592e-3 3.9854824e-3
vt 4.0167592e-3 5.2660811e-3
vt 4.2590952e-3 0.33523694
vt 4.2590952e-3 0.47349615
vt 4.2590952e-3 0.47349615
vt 4.4992199e-3 0.33104450
vt 4.5235972e-3 0.19137294
vt 4.5340640e-3 9.8305821e-2
vt 4.5340640e-3 3.8920905e-3
vt 4.5340640e-3 3.8920905e-3
vt 4.5340640e-3 9.8305821e-2
vt 4.5340640e-3 3.8920905e-3
vt 4.5340640e-3 9.8305821e-2
vt 4.5495993e-3 0.19133854
vt 4.5495993e-3 0.33111117
vt 4.5756142e-3 0.33114556
vt 4.6000267e-3 0.19127190
vt 4.7561133e-3 3.4546120e-3
vt 4.7561133e-3 3.9854824e-3
vt 4.7561133e-3 5.2660811e-3
vt 5.1257903e-3 4.6257818e-3
vt 5.2158605e-3 5.5315163e-3
vt 5.5855376e-3 4.8912170e-3
vt 6.3719284e-3 0.58875328
vt 1.0375814e-2 0.10332215
vt 1.0375814e-2 0.10332227
vt 1.0375814e-2 0.10332227
vt 1.0375820e-2 0.10336025
vt 1.0375820e-2 0.10329565
vt 1.0375865e-2 0.10343635
vt 4.3804931e-2 0.17943492
vt 4.3831584e-2 0.17944971
vt 4.3831668e-2 0.17944979
vt 4.3831668e-2 0.17944979
vt 4.3858161e-2 0.17947613
vt 4.3911254e-2 0.17952887
vt 6.5335412e-2 0.69088103
vt 6.5335412e-2 0.48662553
vt 0.16173189 0.17947621
vt 0.16175855 0.17944971
vt 0.16175864 0.17944966
vt 0.16175864 0.17944966
vt 0.16178512 0.17943496
vt 0.16183816 0.17940550
vt 0.18326238 0.48662553
vt 0.18326238 0.69088103
vt 0.18909760 0.33523694
vt 0.18909760 0.33523694
vt 0.18909760 0.47349615
vt 0.18909760 0.47349615
vt 0.18933768 0.33117780
vt 0.18936209 0.19130415
vt 0.18937257 3.8920905e-3
vt 0.18937257 9.8305821e-2
vt 0.18937257 3.8920905e-3
vt 0.18937257 9.8305821e-2
vt 0.18938811 0.19133854
vt 0.18938811 0.33111117
vt 0.18941411 0.33107677
vt 0.18943849 0.19140521
vt 0.19521427 0.10324299
vt 0.19521432 0.10336037
vt 0.19521432 0.10329573
vt 0.19521432 0.10332207
vt 0.19521432 0.10332207
vt 0.19521432 0.10332215
vt 0.22417431 0.63065522
vt 0.22417431 0.72506895
vt 0.22417431 0.72506895
vt 0.22417431 0.63065522
vt 0.22417431 0.72506895
vt 0.22417431 0.63065522
vt 0.22417431 0.63065522
vt 0.22417431 0.72506895
vt 0.22417431 0.63065522
vt 0.22417431 0.72506895
vt 0.24222586 0.58875328
vt 0.35689191 0.63065522
vt 0.35689191 0.63065522
vt 0.35689191 0.63065522
vt 0.35689191 0.76891442
vt 0.35689191 0.76891442
vt 0.35689191 0.63065522
vt 0.35689191 0.76891442
vt 0.35689191 0.76891442
vn 0.70828490 0.63412279 0.31019477
vn 0.62277900 0.63412279 0.45829533
vn -0.62277900 0.63412279 0.45829533
vn -0.70828490 0.63412279 0.31019477
vn -8.5505898e-2 0.63412279 -0.76849010
vn 8.5505898e-2 0.63412279 -0.76849010
vn 0.49126003 -0.71925460 0.49126003
vn 0.67107367 -0.71925460 0.17981365
vn -0.67107367 -0.71925460 0.17981365
vn -0.49126003 -0.71925460 0.49126003
vn 0.17981365 -0.71925460 -0.67107367
vn -0.17981365 -0.71925460 -0.67107367
vn 0.33482124 0.49855113 -0.79958834
vn 0.85987443 0.49855113 0.10983047
vn 0.78867513 -0.57735027 0.21132487
vn 0.21132487 -0.57735027 -0.78867513
vn -0.85987443 0.49855113 0.10983047
vn -0.33482124 0.49855113 -0.79958834
vn -0.21132487 -0.57735027 -0.78867513
vn -0.78867513 -0.57735027 0.21132487
vn 0.52505319 0.49855113 0.68975787
vn -0.52505319 0.49855113 0.68975787
vn -0.57735027 -0.57735027 0.57735027
vn 0.57735027 -0.57735027 0.57735027
vn 0.20340853 0.91350965 0.35231391
vn 0.40681706 0.91350965 -9.6499728e-16
vn 0.20340853 0.91350965 -0.35231391
vn -0.20340853 0.91350965 -0.35231391
vn -0.40681706 0.91350965 -3.8197809e-16
vn -0.20340853 0.91350965 0.35231391
g cylinder1_cylinder3_auv
usemtl cylinder3_auv
f 1/64/1 14/55/14 13/10/13 6/21/6
f 1/65/1 26/48/26 25/40/25 2/34/2
f 2/9/2 8/7/8 7/52/7 1/53/1
f 2/88/2 21/73/21 24/71/24 8/83/8
f 2/70/2 25/44/25 30/36/30 3/29/3
f 3/19/3 22/18/22 21/61/21 2/62/2
f 3/69/3 30/45/30 29/37/29 4/30/4
f 4/8/4 10/7/10 9/51/9 3/53/3
f 4/85/4 17/78/17 20/77/20 10/82/10
f 4/66/4 29/43/29 28/35/28 5/33/5
f 5/56/5 18/63/18 17/20/17 4/11/4
f 5/67/5 28/47/28 27/39/27 6/32/6
f 6/8/6 12/7/12 11/51/11 5/54/5
f 6/86/6 13/72/13 16/71/16 12/83/12
f 6/68/6 27/46/27 26/38/26 1/31/1
f 7/84/7 15/79/15 14/80/14 1/86/1
f 8/5/8 9/23/9 10/25/10 11/24/11 12/6/12 7/3/7
f 8/5/8 24/4/24 23/22/23 9/23/9
f 9/87/9 23/76/23 22/72/22 3/89/3
f 10/25/10 20/27/20 19/26/19 11/24/11
f 11/83/11 19/74/19 18/75/18 5/86/5
f 12/6/12 16/2/16 15/1/15 7/3/7
f 14/15/14 15/13/15 16/57/16 13/58/13
f 18/17/18 19/16/19 20/57/20 17/58/17
f 22/12/22 23/14/23 24/59/24 21/60/21
f 26/81/26 27/50/27 28/41/28 29/28/29 30/42/30 25/49/25
