# Exported from Wings 3D 0.99.04a
mtllib base.mtl
o hull_sep6
#70 vertices, 78 faces
v 0.78181386 0.22018614 -1.00099993
v 0.33433330 1.0000000e-3 -1.00100005
v -0.33233339 1.0000000e-3 -1.00100005
v -0.77981389 0.22018614 -1.00099993
v 0.78181386 0.22018611 0.99900001
v 0.33433330 1.0000000e-3 0.99900001
v -0.33233339 1.0000000e-3 0.99900001
v -0.77981389 0.22018611 0.99900001
v 0.78181386 1.78181398 -1.00100005
v 0.33433330 2.00099993 -1.00100005
v -0.33233339 2.00099993 -1.00100005
v -0.77981389 1.78181398 -1.00100005
v 0.78181386 1.78181386 0.99899995
v 0.33433330 2.00099993 0.99900001
v -0.33233339 2.00099993 0.99900001
v -0.77981389 1.78181386 0.99899995
v 1.00100005 0.66766667 -1.00100005
v 0.33433330 0.66766667 -1.00100005
v -0.33233339 0.66766667 -1.00100005
v -0.99900001 0.66766667 -1.00100005
v -0.99900001 0.66766667 0.99900001
v 1.0000000e-3 1.00100017 2.49900007
v 1.00100005 0.66766667 0.99900001
v 1.00100005 1.33433342 -1.00100005
v 0.33433330 1.33433342 -1.00100005
v -0.33233339 1.33433342 -1.00100005
v -0.99900001 1.33433342 -1.00100005
v -0.99900001 1.33433342 0.99900001
v 1.00100005 1.33433342 0.99900001
v 0.38103667 0.62096339 1.99899995
v 0.16323954 0.51428139 1.99899995
v -0.16123956 0.51428139 1.99899995
v -0.37903669 0.62096339 1.99899995
v 0.38103667 1.38103676 1.99899995
v 0.16323954 1.48785937 1.99899995
v -0.16123956 1.48785937 1.99899995
v -0.37903669 1.38103676 1.99899995
v -0.48571867 0.83876050 1.99899995
v 0.48771864 0.83876050 1.99899995
v -0.48571867 1.16323972 1.99899995
v 0.48771864 1.16323972 1.99899995
v 0.12843437 1.85709560 -2.00099993
v -0.12643443 1.85709560 -2.00099993
v 0.12843437 1.60209930 -2.00099993
v -0.12643443 1.60209930 -2.00099993
v 0.12843437 1.60222685 -2.00099993
v -0.12643443 1.60222685 -2.00099993
v 7.7236265e-2 2.21842384 0.99809450
v -7.5236261e-2 2.21842384 0.99809450
v 0.12843437 1.85709560 -3.00099993
v -0.12643443 1.85709560 -3.00099993
v 0.12843437 1.60222685 -3.00099993
v -0.12643443 1.60222685 -3.00099993
v 0.46333724 1.85709560 -6.00099993
v -0.46133733 1.85709560 -6.00099993
v 0.46333724 1.60222685 -6.00099993
v -0.46133733 1.60222685 -6.00099993
v 0.46333724 1.85709560 -6.44230175
v -0.46133733 1.85709560 -6.44230175
v 0.46333724 1.60222685 -6.44230175
v -0.46133733 1.60222685 -6.44230175
v 9.9999888e-4 1.72966123 -6.61734915
v 0.77162266 0.85857475 -1.64986670
v 0.58728617 0.85857475 -1.64986670
v -0.58528620 0.85857475 -1.64986670
v -0.76962268 0.85857475 -1.64986670
v 0.77162266 1.14342523 -1.64986670
v 0.58728617 1.14342523 -1.64986670
v -0.58528620 1.14342523 -1.64986670
v -0.76962268 1.14342523 -1.64986670
vt 1.3610773e-2 1.4196917e-2
vt 1.3610773e-2 8.4993377e-2
vt 1.3610773e-2 0.15578987
vt 1.3941634e-2 0.30454543
vt 2.2541989e-2 0.36124957
vt 2.2541989e-2 0.42620042
vt 3.2530714e-2 0.25544763
vt 3.2530714e-2 0.35364324
vt 7.9394624e-2 0.25544763
vt 7.9394624e-2 0.35364324
vt 8.0041289e-2 0.16349819
vt 8.6839855e-2 0.36124957
vt 8.6839855e-2 0.42620042
vt 0.11980539 2.9478803e-2
vt 0.11980539 5.6551293e-2
vt 0.13043633 0.38260406
vt 0.14216512 0.11627947
vt 0.14216512 0.14334030
vt 0.14216512 0.18365614
vt 0.14216512 0.21071699
vt 0.15179077 0.42620042
vt 0.22600025 2.9478803e-2
vt 0.22600025 5.6544527e-2
vt 0.26641297 6.6483796e-2
vt 0.26641297 0.12208225
vt 0.26641297 0.20491414
vt 0.26641297 0.26051271
vt 0.39797890 0.29101259
vt 0.39797890 0.31807831
vt 0.42261106 0.43459052
vt 0.47831631 0.45916796
vt 0.47921005 0.41636461
vt 0.49648404 0.85355908
vt 0.49648404 0.92435557
vt 0.50581986 0.29094076
vt 0.50581986 0.31800649
vt 0.51490867 6.6483736e-2
vt 0.51490867 0.26051271
vt 0.51581323 0.20728460
vt 0.51590627 0.12206863
vt 0.54400420 0.90107924
vt 0.54458433 2.9478803e-2
vt 0.54458433 5.6544527e-2
vt 0.55432236 0.21927704
vt 0.55432236 0.23885264
vt 0.55441499 0.10836664
vt 0.56728053 0.85355908
vt 0.58457196 0.21927704
vt 0.58457196 0.23885264
vt 0.59144825 2.9478803e-2
vt 0.59144825 5.6544527e-2
vt 0.59864920 0.14380702
vt 0.59870106 0.18301158
vt 0.61009908 0.22245510
vt 0.61187989 0.26991993
vt 0.61187989 0.34055567
vt 0.61529106 0.38968307
vt 0.61653900 6.1147913e-2
vt 0.61653900 8.8208750e-2
vt 0.61653900 0.12852459
vt 0.61653900 0.15558544
vt 0.62251228 0.45130062
vt 0.62289655 0.42947370
vt 0.62359595 0.35852349
vt 0.63712883 0.41102248
vt 0.65066171 0.35852349
vt 0.74078685 1.1352181e-2
vt 0.74078685 6.6950694e-2
vt 0.74078685 0.14978266
vt 0.74078685 0.20538102
vt 0.82239246 0.29840842
vt 0.82239246 0.31400901
vt 0.82248855 0.22245510
vt 0.82248855 0.27083623
vt 0.84612995 0.33453059
vt 0.84612995 0.33454418
vt 0.87319571 0.33453059
vt 0.87319571 0.33454418
vt 0.92796093 0.22214787
vt 0.92868328 0.26501554
vt 0.92868328 0.28814447
vt 0.96082681 0.26559252
vt 0.97910613 0.24745430
vt 0.98243636 0.22191943
vt 0.98928255 1.1352181e-2
vt 0.98928255 6.6950694e-2
vt 0.98928255 0.14978266
vt 0.98928255 0.20538102
vn 0.62516690 -0.62516697 -0.46726075
vn 0.15754412 -0.67978177 -0.71629365
vn -0.15754414 -0.67978177 -0.71629365
vn -0.62516695 -0.62516692 -0.46726075
vn 0.68342746 -0.68342753 0.25661979
vn 0.21839449 -0.94454807 0.24521988
vn -0.21839451 -0.94454806 0.24521989
vn -0.68342751 -0.68342748 0.25661978
vn 0.62516681 0.62516704 -0.46726078
vn 0.46569820 0.82211474 -0.32749433
vn -0.46569818 0.82211475 -0.32749433
vn -0.62516686 0.62516699 -0.46726078
vn 0.68345605 0.68340415 0.25660590
vn 0.53122404 0.81286003 0.23887150
vn -0.53122398 0.81286006 0.23887151
vn -0.68345610 0.68340410 0.25660590
vn 0.79910933 -0.39358800 -0.45443676
vn 1.2199745e-2 -0.43179520 -0.90188917
vn -1.2199736e-2 -0.43179521 -0.90188917
vn -0.79910935 -0.39358798 -0.45443674
vn -0.94454807 -0.21839449 0.24521987
vn 6.4459921e-9 -6.3037664e-5 1.00000000
vn 0.94454806 -0.21839453 0.24521989
vn 0.79910931 0.39358797 -0.45443681
vn 0.41343269 0.38611907 -0.82461232
vn -0.41343268 0.38611908 -0.82461232
vn -0.79910933 0.39358795 -0.45443679
vn -0.94454806 0.21839453 0.24521986
vn 0.94454805 0.21839458 0.24521988
vn 0.55433517 -0.55433517 0.62082609
vn 0.17899457 -0.77844960 0.60164538
vn -0.17899457 -0.77844960 0.60164538
vn -0.55433518 -0.55433515 0.62082610
vn 0.55443466 0.55424903 0.62081416
vn 0.26352844 0.75130309 0.60505904
vn -0.26352841 0.75130309 0.60505904
vn -0.55443467 0.55424901 0.62081416
vn -0.77844964 -0.17899456 0.60164533
vn 0.77844963 -0.17899457 0.60164534
vn -0.77844964 0.17899462 0.60164532
vn 0.77844963 0.17899463 0.60164532
vn 0.70001915 0.70367936 -0.12169039
vn -0.70001915 0.70367936 -0.12169040
vn 0.43610134 -0.32532354 -0.83903529
vn -0.43610134 -0.32532354 -0.83903529
vn 0.86414067 -0.29204719 -0.40984064
vn -0.86414066 -0.29204719 -0.40984065
vn 0.34002744 0.90405867 0.25895803
vn -0.34002736 0.90405870 0.25895804
vn 0.70546874 0.70765308 3.9255327e-2
vn -0.70546874 0.70765308 3.9255331e-2
vn 0.70546874 -0.70765308 3.9255327e-2
vn -0.70546874 -0.70765308 3.9255331e-2
vn 0.70546874 0.70765308 3.9255327e-2
vn -0.70546874 0.70765308 3.9255331e-2
vn 0.70546874 -0.70765308 3.9255327e-2
vn -0.70546874 -0.70765308 3.9255331e-2
vn 0.49690158 0.66364002 -0.55916970
vn -0.49690156 0.66364002 -0.55916971
vn 0.49690158 -0.66364002 -0.55916970
vn -0.49690156 -0.66364002 -0.55916971
vn 1.8269599e-8 0.0000000e+0 -1.00000000
vn 0.44849390 -0.45635045 -0.76850341
vn -0.43940677 -0.45243933 -0.77602857
vn 0.43940679 -0.45243934 -0.77602855
vn -0.44849392 -0.45635046 -0.76850339
vn 0.44849388 0.45635040 -0.76850345
vn -0.43940675 0.45243928 -0.77602861
vn 0.43940677 0.45243929 -0.77602859
vn -0.44849390 0.45635041 -0.76850343
g hull_sep6_01 - Default
usemtl 01 - Default
f 1/88/1 5/70/5 6/69/6 2/87/2
f 1/38/1 17/39/17 23/26/23 5/27/5
f 2/87/2 6/69/6 7/68/7 3/86/3
f 2/12/2 18/13/18 17/21/17 1/16/1
f 3/86/3 7/68/7 8/67/8 4/85/4
f 3/12/3 19/13/19 18/6/18 2/5/2
f 4/16/4 20/21/20 19/13/19 3/12/3
f 5/70/5 30/61/30 31/60/31 6/69/6
f 6/69/6 31/60/31 32/59/32 7/68/7
f 7/68/7 32/59/32 33/58/33 8/67/8
f 8/27/8 21/26/21 20/39/20 4/38/4
f 8/27/8 33/20/33 38/19/38 21/26/21
f 9/41/9 24/34/24 25/33/25 10/47/10
f 10/55/10 14/74/14 13/73/13 9/54/9
f 10/56/10 42/36/42 43/35/43 11/55/11
f 10/55/10 48/71/48 14/74/14
f 11/47/11 26/33/26 27/34/27 12/41/12
f 11/1/11 43/14/43 47/15/47 26/2/26
f 11/55/11 49/71/49 48/72/48 10/56/10
f 12/54/12 16/73/16 15/74/15 11/55/11
f 12/37/12 27/40/27 28/25/28 16/24/16
f 13/24/13 29/25/29 24/40/24 9/37/9
f 13/24/13 34/17/34 41/18/41 29/25/29
f 14/74/14 35/81/35 34/80/34 13/73/13
f 14/57/14 48/63/48 35/32/35
f 15/74/15 49/71/49 11/55/11
f 16/73/16 37/80/37 36/81/36 15/74/15
f 17/39/17 24/40/24 29/25/29 23/26/23
f 17/39/17 63/53/63 67/52/67 24/40/24
f 18/3/18 44/15/44 46/15/46 25/2/25
f 18/40/18 64/52/64 63/53/63 17/39/17
f 19/55/19 45/35/45 44/36/44 18/56/18
f 19/39/19 65/53/65 69/52/69 26/40/26
f 20/39/20 66/53/66 65/52/65 19/40/19
f 21/26/21 28/25/28 27/40/27 20/39/20
f 21/26/21 38/19/38 40/18/40 28/25/28
f 22/79/22 31/82/31 30/83/30
f 22/46/22 32/59/32 31/60/31
f 22/79/22 33/83/33 32/84/32
f 22/79/22 38/82/38 33/83/33
f 22/11/22 40/18/40 38/19/38
f 22/79/22 41/84/41 34/83/34
f 23/26/23 39/19/39 30/20/30 5/27/5
f 24/39/24 67/53/67 68/52/68 25/40/25
f 25/2/25 46/15/46 42/14/42 10/1/10
f 25/39/25 68/53/68 64/52/64 18/40/18
f 26/2/26 47/15/47 45/15/45 19/3/19
f 26/39/26 69/53/69 70/52/70 27/40/27
f 27/40/27 70/52/70 66/53/66 20/39/20
f 28/25/28 40/18/40 37/17/37 16/24/16
f 29/25/29 41/18/41 39/19/39 23/26/23
f 30/83/30 39/84/39 22/79/22
f 34/83/34 35/82/35 22/79/22
f 35/32/35 36/31/36 22/30/22
f 35/32/35 48/63/48 49/62/49 36/31/36
f 36/84/36 37/83/37 22/79/22
f 36/32/36 49/63/49 15/57/15
f 37/83/37 40/82/40 22/79/22
f 39/19/39 41/18/41 22/11/22
f 42/36/42 50/29/50 51/28/51 43/35/43
f 43/14/43 51/22/51 53/23/53 47/15/47
f 45/77/45 47/78/47 46/76/46 44/75/44
f 46/15/46 52/23/52 50/22/50 42/14/42
f 47/35/47 53/28/53 52/29/52 46/36/46
f 50/29/50 54/10/54 55/9/55 51/28/51
f 51/22/51 55/42/55 57/43/57 53/23/53
f 52/23/52 56/43/56 54/42/54 50/22/50
f 53/28/53 57/9/57 56/10/56 52/29/52
f 54/10/54 58/8/58 59/7/59 55/9/55
f 55/42/55 59/50/59 61/51/61 57/43/57
f 56/43/56 60/51/60 58/50/58 54/42/54
f 57/9/57 61/7/61 60/8/60 56/10/56
f 58/8/58 62/4/62 59/7/59
f 59/66/59 62/65/62 61/64/61
f 60/64/60 62/65/62 58/66/58
f 61/7/61 62/4/62 60/8/60
f 64/49/64 68/45/68 67/44/67 63/48/63
f 66/45/66 70/49/70 69/48/69 65/44/65
