# Exported from Wings 3D 0.99.04a
mtllib tail.mtl
o hull
#9 vertices, 14 faces
v 0.50099999 1.84983504 -6.44516993
v -0.49900001 1.84983504 -6.44516993
v 9.9990284e-4 3.43546963 -7.34138346
v 9.9996454e-4 2.84983492 -7.44516993
v 0.50099999 1.84983504 -7.44516993
v -0.49900001 1.84983504 -7.44516993
v 9.9998573e-4 1.0000000e-3 -7.00099993
v 9.9997583e-4 4.51466608 -8.44517040
v 9.9999423e-4 1.14725125 -7.95318890
vt 2.0252734e-2 0.44121394
vt 4.5171827e-2 0.24363935
vt 4.5172155e-2 0.15075696
vt 0.12570217 0.19719845
vt 0.16587916 0.36192268
vt 0.17650753 0.98663360
vt 0.21013689 0.54167390
vt 0.23165217 0.43250090
vt 0.32971793 0.89623123
vt 0.34082517 0.45401624
vt 0.35439867 0.98577458
vt 0.37797612 0.78055763
vt 0.40252769 0.47794694
vt 0.48404127 0.90186828
vt 0.54409516 0.38066259
vt 0.54969996 0.82699990
vt 0.54970068 0.73411757
vn 0.87861708 0.14530218 0.45488384
vn -0.87861710 0.14530212 0.45488381
vn 5.5613128e-8 0.98983116 0.14224721
vn -1.0644110e-8 0.97309272 0.23041387
vn 0.99237667 -0.10874780 -5.7986745e-2
vn -0.99237667 -0.10874781 -5.7986757e-2
vn -3.5222673e-10 -0.99990114 -1.4060739e-2
vn -6.2736532e-8 0.99213607 -0.12516397
vn 5.2483381e-9 -0.86282227 -0.50550740
g hull_01 - Default
usemtl 01 - Default
f 1/11/1 3/14/3 2/9/2
f 1/7/1 4/10/4 3/13/3
f 1/7/1 5/8/5 4/10/4
f 1/7/1 7/1/7 5/8/5
f 2/9/2 7/6/7 1/11/1
f 3/13/3 4/10/4 2/7/2
f 4/10/4 6/8/6 2/7/2
f 4/10/4 8/15/8 6/8/6
f 5/17/5 7/12/7 6/16/6
f 5/8/5 8/15/8 4/10/4
f 5/8/5 9/5/9 8/15/8
f 6/8/6 7/1/7 2/7/2
f 6/2/6 9/4/9 5/3/5
f 8/15/8 9/5/9 6/8/6
