# Exported from Wings 3D 0.99.04a
mtllib wingsrear.mtl
o hull_sep3
#25 vertices, 28 faces
v 1.70562279 2.03271079 -4.47788668
v 0.47788656 2.03271079 -4.47788668
v 1.70562279 2.03271079 -6.52411318
v 0.47788650 2.03271079 -6.52411318
v 1.70562279 1.88250923 -4.47788668
v 0.47788650 1.88250923 -4.47788668
v 1.70562279 1.88250923 -6.52411318
v 0.47788650 1.88250923 -6.52411318
v 1.70562279 1.47326386 -4.47788668
v 0.47788650 1.47326386 -4.47788668
v 1.70562279 1.47326386 -6.52411318
v 0.47788650 1.47326386 -6.52411318
v 5.59345388 1.67788661 -2.84090495
v 1.70562267 1.67788661 -7.35354471
v 0.47788650 1.67788661 -7.35354471
v 1.70562267 1.67788661 -3.65939569
v 0.47788650 1.67788661 -3.65939569
v 1.34618127 2.22889781 -5.16646194
v 0.83732784 2.22889781 -5.16646194
v 1.34618139 2.22889781 -6.22224808
v 0.83732790 2.22889781 -6.22224808
v 1.18570209 2.03271127 -6.91379690
v 0.99780768 2.03271127 -6.91379690
v 1.18570209 1.88250971 -6.91379690
v 0.99780768 1.88250971 -6.91379690
vt 1.3129421e-2 0.98769510
vt 1.3262834e-2 0.89199108
vt 1.3591982e-2 0.65588671
vt 1.3723675e-2 0.56144500
vt 0.15479201 0.98789269
vt 0.15492550 0.89218843
vt 0.15525466 0.65608430
vt 0.15538627 0.56164253
vt 0.27253336 0.88610363
vt 0.36306742 0.81824720
vt 0.39578560 0.81824708
vt 0.45869181 0.95150852
vt 0.48632017 0.88610291
vt 0.57724977 0.98075694
vt 0.57932049 0.90101123
vt 0.57932049 0.92248076
vt 0.58231109 0.85380948
vt 0.58413875 0.82279313
vt 0.60451776 0.47036055
vt 0.64819491 0.73732877
vt 0.69598776 0.88018906
vt 0.69781530 0.79641330
vt 0.77161384 0.69510806
vt 0.77161384 0.71979821
vt 0.83435273 0.29620826
vt 0.83435285 0.31558216
vt 0.86973488 0.98075694
vt 0.87136501 0.79641330
vt 0.87180549 0.90101105
vt 0.87180567 0.92248034
vt 0.87319267 0.88018906
vt 0.90141499 0.29620790
vt 0.90141523 0.31558168
vt 0.92565072 0.29620755
vt 0.92565107 0.31558156
vt 0.97342837 0.69510806
vt 0.97342837 0.71979821
vt 0.98455262 0.73732877
vt 0.98638034 0.93927366
vt 0.98672891 0.95150852
vt 0.99271333 0.29620731
vt 0.99271345 0.31558132
vn 0.55143425 0.68579722 0.47497626
vn -0.55143427 0.68579722 0.47497623
vn 0.73833688 0.57294198 -0.35580350
vn -0.73833679 0.57294203 -0.35580363
vn 0.29110636 0.85382953 0.43154632
vn -0.88522650 0.28626535 0.36664178
vn 0.64256205 0.63746275 -0.42515321
vn -0.96070046 -7.7685111e-3 -0.27747841
vn 3.9450602e-4 -0.99250717 0.12218573
vn -0.70976070 -0.69916486 8.6071128e-2
vn 8.1196271e-2 -0.98954746 -0.11917632
vn -0.70969379 -0.69936461 -8.4993344e-2
vn 0.99909797 1.9340984e-7 4.2464647e-2
vn 0.49491035 9.2910175e-8 -0.86894404
vn -0.90185977 2.9265331e-8 -0.43202889
vn -0.10461738 6.9579877e-8 0.99451255
vn -0.89973546 2.9912832e-8 0.43643568
vn 0.16562534 0.98162870 9.4727738e-2
vn -0.16562538 0.98162869 9.4727734e-2
vn 0.18485674 0.97093664 -0.15201985
vn -0.18485674 0.97093663 -0.15201989
vn 0.26520804 0.59651071 -0.75752206
vn -0.26520788 0.59651067 -0.75752215
vn 0.27962182 -0.46623296 -0.83930833
vn -0.27962164 -0.46623293 -0.83930840
g hull_sep3_01 - Default
usemtl 01 - Default
f 1/29/1 5/30/5 7/16/7 3/15/3
f 1/39/1 18/31/18 19/28/19 2/38/2
f 2/36/2 6/37/6 5/24/5 1/23/1
f 2/38/2 19/28/19 21/22/21 4/20/4
f 3/20/3 20/22/20 18/28/18 1/38/1
f 3/20/3 22/18/22 20/22/20
f 4/15/4 8/16/8 6/30/6 2/29/2
f 4/25/4 23/32/23 25/33/25 8/26/8
f 5/7/5 13/19/13 7/6/7
f 5/7/5 16/8/16 13/19/13
f 6/3/6 17/4/17 16/8/16 5/7/5
f 7/6/7 14/5/14 15/1/15 8/2/8
f 7/42/7 24/35/24 22/34/22 3/41/3
f 8/16/8 12/14/12 10/27/10 6/30/6
f 8/16/8 15/12/15 12/14/12
f 8/13/8 25/11/25 24/10/24 7/9/7
f 9/7/9 16/8/16 17/4/17 10/3/10
f 10/3/10 12/2/12 11/6/11 9/7/9
f 10/27/10 17/40/17 6/30/6
f 11/6/11 13/19/13 9/7/9
f 11/6/11 14/5/14 13/19/13
f 12/2/12 15/1/15 14/5/14 11/6/11
f 13/19/13 14/5/14 7/6/7
f 13/19/13 16/8/16 9/7/9
f 18/31/18 20/21/20 21/22/21 19/28/19
f 20/21/20 22/17/22 23/18/23 21/22/21
f 21/22/21 23/18/23 4/20/4
f 22/34/22 24/35/24 25/33/25 23/32/23
o hull_sep2
#25 vertices, 28 faces
v -1.70362270 2.03271079 -4.47788668
v -0.47588658 2.03271079 -4.47788668
v -1.70362270 2.03271079 -6.52411318
v -0.47588652 2.03271079 -6.52411318
v -1.70362270 1.88250923 -4.47788668
v -0.47588652 1.88250923 -4.47788668
v -1.70362270 1.88250923 -6.52411318
v -0.47588652 1.88250923 -6.52411318
v -1.70362270 1.47326386 -4.47788668
v -0.47588652 1.47326386 -4.47788668
v -1.70362270 1.47326386 -6.52411318
v -0.47588652 1.47326386 -6.52411318
v -5.59145403 1.67788661 -2.84090495
v -1.70362258 1.67788661 -7.35354471
v -0.47588652 1.67788661 -7.35354471
v -1.70362258 1.67788661 -3.65939569
v -0.47588652 1.67788661 -3.65939569
v -1.34418118 2.22889781 -5.16646194
v -0.83532786 2.22889781 -5.16646194
v -1.34418130 2.22889781 -6.22224808
v -0.83532792 2.22889781 -6.22224808
v -1.18370199 2.03271127 -6.91379690
v -0.99580771 2.03271127 -6.91379690
v -1.18370199 1.88250971 -6.91379690
v -0.99580771 1.88250971 -6.91379690
vt 1.3129421e-2 0.98769510
vt 1.3262834e-2 0.89199108
vt 1.3591982e-2 0.65588671
vt 1.3723675e-2 0.56144500
vt 0.15479201 0.98789269
vt 0.15492550 0.89218843
vt 0.15525466 0.65608430
vt 0.15538627 0.56164253
vt 0.27253336 0.88610363
vt 0.36306742 0.81824720
vt 0.39578560 0.81824708
vt 0.45869181 0.95150852
vt 0.48632017 0.88610291
vt 0.57724977 0.98075694
vt 0.57932049 0.90101123
vt 0.57932049 0.92248076
vt 0.58231109 0.85380948
vt 0.58413875 0.82279313
vt 0.60451776 0.47036055
vt 0.64819491 0.73732877
vt 0.69598776 0.88018906
vt 0.69781530 0.79641330
vt 0.77161384 0.69510806
vt 0.77161384 0.71979821
vt 0.83435273 0.29620826
vt 0.83435285 0.31558216
vt 0.86973488 0.98075694
vt 0.87136501 0.79641330
vt 0.87180549 0.90101105
vt 0.87180567 0.92248034
vt 0.87319267 0.88018906
vt 0.90141499 0.29620790
vt 0.90141523 0.31558168
vt 0.92565072 0.29620755
vt 0.92565107 0.31558156
vt 0.97342837 0.69510806
vt 0.97342837 0.71979821
vt 0.98455262 0.73732877
vt 0.98638034 0.93927366
vt 0.98672891 0.95150852
vt 0.99271333 0.29620731
vt 0.99271345 0.31558132
vn -0.55143425 0.68579722 0.47497626
vn 0.55143427 0.68579722 0.47497623
vn -0.73833688 0.57294198 -0.35580350
vn 0.73833679 0.57294203 -0.35580363
vn -0.29110636 0.85382953 0.43154632
vn 0.88522650 0.28626535 0.36664178
vn -0.64256205 0.63746275 -0.42515321
vn 0.96070046 -7.7685111e-3 -0.27747841
vn -3.9450599e-4 -0.99250717 0.12218573
vn 0.70976070 -0.69916486 8.6071128e-2
vn -8.1196266e-2 -0.98954746 -0.11917632
vn 0.70969379 -0.69936461 -8.4993344e-2
vn -0.99909797 1.9340984e-7 4.2464645e-2
vn -0.49491033 9.2910172e-8 -0.86894405
vn 0.90185977 2.9265331e-8 -0.43202889
vn 0.10461737 6.9579877e-8 0.99451255
vn 0.89973546 2.9912832e-8 0.43643568
vn -0.16562534 0.98162870 9.4727738e-2
vn 0.16562538 0.98162869 9.4727734e-2
vn -0.18485674 0.97093664 -0.15201985
vn 0.18485674 0.97093663 -0.15201989
vn -0.26520804 0.59651071 -0.75752206
vn 0.26520788 0.59651067 -0.75752215
vn -0.27962182 -0.46623296 -0.83930833
vn 0.27962164 -0.46623293 -0.83930840
g hull_sep2_01 - Default
usemtl 01 - Default
f 26/78/26 30/79/30 31/66/31 27/65/27
f 26/80/26 43/70/43 45/64/45 28/62/28
f 27/71/27 31/72/31 33/58/33 29/57/29
f 27/80/27 44/70/44 43/73/43 26/81/26
f 28/71/28 32/72/32 30/58/30 26/57/26
f 28/84/28 47/77/47 49/76/49 32/83/32
f 29/62/29 46/64/46 44/70/44 27/80/27
f 29/62/29 48/60/48 46/64/46
f 30/49/30 41/50/41 42/46/42 31/45/31
f 31/72/31 35/69/35 37/56/37 33/58/33
f 31/72/31 42/82/42 35/69/35
f 32/48/32 38/61/38 30/49/30
f 32/48/32 39/47/39 38/61/38
f 32/51/32 49/52/49 50/53/50 33/55/33
f 33/44/33 40/43/40 39/47/39 32/48/32
f 33/67/33 50/74/50 48/75/48 29/68/29
f 34/49/34 36/48/36 37/44/37 35/45/35
f 34/49/34 38/61/38 36/48/36
f 34/49/34 41/50/41 38/61/38
f 35/45/35 42/46/42 41/50/41 34/49/34
f 36/48/36 39/47/39 40/43/40 37/44/37
f 37/56/37 40/54/40 33/58/33
f 38/61/38 39/47/39 36/48/36
f 38/61/38 41/50/41 30/49/30
f 44/70/44 46/64/46 45/63/45 43/73/43
f 45/64/45 47/60/47 28/62/28
f 46/64/46 48/60/48 47/59/47 45/63/45
f 48/75/48 50/74/50 49/76/49 47/77/47
