# Exported from Wings 3D 0.99.04a
mtllib wingsfront.mtl
o hull_sep5
#27 vertices, 29 faces
v -1.59899998 1.16161668 0.49900001
v -0.99900001 1.16161668 0.49900001
v -1.59899998 1.16161668 -0.50099993
v -0.99900001 1.16161668 -0.50099999
v -1.59899998 1.00100005 0.49900001
v -0.99900001 1.00100005 0.49900001
v -1.59899998 1.00100005 -0.50099999
v -0.99900001 1.00100005 -0.50099999
v -1.59899998 0.80099994 0.49900001
v -0.99900001 0.80099994 0.49900001
v -1.59899998 0.80099994 -0.50099999
v -0.99900001 0.80099994 -0.50099999
v -3.49900007 0.90099996 1.29899991
v -1.59899986 0.90099996 -0.90634662
v -0.99900001 0.90099996 -0.90634662
v -1.59899986 0.90099996 0.89899999
v -0.99900001 0.90099996 0.89899999
v -1.42333937 1.35552466 0.77329415
v -1.17466056 1.35552466 0.77329427
v -1.42333937 1.35552466 -0.50099993
v -1.17466044 1.35552466 -0.50099993
v -1.59900010 1.16161680 -0.69144005
v -0.99900013 1.16161692 -0.69144011
v -1.59900010 1.00100017 -0.69144005
v -0.99900013 1.00100017 -0.69144011
v -1.42333949 1.35552478 -0.96573418
v -1.17466056 1.35552478 -0.96573418
vt 1.3902344e-2 0.54506189
vt 4.7288090e-2 0.49292949
vt 9.4551861e-2 0.49292886
vt 0.12793851 0.54506105
vt 0.39417160 0.74601531
vt 0.40499887 0.33021414
vt 0.40499902 0.35677731
vt 0.49844536 0.33021343
vt 0.49844551 0.35677660
vt 0.70712084 0.38363585
vt 0.70732111 0.45108673
vt 0.70814741 0.61748952
vt 0.70834541 0.68405062
vt 0.80967003 0.38571510
vt 0.80987036 0.45079026
vt 0.81069684 0.61719304
vt 0.81089461 0.68646193
vt 0.82742590 0.34824207
vt 0.82742661 0.59184766
vt 0.82742691 0.68069047
vt 0.86449516 0.40067834
vt 0.86449575 0.59184766
vt 0.86449593 0.62825352
vt 0.89520007 0.40067834
vt 0.89520067 0.59184754
vt 0.89520079 0.62825352
vt 0.91464871 0.32493198
vt 0.91465002 0.67005843
vt 0.93376589 0.40139985
vt 0.93376648 0.59256876
vt 0.94943875 0.39166692
vt 0.94943947 0.60022140
vt 0.94943982 0.67628121
vt 0.99013799 0.39166674
vt 0.99013895 0.60022116
vt 0.99013919 0.67628098
vn -0.73970939 -6.1682464e-2 0.67009349
vn 0.73970940 -6.1682574e-2 0.67009348
vn -0.93303727 0.35977972 3.0544732e-7
vn 0.93303736 0.35977950 -1.3138354e-7
vn -0.29110635 0.85382944 0.43154649
vn 0.88522649 0.28626526 0.36664188
vn -0.76359891 0.62686940 -0.15476257
vn 0.99818562 -7.2640247e-3 -5.9772015e-2
vn -3.9450518e-4 -0.99250717 0.12218577
vn 0.70976070 -0.69916486 8.6071152e-2
vn -8.1196293e-2 -0.98954745 -0.11917637
vn 0.70969380 -0.69936460 -8.4993375e-2
vn -0.99909798 -1.9788026e-7 4.2464458e-2
vn -0.49491031 -9.5057672e-8 -0.86894407
vn 0.90185961 -2.9941786e-8 -0.43202922
vn 0.10461735 -7.1188123e-8 0.99451255
vn 0.89973531 -3.0604249e-8 0.43643598
vn -0.58350545 0.67302152 0.45449249
vn 0.58350557 0.67302137 0.45449256
vn -0.40535430 0.91415966 2.1071761e-7
vn 0.40535452 0.91415957 1.0723920e-7
vn -0.73970959 -6.1682402e-2 -0.67009328
vn 0.73970930 -6.1682545e-2 -0.67009359
vn -0.57735031 -0.57735025 -0.57735025
vn 0.57734999 -0.57735005 -0.57735077
vn -0.58350537 0.67302189 -0.45449204
vn 0.58350569 0.67302145 -0.45449229
g hull_sep5_01 - Default
usemtl 01 - Default
f 1/7/1 5/6/5 6/8/6 2/9/2
f 1/21/1 18/18/18 20/19/20 3/22/3
f 2/21/2 6/24/6 8/25/8 4/22/4
f 2/1/2 19/2/19 18/3/18 1/4/1
f 3/22/3 7/25/7 5/24/5 1/21/1
f 3/22/3 22/23/22 24/26/24 7/25/7
f 4/22/4 21/19/21 19/18/19 2/21/2
f 4/22/4 23/23/23 27/20/27 21/19/21
f 5/12/5 16/13/16 17/17/17 6/16/6
f 6/24/6 10/29/10 12/30/12 8/25/8
f 6/24/6 17/27/17 10/29/10
f 7/11/7 13/5/13 5/12/5
f 7/11/7 14/10/14 13/5/13
f 7/8/7 24/9/24 25/7/25 8/6/8
f 8/15/8 15/14/15 14/10/14 7/11/7
f 8/25/8 25/26/25 23/23/23 4/22/4
f 9/12/9 11/11/11 12/15/12 10/16/10
f 9/12/9 13/5/13 11/11/11
f 9/12/9 16/13/16 13/5/13
f 10/16/10 17/17/17 16/13/16 9/12/9
f 11/11/11 14/10/14 15/14/15 12/15/12
f 12/30/12 15/28/15 8/25/8
f 13/5/13 14/10/14 11/11/11
f 13/5/13 16/13/16 5/12/5
f 19/34/19 21/35/21 20/32/20 18/31/18
f 20/19/20 26/20/26 22/23/22 3/22/3
f 21/35/21 27/36/27 26/33/26 20/32/20
f 22/4/22 26/3/26 27/2/27 23/1/23
f 23/7/23 25/6/25 24/8/24 22/9/22
o hull_sep4
#27 vertices, 29 faces
v 1.60100007 1.16161668 0.49900001
v 1.00100005 1.16161668 0.49900001
v 1.60100007 1.16161668 -0.50099993
v 1.00100005 1.16161668 -0.50099999
v 1.60100007 1.00100005 0.49900001
v 1.00100005 1.00100005 0.49900001
v 1.60100007 1.00100005 -0.50099999
v 1.00100005 1.00100005 -0.50099999
v 1.60100007 0.80099994 0.49900001
v 1.00100005 0.80099994 0.49900001
v 1.60100007 0.80099994 -0.50099999
v 1.00100005 0.80099994 -0.50099999
v 3.50099993 0.90099996 1.29899991
v 1.60099995 0.90099996 -0.90634662
v 1.00100005 0.90099996 -0.90634662
v 1.60099995 0.90099996 0.89899999
v 1.00100005 0.90099996 0.89899999
v 1.42533946 1.35552466 0.77329415
v 1.17666066 1.35552466 0.77329427
v 1.42533946 1.35552466 -0.50099993
v 1.17666054 1.35552466 -0.50099993
v 1.60100019 1.16161680 -0.69144005
v 1.00100017 1.16161692 -0.69144011
v 1.60100019 1.00100017 -0.69144005
v 1.00100017 1.00100017 -0.69144011
v 1.42533958 1.35552478 -0.96573418
v 1.17666066 1.35552478 -0.96573418
vt 1.3902344e-2 0.54506189
vt 4.7288090e-2 0.49292949
vt 9.4551861e-2 0.49292886
vt 0.12793851 0.54506105
vt 0.39417160 0.74601531
vt 0.40499887 0.33021414
vt 0.40499902 0.35677731
vt 0.49844536 0.33021343
vt 0.49844551 0.35677660
vt 0.70712084 0.38363585
vt 0.70732111 0.45108673
vt 0.70814741 0.61748952
vt 0.70834541 0.68405062
vt 0.80967003 0.38571510
vt 0.80987036 0.45079026
vt 0.81069684 0.61719304
vt 0.81089461 0.68646193
vt 0.82742590 0.34824207
vt 0.82742661 0.59184766
vt 0.82742691 0.68069047
vt 0.86449516 0.40067834
vt 0.86449575 0.59184766
vt 0.86449593 0.62825352
vt 0.89520007 0.40067834
vt 0.89520067 0.59184754
vt 0.89520079 0.62825352
vt 0.91464871 0.32493198
vt 0.91465002 0.67005843
vt 0.93376589 0.40139985
vt 0.93376648 0.59256876
vt 0.94943875 0.39166692
vt 0.94943947 0.60022140
vt 0.94943982 0.67628121
vt 0.99013799 0.39166674
vt 0.99013895 0.60022116
vt 0.99013919 0.67628098
vn 0.73970939 -6.1682464e-2 0.67009349
vn -0.73970938 -6.1682523e-2 0.67009350
vn 0.93303727 0.35977972 3.0544732e-7
vn -0.93303733 0.35977958 -1.3138352e-7
vn 0.29110635 0.85382944 0.43154649
vn -0.88522649 0.28626526 0.36664188
vn 0.76359892 0.62686939 -0.15476257
vn -0.99818562 -7.2640247e-3 -5.9772015e-2
vn 3.9450523e-4 -0.99250717 0.12218577
vn -0.70976070 -0.69916486 8.6071152e-2
vn 8.1196303e-2 -0.98954745 -0.11917637
vn -0.70969380 -0.69936460 -8.4993375e-2
vn 0.99909798 -1.9788025e-7 4.2464460e-2
vn 0.49491035 -9.5057677e-8 -0.86894404
vn -0.90185961 -2.9941786e-8 -0.43202922
vn -0.10461736 -7.1188123e-8 0.99451255
vn -0.89973531 -3.0604249e-8 0.43643598
vn 0.58350545 0.67302152 0.45449249
vn -0.58350547 0.67302146 0.45449256
vn 0.40535430 0.91415966 2.1071761e-7
vn -0.40535444 0.91415960 1.0723922e-7
vn 0.73970959 -6.1682402e-2 -0.67009328
vn -0.73970928 -6.1682495e-2 -0.67009362
vn 0.57735031 -0.57735025 -0.57735025
vn -0.57734999 -0.57735005 -0.57735077
vn 0.58350537 0.67302189 -0.45449204
vn -0.58350560 0.67302153 -0.45449228
g hull_sep4_01 - Default
usemtl 01 - Default
f 28/57/28 32/60/32 34/61/34 30/58/30
f 28/37/28 45/38/45 46/39/46 29/40/29
f 29/43/29 33/42/33 32/44/32 28/45/28
f 29/57/29 46/54/46 48/55/48 31/58/31
f 30/58/30 47/55/47 45/54/45 28/57/28
f 30/58/30 49/59/49 53/56/53 47/55/47
f 31/58/31 35/61/35 33/60/33 29/57/29
f 31/58/31 50/59/50 52/62/52 35/61/35
f 32/48/32 40/41/40 34/47/34
f 32/48/32 43/49/43 40/41/40
f 33/52/33 44/53/44 43/49/43 32/48/32
f 34/47/34 41/46/41 42/50/42 35/51/35
f 34/61/34 51/62/51 49/59/49 30/58/30
f 35/61/35 39/66/39 37/65/37 33/60/33
f 35/61/35 42/64/42 39/66/39
f 35/44/35 52/45/52 51/43/51 34/42/34
f 36/48/36 43/49/43 44/53/44 37/52/37
f 37/52/37 39/51/39 38/47/38 36/48/36
f 37/65/37 44/63/44 33/60/33
f 38/47/38 40/41/40 36/48/36
f 38/47/38 41/46/41 40/41/40
f 39/51/39 42/50/42 41/46/41 38/47/38
f 40/41/40 41/46/41 34/47/34
f 40/41/40 43/49/43 36/48/36
f 45/67/45 47/68/47 48/71/48 46/70/46
f 47/68/47 53/69/53 54/72/54 48/71/48
f 48/55/48 54/56/54 50/59/50 31/58/31
f 49/43/49 51/42/51 52/44/52 50/45/50
f 50/40/50 54/39/54 53/38/53 49/37/49
