# Exported from Wings 3D 1.0.1
mtllib base.mtl
o Box01_sep9
#114 vertices, 113 faces
v -0.49900001 0.50099999 0.49900001
v 0.50099999 0.50099999 0.49900007
v -0.49900001 0.50100005 -0.50099999
v 0.50099999 0.50100005 -0.50099999
v -0.49900001 1.00100005 0.49900001
v 0.50099999 1.00100005 0.49900001
v -0.49900001 1.00100005 -0.50099999
v 0.50099999 1.00100005 -0.50099999
v -1.49899995 0.50099999 0.49900007
v 1.50100005 0.50099999 0.49899998
v -1.49899995 0.50100005 -0.50099999
v 0.79446298 0.50100005 -0.50099999
v -1.49899995 1.00100005 0.49900001
v 1.50100005 1.00100005 0.49900001
v -1.49899995 1.00100005 -0.50099999
v 0.79446298 1.00100005 -0.50099999
v -0.49900001 1.0000000e-3 2.49900007
v 0.50099999 1.0000000e-3 2.49900007
v -0.49900001 1.00100005 4.49900007
v 0.50099999 1.00100005 4.49900007
v -1.49899995 1.0000000e-3 2.49900007
v 1.50100005 1.0000000e-3 2.49900007
v -1.49899995 1.00100005 2.49900007
v 1.50100005 1.00100005 2.49900007
v -0.49900001 1.50099969 0.49899998
v 0.50099999 1.50099969 0.49900001
v -1.49899995 1.50099969 0.49899992
v 1.50100005 1.50099969 0.49899980
v -0.49900001 2.00099993 2.49900031
v 0.50099999 2.00099993 2.49900031
v -1.49899995 1.50099969 2.49900007
v 1.50100005 1.50099969 2.49900007
v -0.49900001 1.0000000e-3 3.49900007
v 0.50099999 1.0000000e-3 3.49900007
v -1.49899995 1.0000000e-3 3.49900007
v 1.50100005 1.0000000e-3 3.49900007
v -1.49899995 1.00100005 3.49900007
v 1.50100005 1.00100005 3.49900007
v -0.49900001 1.50099969 3.49900007
v 0.50099999 1.50099969 3.49899983
v -1.49899995 1.50099969 3.49900007
v 1.50100005 1.50099969 3.49899983
v -0.99900001 1.0000000e-3 -1.50100005
v -0.99900001 1.00100005 -1.50100005
v -1.93672740 1.0000000e-3 -1.50100005
v -1.93672740 1.00100005 -1.50100005
v -0.99900001 1.0000000e-3 -3.50099993
v -0.99900001 1.00100005 -3.50099993
v -1.93672740 1.0000000e-3 -3.50099993
v -1.93672740 1.00100005 -3.50099993
v -1.26719618 0.50099999 -4.50099993
v -1.26719618 1.00100005 -4.50099993
v -1.60625863 0.50099999 -4.50099993
v -1.60625863 1.00100005 -4.50099993
v -0.49899998 1.50099993 -0.50100011
v -1.49899995 1.50099993 -0.50100005
v -0.99900001 2.00099993 -1.50100005
v -1.93672740 2.00099993 -1.50100005
v -0.99900001 2.00099993 -3.50099993
v -1.93672740 2.00099993 -3.50099993
v -1.26719618 1.50099993 -4.50099993
v -1.60625863 1.50099993 -4.50099993
v -2.15005589 1.00099993 1.37204731
v 2.15205574 1.00099993 1.37204731
v -2.15005589 1.00100005 2.49900007
v 2.15205574 1.00100005 2.49900007
v -2.15005589 1.20099998 1.37204707
v 2.15205574 1.20099998 1.37204707
v -2.15005589 1.20099998 2.49900007
v 2.15205574 1.20099998 2.49900007
v -2.15005589 1.00100005 2.62595272
v 2.15205574 1.00100005 2.62595272
v -2.15005589 1.20099998 2.62595272
v 2.15205574 1.20099998 2.62595272
v -0.49900001 2.00099993 0.99900001
v 0.50099999 2.00099993 0.99900013
v -1.00754142 2.00099993 0.99900001
v 1.00954151 2.00099993 0.99900001
v -1.00754142 2.00099993 2.49900031
v 1.00954151 2.00099993 2.49900031
v -0.49900001 2.00100017 3.33635259
v 0.50099999 2.00100017 3.33635259
v -1.00754142 2.00100017 3.33635259
v 1.00954151 2.00100017 3.33635259
v -0.49900001 1.0000000e-3 4.49900007
v 0.50099999 1.0000000e-3 4.49900007
v -0.76377112 1.0000000e-3 4.49900007
v 0.76577109 1.0000000e-3 4.49900007
v -0.76377112 1.00100005 4.49900007
v 0.76577109 1.00100005 4.49900007
v -0.49900001 1.16868412 4.49900007
v 0.50099999 1.16868412 4.49900007
v -0.76377112 1.16868412 4.49900007
v 0.76577109 1.16868412 4.49900007
v -3.49900007 0.34669790 1.36631310
v 3.50099993 0.34669790 1.36631310
v -3.49900007 0.65530211 1.36631310
v 3.50099993 0.65530211 1.36631310
v -3.49900007 0.34669790 1.67491734
v 3.50099993 0.34669790 1.67491734
v -3.49900007 0.65530211 1.67491734
v 3.50099993 0.65530211 1.67491734
v -0.22958283 1.40521419 4.82856894
v 0.23158289 1.40521419 4.82856894
v -0.22958283 1.90521371 3.82856870
v 0.23158289 1.90521371 3.82856846
v -0.22958283 0.40521413 4.82856894
v 0.23158289 0.40521413 4.82856894
v -0.22958283 1.57289827 4.82856894
v 0.23158289 1.57289827 4.82856894
v -0.49900001 1.63535297 0.17530915
v 0.50099999 1.63535297 0.17530914
v -0.49899998 1.38535321 -0.31449711
v 0.50099999 1.38535321 -0.31449711
vt 5.5613052e-3 0.64706892
vt 6.0657463e-3 8.8928521e-2
vt 6.0657463e-3 0.11067306
vt 6.5381657e-3 0.74059790
vt 6.5383445e-3 0.70885909
vt 7.1128309e-3 9.3433224e-3
vt 8.3820373e-3 0.78206974
vt 8.3820373e-3 0.84760207
vt 8.8032922e-3 0.34015828
vt 8.8032922e-3 0.39503184
vt 8.8032922e-3 0.49332988
vt 1.0069055e-2 0.97383231
vt 1.0070378e-2 0.85319638
vt 1.8140398e-2 0.23472528
vt 1.8140905e-2 0.18390989
vt 3.7743907e-2 0.77127069
vt 3.7744176e-2 0.70885921
vt 3.8609471e-2 0.64706904
vt 4.2129118e-2 0.34015828
vt 4.2129118e-2 0.39503184
vt 4.2129118e-2 0.49332988
vt 4.4471137e-2 0.58779961
vt 4.4471137e-2 0.61900538
vt 4.4471137e-2 0.65021104
vt 5.1038139e-2 0.17025559
vt 5.2346088e-2 0.92951846
vt 5.2346662e-2 0.88137490
vt 5.9036523e-2 0.85361379
vt 5.9036523e-2 0.87477511
vt 6.8949625e-2 0.77127087
vt 6.8949834e-2 0.70885932
vt 8.5328437e-2 8.8928521e-2
vt 8.6117677e-2 0.16834661
vt 8.6375542e-2 9.3433224e-3
vt 9.0242177e-2 0.85361379
vt 9.0242177e-2 0.87477511
vt 0.10081726 0.19566391
vt 0.10688274 0.55659384
vt 0.10688274 0.61900538
vt 0.10688274 0.68141693
vt 0.10748357 0.34015828
vt 0.10748357 0.39503184
vt 0.10748357 0.49332988
vt 0.11465832 0.97356635
vt 0.11673061 0.43442029
vt 0.11977122 0.23472641
vt 0.12144801 0.85361379
vt 0.12144801 0.87477511
vt 0.12280713 0.82138926
vt 0.12280713 0.84760207
vt 0.13216655 0.97359747
vt 0.15693538 0.92951959
vt 0.15693593 0.88137609
vt 0.16425885 0.16834514
vt 0.16563815 9.3433224e-3
vt 0.16563815 8.8847861e-2
vt 0.17447232 0.88137627
vt 0.17448264 0.93200278
vt 0.17500868 0.49676937
vt 0.19380583 0.99022621
vt 0.23142019 0.32804582
vt 0.23170586 0.55659384
vt 0.23170586 0.61900538
vt 0.23170586 0.68141693
vt 0.23531255 0.43442029
vt 0.23531255 0.49676937
vt 0.25588089 0.32804582
vt 0.27051038 0.82138926
vt 0.27051038 0.84760195
vt 0.28467974 0.93204403
vt 0.28468370 0.88137782
vt 0.28714937 0.82138914
vt 0.28714937 0.84760195
vt 0.29411733 0.58779961
vt 0.29411733 0.61900538
vt 0.29411733 0.65021104
vt 0.30403250 0.99030888
vt 0.32416350 9.3433224e-3
vt 0.32416350 8.8605881e-2
vt 0.32416350 8.9089841e-2
vt 0.32416350 0.16811055
vt 0.35622230 0.61961108
vt 0.35622230 0.65081686
vt 0.35727766 0.43561363
vt 0.35727766 0.49796262
vt 0.40157461 0.78206974
vt 0.40157461 0.84760207
vt 0.40157461 0.97866613
vt 0.40342620 9.3433224e-3
vt 0.40365422 8.8067539e-2
vt 0.40365422 0.16733018
vt 0.43236583 7.9322401e-3
vt 0.43236667 8.5946605e-2
vt 0.43319052 0.60603476
vt 0.43319076 0.54362321
vt 0.45970732 7.9319794e-3
vt 0.45970821 8.5946336e-2
vt 0.46439639 0.60603487
vt 0.46439663 0.54362339
vt 0.48104537 0.61961108
vt 0.48104537 0.68202269
vt 0.48291686 0.12769891
vt 0.48291686 0.20202574
vt 0.50260890 7.9314876e-3
vt 0.50260979 8.5945964e-2
vt 0.53259403 7.9311449e-3
vt 0.53259486 8.5945621e-2
vt 0.53259516 0.10884008
vt 0.53263891 0.82562453
vt 0.53263891 0.84760207
vt 0.53263891 0.97866613
vt 0.53591180 0.77931547
vt 0.53870952 0.98983848
vt 0.53870952 0.99008214
vt 0.55623800 0.94611025
vt 0.57160121 7.9307202e-3
vt 0.57160217 8.5945189e-2
vt 0.57160228 0.10883966
vt 0.57549840 0.94611037
vt 0.58847910 6.4466856e-3
vt 0.58847952 7.7595793e-2
vt 0.59319770 0.94920492
vt 0.59319770 0.94944870
vt 0.59832335 0.77931583
vt 0.64144224 0.12769891
vt 0.64144224 0.20202574
vt 0.65984422 0.28495777
vt 0.66353267 0.94920492
vt 0.66353267 0.94944870
vt 0.66353267 0.98983848
vt 0.66353267 0.99008214
vt 0.67145598 0.94920492
vt 0.67145598 0.94944870
vt 0.68903971 0.40413406
vt 0.68903971 0.46654567
vt 0.71455634 0.35669488
vt 0.72070491 0.14895681
vt 0.72070491 0.17583197
vt 0.72594416 0.98983848
vt 0.72594416 0.99008214
vt 0.72939026 0.59577417
vt 0.72939026 0.61063510
vt 0.72939062 0.50714964
vt 0.73077738 6.4456500e-3
vt 0.73077762 4.2020328e-2
vt 0.73579532 0.15196505
vt 0.73579556 0.18753973
vt 0.75145119 0.40413406
vt 0.75145119 0.46654567
vt 0.75285554 0.61063510
vt 0.75285566 0.59577423
vt 0.75285590 0.50714976
vt 0.75537473 0.20651728
vt 0.80694443 0.15196455
vt 0.80694479 0.18753928
vt 0.87755215 0.20610714
vt 0.87868965 0.28495574
vt 0.87869042 0.35669345
vt 0.89853632 3.1595159e-2
vt 0.89853638 6.5548150e-3
vt 0.91868949 0.96097267
vt 0.91868949 0.98023319
vt 0.93795002 0.96097267
vt 0.93795002 0.98023319
vt 0.94114619 0.65856200
vt 0.94114637 0.61337411
vt 0.97031587 0.35669255
vt 0.98811257 0.28495479
vt 0.99224973 0.68496144
vt 0.99225008 0.58697516
vt 0.99308497 9.7831972e-2
vt 0.99308527 6.5551577e-3
vn -1.0852057e-16 -0.99250755 -0.12218329
vn -9.1033662e-10 -0.99250755 -0.12218329
vn 0.28036254 -0.90727222 -0.31345487
vn -8.2860367e-16 -0.70710676 -0.70710680
vn -0.81649659 0.40824826 -0.40824831
vn 0.81649660 0.40824823 -0.40824832
vn 0.32463428 0.59118113 -0.73832070
vn 0.29524587 0.42413765 -0.85611747
vn -0.70976070 -0.69916486 -8.6071145e-2
vn 0.64826414 -0.70301183 -0.29245165
vn -0.67829904 -0.67063359 0.30026821
vn 0.40071311 -0.49063955 -0.77375826
vn -0.86866107 -1.2376609e-7 -0.49540686
vn 0.76924871 -1.6839817e-7 -0.63894947
vn -0.80858534 0.28550119 0.51446945
vn 0.40071311 0.49063957 -0.77375824
vn -1.0852054e-16 -0.99250756 -0.12218326
vn -9.1033603e-10 -0.99250756 -0.12218326
vn -0.42841920 0.0000000e+0 0.90358010
vn 0.42841927 0.0000000e+0 0.90358006
vn -0.20976614 -0.91505335 -0.34449315
vn 0.20976613 -0.91505335 -0.34449315
vn -0.45212228 -0.67706664 -0.58066016
vn 0.45212227 -0.67706665 -0.58066015
vn -0.30729602 0.71840100 -0.62407464
vn 0.30729600 0.71840100 -0.62407465
vn -0.50919590 0.61007134 -0.60706878
vn 0.50919594 0.61007132 -0.60706876
vn 0.0000000e+0 1.00000000 -1.4236456e-7
vn 0.0000000e+0 1.00000000 -1.4236456e-7
vn -0.57524343 0.81798227 -2.3118558e-8
vn 0.57524349 0.81798223 -2.3118560e-8
vn 0.0000000e+0 -1.00000000 -6.1149003e-17
vn 0.0000000e+0 -1.00000000 -6.1149003e-17
vn -0.45059580 -0.81534156 0.36356784
vn 0.45059580 -0.81534155 0.36356785
vn -0.79075591 -3.5473438e-3 0.61212132
vn 0.79075592 -3.5472439e-3 0.61212130
vn -0.27169831 0.82528873 0.49505408
vn 0.27169828 0.82528870 0.49505415
vn -0.58717931 0.61473387 0.52661439
vn 0.58717934 0.61473386 0.52661438
vn 0.70710678 -0.70710678 1.2467993e-8
vn 0.97324899 -1.3694344e-8 -0.22975292
vn -0.67829904 -0.67063358 0.30026823
vn -0.97879538 4.0698140e-9 0.20484041
vn 0.69712090 -0.67178774 -0.25044698
vn 0.99142982 0.0000000e+0 -0.13064041
vn -0.69061199 -0.67110374 -0.26958273
vn -0.98729330 0.0000000e+0 -0.15890861
vn 0.44818911 -0.41503941 -0.79175047
vn 0.60867002 0.0000000e+0 -0.79342347
vn -0.43326470 -0.40813619 -0.80355868
vn -0.58575643 0.0000000e+0 -0.81048714
vn 0.55470019 0.55470025 0.62017363
vn -0.40744593 0.39781514 0.82202855
vn 0.70710679 0.70710677 -5.9057641e-9
vn -0.67829903 0.67063359 0.30026823
vn 0.69712090 0.67178774 -0.25044699
vn -0.69061199 0.67110374 -0.26958273
vn 0.44818911 0.41503941 -0.79175047
vn -0.43326469 0.40813619 -0.80355868
vn -0.83971979 -0.46608632 -0.27862916
vn 0.83971981 -0.46608634 -0.27862908
vn -0.70710676 -0.70710680 1.3478569e-8
vn 0.70710676 -0.70710680 1.3478569e-8
vn -0.89808025 0.36738816 -0.24182185
vn 0.89808030 0.36738808 -0.24182177
vn -0.84216902 0.53921364 2.9405693e-17
vn 0.84216905 0.53921358 2.9405700e-17
vn -0.83971988 -0.46608619 0.27862914
vn 0.83971994 -0.46608610 0.27862909
vn -0.89808022 0.36738826 0.24182180
vn 0.89808023 0.36738828 0.24182173
vn 2.1816261e-8 0.92387950 -0.38268351
vn -2.7324958e-8 0.92387950 -0.38268350
vn -0.27333759 0.92295100 -0.27101294
vn 0.27333754 0.92295102 -0.27101292
vn -0.38665955 0.92222253 -1.0184387e-7
vn 0.38665955 0.92222253 -1.0184387e-7
vn 3.5026562e-8 0.80911670 0.58764799
vn 3.5026564e-8 0.80911664 0.58764808
vn -0.30536782 0.86078712 0.40718058
vn 0.30536786 0.86078705 0.40718069
vn -0.21209872 -0.72101479 0.65966037
vn 0.21209876 -0.72101480 0.65966035
vn -0.39384711 -0.48884050 0.77840826
vn 0.39384709 -0.48884049 0.77840828
vn -0.45146633 0.0000000e+0 0.89228816
vn 0.45146630 5.9263491e-8 0.89228817
vn -0.54629689 0.46631623 0.69577933
vn 0.54629697 0.46631622 0.69577928
vn -0.35368533 0.41659135 0.83747139
vn 0.35368531 0.41659144 0.83747136
vn -0.45812344 -0.66629328 -0.58836738
vn 0.45812343 -0.66629329 -0.58836738
vn -0.45812345 0.66629328 -0.58836738
vn 0.45812344 0.66629329 -0.58836738
vn -0.83159967 -0.44434092 0.33317133
vn 0.83159969 -0.44434091 0.33317130
vn -0.83159967 0.44434092 0.33317132
vn 0.83159969 0.44434091 0.33317130
vn -0.42841920 0.0000000e+0 0.90358010
vn 0.42841927 0.0000000e+0 0.90358006
vn -0.39058039 0.91030766 -0.13706540
vn 0.39058030 0.91030769 -0.13706544
vn -0.29696679 -0.24238195 0.92361340
vn 0.29696684 -0.24238196 0.92361338
vn -0.54629690 0.46631627 0.69577930
vn 0.54629700 0.46631624 0.69577924
vn -0.74039927 0.67164950 -2.6379234e-2
vn 0.74039928 0.67164950 -2.6379225e-2
vn -0.46647136 0.61912259 -0.63173704
vn 0.46647137 0.61912258 -0.63173704
g Box01_sep9_01 - Default
usemtl 01 - Default
f 1/79/1 3/90/3 4/89/4 2/78/2
f 1/79/1 9/81/9 11/91/11 3/90/3
f 1/79/1 17/56/17 21/54/21 9/81/9
f 2/78/2 18/55/18 17/56/17 1/79/1
f 3/116/3 7/106/7 8/107/8 4/117/4
f 3/24/3 43/40/43 44/39/44 7/23/7
f 4/2/4 12/3/12 10/33/10 2/32/2
f 5/14/5 111/25/111 113/37/113 7/46/7
f 6/172/6 14/171/14 16/159/16 8/160/8
f 6/31/6 26/17/26 28/16/28 14/30/14
f 6/14/6 112/25/112 26/15/26
f 7/149/7 15/135/15 13/134/13 5/148/5
f 7/95/7 55/99/55 56/98/56 15/94/15
f 7/106/7 113/104/113 114/105/114 8/107/8
f 8/107/8 16/108/16 12/118/12 4/117/4
f 8/46/8 114/37/114 112/25/112 6/14/6
f 9/83/9 13/82/13 15/75/15 11/76/11
f 9/83/9 21/101/21 23/100/23 13/82/13
f 10/81/10 22/54/22 18/56/18 2/80/2
f 11/91/11 45/103/45 43/102/43 3/90/3
f 12/155/12 16/154/16 14/146/14 10/147/10
f 13/30/13 27/16/27 25/17/25 5/31/5
f 13/8/13 63/50/63 67/49/67 27/7/27
f 14/144/14 24/120/24 22/121/22 10/145/10
f 14/114/14 64/123/64 66/129/66 24/131/24
f 15/75/15 46/63/46 45/64/45 11/76/11
f 15/75/15 56/74/56 58/62/58 46/63/46
f 17/56/17 33/32/33 35/33/35 21/54/21
f 18/55/18 34/34/34 33/32/33 17/56/17
f 19/151/19 89/141/89 87/143/87 85/152/85
f 19/151/19 91/150/91 93/142/93 89/141/89
f 19/44/19 103/52/103 109/58/109 91/51/91
f 20/44/20 104/52/104 108/26/108 86/12/86
f 21/124/21 95/119/95 97/115/97 23/112/23
f 22/54/22 36/33/36 34/32/34 18/56/18
f 22/54/22 96/67/96 100/61/100 36/33/36
f 23/130/23 65/128/65 63/122/63 13/113/13
f 23/54/23 97/67/97 101/61/101 37/33/37
f 24/131/24 66/129/66 72/133/72 38/140/38
f 24/112/24 98/115/98 96/119/96 22/124/22
f 25/18/25 75/1/75 76/5/76 26/17/26
f 25/15/25 111/25/111 5/14/5
f 26/17/26 76/5/76 78/4/78 28/16/28
f 26/93/26 112/97/112 111/96/111 25/92/25
f 27/127/27 67/153/67 69/156/69 31/157/31
f 27/16/27 77/4/77 75/5/75 25/17/25
f 28/7/28 68/49/68 64/50/64 14/8/14
f 28/127/28 78/136/78 80/158/80 32/157/32
f 29/20/29 81/19/81 82/41/82 30/42/30
f 30/42/30 76/43/76 75/21/75 29/20/29
f 30/10/30 80/20/80 78/21/78 76/11/76
f 30/10/30 82/9/82 84/19/84 80/20/80
f 31/157/31 69/156/69 73/156/73 41/168/41
f 31/157/31 79/158/79 77/136/77 27/127/27
f 32/157/32 70/156/70 68/153/68 28/127/28
f 32/157/32 80/158/80 84/167/84 42/168/42
f 33/32/33 85/2/85 87/3/87 35/33/35
f 34/34/34 86/6/86 85/2/85 33/32/33
f 35/88/35 87/111/87 89/110/89 37/87/37
f 35/33/35 99/61/99 95/67/95 21/54/21
f 36/33/36 88/3/88 86/2/86 34/32/34
f 36/124/36 100/119/100 102/115/102 38/112/38
f 37/139/37 71/132/71 65/128/65 23/130/23
f 37/87/37 89/110/89 93/109/93 41/86/41
f 37/124/37 101/119/101 99/115/99 35/112/35
f 38/87/38 72/73/72 74/72/74 42/86/42
f 38/87/38 90/110/90 88/111/88 36/88/36
f 38/33/38 102/61/102 98/67/98 24/54/24
f 39/65/39 81/66/81 83/59/83 41/45/41
f 39/169/39 105/165/105 106/166/106 40/170/40
f 40/65/40 82/66/82 81/85/81 39/84/39
f 40/172/40 92/160/92 94/159/94 42/171/42
f 40/77/40 106/70/106 110/58/110 92/60/92
f 41/86/41 73/72/73 71/73/71 37/87/37
f 41/168/41 83/167/83 79/158/79 31/157/31
f 41/171/41 93/159/93 91/160/91 39/172/39
f 42/168/42 74/156/74 70/156/70 32/157/32
f 42/45/42 84/59/84 82/66/82 40/65/40
f 42/86/42 94/109/94 90/110/90 38/87/38
f 43/40/43 47/64/47 48/63/48 44/39/44
f 44/39/44 57/38/57 55/22/55 7/23/7
f 45/103/45 49/126/49 47/125/47 43/102/43
f 46/63/46 50/39/50 49/40/49 45/64/45
f 46/63/46 58/62/58 60/38/60 50/39/50
f 47/64/47 51/76/51 52/75/52 48/63/48
f 48/63/48 59/62/59 57/38/57 44/39/44
f 49/126/49 53/138/53 51/137/51 47/125/47
f 50/39/50 54/23/54 53/24/53 49/40/49
f 50/39/50 60/38/60 62/22/62 54/23/54
f 51/29/51 53/28/53 54/35/54 52/36/52
f 52/75/52 61/74/61 59/62/59 48/63/48
f 54/35/54 62/47/62 61/48/61 52/36/52
f 55/90/55 57/102/57 58/103/58 56/91/56
f 57/102/57 59/125/59 60/126/60 58/103/58
f 59/125/59 61/137/61 62/138/62 60/126/60
f 64/50/64 68/49/68 70/68/70 66/69/66
f 65/69/65 69/68/69 67/49/67 63/50/63
f 65/69/65 71/73/71 73/72/73 69/68/69
f 70/68/70 74/72/74 72/73/72 66/69/66
f 75/21/75 77/11/77 79/10/79 29/20/29
f 79/10/79 83/9/83 81/19/81 29/20/29
f 85/12/85 107/26/107 103/52/103 19/44/19
f 86/143/86 88/152/88 90/151/90 20/141/20
f 86/13/86 108/27/108 107/26/107 85/12/85
f 90/151/90 94/150/94 92/142/92 20/141/20
f 91/60/91 109/58/109 105/70/105 39/77/39
f 92/51/92 110/58/110 104/52/104 20/44/20
f 95/163/95 99/164/99 101/162/101 97/161/97
f 98/163/98 102/164/102 100/162/100 96/161/96
f 103/52/103 107/26/107 108/27/108 104/53/104
f 104/53/104 110/57/110 109/58/109 103/52/103
f 105/70/105 109/58/109 110/57/110 106/71/106
f 112/97/112 114/105/114 113/104/113 111/96/111
