# Exported from Wings 3D 1.0.1
mtllib frontwheels.mtl
o Box01_sep8
#60 vertices, 50 faces
v 3.50100017 0.50099999 2.20506120
v 3.50100017 0.85403055 2.11046696
v 3.50100017 1.11246693 1.85203052
v 3.50099993 1.20706117 1.49899995
v 3.50099993 1.11246693 1.14596939
v 3.50099993 0.85403055 0.88753313
v 3.50099969 0.50099999 0.79293889
v 3.50099969 0.14796944 0.88753319
v 3.50099969 -0.11046687 1.14596939
v 3.50099993 -0.20506112 1.49900007
v 3.50099993 -0.11046684 1.85203063
v 3.50099993 0.14796953 2.11046696
v 3.72760725 0.50099993 2.49900007
v 3.72760725 1.00099993 2.36502528
v 3.72760725 1.36702549 1.99899995
v 3.72760701 1.50100005 1.49899995
v 3.72760701 1.36702549 0.99899995
v 3.72760677 1.00099993 0.63297451
v 3.72760677 0.50099993 0.49900001
v 3.72760677 9.9996920e-4 0.63297462
v 3.72760677 -0.36502546 0.99900001
v 3.72760701 -0.49900001 1.49899995
v 3.72760701 -0.36502537 1.99899995
v 3.72760725 1.0001004e-3 2.36502552
v 4.27439308 0.50099993 2.49899983
v 4.27439308 1.00099993 2.36502552
v 4.27439308 1.36702549 1.99899983
v 4.27439308 1.50100005 1.49899983
v 4.27439260 1.36702538 0.99899989
v 4.27439260 1.00099993 0.63297451
v 4.27439260 0.50099993 0.49899989
v 4.27439260 9.9994533e-4 0.63297457
v 4.27439260 -0.36502546 0.99899995
v 4.27439260 -0.49899998 1.49899995
v 4.27439308 -0.36502540 1.99899995
v 4.27439308 1.0000765e-3 2.36502552
v 4.50099993 0.50099993 2.20506120
v 4.50099993 0.85403049 2.11046672
v 4.50099993 1.11246693 1.85203040
v 4.50099993 1.20706117 1.49899983
v 4.50099993 1.11246681 1.14596927
v 4.50099993 0.85403049 0.88753301
v 4.50099993 0.50099993 0.79293877
v 4.50099993 0.14796939 0.88753307
v 4.50099993 -0.11046697 1.14596927
v 4.50099993 -0.20506117 1.49899995
v 4.50099993 -0.11046688 1.85203040
v 4.50099993 0.14796948 2.11046696
v 4.59064388 0.50099987 2.03976965
v 4.59064388 0.77138478 1.96732008
v 4.59064388 0.96932042 1.76938450
v 4.59064388 1.04176986 1.49899960
v 4.59064388 0.96932030 1.22861469
v 4.59064388 0.77138484 1.03067911
v 4.59064388 0.50099987 0.95822972
v 4.59064388 0.23061495 1.03067911
v 4.59064388 3.2679353e-2 1.22861469
v 4.59064388 -3.9770044e-2 1.49899960
v 4.59064388 3.2679480e-2 1.76938462
v 4.59064388 0.23061499 1.96732008
vt 0.36602509 0.46063399
vt 0.36602569 0.35595393
vt 0.46300173 0.46067476
vt 0.46300256 0.35599470
vt 0.47676691 0.55811632
vt 0.49279752 0.49828950
vt 0.49279752 0.61794347
vt 0.51193792 0.55811632
vt 0.52325648 0.51587504
vt 0.52325648 0.60035807
vt 0.53171557 0.55811632
vt 0.53659391 0.45449319
vt 0.53659391 0.66173989
vt 0.54038447 0.52576393
vt 0.54038447 0.59046906
vt 0.55417931 0.48495206
vt 0.55417931 0.63128090
vt 0.56406820 0.50208008
vt 0.56406820 0.61415279
vt 0.59642094 0.43846256
vt 0.59642094 0.47363353
vt 0.59642094 0.49341115
vt 0.59642094 0.62282163
vt 0.59642094 0.64259940
vt 0.59642094 0.68059313
vt 0.62877351 0.50208008
vt 0.62877351 0.61415279
vt 0.63866228 0.48495206
vt 0.63866228 0.63128090
vt 0.65245730 0.52576393
vt 0.65245730 0.59046906
vt 0.65624779 0.45449319
vt 0.65624779 0.66173989
vt 0.66112614 0.55811632
vt 0.66958523 0.51587504
vt 0.66958523 0.60035807
vt 0.68090385 0.55811632
vt 0.70004427 0.49828950
vt 0.70004427 0.61794347
vt 0.71607482 0.55811632
vt 0.75269079 0.49343285
vt 0.76872140 0.43360570
vt 0.76872140 0.55325955
vt 0.78786176 0.49343285
vt 0.79918039 0.45119134
vt 0.79918039 0.53567439
vt 0.81251782 0.38980937
vt 0.81251782 0.59705615
vt 0.83010322 0.42026827
vt 0.83010322 0.56659716
vt 0.87234473 0.37095630
vt 0.87234473 0.40894970
vt 0.87234473 0.57791579
vt 0.87234473 0.61308658
vt 0.91458625 0.42026827
vt 0.91458625 0.56659716
vt 0.93217170 0.38980937
vt 0.93217170 0.59705615
vt 0.94550914 0.45119134
vt 0.94550914 0.53567439
vt 0.95682782 0.49343285
vt 0.97596806 0.55325955
vt 0.97596812 0.43360570
vt 0.99199867 0.49343285
vn -0.90496827 1.6294158e-7 0.42547907
vn -0.90496827 0.21273954 0.36847568
vn -0.90496830 0.36847550 0.21273969
vn -0.90496836 0.42547886 2.3794822e-7
vn -0.90496841 0.36847551 -0.21273923
vn -0.90496847 0.21273947 -0.36847522
vn -0.90496846 6.2622254e-8 -0.42547866
vn -0.90496841 -0.21273937 -0.36847541
vn -0.90496844 -0.36847546 -0.21273919
vn -0.90496838 -0.42547884 2.7766343e-7
vn -0.90496832 -0.36847548 0.21273966
vn -0.90496827 -0.21273934 0.36847579
vn -0.44600122 1.2693417e-7 0.89503235
vn -0.44600130 0.44751612 0.77512074
vn -0.44600134 0.77512063 0.44751627
vn -0.44600136 0.89503228 8.1545490e-8
vn -0.44600142 0.77512067 -0.44751612
vn -0.44600152 0.44751611 -0.77512062
vn -0.44600152 -4.3342004e-8 -0.89503220
vn -0.44600144 -0.44751613 -0.77512065
vn -0.44600143 -0.77512072 -0.44751602
vn -0.44600136 -0.89503228 1.8260934e-7
vn -0.44600130 -0.77512069 0.44751620
vn -0.44600122 -0.44751607 0.77512082
vn 0.44600160 5.8651026e-8 0.89503216
vn 0.44600164 0.44751602 0.77512061
vn 0.44600165 0.77512058 0.44751605
vn 0.44600154 0.89503219 -2.2927115e-7
vn 0.44600126 0.77512061 -0.44751638
vn 0.44600110 0.44751614 -0.77512084
vn 0.44600107 -7.4739320e-8 -0.89503243
vn 0.44600104 -0.44751624 -0.77512082
vn 0.44600108 -0.77512083 -0.44751619
vn 0.44600121 -0.89503236 -7.6154421e-8
vn 0.44600149 -0.77512074 0.44751593
vn 0.44600164 -0.44751603 0.77512060
vn 0.83829493 6.4077916e-8 0.54521704
vn 0.83829492 0.27260855 0.47217180
vn 0.83829489 0.47217186 0.27260854
vn 0.83829474 0.54521733 -2.3445856e-7
vn 0.83829445 0.47217232 -0.27260910
vn 0.83829428 0.27260898 -0.47217268
vn 0.83829421 -4.5011809e-8 -0.54521813
vn 0.83829420 -0.27260905 -0.47217279
vn 0.83829427 -0.47217268 -0.27260903
vn 0.83829441 -0.54521783 -7.7545251e-8
vn 0.83829471 -0.47217219 0.27260853
vn 0.83829489 -0.27260860 0.47217182
vn 0.94541386 6.3522209e-8 0.32587210
vn 0.94541381 0.16293618 0.28221361
vn 0.94541379 0.28221370 0.16293617
vn 0.94541373 0.32587249 -8.3797758e-8
vn 0.94541364 0.28221405 -0.16293645
vn 0.94541356 0.16293647 -0.28221431
vn 0.94541350 -3.1401781e-8 -0.32587317
vn 0.94541350 -0.16293654 -0.28221446
vn 0.94541355 -0.28221428 -0.16293652
vn 0.94541362 -0.32587281 2.7871011e-8
vn 0.94541371 -0.28221392 0.16293625
vn 0.94541382 -0.16293621 0.28221358
g Box01_sep8_01 - Default
usemtl 01 - Default
f 1/61/1 13/64/13 14/62/14 2/60/2
f 2/60/2 3/56/3 4/53/4 5/50/5 6/46/6 7/44/7 8/45/8 9/49/9 10/52/10 11/55/11 12/59/12 1/61/1
f 2/60/2 14/62/14 15/58/15 3/56/3
f 3/56/3 15/58/15 16/54/16 4/53/4
f 4/53/4 16/54/16 17/48/17 5/50/5
f 5/50/5 17/48/17 18/43/18 6/46/6
f 6/46/6 18/43/18 19/41/19 7/44/7
f 7/44/7 19/41/19 20/42/20 8/45/8
f 8/45/8 20/42/20 21/47/21 9/49/9
f 9/49/9 21/47/21 22/51/22 10/52/10
f 10/52/10 22/51/22 23/57/23 11/55/11
f 11/55/11 23/57/23 24/63/24 12/59/12
f 12/59/12 24/63/24 13/64/13 1/61/1
f 13/1/13 25/2/25 26/4/26 14/3/14
f 14/4/14 26/3/26 27/1/27 15/2/15
f 15/4/15 27/3/27 28/1/28 16/2/16
f 16/4/16 28/3/28 29/1/29 17/2/17
f 17/1/17 29/2/29 30/4/30 18/3/18
f 18/1/18 30/2/30 31/4/31 19/3/19
f 19/1/19 31/2/31 32/4/32 20/3/20
f 20/1/20 32/2/32 33/4/33 21/3/21
f 21/1/21 33/2/33 34/4/34 22/3/22
f 22/1/22 34/2/34 35/4/35 23/3/23
f 23/1/23 35/2/35 36/4/36 24/3/24
f 24/1/24 36/2/36 25/4/25 13/3/13
f 25/5/25 37/8/37 38/10/38 26/7/26
f 26/7/26 38/10/38 39/17/39 27/13/27
f 27/13/27 39/17/39 40/24/40 28/25/28
f 28/25/28 40/24/40 41/29/41 29/33/29
f 29/33/29 41/29/41 42/36/42 30/39/30
f 30/39/30 42/36/42 43/37/43 31/40/31
f 31/40/31 43/37/43 44/35/44 32/38/32
f 32/38/32 44/35/44 45/28/45 33/32/33
f 33/32/33 45/28/45 46/21/46 34/20/34
f 34/20/34 46/21/46 47/16/47 35/12/35
f 35/12/35 47/16/47 48/9/48 36/6/36
f 36/6/36 48/9/48 37/8/37 25/5/25
f 37/8/37 49/11/49 50/15/50 38/10/38
f 38/10/38 50/15/50 51/19/51 39/17/39
f 39/17/39 51/19/51 52/23/52 40/24/40
f 40/24/40 52/23/52 53/27/53 41/29/41
f 41/29/41 53/27/53 54/31/54 42/36/42
f 42/36/42 54/31/54 55/34/55 43/37/43
f 43/37/43 55/34/55 56/30/56 44/35/44
f 44/35/44 56/30/56 57/26/57 45/28/45
f 45/28/45 57/26/57 58/22/58 46/21/46
f 46/21/46 58/22/58 59/18/59 47/16/47
f 47/16/47 59/18/59 60/14/60 48/9/48
f 48/9/48 60/14/60 49/11/49 37/8/37
f 49/11/49 60/14/60 59/18/59 58/22/58 57/26/57 56/30/56 55/34/55 54/31/54 53/27/53 52/23/52 51/19/51 50/15/50
o Box01_sep7
#60 vertices, 50 faces
v -3.46965265 0.50099999 2.20506120
v -3.46965265 0.85403055 2.11046696
v -3.46965265 1.11246693 1.85203052
v -3.46965241 1.20706117 1.49899995
v -3.46965241 1.11246693 1.14596939
v -3.46965218 0.85403055 0.88753313
v -3.46965218 0.50099999 0.79293889
v -3.46965218 0.14796944 0.88753319
v -3.46965241 -0.11046687 1.14596939
v -3.46965241 -0.20506112 1.49900007
v -3.46965241 -0.11046684 1.85203063
v -3.46965241 0.14796953 2.11046696
v -3.69625974 0.50099993 2.49900007
v -3.69625974 1.00099993 2.36502528
v -3.69625974 1.36702549 1.99899995
v -3.69625950 1.50100005 1.49899995
v -3.69625950 1.36702549 0.99899995
v -3.69625926 1.00099993 0.63297451
v -3.69625926 0.50099993 0.49900001
v -3.69625926 9.9996920e-4 0.63297462
v -3.69625926 -0.36502546 0.99900001
v -3.69625950 -0.49900001 1.49899995
v -3.69625950 -0.36502537 1.99899995
v -3.69625974 1.0001004e-3 2.36502552
v -4.24304581 0.50099993 2.49899983
v -4.24304581 1.00099993 2.36502552
v -4.24304581 1.36702549 1.99899983
v -4.24304533 1.50100005 1.49899983
v -4.24304533 1.36702538 0.99899989
v -4.24304533 1.00099993 0.63297451
v -4.24304533 0.50099993 0.49899989
v -4.24304533 9.9994533e-4 0.63297457
v -4.24304533 -0.36502546 0.99899995
v -4.24304533 -0.49899998 1.49899995
v -4.24304533 -0.36502540 1.99899995
v -4.24304581 1.0000765e-3 2.36502552
v -4.46965265 0.50099993 2.20506120
v -4.46965265 0.85403049 2.11046672
v -4.46965265 1.11246693 1.85203040
v -4.46965265 1.20706117 1.49899983
v -4.46965218 1.11246681 1.14596927
v -4.46965218 0.85403049 0.88753301
v -4.46965218 0.50099993 0.79293877
v -4.46965218 0.14796939 0.88753307
v -4.46965218 -0.11046697 1.14596927
v -4.46965218 -0.20506117 1.49899995
v -4.46965265 -0.11046688 1.85203040
v -4.46965265 0.14796948 2.11046696
v -4.55929661 0.50099987 2.03976965
v -4.55929661 0.77138478 1.96732008
v -4.55929661 0.96932042 1.76938450
v -4.55929661 1.04176986 1.49899960
v -4.55929613 0.96932030 1.22861469
v -4.55929613 0.77138484 1.03067911
v -4.55929613 0.50099987 0.95822972
v -4.55929613 0.23061495 1.03067911
v -4.55929613 3.2679353e-2 1.22861469
v -4.55929613 -3.9770044e-2 1.49899960
v -4.55929661 3.2679480e-2 1.76938462
v -4.55929661 0.23061499 1.96732008
vt 0.36602509 0.46063399
vt 0.36602569 0.35595393
vt 0.46300173 0.46067476
vt 0.46300256 0.35599470
vt 0.47676691 0.55811632
vt 0.49279752 0.49828950
vt 0.49279752 0.61794347
vt 0.51193792 0.55811632
vt 0.52325648 0.51587504
vt 0.52325648 0.60035807
vt 0.53171557 0.55811632
vt 0.53659391 0.45449319
vt 0.53659391 0.66173989
vt 0.54038447 0.52576393
vt 0.54038447 0.59046906
vt 0.55417931 0.48495206
vt 0.55417931 0.63128090
vt 0.56406820 0.50208008
vt 0.56406820 0.61415279
vt 0.59642094 0.43846256
vt 0.59642094 0.47363353
vt 0.59642094 0.49341115
vt 0.59642094 0.62282163
vt 0.59642094 0.64259940
vt 0.59642094 0.68059313
vt 0.62877351 0.50208008
vt 0.62877351 0.61415279
vt 0.63866228 0.48495206
vt 0.63866228 0.63128090
vt 0.65245730 0.52576393
vt 0.65245730 0.59046906
vt 0.65624779 0.45449319
vt 0.65624779 0.66173989
vt 0.66112614 0.55811632
vt 0.66958523 0.51587504
vt 0.66958523 0.60035807
vt 0.68090385 0.55811632
vt 0.70004427 0.49828950
vt 0.70004427 0.61794347
vt 0.71607482 0.55811632
vt 0.75269079 0.49343285
vt 0.76872140 0.43360570
vt 0.76872140 0.55325955
vt 0.78786176 0.49343285
vt 0.79918039 0.45119134
vt 0.79918039 0.53567439
vt 0.81251782 0.38980937
vt 0.81251782 0.59705615
vt 0.83010322 0.42026827
vt 0.83010322 0.56659716
vt 0.87234473 0.37095630
vt 0.87234473 0.40894970
vt 0.87234473 0.57791579
vt 0.87234473 0.61308658
vt 0.91458625 0.42026827
vt 0.91458625 0.56659716
vt 0.93217170 0.38980937
vt 0.93217170 0.59705615
vt 0.94550914 0.45119134
vt 0.94550914 0.53567439
vt 0.95682782 0.49343285
vt 0.97596806 0.55325955
vt 0.97596812 0.43360570
vt 0.99199867 0.49343285
vn 0.90496826 1.3579830e-7 0.42547908
vn 0.90496827 0.21273951 0.36847569
vn 0.90496831 0.36847548 0.21273970
vn 0.90496837 0.42547884 2.4522124e-7
vn 0.90496837 0.36847559 -0.21273923
vn 0.90496842 0.21273950 -0.36847533
vn 0.90496842 -1.8163284e-8 -0.42547875
vn 0.90496845 -0.21273940 -0.36847530
vn 0.90496849 -0.36847538 -0.21273912
vn 0.90496841 -0.42547876 2.3129423e-7
vn 0.90496831 -0.36847550 0.21273966
vn 0.90496826 -0.21273937 0.36847579
vn 0.44600122 1.2693417e-7 0.89503235
vn 0.44600130 0.44751612 0.77512074
vn 0.44600134 0.77512063 0.44751627
vn 0.44600136 0.89503228 8.1545491e-8
vn 0.44600136 0.77512072 -0.44751610
vn 0.44600142 0.44751613 -0.77512067
vn 0.44600145 -8.6691263e-8 -0.89503224
vn 0.44600151 -0.44751615 -0.77512060
vn 0.44600154 -0.77512068 -0.44751599
vn 0.44600143 -0.89503225 1.3926011e-7
vn 0.44600130 -0.77512069 0.44751620
vn 0.44600122 -0.44751607 0.77512082
vn -0.44600160 5.8651026e-8 0.89503216
vn -0.44600164 0.44751602 0.77512061
vn -0.44600155 0.77512070 0.44751595
vn -0.44600141 0.89503226 -3.1596961e-7
vn -0.44600149 0.77512054 -0.44751627
vn -0.44600157 0.44751603 -0.77512064
vn -0.44600154 -7.4739305e-8 -0.89503219
vn -0.44600151 -0.44751612 -0.77512062
vn -0.44600155 -0.77512062 -0.44751608
vn -0.44600144 -0.89503224 -1.6940972e-8
vn -0.44600136 -0.77512084 0.44751589
vn -0.44600153 -0.44751619 0.77512057
vn -0.83829493 6.4077916e-8 0.54521704
vn -0.83829492 0.27260855 0.47217180
vn -0.83829483 0.47217200 0.27260847
vn -0.83829469 0.54521739 -6.2695340e-7
vn -0.83829454 0.47217206 -0.27260925
vn -0.83829456 0.27260877 -0.47217231
vn -0.83829449 -4.5011778e-8 -0.54521771
vn -0.83829448 -0.27260884 -0.47217242
vn -0.83829454 -0.47217231 -0.27260882
vn -0.83829451 -0.54521768 -3.4040825e-7
vn -0.83829466 -0.47217244 0.27260822
vn -0.83829483 -0.27260876 0.47217183
vn -0.94541392 1.2886470e-8 0.32587193
vn -0.94541387 0.16293614 0.28221344
vn -0.94541383 0.28221366 0.16293599
vn -0.94541378 0.32587234 -7.0157501e-7
vn -0.94541359 0.28221387 -0.16293706
vn -0.94541351 0.16293641 -0.28221448
vn -0.94541344 -8.2037525e-8 -0.32587334
vn -0.94541344 -0.16293658 -0.28221463
vn -0.94541351 -0.28221432 -0.16293670
vn -0.94541357 -0.32587295 -5.8990600e-7
vn -0.94541376 -0.28221410 0.16293564
vn -0.94541386 -0.16293627 0.28221340
g Box01_sep7_01 - Default
usemtl 01 - Default
f 61/108/61 72/109/72 71/113/71 70/116/70 69/119/69 68/123/68 67/125/67 66/124/66 65/120/65 64/117/64 63/114/63 62/110/62
f 61/108/61 73/105/73 84/106/84 72/109/72
f 62/110/62 74/107/74 73/105/73 61/108/61
f 63/114/63 75/112/75 74/107/74 62/110/62
f 64/117/64 76/118/76 75/112/75 63/114/63
f 65/120/65 77/122/77 76/118/76 64/117/64
f 66/124/66 78/126/78 77/122/77 65/120/65
f 67/125/67 79/128/79 78/126/78 66/124/66
f 68/123/68 80/127/80 79/128/79 67/125/67
f 69/119/69 81/121/81 80/127/80 68/123/68
f 70/116/70 82/115/82 81/121/81 69/119/69
f 71/113/71 83/111/83 82/115/82 70/116/70
f 72/109/72 84/106/84 83/111/83 71/113/71
f 73/65/73 85/66/85 96/68/96 84/67/84
f 74/65/74 86/66/86 85/68/85 73/67/73
f 75/65/75 87/66/87 86/68/86 74/67/74
f 76/65/76 88/66/88 87/68/87 75/67/75
f 77/65/77 89/66/89 88/68/88 76/67/76
f 78/65/78 90/66/90 89/68/89 77/67/77
f 79/65/79 91/66/91 90/68/90 78/67/78
f 80/65/80 92/66/92 91/68/91 79/67/79
f 81/65/81 93/66/93 92/68/92 80/67/80
f 82/65/82 94/66/94 93/68/93 81/67/81
f 83/65/83 95/66/95 94/68/94 82/67/82
f 84/65/84 96/66/96 95/68/95 83/67/83
f 85/104/85 97/101/97 108/99/108 96/102/96
f 86/103/86 98/100/98 97/101/97 85/104/85
f 87/97/87 99/93/99 98/100/98 86/103/86
f 88/89/88 100/88/100 99/93/99 87/97/87
f 89/77/89 101/81/101 100/88/100 88/89/88
f 90/71/90 102/74/102 101/81/101 89/77/89
f 91/69/91 103/72/103 102/74/102 90/71/90
f 92/70/92 104/73/104 103/72/103 91/69/91
f 93/76/93 105/80/105 104/73/104 92/70/92
f 94/84/94 106/85/106 105/80/105 93/76/93
f 95/96/95 107/92/107 106/85/106 94/84/94
f 96/102/96 108/99/108 107/92/107 95/96/95
f 97/101/97 109/98/109 120/94/120 108/99/108
f 98/100/98 110/95/110 109/98/109 97/101/97
f 99/93/99 111/91/111 110/95/110 98/100/98
f 100/88/100 112/87/112 111/91/111 99/93/99
f 101/81/101 113/83/113 112/87/112 100/88/100
f 102/74/102 114/79/114 113/83/113 101/81/101
f 103/72/103 115/75/115 114/79/114 102/74/102
f 104/73/104 116/78/116 115/75/115 103/72/103
f 105/80/105 117/82/117 116/78/116 104/73/104
f 106/85/106 118/86/118 117/82/117 105/80/105
f 107/92/107 119/90/119 118/86/118 106/85/106
f 108/99/108 120/94/120 119/90/119 107/92/107
f 110/95/110 111/91/111 112/87/112 113/83/113 114/79/114 115/75/115 116/78/116 117/82/117 118/86/118 119/90/119 120/94/120 109/98/109
