# Exported from Wings 3D 1.0.1
mtllib turret.mtl
o Box01_sep6
#60 vertices, 70 faces
v -0.49900001 2.00099993 2.49900007
v 0.50099999 2.00099993 2.49900007
v -0.49900001 2.00099993 1.49899995
v 0.50099999 2.00099993 1.49899995
v -0.49900001 2.20099998 2.49900007
v 0.50099999 2.20099998 2.49900007
v -0.49899998 2.20099998 1.49899995
v 0.50099999 2.20099998 1.49899995
v -1.08643806 2.00099993 2.49900007
v 1.08843815 2.00099993 2.49900007
v -1.08643806 2.00099993 1.49899995
v 1.08843815 2.00099993 1.49899995
v -1.08643806 2.20100021 2.49900007
v 1.08843815 2.20100021 2.49900007
v -1.08643806 2.20100021 1.49899995
v 1.08843815 2.20100021 1.49899995
v -0.49899995 2.44426203 2.49900007
v 0.50099987 2.44426203 2.49900007
v -0.49899989 3.20099998 1.49899995
v 0.50099993 3.20099998 1.49899995
v -1.08643806 2.44426203 2.49900007
v 1.08843815 2.44426203 2.49900007
v -1.08643806 3.20100021 1.49899995
v 1.08843815 3.20100021 1.49899995
v -0.49899998 2.20099998 -0.50099999
v 0.50099999 2.20099998 -0.50099999
v -0.83898896 2.20100021 -0.50099999
v 0.84098893 2.20100021 -0.50099999
v -0.49899989 3.20099998 -0.50099999
v 0.50099993 3.20099998 -0.50099999
v -0.83898884 3.20100021 -0.50099999
v 0.84098881 3.20100021 -0.50099999
v -0.49900001 2.00099993 3.49900007
v 0.50099999 2.00099993 3.49900007
v -0.49900001 2.20099998 3.49900007
v 0.50099999 2.20099998 3.49900007
v -0.73318034 2.00099993 3.49900007
v 0.73518032 2.00099993 3.49900007
v -0.73318034 2.20100021 3.49900007
v 0.73518032 2.20100021 3.49900007
v -0.61609018 2.10100007 3.98772860
v 0.61809015 2.10100007 3.98772860
v -0.26675183 2.42395401 2.49900007
v 0.26875180 2.42395401 2.49900007
v -0.26675180 2.42395401 1.96349633
v 0.26875180 2.42395401 1.96349633
v -0.26675183 2.42395401 3.03450370
v 0.26875180 2.42395401 3.03450370
v -0.49899963 4.20099974 1.49899995
v 0.50099969 4.20099974 1.49899995
v -1.08643782 4.20100021 1.49899995
v 1.08843791 4.20100021 1.49899995
v -0.49899963 4.20099974 -0.50099999
v 0.50099969 4.20099974 -0.50099999
v -0.83898860 4.20100021 -0.50099999
v 0.84098858 4.20100021 -0.50099999
v -1.95514631 2.70099998 -1.0000000e-3
v 1.95714641 2.70099998 -1.0000000e-3
v -0.79271889 3.70100021 2.39667940
v 0.79471892 3.70100021 2.39667940
vt 1.6298065e-2 0.25510091
vt 1.6298065e-2 0.33298910
vt 4.8552051e-2 0.25510091
vt 4.8552051e-2 0.33298910
vt 0.10241547 0.74685079
vt 0.10241566 0.68611121
vt 0.10258996 0.80796456
vt 0.12163679 0.34887946
vt 0.12163679 0.42378831
vt 0.14710511 0.34887922
vt 0.14710511 0.42378831
vt 0.14888719 0.25510091
vt 0.14888719 0.33298910
vt 0.22389494 0.74685133
vt 0.22389516 0.68611157
vt 0.22406945 0.80796498
vt 0.22990465 0.21478915
vt 0.23071562 0.38629973
vt 0.23073009 0.25597513
vt 0.23184377 0.40189844
vt 0.23184377 0.41688031
vt 0.27841982 0.71648169
vt 0.28480908 0.80796522
vt 0.28480911 0.79318947
vt 0.29123360 0.38897467
vt 0.30605051 0.40165150
vt 0.30605051 0.41663331
vt 0.34919676 0.40182722
vt 0.34919676 0.41680932
vt 0.42699602 0.33524027
vt 0.46686751 0.21487927
vt 0.46755695 0.28515983
vt 0.47605351 0.34613684
vt 0.47605392 0.32434565
vt 0.47699541 0.45157927
vt 0.52177918 0.42458257
vt 0.52178013 0.37048110
vt 0.57282603 0.24975562
vt 0.57553196 0.42458352
vt 0.57553303 0.37048203
vt 0.57553339 0.34532702
vt 0.57553458 0.28820342
vt 0.62747270 8.2919523e-2
vt 0.62928462 0.42458448
vt 0.62928557 0.37048301
vt 0.67406744 0.45158285
vt 0.67406923 0.34532887
vt 0.84610891 0.15625609
vt 0.84610915 0.18559140
vt 0.84748542 9.5810145e-3
vt 0.95642853 0.93789679
vt 0.95642853 0.96060526
vt 0.95652103 0.93789679
vt 0.95652103 0.96060526
vt 0.96445048 0.91518831
vt 0.96454293 0.91518831
vt 0.96976829 0.91518831
vt 0.96976829 0.93789679
vt 0.96976829 0.96060526
vt 0.96986079 0.91518831
vt 0.96986079 0.93789679
vt 0.96986079 0.96060526
vt 0.99231905 0.12241737
vt 0.99247676 0.91518831
vt 0.99247676 0.93789679
vt 0.99247676 0.96060526
vt 0.99278349 0.15625568
vt 0.99278361 0.18559071
vn 0.0000000e+0 -1.00000000 0.0000000e+0
vn 0.0000000e+0 -1.00000000 0.0000000e+0
vn 0.0000000e+0 -0.70710678 -0.70710678
vn 0.0000000e+0 -0.70710678 -0.70710678
vn -0.14434925 0.91576447 0.37488496
vn 0.14434926 0.91576447 0.37488495
vn 0.46181006 0.22002012 -0.85925701
vn -0.46181005 0.22002011 -0.85925702
vn -0.69187398 -0.71220875 0.11861321
vn 0.69187397 -0.71220875 0.11861324
vn -0.57735027 -0.57735027 -0.57735027
vn 0.57735027 -0.57735027 -0.57735027
vn -0.87017089 0.29568523 0.39417366
vn 0.87017087 0.29568523 0.39417369
vn -0.85694967 -0.49499673 -0.14358098
vn 0.85694967 -0.49499674 -0.14358099
vn 0.48755174 0.38878026 0.78175649
vn -0.48755176 0.38878026 0.78175648
vn 0.94232848 -1.8179341e-2 0.33419537
vn -0.94232849 -1.8179325e-2 0.33419535
vn -0.48755161 0.38878034 0.78175653
vn 0.48755161 0.38878034 0.78175653
vn -0.91130539 0.17770914 0.37140536
vn 0.91130539 0.17770914 0.37140536
vn 0.57735005 -0.57735040 -0.57735036
vn -0.57735005 -0.57735038 -0.57735037
vn -0.29251490 -0.66502613 -0.68715012
vn 0.29251487 -0.66502613 -0.68715013
vn 0.70710678 -1.2644057e-7 -0.70710678
vn -0.70710678 -1.0536714e-7 -0.70710678
vn -0.49422602 0.24378820 -0.83445069
vn 0.49422599 0.24378820 -0.83445071
vn 0.28215551 -0.86453153 0.41590083
vn -0.28215551 -0.86453153 0.41590083
vn 6.8837366e-2 0.88583498 0.45886578
vn -6.8837366e-2 0.88583498 0.45886578
vn -0.66988157 -0.69237877 0.26808639
vn 0.66988156 -0.69237877 0.26808643
vn -0.66988128 0.69237906 0.26808638
vn 0.66988127 0.69237906 0.26808642
vn 1.1505814e-6 5.4136004e-8 1.00000000
vn -1.1505814e-6 5.4136004e-8 1.00000000
vn -0.37323325 0.92773754 -7.2440179e-9
vn 0.37323325 0.92773754 0.0000000e+0
vn -0.25209323 0.95479646 -0.15752052
vn 0.25209323 0.95479646 -0.15752052
vn -0.25209323 0.95479646 0.15752052
vn 0.25209323 0.95479646 0.15752052
vn 0.69171081 0.66447529 0.28285818
vn -0.69171080 0.66447530 0.28285817
vn -0.69832147 0.67343998 0.24254013
vn 0.69832147 0.67343999 0.24254013
vn 0.57735073 0.57734998 -0.57735010
vn -0.57735072 0.57734999 -0.57735009
vn -0.55087729 0.55507833 -0.62323532
vn 0.55087727 0.55507832 -0.62323534
vn -0.97174765 -4.4812288e-8 -0.23602226
vn 0.97174764 -4.4812285e-8 -0.23602229
vn 2.0766419e-7 7.4996632e-8 1.00000000
vn -2.2227995e-7 9.2753352e-8 1.00000000
g Box01_sep6_01 - Default
usemtl 01 - Default
f 1/65/1 3/66/3 4/59/4 2/58/2
f 1/61/1 9/53/9 11/54/11 3/62/3
f 1/61/1 33/60/33 37/56/37 9/53/9
f 2/58/2 34/57/34 33/64/33 1/65/1
f 3/26/3 7/27/7 8/21/8 4/20/4
f 3/26/3 11/28/11 15/29/15 7/27/7
f 4/59/4 12/52/12 10/51/10 2/58/2
f 5/1/5 17/3/17 21/4/21 13/2/13
f 5/41/5 43/40/43 45/45/45 7/47/7
f 6/23/6 18/24/18 20/14/20 8/16/8
f 6/41/6 36/33/36 40/34/40 14/42/14
f 6/41/6 44/40/44 48/37/48 36/33/36
f 7/16/7 19/14/19 17/24/17 5/23/5
f 7/16/7 25/7/25 29/5/29 19/14/19
f 7/46/7 45/44/45 46/45/46 8/47/8
f 8/27/8 16/29/16 12/28/12 4/26/4
f 8/31/8 26/17/26 28/19/28 16/32/16
f 8/47/8 46/45/46 44/40/44 6/41/6
f 9/68/9 13/67/13 15/48/15 11/49/11
f 9/49/9 37/68/37 39/67/39 13/48/13
f 10/51/10 38/55/38 34/57/34 2/58/2
f 12/49/12 16/48/16 14/67/14 10/68/10
f 13/67/13 21/63/21 23/50/23 15/48/15
f 13/42/13 39/34/39 35/33/35 5/41/5
f 14/1/14 22/3/22 18/4/18 6/2/6
f 14/48/14 40/67/40 38/68/38 10/49/10
f 15/32/15 27/19/27 25/17/25 7/31/7
f 15/32/15 57/25/57 27/19/27
f 16/48/16 24/50/24 22/63/22 14/67/14
f 16/48/16 58/43/58 24/50/24
f 18/4/18 22/3/22 24/12/24 20/13/20
f 19/12/19 23/13/23 21/4/21 17/3/17
f 19/32/19 59/38/59 23/31/23
f 20/14/20 30/5/30 26/7/26 8/16/8
f 20/14/20 50/15/50 54/6/54 30/5/30
f 20/14/20 60/22/60 50/15/50
f 23/14/23 51/15/51 55/6/55 31/5/31
f 23/50/23 57/43/57 15/48/15
f 23/14/23 59/22/59 51/15/51
f 24/32/24 58/25/58 32/19/32
f 24/32/24 60/38/60 20/31/20
f 26/9/26 30/8/30 32/10/32 28/11/28
f 27/11/27 31/10/31 29/8/29 25/9/25
f 27/11/27 57/18/57 31/10/31
f 28/19/28 58/25/58 16/32/16
f 29/5/29 53/6/53 49/15/49 19/14/19
f 30/9/30 54/8/54 56/10/56 32/11/32
f 31/11/31 55/10/55 53/8/53 29/9/29
f 31/19/31 57/25/57 23/32/23
f 32/5/32 56/6/56 52/15/52 24/14/24
f 32/10/32 58/18/58 28/11/28
f 33/33/33 41/30/41 37/34/37
f 34/21/34 36/20/36 35/26/35 33/27/33
f 34/33/34 42/30/42 36/34/36
f 35/34/35 41/30/41 33/33/33
f 35/33/35 47/37/47 43/40/43 5/41/5
f 36/33/36 42/30/42 40/34/40
f 36/33/36 48/37/48 47/36/47 35/35/35
f 37/34/37 41/30/41 39/33/39
f 38/34/38 42/30/42 34/33/34
f 39/34/39 41/30/41 35/33/35
f 40/33/40 42/30/42 38/34/38
f 43/39/43 47/36/47 48/37/48 44/40/44
f 44/40/44 46/45/46 45/44/45 43/39/43
f 49/31/49 53/17/53 55/19/55 51/32/51
f 49/15/49 59/22/59 19/14/19
f 50/31/50 60/38/60 52/32/52
f 51/32/51 59/38/59 49/31/49
f 52/32/52 56/19/56 54/17/54 50/31/50
f 52/15/52 60/22/60 24/14/24
