# Exported from Wings 3D 0.99.04a
mtllib base.mtl
o cylinder4_sep5
#66 vertices, 62 faces
v 1.00000000 0.80382650 0.0000000e+0
v 0.50000000 0.80382650 0.86602540
v -0.50000000 0.80382650 0.86602540
v -1.00000000 0.80382650 1.2246468e-16
v -0.50000000 0.80382650 -0.86602540
v 0.50000000 0.80382650 -0.86602540
v 1.00000000 0.39182650 0.0000000e+0
v 0.50000000 0.39182650 0.86602540
v -0.50000000 0.39182650 0.86602540
v -1.00000000 0.39182650 1.2246468e-16
v -0.50000000 0.39182650 -0.86602540
v 0.50000000 0.39182650 -0.86602540
v 1.14756006 0.57925757 -0.94313634
v 1.39056006 0.57925757 -0.52224799
v 1.39056006 0.37902557 -0.52224799
v 1.14756006 0.37902557 -0.94313634
v -1.39056006 0.57925757 -0.52224799
v -1.14756006 0.57925757 -0.94313634
v -1.14756006 0.37902557 -0.94313634
v -1.39056006 0.37902557 -0.52224799
v 0.24300000 0.57925757 1.46538434
v -0.24300000 0.57925757 1.46538434
v -0.24300000 0.37902557 1.46538434
v 0.24300000 0.37902557 1.46538434
v 1.14593878 1.32191409 -0.56115605
v 1.05894478 1.32191409 -0.71183407
v 0.82711828 1.40230977 -0.68422836
v 1.00611828 1.40230977 -0.37419126
v -1.05894478 1.32191409 -0.71183407
v -1.14593878 1.32191409 -0.56115605
v -1.00611828 1.40230977 -0.37419126
v -0.82711828 1.40230977 -0.68422836
v -8.6994000e-2 1.32191409 1.27299012
v 8.6994000e-2 1.32191409 1.27299012
v 0.17900000 1.40230977 1.05841962
v -0.17900000 1.40230977 1.05841962
v 0.30400000 0.63766759 0.52654345
v 0.60800000 0.63766759 1.0154840e-16
v 0.30400000 0.63766759 -0.52654345
v -0.30400000 0.63766759 -0.52654345
v -0.60800000 0.63766759 3.5423195e-17
v -0.30400000 0.63766759 0.52654345
v 0.42180600 1.08579818 -0.45625336
v 0.60603000 1.08579818 -0.13716803
v 0.84358200 1.18649048 -0.13716803
v 0.54058200 1.18649048 -0.66197943
v -0.60603000 1.08579818 -0.13716803
v -0.42180600 1.08579818 -0.45625336
v -0.54058200 1.18649048 -0.66197943
v -0.84358200 1.18649048 -0.13716803
v 0.18422400 1.08579818 0.59342139
v -0.18422400 1.08579818 0.59342139
v -0.30300000 1.18649048 0.79914746
v 0.30300000 1.18649048 0.79914746
v 1.51000000 1.4194351e-2 -1.4155344e-17
v 0.75500000 1.4194351e-2 1.30769836
v -0.75500000 1.4194351e-2 1.30769836
v -1.51000000 1.4194351e-2 1.7076632e-16
v -0.75500000 1.4194351e-2 -1.30769836
v 0.75500000 1.4194351e-2 -1.30769836
v -2.09974569 -5.1350644e-3 -0.78859447
v -1.73281569 -5.1350644e-3 -1.42413588
v 0.36693000 -5.1350644e-3 2.21273035
v -0.36693000 -5.1350644e-3 2.21273035
v 1.73281569 -5.1350644e-3 -1.42413588
v 2.09974569 -5.1350644e-3 -0.78859447
vt 2.3954018e-3 8.8170659e-3
vt 2.7917021e-3 9.5032802e-3
vt 2.7917021e-3 7.0111934e-3
vt 4.2592754e-3 4.4692680e-3
vt 4.5543431e-3 1.0063481e-2
vt 5.6246946e-3 3.2228528e-3
vt 6.4185354e-3 3.2228528e-3
vt 7.4888870e-3 1.0063481e-2
vt 7.7839546e-3 4.4692680e-3
vt 8.9516062e-3 0.55848437
vt 9.0820345e-3 0.55835857
vt 9.1223946e-3 0.55831983
vt 9.2515280e-3 7.0111934e-3
vt 9.2515280e-3 9.5032802e-3
vt 9.4254416e-3 0.99437913
vt 9.5171077e-3 0.99438980
vt 9.6478282e-3 8.8170659e-3
vt 9.6808354e-3 0.99440869
vt 1.0002009e-2 0.99452844
vt 1.0460667e-2 0.99469978
vt 1.0460667e-2 0.99469978
vt 1.1293720e-2 0.80655782
vt 1.1293720e-2 0.80655782
vt 1.1490834e-2 0.80639053
vt 1.1629364e-2 0.80627498
vt 1.1700142e-2 0.80625867
vt 1.1739816e-2 0.80624957
vt 1.1951711e-2 0.34472974
vt 1.1971047e-2 0.34469659
vt 1.1980840e-2 0.34467981
vt 4.1958650e-2 0.54794277
vt 4.1984553e-2 0.54795428
vt 4.2035727e-2 0.54797700
vt 4.7444911e-2 0.74987793
vt 4.7547671e-2 0.74988799
vt 4.7880426e-2 0.74992019
vt 7.0312586e-2 0.99303787
vt 7.0331345e-2 0.99315500
vt 7.0331345e-2 0.99315500
vt 9.0860635e-2 0.75001539
vt 9.0963486e-2 0.74999301
vt 9.1296368e-2 0.74992019
vt 0.11640892 0.87239001
vt 0.11641540 0.87232602
vt 0.11642689 0.87221176
vt 0.11644916 0.87207104
vt 0.11648034 0.87187210
vt 0.11648034 0.87187210
vt 0.11703203 0.74727478
vt 0.11703203 0.74727478
vt 0.11743514 0.74747640
vt 0.11771730 0.74761990
vt 0.11786111 0.74773587
vt 0.11794162 0.74780090
vt 0.12118714 0.87703861
vt 0.12118714 0.87703861
vt 0.12125095 0.87695767
vt 0.12484392 0.63900228
vt 0.12484474 0.63771485
vt 0.12485917 0.63892243
vt 0.12486622 0.63760543
vt 0.12487367 0.63756757
vt 0.12487367 0.63884669
vt 0.13022519 0.55848437
vt 0.13035526 0.55865193
vt 0.13039537 0.55870380
vt 0.15951869 0.54794277
vt 0.15954459 0.54793363
vt 0.15959575 0.54791558
vt 0.17262704 0.73093370
vt 0.17266515 0.73098213
vt 0.17270535 0.73103316
vt 0.17287068 0.73221282
vt 0.17289025 0.73223697
vt 0.17294684 0.73230673
vt 0.18417840 0.46372980
vt 0.18419712 0.46369201
vt 0.18422893 0.46362788
vt 0.18946735 0.34463698
vt 0.18948671 0.34466541
vt 0.18949650 0.34467981
vt 0.22849902 0.63109457
vt 0.22855753 0.63113481
vt 0.22859200 0.63115850
vt 0.32051628 0.73221282
vt 0.32053584 0.73219481
vt 0.32059235 0.73214274
vt 0.32075992 0.73093370
vt 0.32079801 0.73089747
vt 0.32083813 0.73085928
vt 0.32094538 0.87689655
vt 0.32094538 0.87689655
vt 0.32100923 0.87695767
vt 0.33223348 0.79073618
vt 0.33223348 0.88021805
vt 0.33892414 0.88542615
vt 0.33896043 0.88535038
vt 0.33896452 0.88534185
vt 0.36468013 0.63109457
vt 0.36473861 0.63106137
vt 0.36477306 0.63104179
vt 0.36848337 0.63871629
vt 0.36848420 0.63744423
vt 0.36849874 0.63878320
vt 0.36850582 0.63753586
vt 0.36851328 0.63756757
vt 0.36851328 0.63884669
vt 0.37090480 0.96522746
vt 0.37091259 0.96523123
vt 0.37098186 0.96526470
vt 0.37194759 0.99303787
vt 0.37196628 0.99294050
vt 0.37196628 0.99294050
vt 0.37721247 0.61873290
vt 0.37728331 0.61897341
vt 0.37736735 0.61928638
vt 0.37789236 0.62819638
vt 0.37792317 0.62809753
vt 0.37793842 0.62806064
vt 0.40889962 0.46353722
vt 0.40891839 0.46357082
vt 0.40895023 0.46362788
vt 0.42757689 0.52191157
vt 0.42771830 0.52171518
vt 0.42783875 0.52157410
vt 0.43152752 0.96531662
vt 0.43153532 0.96531137
vt 0.43160465 0.96526470
vt 0.45276958 0.99362828
vt 0.45392377 0.92880175
vt 0.45854559 0.78605512
vt 0.45858425 0.78606449
vt 0.45866247 0.78610762
vt 0.46366238 0.88542615
vt 0.46369856 0.88551527
vt 0.46370263 0.88552530
vt 0.50518589 0.23144515
vt 0.50534532 0.23144515
vt 0.54850405 0.78608582
vt 0.54854272 0.78606449
vt 0.54862092 0.78604552
vt 0.54942247 0.79073618
vt 0.54942247 0.88021805
vt 0.56538945 0.85209557
vt 0.56570292 0.85234907
vt 0.56600655 0.85263417
vt 0.58402789 0.52154910
vt 0.58416973 0.52171518
vt 0.58428986 0.52188196
vt 0.62630708 2.1657082e-2
vt 0.62630708 0.44123322
vt 0.62638680 2.1795156e-2
vt 0.62638680 0.44109514
vt 0.62917294 0.62802291
vt 0.62920381 0.62809753
vt 0.62921904 0.62814640
vt 0.63453338 0.61923925
vt 0.63460472 0.61897341
vt 0.63468808 0.61869022
vt 0.66397672 0.99324295
vt 0.66635159 0.85985503
vt 0.66635159 0.85985503
vt 0.66994573 0.64396164
vt 0.66994573 0.64396164
vt 0.67008619 0.64389834
vt 0.67008619 0.64389834
vt 0.67023161 0.64387526
vt 0.67360218 0.86255025
vt 0.67360218 0.86255025
vt 0.67360218 0.99342139
vt 0.74347350 0.64377065
vt 0.74347350 0.64377065
vt 0.74361420 0.64386391
vt 0.74361420 0.64386391
vt 0.74375952 0.64400279
vt 0.77077466 0.85245180
vt 0.77108842 0.85225291
vt 0.77139138 0.85210068
vt 0.77139138 0.85210068
vt 0.78065120 0.85251769
vt 0.78072342 0.85257829
vt 0.78072342 0.85257829
vt 0.78072434 0.85257906
vt 0.78301912 0.64234864
vt 0.78301912 0.64234864
vt 0.78302003 0.64234790
vt 0.78309214 0.64228892
vt 0.86846976 2.1795156e-2
vt 0.86846976 0.44109514
vt 0.86854948 2.1657082e-2
vt 0.86854948 0.44123322
vt 0.90519190 0.85244103
vt 0.90526404 0.85241613
vt 0.90526495 0.85241582
vt 0.98853169 0.64207927
vt 0.98853260 0.64208030
vt 0.98860484 0.64216242
vt 0.98951124 0.23144515
vt 0.98967068 0.23144515
vt 0.99125060 0.99342139
vt 0.99125060 0.86255025
vt 0.99125060 0.99342139
vn 0.55440073 0.54037264 0.63295911
vn 0.82535904 0.54037264 0.16364556
vn -0.82535904 0.54037264 0.16364556
vn -0.55440073 0.54037264 0.63295911
vn 0.27095831 0.54037264 -0.79660468
vn -0.27095831 0.54037264 -0.79660468
vn 0.76276859 0.41186684 0.49854767
vn 0.81313924 0.41186684 0.41130314
vn -0.81313924 0.41186684 0.41130314
vn -0.76276859 0.41186684 0.49854767
vn 5.0370653e-2 0.41186684 -0.90985081
vn -5.0370653e-2 0.41186684 -0.90985081
vn 0.46697228 0.16214865 -0.86927827
vn 0.98630320 0.16214865 3.0229278e-2
vn 0.84531935 0.52749688 8.4748037e-2
vn 0.34926572 0.52749688 -0.77444205
vn -0.98630320 0.16214865 3.0229278e-2
vn -0.46697228 0.16214865 -0.86927827
vn -0.34926572 0.52749688 -0.77444205
vn -0.84531935 0.52749688 8.4748037e-2
vn 0.51933092 0.16214865 0.83904899
vn -0.51933092 0.16214865 0.83904899
vn -0.49605363 0.52749688 0.68969402
vn 0.49605363 0.52749688 0.68969402
vn 0.79599851 0.60125319 -6.9863954e-2
vn 0.45850321 0.60125319 -0.65442296
vn -0.30301306 0.87694193 -0.37303612
vn 0.17155222 0.87694193 0.44893507
vn -0.45850321 0.60125319 -0.65442296
vn -0.79599851 0.60125319 -6.9863954e-2
vn -0.17155222 0.87694193 0.44893507
vn 0.30301306 0.87694193 -0.37303612
vn -0.33749530 0.60125319 0.72428691
vn 0.33749530 0.60125319 0.72428691
vn 0.47456528 0.87694193 -7.5898950e-2
vn -0.47456528 0.87694193 -7.5898950e-2
vn 0.12799726 0.78722436 -0.60323669
vn -0.45841967 0.78722436 0.41246723
vn -0.58641693 0.78722436 0.19076946
vn 0.58641693 0.78722436 0.19076946
vn 0.45841967 0.78722436 0.41246723
vn -0.12799726 0.78722436 -0.60323669
vn -0.83817848 0.52795004 0.13684147
vn -0.53759743 0.52795004 0.65746312
vn 0.22417775 0.87262925 0.43389230
vn -0.26367288 0.87262925 -0.41108978
vn 0.53759743 0.52795004 0.65746312
vn 0.83817848 0.52795004 0.13684147
vn 0.26367288 0.87262925 -0.41108978
vn -0.22417775 0.87262925 0.43389230
vn 0.30058105 0.52795004 -0.79430459
vn -0.30058105 0.52795004 -0.79430459
vn -0.48785063 0.87262925 -2.2802524e-2
vn 0.48785063 0.87262925 -2.2802524e-2
vn 0.77776302 -0.35626451 0.51784195
vn 0.83734579 -0.35626451 0.41464156
vn -0.83734579 -0.35626451 0.41464156
vn -0.77776302 -0.35626451 0.51784195
vn 5.9582772e-2 -0.35626451 -0.93248351
vn -5.9582772e-2 -0.35626451 -0.93248351
vn -0.81710314 0.55575029 0.15324513
vn -0.27583739 0.55575029 -0.78425464
vn 0.54126575 0.55575029 0.63100951
vn -0.54126575 0.55575029 0.63100951
vn 0.27583739 0.55575029 -0.78425464
vn 0.81710314 0.55575029 0.15324513
g cylinder4_sep5_cylinder4_auv
usemtl cylinder4_auv
f 1/154/1 28/141/28 27/133/27 6/117/6
f 1/104/1 38/89/38 37/71/37 2/60/2
f 1/184/1 45/183/45 44/194/44 38/195/38
f 2/170/2 8/168/8 7/201/7 1/200/1
f 2/162/2 21/130/21 24/129/24 8/160/8
f 2/176/2 35/175/35 34/167/34 21/144/21
f 2/106/2 54/85/54 53/73/53 3/62/3
f 3/155/3 36/140/36 35/132/35 2/118/2
f 3/102/3 42/90/42 41/72/41 4/58/4
f 3/186/3 53/182/53 52/193/52 42/196/42
f 4/170/4 10/169/10 9/201/9 3/202/3
f 4/161/4 17/130/17 20/129/20 10/160/10
f 4/178/4 31/171/31 30/164/30 17/146/17
f 4/105/4 50/86/50 49/74/49 5/61/5
f 5/156/5 32/139/32 31/131/31 4/119/4
f 5/63/5 40/70/40 39/88/39 6/107/6
f 5/187/5 49/180/49 48/192/48 40/197/40
f 6/170/6 12/168/12 11/201/11 5/200/5
f 6/162/6 13/130/13 16/129/16 12/160/12
f 6/177/6 27/173/27 26/165/26 13/145/13
f 6/103/6 46/87/46 45/75/45 1/59/1
f 7/160/7 15/129/15 14/130/14 1/161/1
f 8/50/8 24/47/24 63/20/63 56/23/56
f 8/91/8 56/113/56 55/39/55 7/56/7
f 9/160/9 23/129/23 22/130/22 3/161/3
f 9/49/9 57/22/57 64/21/64 23/48/23
f 10/52/10 20/45/20 61/18/61 58/25/58
f 10/55/10 58/38/58 57/112/57 9/92/9
f 11/160/11 19/129/19 18/130/18 5/161/5
f 11/53/11 59/26/59 62/16/62 19/44/19
f 12/93/12 60/111/60 59/37/59 11/57/11
f 13/65/13 26/41/26 25/35/25 14/11/14
f 14/95/14 15/94/15 16/142/16 13/143/13
f 14/146/14 25/163/25 28/172/28 1/179/1
f 15/33/15 66/28/66 65/79/65 16/69/16
f 16/43/16 65/15/65 60/27/60 12/54/12
f 17/66/17 30/40/30 29/34/29 18/12/18
f 18/95/18 19/94/19 20/142/20 17/143/17
f 18/145/18 29/166/29 32/174/32 5/177/5
f 19/32/19 62/29/62 61/80/61 20/68/20
f 21/64/21 34/42/34 33/36/33 22/10/22
f 22/95/22 23/94/23 24/142/24 21/143/21
f 22/144/22 33/167/33 36/175/36 3/176/3
f 23/31/23 64/30/64 63/81/63 24/67/24
f 26/109/26 27/97/27 28/135/28 25/127/25
f 30/108/30 31/98/31 32/136/32 29/126/29
f 34/128/34 35/134/35 36/96/36 33/110/33
f 37/196/37 51/193/51 54/181/54 2/186/2
f 38/199/38 39/191/39 40/151/40 41/137/41 42/150/42 37/190/37
f 38/120/38 44/101/44 43/84/43 39/76/39
f 39/197/39 43/192/43 46/180/46 6/187/6
f 40/121/40 48/100/48 47/83/47 41/77/41
f 41/195/41 47/194/47 50/183/50 4/185/4
f 42/122/42 52/99/52 51/82/51 37/78/37
f 44/123/44 45/116/45 46/159/46 43/147/43
f 48/125/48 49/114/49 50/157/50 47/149/47
f 52/124/52 53/115/53 54/158/54 51/148/51
f 55/138/55 56/152/56 57/188/57 58/198/58 59/189/59 60/153/60
f 55/24/55 66/19/66 15/46/15 7/51/7
f 56/1/56 63/4/63 64/9/64 57/17/57
f 58/7/58 61/13/61 62/8/62 59/2/59
f 60/14/60 65/5/65 66/3/66 55/6/55
