# Exported from Wings 3D 0.99.04a
mtllib top.mtl
o cylinder4_sep4
#54 vertices, 50 faces
v -0.99977916 2.35175012 0.0000000e+0
v -0.49978221 2.35000480 0.86602540
v 0.50021170 2.34651415 0.86602540
v 1.00020865 2.34476882 1.2246468e-16
v 0.50021170 2.34651415 -0.86602540
v -0.49978221 2.35000480 -0.86602540
v -0.99834102 2.76374761 0.0000000e+0
v -0.49834406 2.76200229 0.86602540
v 0.50164985 2.75851164 0.86602540
v 1.00164680 2.75676631 1.2246468e-16
v 0.50164985 2.75851164 -0.86602540
v -0.49834406 2.76200229 -0.86602540
v -1.14655443 2.57683277 -0.94313634
v -1.38955295 2.57768100 -0.52224799
v -1.38885401 2.77791178 -0.52224799
v -1.14585549 2.77706355 -0.94313634
v 1.39155023 2.56797308 -0.52224799
v 1.14855171 2.56882131 -0.94313634
v 1.14925065 2.76905209 -0.94313634
v 1.39224917 2.76820386 -0.52224799
v -0.24199988 2.57367527 1.46538434
v 0.24399716 2.57197881 1.46538434
v 0.24469610 2.77220959 1.46538434
v -0.24130094 2.77390605 1.46538434
v -1.14752552 1.83417512 -0.56115605
v -1.06053205 1.83387145 -0.71183407
v -0.82898759 1.75266704 -0.68422836
v -1.00798650 1.75329186 -0.37419126
v 1.05734461 1.82647864 -0.71183407
v 1.14433808 1.82617497 -0.56115605
v 1.00423780 1.74626785 -0.37419126
v 0.82523889 1.74689267 -0.68422836
v 8.5399751e-2 1.82987138 1.27299012
v -8.8587189e-2 1.83047871 1.27299012
v -0.18087326 1.75040468 1.05841962
v 0.17712456 1.74915503 1.05841962
v -0.30320340 2.51547853 0.52654345
v -0.60720155 2.51653969 1.0154840e-16
v -0.30320340 2.51547853 -0.52654345
v 0.30479289 2.51335622 -0.52654345
v 0.60879104 2.51229506 3.5423195e-17
v 0.30479289 2.51335622 0.52654345
v -0.42257295 2.06776190 -0.45625336
v -0.60679583 2.06840496 -0.13716803
v -0.84469786 1.96854248 -0.13716803
v -0.54169971 1.96748481 -0.66197943
v 0.60525679 2.06417408 -0.13716803
v 0.42103391 2.06481714 -0.45625336
v 0.53945770 1.96371085 -0.66197943
v 0.84245586 1.96265318 -0.13716803
v -0.18499240 2.06693258 0.59342139
v 0.18345336 2.06564646 0.59342139
v 0.30187715 1.96454016 0.79914746
v -0.30411916 1.96665550 0.79914746
vt 8.8939321e-3 0.55855854
vt 8.9576131e-3 0.55847856
vt 9.2924590e-3 0.55815751
vt 4.7012989e-2 0.74983506
vt 4.7865078e-2 0.74991871
vt 4.8027896e-2 0.74995252
vt 9.0428068e-2 0.75010892
vt 9.1281020e-2 0.74992356
vt 9.1443814e-2 0.74990599
vt 0.12113955 0.73648537
vt 0.12115119 0.73645234
vt 0.12118068 0.73636887
vt 0.12483897 0.63774429
vt 0.12486668 0.63888317
vt 0.12488114 0.63753586
vt 0.12488193 0.63881063
vt 0.12491282 0.63867623
vt 0.12496421 0.63718594
vt 0.13016744 0.55842857
vt 0.13023119 0.55849209
vt 0.13056363 0.55892246
vt 0.17252481 0.73083640
vt 0.17260540 0.73091312
vt 0.17263549 0.73199567
vt 0.17264539 0.73095702
vt 0.17285111 0.73219481
vt 0.17296207 0.73232549
vt 0.17874499 0.87111593
vt 0.17882997 0.87115045
vt 0.17886358 0.87116408
vt 0.18402589 0.46403886
vt 0.18417840 0.46372980
vt 0.18419712 0.46369201
vt 0.22855753 0.63113481
vt 0.22859200 0.63115850
vt 0.22887389 0.63135172
vt 0.28792295 0.87125352
vt 0.28800801 0.87119527
vt 0.28804163 0.87117222
vt 0.32028022 0.73250335
vt 0.32049671 0.73223697
vt 0.32060754 0.73212872
vt 0.32065752 0.73106372
vt 0.32073827 0.73096121
vt 0.32077827 0.73091625
vt 0.33207797 0.79111552
vt 0.33223348 0.79073618
vt 0.33223348 0.88021805
vt 0.33239032 0.88059684
vt 0.33895776 0.88535594
vt 0.33897901 0.88531169
vt 0.33898307 0.88530326
vt 0.34578575 0.73650211
vt 0.34579737 0.73654457
vt 0.34582670 0.73665198
vt 0.36473861 0.63106137
vt 0.36477306 0.63104179
vt 0.36505418 0.63088157
vt 0.36847836 0.63741959
vt 0.36850628 0.63881611
vt 0.36852074 0.63760543
vt 0.36852153 0.63888971
vt 0.36855214 0.63905010
vt 0.36860238 0.63802370
vt 0.37086950 0.96521037
vt 0.37087722 0.96521411
vt 0.37091768 0.96523370
vt 0.37718028 0.61862301
vt 0.37733477 0.61916537
vt 0.37733890 0.61918074
vt 0.37777541 0.62857371
vt 0.37793912 0.62805896
vt 0.37796967 0.62798520
vt 0.40874585 0.46326303
vt 0.40889962 0.46353722
vt 0.40891839 0.46357082
vt 0.42762459 0.52184523
vt 0.42763153 0.52183558
vt 0.42789385 0.52150974
vt 0.43149215 0.96534038
vt 0.43149988 0.96533519
vt 0.43154042 0.96530794
vt 0.45261568 0.99325368
vt 0.45276958 0.99362828
vt 0.45276958 0.99362828
vt 0.45296543 0.99400234
vt 0.45389172 0.92917215
vt 0.45392377 0.92880175
vt 0.45392377 0.92880175
vt 0.45399775 0.92843161
vt 0.45846652 0.78603591
vt 0.45854383 0.78605469
vt 0.45896100 0.78627175
vt 0.46369590 0.88550872
vt 0.46371700 0.88556083
vt 0.46372102 0.88557077
vt 0.50518589 0.23144515
vt 0.50598274 0.23144515
vt 0.54842494 0.78612941
vt 0.54850229 0.78608679
vt 0.54891897 0.78597281
vt 0.54926564 0.79035739
vt 0.54942247 0.79073618
vt 0.54942247 0.88021805
vt 0.54957799 0.87983871
vt 0.56522864 0.85197095
vt 0.56538945 0.85209557
vt 0.56560847 0.85226489
vt 0.56617862 0.85279529
vt 0.58407583 0.52160514
vt 0.58408280 0.52161330
vt 0.58434463 0.52195818
vt 0.62630708 0.44123322
vt 0.62630708 2.1657082e-2
vt 0.62670551 2.2347174e-2
vt 0.62670551 0.44054313
vt 0.62905466 0.62773867
vt 0.62921974 0.62814863
vt 0.62925017 0.62824638
vt 0.63450064 0.61936058
vt 0.63465592 0.61879978
vt 0.63466001 0.61878587
vt 0.66382286 0.99361081
vt 0.66397672 0.99324295
vt 0.66416990 0.99287456
vt 0.66607586 0.85947911
vt 0.66635159 0.85985503
vt 0.66666662 0.86023207
vt 0.66986630 0.64399768
vt 0.67012996 0.64388343
vt 0.67023161 0.64387526
vt 0.67030637 0.64386942
vt 0.67337473 0.99286659
vt 0.67360218 0.86255025
vt 0.67360218 0.86255025
vt 0.67360218 0.99342139
vt 0.67383156 0.86199624
vt 0.74339378 0.64371809
vt 0.74365798 0.64389777
vt 0.74375952 0.64400279
vt 0.74383408 0.64408016
vt 0.77061331 0.85255961
vt 0.77077466 0.85245180
vt 0.77099399 0.85230494
vt 0.77099399 0.85230494
vt 0.77156266 0.85201433
vt 0.78037091 0.85230047
vt 0.78065120 0.85251769
vt 0.78065120 0.85251769
vt 0.78072342 0.85257829
vt 0.78107885 0.85287532
vt 0.78266636 0.64263837
vt 0.78302003 0.64234790
vt 0.78302003 0.64234790
vt 0.78309214 0.64228892
vt 0.78309214 0.64228892
vt 0.78337277 0.64207896
vt 0.86815105 2.2347174e-2
vt 0.86815105 0.44054313
vt 0.86854948 2.1657082e-2
vt 0.86854948 0.44123322
vt 0.90491136 0.85255612
vt 0.90519190 0.85244103
vt 0.90519190 0.85244103
vt 0.90526404 0.85241613
vt 0.90561821 0.85229309
vt 0.98817685 0.64167760
vt 0.98853260 0.64208030
vt 0.98860484 0.64216242
vt 0.98860484 0.64216242
vt 0.98887383 0.23144515
vt 0.98888508 0.64250081
vt 0.98967068 0.23144515
vt 0.99102122 0.99397539
vt 0.99125060 0.99342139
vt 0.99125060 0.86255025
vt 0.99125060 0.86255025
vt 0.99125060 0.99342139
vt 0.99147804 0.86310504
vn -0.55628361 -0.53843413 0.63295911
vn -0.82724026 -0.53748830 0.16364556
vn 0.82346776 -0.54325039 0.16364556
vn 0.55251110 -0.54230457 0.63295911
vn -0.27284291 -0.53942352 -0.79660468
vn 0.26907040 -0.54131517 -0.79660468
vn -0.58223197 0.71140185 0.39359032
vn -0.63073505 0.71157116 0.30958001
vn 0.63568734 0.70715049 0.30958001
vn 0.58718426 0.70731980 0.39359032
vn -4.6026936e-2 0.70953014 -0.70317033
vn 5.0979229e-2 0.70919152 -0.70317033
vn -0.46753544 -0.16051763 -0.86927827
vn -0.98686320 -0.15870482 3.0229278e-2
vn -0.85183171 0.52073301 5.6743954e-2
vn -0.37587079 0.51907159 -0.76764955
vn 0.98573119 -0.16559050 3.0229278e-2
vn 0.46640343 -0.16377770 -0.86927827
vn 0.37948541 0.51643489 -0.76764955
vn 0.85544632 0.51477346 5.6743954e-2
vn -0.51989376 -0.16033486 0.83904899
vn 0.51876176 -0.16396047 0.83904899
vn 0.47776822 0.51609181 0.71090560
vn -0.47415361 0.51941466 0.71090560
vn -0.79809243 -0.59847097 -6.9863954e-2
vn -0.46059919 -0.59964905 -0.65442296
vn 0.29995012 -0.87799430 -0.37303612
vn -0.17461228 -0.87633775 0.44893507
vn 0.45640166 -0.60285000 -0.65442296
vn 0.79389490 -0.60402808 -6.9863954e-2
vn 0.16849008 -0.87753541 0.44893507
vn -0.30607231 -0.87587887 -0.37303612
vn 0.33539448 -0.60242761 0.72428691
vn -0.33959201 -0.60007145 0.72428691
vn -0.47762349 -0.87528004 -7.5898950e-2
vn 0.47150129 -0.87859313 -7.5898950e-2
vn -0.13074441 -0.78677277 -0.60323669
vn 0.45566895 -0.78881975 0.41246723
vn 0.58366543 -0.78926654 0.19076946
vn -0.58916128 -0.78517259 0.19076946
vn -0.46116480 -0.78561938 0.41246723
vn 0.12524856 -0.78766636 -0.60323669
vn 0.83633048 -0.53087261 0.13684147
vn 0.53575127 -0.52982339 0.65746312
vn -0.22722243 -0.87184141 0.43389230
vn 0.26062523 -0.87354432 -0.41108978
vn -0.53943705 -0.52607026 0.65746312
vn -0.84001626 -0.52502104 0.13684147
vn -0.26671732 -0.87170354 -0.41108978
vn 0.22113034 -0.87340646 0.43389230
vn -0.30242210 -0.52689760 -0.79430459
vn 0.29873633 -0.52899605 -0.79430459
vn 0.48480161 -0.87432685 -2.2802524e-2
vn -0.49089370 -0.87092102 -2.2802524e-2
g cylinder4_sep4_cylinder4_auv
usemtl cylinder4_auv
f 1/118/1 28/100/28 27/92/27 6/72/6
f 1/62/1 38/44/38 37/23/37 2/16/2
f 1/157/1 45/147/45 44/162/44 38/172/38
f 2/176/2 8/175/8 7/136/7 1/134/1
f 2/127/2 21/88/21 24/84/24 8/124/8
f 2/143/2 35/140/35 34/131/34 21/107/21
f 2/18/2 54/24/54 53/40/53 3/64/3
f 3/71/3 36/93/36 35/101/35 2/117/2
f 3/60/3 42/45/42 41/25/41 4/14/4
f 3/154/3 53/150/53 52/165/52 42/168/42
f 4/177/4 10/178/10 9/136/9 3/135/3
f 4/127/4 17/89/17 20/85/20 10/124/10
f 4/145/4 31/139/31 30/130/30 17/108/17
f 4/59/4 50/42/50 49/27/49 5/13/5
f 5/119/5 32/99/32 31/91/31 4/73/4
f 5/17/5 40/22/40 39/43/39 6/63/6
f 5/156/5 49/149/49 48/163/48 40/169/40
f 6/179/6 12/174/12 11/133/11 5/137/5
f 6/126/6 13/87/13 16/86/16 12/125/12
f 6/146/6 27/138/27 26/129/26 13/109/13
f 6/61/6 46/41/46 45/26/45 1/15/1
f 7/124/7 15/84/15 14/88/14 1/127/1
f 8/115/8 9/158/9 10/171/10 11/159/11 12/116/12 7/98/7
f 8/53/8 24/39/24 23/30/23 9/10/9
f 9/124/9 23/84/23 22/88/22 3/127/3
f 10/54/10 20/38/20 19/29/19 11/11/11
f 11/123/11 19/83/19 18/90/18 5/128/5
f 12/55/12 16/37/16 15/28/15 7/12/7
f 13/19/13 26/9/26 25/6/25 14/1/14
f 14/103/14 15/104/15 16/48/16 13/47/13
f 14/108/14 25/130/25 28/139/28 1/144/1
f 17/21/17 30/7/30 29/4/29 18/3/18
f 18/103/18 19/104/19 20/48/20 17/47/17
f 18/106/18 29/132/29 32/141/32 5/142/5
f 21/20/21 34/8/34 33/5/33 22/2/22
f 22/102/22 23/105/23 24/49/24 21/46/21
f 22/107/22 33/131/33 36/140/36 3/143/3
f 26/66/26 27/51/27 28/95/28 25/81/25
f 30/65/30 31/52/31 32/96/32 29/80/29
f 34/82/34 35/94/35 36/50/36 33/67/33
f 37/168/37 51/165/51 54/150/54 2/153/2
f 38/173/38 39/161/39 40/113/40 41/97/41 42/114/42 37/160/37
f 38/33/38 44/34/44 43/56/43 39/76/39
f 39/170/39 43/164/43 46/148/46 6/155/6
f 40/32/40 48/35/48 47/57/47 41/75/41
f 41/167/41 47/166/47 50/151/50 4/152/4
f 42/31/42 52/36/52 51/58/51 37/74/37
f 44/78/44 45/69/45 46/121/46 43/111/43
f 48/79/48 49/68/49 50/120/50 47/112/47
f 52/77/52 53/70/53 54/122/54 51/110/51
o cylinder4
#36 vertices, 32 faces
v 0.28200000 2.91399182 1.9928503e-17
v 0.14100000 2.91399182 0.24421916
v -0.14100000 2.91399182 0.24421916
v -0.28200000 2.91399182 5.4463543e-17
v -0.14100000 2.91399182 -0.24421916
v 0.14100000 2.91399182 -0.24421916
v 0.28200000 2.75155982 1.9928503e-17
v 0.14100000 2.75155982 0.24421916
v -0.14100000 2.75155982 0.24421916
v -0.28200000 2.75155982 5.4463543e-17
v -0.14100000 2.75155982 -0.24421916
v 0.14100000 2.75155982 -0.24421916
v 0.30995573 2.91399182 -0.34176580
v 0.45095573 2.91399182 -9.7546637e-2
v 0.45095573 2.75155982 -9.7546637e-2
v 0.30995573 2.75155982 -0.34176580
v -0.45095573 2.91399182 -9.7546637e-2
v -0.30995573 2.91399182 -0.34176580
v -0.30995573 2.75155982 -0.34176580
v -0.45095573 2.75155982 -9.7546637e-2
v 0.14100000 2.91399182 0.43931244
v -0.14100000 2.91399182 0.43931244
v -0.14100000 2.75155982 0.43931244
v 0.14100000 2.75155982 0.43931244
v 0.39020441 3.09484019 -0.12629445
v 0.30447641 3.09484019 -0.27477970
v 0.20175132 3.09484019 -0.21547135
v 0.28747932 3.09484019 -6.6986097e-2
v -0.30447641 3.09484019 -0.27477970
v -0.39020441 3.09484019 -0.12629445
v -0.28747932 3.09484019 -6.6986097e-2
v -0.20175132 3.09484019 -0.21547135
v -8.5728000e-2 3.09484019 0.40107416
v 8.5728000e-2 3.09484019 0.40107416
v 8.5728000e-2 3.09484019 0.28245745
v -8.5728000e-2 3.09484019 0.28245745
vt 2.6796665e-3 5.1415111e-3
vt 3.4584375e-3 4.6918875e-3
vt 3.4584375e-3 5.5911347e-3
vt 3.5441356e-3 3.6442068e-3
vt 3.5441356e-3 4.5434541e-3
vt 3.5441356e-3 5.7395682e-3
vt 3.5441356e-3 6.6388154e-3
vt 4.3229065e-3 4.0938305e-3
vt 4.3229065e-3 6.1891918e-3
vt 4.4943027e-3 4.0938305e-3
vt 4.4943027e-3 6.1891918e-3
vt 5.2730736e-3 3.6442068e-3
vt 5.2730736e-3 4.5434541e-3
vt 5.2730736e-3 5.7395682e-3
vt 5.2730736e-3 6.6388154e-3
vt 5.3587717e-3 4.6918875e-3
vt 5.3587717e-3 5.5911347e-3
vt 6.1375427e-3 5.1415111e-3
vt 2.8992529e-2 1.2872576e-2
vt 2.8992529e-2 1.2872576e-2
vt 2.8992533e-2 1.2854385e-2
vt 2.8992533e-2 1.2854385e-2
vt 2.8992560e-2 1.2823664e-2
vt 2.8992560e-2 1.2823664e-2
vt 5.2318375e-2 0.12878817
vt 5.2318375e-2 0.12878817
vt 5.2392495e-2 0.12880395
vt 5.2392495e-2 0.12880395
vt 5.2436366e-2 0.12881328
vt 5.2436366e-2 0.12881328
vt 0.12504208 0.12886219
vt 0.12504208 0.12886219
vt 0.12511623 0.12883147
vt 0.12511623 0.12883147
vt 0.12516011 0.12881328
vt 0.12516011 0.12881328
vt 0.14860391 1.2945411e-2
vt 0.14860391 1.2945411e-2
vt 0.14860394 1.2899647e-2
vt 0.14860394 1.2899647e-2
vt 0.14860394 1.2872576e-2
vt 0.16816151 2.6334970e-2
vt 0.16820039 2.6278749e-2
vt 0.16820039 2.6278749e-2
vt 0.16820039 0.24910429
vt 0.16820039 0.24910429
vt 0.16823929 0.24916050
vt 0.20288298 0.29376677
vt 0.20288298 0.45270736
vt 0.20288298 0.29376677
vt 0.20288298 0.29376677
vt 0.20288298 0.45270736
vt 0.20288298 0.45270736
vt 0.20288298 0.29376677
vt 0.20288298 0.45270736
vt 0.39378280 0.29376677
vt 0.39378280 0.45270736
vt 0.39378280 0.29376677
vt 0.39378280 0.45270736
vt 0.39378280 0.45270736
vt 0.39378280 0.29376677
vt 0.39378280 0.29376677
vt 0.39378280 0.45270736
vt 0.41520920 0.39411859
vt 0.41520920 0.39411859
vt 0.41520926 0.39403466
vt 0.41520926 0.39403466
vt 0.41520927 0.39403278
vt 0.41520927 0.39403278
vt 0.44895644 0.50740380
vt 0.44895644 0.50740380
vt 0.44895950 0.50740476
vt 0.44895950 0.50740476
vt 0.44909639 0.50744784
vt 0.44909639 0.50744784
vt 0.49024744 2.6222541e-2
vt 0.49028634 2.6278749e-2
vt 0.49028634 2.6278749e-2
vt 0.49028634 0.24910429
vt 0.49028634 0.24910429
vt 0.49032522 0.24904807
vt 0.50636245 0.23144515
vt 0.55407580 0.50753365
vt 0.55407580 0.50753365
vt 0.55407885 0.50753177
vt 0.55407885 0.50753177
vt 0.55421582 0.50744784
vt 0.55421582 0.50744784
vt 0.58810294 0.39424634
vt 0.58810294 0.39424634
vt 0.58810294 0.39424355
vt 0.58810294 0.39424355
vt 0.58810301 0.39411859
vt 0.58810301 0.39411859
vt 0.62689536 2.2676012e-2
vt 0.62689536 0.44021429
vt 0.65691289 0.45032092
vt 0.65691289 0.62718713
vt 0.65691289 0.62718713
vt 0.65691289 0.45032092
vt 0.65691289 0.45032092
vt 0.65691289 0.45032092
vt 0.65691289 0.45032092
vt 0.65691289 0.62718713
vt 0.86796120 2.2676012e-2
vt 0.86796120 0.44021429
vt 0.96397229 0.45032092
vt 0.96397229 0.62718713
vt 0.96397229 0.62718713
vt 0.96397229 0.45032092
vt 0.96397229 0.62718713
vt 0.96397229 0.45032092
vt 0.96397229 0.45032092
vt 0.98849412 0.23144515
vn 0.30850322 0.46392982 0.83041850
vn 0.87341513 0.46392982 -0.14803762
vn -0.87341513 0.46392982 -0.14803762
vn -0.30850322 0.46392982 0.83041850
vn 0.56491191 0.46392982 -0.68238088
vn -0.56491191 0.46392982 -0.68238088
vn 0.49126003 -0.71925460 0.49126003
vn 0.67107367 -0.71925460 0.17981365
vn -0.67107367 -0.71925460 0.17981365
vn -0.49126003 -0.71925460 0.49126003
vn 0.17981365 -0.71925460 -0.67107367
vn -0.17981365 -0.71925460 -0.67107367
vn 0.26007269 0.17658123 -0.94930567
vn 0.95215918 0.17658123 0.24942328
vn 0.78867513 -0.57735027 0.21132487
vn 0.21132487 -0.57735027 -0.78867513
vn -0.95215918 0.17658123 0.24942328
vn -0.26007269 0.17658123 -0.94930567
vn -0.21132487 -0.57735027 -0.78867513
vn -0.78867513 -0.57735027 0.21132487
vn 0.69208648 0.17658123 0.69988240
vn -0.69208648 0.17658123 0.69988240
vn -0.57735027 -0.57735027 0.57735027
vn 0.57735027 -0.57735027 0.57735027
vn 0.65306907 0.73864615 0.16704086
vn 0.18187290 0.73864615 -0.64909484
vn -0.65306907 0.73864615 -0.16704086
vn -0.18187290 0.73864615 0.64909484
vn -0.18187290 0.73864615 -0.64909484
vn -0.65306907 0.73864615 0.16704086
vn 0.18187290 0.73864615 0.64909484
vn 0.65306907 0.73864615 -0.16704086
vn -0.47119617 0.73864615 0.48205397
vn 0.47119617 0.73864615 0.48205397
vn 0.47119617 0.73864615 -0.48205397
vn -0.47119617 0.73864615 -0.48205397
g cylinder4_cylinder6_auv
usemtl cylinder6_auv
f 55/293/55 60/285/60 59/275/59 58/261/58 57/274/57 56/284/56
f 55/268/55 82/263/82 81/250/81 60/248/60
f 56/283/56 62/282/62 61/286/61 55/287/55
f 56/238/56 75/232/75 78/230/78 62/237/62
f 56/220/56 89/214/89 88/208/88 75/198/75
f 57/272/57 90/266/90 89/254/89 56/244/56
f 58/277/58 64/279/64 63/291/63 57/288/57
f 58/242/58 71/228/71 74/227/74 64/240/64
f 58/219/58 85/212/85 84/207/84 71/201/71
f 59/271/59 86/265/86 85/252/85 58/246/58
f 60/277/60 66/280/66 65/292/65 59/288/59
f 60/238/60 67/231/67 70/230/70 66/235/66
f 60/217/60 81/210/81 80/205/80 67/203/67
f 61/229/61 69/241/69 68/239/68 55/231/55
f 62/183/62 63/191/63 64/197/64 65/194/65 66/186/66 61/180/61
f 62/185/62 78/184/78 77/192/77 63/193/63
f 63/233/63 77/235/77 76/236/76 57/234/57
f 64/187/64 74/195/74 73/190/73 65/182/65
f 65/233/65 73/235/73 72/236/72 59/234/59
f 66/196/66 70/188/70 69/181/69 61/189/61
f 67/269/67 80/262/80 79/249/79 68/247/68
f 68/278/68 69/276/69 70/289/70 67/290/67
f 68/216/68 79/211/79 82/204/82 55/202/55
f 71/270/71 84/264/84 83/251/83 72/245/72
f 72/277/72 73/279/73 74/292/74 71/288/71
f 72/218/72 83/213/83 86/206/86 59/200/59
f 75/273/75 88/267/88 87/253/87 76/243/76
f 76/283/76 77/281/77 78/286/78 75/287/75
f 76/220/76 87/215/87 90/209/90 57/199/57
f 80/224/80 81/223/81 82/257/82 79/259/79
f 84/226/84 85/221/85 86/255/86 83/260/83
f 88/256/88 89/258/89 90/225/90 87/222/87
