# Exported from Wings 3D 0.99.04a
mtllib barrel1.mtl
o cannon_01
#40 vertices, 34 faces
v 0.92387950 14.81781387 -4.72444984
v 0.92387950 15.58318138 -4.72444984
v 0.38268343 16.12437630 -4.72444984
v -0.38268349 16.12437630 -4.72444984
v -0.92387956 15.58318138 -4.72444984
v -0.92387950 14.81781387 -4.72444984
v -0.38268340 14.27661800 -4.72444984
v 0.38268349 14.27661800 -4.72444984
v 0.92388040 14.81781483 11.27555016
v 0.92388046 15.58318233 11.27555016
v 0.38268435 16.12437820 11.27555016
v -0.38268253 16.12437820 11.27555016
v -0.92387861 15.58318233 11.27555016
v -0.92387861 14.81781483 11.27555016
v -0.38268244 14.27661896 11.27555016
v 0.38268444 14.27661896 11.27555016
v 0.92388052 14.81781578 13.27555016
v 0.92388058 15.58318233 13.27555016
v 0.38268447 16.12437820 13.27555016
v -0.38268241 16.12437820 13.27555016
v -0.92387849 15.58318233 13.27555016
v -0.92387849 14.81781578 13.27555016
v -0.38268232 14.27661896 13.27555016
v 0.38268456 14.27661896 13.27555016
v 1.63098717 14.11070824 12.81564072
v 1.63098717 16.29028893 12.81563882
v 1.08979118 16.83148575 12.81563882
v -1.08978939 16.83148575 12.81563882
v -1.63098550 16.29028893 12.81563882
v -1.63098538 14.11070824 12.81564072
v -1.08978927 13.56951237 12.81564072
v 1.08979118 13.56951237 12.81564072
v 1.63098729 14.11070824 14.81564072
v 1.63098741 16.29028893 14.81563882
v 1.08979130 16.83148575 14.81563882
v -1.08978927 16.83148575 14.81564072
v -1.63098538 16.29028893 14.81563882
v -1.63098526 14.11070824 14.81564072
v -1.08978915 13.56951237 14.81564072
v 1.08979130 13.56951237 14.81563882
vt 1.6240083e-2 0.96667498
vt 1.6240083e-2 0.99187201
vt 1.7028607e-2 0.89413637
vt 1.7028607e-2 0.93395656
vt 4.5185752e-2 0.86597925
vt 4.5185752e-2 0.96211368
vt 8.5005961e-2 0.86597925
vt 8.5005961e-2 0.96211368
vt 0.11316305 0.89413637
vt 0.11316305 0.93395656
vt 0.12507160 0.87128574
vt 0.12539247 0.91493887
vt 0.12571016 0.82462233
vt 0.12571016 0.86536175
vt 0.12748122 0.96272355
vt 0.12819175 0.91845566
vt 0.22881900 0.91411775
vt 0.22912771 0.87124366
vt 0.22942422 0.91858441
vt 0.23014466 0.96268731
vt 0.23108684 0.82483965
vt 0.23130415 0.86536175
vt 0.23881717 0.87089521
vt 0.23881747 0.96086162
vt 0.27062488 0.80161697
vt 0.27062514 0.89158326
vt 0.31509316 0.96667510
vt 0.31509316 0.99187201
vn 0.0000000e+0 8.2057005e-16 -1.00000000
vn 1.00000000 -3.8938578e-8 -5.7741997e-8
vn 0.70710670 -0.70710686 1.3170982e-9
vn 0.0000000e+0 8.2057005e-16 -1.00000000
vn 1.00000000 -3.8938578e-8 -5.7741997e-8
vn 0.70710632 0.70710724 -1.0470859e-7
vn 0.0000000e+0 8.2057005e-16 -1.00000000
vn 0.70710632 0.70710724 -1.0470859e-7
vn 0.0000000e+0 1.00000000 -1.1920929e-7
vn 0.0000000e+0 8.2057005e-16 -1.00000000
vn 0.0000000e+0 1.00000000 -1.1920929e-7
vn -0.70710633 0.70710723 -2.1073491e-8
vn 0.0000000e+0 8.2057005e-16 -1.00000000
vn -0.70710633 0.70710723 -2.1073491e-8
vn -1.00000000 -3.8938578e-8 5.7742002e-8
vn 0.0000000e+0 8.2057005e-16 -1.00000000
vn -1.00000000 -3.8938578e-8 5.7742002e-8
vn -0.70710661 -0.70710696 8.2976608e-8
vn 0.0000000e+0 8.2057005e-16 -1.00000000
vn -0.70710661 -0.70710696 8.2976608e-8
vn 0.0000000e+0 -1.00000000 5.9604645e-8
vn 0.0000000e+0 8.2057005e-16 -1.00000000
vn 0.0000000e+0 -1.00000000 5.9604645e-8
vn 0.70710670 -0.70710686 1.3170982e-9
vn 1.00000000 -3.8938578e-8 -5.7741997e-8
vn 0.70710670 -0.70710686 1.3170982e-9
vn 1.00000000 -7.7877204e-8 -5.9604626e-8
vn 0.59305538 -0.59305550 -0.54458286
vn 0.70710716 0.70710640 -2.1073417e-7
vn 1.00000000 -3.8938578e-8 -5.7741997e-8
vn 0.70710632 0.70710724 -1.0470859e-7
vn 1.00000000 -7.7877204e-8 -5.9604626e-8
vn 0.59305533 0.59305500 -0.54458346
vn 0.70710676 -0.70710680 -6.3220271e-8
vn 0.70710632 0.70710724 -1.0470859e-7
vn 0.0000000e+0 1.00000000 -1.1920929e-7
vn 0.0000000e+0 1.00000000 0.0000000e+0
vn 0.59305533 0.59305500 -0.54458346
vn -0.70710718 0.70710638 4.2146873e-8
vn 0.0000000e+0 1.00000000 -1.1920929e-7
vn -0.70710633 0.70710723 -2.1073491e-8
vn 0.0000000e+0 1.00000000 0.0000000e+0
vn -0.59305529 0.59305501 -0.54458349
vn 0.70710708 0.70710648 -4.2146846e-8
vn -0.70710633 0.70710723 -2.1073491e-8
vn -1.00000000 -3.8938578e-8 5.7742002e-8
vn -1.00000000 0.0000000e+0 5.9604645e-8
vn -0.59305529 0.59305501 -0.54458349
vn -0.70710659 -0.70710698 4.2146837e-8
vn -1.00000000 -3.8938578e-8 5.7742002e-8
vn -0.70710661 -0.70710696 8.2976608e-8
vn -1.00000000 0.0000000e+0 5.9604645e-8
vn -0.59305529 -0.59305558 -0.54458287
vn -0.70710707 0.70710649 -1.2644046e-7
vn -0.70710661 -0.70710696 8.2976608e-8
vn 0.0000000e+0 -1.00000000 5.9604645e-8
vn 0.0000000e+0 -1.00000000 0.0000000e+0
vn -0.59305529 -0.59305558 -0.54458287
vn 0.70710662 -0.70710695 -4.2146839e-8
vn 0.0000000e+0 -1.00000000 5.9604645e-8
vn 0.70710670 -0.70710686 1.3170982e-9
vn 0.0000000e+0 -1.00000000 0.0000000e+0
vn 0.59305538 -0.59305550 -0.54458286
vn -0.70710675 -0.70710681 4.2146867e-8
vn 0.0000000e+0 0.0000000e+0 1.00000000
vn 1.00000000 -7.7877204e-8 -5.9604626e-8
vn -0.59305596 0.59305459 0.54458322
vn 0.70710716 0.70710640 -2.1073417e-7
vn 0.0000000e+0 0.0000000e+0 1.00000000
vn 1.00000000 -7.7877204e-8 -5.9604626e-8
vn -0.59305528 -0.59305502 0.54458348
vn 0.70710676 -0.70710680 -6.3220271e-8
vn 0.0000000e+0 0.0000000e+0 1.00000000
vn 0.0000000e+0 1.00000000 0.0000000e+0
vn -0.59305528 -0.59305502 0.54458348
vn -0.70710718 0.70710638 4.2146873e-8
vn 0.0000000e+0 0.0000000e+0 1.00000000
vn 0.0000000e+0 1.00000000 0.0000000e+0
vn 0.59305492 -0.59305560 0.54458326
vn 0.70710708 0.70710648 -4.2146846e-8
vn 0.0000000e+0 0.0000000e+0 1.00000000
vn -1.00000000 0.0000000e+0 5.9604645e-8
vn 0.59305492 -0.59305560 0.54458326
vn -0.70710659 -0.70710698 4.2146837e-8
vn 0.0000000e+0 0.0000000e+0 1.00000000
vn -1.00000000 0.0000000e+0 5.9604645e-8
vn 0.59305549 0.59305526 0.54458300
vn -0.70710707 0.70710649 -1.2644046e-7
vn 0.0000000e+0 0.0000000e+0 1.00000000
vn 0.0000000e+0 -1.00000000 0.0000000e+0
vn 0.59305549 0.59305526 0.54458300
vn 0.70710662 -0.70710695 -4.2146839e-8
vn 0.0000000e+0 0.0000000e+0 1.00000000
vn 0.0000000e+0 -1.00000000 0.0000000e+0
vn -0.59305596 0.59305459 0.54458322
vn -0.70710675 -0.70710681 4.2146867e-8
vn 0.70710670 -0.70710686 -4.2146864e-8
vn 0.59305538 -0.59305550 -0.54458286
vn 0.70710716 0.70710640 -2.1073417e-7
vn 0.70710729 0.70710627 -6.3220318e-8
vn 0.59305533 0.59305500 -0.54458346
vn 0.70710676 -0.70710680 -6.3220271e-8
vn 0.70710729 0.70710627 -6.3220318e-8
vn 0.59305533 0.59305500 -0.54458346
vn -0.70710718 0.70710638 4.2146873e-8
vn -0.70710725 0.70710631 4.2146856e-8
vn -0.59305529 0.59305501 -0.54458349
vn 0.70710708 0.70710648 -4.2146846e-8
vn -0.70710725 0.70710631 4.2146856e-8
vn -0.59305529 0.59305501 -0.54458349
vn -0.70710659 -0.70710698 4.2146837e-8
vn -0.70710663 -0.70710694 4.2146839e-8
vn -0.59305529 -0.59305558 -0.54458287
vn -0.70710707 0.70710649 -1.2644046e-7
vn -0.70710663 -0.70710694 4.2146839e-8
vn -0.59305529 -0.59305558 -0.54458287
vn 0.70710662 -0.70710695 -4.2146839e-8
vn 0.70710670 -0.70710686 -4.2146864e-8
vn 0.59305538 -0.59305550 -0.54458286
vn -0.70710675 -0.70710681 4.2146867e-8
vn 0.70710670 -0.70710686 -4.2146864e-8
vn -0.59305596 0.59305459 0.54458322
vn 0.70710716 0.70710640 -2.1073417e-7
vn 0.70710729 0.70710627 -6.3220318e-8
vn -0.59305528 -0.59305502 0.54458348
vn 0.70710676 -0.70710680 -6.3220271e-8
vn 0.70710729 0.70710627 -6.3220318e-8
vn -0.59305528 -0.59305502 0.54458348
vn -0.70710718 0.70710638 4.2146873e-8
vn -0.70710725 0.70710631 4.2146856e-8
vn 0.59305492 -0.59305560 0.54458326
vn 0.70710708 0.70710648 -4.2146846e-8
vn -0.70710725 0.70710631 4.2146856e-8
vn 0.59305492 -0.59305560 0.54458326
vn -0.70710659 -0.70710698 4.2146837e-8
vn -0.70710663 -0.70710694 4.2146839e-8
vn 0.59305549 0.59305526 0.54458300
vn -0.70710707 0.70710649 -1.2644046e-7
vn -0.70710663 -0.70710694 4.2146839e-8
vn 0.59305549 0.59305526 0.54458300
vn 0.70710662 -0.70710695 -4.2146839e-8
vn 0.70710670 -0.70710686 -4.2146864e-8
vn -0.59305596 0.59305459 0.54458322
vn -0.70710675 -0.70710681 4.2146867e-8
g cannon_01_1 - Default
usemtl 1 - Default
f 1/10/1 8/8/22 7/6/19 6/4/16 5/3/13 4/5/10 3/7/7 2/9/4
f 1/2/3 9/28/26 16/27/61 8/1/24
f 2/1/5 10/27/30 9/28/25 1/2/2
f 3/27/8 11/1/35 10/2/31 2/28/6
f 4/28/11 12/2/40 11/1/36 3/27/9
f 5/27/14 13/1/45 12/2/41 4/28/12
f 6/28/17 14/2/50 13/1/46 5/27/15
f 7/2/20 15/28/55 14/27/51 6/1/18
f 8/1/23 16/27/60 15/28/56 7/2/21
f 9/16/28 25/19/98 32/20/119 16/15/63
f 10/13/32 18/21/70 17/22/66 9/14/27
f 10/24/34 26/26/102 34/25/126 18/23/72
f 11/15/38 27/20/104 26/19/101 10/16/33
f 12/22/42 20/14/78 19/13/74 11/21/37
f 12/24/44 28/26/108 36/25/132 20/23/80
f 13/20/48 29/15/110 28/16/107 12/19/43
f 14/22/52 22/14/86 21/13/82 13/21/47
f 14/25/54 30/23/114 38/24/138 22/26/88
f 15/19/58 31/16/116 30/15/113 14/20/53
f 16/13/62 24/21/94 23/22/90 15/14/57
f 16/24/64 32/26/120 40/25/144 24/23/96
f 17/23/68 33/25/123 25/26/99 9/24/29
f 18/7/69 19/9/73 20/10/77 21/8/81 22/6/85 23/4/89 24/3/93 17/5/65
f 18/17/71 34/12/125 35/11/128 19/18/75
f 19/26/76 35/24/129 27/23/105 11/25/39
f 20/12/79 36/17/131 37/18/134 21/11/83
f 21/23/84 37/25/135 29/26/111 13/24/49
f 22/11/87 38/18/137 39/17/140 23/12/91
f 23/23/92 39/25/141 31/26/117 15/24/59
f 24/18/95 40/11/143 33/12/122 17/17/67
f 25/13/97 33/21/121 40/22/142 32/14/118
f 27/13/103 35/21/127 34/22/124 26/14/100
f 29/13/109 37/21/133 36/22/130 28/14/106
f 31/13/115 39/21/139 38/22/136 30/14/112
