# Exported from Wings 3D 0.99.04a
mtllib turret.mtl
o turret_02
#39 vertices, 36 faces
v 3.15257478 9.93694210 -4.88466930
v -1.9557774e-7 9.93694210 -6.70480919
v -3.15257478 9.93694210 -4.88466930
v -3.15257454 9.93694210 -1.24438930
v 4.4517219e-7 9.93694210 0.57575023
v 3.15257502 9.93694210 -1.24438977
v 3.15257478 11.15036869 -4.88466930
v -1.9557774e-7 11.15036869 -6.70480919
v -3.15257478 11.15036869 -4.88466930
v -3.15257454 11.15036869 -1.24438930
v 4.4517219e-7 11.15036869 0.57575023
v 3.15257502 11.15036869 -1.24438977
v -4.36600113 9.93694210 -4.88466930
v -4.36600113 9.93694210 -1.24438906
v -4.42731857 11.15036869 -4.88466883
v -4.42731857 11.15036869 -1.24438930
v -3.15257478 14.18393517 -4.88466930
v -3.15257454 14.18393517 -1.24438930
v -4.36600113 14.18393517 -4.88466930
v -4.36600113 14.18393517 -1.24438906
v -3.15257502 16.00407410 -3.91124344
v -3.15257478 16.00407410 -2.21781492
v -4.36600161 16.00407410 -3.91124344
v -4.36600161 16.00407410 -2.21781492
v -5.57942820 14.18393517 -4.88466930
v -5.57942772 14.18393517 -1.24438906
v -3.77461743 12.66715240 3.20037675
v 4.36600161 9.93694210 -4.88466930
v 4.36600208 9.93694210 -1.24439001
v 4.36600161 11.15036869 -4.88466930
v 4.36600208 11.15036869 -1.24439001
v 3.16074586 12.36379528 -3.85075521
v 3.16074610 12.36379528 -2.27830410
v 4.35783052 12.36379528 -3.85075521
v 4.35783052 12.36379528 -2.27830458
v 3.15257478 8.72351551 -3.84948778
v 3.15257502 8.72351551 -2.27957153
v 4.36600113 8.72351551 -3.84948778
v 4.36600208 8.72351551 -2.27957153
vt 0.60479945 0.81475914
vt 0.60479951 0.80791235
vt 0.62533993 0.81475919
vt 0.62533998 0.80791241
vt 0.65344894 0.73089212
vt 0.65495479 0.80538279
vt 0.65576708 0.89956111
vt 0.65576708 0.98894995
vt 0.65836489 0.81389552
vt 0.68324518 0.73089200
vt 0.68560147 0.89956111
vt 0.68560147 0.98894995
vt 0.68822837 0.69855708
vt 0.68842995 0.72745925
vt 0.70304835 0.73650122
vt 0.70304835 0.89128977
vt 0.76413512 0.89956111
vt 0.76413512 0.98894995
vt 0.76584113 0.72782892
vt 0.76653302 0.69857961
vt 0.76952529 0.98952669
vt 0.76952565 0.90013772
vt 0.79241562 0.73650122
vt 0.79241562 0.89128977
vt 0.79932165 0.98952681
vt 0.79932189 0.90013784
vt 0.81137788 0.95934850
vt 0.81137788 0.98989767
vt 0.81209385 0.91092652
vt 0.81209385 0.95069391
vt 0.82048130 0.85686487
vt 0.82048154 0.89863938
vt 0.83268160 0.42738155
vt 0.83268160 0.49676043
vt 0.83709931 0.81389552
vt 0.84357345 0.84773141
vt 0.84414303 0.69860214
vt 0.84425235 0.80303746
vt 0.84434462 0.72785145
vt 0.85027766 0.85686487
vt 0.85027790 0.89863938
vt 0.85199881 0.91099805
vt 0.85199881 0.95062238
vt 0.85762691 0.86294526
vt 0.85762715 0.90452820
vt 0.87325180 0.69839400
vt 0.87380064 0.72729903
vt 0.87404823 0.80289429
vt 0.87461030 0.84758812
vt 0.88630623 0.54250801
vt 0.88630664 0.38163409
vt 0.90217531 0.83878702
vt 0.90232158 0.92843097
vt 0.90384424 0.80275112
vt 0.92508161 0.97462314
vt 0.93997216 0.72890526
vt 0.94091213 0.54238963
vt 0.94091260 0.38151565
vt 0.97722185 0.83805579
vt 0.99453723 0.42720717
vt 0.99453723 0.49669793
vn 0.0000000e+0 -1.00000000 0.0000000e+0
vn 0.49999997 0.0000000e+0 -0.86602542
vn 0.0000000e+0 0.0000000e+0 -1.00000000
vn -1.00000000 -8.9910962e-15 9.1520008e-8
vn 0.0000000e+0 -0.64901920 -0.76077203
vn 0.0000000e+0 -1.00000000 0.0000000e+0
vn 0.49999997 0.0000000e+0 -0.86602542
vn -0.50000002 -2.0107217e-16 -0.86602539
vn 0.0000000e+0 -1.00000000 0.0000000e+0
vn -0.50000002 -2.0107217e-16 -0.86602539
vn 0.0000000e+0 -1.00000000 0.0000000e+0
vn -1.9164170e-7 1.9164166e-7 -1.00000000
vn 0.0000000e+0 -1.00000000 0.0000000e+0
vn -0.49999990 -2.5134020e-17 0.86602546
vn 0.0000000e+0 -1.00000000 0.0000000e+0
vn 9.5820832e-8 1.0066290e-7 1.00000000
vn 0.0000000e+0 -1.00000000 0.0000000e+0
vn -0.49999990 -2.5134020e-17 0.86602546
vn 0.50000005 0.0000000e+0 0.86602538
vn 0.0000000e+0 -1.00000000 0.0000000e+0
vn 0.50000005 0.0000000e+0 0.86602538
vn 1.9648365e-7 0.0000000e+0 1.00000000
vn -1.00000000 -8.9910962e-15 9.1520008e-8
vn 7.4739629e-8 -0.64901924 0.76077199
vn 0.49999997 0.0000000e+0 -0.86602542
vn 0.0000000e+0 1.00000000 0.0000000e+0
vn 0.0000000e+0 0.0000000e+0 -1.00000000
vn -0.99997733 6.7337376e-3 9.1473429e-8
vn 0.0000000e+0 0.64855893 -0.76116445
vn 0.49999997 0.0000000e+0 -0.86602542
vn -0.50000002 -2.0107217e-16 -0.86602539
vn 0.0000000e+0 1.00000000 0.0000000e+0
vn -0.50000002 -2.0107217e-16 -0.86602539
vn 0.0000000e+0 1.00000000 0.0000000e+0
vn -1.9164170e-7 1.9164166e-7 -1.00000000
vn -1.9164170e-7 -7.6656665e-8 -1.00000000
vn -0.49999990 -2.5134020e-17 0.86602546
vn 0.0000000e+0 1.00000000 0.0000000e+0
vn 9.5820832e-8 1.0066290e-7 1.00000000
vn 0.0000000e+0 -0.94641113 0.32296435
vn 0.99034861 1.0283034e-16 0.13859882
vn -0.49999990 -2.5134020e-17 0.86602546
vn 0.50000005 0.0000000e+0 0.86602538
vn 0.0000000e+0 1.00000000 0.0000000e+0
vn 0.50000005 0.0000000e+0 0.86602538
vn 0.0000000e+0 1.00000000 0.0000000e+0
vn 1.9648365e-7 0.0000000e+0 1.00000000
vn -0.99997733 6.7337376e-3 9.1473429e-8
vn 2.2585545e-7 0.64855906 0.76116434
vn -0.99872567 -5.0468076e-2 0.0000000e+0
vn 0.0000000e+0 -1.00000000 0.0000000e+0
vn -1.9164170e-7 1.9164166e-7 -1.00000000
vn -0.99872567 -5.0468076e-2 0.0000000e+0
vn 0.0000000e+0 -1.00000000 0.0000000e+0
vn 9.5820832e-8 1.0066290e-7 1.00000000
vn -0.99872567 -5.0468076e-2 0.0000000e+0
vn -1.9164170e-7 1.9164166e-7 -1.00000000
vn -0.93484966 -0.35504383 6.1227580e-8
vn -1.9164170e-7 -7.6656665e-8 -1.00000000
vn 0.0000000e+0 -1.5718698e-7 -1.00000000
vn -0.99872567 -5.0468076e-2 0.0000000e+0
vn 9.5820832e-8 1.0066290e-7 1.00000000
vn -0.93484966 -0.35504383 6.1227580e-8
vn 0.0000000e+0 -7.8593491e-8 1.00000000
vn 0.0000000e+0 -0.94641113 0.32296435
vn -0.99015026 2.0013885e-2 0.13857095
vn -1.9164170e-7 -7.6656665e-8 -1.00000000
vn 0.0000000e+0 0.47160071 -0.88181221
vn 8.6630869e-8 0.47160066 0.88181223
vn 0.99034861 1.0283034e-16 0.13859882
vn 6.3457206e-8 0.94641119 0.32296418
vn -1.9164170e-7 -7.6656665e-8 -1.00000000
vn 0.0000000e+0 0.47160071 -0.88181221
vn -1.00000000 -2.6197844e-7 0.0000000e+0
vn 0.0000000e+0 1.00000000 0.0000000e+0
vn 0.0000000e+0 -1.5718698e-7 -1.00000000
vn -1.00000000 -2.6197844e-7 0.0000000e+0
vn 8.6630869e-8 0.47160066 0.88181223
vn 0.0000000e+0 -7.8593491e-8 1.00000000
vn 0.0000000e+0 1.00000000 0.0000000e+0
vn 6.3457206e-8 0.94641119 0.32296418
vn -0.99015026 2.0013885e-2 0.13857095
vn 0.0000000e+0 1.00000000 0.0000000e+0
vn 0.0000000e+0 0.47160071 -0.88181221
vn 0.0000000e+0 1.00000000 0.0000000e+0
vn 8.6630869e-8 0.47160066 0.88181223
vn 0.0000000e+0 1.00000000 0.0000000e+0
vn 0.0000000e+0 0.47160071 -0.88181221
vn -1.00000000 -2.6197844e-7 0.0000000e+0
vn 0.0000000e+0 1.00000000 0.0000000e+0
vn -1.00000000 -2.6197844e-7 0.0000000e+0
vn 8.6630869e-8 0.47160066 0.88181223
vn -0.93484966 -0.35504383 6.1227580e-8
vn 0.0000000e+0 1.00000000 0.0000000e+0
vn 0.0000000e+0 -1.5718698e-7 -1.00000000
vn -0.93484966 -0.35504383 6.1227580e-8
vn 0.0000000e+0 -7.8593491e-8 1.00000000
vn 0.0000000e+0 1.00000000 0.0000000e+0
vn 0.0000000e+0 -0.94641113 0.32296435
vn 0.99034861 1.0283034e-16 0.13859882
vn 6.3457206e-8 0.94641119 0.32296418
vn -0.99015026 2.0013885e-2 0.13857095
vn 1.00000000 0.0000000e+0 -1.3098917e-7
vn 0.0000000e+0 0.0000000e+0 -1.00000000
vn 1.00000000 -1.9648373e-7 -2.7456004e-7
vn 0.0000000e+0 -0.64901920 -0.76077203
vn 1.00000000 0.0000000e+0 -1.3098917e-7
vn 1.9648365e-7 0.0000000e+0 1.00000000
vn 1.00000000 -1.9648373e-7 -2.7456004e-7
vn 7.4739629e-8 -0.64901924 0.76077199
vn 1.00000000 0.0000000e+0 -1.3098917e-7
vn 0.0000000e+0 0.0000000e+0 -1.00000000
vn 0.99997733 6.7339341e-3 -9.1473442e-8
vn 0.0000000e+0 0.64855893 -0.76116445
vn 1.00000000 0.0000000e+0 -1.3098917e-7
vn 1.9648365e-7 0.0000000e+0 1.00000000
vn 0.99997733 6.7339341e-3 -9.1473442e-8
vn 2.2585545e-7 0.64855906 0.76116434
vn 0.0000000e+0 1.00000000 0.0000000e+0
vn -0.99997733 6.7337376e-3 9.1473429e-8
vn 0.0000000e+0 0.64855893 -0.76116445
vn 0.0000000e+0 1.00000000 0.0000000e+0
vn -0.99997733 6.7337376e-3 9.1473429e-8
vn 2.2585545e-7 0.64855906 0.76116434
vn 0.0000000e+0 1.00000000 0.0000000e+0
vn 0.99997733 6.7339341e-3 -9.1473442e-8
vn 0.0000000e+0 0.64855893 -0.76116445
vn 0.0000000e+0 1.00000000 0.0000000e+0
vn 0.99997733 6.7339341e-3 -9.1473442e-8
vn 2.2585545e-7 0.64855906 0.76116434
vn 0.0000000e+0 -1.00000000 0.0000000e+0
vn -1.00000000 -8.9910962e-15 9.1520008e-8
vn 0.0000000e+0 -0.64901920 -0.76077203
vn 0.0000000e+0 -1.00000000 0.0000000e+0
vn -1.00000000 -8.9910962e-15 9.1520008e-8
vn 7.4739629e-8 -0.64901924 0.76077199
vn 0.0000000e+0 -1.00000000 0.0000000e+0
vn 1.00000000 -1.9648373e-7 -2.7456004e-7
vn 0.0000000e+0 -0.64901920 -0.76077203
vn 0.0000000e+0 -1.00000000 0.0000000e+0
vn 1.00000000 -1.9648373e-7 -2.7456004e-7
vn 7.4739629e-8 -0.64901924 0.76077199
g turret_02_1 - Default
usemtl 1 - Default
f 1/15/1 6/23/20 5/35/17 4/24/13 3/16/9 2/9/6
f 1/50/4 36/34/132 37/33/135 6/51/23
f 2/20/7 8/19/30 7/14/25 1/13/2
f 3/37/10 9/39/33 8/19/31 2/20/8
f 3/37/12 13/46/52 15/47/57 9/39/35
f 4/4/15 14/3/54 13/1/51 3/2/11
f 5/19/18 11/20/42 10/37/37 4/39/14
f 6/14/21 12/13/45 11/20/43 5/19/19
f 6/30/22 29/29/108 31/42/116 12/43/47
f 6/43/24 37/30/136 39/29/142 29/42/110
f 7/42/27 30/43/112 28/30/104 1/29/3
f 7/29/29 32/42/121 34/43/127 30/30/114
f 8/35/32 9/24/34 10/16/38 11/9/44 12/15/46 7/23/26
f 10/37/39 16/46/62 14/47/55 4/39/16
f 10/27/40 27/55/99 16/28/65
f 12/58/48 33/60/123 32/61/120 7/57/28
f 14/7/53 16/11/61 15/12/56 13/8/50
f 15/47/59 19/48/72 17/38/67 9/39/36
f 15/47/60 25/54/95 19/48/76
f 16/11/63 26/17/96 25/18/93 15/12/58
f 16/59/66 27/56/102 20/52/82
f 18/32/69 22/31/86 24/40/92 20/41/78
f 18/52/70 27/56/100 10/59/41
f 19/48/73 23/49/88 21/36/84 17/38/68
f 19/25/75 25/21/94 26/22/98 20/26/80
f 20/53/77 24/45/91 23/44/89 19/52/74
f 20/5/79 26/10/97 16/6/64
f 20/28/81 27/55/101 18/27/71
f 21/31/83 23/40/87 24/41/90 22/32/85
f 28/51/103 30/58/111 31/57/115 29/50/107
f 28/43/106 38/30/139 36/29/133 1/42/5
f 29/50/109 39/34/141 38/33/138 28/51/105
f 30/58/113 34/60/126 35/61/129 31/57/117
f 31/29/118 35/42/130 33/43/124 12/30/49
f 33/30/122 35/29/128 34/42/125 32/43/119
f 36/30/131 38/29/137 39/42/140 37/43/134
