# Exported from Wings 3D 1.0.1
mtllib base.mtl
o Box01_sep12
#50 vertices, 71 faces
v -0.18085097 -0.49899998 0.59041846
v 0.18285097 -0.49899998 0.59041846
v -0.18085097 0.50099999 0.59041852
v 0.18285097 0.50099999 0.59041852
v -0.49900001 -0.49900004 0.99899995
v 0.50099999 -0.49900004 0.99899995
v -0.77600002 0.50099993 1.06429696
v 0.77800000 0.50099993 1.06429696
v -0.99900001 -0.49899998 0.59041846
v 1.00100005 -0.49899998 0.59041846
v -0.77578431 0.50099999 0.59041852
v 0.77778429 0.50099999 0.59041852
v -0.99900001 -0.49900004 0.99899995
v 1.00100005 -0.49900004 0.99899995
v -0.49900001 -0.49899995 -1.00100005
v 0.50099999 -0.49899995 -1.00100005
v -0.49900001 0.50100005 -1.00099993
v 0.50099999 0.50100005 -1.00099993
v -1.34064007 -0.49900004 1.99899995
v 1.34264016 -0.49900004 1.99899995
v -0.99900001 -0.49899995 -1.25100005
v 1.00100005 -0.49899995 -1.25100005
v -0.77578431 0.50100005 -1.00099993
v 0.77778429 0.50100005 -1.00099993
v -0.49900001 -0.49899992 -2.00099993
v 0.50099999 -0.49899992 -2.00099993
v -0.63739216 0.50100011 -1.75099993
v 0.63939214 0.50100011 -1.75099993
v -0.52726763 0.87725508 1.18895304
v 0.52926785 0.87725496 1.18895316
v -0.91102171 0.39542708 2.44621372
v 0.91302168 0.39542708 2.44621372
v -1.66951334 1.0000000e-3 0.59041852
v 1.67151344 1.0000000e-3 0.59041852
v -1.66951334 9.9994102e-4 1.34899986
v 1.67151344 9.9994102e-4 1.34899986
v -1.66951334 1.0000307e-3 -0.70099992
v 1.67151344 1.0000307e-3 -0.70099992
v 9.9992845e-4 1.05200362 1.42235863
v -0.30256900 0.81302780 2.21804714
v 0.30456892 0.81302780 2.21804714
v -0.42647132 0.99168110 1.81246245
v 0.42847121 0.99168110 1.81246269
v -0.35944527 -0.58844280 2.17788553
v 0.36144528 -0.58844280 2.17788553
v -0.35944527 -3.5616081e-2 2.62509918
v 0.36144528 -3.5616081e-2 2.62509918
v 1.0000616e-3 0.53301829 2.49056816
v -0.51968551 -0.56197846 3.31358099
v 0.52168548 -0.56197846 3.31358099
vt 1.3854451e-2 0.83767301
vt 1.3854451e-2 0.96992153
vt 1.9218357e-2 0.72400320
vt 1.9218357e-2 0.82318956
vt 0.14610295 0.81927836
vt 0.14610295 0.98822361
vt 0.15146686 0.69094115
vt 0.15146686 0.79012746
vt 0.17657183 0.68829906
vt 0.24443340 0.80352592
vt 0.24528931 0.83758044
vt 0.24528931 0.96992153
vt 0.28581971 0.68023205
vt 0.36713335 0.28775311
vt 0.45575193 0.68278182
vt 0.45575193 0.80097610
vt 0.45575193 0.87965512
vt 0.45575193 0.92784679
vt 0.48184144 0.16113767
vt 0.51842171 0.80094761
vt 0.53490728 0.83384192
vt 0.53490734 0.97366005
vt 0.54098481 0.27942413
vt 0.55607337 0.68278182
vt 0.56565404 8.2283840e-2
vt 0.56577486 0.90361202
vt 0.56577486 0.90379733
vt 0.58999515 0.77909112
vt 0.60761774 0.83228183
vt 0.61736554 0.84717232
vt 0.61736554 0.96032977
vt 0.63347483 0.20840572
vt 0.63737690 0.28396252
vt 0.64203489 0.72627485
vt 0.64754379 9.5700771e-2
vt 0.65686166 0.77214640
vt 0.66516638 0.14889154
vt 0.67100340 0.86355805
vt 0.67100340 0.94394386
vt 0.68427360 0.13565098
vt 0.70117813 0.78309137
vt 0.70704389 0.90379733
vt 0.71545798 0.79172665
vt 0.72790521 0.91967040
vt 0.73271358 0.28396252
vt 0.73584396 0.20840572
vt 0.78161108 0.86520332
vt 0.78214222 0.84383881
vt 0.79279453 0.73405337
vt 0.83294100 0.77108407
vt 0.85122210 0.95625371
vt 0.85472137 0.80605978
vt 0.93970221 0.49200371
vt 0.93970221 0.50109524
vt 0.94652808 0.48745313
vt 0.94880331 0.49200371
vt 0.94880331 0.50109524
vt 0.95153368 0.48135072
vt 0.96328700 0.48135072
vt 0.96328700 0.48745313
vt 0.96328700 0.49489924
vt 0.96328700 0.49819967
vt 0.96700561 0.48745313
vt 0.96700561 0.49200371
vt 0.96700561 0.50109524
vt 0.97019100 0.48135072
vt 0.97610676 0.48434386
vt 0.97610676 0.50875503
vt 0.97773480 0.49327382
vt 0.97773480 0.49982509
vt 0.98807096 0.49181545
vn 0.0000000e+0 -1.00000000 -1.4588190e-7
vn 0.0000000e+0 -1.00000000 -1.4588190e-7
vn 0.0000000e+0 -1.00000000 -1.8726892e-8
vn 3.3520002e-9 -1.00000000 -1.7673743e-8
vn 0.0000000e+0 -1.00000000 -1.4588190e-7
vn 0.0000000e+0 -1.00000000 -1.4588190e-7
vn 0.0000000e+0 -1.00000000 -1.8726892e-8
vn -3.3520000e-9 -1.00000000 -1.7673743e-8
vn 0.0000000e+0 1.00000000 1.2578045e-7
vn 0.0000000e+0 1.00000000 3.7453785e-8
vn 0.0000000e+0 1.00000000 3.7453785e-8
vn 1.1573292e-7 0.84661533 -0.53220530
vn -0.51725379 0.55716824 -0.64962456
vn 0.0000000e+0 1.00000000 1.2578045e-7
vn 0.0000000e+0 1.00000000 3.7453785e-8
vn 0.0000000e+0 1.00000000 3.7453785e-8
vn 1.1573292e-7 0.84661533 -0.53220530
vn 0.51725379 0.55716828 -0.64962452
vn 0.0000000e+0 -1.00000000 -1.4588190e-7
vn 0.0000000e+0 -1.00000000 -1.4588190e-7
vn 0.0000000e+0 -1.00000000 -5.5511151e-17
vn 0.0000000e+0 -1.00000000 -2.2204460e-16
vn 0.0000000e+0 -1.00000000 -1.4588190e-7
vn 0.0000000e+0 -1.00000000 -1.4588190e-7
vn 0.0000000e+0 -1.00000000 -5.5511151e-17
vn 0.0000000e+0 -1.00000000 -2.2204458e-16
vn 0.0000000e+0 1.00000000 1.2578045e-7
vn -0.51725379 0.55716824 -0.64962456
vn -0.48829560 0.87267829 -8.5379122e-5
vn -0.19675459 0.72650016 0.65839589
vn -0.84212459 0.53545448 6.4145717e-2
vn 0.0000000e+0 1.00000000 1.2578045e-7
vn 0.51725379 0.55716828 -0.64962452
vn 0.48829555 0.87267832 -8.5379113e-5
vn 0.19675457 0.72650016 0.65839589
vn 0.84212473 0.53545431 6.4145345e-2
vn 0.0000000e+0 -1.00000000 -1.4588190e-7
vn 3.3520002e-9 -1.00000000 -1.7673743e-8
vn -0.59779020 -0.80165259 -8.1477760e-8
vn -0.59779019 -0.80165260 -1.5460585e-8
vn 0.0000000e+0 -1.00000000 -1.4588190e-7
vn -3.3520000e-9 -1.00000000 -1.7673743e-8
vn 0.59779016 -0.80165262 -8.1477762e-8
vn 0.59779015 -0.80165263 -1.5460585e-8
vn 0.0000000e+0 1.00000000 1.2578045e-7
vn 0.0000000e+0 1.00000000 3.7453785e-8
vn -0.48829560 0.87267829 -8.5379122e-5
vn -0.48824037 0.87270919 2.7312492e-8
vn 0.0000000e+0 1.00000000 1.2578045e-7
vn 0.0000000e+0 1.00000000 3.7453785e-8
vn 0.48829555 0.87267832 -8.5379113e-5
vn 0.48824032 0.87270922 2.7312493e-8
vn 0.0000000e+0 -1.00000000 -1.4588190e-7
vn 0.0000000e+0 -1.00000000 -2.2204460e-16
vn -0.59779020 -0.80165259 -8.1477760e-8
vn -0.65500166 -0.72173240 -0.22377480
vn 0.0000000e+0 -1.00000000 -1.4588190e-7
vn 0.0000000e+0 -1.00000000 -2.2204458e-16
vn 0.59779016 -0.80165262 -8.1477762e-8
vn 0.65500163 -0.72173242 -0.22377483
vn 0.0000000e+0 -1.00000000 -1.8726892e-8
vn 3.3520002e-9 -1.00000000 -1.7673743e-8
vn 0.0000000e+0 -1.00000000 -2.9802326e-8
vn 1.4901163e-8 -1.00000000 -2.9802326e-8
vn 0.0000000e+0 -1.00000000 -1.8726892e-8
vn -3.3520000e-9 -1.00000000 -1.7673743e-8
vn 0.0000000e+0 -1.00000000 -2.9802326e-8
vn -1.4901161e-8 -1.00000000 -2.9802326e-8
vn 0.0000000e+0 1.00000000 3.7453785e-8
vn 0.0000000e+0 1.00000000 3.7453785e-8
vn 0.0000000e+0 1.00000000 7.9472860e-8
vn 0.0000000e+0 1.00000000 7.9472860e-8
vn 0.0000000e+0 1.00000000 3.7453785e-8
vn 0.0000000e+0 1.00000000 3.7453785e-8
vn 0.0000000e+0 1.00000000 7.9472860e-8
vn 0.0000000e+0 1.00000000 7.9472860e-8
vn 0.0000000e+0 -1.00000000 -5.5511151e-17
vn 0.0000000e+0 -1.00000000 -2.2204460e-16
vn -0.19675459 0.72650016 0.65839589
vn -0.65500166 -0.72173240 -0.22377480
vn 0.0000000e+0 -0.89442725 -0.44721348
vn -0.83717137 0.13741865 0.52939609
vn -9.2608207e-2 -0.99565105 1.0134486e-2
vn -0.84212459 0.53545448 6.4145717e-2
vn -0.87960903 0.46721552 -8.9429368e-2
vn 0.0000000e+0 -1.00000000 -5.5511151e-17
vn 0.0000000e+0 -1.00000000 -2.2204458e-16
vn 0.19675457 0.72650016 0.65839589
vn 0.65500163 -0.72173242 -0.22377483
vn 0.0000000e+0 -0.89442725 -0.44721348
vn 0.83717132 0.13741871 0.52939614
vn 9.2608200e-2 -0.99565105 1.0134490e-2
vn 0.84212473 0.53545431 6.4145345e-2
vn 0.87960902 0.46721557 -8.9429233e-2
vn -0.83182009 2.3519332e-2 -0.55454682
vn 3.3520002e-9 -1.00000000 -1.7673743e-8
vn 1.4901163e-8 -1.00000000 -2.9802326e-8
vn -0.95061665 0.25604520 -0.17541049
vn -0.45391148 0.31015187 -0.83532640
vn -0.59779019 -0.80165260 -1.5460585e-8
vn 0.83182006 2.3519348e-2 -0.55454686
vn -3.3520000e-9 -1.00000000 -1.7673743e-8
vn 0.95061664 0.25604526 -0.17541049
vn -1.4901161e-8 -1.00000000 -2.9802326e-8
vn 0.59779015 -0.80165263 -1.5460585e-8
vn 0.45391144 0.31015189 -0.83532641
vn 0.0000000e+0 1.00000000 3.7453785e-8
vn -0.95061665 0.25604520 -0.17541049
vn 0.0000000e+0 1.00000000 7.9472860e-8
vn -0.48824037 0.87270919 2.7312492e-8
vn -0.45391148 0.31015187 -0.83532640
vn 0.0000000e+0 1.00000000 3.7453785e-8
vn 0.0000000e+0 1.00000000 7.9472860e-8
vn 0.95061664 0.25604526 -0.17541049
vn 0.45391144 0.31015189 -0.83532641
vn 0.48824032 0.87270922 2.7312493e-8
vn 0.0000000e+0 0.24253562 -0.97014250
vn -0.83182009 2.3519332e-2 -0.55454682
vn 0.0000000e+0 -1.00000000 -2.9802326e-8
vn 1.4901163e-8 -1.00000000 -2.9802326e-8
vn 0.0000000e+0 0.24253562 -0.97014250
vn 0.83182006 2.3519348e-2 -0.55454686
vn 0.0000000e+0 -1.00000000 -2.9802326e-8
vn -1.4901161e-8 -1.00000000 -2.9802326e-8
vn 0.0000000e+0 0.24253562 -0.97014250
vn -0.83182009 2.3519332e-2 -0.55454682
vn 0.0000000e+0 1.00000000 7.9472860e-8
vn -0.95061665 0.25604520 -0.17541049
vn 0.0000000e+0 1.00000000 7.9472860e-8
vn 0.0000000e+0 0.24253562 -0.97014250
vn 0.83182006 2.3519348e-2 -0.55454686
vn 0.0000000e+0 1.00000000 7.9472860e-8
vn 0.0000000e+0 1.00000000 7.9472860e-8
vn 0.95061664 0.25604526 -0.17541049
vn 1.1573292e-7 0.84661533 -0.53220530
vn -0.51725379 0.55716824 -0.64962456
vn 1.5794354e-7 0.80050272 -0.59932912
vn -0.25734963 0.95697936 -0.13402114
vn -0.77180475 0.63580818 8.0866052e-3
vn -0.84212459 0.53545448 6.4145717e-2
vn -0.87960903 0.46721552 -8.9429368e-2
vn 1.1573292e-7 0.84661533 -0.53220530
vn 0.51725379 0.55716828 -0.64962452
vn 1.5794354e-7 0.80050272 -0.59932912
vn 0.25734969 0.95697934 -0.13402115
vn 0.77180457 0.63580839 8.0868227e-3
vn 0.84212473 0.53545431 6.4145345e-2
vn 0.87960902 0.46721557 -8.9429233e-2
vn -0.77180475 0.63580818 8.0866052e-3
vn -0.37450079 0.80092098 0.46719883
vn -0.13061486 0.61513147 0.77753008
vn -8.9059793e-2 0.28242735 0.95514561
vn -0.83717137 0.13741865 0.52939609
vn 0.34900042 0.70351540 0.61908382
vn -0.87960903 0.46721552 -8.9429368e-2
vn 0.77180457 0.63580839 8.0868227e-3
vn 0.37450065 0.80092093 0.46719901
vn 0.13061489 0.61513151 0.77753005
vn 8.9059806e-2 0.28242734 0.95514562
vn 0.83717132 0.13741871 0.52939614
vn -0.34900044 0.70351540 0.61908381
vn 0.87960902 0.46721557 -8.9429233e-2
vn -0.59779020 -0.80165259 -8.1477760e-8
vn -0.48829560 0.87267829 -8.5379122e-5
vn -0.48824037 0.87270919 2.7312492e-8
vn -0.59779019 -0.80165260 -1.5460585e-8
vn 0.48829555 0.87267832 -8.5379113e-5
vn 0.59779016 -0.80165262 -8.1477762e-8
vn 0.59779015 -0.80165263 -1.5460585e-8
vn 0.48824032 0.87270922 2.7312493e-8
vn -0.59779020 -0.80165259 -8.1477760e-8
vn -0.48829560 0.87267829 -8.5379122e-5
vn -0.19675459 0.72650016 0.65839589
vn -0.65500166 -0.72173240 -0.22377480
vn 0.48829555 0.87267832 -8.5379113e-5
vn 0.59779016 -0.80165262 -8.1477762e-8
vn 0.19675457 0.72650016 0.65839589
vn 0.65500163 -0.72173242 -0.22377483
vn -0.48824037 0.87270919 2.7312492e-8
vn -0.45391148 0.31015187 -0.83532640
vn -0.59779019 -0.80165260 -1.5460585e-8
vn 0.59779015 -0.80165263 -1.5460585e-8
vn 0.45391144 0.31015189 -0.83532641
vn 0.48824032 0.87270922 2.7312493e-8
vn -4.2615857e-8 0.98825470 0.15281573
vn 1.5794354e-7 0.80050272 -0.59932912
vn -0.25734963 0.95697936 -0.13402114
vn 0.25734969 0.95697934 -0.13402115
vn -6.5734234e-8 0.91515186 0.40310926
vn -0.37450079 0.80092098 0.46719883
vn 0.0000000e+0 0.69745925 0.71662444
vn -0.13061486 0.61513147 0.77753008
vn -6.5734234e-8 0.91515186 0.40310926
vn 0.37450065 0.80092093 0.46719901
vn 0.0000000e+0 0.69745925 0.71662444
vn 0.13061489 0.61513151 0.77753005
vn -6.5734234e-8 0.91515186 0.40310926
vn -4.2615857e-8 0.98825470 0.15281573
vn -0.25734963 0.95697936 -0.13402114
vn -0.77180475 0.63580818 8.0866052e-3
vn -0.37450079 0.80092098 0.46719883
vn -6.5734234e-8 0.91515186 0.40310926
vn -4.2615857e-8 0.98825470 0.15281573
vn 0.25734969 0.95697934 -0.13402115
vn 0.77180457 0.63580839 8.0868227e-3
vn 0.37450065 0.80092093 0.46719901
vn 0.0000000e+0 -0.62893249 0.77745992
vn 0.0000000e+0 -0.89442725 -0.44721348
vn 0.98332023 -0.11439197 0.14140654
vn -9.2608207e-2 -0.99565105 1.0134486e-2
vn 0.0000000e+0 -0.62893249 0.77745992
vn 0.0000000e+0 -0.89442725 -0.44721348
vn -0.98332023 -0.11439195 0.14140652
vn 9.2608200e-2 -0.99565105 1.0134490e-2
vn 0.0000000e+0 -0.62893249 0.77745992
vn 0.0000000e+0 0.23023053 0.97313612
vn -8.9059793e-2 0.28242735 0.95514561
vn 0.98332023 -0.11439197 0.14140654
vn 0.34900042 0.70351540 0.61908382
vn 0.0000000e+0 -0.62893249 0.77745992
vn 0.0000000e+0 0.23023053 0.97313612
vn 8.9059806e-2 0.28242734 0.95514562
vn -0.98332023 -0.11439195 0.14140652
vn -0.34900044 0.70351540 0.61908381
vn 0.0000000e+0 0.69745925 0.71662444
vn 0.0000000e+0 0.23023053 0.97313612
vn 0.13061489 0.61513151 0.77753005
vn -0.13061486 0.61513147 0.77753008
vn 8.9059806e-2 0.28242734 0.95514562
vn -8.9059793e-2 0.28242735 0.95514561
vn 0.98332023 -0.11439197 0.14140654
vn -0.83717137 0.13741865 0.52939609
vn -9.2608207e-2 -0.99565105 1.0134486e-2
vn 0.34900042 0.70351540 0.61908382
vn -0.98332023 -0.11439195 0.14140652
vn 0.83717132 0.13741871 0.52939614
vn 9.2608200e-2 -0.99565105 1.0134490e-2
vn -0.34900044 0.70351540 0.61908381
g Box01_sep12_Material #30
usemtl Material #30
f 1/62/3 15/57/61 16/56/65 2/61/7
f 2/61/5 6/64/23 5/65/19 1/62/1
f 2/61/6 10/60/41 14/63/57 6/64/24
f 2/61/8 16/56/66 22/55/102 10/60/42
f 3/17/9 11/16/45 7/20/27
f 3/17/11 17/11/70 23/10/107 11/16/46
f 3/17/12 29/21/135 30/22/142 4/18/17
f 4/18/15 18/12/73 17/11/69 3/17/10
f 4/36/18 30/28/143 8/29/33
f 5/64/20 13/63/53 9/60/37 1/61/2
f 5/64/22 19/67/78 13/63/54
f 6/64/25 20/67/86 19/68/77 5/65/21
f 7/29/28 29/28/136 3/36/13
f 7/20/30 35/24/173 19/34/79
f 8/20/32 12/16/49 4/17/14
f 8/37/36 30/35/147 20/23/93
f 8/20/34 36/24/175 34/15/167 12/16/51
f 9/60/38 21/55/96 15/56/62 1/61/4
f 9/60/40 33/59/166 37/58/181 21/55/100
f 10/60/43 34/59/168 36/66/176 14/63/59
f 11/16/47 33/15/164 35/24/172 7/20/29
f 12/16/50 24/10/112 18/11/74 4/17/16
f 12/16/52 34/15/170 38/13/184 24/10/116
f 13/63/55 35/66/171 33/59/163 9/60/39
f 14/63/58 20/67/87 6/64/26
f 14/63/60 36/66/178 20/67/89
f 15/57/63 25/54/119 26/53/123 16/56/67
f 16/56/68 26/53/124 22/55/104
f 17/11/72 27/5/129 23/10/109
f 18/12/75 28/6/132 27/5/127 17/11/71
f 19/23/84 29/35/140 7/37/31
f 19/23/85 31/19/155 29/35/141
f 19/67/80 35/66/174 13/63/56
f 19/23/82 49/14/232 31/19/153
f 20/34/88 36/24/177 8/20/35
f 20/67/90 45/69/212 44/70/208 19/68/81
f 20/67/92 50/71/237 45/69/214
f 21/55/97 25/53/120 15/56/64
f 21/8/95 27/3/126 25/7/118
f 21/9/99 37/13/180 23/10/111
f 22/8/103 28/3/134 24/4/114
f 22/55/105 38/58/182 34/59/169 10/60/44
f 23/4/108 27/3/128 21/8/98
f 23/10/110 37/13/179 33/15/165 11/16/48
f 24/10/113 28/5/133 18/11/76
f 24/10/115 38/13/183 22/9/106
f 25/1/117 27/5/125 28/6/130 26/2/121
f 26/7/122 28/3/131 22/8/101
f 29/21/137 39/27/186 30/22/144
f 29/21/138 42/30/199 39/27/187
f 30/35/148 32/19/162 20/23/94
f 30/35/146 43/25/205 32/19/156
f 31/19/149 42/25/200 29/35/139
f 31/43/151 48/50/228 40/49/192
f 31/43/154 49/44/234 46/48/219
f 32/41/157 43/30/206 41/38/194
f 32/43/159 48/50/229 47/48/222
f 32/19/160 50/14/236 20/23/91
f 39/26/188 43/30/204 30/21/145
f 40/38/190 42/30/201 31/41/150
f 40/38/191 48/42/225 41/39/195
f 41/39/193 43/31/202 42/30/197 40/38/189
f 41/49/196 48/50/227 32/43/158
f 42/30/198 43/31/203 39/27/185
f 44/69/210 49/71/233 19/67/83
f 45/33/211 47/32/220 46/46/215 44/45/207
f 45/52/213 50/51/235 47/47/223
f 46/48/217 48/50/230 31/43/152
f 46/47/218 49/51/231 44/52/209
f 47/32/221 48/40/226 46/46/216
f 47/48/224 50/44/238 32/43/161
