# Exported from Wings 3D 1.0.1
mtllib leftrearcalf.mtl
o Box01_sep4
#24 vertices, 39 faces
v 2.31124711 1.45033431 -1.49572408
v 2.31148553 1.20725310 -1.49596250
v 2.20904970 1.54413605 -1.14149618
v 2.56327772 1.45033419 -1.24369359
v 2.56351614 1.20725298 -1.24393201
v 2.56344509 0.91759145 -1.94609416
v 2.55949187 0.40096831 -1.94214070
v 3.01364779 0.91759139 -1.49589157
v 3.00969434 0.40096828 -1.49193823
v 3.63161516 -0.63504779 -2.92550683
v 3.26656914 -0.87812907 -2.92190576
v 3.99306011 -0.63504779 -2.56406188
v 3.98945904 -0.87812907 -2.19901586
v 2.89127398 0.83851463 -2.27392316
v 3.34147644 0.83851457 -1.82372057
v 3.59835148 -0.44058281 -3.25368786
v 4.32124138 -0.44058284 -2.53079796
v 2.22120118 0.71902466 -2.50425529
v 3.57180882 0.71902466 -1.15364766
v 3.27017021 -0.63504779 -3.28695178
v 4.35450506 -0.63504779 -2.20261693
v 4.28609180 -9.8797604e-2 -3.21853852
v 4.20667076 -2.03704929 -3.13911772
v 2.98694539 -0.21690267 -1.91939199
vt 1.3003396e-2 0.25015074
vt 3.0801695e-2 0.62069631
vt 7.5334974e-2 2.5863037e-2
vt 7.6351240e-2 0.58991385
vt 7.6351479e-2 0.65147841
vt 0.10241246 0.20548609
vt 0.10241246 0.27803531
vt 0.12209068 0.31871223
vt 0.14681199 0.38505393
vt 0.14711688 0.11871869
vt 0.16216110 0.56608433
vt 0.16216148 0.67568237
vt 0.17183821 0.31871223
vt 0.17240418 0.46852157
vt 0.18275987 0.49170628
vt 0.18523820 0.31634089
vt 0.21689558 0.52831250
vt 0.21859390 2.5863037e-2
vt 0.22112906 0.11945856
vt 0.24224128 0.56608409
vt 0.24224174 0.67568207
vt 0.24420403 0.55759746
vt 0.25701991 0.31634089
vt 0.27134454 6.3666344e-2
vt 0.27134454 0.33585417
vt 0.27677572 0.53985631
vt 0.31277764 0.30647466
vt 0.31338185 0.57399219
vt 0.33990535 0.28889853
vt 0.34312654 0.11166300
vt 0.35061267 0.55241144
vt 0.36180812 8.2283989e-2
vt 0.38236082 0.42663029
vt 0.38314587 0.49917942
vt 0.38721880 0.51827556
vt 0.38764486 0.58461708
vt 0.39109290 0.10959288
vt 0.40470681 0.33689535
vt 0.40704793 0.34643105
vt 0.52797353 0.62069458
vt 0.63579345 0.31205267
vt 0.66216469 0.42202604
vt 0.71587372 0.31205305
vt 0.78820807 0.53291035
vt 0.81749260 0.56880170
vt 0.81749320 0.49701965
vt 0.81749368 0.42438450
vt 0.85409909 0.53291100
vt 0.85410023 0.38849381
vt 0.92190003 0.34535900
vn -0.96085890 -6.7070486e-4 -0.27703740
vn 0.19734794 0.96026440 -0.19734758
vn -0.87208509 1.8713399e-3 -0.48935068
vn 0.51714520 0.68199829 -0.51714521
vn -0.96085890 -6.7070486e-4 -0.27703740
vn -0.51034687 -0.69216489 0.51034678
vn -0.87208509 1.8713399e-3 -0.48935068
vn -0.62072559 -0.47895657 0.62072566
vn -0.73130324 -0.48839922 0.47609009
vn -0.96085890 -6.7070486e-4 -0.27703740
vn 0.27703731 -6.7070497e-4 0.96085893
vn -0.51034687 -0.69216489 0.51034678
vn 0.19734794 0.96026440 -0.19734758
vn 0.27703731 -6.7070497e-4 0.96085893
vn 0.19734794 0.96026440 -0.19734758
vn 0.48935075 1.8714763e-3 0.87208505
vn 0.51714520 0.68199829 -0.51714521
vn 0.27703731 -6.7070497e-4 0.96085893
vn -0.51034687 -0.69216489 0.51034678
vn 0.48935075 1.8714763e-3 0.87208505
vn -0.62072559 -0.47895657 0.62072566
vn -0.47609029 -0.48839924 0.73130310
vn -0.87208509 1.8713399e-3 -0.48935068
vn 0.51714520 0.68199829 -0.51714521
vn 0.11888995 0.98576386 -0.11888982
vn -0.85411793 1.0514833e-2 0.51997307
vn -6.7620519e-2 0.95237231 -0.29734568
vn -0.87208509 1.8713399e-3 -0.48935068
vn -0.85411793 1.0514833e-2 0.51997307
vn -0.80559823 -0.56975778 0.16244251
vn -0.73130324 -0.48839922 0.47609009
vn -0.81654612 -0.55969413 0.14140339
vn 0.48935075 1.8714763e-3 0.87208505
vn 0.51714520 0.68199829 -0.51714521
vn 0.11888995 0.98576386 -0.11888982
vn -0.51997310 1.0515031e-2 0.85411791
vn 0.29734579 0.95237229 6.7620278e-2
vn 0.48935075 1.8714763e-3 0.87208505
vn -0.51997310 1.0515031e-2 0.85411791
vn -0.16244232 -0.56975783 0.80559823
vn -0.47609029 -0.48839924 0.73130310
vn -0.14140347 -0.55969432 0.81654597
vn 0.48224555 -0.73135385 -0.48224555
vn 0.48224555 -0.73135385 -0.48224555
vn 0.48224580 -0.73135353 -0.48224580
vn -0.65703662 -0.36960215 0.65703662
vn -0.92478681 -0.36100656 -0.12018159
vn 0.48224555 -0.73135385 -0.48224555
vn -0.82976657 -0.46073129 -0.31498274
vn 0.48224555 -0.73135385 -0.48224555
vn -0.80559823 -0.56975778 0.16244251
vn -0.41667261 -0.80794051 0.41667261
vn -0.81654612 -0.55969413 0.14140339
vn 0.48224555 -0.73135385 -0.48224555
vn 0.48224555 -0.73135385 -0.48224555
vn 0.48224576 -0.73135358 -0.48224576
vn -0.65703662 -0.36960215 0.65703662
vn 0.12018096 -0.36100683 0.92478679
vn 0.48224555 -0.73135385 -0.48224555
vn 0.31498281 -0.46073139 0.82976648
vn 0.48224555 -0.73135385 -0.48224555
vn -0.16244232 -0.56975783 0.80559823
vn -0.41667261 -0.80794051 0.41667261
vn -0.14140347 -0.55969432 0.81654597
vn 0.11888995 0.98576386 -0.11888982
vn 0.14082609 0.64991660 -0.74684431
vn -6.7620519e-2 0.95237231 -0.29734568
vn 0.34858891 0.87004120 -0.34858870
vn -0.21432874 0.51652836 -0.82901245
vn 0.11888995 0.98576386 -0.11888982
vn 0.74684415 0.64991674 -0.14082631
vn 0.29734579 0.95237229 6.7620278e-2
vn 0.34858891 0.87004120 -0.34858870
vn 0.82901236 0.51652860 0.21432852
vn -0.14904351 0.40577321 -0.90173951
vn 0.14082609 0.64991660 -0.74684431
vn 0.48224580 -0.73135353 -0.48224580
vn -0.21432874 0.51652836 -0.82901245
vn -0.92478681 -0.36100656 -0.12018159
vn 7.2694393e-2 -4.3806333e-2 -0.99639176
vn 0.90173964 0.40577275 0.14904395
vn 0.74684415 0.64991674 -0.14082631
vn 0.48224576 -0.73135358 -0.48224576
vn 0.82901236 0.51652860 0.21432852
vn 0.12018096 -0.36100683 0.92478679
vn 0.99639172 -4.3806461e-2 -7.2694777e-2
vn -0.82976657 -0.46073129 -0.31498274
vn -0.14904351 0.40577321 -0.90173951
vn -0.85411793 1.0514833e-2 0.51997307
vn -0.80559823 -0.56975778 0.16244251
vn 0.14082609 0.64991660 -0.74684431
vn -6.7620519e-2 0.95237231 -0.29734568
vn 0.31498281 -0.46073139 0.82976648
vn 0.90173964 0.40577275 0.14904395
vn -0.51997310 1.0515031e-2 0.85411791
vn -0.16244232 -0.56975783 0.80559823
vn 0.74684415 0.64991674 -0.14082631
vn 0.29734579 0.95237229 6.7620278e-2
vn -0.82976657 -0.46073129 -0.31498274
vn -0.14904351 0.40577321 -0.90173951
vn 0.48224555 -0.73135385 -0.48224555
vn 0.48224580 -0.73135353 -0.48224580
vn 0.31498281 -0.46073139 0.82976648
vn 0.90173964 0.40577275 0.14904395
vn 0.48224555 -0.73135385 -0.48224555
vn 0.48224576 -0.73135358 -0.48224576
vn 0.34858891 0.87004120 -0.34858870
vn -0.21432874 0.51652836 -0.82901245
vn 0.82901236 0.51652860 0.21432852
vn 7.2694393e-2 -4.3806333e-2 -0.99639176
vn 0.99639172 -4.3806461e-2 -7.2694777e-2
vn -0.65703662 -0.36960215 0.65703662
vn 0.12018096 -0.36100683 0.92478679
vn -0.92478681 -0.36100656 -0.12018159
vn 7.2694393e-2 -4.3806333e-2 -0.99639176
vn 0.99639172 -4.3806461e-2 -7.2694777e-2
vn -0.41667261 -0.80794051 0.41667261
vn -0.62072559 -0.47895657 0.62072566
vn -0.73130324 -0.48839922 0.47609009
vn -0.47609029 -0.48839924 0.73130310
vn -0.14140347 -0.55969432 0.81654597
vn -0.81654612 -0.55969413 0.14140339
g Box01_sep4_Material #30
usemtl Material #30
f 1/28/3 6/34/23 7/33/28 2/26/7
f 2/35/5 3/36/10 1/31/1
f 2/13/6 5/8/19 3/9/12
f 2/13/8 24/10/118 5/8/21
f 3/2/13 4/4/15 1/5/2
f 3/36/11 5/35/18 4/31/14
f 4/4/17 8/11/34 6/12/24 1/5/4
f 5/26/20 9/33/38 8/34/33 4/28/16
f 5/8/22 24/10/120 9/6/41
f 6/7/26 18/1/89 7/6/29
f 7/6/30 18/1/90 11/3/51
f 7/6/31 24/10/119 2/8/9
f 8/11/35 15/20/70 14/21/65 6/12/25
f 8/41/37 19/42/98 15/43/72
f 9/6/39 19/1/95 8/7/36
f 9/6/42 24/10/121 13/3/64
f 10/47/43 12/46/54 13/48/59 11/49/48
f 10/46/45 20/45/102 16/44/77
f 10/23/46 23/19/112 12/16/57
f 11/48/50 20/45/101 10/46/44
f 11/3/53 24/10/122 7/6/32
f 12/46/55 21/45/105 13/48/61
f 12/37/58 23/27/113 17/32/85
f 13/3/62 19/1/96 9/6/40
f 13/15/60 21/17/103 19/39/93
f 13/3/63 24/10/117 11/18/52
f 14/43/67 18/42/92 6/41/27
f 14/14/69 22/38/108 16/29/78
f 15/43/71 19/42/97 17/50/82
f 15/20/73 22/40/107 14/21/68
f 16/50/76 18/42/91 14/43/66
f 16/22/75 20/17/100 18/39/88
f 16/32/79 23/27/114 10/37/47
f 17/44/83 21/45/106 12/46/56
f 17/29/84 22/38/109 15/14/74
f 17/30/86 23/25/116 22/24/111
f 18/39/87 20/17/99 11/15/49
f 19/39/94 21/17/104 17/22/81
f 22/24/110 23/25/115 16/30/80
