# Exported from Wings 3D 1.0.1
mtllib sleeve.mtl
o Box01_sep9
#35 vertices, 33 faces
v 0.86884373 1.95692682 -1.63592553
v 0.76110482 2.21703172 -1.63592553
v 0.50099999 2.32477069 -1.63592553
v 0.24089515 2.21703172 -1.63592553
v 0.13315623 1.95692682 -1.63592553
v 0.24089520 1.69682193 -1.63592553
v 0.50100005 1.58908308 -1.63592553
v 0.76110488 1.69682205 -1.63592553
v 1.05220115 1.95692670 -1.42628551
v 0.89075798 2.34668493 -1.42628551
v 0.50099999 2.50812793 -1.42628551
v 0.11124194 2.34668469 -1.42628551
v -5.0201051e-2 1.95692670 -1.42628551
v 0.11124203 1.56716871 -1.42628551
v 0.50100005 1.40572560 -1.42628551
v 0.89075804 1.56716871 -1.42628551
v 1.05220115 1.95692682 -0.20556489
v 0.89075798 2.34668469 -0.20556478
v 0.50099999 2.50812769 -0.20556478
v 0.11124194 2.34668469 -0.20556478
v -5.0201051e-2 1.95692682 -0.20556489
v 0.11124203 1.56716871 -0.20556481
v 0.50100005 1.40572572 -0.20556483
v 0.89075804 1.56716883 -0.20556481
v 0.86884373 1.95692682 4.0749442e-3
v 0.76110482 2.21703148 4.0749554e-3
v 0.50099999 2.32477045 4.0749600e-3
v 0.24089515 2.21703148 4.0749554e-3
v 0.13315623 1.95692682 4.0749442e-3
v 0.24089520 1.69682193 4.0749325e-3
v 0.50100005 1.58908308 4.0749279e-3
v 0.76110488 1.69682205 4.0749325e-3
v -0.43142253 1.95692658 -0.98993695
v -0.43142253 1.95692658 -0.64191347
v -0.72264141 2.20638251 -0.81592518
vt 0.73014164 0.29905072
vt 0.75797272 0.21777476
vt 0.78630972 0.25093526
vt 0.79136229 0.58315289
vt 0.79136229 0.62358737
vt 0.79136229 0.70774871
vt 0.81441122 0.25133863
vt 0.81441247 0.18421309
vt 0.84153003 0.58315289
vt 0.86653721 0.62358737
vt 0.89097875 0.32610801
vt 0.91965169 0.33612078
vt 0.91965592 0.10099986
vt 0.93526411 0.37744388
vt 0.93526411 0.37818488
vt 0.94418746 0.35590100
vt 0.94418746 0.35664207
vt 0.94418746 0.39898670
vt 0.94418746 0.39972767
vt 0.94466382 6.0565740e-2
vt 0.96573037 0.34697771
vt 0.96573037 0.34771869
vt 0.96573037 0.40791011
vt 0.96573037 0.40865108
vt 0.98727328 0.35590100
vt 0.98727328 0.35664207
vt 0.98727328 0.39898670
vt 0.98727328 0.39972767
vt 0.99482691 0.33612216
vt 0.99483109 0.10100122
vt 0.99483180 6.0566768e-2
vt 0.99619657 0.37744388
vt 0.99619657 0.37818488
vn -1.4504687e-16 3.6432792e-16 -1.00000000
vn 0.71859753 0.29765280 -0.62850648
vn 0.71859740 -0.29765278 -0.62850664
vn -1.4504687e-16 3.6432792e-16 -1.00000000
vn 0.71859753 0.29765280 -0.62850648
vn 0.29765284 0.71859760 -0.62850639
vn -1.4504687e-16 3.6432792e-16 -1.00000000
vn 0.29765284 0.71859760 -0.62850639
vn -0.29765311 0.71859768 -0.62850616
vn -1.4504687e-16 3.6432792e-16 -1.00000000
vn -0.29765311 0.71859768 -0.62850616
vn -0.71859770 0.29765280 -0.62850629
vn -1.4504687e-16 3.6432792e-16 -1.00000000
vn -0.71859770 0.29765280 -0.62850629
vn -0.71859753 -0.29765288 -0.62850645
vn -1.4504687e-16 3.6432792e-16 -1.00000000
vn -0.71859753 -0.29765288 -0.62850645
vn -0.29765275 -0.71859742 -0.62850664
vn -1.4504687e-16 3.6432792e-16 -1.00000000
vn -0.29765275 -0.71859742 -0.62850664
vn 0.29765284 -0.71859728 -0.62850676
vn -1.4504687e-16 3.6432792e-16 -1.00000000
vn 0.29765284 -0.71859728 -0.62850676
vn 0.71859740 -0.29765278 -0.62850664
vn 0.71859753 0.29765280 -0.62850648
vn 0.71859740 -0.29765278 -0.62850664
vn 0.92387945 0.38268364 1.8685456e-8
vn 0.92387948 -0.38268357 3.7370906e-8
vn 0.71859753 0.29765280 -0.62850648
vn 0.29765284 0.71859760 -0.62850639
vn 0.92387945 0.38268364 1.8685456e-8
vn 0.38268333 0.92387958 1.8044263e-7
vn 0.29765284 0.71859760 -0.62850639
vn -0.29765311 0.71859768 -0.62850616
vn 0.38268333 0.92387958 1.8044263e-7
vn -0.38268353 0.92387949 9.0221306e-8
vn -0.29765311 0.71859768 -0.62850616
vn -0.71859770 0.29765280 -0.62850629
vn -0.38268353 0.92387949 9.0221306e-8
vn -0.71891132 0.29778272 -0.62808596
vn -0.16591948 0.98613930 0.0000000e+0
vn -0.57557487 -0.10634638 -0.81080455
vn -0.71859770 0.29765280 -0.62850629
vn -0.71859753 -0.29765288 -0.62850645
vn -0.71891132 0.29778272 -0.62808596
vn -0.71891121 -0.29778284 -0.62808602
vn -0.71859753 -0.29765288 -0.62850645
vn -0.29765275 -0.71859742 -0.62850664
vn -0.38268343 -0.92387953 4.5110656e-8
vn -0.71891121 -0.29778284 -0.62808602
vn -0.58335743 -0.81221556 0.0000000e+0
vn -0.29765275 -0.71859742 -0.62850664
vn 0.29765284 -0.71859728 -0.62850676
vn -0.38268343 -0.92387953 4.5110656e-8
vn 0.38268357 -0.92387948 9.0221307e-8
vn 0.29765284 -0.71859728 -0.62850676
vn 0.71859740 -0.29765278 -0.62850664
vn 0.38268357 -0.92387948 9.0221307e-8
vn 0.92387948 -0.38268357 3.7370906e-8
vn 0.92387945 0.38268364 1.8685456e-8
vn 0.92387948 -0.38268357 3.7370906e-8
vn 0.71859710 0.29765279 0.62850698
vn 0.71859718 -0.29765263 0.62850697
vn 0.92387945 0.38268364 1.8685456e-8
vn 0.38268333 0.92387958 1.8044263e-7
vn 0.71859710 0.29765279 0.62850698
vn 0.29765268 0.71859721 0.62850691
vn 0.38268333 0.92387958 1.8044263e-7
vn -0.38268353 0.92387949 9.0221306e-8
vn 0.29765268 0.71859721 0.62850691
vn -0.29765265 0.71859720 0.62850693
vn -0.38268353 0.92387949 9.0221306e-8
vn -0.29765265 0.71859720 0.62850693
vn -0.71859724 0.29765266 0.62850688
vn -0.71891139 0.29778268 0.62808590
vn -0.16591948 0.98613930 0.0000000e+0
vn -0.57557488 -0.10634660 0.81080452
vn -0.71859724 0.29765266 0.62850688
vn -0.71859728 -0.29765266 0.62850683
vn -0.71891139 0.29778268 0.62808590
vn -0.71891124 -0.29778264 0.62808609
vn -0.38268343 -0.92387953 4.5110656e-8
vn -0.71859728 -0.29765266 0.62850683
vn -0.29765250 -0.71859719 0.62850702
vn -0.71891124 -0.29778264 0.62808609
vn -0.58335743 -0.81221556 0.0000000e+0
vn -0.38268343 -0.92387953 4.5110656e-8
vn 0.38268357 -0.92387948 9.0221307e-8
vn -0.29765250 -0.71859719 0.62850702
vn 0.29765274 -0.71859709 0.62850701
vn 0.38268357 -0.92387948 9.0221307e-8
vn 0.92387948 -0.38268357 3.7370906e-8
vn 0.29765274 -0.71859709 0.62850701
vn 0.71859718 -0.29765263 0.62850697
vn 0.71859710 0.29765279 0.62850698
vn 0.71859718 -0.29765263 0.62850697
vn 2.5383213e-15 -4.3768124e-8 1.00000000
vn 0.71859710 0.29765279 0.62850698
vn 0.29765268 0.71859721 0.62850691
vn 2.5383213e-15 -4.3768124e-8 1.00000000
vn 0.29765268 0.71859721 0.62850691
vn -0.29765265 0.71859720 0.62850693
vn 2.5383213e-15 -4.3768124e-8 1.00000000
vn -0.29765265 0.71859720 0.62850693
vn -0.71859724 0.29765266 0.62850688
vn 2.5383213e-15 -4.3768124e-8 1.00000000
vn -0.71859724 0.29765266 0.62850688
vn -0.71859728 -0.29765266 0.62850683
vn 2.5383213e-15 -4.3768124e-8 1.00000000
vn -0.71859728 -0.29765266 0.62850683
vn -0.29765250 -0.71859719 0.62850702
vn 2.5383213e-15 -4.3768124e-8 1.00000000
vn -0.29765250 -0.71859719 0.62850702
vn 0.29765274 -0.71859709 0.62850701
vn 2.5383213e-15 -4.3768124e-8 1.00000000
vn 0.29765274 -0.71859709 0.62850701
vn 0.71859718 -0.29765263 0.62850697
vn 2.5383213e-15 -4.3768124e-8 1.00000000
vn -0.71891132 0.29778272 -0.62808596
vn -0.71891121 -0.29778284 -0.62808602
vn -0.58335743 -0.81221556 0.0000000e+0
vn -0.57557487 -0.10634638 -0.81080455
vn -0.65055042 -0.75946306 0.0000000e+0
vn -0.71891139 0.29778268 0.62808590
vn -0.71891124 -0.29778264 0.62808609
vn -0.58335743 -0.81221556 0.0000000e+0
vn -0.65055042 -0.75946306 0.0000000e+0
vn -0.57557488 -0.10634660 0.81080452
vn -0.16591948 0.98613930 0.0000000e+0
vn -0.57557487 -0.10634638 -0.81080455
vn -0.65055042 -0.75946306 0.0000000e+0
vn -0.57557488 -0.10634660 0.81080452
g Box01_sep9_Material #30
usemtl Material #30
f 1/32/1 8/27/22 7/23/19 6/18/16 5/14/13 4/16/10 3/21/7 2/25/4
f 1/31/3 9/30/26 16/13/57 8/20/24
f 2/20/5 10/13/29 9/30/25 1/31/2
f 3/31/8 11/30/33 10/13/30 2/20/6
f 4/20/11 12/13/37 11/30/34 3/31/9
f 5/4/14 13/5/43 12/10/38 4/9/12
f 6/9/17 14/10/47 13/5/44 5/4/15
f 7/31/20 15/30/52 14/13/48 6/20/18
f 8/20/23 16/13/56 15/30/53 7/31/21
f 9/30/28 17/29/61 24/12/92 16/13/59
f 10/13/31 18/12/64 17/29/60 9/30/27
f 11/30/35 19/29/68 18/12/65 10/13/32
f 12/13/39 20/12/72 19/29/69 11/30/36
f 12/13/41 35/2/129 20/12/76
f 13/5/45 33/6/119 12/10/40
f 14/10/50 33/6/120 13/5/46
f 15/30/54 23/29/87 22/12/82 14/13/49
f 16/13/58 24/12/91 23/29/88 15/30/55
f 17/30/63 25/31/96 32/20/117 24/13/94
f 18/13/66 26/20/98 25/31/95 17/30/62
f 19/30/70 27/31/101 26/20/99 18/13/67
f 20/13/73 28/20/104 27/31/102 19/30/71
f 20/10/75 34/6/124 21/5/80
f 20/11/77 35/1/132 34/3/128
f 21/5/78 29/4/107 28/9/105 20/10/74
f 21/5/81 34/6/125 22/10/85
f 22/10/83 30/9/110 29/4/108 21/5/79
f 22/12/86 34/7/126 33/8/121 14/13/51
f 23/30/89 31/31/113 30/20/111 22/13/84
f 24/13/93 32/20/116 31/31/114 23/30/90
f 26/28/100 27/24/103 28/19/106 29/15/109 30/17/112 31/22/115 32/26/118 25/33/97
f 33/3/122 35/1/130 12/11/42
f 34/7/127 35/2/131 33/8/123
