# Exported from Wings 3D 1.0.1
mtllib turret.mtl
o Box01_sep11
#22 vertices, 28 faces
v -0.49900001 0.50100005 -0.50099999
v 0.50099999 0.50100005 -0.50099999
v -0.49900001 0.50099999 -1.50099993
v 0.50099999 0.50099999 -1.50099993
v -0.49900001 1.17236614 -0.50099999
v 0.50099999 1.17236614 -0.50099999
v -0.49899998 1.17236614 -1.50099993
v 0.50099999 1.17236602 -1.50099993
v -0.99900001 1.17236602 -1.00100005
v -0.49900007 1.93013132 -1.06467736
v -0.49900007 1.93013132 -2.06467748
v -0.99900013 1.93013132 -1.56467736
v -0.50311065 2.41653347 -1.56467736
v -0.49899995 0.81850344 -9.7121231e-2
v 0.50099999 0.81850344 -9.7121321e-2
v -0.49899995 1.10857224 -9.7121216e-2
v 0.50099999 1.10857224 -9.7121306e-2
v -0.50311071 2.27933025 0.56262642
v -0.12320981 0.99523312 -2.38109350
v 0.12520982 0.99523312 -2.38109350
v -2.22366047 2.14203429 -2.38659668
v -0.87825823 2.42260909 -0.84177744
vt 1.4856662e-2 0.44982892
vt 1.4857247e-2 0.32159179
vt 0.10095040 0.44982910
vt 0.10095086 0.32159227
vt 0.16092986 0.14154084
vt 0.20868680 6.0747299e-2
vt 0.26313958 9.2926279e-2
vt 0.33924228 0.28315327
vt 0.38373187 0.31234917
vt 0.41270524 0.11996009
vt 0.51491493 7.1345530e-2
vt 0.52799904 0.53484905
vt 0.52800053 0.40661201
vt 0.56871665 0.35482064
vt 0.59137672 0.64771020
vt 0.60436988 0.34754995
vt 0.60489702 0.28517541
vt 0.60591412 0.35482097
vt 0.61395401 0.47193250
vt 0.61409301 0.53484994
vt 0.61409426 0.40661296
vt 0.61428010 0.98488015
vt 0.62069643 0.56389666
vt 0.62069672 0.69213331
vt 0.65545171 7.8839868e-2
vt 0.71112609 0.60833615
vt 0.71112669 0.54421765
vt 0.71112752 0.48009929
vt 0.71787000 0.63618034
vt 0.71787047 0.76441735
vt 0.71904302 0.14121458
vt 0.76264936 0.42750019
vt 0.78024495 0.70029855
vt 0.79437649 0.93677217
vt 0.85693920 0.58466882
vt 0.86404985 0.84744143
vt 0.86419415 0.81102419
vt 0.86419427 0.75923198
vt 0.86419469 0.63099539
vt 0.87608957 0.11404079
vt 0.88707870 0.98488015
vt 0.89822018 0.36350378
vt 0.91238511 0.51813495
vt 0.94424182 0.51813507
vt 0.96233881 0.42762196
vt 0.99228656 0.84744191
vt 0.99243093 0.81102473
vt 0.99243104 0.75923252
vt 0.99243176 0.63099581
vn 0.0000000e+0 -1.00000000 5.9604648e-8
vn -0.80201645 -0.59730195 3.5601973e-8
vn -0.70710682 -4.6772459e-19 0.70710674
vn 2.7627928e-8 -0.78615744 0.61802627
vn -1.00000000 -2.2873326e-15 1.4758054e-7
vn 0.0000000e+0 -1.00000000 5.9604648e-8
vn 1.00000000 0.0000000e+0 0.0000000e+0
vn 1.00000000 -1.6503703e-16 0.0000000e+0
vn 2.7627928e-8 -0.78615744 0.61802627
vn 1.00000000 0.0000000e+0 0.0000000e+0
vn 0.0000000e+0 -1.00000000 5.9604648e-8
vn -0.80201645 -0.59730195 3.5601973e-8
vn -0.70710668 3.1388864e-8 -0.70710689
vn 0.0000000e+0 -0.87192224 -0.48964437
vn -0.91967117 4.0824722e-8 -0.39268937
vn 0.0000000e+0 -1.00000000 5.9604648e-8
vn 1.00000000 0.0000000e+0 0.0000000e+0
vn 0.0000000e+0 -0.87192224 -0.48964437
vn 0.91967117 0.0000000e+0 -0.39268936
vn 5.9604646e-8 1.00000000 -5.9604647e-8
vn -0.70710682 -4.6772459e-19 0.70710674
vn 1.00000000 1.0940758e-7 1.4901161e-8
vn -0.62581467 0.46552342 0.62581462
vn 6.9745850e-9 0.98775408 0.15601882
vn -1.00000000 -2.2873326e-15 1.4758054e-7
vn 5.9604646e-8 1.00000000 -5.9604647e-8
vn 1.00000000 -1.6503703e-16 0.0000000e+0
vn 6.9745850e-9 0.98775408 0.15601882
vn 1.00000000 0.0000000e+0 0.0000000e+0
vn 5.9604646e-8 1.00000000 -5.9604647e-8
vn -0.70710668 3.1388864e-8 -0.70710689
vn 1.00000000 1.0940758e-7 1.4901161e-8
vn -0.62581450 -0.46552365 -0.62581462
vn 9.3610982e-8 0.98034126 -0.19730942
vn -0.91967117 4.0824722e-8 -0.39268937
vn 5.9604646e-8 1.00000000 -5.9604647e-8
vn 1.00000000 0.0000000e+0 0.0000000e+0
vn 1.00000000 -1.6503703e-16 0.0000000e+0
vn 9.3610982e-8 0.98034126 -0.19730942
vn 0.91967117 0.0000000e+0 -0.39268936
vn -0.80201645 -0.59730195 3.5601973e-8
vn -0.70710682 -4.6772459e-19 0.70710674
vn -0.70710668 3.1388864e-8 -0.70710689
vn -0.62581450 -0.46552365 -0.62581462
vn -0.62581467 0.46552342 0.62581462
vn 1.00000000 1.0940758e-7 1.4901161e-8
vn -0.62581467 0.46552342 0.62581462
vn 0.99996429 8.4506779e-3 0.0000000e+0
vn -0.20486626 -0.95711004 0.20486628
vn 0.99995887 9.0507176e-3 5.8376579e-4
vn 1.00000000 1.0940758e-7 1.4901161e-8
vn -0.62581450 -0.46552365 -0.62581462
vn 0.99996429 8.4506779e-3 0.0000000e+0
vn -0.10244759 -0.98944883 -0.10244758
vn 0.21314792 0.70118989 -0.68036806
vn -0.62581450 -0.46552365 -0.62581462
vn -0.62581467 0.46552342 0.62581462
vn -0.20486626 -0.95711004 0.20486628
vn -0.10244759 -0.98944883 -0.10244758
vn -0.44229375 0.45092074 0.77527203
vn -0.96185407 -0.12291935 0.24439226
vn -0.65686288 0.66967507 -0.34650608
vn 0.99996429 8.4506779e-3 0.0000000e+0
vn 0.99995887 9.0507176e-3 5.8376579e-4
vn 0.21314792 0.70118989 -0.68036806
vn -0.44229375 0.45092074 0.77527203
vn 0.13882923 0.98826299 6.3739308e-2
vn -0.65686288 0.66967507 -0.34650608
vn 8.9406972e-8 -5.1371126e-8 1.00000000
vn 2.7627928e-8 -0.78615744 0.61802627
vn -1.00000000 -2.2873326e-15 1.4758054e-7
vn 8.9406972e-8 -5.1371126e-8 1.00000000
vn 2.7627928e-8 -0.78615744 0.61802627
vn 1.00000000 0.0000000e+0 0.0000000e+0
vn 8.9406972e-8 -5.1371126e-8 1.00000000
vn 6.9745850e-9 0.98775408 0.15601882
vn -1.00000000 -2.2873326e-15 1.4758054e-7
vn 8.9406972e-8 -5.1371126e-8 1.00000000
vn 6.9745850e-9 0.98775408 0.15601882
vn 1.00000000 0.0000000e+0 0.0000000e+0
vn -0.20486626 -0.95711004 0.20486628
vn 0.99995887 9.0507176e-3 5.8376579e-4
vn -0.96185407 -0.12291935 0.24439226
vn 0.13882923 0.98826299 6.3739308e-2
vn 0.0000000e+0 -0.87192224 -0.48964437
vn 9.3610982e-8 0.98034126 -0.19730942
vn -0.91967117 4.0824722e-8 -0.39268937
vn 0.0000000e+0 -0.87192224 -0.48964437
vn 9.3610982e-8 0.98034126 -0.19730942
vn 0.91967117 0.0000000e+0 -0.39268936
vn -0.10244759 -0.98944883 -0.10244758
vn 0.21314792 0.70118989 -0.68036806
vn -0.44229375 0.45092074 0.77527203
vn -0.96185407 -0.12291935 0.24439226
vn 0.13882923 0.98826299 6.3739308e-2
vn -0.65686288 0.66967507 -0.34650608
g Box01_sep11_Material #30
usemtl Material #30
f 1/38/1 3/39/11 4/49/16 2/48/6
f 1/13/2 9/19/41 3/12/12
f 1/13/5 14/14/71 16/18/77 5/21/25
f 2/3/8 8/2/38 6/1/27
f 2/48/9 15/47/73 14/37/70 1/38/4
f 3/12/13 9/19/43 7/20/31
f 3/39/14 19/43/85 20/44/88 4/49/18
f 4/4/17 8/2/37 2/3/7
f 4/12/19 20/15/90 8/20/40
f 5/21/21 9/19/42 1/13/3
f 5/21/23 10/28/47 12/27/57 9/19/45
f 5/48/24 16/47/76 17/37/79 6/38/28
f 6/38/26 8/39/36 7/49/30 5/48/20
f 6/21/29 17/18/80 15/14/74 2/13/10
f 7/24/32 11/30/51 10/29/46 5/23/22
f 7/20/35 19/15/87 3/12/15
f 8/39/39 20/43/89 19/44/86 7/49/34
f 9/19/44 12/27/56 11/26/52 7/20/33
f 10/10/49 18/8/81 12/11/58
f 11/30/53 13/33/63 10/29/48
f 11/17/55 21/9/92 13/16/65
f 12/45/59 21/35/91 11/42/54
f 12/7/62 22/5/96 13/6/68
f 13/33/64 18/32/82 10/29/50
f 13/25/66 21/40/93 12/31/60
f 13/41/67 22/34/95 18/22/84
f 15/36/72 17/37/78 16/47/75 14/46/69
f 18/8/83 22/10/94 12/11/61
