# Exported from Wings 3D 0.99.04a
mtllib ball4.mtl
o cylinder1_sep25
#20 vertices, 12 faces
v -0.21273600 1.59125078 3.02752935
v 0.21273600 1.59125078 3.02752935
v -0.34421408 1.24703670 2.12636520
v -0.34421408 1.24703670 2.81479335
v -0.34421408 1.93546486 2.12636520
v -0.34421408 1.93546486 2.81479335
v 0.34421408 1.24703670 2.12636520
v 0.34421408 1.24703670 2.81479335
v 0.34421408 1.93546486 2.12636520
v 0.34421408 1.93546486 2.81479335
v 0.55695008 1.80398678 2.47057927
v 0.55695008 1.37851478 2.47057927
v -0.55695008 1.80398678 2.47057927
v -0.55695008 1.37851478 2.47057927
v -0.21273600 1.59125078 1.91362920
v 0.21273600 1.59125078 1.91362920
v 1.2878587e-18 2.14820086 2.68331527
v 1.2878587e-18 2.14820086 2.25784327
v 1.2878587e-18 1.03430070 2.68331527
v 1.2878587e-18 1.03430070 2.25784327
vt 0.68195139 0.92863126
vt 0.68195139 0.92863126
vt 0.68195139 0.92863126
vt 0.68195139 0.92863126
vt 0.68202583 0.92875531
vt 0.68208507 0.92877219
vt 0.68208507 0.92877219
vt 0.68229989 0.92932736
vt 0.68229989 0.92932736
vt 0.68229989 0.92932736
vt 0.68229989 0.92932736
vt 0.71643107 0.82238026
vt 0.71643107 0.82238026
vt 0.71643107 0.82238026
vt 0.71643107 0.82238026
vt 0.71649296 0.82181600
vt 0.71649296 0.82181600
vt 0.71649296 0.82181600
vt 0.71649296 0.82181600
vt 0.71667924 0.82197629
vt 0.71677575 0.82200526
vt 0.77286480 0.99448997
vt 0.77286480 0.99448997
vt 0.77286480 0.99448997
vt 0.77286480 0.99448997
vt 0.77287023 0.99470919
vt 0.77290644 0.99475777
vt 0.77346552 0.99483650
vt 0.77346552 0.99483650
vt 0.77346552 0.99483650
vt 0.77346552 0.99483650
vt 0.82869091 0.82179246
vt 0.82869091 0.82179246
vt 0.82869091 0.82179246
vt 0.82869091 0.82179246
vt 0.82875423 0.82165925
vt 0.82875423 0.82165925
vt 0.82875423 0.82165925
vt 0.82875423 0.82165925
vt 0.82894062 0.82193710
vt 0.82894062 0.82193710
vt 0.82903714 0.82200526
vt 0.86359395 0.92837764
vt 0.86359395 0.92837764
vt 0.86359395 0.92837764
vt 0.86359395 0.92837764
vt 0.86366856 0.92869191
vt 0.86372781 0.92877219
vt 0.86394014 0.92837628
vt 0.86394014 0.92837628
vt 0.86394014 0.92837628
vn -0.35682209 0.0000000e+0 0.93417236
vn 0.35682209 0.0000000e+0 0.93417236
vn -0.57735027 -0.57735027 -0.57735027
vn -0.57735027 -0.57735027 0.57735027
vn -0.57735027 0.57735027 -0.57735027
vn -0.57735027 0.57735027 0.57735027
vn 0.57735027 -0.57735027 -0.57735027
vn 0.57735027 -0.57735027 0.57735027
vn 0.57735027 0.57735027 -0.57735027
vn 0.57735027 0.57735027 0.57735027
vn 0.93417236 0.35682209 -9.3140945e-17
vn 0.93417236 -0.35682209 -9.3140945e-17
vn -0.93417236 0.35682209 -1.8377431e-17
vn -0.93417236 -0.35682209 -9.3140945e-17
vn -0.35682209 0.0000000e+0 -0.93417236
vn 0.35682209 0.0000000e+0 -0.93417236
vn 0.0000000e+0 0.93417236 0.35682209
vn 0.0000000e+0 0.93417236 -0.35682209
vn 0.0000000e+0 -0.93417236 0.35682209
vn 1.3971142e-16 -0.93417236 -0.35682209
g cylinder1_sep25_dodecahedron4_sep10_auv
usemtl dodecahedron4_sep10_auv
f 1/47/1 4/26/4 19/5/19 8/20/8 2/41/2
f 1/50/1 6/28/6 13/9/13 14/13/14 4/35/4
f 2/42/2 10/48/10 17/27/17 6/7/6 1/21/1
f 3/30/3 20/8/20 19/12/19 4/34/4 14/49/14
f 5/48/5 18/27/18 9/6/9 16/21/16 15/42/15
f 7/32/7 16/51/16 9/31/9 11/10/11 12/14/12
f 8/19/8 12/36/12 11/43/11 10/22/10 2/1/2
f 9/29/9 18/11/18 17/15/17 10/33/10 11/49/11
f 12/4/12 8/16/8 19/37/19 20/44/20 7/23/7
f 13/3/13 6/18/6 17/39/17 18/46/18 5/25/5
f 14/38/14 13/45/13 5/24/5 15/2/15 3/17/3
f 15/40/15 16/47/16 7/26/7 20/5/20 3/20/3
