# Exported from Wings 3D 0.99.04a
mtllib ball1.mtl
o cylinder1_sep23
#20 vertices, 12 faces
v -1.91448672 1.59125078 0.17707161
v -1.90587328 1.59125078 -0.24831320
v -2.81812789 1.24703670 0.29027918
v -2.12984082 1.24703670 0.30421602
v -2.81812789 1.93546486 0.29027918
v -2.12984082 1.93546486 0.30421602
v -2.80419105 1.24703670 -0.39800789
v -2.11590398 1.24703670 -0.38407105
v -2.80419105 1.93546486 -0.39800789
v -2.11590398 1.93546486 -0.38407105
v -2.45574079 1.80398678 -0.60373187
v -2.45574079 1.37851478 -0.60373187
v -2.47829107 1.80398678 0.50994000
v -2.47829107 1.37851478 0.50994000
v -3.02815859 1.59125078 0.15452132
v -3.01954515 1.59125078 -0.27086348
v -2.25432353 2.14820086 -4.2589216e-2
v -2.67970834 2.14820086 -5.1202657e-2
v -2.25432353 1.03430070 -4.2589216e-2
v -2.67970834 1.03430070 -5.1202657e-2
vt 0.68154073 0.92834296
vt 0.68187077 0.92907021
vt 0.68187077 0.92907021
vt 0.68195139 0.92863126
vt 0.68195139 0.92863126
vt 0.68209022 0.92883621
vt 0.68213099 0.92933088
vt 0.68213099 0.92933088
vt 0.68219415 0.93005627
vt 0.68229989 0.92932736
vt 0.68229989 0.92932736
vt 0.68261280 0.92944137
vt 0.71563999 0.82289286
vt 0.71620704 0.82218878
vt 0.71628100 0.82238979
vt 0.71628100 0.82238979
vt 0.71635776 0.82237178
vt 0.71643107 0.82238026
vt 0.71643107 0.82238026
vt 0.71649296 0.82181600
vt 0.71649296 0.82181600
vt 0.71657929 0.82168970
vt 0.71671901 0.82204920
vt 0.77214649 0.99462429
vt 0.77286480 0.99448997
vt 0.77286480 0.99448997
vt 0.77291057 0.99475412
vt 0.77291057 0.99475412
vt 0.77294982 0.99476915
vt 0.77328507 0.99485608
vt 0.77328507 0.99485608
vt 0.77346552 0.99483650
vt 0.77346552 0.99483650
vt 0.77377728 0.99498046
vt 0.77401427 0.99462106
vt 0.82789377 0.82158643
vt 0.82846781 0.82181633
vt 0.82846781 0.82181633
vt 0.82854095 0.82182177
vt 0.82854095 0.82182177
vt 0.82861475 0.82137882
vt 0.82869091 0.82179246
vt 0.82869091 0.82179246
vt 0.82875423 0.82165925
vt 0.82875423 0.82165925
vt 0.82884009 0.82205569
vt 0.82898037 0.82198414
vt 0.86318250 0.92893514
vt 0.86351251 0.92846757
vt 0.86351251 0.92846757
vt 0.86359395 0.92837764
vt 0.86359395 0.92837764
vt 0.86373293 0.92873094
vt 0.86377140 0.92841179
vt 0.86377140 0.92841179
vt 0.86382459 0.92794241
vt 0.86394014 0.92837628
vt 0.86394014 0.92837628
vt 0.86424844 0.92783473
vn 0.92675725 6.4947903e-17 0.37566076
vn 0.94120457 1.3971142e-16 -0.33783717
vn -0.58892008 -0.57735027 0.56554382
vn 0.56554382 -0.57735027 0.58892008
vn -0.58892008 0.57735027 0.56554382
vn 0.56554382 0.57735027 0.58892008
vn -0.56554382 -0.57735027 -0.58892008
vn 0.58892008 -0.57735027 -0.56554382
vn -0.56554382 0.57735027 -0.58892008
vn 0.58892008 0.57735027 -0.56554382
vn 1.8911793e-2 0.35682209 -0.93398091
vn 1.8911793e-2 -0.35682209 -0.93398091
vn -1.8911793e-2 0.35682209 0.93398091
vn -1.8911793e-2 -0.35682209 0.93398091
vn -0.94120457 1.3971142e-16 0.33783717
vn -0.92675725 1.3971142e-16 -0.37566076
vn 0.35674896 0.93417236 7.2236620e-3
vn -0.35674896 0.93417236 -7.2236620e-3
vn 0.35674896 -0.93417236 7.2236620e-3
vn -0.35674896 -0.93417236 -7.2236620e-3
g cylinder1_sep23_dodecahedron4_sep10_auv
usemtl dodecahedron4_sep10_auv
f 1/49/1 4/27/4 19/2/19 8/14/8 2/37/2
f 1/57/1 6/32/6 13/10/13 14/19/14 4/42/4
f 2/40/2 10/55/10 17/31/17 6/8/6 1/16/1
f 3/22/3 20/46/20 19/48/19 4/24/4 14/1/14
f 5/54/5 18/30/18 9/7/9 16/15/16 15/39/15
f 7/43/7 16/58/16 9/33/9 11/11/11 12/18/12
f 8/21/8 12/44/12 11/51/11 10/25/10 2/5/2
f 9/9/9 18/13/18 17/36/17 10/56/10 11/34/11
f 12/29/12 8/6/8 19/23/19 20/47/20 7/53/7
f 13/12/13 6/17/6 17/41/17 18/59/18 5/35/5
f 14/45/14 13/52/13 5/26/5 15/4/15 3/20/3
f 15/38/15 16/50/16 7/28/7 20/3/20 3/14/3
