# Exported from Wings 3D 0.99.04a
mtllib bottom.mtl
o cylinder1_sep41
#24 vertices, 20 faces
v 0.96800000 1.27387541 4.7138734e-2
v 0.48400000 1.27387541 0.88545132
v -0.48400000 1.27387541 0.88545132
v -0.96800000 1.27387541 4.7138734e-2
v -0.48400000 1.27387541 -0.79117386
v 0.48400000 1.27387541 -0.79117386
v 0.96800000 -1.4124591e-2 4.7138734e-2
v 0.48400000 -1.4124591e-2 0.88545132
v -0.48400000 -1.4124591e-2 0.88545132
v -0.96800000 -1.4124591e-2 4.7138734e-2
v -0.48400000 -1.4124591e-2 -0.79117386
v 0.48400000 -1.4124591e-2 -0.79117386
v -0.33686400 1.27083573 -1.34428131
v 0.33686400 1.27083573 -1.34428131
v 0.33686400 -1.1084911e-2 -1.34428131
v -0.33686400 -1.1084911e-2 -1.34428131
v -1.03657311 1.27083573 1.03458154
v -1.37343711 1.27083573 0.45111598
v -1.37343711 -1.1084911e-2 0.45111598
v -1.03657311 -1.1084911e-2 1.03458154
v 1.37343711 1.27083573 0.45111598
v 1.03657311 1.27083573 1.03458154
v 1.03657311 -1.1084911e-2 1.03458154
v 1.37343711 -1.1084911e-2 0.45111598
vt 4.4022325e-3 0.56379466
vt 4.4022325e-3 0.56379466
vt 4.4022325e-3 0.56379466
vt 4.4022325e-3 0.78643462
vt 4.4022325e-3 0.78643462
vt 0.12141320 0.56379466
vt 0.12141320 0.56379466
vt 0.12141320 0.78643462
vt 0.12141320 0.78643462
vt 0.12141320 0.78643462
vt 0.22081599 0.56326674
vt 0.22081599 0.56326674
vt 0.22081599 0.78696254
vt 0.22081599 0.78696254
vt 0.22081599 0.78696254
vt 0.38893520 0.56326674
vt 0.38893520 0.78696254
vt 0.38893520 0.56326674
vt 0.38893520 0.78696254
vt 0.48833799 0.56379466
vt 0.48833799 0.78643462
vt 0.48833799 0.56379466
vt 0.48833799 0.56379466
vt 0.48833799 0.78643462
vt 0.48833799 0.78643462
vt 0.50000730 0.49204548
vt 0.50008588 0.49202401
vt 0.56057237 0.38714370
vt 0.56064743 0.38712833
vt 0.57290249 0.56467765
vt 0.57297683 0.56465196
vt 0.65992127 0.41395670
vt 0.65992127 0.71539860
vt 0.65999055 0.41393977
vt 0.65999055 0.71536415
vt 0.68637498 0.81484377
vt 0.68644272 0.81480354
vt 0.80750512 0.81484377
vt 0.80756582 0.81480354
vt 0.83395883 0.41395670
vt 0.83395883 0.71539860
vt 0.83401800 0.41393977
vt 0.83401800 0.71536415
vt 0.92097761 0.56467765
vt 0.92103172 0.56465196
vt 0.93330773 0.38714370
vt 0.93336112 0.38712833
vt 0.99387280 0.49204548
vt 0.99392267 0.49202401
vn 0.55954771 0.70980358 -0.42788461
vn -9.0785089e-2 0.70980358 0.69852483
vn 9.0785089e-2 0.70980358 0.69852483
vn -0.55954771 0.70980358 -0.42788461
vn -0.65033280 0.70980358 -0.27064022
vn 0.65033280 0.70980358 -0.27064022
vn 0.55954771 -0.70980358 -0.42788461
vn -9.0785089e-2 -0.70980358 0.69852483
vn 9.0785089e-2 -0.70980358 0.69852483
vn -0.55954771 -0.70980358 -0.42788461
vn -0.65033280 -0.70980358 -0.27064022
vn 0.65033280 -0.70980358 -0.27064022
vn -0.51450605 0.53239139 -0.67219263
vn 0.51450605 0.53239139 -0.67219263
vn 0.51450605 -0.53239139 -0.67219263
vn -0.51450605 -0.53239139 -0.67219263
vn -0.32488287 0.53239139 0.78167163
vn -0.83938892 0.53239139 -0.10947899
vn -0.83938892 -0.53239139 -0.10947899
vn -0.32488287 -0.53239139 0.78167163
vn 0.83938892 0.53239139 -0.10947899
vn 0.32488287 0.53239139 0.78167163
vn 0.32488287 -0.53239139 0.78167163
vn 0.83938892 -0.53239139 -0.10947899
g cylinder1_sep41_cylinder1_auv
usemtl cylinder1_auv
f 1/45/1 6/43/6 5/35/5 4/31/4 3/34/3 2/42/2
f 1/13/1 7/11/7 12/18/12 6/19/6
f 1/13/1 21/8/21 24/6/24 7/11/7
f 2/42/2 22/47/22 21/49/21 1/45/1
f 3/14/3 9/12/9 8/16/8 2/17/2
f 3/14/3 17/9/17 20/7/20 9/12/9
f 4/31/4 18/27/18 17/29/17 3/34/3
f 5/15/5 11/12/11 10/16/10 4/17/4
f 5/15/5 13/10/13 16/7/16 11/12/11
f 6/43/6 14/39/14 13/37/13 5/35/5
f 7/30/7 24/26/24 23/28/23 8/32/8
f 8/32/8 9/40/9 10/44/10 11/41/11 12/33/12 7/30/7
f 8/16/8 23/20/23 22/21/22 2/17/2
f 9/40/9 20/46/20 19/48/19 10/44/10
f 10/16/10 19/23/19 18/25/18 4/17/4
f 11/41/11 16/38/16 15/36/15 12/33/12
f 12/18/12 15/22/15 14/24/14 6/19/6
f 14/5/14 15/2/15 16/7/16 13/10/13
f 18/5/18 19/3/19 20/7/20 17/9/17
f 22/4/22 23/1/23 24/6/24 21/8/21
