# Exported from Wings 3D 0.99.04a
mtllib middle.mtl
o cylinder1_sep40
#24 vertices, 20 faces
v 1.00000000 3.10846398 4.7138734e-2
v 0.50000000 3.10846398 0.91316414
v -0.50000000 3.10846398 0.91316414
v -1.00000000 3.10846398 4.7138734e-2
v -0.50000000 3.10846398 -0.81888667
v 0.50000000 3.10846398 -0.81888667
v 1.00000000 1.82046398 4.7138734e-2
v 0.50000000 1.82046398 0.91316414
v -0.50000000 1.82046398 0.91316414
v -1.00000000 1.82046398 4.7138734e-2
v -0.50000000 1.82046398 -0.81888667
v 0.50000000 1.82046398 -0.81888667
v -0.34800000 3.10542430 -1.39027867
v 0.34800000 3.10542430 -1.39027867
v 0.34800000 1.82350366 -1.39027867
v -0.34800000 1.82350366 -1.39027867
v -1.07083999 3.10542430 1.06722428
v -1.41883999 3.10542430 0.46447060
v -1.41883999 1.82350366 0.46447060
v -1.07083999 1.82350366 1.06722428
v 1.41883999 3.10542430 0.46447060
v 1.07083999 3.10542430 1.06722428
v 1.07083999 1.82350366 1.06722428
v 1.41883999 1.82350366 0.46447060
vt 4.7875949e-3 0.55856850
vt 4.7875949e-3 0.34239844
vt 4.7875949e-3 0.34239844
vt 4.7875949e-3 0.55856850
vt 4.7875949e-3 0.55856850
vt 0.12215396 0.34239844
vt 0.12215396 0.55856850
vt 0.12215396 0.34239844
vt 0.12215396 0.55856850
vt 0.22185867 0.34188586
vt 0.22185867 0.55908109
vt 0.22185867 0.34188586
vt 0.22185867 0.34188586
vt 0.22185867 0.55908109
vt 0.22185867 0.55908109
vt 0.39048850 0.55908109
vt 0.39048850 0.34188586
vt 0.39048850 0.34188586
vt 0.39048850 0.55908109
vt 0.39048850 0.34188586
vt 0.39048850 0.55908109
vt 0.49019321 0.34239844
vt 0.49019321 0.34239844
vt 0.49019321 0.55856850
vt 0.49019321 0.55856850
vt 0.49951174 0.49200316
vt 0.49951174 0.49200316
vt 0.56013537 0.38699996
vt 0.56013537 0.38699996
vt 0.57247733 0.56470551
vt 0.57247733 0.56470551
vt 0.65958025 0.41383884
vt 0.65958025 0.71557219
vt 0.65958025 0.71557219
vt 0.68605953 0.81511341
vt 0.68605953 0.81511341
vt 0.80730679 0.81511341
vt 0.80730679 0.81511341
vt 0.83378608 0.41383884
vt 0.83378608 0.41383884
vt 0.83378608 0.71557219
vt 0.92088899 0.56470551
vt 0.92088899 0.56470551
vt 0.93323095 0.38699996
vt 0.93323095 0.38699996
vt 0.99385458 0.49200316
vt 0.99385458 0.49200316
vn 0.55950297 0.70981574 -0.42792294
vn -9.0840651e-2 0.70981574 0.69850526
vn 9.0840651e-2 0.70981574 0.69850526
vn -0.55950297 0.70981574 -0.42792294
vn -0.65034362 0.70981574 -0.27058232
vn 0.65034362 0.70981574 -0.27058232
vn 0.55950297 -0.70981574 -0.42792294
vn -9.0840651e-2 -0.70981574 0.69850526
vn 9.0840651e-2 -0.70981574 0.69850526
vn -0.55950297 -0.70981574 -0.42792294
vn -0.65034362 -0.70981574 -0.27058232
vn 0.65034362 -0.70981574 -0.27058232
vn -0.51453829 0.53242526 -0.67214112
vn 0.51453829 0.53242526 -0.67214112
vn 0.51453829 -0.53242526 -0.67214112
vn -0.51453829 -0.53242526 -0.67214112
vn -0.32482214 0.53242526 0.78167379
vn -0.83936043 0.53242526 -0.10953267
vn -0.83936043 -0.53242526 -0.10953267
vn -0.32482214 -0.53242526 0.78167379
vn 0.83936043 0.53242526 -0.10953267
vn 0.32482214 0.53242526 0.78167379
vn 0.32482214 -0.53242526 0.78167379
vn 0.83936043 -0.53242526 -0.10953267
g cylinder1_sep40_cylinder1_auv
usemtl cylinder1_auv
f 1/42/1 6/41/6 5/34/5 4/30/4 3/32/3 2/39/2
f 1/14/1 7/12/7 12/20/12 6/21/6
f 1/14/1 21/9/21 24/6/24 7/12/7
f 2/39/2 22/44/22 21/46/21 1/42/1
f 3/11/3 9/10/9 8/17/8 2/19/2
f 3/11/3 17/9/17 20/6/20 9/10/9
f 4/30/4 18/27/18 17/28/17 3/32/3
f 5/15/5 11/13/11 10/18/10 4/16/4
f 5/15/5 13/7/13 16/8/16 11/13/11
f 6/41/6 14/37/14 13/35/13 5/34/5
f 7/31/7 24/26/24 23/29/23 8/32/8
f 8/32/8 9/40/9 10/43/10 11/41/11 12/33/12 7/31/7
f 8/17/8 23/22/23 22/24/22 2/19/2
f 9/40/9 20/45/20 19/47/19 10/43/10
f 10/18/10 19/23/19 18/25/18 4/16/4
f 11/41/11 16/38/16 15/36/15 12/33/12
f 12/20/12 15/22/15 14/24/14 6/21/6
f 14/1/14 15/3/15 16/8/16 13/7/13
f 18/4/18 19/2/19 20/6/20 17/9/17
f 22/5/22 23/2/23 24/6/24 21/9/21
