# Exported from Wings 3D 0.99.04a
mtllib turret.mtl
o Box01_sep5
#30 vertices, 37 faces
v -0.99900001 2.40004373 0.99900013
v 1.00100005 2.40004373 0.99900013
v -0.99900001 2.40004373 -1.00099993
v 1.00100005 2.40004373 -1.00099993
v -0.99900001 2.71938205 0.99900013
v 1.00100005 2.71938205 0.99900013
v -0.99900001 2.71938205 -1.00099993
v 1.00100005 2.71938205 -1.00099993
v -1.50872004 2.40004373 0.99900013
v 1.51072013 2.40004373 0.99900013
v -1.50872004 2.40004373 -1.00099993
v 1.51072013 2.40004373 -1.00099993
v -1.50872004 2.71938205 0.99900013
v 1.51072013 2.71938205 0.99900013
v -1.50872004 2.71938205 -1.00099993
v 1.51072013 2.71938205 -1.00099993
v -0.23730586 2.53826189 1.99899995
v 0.23930587 2.53826189 1.99899995
v -1.50885999 3.18847942 0.99900001
v 1.51086009 3.18847942 0.99900001
v -1.50885999 3.18847942 -1.00100005
v 1.51086009 3.18847942 -1.00100005
v -0.99900001 3.46398377 -1.0000406e-3
v 1.00100005 3.46398377 -1.0000406e-3
v -0.57517731 3.76932096 -2.77628994
v 0.57717729 3.76932096 -2.77628994
v -0.36850283 3.04737759 1.3810488e-2
v 0.37050286 3.04737759 1.3810429e-2
v -0.36850286 3.04737759 -0.69947976
v 0.37050283 3.04737759 -0.69947976
vt 9.6990839e-3 0.30359620
vt 9.8537924e-3 0.21603426
vt 1.8879408e-2 0.41318294
vt 1.8879408e-2 0.61490726
vt 2.1307021e-2 0.74094981
vt 2.2277074e-2 0.65305829
vt 2.2623362e-2 0.68900329
vt 3.3828758e-2 8.5228443e-2
vt 6.4556666e-2 0.30369300
vt 6.4711213e-2 0.21613115
vt 8.2472645e-2 0.51255143
vt 8.2472645e-2 0.58449543
vt 9.5705383e-2 0.31232095
vt 0.12845214 0.76930201
vt 0.14377747 0.31232095
vt 0.14758559 0.30323914
vt 0.15701033 0.51255143
vt 0.15701033 0.58449543
vt 0.19262251 0.21635738
vt 0.22060370 0.41318294
vt 0.22060370 0.61490726
vt 0.23500018 0.74060571
vt 0.23596993 0.65453923
vt 0.23631622 0.68865943
vt 0.39451325 0.78035367
vt 0.42531359 0.79891658
vt 0.47667736 0.74373895
vt 0.51628095 0.78099835
vt 0.56332862 0.75373673
vt 0.84045798 0.81286722
vt 0.90252215 0.71310151
vt 0.91759914 0.83548766
vt 0.91759914 0.91445190
vt 0.95264620 0.71311659
vt 0.95264620 0.76758111
vt 0.95264620 0.98182160
vt 0.96727926 7.7673286e-2
vt 0.96727926 8.6460978e-2
vt 0.96951890 7.7673286e-2
vt 0.96951890 8.6460978e-2
vt 0.97286564 7.3279440e-2
vt 0.97495985 7.3279440e-2
vt 0.97830659 7.7673286e-2
vt 0.97830659 8.6460978e-2
vt 0.98054624 7.7673286e-2
vt 0.98054624 8.6460978e-2
vt 0.98676807 0.71311659
vt 0.98676807 0.76758111
vt 0.98676807 0.98182160
vn -0.22398616 -0.84203475 0.49072160
vn 0.22398616 -0.84203475 0.49072160
vn 0.0000000e+0 -0.70710678 -0.70710678
vn 0.0000000e+0 -0.70710678 -0.70710678
vn 6.7429686e-2 0.69386138 0.71694464
vn -6.7429679e-2 0.69386138 0.71694464
vn 0.21749101 0.17656629 -0.95995938
vn -0.21749102 0.17656628 -0.95995938
vn -0.57735027 -0.57735027 0.57735027
vn 0.57735027 -0.57735027 0.57735027
vn -0.57735027 -0.57735027 -0.57735027
vn 0.57735027 -0.57735027 -0.57735027
vn -0.70710677 -1.0539017e-4 0.70710679
vn 0.70710677 -1.0539017e-4 0.70710679
vn -0.70710677 -1.0556986e-4 -0.70710679
vn 0.70710677 -1.0556986e-4 -0.70710679
vn -0.65362869 -5.4163013e-3 0.75679601
vn 0.65362868 -5.4163013e-3 0.75679602
vn -0.38314989 0.66270122 0.64344639
vn 0.38314989 0.66270123 0.64344639
vn -0.80859858 0.35121075 -0.47203745
vn 0.80859856 0.35121077 -0.47203747
vn 0.56863903 0.79132598 0.22461711
vn -0.56863903 0.79132598 0.22461712
vn -0.28131959 0.15050939 -0.94773742
vn 0.28131939 0.15050935 -0.94773748
vn -0.15965949 0.98110484 0.10928013
vn 0.15965949 0.98110484 0.10928012
vn -0.17047694 0.94709192 -0.27194579
vn 0.17047693 0.94709192 -0.27194579
g Box01_sep5_01 - Default
usemtl 01 - Default
f 1/43/1 3/44/3 4/40/4 2/39/2
f 1/43/1 9/45/9 11/46/11 3/44/3
f 1/2/1 17/8/17 5/10/5
f 2/2/2 10/1/10 14/9/14 6/10/6
f 2/39/2 18/41/18 17/42/17 1/43/1
f 3/48/3 7/35/7 8/36/8 4/49/4
f 3/48/3 11/47/11 15/34/15 7/35/7
f 4/40/4 12/38/12 10/37/10 2/39/2
f 5/10/5 13/9/13 9/1/9 1/2/1
f 5/20/5 17/15/17 18/13/18 6/3/6
f 5/10/5 19/16/19 13/9/13
f 5/10/5 23/19/23 19/16/19
f 5/20/5 27/17/27 29/18/29 7/21/7
f 6/10/6 18/8/18 2/2/2
f 6/29/6 24/28/24 8/27/8
f 6/3/6 28/11/28 27/17/27 5/20/5
f 7/27/7 23/28/23 5/29/5
f 7/27/7 25/25/25 23/28/23
f 7/35/7 29/32/29 30/33/30 8/36/8
f 8/35/8 16/34/16 12/47/12 4/48/4
f 8/35/8 22/31/22 16/34/16
f 8/35/8 26/30/26 22/31/22
f 8/4/8 30/12/30 28/11/28 6/3/6
f 9/6/9 13/7/13 15/24/15 11/23/11
f 12/23/12 16/24/16 14/7/14 10/6/10
f 13/7/13 19/5/19 21/22/21 15/24/15
f 14/9/14 20/16/20 6/10/6
f 15/34/15 21/31/21 7/35/7
f 16/24/16 22/22/22 20/5/20 14/7/14
f 19/5/19 23/14/23 21/22/21
f 20/16/20 24/19/24 6/10/6
f 21/31/21 25/30/25 7/35/7
f 22/22/22 24/14/24 20/5/20
f 22/22/22 26/26/26 24/14/24
f 23/14/23 25/26/25 21/22/21
f 24/28/24 26/25/26 8/27/8
f 28/11/28 30/12/30 29/18/29 27/17/27
