# Exported from Wings 3D 0.99.04a
mtllib barrel1.mtl
o Box01
#76 vertices, 83 faces
v 9.9997083e-4 7.85036087 -1.75018799
v 0.80901963 8.18505383 -9.9965697e-4
v 0.33569264 8.65838146 -9.9962996e-4
v -0.33369276 8.65838051 -9.9961867e-4
v -0.80701971 8.18505383 -9.9962996e-4
v -0.80701965 7.51566792 -9.9965697e-4
v -0.33369261 7.04234123 -9.9968398e-4
v 0.33569282 7.04234123 -9.9969516e-4
v 0.80901968 7.51566839 -9.9968398e-4
v 1.61703932 8.51974678 -9.9965697e-4
v 0.67038530 9.46640110 -9.9960284e-4
v -0.66838551 9.46640015 -9.9958049e-4
v -1.61503935 8.51974678 -9.9960284e-4
v -1.61503923 7.18097544 -9.9965697e-4
v -0.66838521 6.23432159 -9.9971099e-4
v 0.67038566 6.23432159 -9.9973346e-4
v 1.61703944 7.18097591 -9.9971099e-4
v 1.61703932 8.51974678 4.25652552
v 0.67038530 9.46640110 4.25652552
v -0.66838545 9.46640015 4.25652552
v -1.61503923 8.51974678 4.25652552
v -1.61503911 7.18097544 4.25652552
v -0.66838521 6.23432159 4.25652552
v 0.67038566 6.23432159 4.25652552
v 1.61703944 7.18097591 4.25652552
v 1.13450587 8.31987476 5.69023037
v 0.47051349 8.98386669 5.69023085
v -0.46851352 8.98386669 5.69023085
v -1.13250566 8.31987476 5.69023085
v -1.13250566 7.38084745 5.69023037
v -0.46851331 6.71685505 5.69023037
v 0.47051367 6.71685505 5.69023037
v 1.13450599 7.38084745 5.69023037
v 0.57246810 8.08707047 10.93816280
v 0.23770988 8.42182922 10.93816280
v -0.23570970 8.42182922 10.93816280
v -0.57046789 8.08707047 10.93816280
v -0.57046783 7.61365080 10.93816280
v -0.23570964 7.27889252 10.93816280
v 0.23770998 7.27889252 10.93816280
v 0.57246810 7.61365080 10.93816280
v 0.71069193 8.14432526 11.45534325
v 0.29496405 8.56005287 11.45534325
v -0.29296389 8.56005287 11.45534325
v -0.70869172 8.14432526 11.45534325
v -0.70869172 7.55639648 11.45534325
v -0.29296380 7.14066839 11.45534325
v 0.29496419 7.14066887 11.45534325
v 0.71069199 7.55639648 11.45534325
v 0.35584599 7.99734259 11.45534325
v 0.14798212 8.20520687 11.45534325
v -0.14598188 8.20520687 11.45534325
v -0.35384580 7.99734259 11.45534325
v -0.35384578 7.70337820 11.45534325
v -0.14598182 7.49551439 11.45534325
v 0.14798217 7.49551439 11.45534325
v 0.35584605 7.70337868 11.45534325
v 1.0000501e-3 7.85036039 13.99220562
v 0.35584593 7.99734211 13.99220562
v 0.14798203 8.20520687 13.99220562
v -0.14598192 8.20520687 13.99220562
v -0.35384589 7.99734211 13.99220562
v -0.35384583 7.70337820 13.99220562
v -0.14598192 7.49551439 13.99220562
v 0.14798208 7.49551439 13.99220562
v 0.35584596 7.70337820 13.99220562
v 0.80901963 8.18505383 -1.75018799
v 0.33569261 8.65838146 -1.75018799
v -0.33369279 8.65838146 -1.75018799
v -0.80701971 8.18505383 -1.75018799
v -0.80701965 7.51566792 -1.75018799
v -0.33369264 7.04234123 -1.75018799
v 0.33569279 7.04234123 -1.75018799
v 0.80901968 7.51566839 -1.75018799
v 9.9946698e-4 10.28427219 2.85234666
v 9.9961099e-4 10.28427315 3.73147988
vt 0.41136739 0.46510318
vt 0.41172299 0.39695939
vt 0.41483149 0.32805043
vt 0.41483149 0.35785887
vt 0.43282244 0.33550251
vt 0.43282244 0.35040674
vt 0.43590924 0.30697265
vt 0.43590924 0.37893659
vt 0.44336125 0.32496363
vt 0.44336125 0.36094561
vt 0.45826551 0.32496363
vt 0.45826551 0.36094561
vt 0.46571764 0.30697268
vt 0.46571764 0.37893659
vt 0.46880445 0.33550251
vt 0.46880445 0.35040674
vt 0.48679540 0.32805043
vt 0.48679540 0.35785887
vt 0.53405756 0.29401702
vt 0.53405756 0.36189389
vt 0.54641068 0.27869684
vt 0.57975757 0.39833221
vt 0.58009589 0.46568000
vt 0.58044815 0.37618577
vt 0.58070421 0.36867952
vt 0.64374280 0.36872214
vt 0.64383495 0.37617826
vt 0.64598608 0.36756921
vt 0.64598608 0.37704980
vt 0.65268981 0.36086541
vt 0.65268981 0.38375360
vt 0.65508342 0.45858976
vt 0.65530205 0.41098440
vt 0.65743017 0.37230957
vt 0.66217041 0.36086547
vt 0.66217041 0.38375360
vt 0.66887426 0.36756921
vt 0.66887426 0.37704980
vt 0.67872453 0.32795537
vt 0.69066238 0.33882177
vt 0.69099426 0.35094482
vt 0.69107771 0.32016349
vt 0.73380494 0.35098237
vt 0.73382723 0.33885938
vt 0.73565042 0.32016349
vt 0.76221621 0.38067335
vt 0.76227069 0.27869684
vt 0.76268840 0.31279913
vt 0.77600777 0.27813989
vt 0.80315220 0.36352596
vt 0.80372810 0.32958889
vt 0.80994606 0.31960666
vt 0.82715261 0.34271610
vt 0.82715261 0.35249665
vt 0.83406848 0.33580023
vt 0.83406848 0.35941249
vt 0.83895880 0.34760639
vt 0.84384900 0.33580023
vt 0.84384900 0.35941249
vt 0.84388459 0.27814001
vt 0.85076493 0.34271610
vt 0.85076493 0.35249662
vt 0.91998959 0.42309895
vt 0.92031312 0.44674036
vt 0.94856715 0.42038760
vt 0.94888520 0.45176917
vn 7.4573579e-23 0.0000000e+0 -1.00000000
vn 0.62694324 0.25968821 -0.73450950
vn 0.25968829 0.62694309 -0.73450960
vn -0.25968869 0.62694313 -0.73450943
vn -0.62694321 0.25968829 -0.73450950
vn -0.62694306 -0.25968845 -0.73450957
vn -0.25968826 -0.62694317 -0.73450954
vn 0.25968842 -0.62694304 -0.73450959
vn 0.62694318 -0.25968820 -0.73450955
vn 0.62694314 0.25968836 -0.73450954
vn 0.41606921 0.64666780 -0.63930210
vn -0.41606971 0.64666756 -0.63930202
vn -0.62694309 0.25968841 -0.73450956
vn -0.62694312 -0.25968837 -0.73450955
vn -0.25968834 -0.62694312 -0.73450956
vn 0.25968842 -0.62694305 -0.73450959
vn 0.62694318 -0.25968821 -0.73450955
vn 0.90969790 0.37680921 0.17454097
vn 0.49276970 0.80144638 0.33891255
vn -0.49277008 0.80144618 0.33891248
vn -0.90969789 0.37680926 0.17454094
vn -0.90969788 -0.37680927 0.17454094
vn -0.37680919 -0.90969791 0.17454094
vn 0.37680932 -0.90969786 0.17454092
vn 0.90969797 -0.37680906 0.17454091
vn 0.89895072 0.37235760 0.23073235
vn 0.37235751 0.89895074 0.23073240
vn -0.37235768 0.89895069 0.23073233
vn -0.89895076 0.37235754 0.23073231
vn -0.89895073 -0.37235762 0.23073229
vn -0.37235761 -0.89895074 0.23073229
vn 0.37235766 -0.89895072 0.23073227
vn 0.89895079 -0.37235748 0.23073228
vn 0.92065525 0.38134785 -8.3472850e-2
vn 0.38134793 0.92065523 -8.3472770e-2
vn -0.38134797 0.92065521 -8.3472772e-2
vn -0.92065530 0.38134775 -8.3472852e-2
vn -0.92065525 -0.38134785 -8.3472877e-2
vn -0.38134784 -0.92065526 -8.3472919e-2
vn 0.38134802 -0.92065519 -8.3472834e-2
vn 0.92065527 -0.38134783 -8.3472805e-2
vn 0.71052432 0.29430875 0.63916942
vn 0.29430881 0.71052420 0.63916953
vn -0.29430883 0.71052419 0.63916953
vn -0.71052434 0.29430869 0.63916942
vn -0.71052433 -0.29430875 0.63916942
vn -0.29430868 -0.71052430 0.63916947
vn 0.29430895 -0.71052422 0.63916944
vn 0.71052425 -0.29430876 0.63916949
vn 0.62694340 0.25968795 0.73450946
vn 0.25968878 0.62694280 0.73450968
vn -0.25968873 0.62694284 0.73450966
vn -0.62694340 0.25968790 0.73450947
vn -0.62694306 -0.25968849 0.73450956
vn -0.25968826 -0.62694319 0.73450953
vn 0.25968846 -0.62694305 0.73450958
vn 0.62694321 -0.25968818 0.73450954
vn 0.0000000e+0 0.0000000e+0 1.00000000
vn 0.62694340 0.25968795 0.73450946
vn 0.25968878 0.62694280 0.73450968
vn -0.25968873 0.62694284 0.73450966
vn -0.62694340 0.25968790 0.73450947
vn -0.62694306 -0.25968849 0.73450956
vn -0.25968826 -0.62694319 0.73450953
vn 0.25968846 -0.62694305 0.73450958
vn 0.62694321 -0.25968818 0.73450954
vn 0.62694325 0.25968818 -0.73450950
vn 0.25968831 0.62694307 -0.73450961
vn -0.25968869 0.62694311 -0.73450944
vn -0.62694321 0.25968826 -0.73450951
vn -0.62694304 -0.25968848 -0.73450957
vn -0.25968824 -0.62694319 -0.73450953
vn 0.25968843 -0.62694306 -0.73450958
vn 0.62694319 -0.25968823 -0.73450954
vn -6.3895051e-7 0.99243936 -0.12273594
vn -5.6684557e-7 0.90651413 0.42217548
g Box01_1 - Default
usemtl 1 - Default
f 1/57/1 68/62/68 67/59/67
f 1/57/1 69/61/69 68/62/68
f 1/57/1 70/58/70 69/61/69
f 1/57/1 71/55/71 70/58/70
f 1/57/1 72/53/72 71/55/71
f 1/57/1 73/54/73 72/53/72
f 1/57/1 74/56/74 73/54/73
f 2/50/2 10/46/10 17/48/17 9/51/9
f 2/43/2 67/41/67 68/40/68 3/44/3
f 3/50/3 11/46/11 10/48/10 2/51/2
f 3/40/3 68/44/68 69/43/69 4/41/4
f 4/50/4 12/46/12 11/48/11 3/51/3
f 4/40/4 69/44/69 70/43/70 5/41/5
f 5/50/5 13/46/13 12/48/12 4/51/4
f 5/40/5 70/44/70 71/43/71 6/41/6
f 6/50/6 14/46/14 13/48/13 5/51/5
f 6/43/6 71/41/71 72/40/72 7/44/7
f 7/50/7 15/46/15 14/48/14 6/51/6
f 7/43/7 72/41/72 73/40/73 8/44/8
f 8/50/8 16/46/16 15/48/15 7/51/7
f 8/43/8 73/41/73 74/40/74 9/44/9
f 9/50/9 17/46/17 16/48/16 8/51/8
f 9/43/9 74/41/74 67/40/67 2/44/2
f 10/2/10 18/22/18 25/23/25 17/1/17
f 11/2/11 19/22/19 18/23/18 10/1/10
f 11/21/11 75/42/75 76/45/76 19/47/19
f 12/19/12 75/39/75 11/20/11
f 13/23/13 21/1/21 20/2/20 12/22/12
f 14/23/14 22/1/22 21/2/21 13/22/13
f 15/2/15 23/22/23 22/23/22 14/1/14
f 16/2/16 24/22/24 23/23/23 15/1/15
f 17/2/17 25/22/25 24/23/24 16/1/16
f 18/22/18 26/33/26 33/32/33 25/23/25
f 19/22/19 27/33/27 26/32/26 18/23/18
f 19/60/19 76/52/76 20/49/20
f 20/23/20 28/32/28 27/33/27 19/22/19
f 20/47/20 76/45/76 75/42/75 12/21/12
f 21/23/21 29/32/29 28/33/28 20/22/20
f 22/23/22 30/32/30 29/33/29 21/22/21
f 23/23/23 31/32/31 30/33/30 22/22/22
f 24/22/24 32/33/32 31/32/31 23/23/23
f 25/22/25 33/33/33 32/32/32 24/23/24
f 26/33/26 34/63/34 41/64/41 33/32/33
f 27/33/27 35/63/35 34/64/34 26/32/26
f 28/32/28 36/64/36 35/63/35 27/33/27
f 29/32/29 37/64/37 36/63/36 28/33/28
f 30/32/30 38/64/38 37/63/37 29/33/29
f 31/32/31 39/64/39 38/63/38 30/33/30
f 32/33/32 40/63/40 39/64/39 31/32/31
f 33/33/33 41/63/41 40/64/40 32/32/32
f 34/63/34 42/65/42 49/66/49 41/64/41
f 35/63/35 43/65/43 42/66/42 34/64/34
f 36/64/36 44/66/44 43/65/43 35/63/35
f 37/64/37 45/66/45 44/65/44 36/63/36
f 38/64/38 46/66/46 45/65/45 37/63/37
f 39/64/39 47/66/47 46/65/46 38/63/38
f 40/63/40 48/65/48 47/66/47 39/64/39
f 41/63/41 49/65/49 48/66/48 40/64/40
f 42/13/42 50/11/50 57/9/57 49/7/49
f 43/17/43 51/15/51 50/11/50 42/13/42
f 44/18/44 52/16/52 51/15/51 43/17/43
f 45/14/45 53/12/53 52/16/52 44/18/44
f 46/8/46 54/10/54 53/12/53 45/14/45
f 47/4/47 55/6/55 54/10/54 46/8/46
f 48/3/48 56/5/56 55/6/55 47/4/47
f 49/7/49 57/9/57 56/5/56 48/3/48
f 50/27/50 59/24/59 66/25/66 57/26/57
f 51/27/51 60/24/60 59/25/59 50/26/50
f 52/27/52 61/24/61 60/25/60 51/26/51
f 53/27/53 62/24/62 61/25/61 52/26/52
f 54/27/54 63/24/63 62/25/62 53/26/53
f 55/27/55 64/24/64 63/25/63 54/26/54
f 56/27/56 65/24/65 64/25/64 55/26/55
f 57/27/57 66/24/66 65/25/65 56/26/56
f 58/34/58 66/30/66 59/35/59
f 59/35/59 60/37/60 58/34/58
f 60/37/60 61/38/61 58/34/58
f 61/38/61 62/36/62 58/34/58
f 62/36/62 63/31/63 58/34/58
f 63/31/63 64/29/64 58/34/58
f 64/29/64 65/28/65 58/34/58
f 65/28/65 66/30/66 58/34/58
f 67/59/67 74/56/74 1/57/1
