# Exported from Wings 3D 0.99.04a
mtllib base.mtl
o Box01_sep5
#82 vertices, 93 faces
v -4.99900007 1.0000000e-3 7.99900007
v -1.66566670 1.0000000e-3 7.99900007
v 1.66766655 1.0000000e-3 7.99900007
v 5.00099993 1.0000000e-3 7.99900007
v -4.99900007 9.9985837e-4 5.90746498
v -1.66566682 9.9985837e-4 5.90746498
v 1.66766644 9.9985837e-4 5.90746498
v 5.00099993 9.9985837e-4 5.90746498
v -4.99900007 1.0000000e-3 -2.66766691
v -1.66566670 1.0000000e-3 -2.66766691
v 1.66766655 1.0000000e-3 -2.66766691
v 5.00099993 1.0000000e-3 -2.66766691
v -4.99900007 1.41955948 -5.62203360
v -1.66566682 1.41955948 -5.62203360
v 1.66766644 1.41955948 -5.62203360
v 5.00099993 1.41955948 -5.62203360
v -4.99900007 4.69135141 8.00585270
v -1.66566658 4.69135141 8.00585270
v 1.66766667 4.69135141 8.00585270
v 5.00099993 4.69135141 8.00585270
v -4.99900007 4.69135141 5.90746498
v -1.66566682 4.69135141 5.90746450
v 1.66766644 4.69135141 5.90746498
v 5.00099993 4.69135141 5.90746498
v -4.99900007 4.69135141 -2.67413092
v -1.66566682 4.69135141 -2.67413068
v 1.66766644 4.69135141 -2.67413092
v 5.00099993 4.69135141 -2.67413092
v -4.99900007 3.00099993 7.99900007
v -1.66566670 3.00099993 12.99899960
v 1.66766655 3.00099993 12.99899960
v 5.00099993 3.00099993 7.99900007
v 5.00099993 3.00099993 5.90746498
v 5.00099993 3.00099993 -2.66766691
v 5.00099993 3.00099993 -5.62203360
v 1.66766667 3.00099993 -5.62203360
v -1.66566658 3.00099993 -5.62203360
v -4.99900007 3.00099993 -5.62203360
v -4.99900007 3.00099993 -2.66766644
v -4.99900007 3.00099993 5.90746546
v -8.25803852 1.0000000e-3 7.99900007
v 8.26003933 1.0000000e-3 7.99900007
v -8.25803852 9.9985837e-4 5.90746546
v 8.26003933 9.9985837e-4 5.90746498
v -6.37448883 1.0000000e-3 -2.66766691
v 6.37648869 1.0000000e-3 -2.66766691
v -8.25803852 3.00099993 7.99900007
v 8.26003933 3.00099993 7.99900007
v 8.26003933 3.00099993 5.90746498
v 6.37648869 3.00099993 -2.66766691
v -6.37448883 3.00099993 -2.66766644
v -8.25803852 3.00099993 5.90746546
v -4.99900007 1.0000000e-3 12.97750854
v -1.66566670 1.0000000e-3 12.99899960
v 1.66766655 1.0000000e-3 12.99899960
v 5.00099993 1.0000000e-3 12.97750854
v -4.99900007 3.00099993 12.97750854
v 5.00099993 3.00099993 12.97750854
v -6.76246357 1.50099993 15.31264496
v 6.76446295 1.50099993 15.31264496
v -4.99900007 4.91372347 -4.22582865
v -1.66566670 4.91372299 -4.22582817
v 1.66766644 4.91372347 -4.22582865
v 5.00099993 4.91372347 -4.22582865
v 5.00099993 4.41939497 -4.95931244
v 1.66766655 4.41939497 -4.95931196
v -1.66566658 4.41939497 -4.95931196
v -4.99900007 4.41939497 -4.95931196
v -1.66566670 5.52363443 9.69930363
v 1.66766655 5.52363443 9.69930363
v -1.66566682 5.52363443 6.60306168
v 1.66766644 5.52363443 6.60306263
v -1.66566670 3.83328295 12.46981430
v 1.66766655 3.83328295 12.46981335
v -8.99899960 5.70219994 -0.11359508
v 9.00100040 5.70219994 -0.11359560
v -8.99899960 5.70220041 -1.02019155
v 9.00100040 5.70220041 -1.02019155
v -1.66566670 1.62865150 14.20378780
v 1.66766655 1.62865150 14.20378780
v -12.18401432 1.50100005 8.76497364
v 12.18601513 1.50100005 8.76497364
vt 1.0859838e-2 0.60391408
vt 1.5101004e-2 0.66739714
vt 1.5101004e-2 0.77515614
vt 1.5101004e-2 0.88291496
vt 1.5101004e-2 0.99067402
vt 6.7719199e-2 0.77515614
vt 6.7719199e-2 0.88291496
vt 9.7718537e-2 0.33119845
vt 0.11208411 0.66739714
vt 0.11208411 0.77515614
vt 0.11208411 0.88291496
vt 0.11208411 0.99067402
vt 0.11552106 0.33467174
vt 0.11552106 0.34415603
vt 0.12230282 0.30150771
vt 0.12406211 0.38304031
vt 0.13029933 0.31209648
vt 0.13029933 0.33467174
vt 0.13029933 0.34415603
vt 0.13029933 0.38304031
vt 0.13029933 0.39643705
vt 0.13175207 0.64638758
vt 0.13175336 0.99060488
vt 0.14541447 0.31199908
vt 0.14541447 0.33467174
vt 0.14541447 0.34415603
vt 0.14541447 0.38304031
vt 0.14541447 0.39643705
vt 0.16052964 0.31199908
vt 0.16052964 0.33467174
vt 0.16052964 0.34415603
vt 0.16052964 0.38304031
vt 0.16052964 0.39643705
vt 0.17564481 0.31209648
vt 0.17564481 0.33467174
vt 0.17564481 0.34415603
vt 0.17564481 0.38304031
vt 0.17564481 0.39643705
vt 0.18188202 0.38304031
vt 0.18364131 0.30150771
vt 0.19042307 0.33467174
vt 0.19042307 0.34415603
vt 0.19170794 0.96336901
vt 0.20822558 0.33119845
vt 0.22366397 0.95314866
vt 0.25749075 9.1932237e-2
vt 0.29046440 0.81368858
vt 0.29219657 0.71272838
vt 0.29219672 0.74909300
vt 0.30321705 0.87659752
vt 0.30859438 0.74464732
vt 0.32944810 0.98764664
vt 0.32944846 0.88134956
vt 0.32996827 0.77472478
vt 0.33249286 0.75151592
vt 0.33356392 0.86862779
vt 0.33872470 0.33687633
vt 0.34955510 0.30388579
vt 0.35512996 0.98738313
vt 0.35513014 0.88145715
vt 0.37524575 0.53246421
vt 0.37540090 3.2838419e-2
vt 0.37540090 0.15109625
vt 0.37576148 0.69639653
vt 0.41325730 0.48012921
vt 0.43551999 0.49845803
vt 0.43771857 3.2782119e-2
vt 0.43771857 0.15148893
vt 0.44399673 0.88119364
vt 0.44399673 0.98749071
vt 0.45473492 0.49876240
vt 0.47331327 0.48044860
vt 0.47927985 0.53330505
vt 0.47979555 0.69541162
vt 0.50899094 0.75151592
vt 0.50899094 0.86862779
vt 0.51262438 0.48201907
vt 0.51262438 0.52225649
vt 0.54312199 0.88124400
vt 0.54312235 0.98754102
vt 0.57005167 0.88129431
vt 0.57005221 0.98759139
vt 0.58271468 0.75151592
vt 0.58271468 0.86862779
vt 0.58415824 0.98572987
vt 0.61071861 0.50213778
vt 0.64125919 0.25318152
vt 0.64269644 0.16888480
vt 0.69316387 3.3079326e-2
vt 0.69316435 0.15179412
vt 0.73533845 3.2283731e-2
vt 0.73533887 0.15209934
vt 0.74363786 0.25269893
vt 0.74405032 2.3861945e-2
vt 0.74471897 0.54546267
vt 0.74474049 0.17022952
vt 0.80604088 0.56371969
vt 0.81470746 0.58449227
vt 0.81964934 0.54094905
vt 0.83511072 0.53495389
vt 0.84633857 0.53495389
vt 0.85366058 0.32083976
vt 0.85461956 0.24619628
vt 0.88166314 0.38309306
vt 0.88421655 0.75151592
vt 0.88421655 0.86862779
vt 0.88566005 0.98572987
vt 0.90450108 0.69520772
vt 0.90505409 0.63044202
vt 0.91336536 0.46941447
vt 0.91336572 0.55914909
vt 0.91336602 0.64888370
vt 0.91336638 0.73861837
vt 0.91679680 0.40995979
vt 0.92090684 0.58449227
vt 0.93873310 0.75151592
vt 0.93873310 0.86862779
vt 0.95154911 0.46941435
vt 0.95154941 0.55914897
vt 0.95154977 0.64888364
vt 0.95155013 0.73861825
vt 0.96450311 0.75151592
vt 0.96450311 0.86862779
vt 0.98694772 2.2716530e-2
vt 0.98740435 0.86861807
vt 0.98740435 0.98572987
vt 0.98763770 0.16908419
vt 0.99092174 0.39959937
vt 0.99131441 0.32084027
vt 0.99131501 0.18010144
vt 0.99412209 0.46941423
vt 0.99412239 0.55914891
vt 0.99412274 0.64888352
vt 0.99412310 0.73861814
vn -6.9590696e-3 -0.99404637 0.10873540
vn 0.0000000e+0 -1.00000000 3.3869249e-8
vn 0.0000000e+0 -1.00000000 3.3869249e-8
vn 6.9590660e-3 -0.99404637 0.10873539
vn 8.1388435e-16 -1.00000000 2.5608303e-8
vn 0.0000000e+0 -1.00000000 2.5608301e-8
vn 0.0000000e+0 -1.00000000 2.5608301e-8
vn 1.0912492e-20 -1.00000000 2.5608301e-8
vn -0.29524919 -0.85665598 -0.42304662
vn 0.0000000e+0 -0.97505586 -0.22195960
vn 0.0000000e+0 -0.97505586 -0.22195960
vn 0.29524917 -0.85665599 -0.42304661
vn -0.50861173 -0.45849714 -0.72876229
vn 0.0000000e+0 -0.53251948 -0.84641775
vn 0.0000000e+0 -0.53251948 -0.84641775
vn 0.50861173 -0.45849714 -0.72876229
vn -0.71202166 0.69278875 0.11431928
vn -0.71202170 0.69278871 0.11431930
vn 0.71202163 0.69278879 0.11431926
vn 0.71202166 0.69278875 0.11431928
vn -0.46531644 0.87016534 0.16215081
vn -0.25951951 0.94498521 -0.19912956
vn 0.25951957 0.94498519 -0.19912958
vn 0.46531647 0.87016533 0.16215083
vn -0.57302566 0.79228430 -0.20958809
vn 0.24995405 0.96417003 -8.8877016e-2
vn -0.24995405 0.96417003 -8.8877020e-2
vn 0.57302563 0.79228434 -0.20958806
vn -0.70727302 0.69044401 0.15182862
vn -0.25156815 0.70102464 0.66729148
vn 0.25156820 0.70102464 0.66729147
vn 0.70727302 0.69044402 0.15182860
vn 0.87938178 0.43049199 0.20338222
vn 0.83603864 4.7657265e-2 -0.54659690
vn 0.83813360 0.11826260 -0.53249040
vn -0.26491159 0.34195031 -0.90160514
vn 0.26491157 0.34195038 -0.90160512
vn -0.83813361 0.11826264 -0.53249038
vn -0.83603867 4.7657252e-2 -0.54659686
vn -0.87938176 0.43049205 0.20338219
vn -0.45212990 -0.87740639 -0.16042624
vn 0.45212990 -0.87740639 -0.16042622
vn -0.70091755 -0.70917388 -7.6072384e-2
vn 0.70091754 -0.70917388 -7.6072423e-2
vn -0.52744793 -0.54002191 -0.65587730
vn 0.52744787 -0.54002196 -0.65587730
vn -0.45212989 0.87740639 -0.16042625
vn 0.45212989 0.87740640 -0.16042624
vn 0.70091754 0.70917388 -7.6072441e-2
vn 0.52744787 0.54002196 -0.65587729
vn -0.52744787 0.54002204 -0.65587722
vn -0.70091754 0.70917388 -7.6072402e-2
vn -0.49633226 -0.58619244 0.64033797
vn -1.4507246e-3 -0.89301355 0.45002743
vn 1.4507246e-3 -0.89301355 0.45002743
vn 0.49633226 -0.58619244 0.64033797
vn -0.67438561 0.46085941 0.57689917
vn 0.67438561 0.46085941 0.57689917
vn 0.30723241 7.2804574e-9 0.95163451
vn -0.30723243 7.2804575e-9 0.95163451
vn -0.47228836 0.85915905 -0.19695032
vn 0.47228848 0.85915900 -0.19695026
vn -0.47228847 0.85915898 -0.19695037
vn 0.47228842 0.85915901 -0.19695035
vn 0.46054497 0.57686057 -0.67463339
vn -0.46054506 0.57686050 -0.67463339
vn 0.46054507 0.57686068 -0.67463323
vn -0.46054498 0.57686069 -0.67463329
vn -0.72040793 0.66769454 0.18760707
vn 0.72040788 0.66769461 0.18760702
vn -0.48322291 0.79310765 -0.37077739
vn 0.48322295 0.79310763 -0.37077737
vn -0.45666882 0.63486498 0.62321750
vn 0.45666894 0.63486494 0.62321745
vn -0.89530111 0.10983740 0.43170785
vn 0.89530110 0.10983725 0.43170790
vn -0.59837905 0.11774890 -0.79251354
vn 0.59837892 0.11774908 -0.79251361
vn -8.7366821e-2 3.1865308e-2 0.99566643
vn 8.7366821e-2 3.1865308e-2 0.99566643
vn -0.85623620 1.1407851e-8 -0.51658452
vn 0.85623625 1.1407852e-8 -0.51658445
g Box01_sep5_1 - Default
usemtl 1 - Default
f 1/35/1 5/36/5 6/31/6 2/30/2
f 1/35/1 41/41/41 43/42/43 5/36/5
f 1/94/1 53/124/53 57/127/57 29/96/29
f 1/35/1 59/40/59 41/41/41
f 2/30/2 6/31/6 7/26/7 3/25/3
f 2/30/2 54/29/54 53/34/53 1/35/1
f 3/25/3 7/26/7 8/19/8 4/18/4
f 3/25/3 55/24/55 54/29/54 2/30/2
f 4/18/4 56/17/56 55/24/55 3/25/3
f 4/78/4 60/86/60 32/77/32
f 5/36/5 9/37/9 10/32/10 6/31/6
f 5/36/5 43/42/43 45/39/45 9/37/9
f 6/31/6 10/32/10 11/27/11 7/26/7
f 7/26/7 11/27/11 12/20/12 8/19/8
f 8/19/8 44/14/44 42/13/42 4/18/4
f 9/37/9 13/38/13 14/33/14 10/32/10
f 9/130/9 39/129/39 38/102/38 13/103/13
f 9/92/9 45/90/45 51/89/51 39/91/39
f 10/32/10 14/33/14 15/28/15 11/27/11
f 11/27/11 15/28/15 16/21/16 12/20/12
f 12/20/12 46/16/46 44/14/44 8/19/8
f 13/134/13 38/121/38 37/120/37 14/133/14
f 14/133/14 37/120/37 36/119/36 15/132/15
f 15/132/15 36/119/36 35/118/35 16/131/16
f 16/103/16 35/102/35 34/129/34 12/130/12
f 17/75/17 57/55/57 30/56/30 18/76/18
f 18/76/18 22/84/22 21/83/21 17/75/17
f 18/47/18 69/50/69 71/54/71 22/51/22
f 19/76/19 31/56/31 58/55/58 20/75/20
f 19/47/19 70/50/70 74/45/74 31/43/31
f 20/75/20 24/83/24 23/84/23 19/76/19
f 20/93/20 32/96/32 33/88/33 24/87/24
f 20/93/20 58/127/58 32/96/32
f 21/87/21 40/88/40 29/96/29 17/93/17
f 21/87/21 75/58/75 40/88/40
f 22/84/22 26/106/26 25/105/25 21/83/21
f 22/81/22 71/79/71 72/80/72 23/82/23
f 23/85/23 27/107/27 26/106/26 22/84/22
f 23/51/23 72/54/72 70/50/70 19/47/19
f 24/83/24 28/105/28 27/106/27 23/84/23
f 24/23/24 76/49/76 78/48/78 28/22/28
f 25/128/25 61/114/61 68/104/68 38/102/38
f 25/22/25 77/48/77 75/49/75 21/23/21
f 26/106/26 62/117/62 61/116/61 25/105/25
f 27/107/27 36/126/36 37/125/37 26/106/26
f 27/65/27 63/66/63 66/71/66 36/72/36
f 28/105/28 64/116/64 63/117/63 27/106/27
f 28/97/28 78/95/78 34/99/34
f 29/96/29 57/127/57 17/93/17
f 29/77/29 59/86/59 1/78/1
f 30/43/30 73/45/73 69/50/69 18/47/18
f 30/11/30 79/7/79 80/6/80 31/10/31
f 31/52/31 74/59/74 73/60/73 30/53/30
f 31/10/31 80/6/80 58/9/58
f 32/64/32 48/61/48 49/73/49 33/74/33
f 32/96/32 58/127/58 56/124/56 4/94/4
f 32/64/32 60/1/60 48/61/48
f 33/74/33 49/73/49 50/109/50 34/108/34
f 33/88/33 76/58/76 24/87/24
f 34/129/34 35/102/35 28/128/28
f 34/90/34 50/92/50 46/91/46 12/89/12
f 34/98/34 78/100/78 76/101/76 33/115/33
f 35/102/35 65/104/65 64/114/64 28/128/28
f 36/119/36 66/111/66 65/110/65 35/118/35
f 37/72/37 67/71/67 62/66/62 26/65/26
f 38/102/38 39/129/39 25/128/25
f 38/121/38 68/113/68 67/112/67 37/120/37
f 39/108/39 51/109/51 52/73/52 40/74/40
f 39/99/39 77/95/77 25/97/25
f 40/74/40 52/73/52 47/61/47 29/64/29
f 40/115/40 75/101/75 77/100/77 39/98/39
f 41/63/41 47/62/47 52/67/52 43/68/43
f 41/63/41 81/46/81 47/62/47
f 42/13/42 60/15/60 4/18/4
f 42/13/42 82/8/82 60/15/60
f 43/68/43 52/67/52 51/89/51 45/90/45
f 44/68/44 49/67/49 48/62/48 42/63/42
f 46/90/46 50/89/50 49/67/49 44/68/44
f 47/61/47 59/1/59 29/64/29
f 47/61/47 81/57/81 59/1/59
f 48/62/48 82/46/82 42/63/42
f 53/5/53 79/7/79 57/12/57
f 54/4/54 79/7/79 53/5/53
f 55/3/55 80/6/80 79/7/79 54/4/54
f 56/2/56 80/6/80 55/3/55
f 57/12/57 79/7/79 30/11/30
f 58/9/58 80/6/80 56/2/56
f 59/40/59 81/44/81 41/41/41
f 60/1/60 82/57/82 48/61/48
f 62/117/62 67/123/67 68/122/68 61/116/61
f 64/116/64 65/122/65 66/123/66 63/117/63
f 69/70/69 73/59/73 74/60/74 70/69/70
f 70/69/70 72/79/72 71/80/71 69/70/69
