# Exported from Wings 3D 1.0.1
mtllib nose.mtl
o Object01
#40 vertices, 50 faces
v 0.85750812 0.35519159 2.46018958
v 0.35519132 0.85750818 2.46018958
v -0.35519183 0.85750806 2.46018958
v -0.85750842 0.35519123 2.46018958
v -0.85750830 -0.35519189 2.46018958
v -0.35519144 -0.85750842 2.46018934
v 0.35519171 -0.85750824 2.46018934
v 0.85750824 -0.35519132 2.46018934
v 0.85750812 0.35519156 3.01708555
v 0.35519132 0.85750818 3.01708579
v -0.35519183 0.85750806 3.01708579
v -0.85750842 0.35519120 3.01708579
v -0.85750830 -0.35519189 3.01708579
v -0.35519144 -0.85750842 3.01708555
v 0.35519171 -0.85750824 3.01708555
v 0.85750824 -0.35519135 3.01708555
v 1.51381636 1.01150012 2.46018958
v 1.01149952 1.51381671 2.46018958
v -1.01150036 1.51381624 2.46018958
v -1.51381707 1.01149952 2.46018958
v -1.51381648 -1.01150048 2.46018958
v -1.01149964 -1.51381695 2.46018934
v 1.01150024 -1.51381636 2.46018934
v 1.51381683 -1.01149952 2.46018934
v 1.51381636 1.01150012 3.01708555
v 1.01149952 1.51381671 3.01708579
v -1.01150036 1.51381624 3.01708603
v -1.51381707 1.01149952 3.01708579
v -1.51381648 -1.01150048 3.01708579
v -1.01149964 -1.51381695 3.01708555
v 1.01150036 -1.51381648 3.01708555
v 1.51381683 -1.01149952 3.01708555
v 0.17518438 0.17518434 4.87340641
v -0.17518456 0.17518425 4.87340641
v -0.17518449 -0.17518470 4.87340641
v 0.17518446 -0.17518452 4.87340641
v 0.80028909 0.80028957 0.13978857
v -0.80028969 0.80028915 0.13978860
v -0.80028933 -0.80028957 0.13978854
v 0.80028951 -0.80028903 0.13978851
vt 1.5670607e-2 0.89758247
vt 8.1019372e-2 0.79820079
vt 8.1709340e-2 0.63236088
vt 8.1771627e-2 0.72146446
vt 0.13474800 0.85299379
vt 0.13656417 0.66773564
vt 0.21148433 0.85374612
vt 0.21330076 0.66848797
vt 0.26627719 0.80001718
vt 0.26702943 0.72328091
vt 0.42061892 0.82497716
vt 0.42068112 0.69930303
vt 0.42223895 0.98845637
vt 0.52870661 0.82462066
vt 0.52898633 0.69930303
vt 0.52923244 0.98979396
vt 0.53971314 0.69383240
vt 0.54133713 0.55979669
vt 0.59437668 0.71628779
vt 0.60679805 1.4443137e-2
vt 0.60680068 0.13894632
vt 0.65101695 0.56059629
vt 0.65147483 0.69294631
vt 0.88959903 0.80356646
vt 0.95534849 8.4962763e-2
vt 0.98809135 0.61945432
vt 0.99605346 0.65939409
vt 0.99605346 0.77048486
vn -5.9329784e-8 1.4323467e-7 -1.00000000
vn 1.00000000 1.6780991e-7 8.9803556e-15
vn 0.70710695 -0.70710661 -1.8920427e-8
vn -0.70221820 -0.70221849 -0.11738307
vn 0.69896546 -0.69896515 -0.15131096
vn -5.9329784e-8 1.4323467e-7 -1.00000000
vn -1.6780985e-7 1.00000000 1.9935906e-16
vn -0.70710696 0.70710660 8.0546059e-17
vn -0.70221820 -0.70221849 -0.11738307
vn -0.69896549 0.69896514 -0.15131083
vn -5.9329784e-8 1.4323467e-7 -1.00000000
vn -1.6780985e-7 1.00000000 1.9935906e-16
vn 0.70710659 0.70710697 8.0546044e-17
vn 0.70221851 -0.70221818 -0.11738307
vn 0.69896512 0.69896550 -0.15131088
vn -5.9329784e-8 1.4323467e-7 -1.00000000
vn -1.00000000 -1.6780986e-7 -4.4901756e-15
vn -0.70710660 -0.70710697 -1.8920428e-8
vn 0.70221851 -0.70221818 -0.11738307
vn -0.69896512 -0.69896550 -0.15131091
vn -5.9329784e-8 1.4323467e-7 -1.00000000
vn -1.00000000 -1.6780986e-7 -4.4901756e-15
vn -0.70710701 0.70710656 0.0000000e+0
vn 0.70221809 0.70221861 -0.11738302
vn -0.69896554 0.69896510 -0.15131084
vn -5.9329784e-8 1.4323467e-7 -1.00000000
vn 2.5171478e-7 -1.00000000 -1.9935906e-16
vn 0.70710696 -0.70710660 -8.0546059e-17
vn 0.70221809 0.70221861 -0.11738302
vn 0.69896548 -0.69896513 -0.15131095
vn -5.9329784e-8 1.4323467e-7 -1.00000000
vn 2.5171478e-7 -1.00000000 -1.9935906e-16
vn -0.70710656 -0.70710701 -4.8193391e-14
vn -0.70221862 0.70221808 -0.11738300
vn -0.69896508 -0.69896553 -0.15131096
vn -5.9329784e-8 1.4323467e-7 -1.00000000
vn 1.00000000 1.6780991e-7 8.9803556e-15
vn 0.70710656 0.70710700 1.8920429e-8
vn -0.70221862 0.70221808 -0.11738300
vn 0.69896511 0.69896552 -0.15131086
vn 1.00000000 1.6780991e-7 8.9803556e-15
vn 1.1865952e-7 -1.1865947e-7 1.00000000
vn 0.70710695 -0.70710661 -1.8920427e-8
vn -0.67179251 -0.67179260 -0.31207293
vn 0.69450771 -0.69450736 0.18793236
vn -1.6780985e-7 1.00000000 1.9935906e-16
vn 1.1865952e-7 -1.1865947e-7 1.00000000
vn -0.70710696 0.70710660 8.0546059e-17
vn -0.67179251 -0.67179260 -0.31207293
vn -0.69450771 0.69450736 0.18793237
vn -1.6780985e-7 1.00000000 1.9935906e-16
vn 1.1865952e-7 -1.1865947e-7 1.00000000
vn 0.70710659 0.70710697 8.0546044e-17
vn 0.67179273 -0.67179237 -0.31207298
vn 0.69450738 0.69450769 0.18793238
vn -1.00000000 -1.6780986e-7 -4.4901756e-15
vn 1.1865952e-7 -1.1865947e-7 1.00000000
vn -0.70710660 -0.70710697 -1.8920428e-8
vn 0.67179273 -0.67179237 -0.31207298
vn -0.69450736 -0.69450771 0.18793237
vn -1.00000000 -1.6780986e-7 -4.4901756e-15
vn 1.1865952e-7 -1.1865947e-7 1.00000000
vn -0.70710701 0.70710656 0.0000000e+0
vn 0.67179227 0.67179285 -0.31207292
vn -0.69450774 0.69450730 0.18793244
vn 2.5171478e-7 -1.00000000 -1.9935906e-16
vn 1.1865952e-7 -1.1865947e-7 1.00000000
vn 0.70710696 -0.70710660 -8.0546059e-17
vn 0.67179227 0.67179285 -0.31207292
vn 0.69450772 -0.69450737 0.18793229
vn 2.5171478e-7 -1.00000000 -1.9935906e-16
vn 1.1865952e-7 -1.1865947e-7 1.00000000
vn -0.70710656 -0.70710701 -4.8193391e-14
vn -0.67179281 0.67179233 -0.31207289
vn -0.69450731 -0.69450775 0.18793236
vn 1.00000000 1.6780991e-7 8.9803556e-15
vn 1.1865952e-7 -1.1865947e-7 1.00000000
vn 0.70710656 0.70710700 1.8920429e-8
vn -0.67179281 0.67179233 -0.31207289
vn 0.69450732 0.69450776 0.18793234
vn 0.70710661 0.70710695 0.0000000e+0
vn 0.70710695 -0.70710661 -1.8920427e-8
vn 0.68059925 0.68059957 -0.27123584
vn 0.69896546 -0.69896515 -0.15131096
vn 0.70710661 0.70710695 0.0000000e+0
vn -0.70710696 0.70710660 8.0546059e-17
vn 0.68059925 0.68059957 -0.27123584
vn -0.69896549 0.69896514 -0.15131083
vn -0.70710678 0.70710678 0.0000000e+0
vn 0.70710659 0.70710697 8.0546044e-17
vn -0.68059941 0.68059941 -0.27123586
vn 0.69896512 0.69896550 -0.15131088
vn -0.70710678 0.70710678 0.0000000e+0
vn -0.70710660 -0.70710697 -1.8920428e-8
vn -0.68059941 0.68059941 -0.27123586
vn -0.69896512 -0.69896550 -0.15131091
vn -0.70710653 -0.70710703 0.0000000e+0
vn -0.70710701 0.70710656 0.0000000e+0
vn -0.68059922 -0.68059958 -0.27123590
vn -0.69896554 0.69896510 -0.15131084
vn -0.70710653 -0.70710703 0.0000000e+0
vn 0.70710696 -0.70710660 -8.0546059e-17
vn -0.68059922 -0.68059958 -0.27123590
vn 0.69896548 -0.69896513 -0.15131095
vn 0.70710703 -0.70710653 -1.5136339e-7
vn -0.70710656 -0.70710701 -4.8193391e-14
vn 0.68059956 -0.68059923 -0.27123593
vn -0.69896508 -0.69896553 -0.15131096
vn 0.70710703 -0.70710653 -1.5136339e-7
vn 0.70710656 0.70710700 1.8920429e-8
vn 0.68059956 -0.68059923 -0.27123593
vn 0.69896511 0.69896552 -0.15131086
vn 0.70710661 0.70710695 0.0000000e+0
vn 0.70710695 -0.70710661 -1.8920427e-8
vn 0.54451258 0.54451253 0.63797504
vn 0.69450771 -0.69450736 0.18793236
vn 0.70710661 0.70710695 0.0000000e+0
vn -0.70710696 0.70710660 8.0546059e-17
vn 0.54451258 0.54451253 0.63797504
vn -0.69450771 0.69450736 0.18793237
vn -0.70710678 0.70710678 0.0000000e+0
vn 0.70710659 0.70710697 8.0546044e-17
vn -0.54451266 0.54451236 0.63797511
vn 0.69450738 0.69450769 0.18793238
vn -0.70710678 0.70710678 0.0000000e+0
vn -0.70710660 -0.70710697 -1.8920428e-8
vn -0.54451266 0.54451236 0.63797511
vn -0.69450736 -0.69450771 0.18793237
vn -0.70710653 -0.70710703 0.0000000e+0
vn -0.70710701 0.70710656 0.0000000e+0
vn -0.54451222 -0.54451291 0.63797503
vn -0.69450774 0.69450730 0.18793244
vn -0.70710653 -0.70710703 0.0000000e+0
vn 0.70710696 -0.70710660 -8.0546059e-17
vn -0.54451222 -0.54451291 0.63797503
vn 0.69450772 -0.69450737 0.18793229
vn 0.70710703 -0.70710653 -1.5136339e-7
vn -0.70710656 -0.70710701 -4.8193391e-14
vn 0.54451283 -0.54451231 0.63797501
vn -0.69450731 -0.69450775 0.18793236
vn 0.70710703 -0.70710653 -1.5136339e-7
vn 0.70710656 0.70710700 1.8920429e-8
vn 0.54451283 -0.54451231 0.63797501
vn 0.69450732 0.69450776 0.18793234
vn 0.54451258 0.54451253 0.63797504
vn -0.67179251 -0.67179260 -0.31207293
vn 0.69450771 -0.69450736 0.18793236
vn -0.69450771 0.69450736 0.18793237
vn -0.54451266 0.54451236 0.63797511
vn 0.67179273 -0.67179237 -0.31207298
vn 0.69450738 0.69450769 0.18793238
vn -0.69450736 -0.69450771 0.18793237
vn -0.54451222 -0.54451291 0.63797503
vn 0.67179227 0.67179285 -0.31207292
vn -0.69450774 0.69450730 0.18793244
vn 0.69450772 -0.69450737 0.18793229
vn 0.54451283 -0.54451231 0.63797501
vn -0.67179281 0.67179233 -0.31207289
vn -0.69450731 -0.69450775 0.18793236
vn 0.69450732 0.69450776 0.18793234
vn -0.70221820 -0.70221849 -0.11738307
vn 0.68059925 0.68059957 -0.27123584
vn -0.69896549 0.69896514 -0.15131083
vn 0.69896546 -0.69896515 -0.15131096
vn 0.70221851 -0.70221818 -0.11738307
vn -0.68059941 0.68059941 -0.27123586
vn -0.69896512 -0.69896550 -0.15131091
vn 0.69896512 0.69896550 -0.15131088
vn 0.70221809 0.70221861 -0.11738302
vn -0.68059922 -0.68059958 -0.27123590
vn 0.69896548 -0.69896513 -0.15131095
vn -0.69896554 0.69896510 -0.15131084
vn -0.70221862 0.70221808 -0.11738300
vn 0.68059956 -0.68059923 -0.27123593
vn 0.69896511 0.69896552 -0.15131086
vn -0.69896508 -0.69896553 -0.15131096
g Object01_01 - Default
usemtl 01 - Default
f 1/10/1 8/9/36 7/7/31 6/5/26 5/2/21 4/4/16 3/6/11 2/8/6
f 1/12/2 9/15/41 16/14/76 8/11/37
f 1/11/3 17/13/82 25/16/114 9/14/43
f 1/11/5 37/1/164 17/13/84
f 2/28/9 37/19/161 1/27/4
f 3/12/12 11/15/51 10/14/46 2/11/7
f 3/11/13 19/13/90 27/16/122 11/14/53
f 3/11/15 38/1/168 19/13/92
f 4/28/19 38/19/165 3/27/14
f 5/12/22 13/15/61 12/14/56 4/11/17
f 5/11/23 21/13/98 29/16/130 13/14/63
f 5/11/25 39/1/172 21/13/100
f 6/28/29 39/19/169 5/27/24
f 7/12/32 15/15/71 14/14/66 6/11/27
f 7/11/33 23/13/106 31/16/138 15/14/73
f 7/11/35 40/1/176 23/13/108
f 8/28/39 40/19/173 7/27/34
f 9/21/44 33/25/146 10/20/49
f 10/5/47 11/2/52 12/4/57 13/6/62 14/8/67 15/10/72 16/9/77 9/7/42
f 10/14/48 26/16/118 18/13/86 2/11/8
f 10/14/50 33/24/148 26/16/120
f 11/21/54 34/25/150 12/20/59
f 12/14/58 28/16/126 20/13/94 4/11/18
f 12/14/60 34/24/152 28/16/128
f 13/21/64 35/25/154 14/20/69
f 14/14/68 30/16/134 22/13/102 6/11/28
f 14/14/70 35/24/156 30/16/136
f 15/21/74 36/25/158 16/20/79
f 16/14/78 32/16/142 24/13/110 8/11/38
f 16/14/80 36/24/160 32/16/144
f 17/17/83 37/3/162 18/18/87
f 18/18/85 26/22/117 25/23/113 17/17/81
f 18/13/88 37/1/163 2/11/10
f 19/17/91 38/3/166 20/18/95
f 20/18/93 28/22/125 27/23/121 19/17/89
f 20/13/96 38/1/167 4/11/20
f 21/17/99 39/3/170 22/18/103
f 22/18/101 30/22/133 29/23/129 21/17/97
f 22/13/104 39/1/171 6/11/30
f 23/17/107 40/3/174 24/18/111
f 24/18/109 32/22/141 31/23/137 23/17/105
f 24/13/112 40/1/175 8/11/40
f 25/16/116 33/24/147 9/14/45
f 26/22/119 33/26/145 25/23/115
f 27/16/124 34/24/151 11/14/55
f 28/22/127 34/26/149 27/23/123
f 29/16/132 35/24/155 13/14/65
f 30/22/135 35/26/153 29/23/131
f 31/16/140 36/24/159 15/14/75
f 32/22/143 36/26/157 31/23/139
