# Exported from Wings 3D 1.0.1
mtllib barrel1.mtl
o Cylinder01
#45 vertices, 47 faces
v 0.50099999 8.29283047 -9.9994359e-4
v 0.25099999 8.29283047 -0.43401265
v -0.24900003 8.29283047 -0.43401262
v -0.49900001 8.29283047 -9.9989981e-4
v -0.24899995 8.29283047 0.43201280
v 0.25100005 8.29283047 0.43201274
v 0.21376660 11.13847256 -9.9987187e-4
v 0.10738331 11.13847256 -0.18526115
v -0.10538330 11.13847256 -0.18526113
v -0.21176659 11.13847256 -9.9985336e-4
v -0.10538326 11.13847256 0.18326142
v 0.10738334 11.13847256 0.18326139
v 0.38196436 11.44409466 -9.9988899e-4
v 0.19148219 11.44409466 -0.33092469
v -0.18948221 11.44409466 -0.33092469
v -0.37996438 11.44409466 -9.9985569e-4
v -0.18948215 11.44409466 0.32892495
v 0.19148225 11.44409466 0.32892492
v 0.38196436 12.44409466 -9.9988899e-4
v 0.19148219 12.44409466 -0.33092469
v -0.18948221 12.44409466 -0.33092472
v -0.37996438 12.44409466 -9.9985569e-4
v -0.18948215 12.44409466 0.32892492
v 0.19148225 12.44409466 0.32892492
v 0.83657378 11.44409466 -0.26346871
v 0.64609152 11.44409466 -0.59339356
v -0.64409167 11.44409466 -0.59339350
v -0.83457381 11.44409466 -0.26346859
v -0.18948214 11.44409466 0.85386264
v 0.19148226 11.44409466 0.85386258
v 0.83657378 12.44409466 -0.26346871
v 0.64609152 12.44409466 -0.59339356
v -0.64409167 12.44409466 -0.59339350
v -0.83457381 12.44409466 -0.26346859
v -0.18948214 12.44409466 0.85386258
v 0.19148226 12.44409466 0.85386258
v 0.51402795 14.52944469 -0.29719669
v -0.51202804 14.52944469 -0.29719669
v 1.0000532e-3 14.52944469 0.59139377
v 0.50099999 6.94689274 -9.9995872e-4
v 0.25099999 6.94689274 -0.43401268
v -0.24900003 6.94689274 -0.43401265
v -0.49900001 6.94689274 -9.9991495e-4
v -0.24899995 6.94689274 0.43201277
v 0.25100005 6.94689274 0.43201271
vt 2.0101182e-2 0.90073150
vt 2.0101182e-2 0.98041272
vt 0.22269394 0.62094378
vt 0.23207672 0.65231413
vt 0.23207672 0.72016257
vt 0.23511091 0.90073150
vt 0.23511091 0.98041272
vt 0.28777200 0.65266687
vt 0.28777200 0.72051638
vt 0.28777200 0.76991081
vt 0.43320918 0.65351921
vt 0.43320918 0.71957952
vt 0.43320918 0.76991081
vt 0.64920902 0.58919203
vt 0.64920902 0.65957856
vt 0.69046521 0.92380488
vt 0.69046521 0.95450085
vt 0.73404169 0.69020164
vt 0.73851627 0.91084254
vt 0.73851627 0.96652186
vt 0.78075582 0.29548824
vt 0.80566567 0.29508817
vt 0.83147562 0.20763901
vt 0.83147562 0.38333744
vt 0.84431052 0.36202300
vt 0.84431058 0.22815348
vt 0.85081816 0.58907533
vt 0.85081816 0.66127944
vt 0.92160016 0.22815348
vt 0.92160016 0.36202300
vt 0.93291497 0.20763901
vt 0.93291497 0.38333726
vt 0.96024495 0.29508817
vt 0.98363471 0.29548824
vn 0.99873369 5.0309159e-2 -3.6051030e-8
vn 0.49936682 5.0309182e-2 -0.86492876
vn -0.49936689 5.0309184e-2 -0.86492872
vn -0.99873369 5.0309167e-2 8.0857042e-8
vn -0.49936675 5.0309146e-2 0.86492881
vn 0.49936694 5.0309142e-2 0.86492870
vn 0.97891427 -0.20427154 -5.2897663e-8
vn 0.48945712 -0.20427155 -0.84776463
vn -0.48945717 -0.20427157 -0.84776460
vn -0.97891426 -0.20427158 8.0316608e-8
vn -0.48945703 -0.20427156 0.84776467
vn 0.48945723 -0.20427155 0.84776456
vn 0.78549421 -0.49884590 0.36626714
vn 7.5550389e-2 -0.49884592 -0.86339150
vn -7.5550428e-2 -0.49884593 -0.86339149
vn -0.78549411 -0.49884594 0.36626729
vn -0.70994373 -0.49884591 0.49712439
vn 0.70994384 -0.49884589 0.49712425
vn 0.31914158 0.38620827 0.86544313
vn -0.58992498 0.38620826 -0.70910627
vn 0.58992487 0.38620826 -0.70910636
vn -0.31914143 0.38620827 0.86544319
vn -0.90906654 0.38620828 -0.15633678
vn 0.90906653 0.38620826 -0.15633689
vn 0.78867511 -0.57735031 0.21132484
vn 0.21132478 -0.57735026 -0.78867516
vn -0.21132501 -0.57735029 -0.78867508
vn -0.78867509 -0.57735027 0.21132504
vn -0.57735024 -0.57735027 0.57735030
vn 0.57735031 -0.57735025 0.57735025
vn 0.96287009 7.6317646e-2 0.25895329
vn 0.25717479 7.6317644e-2 -0.96334664
vn -0.25717508 7.6317633e-2 -0.96334656
vn -0.96287003 7.6317637e-2 0.25895353
vn -0.70569517 7.6317645e-2 0.70439332
vn 0.70569522 7.6317644e-2 0.70439327
vn -4.9741575e-7 1.00000000 -7.0337692e-8
vn -5.6126815e-8 1.00000000 3.1141753e-7
vn -1.8665812e-10 1.00000000 4.0697190e-9
vn 0.86602541 -0.49999999 -2.6455316e-8
vn 0.43301269 -0.50000000 -0.75000001
vn -0.43301275 -0.49999999 -0.74999998
vn -0.86602540 -0.50000001 7.3320974e-8
vn -0.43301261 -0.50000001 0.75000005
vn 0.43301277 -0.50000001 0.74999995
g Cylinder01_01 - Default
usemtl 01 - Default
f 1/6/1 7/16/7 12/17/12 6/7/6
f 1/6/1 40/1/40 41/2/41 2/7/2
f 2/7/2 8/17/8 7/16/7 1/6/1
f 2/7/2 41/2/41 42/1/42 3/6/3
f 3/6/3 9/16/9 8/17/8 2/7/2
f 3/7/3 42/2/42 43/1/43 4/6/4
f 4/6/4 10/16/10 9/17/9 3/7/3
f 4/6/4 43/1/43 44/2/44 5/7/5
f 5/7/5 11/17/11 10/16/10 4/6/4
f 5/7/5 44/2/44 45/1/45 6/6/6
f 6/6/6 12/16/12 11/17/11 5/7/5
f 6/7/6 45/2/45 40/1/40 1/6/1
f 7/16/7 13/19/13 18/20/18 12/17/12
f 8/17/8 14/20/14 13/19/13 7/16/7
f 9/16/9 15/19/15 14/20/14 8/17/8
f 10/16/10 16/19/16 15/20/15 9/17/9
f 11/17/11 17/20/17 16/19/16 10/16/10
f 12/16/12 18/19/18 17/20/17 11/17/11
f 13/9/13 19/12/19 24/13/24 18/10/18
f 13/9/13 25/8/25 31/11/31 19/12/19
f 14/5/14 26/4/26 25/8/25 13/9/13
f 15/9/15 21/12/21 20/13/20 14/10/14
f 15/9/15 27/8/27 33/11/33 21/12/21
f 16/5/16 28/4/28 27/8/27 15/9/15
f 17/10/17 23/13/23 22/12/22 16/9/16
f 17/9/17 29/8/29 35/11/35 23/12/23
f 18/5/18 30/4/30 29/8/29 17/9/17
f 19/14/19 37/3/37 20/15/20
f 20/26/20 21/29/21 22/33/22 23/30/23 24/25/24 19/22/19
f 20/12/20 32/11/32 26/8/26 14/9/14
f 20/12/20 37/18/37 32/11/32
f 21/14/21 38/3/38 22/15/22
f 22/12/22 34/11/34 28/8/28 16/9/16
f 22/12/22 38/18/38 34/11/34
f 23/14/23 39/3/39 24/15/24
f 24/12/24 36/11/36 30/8/30 18/9/18
f 24/12/24 39/18/39 36/11/36
f 26/27/26 32/14/32 31/15/31 25/28/25
f 28/27/28 34/14/34 33/15/33 27/28/27
f 30/27/30 36/14/36 35/15/35 29/28/29
f 31/11/31 37/18/37 19/12/19
f 32/14/32 37/3/37 31/15/31
f 33/11/33 38/18/38 21/12/21
f 34/14/34 38/3/38 33/15/33
f 35/11/35 39/18/39 23/12/23
f 36/14/36 39/3/39 35/15/35
f 40/21/40 45/23/45 44/31/44 43/34/43 42/32/42 41/24/41
