# Exported from Wings 3D 1.0.1
mtllib base.mtl
o Cylinder01_sep4
#138 vertices, 146 faces
v 2.00099993 1.0000000e-3 -1.0000000e-3
v 1.00099993 1.0000000e-3 -1.73305094
v -0.99900013 1.0000000e-3 -1.73305082
v -1.99899995 1.0000000e-3 -9.9982519e-4
v -0.99899983 1.0000000e-3 1.73105085
v 1.00100029 1.0000000e-3 1.73105061
v 2.00099993 0.50099999 -1.0000000e-3
v 1.00099993 0.50099999 -1.73305094
v -0.99900013 0.50099999 -1.73305082
v -1.99899995 0.50099999 -9.9982519e-4
v -0.99899983 0.50099999 1.73105085
v 1.00100029 0.50099999 1.73105061
v 0.95114309 1.00100005 -1.0000000e-3
v 0.47607148 1.00100005 -0.82384801
v -0.47407156 1.00100005 -0.82384795
v -0.94914287 1.00100005 -9.9991693e-4
v -0.47407138 1.00100005 0.82184803
v 0.47607160 1.00100005 0.82184792
v 2.86702538 1.0000000e-3 -0.50099999
v 1.86702538 1.0000000e-3 -2.23305082
v -1.86502552 1.0000000e-3 -2.23305058
v -2.86502552 1.0000000e-3 -0.50099975
v -0.99899971 1.0000000e-3 2.73105097
v 1.00100040 1.0000000e-3 2.73105073
v 2.86702538 0.50099999 -0.50099999
v 1.86702538 0.50099999 -2.23305082
v -1.86502552 0.50099999 -2.23305058
v -2.86502552 0.50099999 -0.50099975
v -0.99899971 0.50099999 2.73105097
v 1.00100040 0.50099999 2.73105073
v 2.25726175 1.0000000e-3 0.39262208
v 0.78824407 1.0000000e-3 -2.15179110
v -0.78624439 1.0000000e-3 -2.15179110
v -2.25526190 1.0000000e-3 0.39262235
v -1.46801746 1.0000000e-3 1.75616908
v 1.47001791 1.0000000e-3 1.75616884
v 2.25726175 0.50099999 0.39262202
v 0.78824407 0.50099999 -2.15179110
v -0.78624439 0.50099999 -2.15179110
v -2.25526190 0.50099999 0.39262235
v -1.46801746 0.50099999 1.75616908
v 1.47001791 0.50099999 1.75616884
v 3.18211198 1.0000000e-3 0.85137630
v 0.85337627 1.0000000e-3 -3.18211198
v -0.85137665 1.0000000e-3 -3.18211198
v -3.18011236 1.0000000e-3 0.85137683
v -2.32773542 1.0000000e-3 2.32773566
v 2.32973576 1.0000000e-3 2.32773566
v 3.18211198 0.50099999 0.85137630
v 0.85337627 0.50099999 -3.18211198
v -0.85137665 0.50099999 -3.18211198
v -3.18011236 0.50099999 0.85137683
v -2.32773542 0.50099999 2.32773566
v 2.32973576 0.50099999 2.32773566
v 4.09063244 1.0000000e-3 1.33313358
v 0.89042240 1.0000000e-3 -4.20979261
v -0.88842279 1.0000000e-3 -4.20979261
v -4.08863306 1.0000000e-3 1.33313441
v -3.19920945 1.0000000e-3 2.87365937
v 3.20121050 1.0000000e-3 2.87365890
v 4.09063244 0.50099999 1.33313358
v 0.89042240 0.50099999 -4.20979261
v -0.88842279 0.50099999 -4.20979261
v -4.08863306 0.50099999 1.33313441
v -3.19920945 0.50099999 2.87365937
v 3.20121050 0.50099999 2.87365890
v 0.95114309 2.00099993 -1.0000000e-3
v 0.47607148 2.00099993 -0.82384801
v -0.47407156 2.00099993 -0.82384795
v -0.94914287 2.00099993 -9.9991693e-4
v -0.47407138 2.00099993 0.82184803
v 0.47607160 2.00099993 0.82184792
v 0.54219258 5.00099993 -9.9999155e-4
v 0.27159625 5.00099993 -0.46968645
v -0.26959625 5.00099993 -0.46968642
v -0.54019243 5.00099993 -9.9994417e-4
v -0.26959616 5.00099993 0.46768650
v 0.27159631 5.00099993 0.46768644
v 1.16256452 6.00099993 -1.0000039e-3
v 0.58178216 6.00099993 -1.00694442
v -0.57978225 6.00099993 -1.00694430
v -1.16056418 6.00099993 -9.9990226e-4
v -0.57978207 6.00099993 1.00494432
v 0.58178234 6.00099993 1.00494409
v 3.18211198 1.50100005 0.85137630
v 0.85337627 1.50100005 -3.18211198
v -0.85137665 1.50100005 -3.18211198
v -3.18011236 1.50100005 0.85137683
v -2.32773542 1.50100005 2.32773566
v 2.32973576 1.50100005 2.32773566
v 4.09063244 1.50100005 1.33313358
v 0.89042240 1.50100005 -4.20979261
v -0.88842279 1.50100005 -4.20979261
v -4.08863306 1.50100005 1.33313441
v -3.19920945 1.50100005 2.87365937
v 3.20121050 1.50100005 2.87365890
v 2.07420492 1.01357770 -0.27420509
v 1.27420497 1.01357770 -1.65984583
v -1.27220511 1.01357770 -1.65984559
v -2.07220507 1.01357770 -0.27420491
v -0.79899973 1.01357770 1.93105102
v 0.80100018 1.01357770 1.93105066
v 2.59382010 1.01357770 -0.57420504
v 1.79382038 1.01357770 -1.95984578
v -1.79182029 1.01357770 -1.95984554
v -2.59182024 1.01357770 -0.57420486
v -0.79899973 1.01357770 2.53105140
v 0.80100030 1.01357770 2.53105116
v 3.65058899 0.50099999 -3.2099437e-2
v 1.85272729 0.50099999 -3.14608717
v -1.85072744 0.50099999 -3.14608717
v -3.64858937 0.50099999 -3.2098841e-2
v -1.79686081 0.50099999 3.17518616
v 1.79886210 0.50099999 3.17518663
v 4.55910921 0.50099999 0.44965792
v 1.88977337 0.50099999 -4.17376757
v -1.88777363 0.50099999 -4.17376757
v -4.55711031 0.50099999 0.44965881
v -2.66833496 0.50099999 3.72110987
v 2.67033672 0.50099999 3.72110987
v 3.65058899 1.50100005 -3.2099437e-2
v 1.85272729 1.50100005 -3.14608717
v -1.85072744 1.50100005 -3.14608717
v -3.64858937 1.50100005 -3.2098841e-2
v -1.79686081 1.50100005 3.17518616
v 1.79886210 1.50100005 3.17518663
v 4.55910921 1.50100005 0.44965792
v 1.88977337 1.50100005 -4.17376757
v -1.88777363 1.50100005 -4.17376757
v -4.55711031 1.50100005 0.44965881
v -2.66833496 1.50100005 3.72110987
v 2.67033672 1.50100005 3.72110987
v 2.60942411 3.50099993 0.43817416
v 0.92487603 3.50099993 -2.47954893
v -0.92287624 3.50099993 -2.47954893
v -2.60742474 3.50099993 0.43817466
v -1.68354785 3.50099993 2.03837466
v 1.68554854 3.50099993 2.03837466
vt 1.4301019e-2 9.9115223e-3
vt 1.4301019e-2 0.10631280
vt 1.5060823e-2 0.84846431
vt 1.5571687e-2 0.88834542
vt 3.0322324e-2 0.80840772
vt 3.0856101e-2 0.76498187
vt 6.2501580e-2 9.9115223e-3
vt 6.2501580e-2 0.10631265
vt 0.11191459 2.9191626e-2
vt 0.11191459 8.7032542e-2
vt 0.15048876 0.76498204
vt 0.15109476 0.80840772
vt 0.16483989 0.84846431
vt 0.16605720 0.88834542
vt 0.17584093 0.75890887
vt 0.17597194 0.89290690
vt 0.28858769 0.84901220
vt 0.28979874 0.79114598
vt 0.47216460 6.2597938e-2
vt 0.55772603 0.14846544
vt 0.57381546 0.12059768
vt 0.57381546 0.17633314
vt 0.59039402 0.27386877
vt 0.60164285 0.25438523
vt 0.60188442 0.27996174
vt 0.60586941 0.29706568
vt 0.60599440 0.12059768
vt 0.60599440 0.17633314
vt 0.61266470 0.26128972
vt 0.61358130 0.28576374
vt 0.61682236 0.29074201
vt 0.61851674 0.31897151
vt 0.62208390 0.14846544
vt 0.62353784 0.26851854
vt 0.62946963 0.25618887
vt 0.62946963 0.26883617
vt 0.62946963 0.31264785
vt 0.63086820 0.34397203
vt 0.63133669 0.33097458
vt 0.63216043 0.31794381
vt 0.64159858 0.77451402
vt 0.64183986 0.88065892
vt 0.65207356 0.31794381
vt 0.65289730 0.33097458
vt 0.65336585 0.34397203
vt 0.65476435 0.25618887
vt 0.65476435 0.26883617
vt 0.65476435 0.31264785
vt 0.65728790 0.10005778
vt 0.65760338 1.8242899e-2
vt 0.65820831 0.24033467
vt 0.66069615 0.26851854
vt 0.66571724 0.31897151
vt 0.66741168 0.29074201
vt 0.67065269 0.28576374
vt 0.67156929 0.26128972
vt 0.67443734 0.32976997
vt 0.67502886 0.33149496
vt 0.67584670 0.33423141
vt 0.67698777 0.32718840
vt 0.67763954 0.33822089
vt 0.67812502 0.32475412
vt 0.67836457 0.29706568
vt 0.67887044 0.32188940
vt 0.67935586 0.33535612
vt 0.68159109 0.34118977
vt 0.68215966 0.32232612
vt 0.68218267 0.32007509
vt 0.68234956 0.27996171
vt 0.68259114 0.25438523
vt 0.68330073 0.33909371
vt 0.68618089 0.32241336
vt 0.68677247 0.33885154
vt 0.68808949 0.34072331
vt 0.68923056 0.32069647
vt 0.69148809 0.33872008
vt 0.69197351 0.32525334
vt 0.69271898 0.32139015
vt 0.69320440 0.33485696
vt 0.69333470 0.33383319
vt 0.69383997 0.27386877
vt 0.69392622 0.32743171
vt 0.69440246 0.32881805
vt 0.69554353 0.33260176
vt 0.70746440 0.47014368
vt 0.70746440 0.54515314
vt 0.71436536 0.29862839
vt 0.71447599 0.36850518
vt 0.71459019 0.26422936
vt 0.71532953 0.45275849
vt 0.75177634 0.26422948
vt 0.75194681 0.45275885
vt 0.75194716 0.36850530
vt 0.75233400 0.10147830
vt 0.75233400 0.24033432
vt 0.75354463 1.8242640e-2
vt 0.75356090 0.29862851
vt 0.75773466 0.87993383
vt 0.75773537 0.77451503
vt 0.78443372 0.89708030
vt 0.78483140 0.46915734
vt 0.78483140 0.54598421
vt 0.80081868 0.10054635
vt 0.80081975 0.23968215
vt 0.80187780 0.75013149
vt 0.80800861 0.85181642
vt 0.83675081 0.98649150
vt 0.87574679 0.47353917
vt 0.87599498 0.65673721
vt 0.93160874 0.98605138
vt 0.93344408 0.39692301
vt 0.96337050 0.85045141
vt 0.97009355 0.74880356
vt 0.98103982 0.47346020
vt 0.98130935 0.65683770
vt 0.98314404 0.89618742
vn 0.40541212 -0.90896391 9.7085622e-2
vn 0.11862745 -0.90896388 -0.39964009
vn -0.11862752 -0.90896390 -0.39964002
vn -0.40541209 -0.90896393 9.7085625e-2
vn -0.28678467 -0.90896390 0.30255443
vn 0.28678468 -0.90896392 0.30255436
vn 0.43173916 0.82013093 0.37548176
vn -0.10930715 0.82013088 -0.56163804
vn 0.10930710 0.82013092 -0.56163799
vn -0.43173909 0.82013095 0.37548180
vn -0.54104631 0.82013093 0.18615626
vn 0.54104628 0.82013097 0.18615615
vn 0.82585681 0.56387988 -2.8563144e-8
vn 0.41292837 0.56387989 -0.71521300
vn -0.41292849 0.56387991 -0.71521291
vn -0.82585682 0.56387988 8.6619538e-8
vn -0.41292835 0.56387989 0.71521301
vn 0.41292846 0.56387986 0.71521297
vn 0.78867513 -0.57735027 0.21132488
vn 0.21132492 -0.57735025 -0.78867514
vn -0.21132495 -0.57735023 -0.78867514
vn -0.78867510 -0.57735030 0.21132492
vn -0.57735020 -0.57735027 0.57735034
vn 0.57735034 -0.57735027 0.57735020
vn 0.93343546 0.25718006 0.25011331
vn 0.25011336 0.25718002 -0.93343545
vn -0.25011334 0.25718005 -0.93343545
vn -0.93343543 0.25718012 0.25011335
vn -0.68332211 0.25717979 0.68332236
vn 0.68332226 0.25717982 0.68332220
vn 0.46148076 -0.71970656 -0.51870799
vn 0.67995466 -0.71970655 -0.14030018
vn -0.67995470 -0.71970654 -0.14030005
vn -0.46148078 -0.71970654 -0.51870800
vn 0.21847390 -0.71970654 0.65900808
vn -0.21847398 -0.71970655 0.65900804
vn 0.46148078 0.71970653 -0.51870802
vn 0.67995466 0.71970655 -0.14030018
vn -0.67995470 0.71970654 -0.14030005
vn -0.46148078 0.71970654 -0.51870800
vn 0.21847390 0.71970654 0.65900808
vn -0.21847398 0.71970655 0.65900804
vn 0.32275378 -0.70713924 -0.62911373
vn 0.70620537 -0.70713924 3.5043846e-2
vn -0.70620537 -0.70713924 3.5043866e-2
vn -0.32275386 -0.70713924 -0.62911370
vn 0.38345174 -0.70713923 0.59406975
vn -0.38345159 -0.70713924 0.59406985
vn -0.29127992 -1.8589846e-8 -0.95663787
vn 0.68283280 0.0000000e+0 0.73057468
vn -0.68283279 0.0000000e+0 0.73057470
vn 0.29127972 1.9326046e-17 -0.95663793
vn 0.97411274 0.0000000e+0 0.22606276
vn -0.97411262 0.0000000e+0 0.22606326
vn 0.77989746 -0.58441063 -0.22410749
vn 0.58403135 -0.58441070 -0.56335736
vn -0.58403135 -0.58441070 -0.56335736
vn -0.77989747 -0.58441079 -0.22410704
vn -0.19586564 -0.58441072 0.78746477
vn 0.19586630 -0.58441075 0.78746458
vn 0.93612513 -0.30354214 0.17757229
vn 0.31428024 -0.30354215 -0.89949435
vn -0.31428024 -0.30354215 -0.89949435
vn -0.93612499 -0.30354219 0.17757294
vn -0.62184445 -0.30354216 0.72192218
vn 0.62184508 -0.30354217 0.72192163
vn 0.99770121 6.7766444e-2 -3.1176928e-8
vn 0.49885054 6.7766444e-2 -0.86403463
vn -0.49885072 6.7766446e-2 -0.86403453
vn -0.99770121 6.7766436e-2 9.9214538e-8
vn -0.49885055 6.7766440e-2 0.86403463
vn 0.49885065 6.7766437e-2 0.86403457
vn 0.97677189 -0.21428178 -1.9509970e-8
vn 0.48838588 -0.21428179 -0.84590930
vn -0.48838606 -0.21428178 -0.84590920
vn -0.97677190 -0.21428173 9.6089326e-8
vn -0.48838589 -0.21428174 0.84590931
vn 0.48838599 -0.21428174 0.84590925
vn 0.99938709 3.5006232e-2 -5.5716431e-9
vn 0.49969348 3.5006187e-2 -0.86549465
vn -0.49969369 3.5006221e-2 -0.86549453
vn -0.99938709 3.5006292e-2 1.0086104e-7
vn -0.49969348 3.5006321e-2 0.86549465
vn 0.49969359 3.5006286e-2 0.86549459
vn -0.95986979 0.22591548 -0.16616913
vn -0.33602812 0.22591552 0.91435621
vn 0.33602813 0.22591550 0.91435621
vn 0.95986975 0.22591551 -0.16616932
vn 0.62384113 0.22591558 -0.74818741
vn -0.62384179 0.22591550 -0.74818688
vn 0.57346493 0.50052714 0.64854495
vn -0.27492404 0.50052714 -0.82090764
vn 0.27492404 0.50052712 -0.82090765
vn -0.57346458 0.50052711 0.64854529
vn -0.84838877 0.50052719 0.17236307
vn 0.84838897 0.50052710 0.17236234
vn -0.15698180 0.79505990 0.58586387
vn -0.58586387 0.79505990 -0.15698180
vn 0.58586390 0.79505988 -0.15698181
vn 0.15698183 0.79505989 0.58586387
vn -0.42888215 0.79505994 -0.42888203
vn 0.42888199 0.79505998 -0.42888212
vn 0.58586384 0.79505993 0.15698177
vn 0.15698181 0.79505991 -0.58586385
vn -0.15698176 0.79505993 -0.58586384
vn -0.58586377 0.79505998 0.15698178
vn -0.42888214 0.79505977 0.42888236
vn 0.42888222 0.79505978 0.42888225
vn -0.23959957 -0.57735029 -0.78055025
vn 0.55617657 -0.57735026 0.59777446
vn -0.55617654 -0.57735024 0.59777450
vn 0.23959960 -0.57735027 -0.78055026
vn 0.79577625 -0.57735030 0.18277522
vn -0.79577616 -0.57735022 0.18277591
vn 0.78055027 -0.57735022 -0.23959966
vn 0.59777454 -0.57735023 -0.55617651
vn -0.59777456 -0.57735025 -0.55617647
vn -0.78055025 -0.57735032 -0.23959949
vn -0.18277527 -0.57735025 0.79577628
vn 0.18277586 -0.57735030 0.79577611
vn -0.30137654 2.9858844e-2 -0.95303758
vn 0.67466649 2.9858869e-2 0.73751853
vn -0.67466645 2.9858846e-2 0.73751857
vn 0.30137655 2.9858839e-2 -0.95303758
vn 0.97604318 2.9858773e-2 0.21551836
vn -0.97604300 2.9858872e-2 0.21551916
vn 0.87218004 0.37964950 -0.30849348
vn 0.70325324 0.37964950 -0.60108331
vn -0.70325328 0.37964950 -0.60108326
vn -0.87218006 0.37964957 -0.30849334
vn -0.16892626 0.37964946 0.90957694
vn 0.16892694 0.37964957 0.90957676
vn -0.25469003 0.96693698 -1.2878917e-2
vn -0.11619144 0.96693696 0.22700764
vn 0.11619144 0.96693692 0.22700780
vn 0.25469045 0.96693687 -1.2878778e-2
vn 0.13849837 0.96693694 -0.21412883
vn -0.13849878 0.96693690 -0.21412873
g Cylinder01_sep4_01 - Default
usemtl 01 - Default
f 1/31/1 6/36/6 5/47/5 4/54/4 3/48/3 2/37/2
f 1/2/1 19/1/19 25/7/25 7/8/7
f 1/31/1 31/30/31 36/34/36 6/36/6
f 2/37/2 20/32/20 19/26/19 1/31/1
f 2/89/2 32/87/32 38/97/38 8/91/8
f 3/2/3 21/1/21 27/7/27 9/8/9
f 3/48/3 33/43/33 32/40/32 2/37/2
f 4/54/4 22/63/22 21/53/21 3/48/3
f 4/89/4 34/91/34 40/97/40 10/87/10
f 5/2/5 23/1/23 29/7/29 11/8/11
f 5/47/5 35/52/35 34/55/34 4/54/4
f 6/36/6 24/35/24 23/46/23 5/47/5
f 6/89/6 36/87/36 42/97/42 12/91/12
f 7/116/7 13/110/13 18/107/18 12/100/12
f 7/97/7 37/87/37 31/89/31 1/91/1
f 7/3/7 97/5/97 98/12/98 8/13/8
f 8/116/8 14/110/14 13/107/13 7/100/7
f 8/7/8 26/8/26 20/2/20 2/1/2
f 8/100/8 38/106/38 39/112/39 9/116/9
f 8/7/8 98/9/98 104/10/104 26/8/26
f 9/116/9 15/110/15 14/107/14 8/100/8
f 9/91/9 39/97/39 33/87/33 3/89/3
f 9/3/9 99/5/99 100/12/100 10/13/10
f 10/100/10 16/107/16 15/110/15 9/116/9
f 10/7/10 28/8/28 22/2/22 4/1/4
f 10/116/10 40/112/40 41/106/41 11/100/11
f 10/7/10 100/9/100 106/10/106 28/8/28
f 11/100/11 17/107/17 16/110/16 10/116/10
f 11/91/11 41/97/41 35/87/35 5/89/5
f 11/3/11 101/5/101 102/12/102 12/13/12
f 12/116/12 18/110/18 17/107/17 11/100/11
f 12/7/12 30/8/30 24/2/24 6/1/6
f 12/100/12 42/106/42 37/112/37 7/116/7
f 12/7/12 102/9/102 108/10/108 30/8/30
f 13/98/13 67/42/67 72/41/72 18/99/18
f 14/98/14 68/42/68 67/41/67 13/99/13
f 15/98/15 69/42/69 68/41/68 14/99/14
f 16/98/16 70/42/70 69/41/69 15/99/15
f 17/98/17 71/42/71 70/41/70 16/99/16
f 18/98/18 72/42/72 71/41/71 17/99/17
f 20/4/20 26/3/26 25/13/25 19/14/19
f 22/4/22 28/3/28 27/13/27 21/14/21
f 24/4/24 30/3/30 29/13/29 23/14/23
f 25/7/25 103/9/103 97/10/97 7/8/7
f 26/3/26 104/5/104 103/12/103 25/13/25
f 27/7/27 105/9/105 99/10/99 9/8/9
f 28/3/28 106/5/106 105/12/105 27/13/27
f 29/7/29 107/9/107 101/10/101 11/8/11
f 30/3/30 108/5/108 107/12/107 29/13/29
f 31/30/31 43/25/43 48/29/48 36/34/36
f 32/87/32 44/88/44 50/93/50 38/97/38
f 33/43/33 45/44/45 44/39/44 32/40/32
f 34/90/34 46/88/46 52/93/52 40/92/40
f 35/52/35 47/56/47 46/69/46 34/55/34
f 36/87/36 48/88/48 54/93/54 42/97/42
f 37/97/37 49/93/49 43/88/43 31/87/31
f 38/106/38 50/105/50 51/113/51 39/112/39
f 39/97/39 51/93/51 45/88/45 33/87/33
f 40/112/40 52/113/52 53/105/53 41/106/41
f 41/97/41 53/93/53 47/88/47 35/87/35
f 42/106/42 54/105/54 49/113/49 37/112/37
f 43/25/43 55/23/55 60/24/60 48/29/48
f 44/88/44 56/90/56 62/92/62 50/93/50
f 45/44/45 57/45/57 56/38/56 44/39/44
f 46/88/46 58/87/58 64/97/64 52/93/52
f 47/56/47 59/70/59 58/81/58 46/69/46
f 48/88/48 60/90/60 66/92/66 54/93/54
f 49/93/49 61/92/61 55/90/55 43/88/43
f 49/83/49 109/74/109 115/59/115 61/67/61
f 50/94/50 86/49/86 87/51/87 51/95/51
f 50/94/50 110/96/110 122/50/122 86/49/86
f 51/93/51 63/92/63 57/90/57 45/88/45
f 51/78/51 111/79/111 117/65/117 63/64/63
f 52/94/52 88/49/88 89/51/89 53/95/53
f 52/94/52 112/96/112 124/50/124 88/49/88
f 53/93/53 65/92/65 59/90/59 47/88/47
f 53/66/53 113/57/113 119/72/119 65/80/65
f 54/94/54 90/49/90 85/51/85 49/95/49
f 54/94/54 114/96/114 126/50/126 90/49/90
f 55/103/55 61/94/61 66/95/66 60/104/60
f 57/103/57 63/94/63 62/95/62 56/104/56
f 59/103/59 65/94/65 64/95/64 58/104/58
f 61/94/61 91/49/91 96/51/96 66/95/66
f 61/94/61 115/96/115 127/50/127 91/49/91
f 62/61/62 116/62/116 110/77/110 50/76/50
f 63/94/63 93/49/93 92/51/92 62/95/62
f 63/94/63 117/96/117 129/50/129 93/49/93
f 64/75/64 118/84/118 112/71/112 52/60/52
f 65/94/65 95/49/95 94/51/94 64/95/64
f 65/94/65 119/96/119 131/50/131 95/49/95
f 66/58/66 120/68/120 114/82/114 54/73/54
f 67/42/67 73/17/73 78/18/78 72/41/72
f 68/42/68 74/17/74 73/18/73 67/41/67
f 69/42/69 75/17/75 74/18/74 68/41/68
f 70/42/70 76/17/76 75/18/75 69/41/69
f 71/42/71 77/17/77 76/18/76 70/41/70
f 72/42/72 78/17/78 77/18/77 71/41/71
f 73/17/73 79/16/79 84/15/84 78/18/78
f 74/17/74 80/16/80 79/15/79 73/18/73
f 75/17/75 81/16/81 80/15/80 74/18/74
f 76/17/76 82/16/82 81/15/81 75/18/75
f 77/17/77 83/16/83 82/15/82 76/18/76
f 78/17/78 84/16/84 83/15/83 77/18/77
f 80/21/80 81/27/81 82/33/82 83/28/83 84/22/84 79/20/79
f 85/50/85 121/49/121 109/94/109 49/96/49
f 85/50/85 133/19/133 121/49/121
f 86/108/86 92/114/92 93/115/93 87/109/87
f 86/101/86 134/111/134 92/102/92
f 87/50/87 123/49/123 111/94/111 51/96/51
f 87/50/87 135/19/135 123/49/123
f 88/115/88 94/109/94 95/108/95 89/114/89
f 88/101/88 136/111/136 94/102/94
f 89/50/89 125/49/125 113/94/113 53/96/53
f 89/50/89 137/19/137 125/49/125
f 90/108/90 96/114/96 91/115/91 85/109/85
f 90/101/90 138/111/138 96/102/96
f 91/102/91 133/111/133 85/101/85
f 92/50/92 128/49/128 116/94/116 62/96/62
f 92/50/92 134/19/134 128/49/128
f 93/102/93 135/111/135 87/101/87
f 94/50/94 130/49/130 118/94/118 64/96/64
f 94/50/94 136/19/136 130/49/130
f 95/102/95 137/111/137 89/101/89
f 96/50/96 132/49/132 120/94/120 66/96/66
f 96/50/96 138/19/138 132/49/132
f 97/11/97 103/12/103 104/5/104 98/6/98
f 99/11/99 105/12/105 106/5/106 100/6/100
f 101/11/101 107/12/107 108/5/108 102/6/102
f 109/85/109 121/101/121 127/102/127 115/86/115
f 111/85/111 123/101/123 129/102/129 117/86/117
f 113/85/113 125/101/125 131/102/131 119/86/119
f 116/86/116 128/102/128 122/101/122 110/85/110
f 118/86/118 130/102/130 124/101/124 112/85/112
f 120/86/120 132/102/132 126/101/126 114/85/114
f 121/101/121 133/111/133 127/102/127
f 122/50/122 134/19/134 86/49/86
f 123/101/123 135/111/135 129/102/129
f 124/50/124 136/19/136 88/49/88
f 125/101/125 137/111/137 131/102/131
f 126/50/126 138/19/138 90/49/90
f 127/50/127 133/19/133 91/49/91
f 128/102/128 134/111/134 122/101/122
f 129/50/129 135/19/135 93/49/93
f 130/102/130 136/111/136 124/101/124
f 131/50/131 137/19/137 95/49/95
f 132/102/132 138/111/138 126/101/126
