# Exported from Wings 3D 0.99.04a
mtllib turret.mtl
o Cylinder01_sep5
#48 vertices, 64 faces
v 1.0000000e-3 3.00099993 -1.0000000e-3
v 0.43401268 3.00099993 -0.25099999
v 9.9997222e-4 3.00099993 -0.50099999
v -0.43201274 3.00099993 -0.25099996
v -0.43201268 3.00099993 0.24900003
v 1.0000537e-3 3.00099993 0.49900001
v 0.43401271 3.00099993 0.24899992
v 0.86702538 3.00099993 -0.50099999
v 9.9994440e-4 3.00099993 -1.00100005
v -0.86502546 3.00099993 -0.50099993
v -0.86502534 3.00099993 0.49900007
v 1.0001073e-3 3.00099993 0.99900001
v 0.86702543 3.00099993 0.49899986
v 0.86702538 4.00099993 -0.50099999
v 9.9994440e-4 4.00099993 -1.00100005
v -0.86502546 4.00099993 -0.50099993
v -0.86502534 4.00099993 0.49900007
v 1.0001073e-3 4.00099993 0.99900001
v 0.86702543 4.00099993 0.49899986
v 0.43401268 4.00099993 -0.25099999
v 9.9997222e-4 4.00099993 -0.50099999
v -0.43201274 4.00099993 -0.25099996
v -0.43201268 4.00099993 0.24900003
v 1.0000537e-3 4.00099993 0.49900001
v 0.43401271 4.00099993 0.24899992
v 1.0000000e-3 4.00099993 -1.0000000e-3
v 0.86702538 5.00099993 -0.50099999
v -0.86502546 5.00099993 -0.50099993
v -0.86502534 5.00099993 0.49900007
v 0.86702543 5.00099993 0.49899986
v 0.43401268 5.00099993 -0.25099999
v -0.43201274 5.00099993 -0.25099996
v -0.43201268 5.00099993 0.24900003
v 0.43401271 5.00099993 0.24899992
v 1.58208096 4.22516823 -0.27683169
v -1.58008099 4.22516823 -0.27683154
v -1.58008087 4.22516823 0.27483177
v 1.58208108 4.22516823 0.27483156
v 1.58208096 4.77683163 -0.27683169
v -1.58008099 4.77683163 -0.27683154
v -1.58008087 4.77683163 0.27483177
v 1.58208108 4.77683163 0.27483156
v 2.42112184 4.50099993 -4.20574999
v -2.41912270 4.50099993 -4.20574951
v 2.12197995 6.90028048 -2.50114155
v -2.11998010 6.90028048 -2.50114107
v 3.87642717 5.40839720 -3.32039285
v -3.87442708 5.40839720 -3.32039189
vt -9.8693483e-2 0.41254982
vt -9.8693483e-2 0.46504560
vt -7.5962178e-2 0.42567375
vt -7.5962178e-2 0.45192167
vt -5.3230874e-2 0.38630196
vt -5.3230874e-2 0.41254982
vt -5.3230874e-2 0.43879774
vt -5.3230874e-2 0.46504560
vt -5.3230874e-2 0.49129352
vt -3.0499568e-2 0.42567375
vt -3.0499568e-2 0.45192167
vt -7.7681467e-3 0.41254982
vt -7.7681467e-3 0.46504560
vt 8.0647226e-3 0.88720059
vt 9.7551737e-3 2.4615750e-2
vt 9.7566657e-3 0.30402312
vt 1.4344574e-2 0.86994493
vt 1.5519140e-2 0.76016361
vt 2.4489477e-2 0.74657327
vt 8.6132519e-2 0.87551993
vt 0.12331760 0.98968285
vt 0.12491859 0.97660166
vt 0.17250888 9.7616091e-3
vt 0.20954721 8.7248951e-2
vt 0.20954809 0.24138774
vt 0.22023545 0.22565922
vt 0.22136043 0.14282836
vt 0.24127628 0.12887019
vt 0.34367958 0.75999677
vt 0.37881109 0.12887019
vt 0.39771205 0.66682225
vt 0.39796141 0.74648446
vt 0.41265315 0.22590363
vt 0.41281122 0.14282750
vt 0.42531851 0.16319710
vt 0.42539018 0.26737270
vt 0.42539018 0.46864533
vt 0.42588675 7.4711084e-2
vt 0.42594653 0.25152260
vt 0.42767444 0.46550444
vt 0.42767507 0.26560190
vt 0.44757840 9.7616091e-3
vt 0.45361030 7.4557615e-3
vt 0.45361030 7.4179538e-2
vt 0.50103313 0.20910805
vt 0.52665097 0.87492836
vt 0.52766591 0.76466119
vt 0.56014907 0.88739729
vt 0.58016181 0.16378182
vt 0.60547620 0.46550506
vt 0.60547680 0.26560253
vt 0.60662019 0.26805276
vt 0.60662019 0.46932554
vt 0.62474751 7.5931191e-2
vt 0.62500620 0.62776434
vt 0.64953840 0.58482647
vt 0.67469603 0.92476803
vt 0.67676437 0.13711435
vt 0.69002616 6.8158403e-2
vt 0.70373827 6.9140121e-2
vt 0.73106575 0.58401078
vt 0.74683285 0.14917593
vt 0.75202608 0.99058878
vt 0.75421655 0.48325247
vt 0.80604970 0.57433444
vt 0.83096510 0.46660644
vt 0.83259356 0.38070941
vt 0.83295846 0.14912198
vt 0.85955924 0.51685333
vt 0.88218164 7.0469379e-2
vt 0.92881399 4.0817425e-2
vn 0.0000000e+0 -1.00000000 1.7093002e-16
vn 0.0000000e+0 -1.00000000 0.0000000e+0
vn 0.0000000e+0 -1.00000000 1.2819751e-16
vn 0.0000000e+0 -1.00000000 1.2819751e-16
vn 0.0000000e+0 -1.00000000 0.0000000e+0
vn 0.0000000e+0 -1.00000000 1.2819751e-16
vn 0.0000000e+0 -1.00000000 1.2819751e-16
vn 0.56694672 -0.75592894 -0.32732685
vn -2.1126077e-8 -0.75592896 -0.65465366
vn -0.56694674 -0.75592895 -0.32732677
vn -0.56694668 -0.75592894 0.32732689
vn 7.8952195e-8 -0.75592895 0.65465366
vn 0.56694676 -0.75592894 0.32732678
vn 0.28145731 -0.37757737 -0.88216615
vn -2.1126077e-8 0.75592896 -0.65465366
vn -0.28145742 -0.37757737 -0.88216611
vn -0.51126843 1.4648039e-2 0.85929624
vn 7.8952195e-8 0.75592895 0.65465366
vn 0.51126855 1.4648036e-2 0.85929617
vn -0.43301271 0.86602541 -0.24999998
vn 0.0000000e+0 1.00000000 0.0000000e+0
vn 0.43301268 0.86602540 -0.25000004
vn 0.43301273 0.86602540 0.24999995
vn 0.0000000e+0 1.00000000 0.0000000e+0
vn -0.43301267 0.86602541 0.25000004
vn 0.0000000e+0 1.00000000 0.0000000e+0
vn -0.59721446 0.54164326 -0.59157203
vn 0.59721439 0.54164323 -0.59157213
vn 0.18772570 0.66625991 0.72170409
vn -0.18772564 0.66625992 0.72170410
vn -0.75000001 0.50000001 -0.43301268
vn 0.74999996 0.50000000 -0.43301278
vn 0.75000005 0.50000000 0.43301261
vn -0.74999996 0.50000001 0.43301277
vn 0.40109879 -0.90698803 -0.12842305
vn -0.40109889 -0.90698801 -0.12842289
vn -0.62520853 -0.60656989 0.49110820
vn 0.62520850 -0.60656998 0.49110812
vn 0.63074596 0.51031818 -0.58458095
vn -0.63074601 0.51031838 -0.58458072
vn -0.66564004 0.41538687 0.61998152
vn 0.66564011 0.41538684 0.61998146
vn 0.96288766 6.5209833e-16 -0.26990249
vn -0.96288772 4.8907374e-16 -0.26990227
vn 0.88185492 0.44834495 -0.14600927
vn -0.88185491 0.44834515 -0.14600874
vn 0.92313084 0.29307014 -0.24887618
vn -0.92313089 0.29307035 -0.24887573
g Cylinder01_sep5_01 - Default
usemtl 01 - Default
f 1/7/1 3/8/3 2/4/2
f 1/7/1 4/11/4 3/8/3
f 1/7/1 5/10/5 4/11/4
f 1/7/1 6/6/6 5/10/5
f 1/7/1 7/3/7 6/6/6
f 2/4/2 7/3/7 1/7/1
f 2/4/2 8/2/8 13/1/13 7/3/7
f 3/8/3 9/9/9 8/2/8 2/4/2
f 4/11/4 10/13/10 9/9/9 3/8/3
f 5/10/5 11/12/11 10/13/10 4/11/4
f 6/6/6 12/5/12 11/12/11 5/10/5
f 7/3/7 13/1/13 12/5/12 6/6/6
f 8/51/8 14/50/14 19/40/19 13/41/13
f 9/37/9 15/36/15 14/52/14 8/53/8
f 10/37/10 16/36/16 15/52/15 9/53/9
f 11/52/11 17/53/17 16/37/16 10/36/10
f 12/37/12 18/36/18 17/52/17 11/53/11
f 13/37/13 19/36/19 18/52/18 12/53/12
f 14/64/14 35/66/35 38/69/38 19/65/19
f 14/64/14 43/60/43 35/66/35
f 15/38/15 21/35/21 20/45/20 14/49/14
f 16/49/16 22/45/22 21/35/21 15/38/15
f 16/27/16 28/34/28 32/33/32 22/26/22
f 16/46/16 44/20/44 28/47/28
f 17/65/17 37/69/37 36/66/36 16/64/16
f 18/38/18 24/35/24 23/45/23 17/49/17
f 19/49/19 25/45/25 24/35/24 18/38/18
f 19/27/19 30/34/30 34/33/34 25/26/25
f 19/15/19 38/24/38 42/25/42 30/16/30
f 20/45/20 26/39/26 25/35/25
f 20/27/20 31/34/31 27/33/27 14/26/14
f 21/35/21 26/39/26 20/45/20
f 22/45/22 26/39/26 21/35/21
f 22/27/22 32/34/32 33/33/33 23/26/23
f 23/45/23 26/39/26 22/35/22
f 23/33/23 33/26/33 29/27/29 17/34/17
f 24/35/24 26/39/26 23/45/23
f 25/45/25 26/39/26 24/35/24
f 25/27/25 34/34/34 31/33/31 20/26/20
f 27/42/27 31/30/31 34/28/34 30/23/30
f 27/47/27 43/20/43 14/46/14
f 27/62/27 45/67/45 39/68/39
f 28/31/28 44/19/44 40/32/40
f 28/22/28 46/48/46 29/14/29
f 29/23/29 33/28/33 32/30/32 28/42/28
f 29/15/29 41/24/41 37/25/37 17/16/17
f 29/17/29 46/29/46 41/18/41
f 30/14/30 45/48/45 27/22/27
f 35/44/35 43/71/43 39/43/39
f 35/66/35 47/70/47 38/69/38
f 36/66/36 44/60/44 16/64/16
f 36/61/36 48/59/48 40/56/40
f 37/69/37 48/70/48 36/66/36
f 38/63/38 47/21/47 42/57/42
f 39/31/39 43/19/43 27/32/27
f 39/57/39 45/21/45 42/63/42
f 39/56/39 47/59/47 35/61/35
f 40/43/40 44/71/44 36/44/36
f 40/68/40 46/67/46 28/62/28
f 40/58/40 48/55/48 41/54/41
f 41/63/41 46/21/46 40/57/40
f 41/57/41 48/21/48 37/63/37
f 42/18/42 45/29/45 30/17/30
f 42/54/42 47/55/47 39/58/39
