# Exported from Wings 3D 0.99.04a
mtllib base.mtl
o Cylinder01_sep3
#27 vertices, 29 faces
v 2.00099993 2.16630363 -9.9990540e-4
v 1.00099993 2.16630363 -1.73305082
v -0.99900013 2.16630363 -1.73305070
v -1.99899983 2.16630363 -9.9973055e-4
v -0.99899983 2.16630363 1.73105097
v 1.00100029 2.16630363 1.73105073
v 2.71867466 4.00099993 -1.0000000e-3
v 1.35983729 4.00099993 -2.35457540
v -1.35783756 4.00099993 -2.35457516
v -2.71667480 4.00099993 -9.9976244e-4
v -1.35783720 4.00099993 2.35257554
v 1.35983765 4.00099993 2.35257530
v 0.45899087 10.00100040 -1.0000000e-3
v 0.22999538 10.00100040 -0.39763170
v -0.22799538 10.00100040 -0.39763159
v -0.45699078 10.00100040 -9.9996000e-4
v -0.22799532 10.00100040 0.39563173
v 0.22999550 10.00100040 0.39563161
v 2.00099993 0.16630371 -9.9990540e-4
v 1.00099993 0.16630371 -1.73305082
v -0.99900013 0.16630371 -1.73305082
v -1.99899983 0.16630371 -9.9973055e-4
v -0.99899983 0.16630371 1.73105085
v 1.00100029 0.16630371 1.73105073
v 4.65550041 0.13902195 -2.68827701
v -4.65350103 0.13902195 -2.68827677
v 1.0005397e-3 0.13902195 5.37355423
vt 1.8055068e-2 0.26940626
vt 2.8300134e-2 0.64940113
vt 2.8300509e-2 0.97908610
vt 3.3831641e-2 0.35643348
vt 7.6219492e-2 0.28301552
vt 7.6219492e-2 0.42985150
vt 8.4074214e-2 1.5211152e-2
vt 0.16099536 0.28301552
vt 0.16099536 0.42985150
vt 0.20338316 0.35643345
vt 0.21905448 0.28468233
vt 0.21905448 0.55033427
vt 0.44989559 1.3975667e-2
vt 0.47280139 0.63306081
vt 0.48577422 1.2657642e-2
vt 0.49712461 0.60843730
vt 0.50359887 0.59256661
vt 0.50628763 0.62430811
vt 0.51276189 0.55919033
vt 0.51591486 0.26857084
vt 0.52192491 0.59256661
vt 0.52192491 0.62430811
vt 0.53108782 0.60843730
vt 0.54897833 0.28468233
vt 0.54897833 0.55033427
vt 0.55541104 0.63306081
vt 0.56587249 0.44457173
vt 0.56587249 0.45988929
vt 0.57913786 0.43691301
vt 0.57913786 0.46754801
vt 0.59240323 0.44457173
vt 0.59240323 0.45988929
vt 0.62024289 0.97785622
vt 0.69364089 0.74729967
vt 0.77725095 0.74730539
vt 0.79975873 0.76429927
vt 0.89037818 0.43421805
vt 0.98099750 0.76429927
vt 0.98511738 1.2663305e-2
vn 0.82023834 -0.32085112 -0.47356481
vn 0.82023839 -0.32085109 0.47356474
vn 0.86602546 -5.5511162e-17 0.49999990
vn 0.42116140 0.87378340 -0.24315763
vn 0.71143213 6.4901813e-17 0.70275482
vn 0.82023834 -0.32085112 -0.47356481
vn -7.1798071e-8 -0.32085109 -0.94712965
vn -2.9802321e-8 2.9802324e-8 -1.00000000
vn 0.42116140 0.87378340 -0.24315763
vn -0.25288743 5.8725508e-17 -0.96749571
vn -7.1798071e-8 -0.32085109 -0.94712965
vn -0.82023837 -0.32085115 -0.47356473
vn -2.9802321e-8 2.9802324e-8 -1.00000000
vn -0.42116140 0.87378343 -0.24315755
vn 0.25288734 5.7667242e-8 -0.96749573
vn -0.82023837 -0.32085115 -0.47356473
vn -0.82023829 -0.32085115 0.47356487
vn -0.86602538 -1.4901163e-8 0.50000004
vn -0.42116140 0.87378343 -0.24315755
vn -0.71143202 6.4836932e-17 0.70275492
vn -0.82023829 -0.32085115 0.47356487
vn 9.5730760e-8 -0.32085111 0.94712964
vn -0.86602538 -1.4901163e-8 0.50000004
vn 5.7973297e-8 0.87378340 0.48631529
vn -0.96431956 -1.5779793e-8 0.26474098
vn 9.5730760e-8 -0.32085111 0.94712964
vn 0.82023839 -0.32085109 0.47356474
vn 0.86602546 -5.5511162e-17 0.49999990
vn 5.7973297e-8 0.87378340 0.48631529
vn 0.96431960 -5.8843089e-17 0.26474082
vn 0.82023834 -0.32085112 -0.47356481
vn 0.82023839 -0.32085109 0.47356474
vn 0.82333913 0.31008100 -0.47535508
vn 0.82333917 0.31008101 0.47535500
vn 0.82023834 -0.32085112 -0.47356481
vn -7.1798071e-8 -0.32085109 -0.94712965
vn 0.82333913 0.31008100 -0.47535508
vn -1.0706431e-7 0.31008100 -0.95071014
vn -7.1798071e-8 -0.32085109 -0.94712965
vn -0.82023837 -0.32085115 -0.47356473
vn -1.0706431e-7 0.31008100 -0.95071014
vn -0.82333914 0.31008102 -0.47535504
vn -0.82023837 -0.32085115 -0.47356473
vn -0.82023829 -0.32085115 0.47356487
vn -0.82333914 0.31008102 -0.47535504
vn -0.82333909 0.31008102 0.47535514
vn -0.82023829 -0.32085115 0.47356487
vn 9.5730760e-8 -0.32085111 0.94712964
vn -0.82333909 0.31008102 0.47535514
vn 1.0706431e-7 0.31008102 0.95071014
vn 9.5730760e-8 -0.32085111 0.94712964
vn 0.82023839 -0.32085109 0.47356474
vn 1.0706431e-7 0.31008102 0.95071014
vn 0.82333917 0.31008101 0.47535500
vn 0.0000000e+0 1.00000000 0.0000000e+0
vn 0.82333913 0.31008100 -0.47535508
vn 0.82333917 0.31008101 0.47535500
vn 0.0000000e+0 1.00000000 0.0000000e+0
vn 0.82333913 0.31008100 -0.47535508
vn -1.0706431e-7 0.31008100 -0.95071014
vn 0.0000000e+0 1.00000000 0.0000000e+0
vn -1.0706431e-7 0.31008100 -0.95071014
vn -0.82333914 0.31008102 -0.47535504
vn 0.0000000e+0 1.00000000 0.0000000e+0
vn -0.82333914 0.31008102 -0.47535504
vn -0.82333909 0.31008102 0.47535514
vn 0.0000000e+0 1.00000000 0.0000000e+0
vn -0.82333909 0.31008102 0.47535514
vn 1.0706431e-7 0.31008102 0.95071014
vn 0.0000000e+0 1.00000000 0.0000000e+0
vn 1.0706431e-7 0.31008102 0.95071014
vn 0.82333917 0.31008101 0.47535500
vn -2.5047707e-24 -1.00000000 -6.4098758e-17
vn 0.86602546 -5.5511162e-17 0.49999990
vn -6.4862084e-3 -0.99997195 3.7448139e-3
vn 0.71143213 6.4901813e-17 0.70275482
vn -2.5047707e-24 -1.00000000 -6.4098758e-17
vn -2.9802321e-8 2.9802324e-8 -1.00000000
vn -6.4862084e-3 -0.99997195 3.7448139e-3
vn -0.25288743 5.8725508e-17 -0.96749571
vn -2.5047707e-24 -1.00000000 -6.4098758e-17
vn -2.9802321e-8 2.9802324e-8 -1.00000000
vn 6.4862083e-3 -0.99997195 3.7448124e-3
vn 0.25288734 5.7667242e-8 -0.96749573
vn -2.5047707e-24 -1.00000000 -6.4098758e-17
vn -0.86602538 -1.4901163e-8 0.50000004
vn 6.4862083e-3 -0.99997195 3.7448124e-3
vn -0.71143202 6.4836932e-17 0.70275492
vn -2.5047707e-24 -1.00000000 -6.4098758e-17
vn -0.86602538 -1.4901163e-8 0.50000004
vn -4.4641659e-10 -0.99997195 -7.4896281e-3
vn -0.96431956 -1.5779793e-8 0.26474098
vn -2.5047707e-24 -1.00000000 -6.4098758e-17
vn 0.86602546 -5.5511162e-17 0.49999990
vn -4.4641659e-10 -0.99997195 -7.4896281e-3
vn 0.96431960 -5.8843089e-17 0.26474082
vn -6.4862084e-3 -0.99997195 3.7448139e-3
vn 0.42116140 0.87378340 -0.24315763
vn 0.71143213 6.4901813e-17 0.70275482
vn -0.25288743 5.8725508e-17 -0.96749571
vn 6.4862083e-3 -0.99997195 3.7448124e-3
vn -0.42116140 0.87378343 -0.24315755
vn 0.25288734 5.7667242e-8 -0.96749573
vn -0.71143202 6.4836932e-17 0.70275492
vn -4.4641659e-10 -0.99997195 -7.4896281e-3
vn 5.7973297e-8 0.87378340 0.48631529
vn -0.96431956 -1.5779793e-8 0.26474098
vn 0.96431960 -5.8843089e-17 0.26474082
g Cylinder01_sep3_01 - Default
usemtl 01 - Default
f 1/7/2 7/1/32 12/20/52 6/13/27
f 1/36/4 25/37/98 2/38/9
f 2/7/6 8/1/35 7/20/31 1/13/1
f 2/24/8 20/11/78 21/12/82 3/25/13
f 2/2/10 25/33/100 20/3/80
f 3/7/11 9/1/39 8/20/36 2/13/7
f 3/36/14 26/37/102 4/38/19
f 4/7/16 10/1/43 9/20/40 3/13/12
f 4/25/18 22/24/86 23/11/90 5/12/23
f 4/2/20 26/33/104 22/3/88
f 5/7/21 11/1/47 10/20/44 4/13/17
f 5/36/24 27/37/106 6/38/29
f 6/7/26 12/1/51 11/20/48 5/13/22
f 6/25/28 24/24/94 19/11/74 1/12/3
f 6/2/30 27/33/108 24/3/96
f 7/39/34 13/35/57 18/34/72 12/15/54
f 8/39/37 14/35/59 13/34/56 7/15/33
f 9/39/41 15/35/62 14/34/60 8/15/38
f 10/39/45 16/35/65 15/34/63 9/15/42
f 11/39/49 17/35/68 16/34/66 10/15/46
f 12/39/53 18/35/71 17/34/69 11/15/50
f 14/31/58 15/32/61 16/30/64 17/28/67 18/27/70 13/29/55
f 19/4/73 24/5/93 23/8/89 22/10/85 21/9/81 20/6/77
f 19/3/76 25/33/99 1/2/5
f 20/18/79 25/14/97 19/16/75
f 21/3/84 26/33/103 3/2/15
f 22/23/87 26/26/101 21/22/83
f 23/3/92 27/33/107 5/2/25
f 24/17/95 27/19/105 23/21/91
