# Exported from Wings 3D 0.99.04a
mtllib radartop.mtl
o Cylinder01
#10 vertices, 13 faces
v 1.45798934 10.02239513 -9.9956198e-4
v 0.72949457 10.02239513 -1.26278937
v -0.72749472 10.02239513 -1.26278937
v -1.45598924 10.02239513 -9.9943462e-4
v -0.72749454 10.02239513 1.26079023
v 0.72949481 10.02239513 1.26078999
v 1.0000000e-3 11.25526142 -9.9960261e-4
v 5.85755777 8.36316395 3.38028455
v 9.9959690e-4 8.36316395 -6.76356888
v -5.85555601 8.36316395 3.38028502
vt 1.8783674e-2 0.48798293
vt 0.54691178 0.58627737
vt 0.57127625 0.54407692
vt 0.57127625 0.62847793
vt 0.62000495 0.54407692
vt 0.62000495 0.62847793
vt 0.64436942 0.58627737
vt 0.66384792 0.98374611
vt 0.77065927 0.79874289
vt 0.87747133 0.98374611
vt 0.91513556 0.46343589
vt 0.95153469 0.19353998
vt 0.98428267 0.79874289
vt 0.98478359 0.46245646
vn 0.0000000e+0 -1.00000000 0.0000000e+0
vn 0.60523180 0.71525702 -0.34943078
vn -0.25009445 -0.95739422 -0.14439210
vn 0.58552565 0.69196848 -0.42230243
vn 0.0000000e+0 -1.00000000 0.0000000e+0
vn 0.60523180 0.71525702 -0.34943078
vn 0.0000000e+0 -0.95739421 0.28878422
vn 0.65848731 0.69196854 -0.29592905
vn 0.0000000e+0 -1.00000000 0.0000000e+0
vn -0.60523187 0.71525701 -0.34943067
vn 0.0000000e+0 -0.95739421 0.28878422
vn -0.65848733 0.69196855 -0.29592898
vn 0.0000000e+0 -1.00000000 0.0000000e+0
vn -0.60523187 0.71525701 -0.34943067
vn 0.25009449 -0.95739420 -0.14439214
vn -0.58552576 0.69196852 -0.42230221
vn 0.0000000e+0 -1.00000000 0.0000000e+0
vn 1.1436018e-7 0.71525701 0.69886151
vn 0.25009449 -0.95739420 -0.14439214
vn 7.2961583e-2 0.69196858 0.71823122
vn 0.0000000e+0 -1.00000000 0.0000000e+0
vn 1.1436018e-7 0.71525701 0.69886151
vn -0.25009445 -0.95739422 -0.14439210
vn -7.2961586e-2 0.69196850 0.71823130
vn 0.60523180 0.71525702 -0.34943078
vn -0.60523187 0.71525701 -0.34943067
vn 1.1436018e-7 0.71525701 0.69886151
vn 0.58552565 0.69196848 -0.42230243
vn 0.65848731 0.69196854 -0.29592905
vn -0.65848733 0.69196855 -0.29592898
vn -0.58552576 0.69196852 -0.42230221
vn 7.2961583e-2 0.69196858 0.71823122
vn -7.2961586e-2 0.69196850 0.71823130
vn -0.25009445 -0.95739422 -0.14439210
vn 0.58552565 0.69196848 -0.42230243
vn -7.2961586e-2 0.69196850 0.71823130
vn 0.0000000e+0 -0.95739421 0.28878422
vn 0.65848731 0.69196854 -0.29592905
vn -0.65848733 0.69196855 -0.29592898
vn 0.25009449 -0.95739420 -0.14439214
vn -0.58552576 0.69196852 -0.42230221
vn 7.2961583e-2 0.69196858 0.71823122
g Cylinder01_01 - Default
usemtl 01 - Default
f 1/2/1 6/3/21 5/5/17 4/7/13 3/6/9 2/4/5
f 1/11/3 8/12/34 6/14/23
f 2/13/6 7/10/25 1/9/2
f 2/8/8 9/1/38 7/10/29
f 3/11/11 9/12/37 2/14/7
f 4/13/14 7/10/26 3/9/10
f 4/8/16 10/1/41 7/10/31
f 5/11/19 10/12/40 4/14/15
f 6/13/22 7/10/27 5/9/18
f 6/8/24 8/1/36 7/10/33
f 7/10/28 8/1/35 1/9/4
f 7/10/30 9/1/39 3/9/12
f 7/10/32 10/1/42 5/9/20
