# Exported from Wings 3D 0.99.04a
mtllib base.mtl
o Cylinder01_sep2
#47 vertices, 75 faces
v 1.0000000e-3 -1.2405626e-2 -9.9999015e-4
v 2.78702736 -1.2405626e-2 -9.9995080e-4
v 2.41377044 -1.2405626e-2 -1.39401376
v 1.39401376 -1.2405656e-2 -2.41377044
v 9.9985406e-4 -1.2405626e-2 -2.78702712
v -1.39201379 -1.2405656e-2 -2.41377020
v -2.41177082 -1.2405626e-2 -1.39401364
v -2.78502750 -1.2405626e-2 -9.9970726e-4
v -2.41177058 -1.2405656e-2 1.39201403
v -1.39201343 -1.2405626e-2 2.41177106
v 1.0003413e-3 -1.2405626e-2 2.78502750
v 1.39401412 -1.2405626e-2 2.41177058
v 2.41377068 -1.2405656e-2 1.39201319
v 2.00099993 1.57592509 -1.0000000e-3
v 1.73305082 1.57592509 -1.00100005
v 1.00099993 1.57592509 -1.73305094
v 9.9991262e-4 1.57592509 -2.00099993
v -0.99900013 1.57592509 -1.73305082
v -1.73105085 1.57592509 -1.00099993
v -1.99899995 1.57592509 -9.9982519e-4
v -1.73105061 1.57592509 0.99900013
v -0.99899983 1.57592509 1.73105085
v 1.0002623e-3 1.57592509 1.99899995
v 1.00100029 1.57592509 1.73105061
v 1.73305106 1.57592509 0.99899971
v 1.28660095 2.06881068 -1.0000765e-3
v 1.11436307 2.06881068 -0.64380050
v 0.64380038 2.06881068 -1.11436319
v 9.9996512e-4 2.06881068 -1.28660095
v -0.64180046 2.06881068 -1.11436307
v -1.11236298 2.06881068 -0.64380038
v -1.28460062 2.06881068 -9.9996419e-4
v -1.11236274 2.06881068 0.64180040
v -0.64180028 2.06881068 1.11236286
v 1.0001899e-3 2.06881068 1.28460062
v 0.64380056 2.06881068 1.11236274
v 1.11436307 2.06881068 0.64180017
v 1.0000000e-3 2.06881068 -1.0000815e-3
v 4.33703852 -1.0550968e-2 -1.16283846
v 1.16283774 -1.0550998e-2 -4.33703995
v -3.17320085 -1.0550968e-2 -3.17520094
v -4.33503914 -1.0550968e-2 1.16083848
v -1.16083765 -1.0550968e-2 4.33503914
v 3.17520094 -1.0550968e-2 3.17319989
v 2.40923381 3.54952357 -0.64628446
v -1.76194942 3.54952357 -1.76394951
v -0.64428383 3.54952381 2.40723348
vt 1.8084198e-2 0.16976471
vt 1.8472623e-2 0.33342052
vt 7.2460160e-2 0.73717386
vt 8.0594994e-2 0.69538224
vt 0.13865845 0.97178823
vt 0.14272000 0.33342093
vt 0.16411950 0.31876883
vt 0.20920788 0.52192587
vt 0.28142995 2.1234149e-2
vt 0.33339888 0.22735474
vt 0.39685792 0.67353308
vt 0.42691928 0.58690989
vt 0.52551109 0.59623110
vt 0.52773637 0.22709092
vt 0.58376002 2.0628328e-2
vt 0.60466003 1.4170632e-2
vt 0.61439377 0.88986689
vt 0.61819679 0.55157667
vt 0.65743905 0.97277004
vt 0.67008495 0.97968417
vt 0.69505996 0.32411072
vt 0.79053557 0.49338955
vt 0.81130606 0.49128199
vt 0.82006389 0.49486732
vt 0.82011420 0.48782223
vt 0.82213503 0.51035166
vt 0.82240659 0.47236913
vt 0.82354289 0.50099373
vt 0.82368046 0.48174626
vt 0.82961875 0.50455993
vt 0.82980686 0.47826737
vt 0.83323532 0.49143881
vt 0.83666378 0.50461030
vt 0.83685189 0.47831774
vt 0.84279042 0.50113136
vt 0.84292799 0.48188388
vt 0.84406406 0.51050848
vt 0.84406435 0.17807497
vt 0.84433585 0.47252595
vt 0.84635645 0.49505538
vt 0.84640676 0.48801029
vt 0.85516459 0.49159569
vt 0.93310094 0.97940665
vt 0.98458183 0.55118936
vt 0.98481965 1.4413721e-2
vt 0.98520327 0.17470141
vn 3.3867185e-16 -1.00000000 1.3051321e-9
vn 0.50194233 -0.79223907 0.34700309
vn 0.26119310 -0.79223910 -0.55148470
vn 0.55148469 -0.79223908 -0.26119319
vn -0.34700328 -0.79223914 -0.50194210
vn 4.9542526e-2 -0.79223913 -0.60819627
vn -0.60819638 -0.79223904 4.9542460e-2
vn -0.50194226 -0.79223909 -0.34700317
vn -0.26119312 -0.79223907 0.55148472
vn -0.55148469 -0.79223908 0.26119319
vn 0.34700324 -0.79223908 0.50194222
vn -4.9542322e-2 -0.79223904 0.60819640
vn 0.60819632 -0.79223909 -4.9542509e-2
vn 0.77861071 0.50927017 0.36661868
vn 0.49098726 0.50927015 -0.70680650
vn 0.50628204 0.70661611 -0.49434013
vn -0.19128324 0.70661607 -0.68125212
vn -7.1804181e-2 0.50927010 -0.85760604
vn -0.85760597 0.50927024 -7.1804142e-2
vn -0.68125209 0.70661616 -0.19128303
vn -0.49434001 0.70661617 0.50628209
vn -0.70680640 0.50927025 0.49098729
vn 0.36661881 0.50927025 0.77861060
vn 0.17497014 0.70661614 0.68562313
vn 0.68562323 0.70661609 0.17496997
vn 2.5684938e-3 0.94485024 0.32749264
vn -0.16152195 0.94485023 -0.28490121
vn 0.14784863 0.95528169 -0.25608139
vn -1.7895269e-8 0.95528168 -0.29569732
vn 0.28233274 0.94485021 -0.16597077
vn -0.16597066 0.94485024 0.28233271
vn -0.29569724 0.95528171 4.2087958e-8
vn -0.25608131 0.95528171 0.14784864
vn -0.28490123 0.94485023 -0.16152196
vn 0.32749266 0.94485023 2.5683923e-3
vn 0.14784864 0.95528171 0.25608130
vn 0.25608135 0.95528170 0.14784860
vn 0.0000000e+0 1.00000000 -4.4782313e-17
vn 0.91528470 0.31954093 -0.24524990
vn 0.24524946 0.31954100 -0.91528479
vn -0.67003483 0.31954091 -0.67003502
vn -0.91528468 0.31954104 0.24524982
vn -0.24524971 0.31954098 0.91528473
vn 0.67003506 0.31954096 0.67003477
vn 7.3210960e-2 0.99712353 -1.9616724e-2
vn -5.3594149e-2 0.99712352 -5.3594273e-2
vn -1.9616821e-2 0.99712354 7.3210866e-2
g Cylinder01_sep2_02 - Default
usemtl 02 - Default
f 1/32/1 3/24/3 2/25/2
f 1/32/1 4/28/4 3/24/3
f 1/32/1 5/30/5 4/28/4
f 1/32/1 6/33/6 5/30/5
f 1/32/1 7/35/7 6/33/6
f 1/32/1 8/40/8 7/35/7
f 1/32/1 9/41/9 8/40/8
f 1/32/1 10/36/10 9/41/9
f 1/32/1 11/34/11 10/36/10
f 1/32/1 12/31/12 11/34/11
f 1/32/1 13/29/13 12/31/12
f 2/25/2 13/29/13 1/32/1
f 2/44/2 14/43/14 25/20/25 13/18/13
f 2/5/2 39/19/39 14/3/14
f 3/24/3 39/23/39 2/25/2
f 4/44/4 16/43/16 15/20/15 3/18/3
f 4/5/4 40/19/40 16/3/16
f 5/30/5 40/26/40 4/28/4
f 6/44/6 18/43/18 17/20/17 5/18/5
f 6/5/6 41/19/41 18/3/18
f 7/35/7 41/37/41 6/33/6
f 8/18/8 20/20/20 19/43/19 7/44/7
f 8/5/8 42/19/42 20/3/20
f 9/41/9 42/42/42 8/40/8
f 10/44/10 22/43/22 21/20/21 9/18/9
f 10/5/10 43/19/43 22/3/22
f 11/34/11 43/39/43 10/36/10
f 12/44/12 24/43/24 23/20/23 11/18/11
f 12/5/12 44/19/44 24/3/24
f 13/29/13 44/27/44 12/31/12
f 14/38/14 26/21/26 37/14/37 25/15/25
f 14/8/14 39/19/39 15/3/15
f 14/46/14 45/16/45 26/45/26
f 15/3/15 39/19/39 3/5/3
f 15/13/15 45/17/45 14/11/14
f 16/9/16 28/10/28 27/7/27 15/1/15
f 16/8/16 40/19/40 17/3/17
f 17/15/17 29/14/29 28/10/28 16/9/16
f 17/3/17 40/19/40 5/5/5
f 18/38/18 30/21/30 29/14/29 17/15/17
f 18/8/18 41/19/41 19/3/19
f 18/46/18 46/16/46 30/45/30
f 19/3/19 41/19/41 7/5/7
f 19/13/19 46/17/46 18/11/18
f 20/9/20 32/10/32 31/7/31 19/1/19
f 20/8/20 42/19/42 21/3/21
f 21/15/21 33/14/33 32/10/32 20/9/20
f 21/3/21 42/19/42 9/5/9
f 22/38/22 34/21/34 33/14/33 21/15/21
f 22/3/22 43/19/43 23/8/23
f 22/46/22 47/16/47 34/45/34
f 23/3/23 43/19/43 11/5/11
f 23/13/23 47/17/47 22/11/22
f 24/9/24 36/10/36 35/7/35 23/1/23
f 24/8/24 44/19/44 25/3/25
f 25/15/25 37/14/37 36/10/36 24/9/24
f 25/3/25 44/19/44 13/5/13
f 26/21/26 38/12/38 37/14/37
f 26/6/26 45/4/45 27/2/27
f 27/22/27 38/12/38 26/21/26
f 27/45/27 45/16/45 15/46/15
f 28/10/28 38/12/38 27/7/27
f 29/14/29 38/12/38 28/10/28
f 30/21/30 38/12/38 29/14/29
f 30/6/30 46/4/46 31/2/31
f 31/22/31 38/12/38 30/21/30
f 31/45/31 46/16/46 19/46/19
f 32/10/32 38/12/38 31/7/31
f 33/14/33 38/12/38 32/10/32
f 34/21/34 38/12/38 33/14/33
f 34/6/34 47/4/47 35/2/35
f 35/22/35 38/12/38 34/21/34
f 35/45/35 47/16/47 23/46/23
f 36/10/36 38/12/38 35/7/35
f 37/14/37 38/12/38 36/10/36
