# Exported from Wings 3D 0.99.04a
mtllib barrel1.mtl
o Cylinder01
#45 vertices, 45 faces
v 1.0000226e-3 8.49034500 -4.20112085
v 0.86702538 7.99034452 7.2794840e-2
v 0.86702532 8.99034500 7.2794400e-2
v 9.9997211e-4 9.49034500 7.2794400e-2
v -0.86502534 8.99034500 7.2794840e-2
v -0.86502540 7.99034452 7.2794802e-2
v 1.0001648e-3 7.49034452 7.2794802e-2
v 0.86702526 7.99034452 0.91313070
v 0.86702526 8.99034500 0.91313076
v 9.9989411e-4 9.49034500 0.91313076
v -0.86502546 8.99034500 0.91313070
v -0.86502546 7.99034405 0.91313064
v 1.0000570e-3 7.49034452 0.91313064
v 0.42251045 8.24698544 2.35457945
v 0.42251047 8.73370457 2.35457945
v 9.9979236e-4 8.97706318 2.35457945
v -0.42051089 8.73370457 2.35457945
v -0.42051086 8.24698544 2.35457945
v 9.9988922e-4 8.00362587 2.35457945
v 0.42251045 8.24698544 3.50214481
v 0.42251042 8.73370457 3.50214481
v 9.9975243e-4 8.97706318 3.50214481
v -0.42051092 8.73370361 3.50214481
v -0.42051092 8.24698544 3.50214481
v 9.9985325e-4 8.00362587 3.50214481
v 1.22731304 7.78233194 4.35687399
v 1.22731316 9.19835758 4.35687399
v 9.9956535e-4 9.90636921 4.35687399
v -1.22531378 9.19835663 4.35687399
v -1.22531366 7.78233194 4.35687399
v 9.9984999e-4 7.07431936 4.35687399
v 0.42053467 8.24812508 8.35687351
v 0.42053464 8.73256302 8.35687351
v 9.9959213e-4 8.97478104 8.35687351
v -0.41853550 8.73256302 8.35687351
v -0.41853550 8.24812508 8.35687351
v 9.9969166e-4 8.00590611 8.35687351
v 1.55850101 8.29223824 0.35148188
v 1.55850124 8.68845272 0.35148188
v -1.55650127 8.68845177 0.35148183
v -1.55650103 8.29223824 0.35148183
v 1.55850101 8.29223728 0.63444275
v 1.55850101 8.68845177 0.63444281
v -1.55650091 8.68845177 0.63444227
v -1.55650127 8.29223728 0.63444221
vt 2.9991413e-2 9.5212117e-2
vt 0.42116106 3.8173266e-2
vt 0.42130524 0.14655310
vt 0.43673077 7.8556314e-2
vt 0.43681762 8.0276400e-2
vt 0.43681788 0.13971786
vt 0.45458034 3.5056602e-2
vt 0.48032510 3.3569925e-2
vt 0.49449596 8.0276147e-2
vt 0.49449608 0.13971762
vt 0.49814591 7.8243017e-2
vt 0.50426263 3.8173266e-2
vt 0.50440687 0.14655310
vt 0.62550181 6.0902864e-2
vt 0.62554157 0.12153852
vt 0.65991241 0.18961844
vt 0.67965394 0.15542534
vt 0.67965394 0.22381160
vt 0.71012247 0.12237788
vt 0.71029317 6.1639838e-2
vt 0.71913677 0.15542534
vt 0.71913677 0.22381160
vt 0.73887831 0.18961844
vt 0.77864140 8.6433673e-3
vt 0.77876580 0.18319780
vt 0.93521416 0.57461309
vt 0.93521422 0.57734507
vt 0.93521422 0.57996708
vt 0.93521422 0.58269906
vt 0.93903959 0.57461309
vt 0.93903965 0.57734507
vt 0.93903965 0.57996708
vt 0.93903965 0.58269906
vt 0.99318725 0.12026659
vt 0.99343085 7.8079186e-2
vn 0.98008177 -2.8881527e-8 -0.19859439
vn 0.49004091 0.84877569 -0.19859441
vn -0.49004100 0.84877564 -0.19859441
vn -0.98008177 6.5815612e-8 -0.19859439
vn -0.49004080 -0.84877573 -0.19859448
vn 0.49004096 -0.84877564 -0.19859449
vn 0.98008177 -2.8881527e-8 -0.19859439
vn 0.49004096 -0.84877564 -0.19859449
vn 0.50000009 -0.86602535 6.7535473e-8
vn 0.37381417 -3.3988976e-7 -0.92750362
vn 0.40012079 -0.91646241 -7.3561022e-7
vn 0.98008177 -2.8881527e-8 -0.19859439
vn 0.49004091 0.84877569 -0.19859441
vn 0.50000002 0.86602539 4.0936857e-8
vn 0.37381417 -3.3988976e-7 -0.92750362
vn 0.40012019 0.91646267 8.8422899e-7
vn 0.49004091 0.84877569 -0.19859441
vn -0.49004100 0.84877564 -0.19859441
vn 0.50000002 0.86602539 4.0936857e-8
vn -0.50000003 0.86602539 -5.8669253e-8
vn -0.49004100 0.84877564 -0.19859441
vn -0.98008177 6.5815612e-8 -0.19859439
vn -0.50000003 0.86602539 -5.8669253e-8
vn -0.37381387 -2.3127488e-8 -0.92750374
vn -0.40012079 0.91646241 8.4925260e-8
vn -0.98008177 6.5815612e-8 -0.19859439
vn -0.49004080 -0.84877573 -0.19859448
vn -0.49999976 -0.86602554 -2.9551027e-7
vn -0.37381387 -2.3127488e-8 -0.92750374
vn -0.40012104 -0.91646230 -1.2732663e-6
vn -0.49004080 -0.84877573 -0.19859448
vn 0.49004096 -0.84877564 -0.19859449
vn -0.49999976 -0.86602554 -2.9551027e-7
vn 0.50000009 -0.86602535 6.7535473e-8
vn 0.50000009 -0.86602535 6.7535473e-8
vn 0.95559395 -3.0969935e-8 0.29468662
vn 0.47779718 -0.82756851 0.29468665
vn 0.37381498 -7.9190534e-8 0.92750329
vn 0.40012079 -0.91646241 -7.3561022e-7
vn 0.50000002 0.86602539 4.0936857e-8
vn 0.95559395 -3.0969935e-8 0.29468662
vn 0.47779665 0.82756881 0.29468665
vn 0.40012019 0.91646267 8.8422899e-7
vn 0.37381498 -7.9190534e-8 0.92750329
vn 0.50000002 0.86602539 4.0936857e-8
vn -0.50000003 0.86602539 -5.8669253e-8
vn 0.47779665 0.82756881 0.29468665
vn -0.47779667 0.82756883 0.29468658
vn -0.50000003 0.86602539 -5.8669253e-8
vn -0.47779667 0.82756883 0.29468658
vn -0.95559399 -3.0969921e-8 0.29468648
vn -0.40012079 0.91646241 8.4925260e-8
vn -0.37381559 1.6558972e-8 0.92750305
vn -0.49999976 -0.86602554 -2.9551027e-7
vn -0.95559399 -3.0969921e-8 0.29468648
vn -0.47779681 -0.82756871 0.29468668
vn -0.40012104 -0.91646230 -1.2732663e-6
vn -0.37381559 1.6558972e-8 0.92750305
vn -0.49999976 -0.86602554 -2.9551027e-7
vn 0.50000009 -0.86602535 6.7535473e-8
vn -0.47779681 -0.82756871 0.29468668
vn 0.47779718 -0.82756851 0.29468665
vn 0.95559395 -3.0969935e-8 0.29468662
vn 0.47779718 -0.82756851 0.29468665
vn 1.00000000 0.0000000e+0 2.5970043e-8
vn 0.50000050 -0.86602512 7.8366713e-9
vn 0.95559395 -3.0969935e-8 0.29468662
vn 0.47779665 0.82756881 0.29468665
vn 1.00000000 0.0000000e+0 2.5970043e-8
vn 0.49999894 0.86602602 2.1683926e-8
vn 0.47779665 0.82756881 0.29468665
vn -0.47779667 0.82756883 0.29468658
vn 0.49999894 0.86602602 2.1683926e-8
vn -0.49999967 0.86602559 3.4466011e-7
vn -0.47779667 0.82756883 0.29468658
vn -0.95559399 -3.0969921e-8 0.29468648
vn -0.49999967 0.86602559 3.4466011e-7
vn -1.00000000 -3.0615554e-8 -3.8955078e-8
vn -0.95559399 -3.0969921e-8 0.29468648
vn -0.47779681 -0.82756871 0.29468668
vn -1.00000000 -3.0615554e-8 -3.8955078e-8
vn -0.50000033 -0.86602521 -2.0821699e-8
vn -0.47779681 -0.82756871 0.29468668
vn 0.47779718 -0.82756851 0.29468665
vn -0.50000033 -0.86602521 -2.0821699e-8
vn 0.50000050 -0.86602512 7.8366713e-9
vn 1.00000000 0.0000000e+0 2.5970043e-8
vn 0.50000050 -0.86602512 7.8366713e-9
vn 0.72805047 -3.4209940e-8 -0.68552353
vn 0.36402534 -0.63050996 -0.68552370
vn 1.00000000 0.0000000e+0 2.5970043e-8
vn 0.49999894 0.86602602 2.1683926e-8
vn 0.72805047 -3.4209940e-8 -0.68552353
vn 0.36402481 0.63051048 -0.68552351
vn 0.49999894 0.86602602 2.1683926e-8
vn -0.49999967 0.86602559 3.4466011e-7
vn 0.36402481 0.63051048 -0.68552351
vn -0.36402537 0.63051009 -0.68552356
vn -0.49999967 0.86602559 3.4466011e-7
vn -1.00000000 -3.0615554e-8 -3.8955078e-8
vn -0.36402537 0.63051009 -0.68552356
vn -0.72805041 -4.5613296e-8 -0.68552359
vn -1.00000000 -3.0615554e-8 -3.8955078e-8
vn -0.50000033 -0.86602521 -2.0821699e-8
vn -0.72805041 -4.5613296e-8 -0.68552359
vn -0.36402525 -0.63051000 -0.68552371
vn -0.50000033 -0.86602521 -2.0821699e-8
vn 0.50000050 -0.86602512 7.8366713e-9
vn -0.36402525 -0.63051000 -0.68552371
vn 0.36402534 -0.63050996 -0.68552370
vn 0.72805047 -3.4209940e-8 -0.68552353
vn 0.36402534 -0.63050996 -0.68552370
vn 0.98025992 -4.6116151e-8 0.19771317
vn 0.49013023 -0.84892986 0.19771303
vn 0.72805047 -3.4209940e-8 -0.68552353
vn 0.36402481 0.63051048 -0.68552351
vn 0.98025992 -4.6116151e-8 0.19771317
vn 0.49012936 0.84893030 0.19771332
vn 0.36402481 0.63051048 -0.68552351
vn -0.36402537 0.63051009 -0.68552356
vn 0.49012936 0.84893030 0.19771332
vn -0.49012978 0.84893008 0.19771321
vn -0.36402537 0.63051009 -0.68552356
vn -0.72805041 -4.5613296e-8 -0.68552359
vn -0.49012978 0.84893008 0.19771321
vn -0.98025993 -6.1488233e-8 0.19771311
vn -0.72805041 -4.5613296e-8 -0.68552359
vn -0.36402525 -0.63051000 -0.68552371
vn -0.98025993 -6.1488233e-8 0.19771311
vn -0.49013011 -0.84892994 0.19771300
vn -0.36402525 -0.63051000 -0.68552371
vn 0.36402534 -0.63050996 -0.68552370
vn -0.49013011 -0.84892994 0.19771300
vn 0.49013023 -0.84892986 0.19771303
vn 0.0000000e+0 0.0000000e+0 1.00000000
vn 0.98025992 -4.6116151e-8 0.19771317
vn 0.49013023 -0.84892986 0.19771303
vn 0.0000000e+0 0.0000000e+0 1.00000000
vn 0.98025992 -4.6116151e-8 0.19771317
vn 0.49012936 0.84893030 0.19771332
vn 0.0000000e+0 0.0000000e+0 1.00000000
vn 0.49012936 0.84893030 0.19771332
vn -0.49012978 0.84893008 0.19771321
vn 0.0000000e+0 0.0000000e+0 1.00000000
vn -0.49012978 0.84893008 0.19771321
vn -0.98025993 -6.1488233e-8 0.19771311
vn 0.0000000e+0 0.0000000e+0 1.00000000
vn -0.98025993 -6.1488233e-8 0.19771311
vn -0.49013011 -0.84892994 0.19771300
vn 0.0000000e+0 0.0000000e+0 1.00000000
vn -0.49013011 -0.84892994 0.19771300
vn 0.49013023 -0.84892986 0.19771303
vn 1.00000000 -3.0087063e-7 4.2129144e-7
vn 0.37381417 -3.3988976e-7 -0.92750362
vn 0.40012079 -0.91646241 -7.3561022e-7
vn 1.00000000 -3.0087063e-7 4.2129144e-7
vn 0.37381417 -3.3988976e-7 -0.92750362
vn 0.40012019 0.91646267 8.8422899e-7
vn -1.00000000 1.5043546e-7 2.1064684e-7
vn -0.37381387 -2.3127488e-8 -0.92750374
vn -0.40012079 0.91646241 8.4925260e-8
vn -1.00000000 1.5043546e-7 2.1064684e-7
vn -0.37381387 -2.3127488e-8 -0.92750374
vn -0.40012104 -0.91646230 -1.2732663e-6
vn 1.00000000 -3.0087063e-7 4.2129144e-7
vn 0.37381498 -7.9190534e-8 0.92750329
vn 0.40012079 -0.91646241 -7.3561022e-7
vn 1.00000000 -3.0087063e-7 4.2129144e-7
vn 0.40012019 0.91646267 8.8422899e-7
vn 0.37381498 -7.9190534e-8 0.92750329
vn -1.00000000 1.5043546e-7 2.1064684e-7
vn -0.40012079 0.91646241 8.4925260e-8
vn -0.37381559 1.6558972e-8 0.92750305
vn -1.00000000 1.5043546e-7 2.1064684e-7
vn -0.40012104 -0.91646230 -1.2732663e-6
vn -0.37381559 1.6558972e-8 0.92750305
g Cylinder01_01 - Default
usemtl 01 - Default
f 1/1/1 3/2/12 2/3/7
f 1/1/2 4/3/17 3/2/13
f 1/1/3 5/3/21 4/2/18
f 1/1/4 6/3/26 5/2/22
f 1/1/5 7/2/31 6/3/27
f 2/2/8 7/3/32 1/1/6
f 2/10/9 8/6/35 13/5/60 7/9/34
f 2/11/11 38/8/155 42/7/167 8/4/39
f 3/4/15 39/7/157 38/8/154 2/11/10
f 4/5/19 10/9/45 9/10/40 3/6/14
f 5/6/23 11/10/49 10/9/46 4/5/20
f 5/4/25 40/7/161 44/8/172 11/11/52
f 6/11/29 41/8/163 40/7/160 5/4/24
f 7/9/33 13/5/59 12/6/54 6/10/28
f 8/12/37 14/14/64 19/15/84 13/13/62
f 8/11/38 42/8/166 43/7/170 9/4/44
f 9/12/41 15/14/67 14/15/63 8/13/36
f 9/11/43 43/8/169 39/7/158 3/4/16
f 10/12/47 16/14/71 15/15/68 9/13/42
f 11/12/50 17/14/75 16/15/72 10/13/48
f 11/4/53 44/7/173 45/8/176 12/11/58
f 12/12/55 18/14/79 17/15/76 11/13/51
f 12/4/57 45/7/175 41/8/164 6/11/30
f 13/12/61 19/14/83 18/15/80 12/13/56
f 14/14/66 20/20/88 25/19/108 19/15/86
f 15/14/69 21/20/91 20/19/87 14/15/65
f 16/19/73 22/15/95 21/14/92 15/20/70
f 17/19/77 23/15/99 22/14/96 16/20/74
f 18/19/81 24/15/103 23/14/100 17/20/78
f 19/14/85 25/20/107 24/19/104 18/15/82
f 20/20/90 26/24/112 31/25/132 25/19/110
f 21/20/93 27/24/115 26/25/111 20/19/89
f 22/20/97 28/24/119 27/25/116 21/19/94
f 23/20/101 29/24/123 28/25/120 22/19/98
f 24/20/105 30/24/127 29/25/124 23/19/102
f 25/20/109 31/24/131 30/25/128 24/19/106
f 26/24/114 32/35/137 37/34/152 31/25/134
f 27/24/117 33/35/139 32/34/136 26/25/113
f 28/25/121 34/34/142 33/35/140 27/24/118
f 29/25/125 35/34/145 34/35/143 28/24/122
f 30/25/129 36/34/148 35/35/146 29/24/126
f 31/24/133 37/35/151 36/34/149 30/25/130
f 33/21/138 34/23/141 35/22/144 36/18/147 37/16/150 32/17/135
f 39/32/156 43/33/168 42/29/165 38/28/153
f 41/27/162 45/26/174 44/30/171 40/31/159
