# Exported from Wings 3D 0.99.04a
mtllib turret.mtl
o Cylinder01_sep4
#46 vertices, 54 faces
v 9.9999947e-4 3.93053985 -9.9983776e-4
v 1.04023051 3.93053985 -0.60099983
v 9.9990948e-4 3.93053985 -1.20099998
v -1.03823054 3.93053985 -0.60099971
v -1.03823042 3.93053985 0.59900028
v 1.0001422e-3 3.93053985 1.19900012
v 1.04023063 3.93053985 0.59900004
v 1.55301273 6.28114176 -0.93074077
v 9.9984428e-4 6.28114223 -1.82679582
v -1.55101299 6.28114176 -0.93074071
v -1.55101275 6.28114128 0.86136937
v 1.0001307e-3 6.28114128 1.75742412
v 1.55301297 6.28114128 0.86136901
v 0.77700639 6.28114223 -0.48271328
v 9.9991786e-4 6.28114176 -0.93074071
v -0.77500647 6.28114223 -0.48271325
v -0.77500641 6.28114128 0.41334185
v 1.0000312e-3 6.28114128 0.86136919
v 0.77700645 6.28114128 0.41334161
v 9.9997374e-4 6.28114128 -3.4685772e-2
v 1.55301273 7.16296005 -0.93074095
v -1.55101275 7.16296005 -0.93074083
v -1.55101240 7.16296005 0.86136907
v 1.55301285 7.16296005 0.86136866
v 0.77700627 7.16296005 -0.48271346
v -0.77500629 7.16296005 -0.48271349
v -0.77500635 7.16296005 0.41334155
v 0.77700645 7.16296005 0.41334137
v 3.10835528 6.28114176 -0.93074101
v -3.10635567 6.28114176 -0.93073982
v -3.10635543 6.28114128 0.86136985
v 3.10835528 6.28114128 0.86136788
v 3.10835481 7.16296053 -0.93074143
v -3.10635519 7.16296053 -0.93073952
v -3.10635471 7.16296053 0.86136991
v 3.10835528 7.16296053 0.86136788
v 1.55301023 9.37517166 1.2343694e-2
v -1.55101013 9.37517166 1.2343909e-2
v -1.55101001 9.37517166 0.86136901
v 1.55300999 9.37517166 0.86136848
v 2.21102595 9.37517166 1.2343530e-2
v -2.20902610 9.37517166 1.2345197e-2
v -2.20902586 9.37517166 0.86136973
v 2.21102643 9.37517166 0.86136758
v 4.41410494 8.13005066 -5.09097719
v -4.41211128 8.13005161 -5.09097624
vt 1.4980353e-2 1.1342123e-2
vt 1.4980353e-2 7.3552683e-2
vt 2.1002647e-2 0.13518368
vt 2.2899605e-2 0.67793381
vt 6.2444840e-2 0.20696367
vt 7.8195252e-2 1.1342123e-2
vt 7.8195252e-2 7.3552683e-2
vt 8.1452981e-2 0.53357941
vt 0.12439081 0.53357917
vt 0.12439096 0.67793334
vt 0.13270989 0.53411877
vt 0.13271046 0.68166518
vt 0.14532921 0.20696384
vt 0.18677133 0.13518368
vt 0.18933673 0.53411853
vt 0.25223759 0.68166465
vt 0.33283424 0.92847937
vt 0.33283424 0.97429770
vt 0.33936039 0.78037661
vt 0.33936062 0.72649950
vt 0.37286520 0.48135528
vt 0.39195275 0.92847937
vt 0.39195275 0.97429770
vt 0.39322022 0.91553730
vt 0.40481347 0.71285057
vt 0.43398014 0.91553754
vt 0.43398049 0.78037685
vt 0.43398061 0.72649997
vt 0.48181000 0.78037709
vt 0.48181012 0.72649997
vt 0.50554538 0.71285045
vt 0.50646365 0.81502926
vt 0.50646365 0.86384690
vt 0.50646365 0.98631519
vt 0.51584727 0.73022884
vt 0.51631665 0.80542344
vt 0.53595579 0.48135492
vt 0.53893101 0.64399952
vt 0.53893101 0.71863121
vt 0.55346578 0.98631519
vt 0.56531411 0.98924881
vt 0.60447991 0.80553746
vt 0.60456210 0.73008341
vt 0.60460716 0.71863121
vt 0.60460728 0.64399952
vt 0.60567498 0.81502926
vt 0.60567510 0.86384690
vt 0.62113130 0.89403433
vt 0.80879658 0.88057953
vt 0.80879718 0.68077600
vt 0.81161982 0.85838306
vt 0.83598644 0.91738528
vt 0.84675270 0.80047965
vt 0.89531440 0.83062899
vt 0.89531469 0.73072714
vt 0.90735328 0.56928897
vt 0.90735334 0.58087492
vt 0.91738701 0.56349593
vt 0.91738701 0.57508188
vt 0.91738707 0.58666784
vt 0.92742074 0.56928891
vt 0.92742079 0.58087486
vt 0.94173521 0.98799652
vt 0.98183125 0.98048180
vt 0.98183167 0.88058013
vt 0.98183197 0.78067827
vt 0.98183227 0.68077660
vt 0.98183262 0.58087468
vn 0.0000000e+0 -1.00000000 1.4095788e-16
vn 1.1953855e-14 1.00000000 2.6607585e-7
vn 0.0000000e+0 1.00000000 2.3761109e-23
vn 4.2158625e-14 1.00000000 5.3215168e-7
vn 0.0000000e+0 -1.00000000 7.1220827e-16
vn 0.0000000e+0 -1.00000000 7.1220827e-16
vn 0.48721790 -0.22466604 -0.84388619
vn 0.97702236 -0.21313682 -1.5074380e-7
vn 0.0000000e+0 -1.00000000 2.8933458e-16
vn 0.0000000e+0 -1.00000000 2.8933458e-16
vn 0.48721790 -0.22466604 -0.84388619
vn -0.48721796 -0.22466608 -0.84388614
vn 0.0000000e+0 -1.00000000 -4.2287369e-16
vn 0.0000000e+0 -1.00000000 -4.2287369e-16
vn -0.48721796 -0.22466608 -0.84388614
vn -0.97702235 -0.21313686 8.2810739e-8
vn 0.0000000e+0 -1.00000000 0.0000000e+0
vn 0.0000000e+0 -1.00000000 0.0000000e+0
vn -0.97702235 -0.21313686 8.2810739e-8
vn -0.48974230 -0.20151783 0.84825883
vn 0.0000000e+0 -1.00000000 1.3353907e-16
vn 0.0000000e+0 -1.00000000 1.3353907e-16
vn -0.48974230 -0.20151783 0.84825883
vn 0.48974246 -0.20151781 0.84825874
vn 0.0000000e+0 -1.00000000 1.3353907e-16
vn 0.0000000e+0 -1.00000000 1.3353907e-16
vn 0.48974246 -0.20151781 0.84825874
vn 0.97702236 -0.21313682 -1.5074380e-7
vn 0.48721790 -0.22466604 -0.84388619
vn 0.97702236 -0.21313682 -1.5074380e-7
vn 0.0000000e+0 1.00000000 0.0000000e+0
vn -0.49999999 -2.0940797e-7 -0.86602541
vn -1.1726206e-13 -1.00000000 -2.6607593e-7
vn -0.82395593 -1.1490532e-7 -0.56665388
vn -6.2254610e-8 -0.91381847 -0.40612290
vn 0.48721790 -0.22466604 -0.84388619
vn -0.48721796 -0.22466608 -0.84388614
vn 0.0000000e+0 1.00000000 0.0000000e+0
vn 0.0000000e+0 1.00000000 0.0000000e+0
vn -0.48721796 -0.22466608 -0.84388614
vn -0.97702235 -0.21313686 8.2810739e-8
vn 0.0000000e+0 1.00000000 0.0000000e+0
vn 0.49999987 -2.9389909e-7 -0.86602548
vn -1.1726200e-13 -1.00000000 -2.6607585e-7
vn 0.82395528 -2.9937774e-7 -0.56665484
vn -2.3345482e-7 -0.91381843 -0.40612298
vn -0.97702235 -0.21313686 8.2810739e-8
vn -0.48974230 -0.20151783 0.84825883
vn 0.0000000e+0 1.00000000 0.0000000e+0
vn 0.50000012 1.7439809e-7 0.86602534
vn -1.1726200e-13 -1.00000000 -2.6607585e-7
vn 4.2154775e-7 1.3518541e-7 1.00000000
vn -0.48974230 -0.20151783 0.84825883
vn 0.48974246 -0.20151781 0.84825874
vn 0.0000000e+0 1.00000000 0.0000000e+0
vn 0.0000000e+0 1.00000000 0.0000000e+0
vn 0.48974246 -0.20151781 0.84825874
vn 0.97702236 -0.21313682 -1.5074380e-7
vn 0.0000000e+0 1.00000000 0.0000000e+0
vn -0.49999984 2.5888925e-7 0.86602550
vn -1.1726206e-13 -1.00000000 -2.6607593e-7
vn 6.1316035e-7 2.0277854e-7 1.00000000
vn -5.1206311e-7 1.00000000 5.3215175e-7
vn -5.1206311e-7 1.00000000 5.3215175e-7
vn -5.1206311e-7 1.00000000 5.3215175e-7
vn -0.49999999 -2.0940797e-7 -0.86602541
vn -1.00000000 -6.7592856e-8 1.3303790e-7
vn 5.1206319e-7 1.00000000 5.3215160e-7
vn 5.1206319e-7 1.00000000 5.3215160e-7
vn 5.1206319e-7 1.00000000 5.3215160e-7
vn 0.49999987 -2.9389909e-7 -0.86602548
vn 1.00000000 -1.3518577e-7 -7.1939329e-14
vn 2.0482530e-7 1.00000000 3.5476772e-7
vn 2.0482530e-7 1.00000000 3.5476772e-7
vn 2.0482530e-7 1.00000000 3.5476772e-7
vn 1.00000000 -1.3518577e-7 -7.1939329e-14
vn 0.50000012 1.7439809e-7 0.86602534
vn -2.0482523e-7 1.00000000 3.5476783e-7
vn -2.0482523e-7 1.00000000 3.5476783e-7
vn -2.0482523e-7 1.00000000 3.5476783e-7
vn -0.49999984 2.5888925e-7 0.86602550
vn -1.00000000 -6.7592856e-8 1.3303790e-7
vn 0.0000000e+0 1.00000000 0.0000000e+0
vn -0.49999999 -2.0940797e-7 -0.86602541
vn -1.00000000 -1.2028350e-6 -4.5135639e-8
vn -3.5078848e-7 0.39215997 -0.91989703
vn -0.82395593 -1.1490532e-7 -0.56665388
vn -2.2920121e-7 0.97402904 0.22642312
vn 0.0000000e+0 1.00000000 0.0000000e+0
vn 0.49999987 -2.9389909e-7 -0.86602548
vn 1.00000000 -1.0931421e-6 -1.8054252e-7
vn -9.9582209e-7 0.39216018 -0.91989695
vn 0.82395528 -2.9937774e-7 -0.56665484
vn 4.8951437e-7 0.97402902 0.22642321
vn 0.0000000e+0 1.00000000 0.0000000e+0
vn 0.50000012 1.7439809e-7 0.86602534
vn 4.2154775e-7 1.3518541e-7 1.00000000
vn 1.00000000 -1.0931421e-6 -1.8054252e-7
vn 7.0016717e-7 -8.8116194e-8 1.00000000
vn 0.0000000e+0 1.00000000 0.0000000e+0
vn -0.49999984 2.5888925e-7 0.86602550
vn 6.1316035e-7 2.0277854e-7 1.00000000
vn -1.00000000 -1.2028350e-6 -4.5135639e-8
vn 7.5402590e-7 2.6070034e-7 1.00000000
vn 0.0000000e+0 1.00000000 0.0000000e+0
vn -0.49999999 -2.0940797e-7 -0.86602541
vn -1.00000000 -6.7592856e-8 1.3303790e-7
vn 0.0000000e+0 1.00000000 0.0000000e+0
vn 0.49999987 -2.9389909e-7 -0.86602548
vn 1.00000000 -1.3518577e-7 -7.1939329e-14
vn 0.0000000e+0 1.00000000 0.0000000e+0
vn 1.00000000 -1.3518577e-7 -7.1939329e-14
vn 0.50000012 1.7439809e-7 0.86602534
vn 0.0000000e+0 1.00000000 0.0000000e+0
vn -0.49999984 2.5888925e-7 0.86602550
vn -1.00000000 -6.7592856e-8 1.3303790e-7
vn 1.00000000 2.7037130e-7 -1.3303795e-7
vn -1.1726206e-13 -1.00000000 -2.6607593e-7
vn 0.95410857 6.5761726e-7 0.29946092
vn -6.2254610e-8 -0.91381847 -0.40612290
vn -1.00000000 6.7592829e-7 1.9955701e-7
vn -1.1726200e-13 -1.00000000 -2.6607585e-7
vn -0.95410821 4.1471968e-7 0.29946205
vn -2.3345482e-7 -0.91381843 -0.40612298
vn -1.00000000 6.7592829e-7 1.9955701e-7
vn -1.1726200e-13 -1.00000000 -2.6607585e-7
vn 4.2154775e-7 1.3518541e-7 1.00000000
vn 1.00000000 2.7037130e-7 -1.3303795e-7
vn -1.1726206e-13 -1.00000000 -2.6607593e-7
vn 6.1316035e-7 2.0277854e-7 1.00000000
vn 1.00000000 2.7037130e-7 -1.3303795e-7
vn 0.92666827 0.37588019 -3.3460625e-7
vn -3.5078848e-7 0.39215997 -0.91989703
vn 0.95410857 6.5761726e-7 0.29946092
vn -2.2920121e-7 0.97402904 0.22642312
vn -1.00000000 6.7592829e-7 1.9955701e-7
vn -0.92666830 0.37588012 2.5095464e-7
vn -9.9582209e-7 0.39216018 -0.91989695
vn -0.95410821 4.1471968e-7 0.29946205
vn 4.8951437e-7 0.97402902 0.22642321
vn -1.00000000 6.7592829e-7 1.9955701e-7
vn 4.2154775e-7 1.3518541e-7 1.00000000
vn -0.92666830 0.37588012 2.5095464e-7
vn 7.0016717e-7 -8.8116194e-8 1.00000000
vn 1.00000000 2.7037130e-7 -1.3303795e-7
vn 6.1316035e-7 2.0277854e-7 1.00000000
vn 0.92666827 0.37588019 -3.3460625e-7
vn 7.5402590e-7 2.6070034e-7 1.00000000
vn 0.0000000e+0 1.00000000 0.0000000e+0
vn -1.00000000 -1.2028350e-6 -4.5135639e-8
vn -3.5078848e-7 0.39215997 -0.91989703
vn 0.0000000e+0 1.00000000 0.0000000e+0
vn 1.00000000 -1.0931421e-6 -1.8054252e-7
vn -9.9582209e-7 0.39216018 -0.91989695
vn 0.0000000e+0 1.00000000 0.0000000e+0
vn 1.00000000 -1.0931421e-6 -1.8054252e-7
vn 7.0016717e-7 -8.8116194e-8 1.00000000
vn 0.0000000e+0 1.00000000 0.0000000e+0
vn -1.00000000 -1.2028350e-6 -4.5135639e-8
vn 7.5402590e-7 2.6070034e-7 1.00000000
vn 0.0000000e+0 1.00000000 0.0000000e+0
vn 0.92666827 0.37588019 -3.3460625e-7
vn -3.5078848e-7 0.39215997 -0.91989703
vn 0.0000000e+0 1.00000000 0.0000000e+0
vn -0.92666830 0.37588012 2.5095464e-7
vn -9.9582209e-7 0.39216018 -0.91989695
vn 0.0000000e+0 1.00000000 0.0000000e+0
vn -0.92666830 0.37588012 2.5095464e-7
vn 7.0016717e-7 -8.8116194e-8 1.00000000
vn 0.0000000e+0 1.00000000 0.0000000e+0
vn 0.92666827 0.37588019 -3.3460625e-7
vn 7.5402590e-7 2.6070034e-7 1.00000000
vn 0.95410857 6.5761726e-7 0.29946092
vn -0.82395593 -1.1490532e-7 -0.56665388
vn -6.2254610e-8 -0.91381847 -0.40612290
vn -2.2920121e-7 0.97402904 0.22642312
vn -0.95410821 4.1471968e-7 0.29946205
vn 0.82395528 -2.9937774e-7 -0.56665484
vn -2.3345482e-7 -0.91381843 -0.40612298
vn 4.8951437e-7 0.97402902 0.22642321
g Cylinder01_sep4_01 - Default
usemtl 01 - Default
f 1/59/1 3/60/9 2/57/5
f 1/59/1 4/62/13 3/60/10
f 1/59/1 5/61/17 4/62/14
f 1/59/1 6/58/21 5/61/18
f 1/59/1 7/56/25 6/58/22
f 2/57/6 7/56/26 1/59/1
f 2/25/8 8/21/30 13/37/58 7/31/28
f 3/25/11 9/21/36 8/37/29 2/31/7
f 4/25/15 10/21/40 9/37/37 3/31/12
f 5/25/19 11/21/47 10/37/41 4/31/16
f 6/25/23 12/21/53 11/37/48 5/31/20
f 7/25/27 13/21/57 12/37/54 6/31/24
f 8/43/33 29/42/118 32/36/129 13/35/61
f 8/43/35 45/51/175 29/42/120
f 9/64/38 15/65/2 14/54/63 8/49/31
f 10/49/42 16/54/68 15/65/2 9/64/39
f 10/45/43 22/44/90 26/39/109 16/38/71
f 10/45/45 46/53/178 22/44/93
f 11/35/51 31/36/126 30/42/122 10/43/44
f 12/68/55 18/67/3 17/55/73 11/50/49
f 13/50/59 19/55/78 18/67/3 12/68/56
f 13/28/60 24/27/101 28/29/115 19/30/81
f 13/28/62 32/20/130 36/19/146 24/27/102
f 14/54/65 20/66/4 19/55/80
f 14/38/66 25/39/106 21/44/84 8/45/32
f 15/65/2 20/66/4 14/54/64
f 16/54/69 20/66/4 15/65/2
f 16/2/72 26/1/110 27/6/112 17/7/76
f 17/55/74 20/66/4 16/54/70
f 17/30/77 27/29/113 23/27/96 11/28/50
f 18/67/3 20/66/4 17/55/75
f 19/55/79 20/66/4 18/67/3
f 19/1/82 28/2/116 25/7/107 14/6/67
f 21/14/83 25/13/105 28/5/114 24/3/100
f 21/10/86 37/9/151 41/8/163 33/4/133
f 21/44/87 45/53/174 8/45/34
f 22/16/91 38/15/153 39/11/156 23/12/98
f 22/41/94 46/63/180 34/48/140
f 23/3/95 27/5/111 26/13/108 22/14/89
f 23/27/97 35/19/142 31/20/127 11/28/52
f 23/27/99 39/26/157 43/24/169 35/19/144
f 24/12/103 40/11/159 37/15/150 21/16/85
f 29/46/117 33/47/131 36/33/145 32/32/128
f 29/46/119 45/52/173 33/47/134
f 30/42/124 46/51/179 10/43/46
f 31/32/125 35/33/141 34/47/136 30/46/121
f 33/47/132 41/40/162 44/34/171 36/33/147
f 33/48/135 45/63/176 21/41/88
f 34/4/138 42/8/166 38/9/154 22/10/92
f 34/47/139 46/52/177 30/46/123
f 35/33/143 43/34/168 42/40/165 34/47/137
f 36/19/148 44/24/172 40/26/160 24/27/104
f 38/22/152 42/23/164 43/18/167 39/17/155
f 40/17/158 44/18/170 41/23/161 37/22/149
