# Exported from Wings 3D 1.0.1
mtllib turret.mtl
o Box01_sep4
#32 vertices, 40 faces
v -4.49900007 4.53158426 0.99900013
v -2.49900007 4.53158426 0.99900013
v -4.49900007 4.53158426 -1.00100005
v -2.49900007 4.53158426 -1.00100005
v -4.49900007 5.03158426 0.99900025
v -2.49900007 5.03158426 0.99900025
v -4.49900007 5.03158426 -1.00099981
v -2.49900007 5.03158426 -1.00099981
v -4.49900007 5.03158426 1.99900019
v -2.49900007 5.03158426 1.99900019
v -4.49900007 5.03158426 -2.00099969
v -2.49900007 5.03158426 -2.00099969
v -4.49900007 6.28158426 0.99900013
v -2.49900007 6.28158426 0.99900013
v -4.49900007 6.28158426 -1.00099981
v -2.49900007 6.28158426 -1.00099981
v -4.49900007 6.28158426 1.99900019
v -2.49900007 6.28158426 1.99900019
v -4.49900007 6.28158426 -2.00099969
v -2.49900007 6.28158426 -2.00099969
v -3.96064377 6.78158379 0.99900013
v -3.03735638 6.78158379 0.99900013
v -3.96064377 6.78158379 -1.00099981
v -3.03735638 6.78158379 -1.00099981
v -3.96064377 6.78158379 1.99900019
v -3.03735638 6.78158379 1.99900019
v -3.96064377 6.78158379 -2.00099969
v -3.03735638 6.78158379 -2.00099969
v 0.95397002 7.87993956 2.85775113
v 0.95397002 7.87993956 -2.85975099
v -3.49900007 6.53158426 0.55722803
v -3.49900007 6.53158426 -0.55922776
vt 8.2094278e-3 0.71820837
vt 8.6776474e-3 0.83669144
vt 8.9640450e-3 0.77116299
vt 1.8992707e-2 0.67285657
vt 1.8992946e-2 0.60702246
vt 1.8993422e-2 0.47535390
vt 1.8993661e-2 0.40951973
vt 3.9466787e-2 0.71116000
vt 4.6297256e-2 0.77163064
vt 4.7047466e-2 0.83652443
vt 5.1910102e-2 0.60702258
vt 5.1910579e-2 0.47535402
vt 5.2277543e-2 0.45312923
vt 5.2277766e-2 0.39102542
vt 6.2820919e-2 0.74944210
vt 7.5621761e-2 0.86599636
vt 7.5921588e-2 0.93190712
vt 0.10458575 0.77205032
vt 0.10597055 0.83598328
vt 0.11438145 0.45312947
vt 0.11438168 0.39102566
vt 0.27096587 0.76978922
vt 0.27123019 0.84061438
vt 0.29212379 0.71139455
vt 0.30183896 0.86883092
vt 0.35415271 0.86863595
vt 0.36747071 0.71778309
vt 0.38428634 0.76936650
vt 0.38455030 0.84019202
vt 0.43031394 0.95257747
vt 0.43031394 0.99040020
vt 0.49083030 0.95257747
vt 0.49083030 0.99040020
vt 0.64006734 0.59884238
vt 0.66662216 0.64770073
vt 0.86224413 0.59898728
vt 0.87539971 0.59944063
vt 0.87539971 0.65740186
vt 0.87718654 0.67118001
vt 0.90197903 0.81199616
vt 0.90197903 0.85614949
vt 0.91998577 0.69008756
vt 0.92176855 0.59944063
vt 0.92176855 0.65740186
vt 0.92405576 0.81199616
vt 0.92405576 0.85614949
vt 0.93070662 0.59904629
vt 0.93070662 0.66003531
vt 0.94512391 0.69762194
vt 0.96162724 0.68238020
vt 0.96278501 0.67118001
vt 0.96820903 0.81199616
vt 0.96820903 0.85614949
vt 0.97949791 0.59904629
vt 0.97949791 0.66003531
vt 0.98923159 0.69742942
vt 0.99028569 0.81199616
vt 0.99028569 0.85614949
vn -0.71662706 -0.67879890 0.16024267
vn 0.71662706 -0.67879890 0.16024267
vn -0.71662707 -0.67879888 -0.16024273
vn 0.71662707 -0.67879888 -0.16024273
vn -0.90453404 0.30151132 -0.30151135
vn 0.90453404 0.30151132 -0.30151135
vn -0.90453403 0.30151134 0.30151134
vn 0.90453403 0.30151134 0.30151134
vn -0.76169464 -0.34064020 0.55116741
vn 0.76169464 -0.34064020 0.55116741
vn -0.76169463 -0.34064017 -0.55116746
vn 0.76169463 -0.34064017 -0.55116746
vn -0.68513430 0.11213862 -0.71973322
vn 0.55694072 -0.24140300 -0.79469593
vn -0.68513428 0.11213865 0.71973324
vn 0.55694071 -0.24140297 0.79469595
vn -0.61940475 0.27006778 0.73715748
vn 0.36986792 -0.31765274 0.87309476
vn -0.61940475 0.27006778 -0.73715748
vn 0.36986790 -0.31765276 -0.87309476
vn -0.32203467 0.87859342 -0.35265744
vn 0.11825755 0.85897551 -0.49817289
vn -0.32203466 0.87859341 0.35265748
vn 0.11825754 0.85897550 0.49817291
vn -0.32203970 0.81996895 0.47322441
vn -0.15815369 0.66385104 0.73095089
vn -0.32203970 0.81996895 -0.47322441
vn -0.15815372 0.66385102 -0.73095090
vn 0.79012656 0.57157703 0.22135879
vn 0.79012658 0.57157700 -0.22135882
vn 4.1668805e-17 0.36526683 -0.93090286
vn 0.0000000e+0 0.36526679 0.93090288
g Box01_sep4_01 - Default
usemtl 01 - Default
f 1/53/1 3/46/3 4/45/4 2/52/2
f 1/12/1 5/6/5 7/5/7 3/11/3
f 1/12/1 9/7/9 5/6/5
f 2/52/2 10/57/10 9/58/9 1/53/1
f 3/46/3 11/41/11 12/40/12 4/45/4
f 4/11/4 8/5/8 6/6/6 2/12/2
f 4/11/4 12/4/12 8/5/8
f 5/31/5 13/30/13 14/32/14 6/33/6
f 6/21/6 8/20/8 7/13/7 5/14/5
f 6/6/6 10/7/10 2/12/2
f 6/55/6 14/54/14 18/47/18 10/48/10
f 7/5/7 11/4/11 3/11/3
f 7/38/7 15/37/15 19/43/19 11/44/11
f 8/33/8 16/32/16 15/30/15 7/31/7
f 9/44/9 17/43/17 13/37/13 5/38/5
f 10/22/10 18/23/18 17/29/17 9/28/9
f 11/28/11 19/29/19 20/23/20 12/22/12
f 12/48/12 20/47/20 16/54/16 8/55/8
f 13/51/13 31/42/31 14/39/14
f 14/34/14 29/36/29 18/35/18
f 14/15/14 31/1/31 22/8/22
f 15/2/15 23/10/23 27/9/27 19/3/19
f 15/56/15 32/49/32 23/50/23
f 16/15/16 30/24/30 24/8/24
f 16/39/16 32/42/32 15/51/15
f 17/3/17 25/9/25 21/10/21 13/2/13
f 18/23/18 26/25/26 25/26/25 17/29/17
f 18/23/18 29/17/29 26/25/26
f 19/29/19 27/26/27 28/25/28 20/23/20
f 20/35/20 30/36/30 16/34/16
f 21/10/21 25/9/25 26/18/26 22/19/22
f 21/50/21 31/49/31 13/56/13
f 22/8/22 29/24/29 14/15/14
f 22/19/22 31/16/31 21/10/21
f 23/10/23 32/16/32 24/19/24
f 24/19/24 28/18/28 27/9/27 23/10/23
f 24/19/24 30/27/30 28/18/28
f 24/8/24 32/1/32 16/15/16
f 26/18/26 29/27/29 22/19/22
f 28/25/28 30/17/30 20/23/20
