# Exported from Wings 3D 0.99.04a
mtllib bottomspin.mtl
o Cylinder01_sep3
#15 vertices, 17 faces
v 1.40100002 2.20099998 -1.0000062e-3
v 0.70099992 2.20099998 -1.21343565
v -0.69900006 2.20099998 -1.21343553
v -1.39899993 2.20099998 -9.9988387e-4
v -0.69899988 2.20099998 1.21143556
v 0.70100015 2.20099998 1.21143544
v 1.40100002 2.70099998 -1.0000062e-3
v 0.70099992 2.70099998 -1.21343565
v -0.69900006 2.70099998 -1.21343553
v -1.39899993 2.70099998 -9.9988387e-4
v -0.69899988 2.70099998 1.21143556
v 0.70100015 2.70099998 1.21143544
v 1.97546530 2.45099998 1.13895762
v 9.9984009e-4 2.45099998 -2.28091598
v -1.97346473 2.45099998 1.13895798
vt 0.28429350 0.38412282
vt 0.40529925 0.20161113
vt 0.42828786 0.20013726
vt 0.52002996 0.38341421
vt 0.53129172 1.4382809e-2
vt 0.53293949 0.38275117
vt 0.74541634 1.4730319e-2
vt 0.74541634 0.38275117
vt 0.85165483 0.19874075
vt 0.87749171 0.20861250
vt 0.87778318 1.0656178e-2
vt 0.91989493 0.38473031
vt 0.96229708 0.20861220
vt 0.96258867 1.0655880e-2
vn 0.67417319 -0.68007785 -0.28807052
vn 0.58656290 -0.68007785 -0.43981595
vn -0.58656297 -0.68007785 -0.43981586
vn -0.67417328 -0.68007784 -0.28807033
vn -8.7610281e-2 -0.68007784 0.72788637
vn 8.7610390e-2 -0.68007785 0.72788635
vn 0.67417319 0.68007785 -0.28807052
vn 0.58656290 0.68007785 -0.43981595
vn -0.58656297 0.68007785 -0.43981586
vn -0.67417328 0.68007784 -0.28807033
vn -8.7610281e-2 0.68007784 0.72788637
vn 8.7610390e-2 0.68007785 0.72788635
vn 0.86602548 -7.1499015e-17 0.49999987
vn -8.3545111e-8 0.0000000e+0 -1.00000000
vn -0.86602536 -7.1499002e-17 0.50000008
g Cylinder01_sep3_01 - Default
usemtl 01 - Default
f 1/3/1 6/5/6 5/7/5 4/9/4 3/8/3 2/6/2
f 1/4/1 13/2/13 6/1/6
f 2/13/2 8/10/8 7/11/7 1/14/1
f 2/13/2 14/12/14 8/10/8
f 3/4/3 14/2/14 2/1/2
f 4/13/4 10/10/10 9/11/9 3/14/3
f 4/13/4 15/12/15 10/10/10
f 5/4/5 15/2/15 4/1/4
f 6/13/6 12/10/12 11/11/11 5/14/5
f 6/13/6 13/12/13 12/10/12
f 7/10/7 13/12/13 1/13/1
f 8/6/8 9/8/9 10/9/10 11/7/11 12/5/12 7/3/7
f 8/1/8 14/2/14 9/4/9
f 9/10/9 14/12/14 3/13/3
f 10/1/10 15/2/15 11/4/11
f 11/10/11 15/12/15 5/13/5
f 12/1/12 13/2/13 7/4/7
