# Exported from Wings 3D 0.99.04a
mtllib topspin.mtl
o Cylinder01
#15 vertices, 17 faces
v 1.00100005 3.40100002 -9.9994033e-4
v 0.50099999 3.40100002 -0.86702538
v -0.49900007 3.40100002 -0.86702532
v -0.99900001 3.40100002 -9.9985290e-4
v -0.49899992 3.40100002 0.86502552
v 0.50100011 3.40100002 0.86502540
v 1.00100005 3.90100002 -9.9994033e-4
v 0.50099999 3.90100002 -0.86702538
v -0.49900007 3.90100002 -0.86702532
v -0.99900001 3.90100002 -9.9985290e-4
v -0.49899992 3.90100002 0.86502552
v 0.50100011 3.90100002 0.86502540
v 1.43934906 3.65100002 0.82943112
v 9.9991367e-4 3.65100002 -1.66186225
v -1.43734884 3.65100002 0.82943135
vt 0.30317771 1.4818639e-2
vt 0.37929738 0.93350559
vt 0.41128626 0.18447973
vt 0.42828786 0.20013726
vt 0.50377828 0.89400512
vt 0.50377828 0.97300553
vt 0.51741499 1.3572991e-2
vt 0.53129172 1.4382809e-2
vt 0.53293949 0.38275117
vt 0.63634121 0.89400512
vt 0.63634121 0.97300553
vt 0.74541634 1.4730319e-2
vt 0.74541634 0.38275117
vt 0.85165483 0.19874075
vn 0.68844934 -0.66916969 -0.27973100
vn 0.58647877 -0.66916969 -0.45634918
vn -0.58647882 -0.66916969 -0.45634912
vn -0.68844939 -0.66916969 -0.27973088
vn -0.10197049 -0.66916969 0.73608012
vn 0.10197061 -0.66916969 0.73608011
vn 0.68844934 0.66916969 -0.27973100
vn 0.58647877 0.66916969 -0.45634918
vn -0.58647882 0.66916969 -0.45634912
vn -0.68844939 0.66916969 -0.27973088
vn -0.10197049 0.66916969 0.73608012
vn 0.10197061 0.66916969 0.73608011
vn 0.86602543 -6.6679544e-17 0.49999995
vn -5.7459778e-8 0.0000000e+0 -1.00000000
vn -0.86602535 -6.6679540e-17 0.50000009
g Cylinder01_01 - Default
usemtl 01 - Default
f 1/4/1 6/8/6 5/12/5 4/14/4 3/13/3 2/9/2
f 1/1/1 13/3/13 6/7/6
f 2/6/2 8/5/8 7/10/7 1/11/1
f 2/6/2 14/2/14 8/5/8
f 3/1/3 14/3/14 2/7/2
f 4/6/4 10/5/10 9/10/9 3/11/3
f 4/6/4 15/2/15 10/5/10
f 5/1/5 15/3/15 4/7/4
f 6/6/6 12/5/12 11/10/11 5/11/5
f 6/6/6 13/2/13 12/5/12
f 7/5/7 13/2/13 1/6/1
f 8/9/8 9/13/9 10/14/10 11/12/11 12/8/12 7/4/7
f 8/7/8 14/3/14 9/1/9
f 9/5/9 14/2/14 3/6/3
f 10/7/10 15/3/15 11/1/11
f 11/5/11 15/2/15 5/6/5
f 12/7/12 13/3/13 7/1/7
