# Exported from Wings 3D 1.0.1
mtllib arm2.mtl
o Box02_sep7
#15 vertices, 16 faces
v 2.00099993 4.00099993 0.24899995
v 2.00099993 4.00099993 -0.25100002
v 2.00099993 4.50099993 0.24899995
v 2.00099993 4.50099993 -0.25100002
v 1.50100005 4.00099993 0.24899998
v 1.50100005 4.00099993 -0.25100002
v 1.50100005 4.50099993 0.24899998
v 1.50100005 4.50099993 -0.25100002
v 1.00100005 4.00099993 0.24900000
v 1.00100005 4.00099993 -0.25099999
v 1.00100005 4.25099993 0.24900000
v 1.00100005 4.25099993 -0.25099999
v 1.00100005 3.50099993 0.24900000
v 1.00099993 3.50099993 -0.25099999
v 1.75100017 6.50099993 -1.0000329e-3
vt 2.2093266e-2 0.87868011
vt 2.3339635e-2 0.98390067
vt 0.12957889 0.98390114
vt 0.29798344 0.28460217
vt 0.29928681 0.34311122
vt 0.29928681 0.44770026
vt 0.35172674 0.87290514
vt 0.40552607 0.44770011
vt 0.40552613 0.34311134
vt 0.40587291 0.28460294
vt 0.51074672 0.34186456
vt 0.51074672 0.39498439
vn 1.00000000 0.0000000e+0 0.0000000e+0
vn 0.0000000e+0 -1.00000000 0.0000000e+0
vn 5.9604659e-8 -5.5511164e-17 1.00000000
vn 1.00000000 0.0000000e+0 0.0000000e+0
vn 0.0000000e+0 -1.00000000 0.0000000e+0
vn 0.0000000e+0 1.1102233e-16 -1.00000000
vn 1.00000000 0.0000000e+0 0.0000000e+0
vn 5.9604659e-8 -5.5511164e-17 1.00000000
vn 0.99227789 0.12403462 0.0000000e+0
vn 5.9144384e-8 0.12403474 0.99227788
vn 1.00000000 0.0000000e+0 0.0000000e+0
vn 0.0000000e+0 1.1102233e-16 -1.00000000
vn 0.99227789 0.12403462 0.0000000e+0
vn 0.0000000e+0 0.12403473 -0.99227788
vn 0.0000000e+0 -1.00000000 0.0000000e+0
vn 5.9604659e-8 -5.5511164e-17 1.00000000
vn 2.9802322e-8 -3.7007434e-17 1.00000000
vn 0.70710674 -0.70710682 -8.4293693e-8
vn 2.9802322e-8 -5.5511151e-17 1.00000000
vn 0.0000000e+0 -1.00000000 0.0000000e+0
vn 0.0000000e+0 1.1102233e-16 -1.00000000
vn -5.9604645e-8 1.4802974e-16 -1.00000000
vn 0.70710674 -0.70710682 -8.4293693e-8
vn -5.9604645e-8 1.4210855e-14 -1.00000000
vn 5.9604659e-8 -5.5511164e-17 1.00000000
vn -0.44721360 0.89442719 0.0000000e+0
vn 2.9802322e-8 -3.7007434e-17 1.00000000
vn 5.9144384e-8 0.12403474 0.99227788
vn -0.99227787 0.12403479 0.0000000e+0
vn 0.0000000e+0 1.1102233e-16 -1.00000000
vn -5.9604645e-8 1.4802974e-16 -1.00000000
vn -0.44721360 0.89442719 0.0000000e+0
vn 0.0000000e+0 0.12403473 -0.99227788
vn -0.99227787 0.12403479 0.0000000e+0
vn -1.00000000 0.0000000e+0 0.0000000e+0
vn 2.9802322e-8 -3.7007434e-17 1.00000000
vn -1.00000000 1.1920929e-7 1.1920929e-7
vn 2.9802322e-8 -5.5511151e-17 1.00000000
vn -1.00000000 0.0000000e+0 0.0000000e+0
vn -5.9604645e-8 1.4802974e-16 -1.00000000
vn -1.00000000 1.1920929e-7 1.1920929e-7
vn -5.9604645e-8 1.4210855e-14 -1.00000000
vn -1.00000000 0.0000000e+0 0.0000000e+0
vn -0.44721360 0.89442719 0.0000000e+0
vn 2.9802322e-8 -3.7007434e-17 1.00000000
vn -1.00000000 0.0000000e+0 0.0000000e+0
vn -5.9604645e-8 1.4802974e-16 -1.00000000
vn -0.44721360 0.89442719 0.0000000e+0
vn -1.00000000 1.1920929e-7 1.1920929e-7
vn 0.70710674 -0.70710682 -8.4293693e-8
vn 2.9802322e-8 -5.5511151e-17 1.00000000
vn -1.00000000 1.1920929e-7 1.1920929e-7
vn 0.70710674 -0.70710682 -8.4293693e-8
vn -5.9604645e-8 1.4210855e-14 -1.00000000
vn 0.99227789 0.12403462 0.0000000e+0
vn 0.0000000e+0 0.12403473 -0.99227788
vn 5.9144384e-8 0.12403474 0.99227788
vn -0.99227787 0.12403479 0.0000000e+0
g Box02_sep7_Stones_Travertn
usemtl Stones_Travertn
f 1/9/2 5/8/15 6/6/20 2/5/5
f 2/9/4 4/8/11 3/6/7 1/5/1
f 2/5/6 6/9/21 8/8/30 4/6/12
f 3/6/8 7/8/25 5/9/16 1/5/3
f 3/6/10 15/7/57 7/8/28
f 4/8/13 15/7/55 3/6/9
f 5/9/18 13/8/50 14/6/53 6/5/23
f 6/9/22 10/11/40 12/12/47 8/8/31
f 6/1/24 14/3/54 10/2/42
f 7/8/27 11/12/45 9/11/36 5/9/17
f 7/8/29 15/7/58 8/6/34
f 8/6/32 12/5/48 11/9/44 7/8/26
f 8/8/33 15/7/56 4/6/14
f 9/5/35 11/4/43 12/10/46 10/9/39
f 9/2/38 13/3/51 5/1/19
f 10/9/41 14/8/52 13/6/49 9/5/37
