# Exported from Wings 3D 1.0.1
mtllib arm3.mtl
o Box02_sep10
#15 vertices, 16 faces
v -0.24900000 4.00099993 -2.00099993
v 0.25099999 4.00099993 -2.00099993
v -0.24900000 4.50099993 -2.00099993
v 0.25099999 4.50099993 -2.00099993
v -0.24900000 4.00099993 -1.50100005
v 0.25099999 4.00099993 -1.50100005
v -0.24900000 4.50099993 -1.50100005
v 0.25099999 4.50099993 -1.50100005
v -0.24900000 4.00099993 -1.00100005
v 0.25099999 4.00099993 -1.00100005
v -0.24900000 4.25099993 -1.00100005
v 0.25099999 4.25099993 -1.00100005
v -0.24900000 3.50099993 -1.00100005
v 0.25099999 3.50099993 -1.00100005
v 1.0000000e-3 6.50099993 -1.75099993
vt 2.2093266e-2 0.87868011
vt 2.3339635e-2 0.98390067
vt 0.12957889 0.98390114
vt 0.29798344 0.28460217
vt 0.29928681 0.34311122
vt 0.29928681 0.44770026
vt 0.35172674 0.87290514
vt 0.40552607 0.44770011
vt 0.40552613 0.34311134
vt 0.40587291 0.28460294
vt 0.51074672 0.34186456
vt 0.51074672 0.39498439
vn 0.0000000e+0 0.0000000e+0 -1.00000000
vn 0.0000000e+0 -1.00000000 0.0000000e+0
vn -1.00000000 0.0000000e+0 0.0000000e+0
vn 0.0000000e+0 0.0000000e+0 -1.00000000
vn 0.0000000e+0 -1.00000000 0.0000000e+0
vn 1.00000000 0.0000000e+0 0.0000000e+0
vn 0.0000000e+0 0.0000000e+0 -1.00000000
vn -1.00000000 0.0000000e+0 0.0000000e+0
vn 0.0000000e+0 0.12403473 -0.99227788
vn -0.99227788 0.12403473 0.0000000e+0
vn 0.0000000e+0 0.0000000e+0 -1.00000000
vn 1.00000000 0.0000000e+0 0.0000000e+0
vn 0.0000000e+0 0.12403473 -0.99227788
vn 0.99227788 0.12403473 0.0000000e+0
vn 0.0000000e+0 -1.00000000 0.0000000e+0
vn -1.00000000 0.0000000e+0 0.0000000e+0
vn -1.00000000 0.0000000e+0 0.0000000e+0
vn 0.0000000e+0 -0.70710678 -0.70710678
vn -1.00000000 0.0000000e+0 0.0000000e+0
vn 0.0000000e+0 -1.00000000 0.0000000e+0
vn 1.00000000 0.0000000e+0 0.0000000e+0
vn 1.00000000 0.0000000e+0 0.0000000e+0
vn 0.0000000e+0 -0.70710678 -0.70710678
vn 1.00000000 0.0000000e+0 0.0000000e+0
vn -1.00000000 0.0000000e+0 0.0000000e+0
vn 0.0000000e+0 0.89442719 0.44721360
vn -1.00000000 0.0000000e+0 0.0000000e+0
vn -0.99227788 0.12403473 0.0000000e+0
vn 0.0000000e+0 0.12403468 0.99227788
vn 1.00000000 0.0000000e+0 0.0000000e+0
vn 1.00000000 0.0000000e+0 0.0000000e+0
vn 0.0000000e+0 0.89442719 0.44721360
vn 0.99227788 0.12403473 0.0000000e+0
vn 0.0000000e+0 0.12403468 0.99227788
vn 0.0000000e+0 0.0000000e+0 1.00000000
vn -1.00000000 0.0000000e+0 0.0000000e+0
vn 0.0000000e+0 0.0000000e+0 1.00000000
vn -1.00000000 0.0000000e+0 0.0000000e+0
vn 0.0000000e+0 0.0000000e+0 1.00000000
vn 1.00000000 0.0000000e+0 0.0000000e+0
vn 0.0000000e+0 0.0000000e+0 1.00000000
vn 1.00000000 0.0000000e+0 0.0000000e+0
vn 0.0000000e+0 0.0000000e+0 1.00000000
vn 0.0000000e+0 0.89442719 0.44721360
vn -1.00000000 0.0000000e+0 0.0000000e+0
vn 0.0000000e+0 0.0000000e+0 1.00000000
vn 1.00000000 0.0000000e+0 0.0000000e+0
vn 0.0000000e+0 0.89442719 0.44721360
vn 0.0000000e+0 0.0000000e+0 1.00000000
vn 0.0000000e+0 -0.70710678 -0.70710678
vn -1.00000000 0.0000000e+0 0.0000000e+0
vn 0.0000000e+0 0.0000000e+0 1.00000000
vn 0.0000000e+0 -0.70710678 -0.70710678
vn 1.00000000 0.0000000e+0 0.0000000e+0
vn 0.0000000e+0 0.12403473 -0.99227788
vn 0.99227788 0.12403473 0.0000000e+0
vn -0.99227788 0.12403473 0.0000000e+0
vn 0.0000000e+0 0.12403468 0.99227788
g Box02_sep10_Stones_Travertn
usemtl Stones_Travertn
f 1/9/1 3/8/7 4/6/11 2/5/4
f 1/5/3 5/9/16 7/8/25 3/6/8
f 2/9/5 6/8/20 5/6/15 1/5/2
f 3/8/9 15/7/55 4/6/13
f 4/6/12 8/8/30 6/9/21 2/5/6
f 4/6/14 15/7/56 8/8/33
f 5/9/17 9/11/36 11/12/45 7/8/27
f 5/1/19 13/3/51 9/2/38
f 6/9/23 14/8/53 13/6/50 5/5/18
f 7/6/26 11/5/44 12/9/48 8/8/32
f 7/8/28 15/7/57 3/6/10
f 8/8/31 12/12/47 10/11/40 6/9/22
f 8/8/34 15/7/58 7/6/29
f 9/9/37 13/8/49 14/6/52 10/5/41
f 10/5/39 12/4/46 11/10/43 9/9/35
f 10/2/42 14/3/54 6/1/24
