# Exported from Wings 3D 1.0.1
mtllib base.mtl
o Box02_sep12
#40 vertices, 58 faces
v -1.49899995 1.0000000e-3 0.49900001
v -0.49900001 1.0000000e-3 1.49899995
v 0.50099999 1.0000000e-3 1.49899995
v 1.50100005 1.0000000e-3 0.49900001
v -0.49900001 1.0000000e-3 0.49900001
v 0.50099999 1.0000000e-3 0.49900001
v -1.49899995 1.0000000e-3 -0.50099999
v -0.49900001 1.0000000e-3 -0.50099999
v 0.50099999 1.0000000e-3 -0.50099999
v 1.50100005 1.0000000e-3 -0.50099999
v -0.49900001 1.0000000e-3 -1.50100005
v 0.50099999 1.0000000e-3 -1.50100005
v -1.49899995 1.00100005 0.49900001
v -0.49900001 1.00100005 1.49899995
v 0.50099999 1.00100005 1.49899995
v 1.50100005 1.00100005 0.49900001
v -0.49900001 3.00099993 0.49900001
v 0.50099999 3.00099993 0.49900001
v -1.49899995 1.00100005 -0.50099999
v -0.49900001 3.00099993 -0.50099999
v 0.50099999 3.00099993 -0.50099999
v 1.50100005 1.00100005 -0.50099999
v -0.49900001 1.00100005 -1.50100005
v 0.50099999 1.00100005 -1.50100005
v -0.33097455 3.00099993 0.99492365
v 0.33297452 3.00099993 0.99492365
v -0.99492365 3.00099993 0.33097455
v 0.99692363 3.00099993 0.33097455
v -0.99492365 3.00099993 -0.33297452
v 0.99692363 3.00099993 -0.33297452
v -0.33097455 3.00099993 -0.99692363
v 0.33297452 3.00099993 -0.99692363
v -1.89899993 1.0000000e-3 1.89899993
v 1.90100002 1.0000000e-3 1.89899993
v -1.89899993 1.0000000e-3 -1.90100002
v 1.90100002 1.0000000e-3 -1.90100002
v -1.32151830 2.50099993 1.32151806
v 1.32351828 2.50099993 1.32151830
v -1.32151830 2.50099993 -1.32351840
v 1.32351840 2.50099993 -1.32351840
vt -0.33605316 1.3741115e-2
vt -0.33605316 0.32973883
vt -0.30279022 0.13016133
vt -0.30279022 0.21331865
vt -0.21963294 4.7004037e-2
vt -0.21963294 0.13016133
vt -0.21963294 0.21331865
vt -0.21963294 0.29647592
vt -0.13647562 4.7004037e-2
vt -0.13647562 0.13016133
vt -0.13647562 0.21331865
vt -0.13647562 0.29647592
vt -5.3318348e-2 0.13016133
vt -5.3318348e-2 0.21331865
vt -2.0055439e-2 1.3741115e-2
vt -2.0055439e-2 0.32973883
vt 0.37867692 0.88748026
vt 0.47119477 0.48693120
vt 0.60252374 0.16778930
vt 0.60279113 0.32747084
vt 0.60298133 0.72725791
vt 0.60298365 0.88747710
vt 0.63009059 0.40681958
vt 0.73634088 0.40639710
vt 0.76274163 0.16715135
vt 0.76300901 0.32683444
vt 0.76345897 0.88747472
vt 0.76370949 0.72767591
vt 0.80996138 0.37798369
vt 0.92230612 0.95460701
vt 0.98600584 0.68988448
vn 0.0000000e+0 -1.00000000 -6.1149010e-17
vn 0.0000000e+0 -1.00000000 -6.1149003e-17
vn -1.00000000 0.0000000e+0 0.0000000e+0
vn 2.4093383e-20 -1.00000000 -6.1438130e-17
vn -0.96152395 -1.1429939e-16 -0.27472113
vn 0.0000000e+0 -1.00000000 -6.1149010e-17
vn 0.0000000e+0 -1.00000000 -6.1149006e-17
vn 0.0000000e+0 0.0000000e+0 1.00000000
vn 2.4093383e-20 -1.00000000 -6.1438130e-17
vn 0.27472113 0.0000000e+0 0.96152395
vn 0.0000000e+0 -1.00000000 -6.1149006e-17
vn 0.0000000e+0 -1.00000000 -6.1149003e-17
vn 0.0000000e+0 0.0000000e+0 1.00000000
vn -2.4093381e-20 -1.00000000 -6.1438125e-17
vn -0.27472111 0.0000000e+0 0.96152395
vn 0.0000000e+0 -1.00000000 -6.1149003e-17
vn 0.0000000e+0 -1.00000000 -6.1149003e-17
vn 1.00000000 0.0000000e+0 0.0000000e+0
vn -2.4093381e-20 -1.00000000 -6.1438125e-17
vn 0.96152395 -1.1445190e-16 -0.27472113
vn 0.0000000e+0 -1.00000000 -6.1149010e-17
vn 0.0000000e+0 -1.00000000 -6.1149006e-17
vn 0.0000000e+0 -1.00000000 -6.1149003e-17
vn 0.0000000e+0 -1.00000000 -6.1149003e-17
vn 0.0000000e+0 -1.00000000 -6.1149006e-17
vn 0.0000000e+0 -1.00000000 -6.1149003e-17
vn 0.0000000e+0 -1.00000000 -6.1149003e-17
vn 0.0000000e+0 -1.00000000 -6.1149003e-17
vn 0.0000000e+0 -1.00000000 -6.1149003e-17
vn 0.0000000e+0 -1.00000000 -6.1149003e-17
vn -1.00000000 0.0000000e+0 0.0000000e+0
vn 2.4091758e-20 -1.00000000 -6.1197191e-17
vn -0.96152395 2.2859877e-16 0.27472111
vn 0.0000000e+0 -1.00000000 -6.1149003e-17
vn 0.0000000e+0 -1.00000000 -6.1149003e-17
vn 0.0000000e+0 -1.00000000 -6.1149003e-17
vn 0.0000000e+0 -1.00000000 -6.1365839e-17
vn 0.0000000e+0 -1.00000000 -6.1149003e-17
vn 0.0000000e+0 -1.00000000 -6.1149003e-17
vn 0.0000000e+0 -1.00000000 -6.1365839e-17
vn 0.0000000e+0 -1.00000000 -6.1148995e-17
vn 0.0000000e+0 -1.00000000 -6.1149003e-17
vn 0.0000000e+0 -1.00000000 -6.1148995e-17
vn 1.00000000 0.0000000e+0 0.0000000e+0
vn -2.4091756e-20 -1.00000000 -6.1197185e-17
vn 0.96152395 2.2890378e-16 0.27472111
vn 0.0000000e+0 -1.00000000 -6.1149003e-17
vn 0.0000000e+0 -1.00000000 -6.1365839e-17
vn 0.0000000e+0 0.0000000e+0 -1.00000000
vn 2.4091758e-20 -1.00000000 -6.1197191e-17
vn 0.27472113 0.0000000e+0 -0.96152395
vn 0.0000000e+0 -1.00000000 -6.1365839e-17
vn 0.0000000e+0 -1.00000000 -6.1148995e-17
vn 0.0000000e+0 0.0000000e+0 -1.00000000
vn -2.4091756e-20 -1.00000000 -6.1197185e-17
vn -0.27472111 0.0000000e+0 -0.96152395
vn -0.66666667 0.33333333 0.66666667
vn -1.00000000 0.0000000e+0 0.0000000e+0
vn -0.31684258 0.15842129 0.93515425
vn -0.96967569 0.24439528 0.0000000e+0
vn -0.96152395 -1.1429939e-16 -0.27472113
vn 0.67652234 0.29092104 -0.67652234
vn -0.97131054 0.19192830 -0.14042564
vn -0.66666667 0.33333333 0.66666667
vn 0.0000000e+0 0.0000000e+0 1.00000000
vn -0.93515425 0.15842129 0.31684258
vn 0.0000000e+0 0.24439528 0.96967569
vn 0.27472113 0.0000000e+0 0.96152395
vn 0.67652234 0.29092104 -0.67652234
vn 0.14042555 0.19192842 0.97131053
vn 0.66666662 0.33333335 0.66666670
vn 0.0000000e+0 0.0000000e+0 1.00000000
vn 0.0000000e+0 0.24439528 0.96967569
vn 0.93515425 0.15842129 0.31684258
vn -0.27472111 0.0000000e+0 0.96152395
vn -0.67652228 0.29092112 -0.67652236
vn -0.14042562 0.19192831 0.97131054
vn 0.66666662 0.33333335 0.66666670
vn 1.00000000 0.0000000e+0 0.0000000e+0
vn 0.31684258 0.15842131 0.93515425
vn 0.96967568 0.24439534 0.0000000e+0
vn 0.96152395 -1.1445190e-16 -0.27472113
vn -0.67652228 0.29092112 -0.67652236
vn 0.97131053 0.19192837 -0.14042559
vn -0.66666667 0.33333333 0.66666667
vn 0.0000000e+0 1.00000000 0.0000000e+0
vn 0.0000000e+0 1.00000000 0.0000000e+0
vn 0.0000000e+0 1.00000000 0.0000000e+0
vn -0.93515425 0.15842129 0.31684258
vn -0.31684258 0.15842129 0.93515425
vn 0.0000000e+0 1.00000000 0.0000000e+0
vn 0.66666662 0.33333335 0.66666670
vn 0.0000000e+0 1.00000000 0.0000000e+0
vn 0.0000000e+0 1.00000000 0.0000000e+0
vn 0.93515425 0.15842129 0.31684258
vn 0.31684258 0.15842131 0.93515425
vn -0.66666670 0.33333335 -0.66666662
vn -1.00000000 0.0000000e+0 0.0000000e+0
vn -0.31684258 0.15842129 -0.93515425
vn -0.96967569 0.24439528 0.0000000e+0
vn -0.96152395 2.2859877e-16 0.27472111
vn 0.67652235 0.29092117 0.67652227
vn -0.97131054 0.19192832 0.14042562
vn 0.0000000e+0 1.00000000 0.0000000e+0
vn 0.0000000e+0 1.00000000 0.0000000e+0
vn -0.66666670 0.33333335 -0.66666662
vn 0.0000000e+0 1.00000000 0.0000000e+0
vn -0.31684258 0.15842129 -0.93515425
vn -0.93515425 0.15842131 -0.31684258
vn 0.0000000e+0 1.00000000 0.0000000e+0
vn 0.0000000e+0 1.00000000 0.0000000e+0
vn 0.0000000e+0 1.00000000 0.0000000e+0
vn 0.66666666 0.33333337 -0.66666666
vn 0.31684258 0.15842131 -0.93515425
vn 0.93515425 0.15842131 -0.31684258
vn 0.66666666 0.33333337 -0.66666666
vn 1.00000000 0.0000000e+0 0.0000000e+0
vn 0.96967568 0.24439534 0.0000000e+0
vn 0.31684258 0.15842131 -0.93515425
vn 0.96152395 2.2890378e-16 0.27472111
vn -0.67652231 0.29092119 0.67652231
vn 0.97131054 0.19192832 0.14042562
vn -0.66666670 0.33333335 -0.66666662
vn 0.0000000e+0 0.0000000e+0 -1.00000000
vn -0.93515425 0.15842131 -0.31684258
vn 0.0000000e+0 0.24439534 -0.96967568
vn 0.27472113 0.0000000e+0 -0.96152395
vn 0.67652235 0.29092117 0.67652227
vn 0.14042563 0.19192831 -0.97131054
vn 0.66666666 0.33333337 -0.66666666
vn 0.0000000e+0 0.0000000e+0 -1.00000000
vn 0.93515425 0.15842131 -0.31684258
vn 0.0000000e+0 0.24439534 -0.96967568
vn -0.27472111 0.0000000e+0 -0.96152395
vn -0.67652231 0.29092119 0.67652231
vn -0.14042562 0.19192832 -0.97131054
vn 0.0000000e+0 1.00000000 0.0000000e+0
vn -0.93515425 0.15842129 0.31684258
vn 0.0000000e+0 0.24439528 0.96967569
vn 0.0000000e+0 1.00000000 0.0000000e+0
vn 0.0000000e+0 0.24439528 0.96967569
vn 0.93515425 0.15842129 0.31684258
vn 0.0000000e+0 1.00000000 0.0000000e+0
vn -0.31684258 0.15842129 0.93515425
vn -0.96967569 0.24439528 0.0000000e+0
vn 0.0000000e+0 1.00000000 0.0000000e+0
vn 0.31684258 0.15842131 0.93515425
vn 0.96967568 0.24439534 0.0000000e+0
vn 0.0000000e+0 1.00000000 0.0000000e+0
vn -0.31684258 0.15842129 -0.93515425
vn -0.96967569 0.24439528 0.0000000e+0
vn 0.0000000e+0 1.00000000 0.0000000e+0
vn 0.96967568 0.24439534 0.0000000e+0
vn 0.31684258 0.15842131 -0.93515425
vn 0.0000000e+0 1.00000000 0.0000000e+0
vn -0.93515425 0.15842131 -0.31684258
vn 0.0000000e+0 0.24439534 -0.96967568
vn 0.0000000e+0 1.00000000 0.0000000e+0
vn 0.93515425 0.15842131 -0.31684258
vn 0.0000000e+0 0.24439534 -0.96967568
vn 2.4093383e-20 -1.00000000 -6.1438130e-17
vn 0.27472113 0.0000000e+0 0.96152395
vn -0.96152395 -1.1429939e-16 -0.27472113
vn -0.97131054 0.19192830 -0.14042564
vn 0.14042555 0.19192842 0.97131053
vn -2.4093381e-20 -1.00000000 -6.1438125e-17
vn -0.27472111 0.0000000e+0 0.96152395
vn 0.96152395 -1.1445190e-16 -0.27472113
vn -0.14042562 0.19192831 0.97131054
vn 0.97131053 0.19192837 -0.14042559
vn 2.4091758e-20 -1.00000000 -6.1197191e-17
vn 0.27472113 0.0000000e+0 -0.96152395
vn -0.96152395 2.2859877e-16 0.27472111
vn 0.14042563 0.19192831 -0.97131054
vn -0.97131054 0.19192832 0.14042562
vn -2.4091756e-20 -1.00000000 -6.1197185e-17
vn -0.27472111 0.0000000e+0 -0.96152395
vn 0.96152395 2.2890378e-16 0.27472111
vn 0.97131054 0.19192832 0.14042562
vn -0.14042562 0.19192832 -0.97131054
vn 0.67652234 0.29092104 -0.67652234
vn -0.97131054 0.19192830 -0.14042564
vn 0.14042555 0.19192842 0.97131053
vn -0.67652228 0.29092112 -0.67652236
vn -0.14042562 0.19192831 0.97131054
vn 0.97131053 0.19192837 -0.14042559
vn 0.67652235 0.29092117 0.67652227
vn 0.14042563 0.19192831 -0.97131054
vn -0.97131054 0.19192832 0.14042562
vn -0.67652231 0.29092119 0.67652231
vn 0.97131054 0.19192832 0.14042562
vn -0.14042562 0.19192832 -0.97131054
g Box02_sep12_Stones_Travertn
usemtl Stones_Travertn
f 1/4/1 5/7/21 2/8/6
f 1/4/2 7/3/29 8/6/34 5/7/23
f 1/22/3 13/21/58 19/28/98 7/27/31
f 1/22/5 33/17/163 13/21/61
f 2/8/7 5/7/22 6/11/25 3/12/11
f 2/8/9 33/2/161 1/4/4
f 3/12/12 6/11/26 4/14/16
f 3/22/13 15/21/72 14/28/65 2/27/8
f 3/22/15 34/17/167 15/21/75
f 4/14/19 34/16/166 3/12/14
f 5/7/24 8/6/35 9/10/38 6/11/27
f 6/11/28 9/10/39 10/13/42 4/14/17
f 7/3/30 11/5/47 8/6/36
f 7/3/32 35/1/171 11/5/50
f 8/6/37 11/5/48 12/9/52 9/10/40
f 9/10/41 12/9/53 10/13/43
f 10/22/44 22/21/117 16/28/79 4/27/18
f 10/22/46 36/17/178 22/21/120
f 11/22/49 23/21/124 24/28/131 12/27/54
f 11/22/51 35/17/172 23/21/127
f 12/9/55 36/15/176 10/13/45
f 13/21/60 27/23/145 29/24/151 19/28/100
f 13/31/62 37/30/181 14/28/69
f 14/28/64 17/29/85 13/31/57
f 14/28/66 25/24/138 17/29/89
f 14/21/68 33/17/162 2/22/10
f 14/21/70 37/18/183 33/17/165
f 15/21/73 26/23/141 25/24/139 14/28/67
f 15/31/76 38/30/184 16/28/83
f 16/28/78 18/29/92 15/31/71
f 16/28/80 28/24/147 18/29/96
f 16/21/82 34/17/168 4/22/20
f 16/21/84 38/18/186 34/17/170
f 17/26/86 25/24/137 26/23/140 18/20/91
f 17/29/90 27/24/144 13/28/59
f 18/19/93 21/25/110 20/26/105 17/20/88
f 18/29/95 26/24/142 15/28/74
f 18/26/94 28/24/146 30/23/152 21/20/111
f 19/28/99 29/24/150 20/29/108
f 19/21/101 35/17/173 7/22/33
f 19/21/103 39/18/189 35/17/175
f 20/29/106 23/31/123 19/28/97
f 20/26/104 29/24/149 27/23/143 17/20/87
f 20/29/109 31/24/156 23/28/125
f 21/29/114 30/24/154 22/28/119
f 21/26/112 32/24/158 31/23/155 20/20/107
f 22/31/116 24/28/130 21/29/113
f 22/21/118 30/23/153 28/24/148 16/28/81
f 22/31/121 40/30/190 24/28/135
f 23/21/126 31/23/157 32/24/160 24/28/133
f 23/31/128 39/30/187 19/28/102
f 24/28/132 32/24/159 21/29/115
f 24/21/134 36/17/177 12/22/56
f 24/21/136 40/18/192 36/17/180
f 33/17/164 37/18/182 13/21/63
f 34/17/169 38/18/185 15/21/77
f 35/17/174 39/18/188 23/21/129
f 36/17/179 40/18/191 22/21/122
