# Exported from Wings 3D 1.0.1
mtllib collar.mtl
o Box02
#32 vertices, 26 faces
v 0.30376142 1.00100005 -0.12640792
v 0.12640789 1.00100005 -0.30376142
v -0.12440787 1.00100005 -0.30376139
v -0.30176142 1.00100005 -0.12640788
v -0.30176139 1.00100005 0.12440790
v -0.12440783 1.00100005 0.30176142
v 0.12640795 1.00100005 0.30176139
v 0.30376142 1.00100005 0.12440778
v 0.48225394 3.00099993 -0.20034200
v 0.20034188 3.00099993 -0.48225400
v -0.19834192 3.00099993 -0.48225382
v -0.48025396 3.00099993 -0.20034185
v -0.48025391 3.00099993 0.19834197
v -0.19834182 3.00099993 0.48025393
v 0.20034203 3.00099993 0.48025388
v 0.48225397 3.00099993 0.19834174
v 1.00100005 3.00099993 -0.38368350
v 0.38368335 3.00099993 -1.00100005
v -0.38168356 3.00099993 -1.00100005
v -0.99900013 3.00099993 -0.38368326
v -0.99900001 3.00099993 0.38168359
v -0.38168329 3.00099993 0.99900013
v 0.38368359 3.00099993 0.99900001
v 1.00100017 3.00099993 0.38168323
v 1.00100005 4.00099993 -0.38368350
v 0.38368335 4.00099993 -1.00100005
v -0.38168356 4.00099993 -1.00100005
v -0.99900013 4.00099993 -0.38368326
v -0.99900001 4.00099993 0.38168359
v -0.38168329 4.00099993 0.99900013
v 0.38368359 4.00099993 0.99900001
v 1.00100017 4.00099993 0.38168323
vt 1.2549579e-2 0.25790644
vt 1.2552261e-2 1.5923589e-2
vt 1.4422774e-2 0.48873743
vt 1.4424443e-2 0.30353177
vt 0.13995099 0.44437292
vt 0.13995183 0.34789842
vt 0.16192979 0.25790793
vt 0.16193247 1.5925229e-2
vt 0.16380167 0.63811898
vt 0.20816839 0.51259148
vt 0.34713560 0.25791013
vt 0.34713823 1.5927315e-2
vt 0.37846419 0.97134852
vt 0.37846443 0.91065514
vt 0.60810483 5.4119952e-2
vt 0.60810483 0.10691134
vt 0.64798963 1.4234988e-2
vt 0.64798963 0.14679620
vt 0.70078111 1.4234988e-2
vt 0.70078111 0.14679620
vt 0.74066591 5.4119952e-2
vt 0.74066591 0.10691138
vt 0.86339200 0.98924094
vt 0.86339247 0.89276630
vn 0.0000000e+0 -1.00000000 0.0000000e+0
vn 0.70430741 -8.8892969e-2 -0.70430754
vn 0.99604118 -8.8892961e-2 -4.5703412e-8
vn 0.0000000e+0 -1.00000000 0.0000000e+0
vn 0.70430741 -8.8892969e-2 -0.70430754
vn -3.1992382e-7 -8.8892947e-2 -0.99604119
vn 0.0000000e+0 -1.00000000 0.0000000e+0
vn -3.1992382e-7 -8.8892947e-2 -0.99604119
vn -0.70430740 -8.8892940e-2 -0.70430756
vn 0.0000000e+0 -1.00000000 0.0000000e+0
vn -0.70430740 -8.8892940e-2 -0.70430756
vn -0.99604118 -8.8892961e-2 1.3711020e-7
vn 0.0000000e+0 -1.00000000 0.0000000e+0
vn -0.99604118 -8.8892961e-2 1.3711020e-7
vn -0.70430735 -8.8892956e-2 0.70430760
vn 0.0000000e+0 -1.00000000 0.0000000e+0
vn -0.70430735 -8.8892956e-2 0.70430760
vn 1.3711020e-7 -8.8892947e-2 0.99604119
vn 0.0000000e+0 -1.00000000 0.0000000e+0
vn 1.3711020e-7 -8.8892947e-2 0.99604119
vn 0.70430773 -8.8892953e-2 0.70430723
vn 0.0000000e+0 -1.00000000 0.0000000e+0
vn 0.70430773 -8.8892953e-2 0.70430723
vn 0.99604118 -8.8892961e-2 -4.5703412e-8
vn 0.70430741 -8.8892969e-2 -0.70430754
vn 0.99604118 -8.8892961e-2 -4.5703412e-8
vn 0.0000000e+0 -1.00000000 0.0000000e+0
vn 0.0000000e+0 -1.00000000 0.0000000e+0
vn 0.70430741 -8.8892969e-2 -0.70430754
vn -3.1992382e-7 -8.8892947e-2 -0.99604119
vn 0.0000000e+0 -1.00000000 0.0000000e+0
vn 0.0000000e+0 -1.00000000 0.0000000e+0
vn -3.1992382e-7 -8.8892947e-2 -0.99604119
vn -0.70430740 -8.8892940e-2 -0.70430756
vn 0.0000000e+0 -1.00000000 0.0000000e+0
vn 0.0000000e+0 -1.00000000 0.0000000e+0
vn -0.70430740 -8.8892940e-2 -0.70430756
vn -0.99604118 -8.8892961e-2 1.3711020e-7
vn 0.0000000e+0 -1.00000000 0.0000000e+0
vn 0.0000000e+0 -1.00000000 0.0000000e+0
vn -0.99604118 -8.8892961e-2 1.3711020e-7
vn -0.70430735 -8.8892956e-2 0.70430760
vn 0.0000000e+0 -1.00000000 0.0000000e+0
vn 0.0000000e+0 -1.00000000 0.0000000e+0
vn -0.70430735 -8.8892956e-2 0.70430760
vn 1.3711020e-7 -8.8892947e-2 0.99604119
vn 0.0000000e+0 -1.00000000 0.0000000e+0
vn 0.0000000e+0 -1.00000000 0.0000000e+0
vn 1.3711020e-7 -8.8892947e-2 0.99604119
vn 0.70430773 -8.8892953e-2 0.70430723
vn 0.0000000e+0 -1.00000000 0.0000000e+0
vn 0.0000000e+0 -1.00000000 0.0000000e+0
vn 0.70430773 -8.8892953e-2 0.70430723
vn 0.99604118 -8.8892961e-2 -4.5703412e-8
vn 0.0000000e+0 -1.00000000 0.0000000e+0
vn 0.0000000e+0 -1.00000000 0.0000000e+0
vn 0.0000000e+0 -1.00000000 0.0000000e+0
vn 0.0000000e+0 -1.00000000 0.0000000e+0
vn 0.70710670 0.0000000e+0 -0.70710687
vn 1.00000000 8.6461099e-24 -1.5575447e-7
vn 0.0000000e+0 -1.00000000 0.0000000e+0
vn 0.0000000e+0 -1.00000000 0.0000000e+0
vn 0.70710670 0.0000000e+0 -0.70710687
vn 0.0000000e+0 0.0000000e+0 -1.00000000
vn 0.0000000e+0 -1.00000000 0.0000000e+0
vn 0.0000000e+0 -1.00000000 0.0000000e+0
vn 0.0000000e+0 0.0000000e+0 -1.00000000
vn -0.70710690 0.0000000e+0 -0.70710666
vn 0.0000000e+0 -1.00000000 0.0000000e+0
vn 0.0000000e+0 -1.00000000 0.0000000e+0
vn -0.70710690 0.0000000e+0 -0.70710666
vn -1.00000000 -8.6461086e-24 1.5575445e-7
vn 0.0000000e+0 -1.00000000 0.0000000e+0
vn 0.0000000e+0 -1.00000000 0.0000000e+0
vn -1.00000000 -8.6461086e-24 1.5575445e-7
vn -0.70710668 0.0000000e+0 0.70710688
vn 0.0000000e+0 -1.00000000 0.0000000e+0
vn 0.0000000e+0 -1.00000000 0.0000000e+0
vn -0.70710668 0.0000000e+0 0.70710688
vn 1.5575444e-7 0.0000000e+0 1.00000000
vn 0.0000000e+0 -1.00000000 0.0000000e+0
vn 0.0000000e+0 -1.00000000 0.0000000e+0
vn 1.5575444e-7 0.0000000e+0 1.00000000
vn 0.70710690 0.0000000e+0 0.70710666
vn 0.0000000e+0 -1.00000000 0.0000000e+0
vn 0.0000000e+0 -1.00000000 0.0000000e+0
vn 0.70710690 0.0000000e+0 0.70710666
vn 1.00000000 8.6461099e-24 -1.5575447e-7
vn 0.70710670 0.0000000e+0 -0.70710687
vn 1.00000000 8.6461099e-24 -1.5575447e-7
vn 0.0000000e+0 1.00000000 0.0000000e+0
vn 0.70710670 0.0000000e+0 -0.70710687
vn 0.0000000e+0 0.0000000e+0 -1.00000000
vn 0.0000000e+0 1.00000000 0.0000000e+0
vn 0.0000000e+0 0.0000000e+0 -1.00000000
vn -0.70710690 0.0000000e+0 -0.70710666
vn 0.0000000e+0 1.00000000 0.0000000e+0
vn -0.70710690 0.0000000e+0 -0.70710666
vn -1.00000000 -8.6461086e-24 1.5575445e-7
vn 0.0000000e+0 1.00000000 0.0000000e+0
vn -1.00000000 -8.6461086e-24 1.5575445e-7
vn -0.70710668 0.0000000e+0 0.70710688
vn 0.0000000e+0 1.00000000 0.0000000e+0
vn -0.70710668 0.0000000e+0 0.70710688
vn 1.5575444e-7 0.0000000e+0 1.00000000
vn 0.0000000e+0 1.00000000 0.0000000e+0
vn 1.5575444e-7 0.0000000e+0 1.00000000
vn 0.70710690 0.0000000e+0 0.70710666
vn 0.0000000e+0 1.00000000 0.0000000e+0
vn 0.70710690 0.0000000e+0 0.70710666
vn 1.00000000 8.6461099e-24 -1.5575447e-7
vn 0.0000000e+0 1.00000000 0.0000000e+0
g Box02_Stones_Travertn
usemtl Stones_Travertn
f 1/21/1 8/22/22 7/20/19 6/18/16 5/16/13 4/15/10 3/17/7 2/19/4
f 1/14/3 9/24/26 16/23/54 8/13/24
f 2/14/5 10/24/29 9/23/25 1/13/2
f 3/14/8 11/24/33 10/23/30 2/13/6
f 4/14/11 12/24/37 11/23/34 3/13/9
f 5/14/14 13/24/41 12/23/38 4/13/12
f 6/14/17 14/24/45 13/23/42 5/13/15
f 7/14/20 15/24/49 14/23/46 6/13/18
f 8/14/23 16/24/53 15/23/50 7/13/21
f 9/5/28 17/3/58 24/4/86 16/6/56
f 10/10/31 18/9/61 17/3/57 9/5/27
f 11/5/35 19/3/65 18/4/62 10/6/32
f 12/10/39 20/9/69 19/3/66 11/5/36
f 13/5/43 21/3/73 20/4/70 12/6/40
f 14/10/47 22/9/77 21/3/74 13/5/44
f 15/5/51 23/3/81 22/4/78 14/6/48
f 16/10/55 24/9/85 23/3/82 15/5/52
f 17/12/60 25/11/90 32/7/111 24/8/88
f 18/8/63 26/7/92 25/1/89 17/2/59
f 19/12/67 27/11/95 26/7/93 18/8/64
f 20/8/71 28/7/98 27/1/96 19/2/68
f 21/12/75 29/11/101 28/7/99 20/8/72
f 22/8/79 30/7/104 29/1/102 21/2/76
f 23/12/83 31/11/107 30/7/105 22/8/80
f 24/8/87 32/7/110 31/1/108 23/2/84
f 26/16/94 27/15/97 28/17/100 29/19/103 30/21/106 31/22/109 32/20/112 25/18/91
