# Exported from Wings 3D 1.0.1
mtllib crown.mtl
o Box02_sep11
#24 vertices, 30 faces
v -0.99900001 4.00099993 -0.35088894
v -0.34900001 4.00099993 -1.00100005
v 0.35099998 4.00099993 -1.00100005
v 1.00100005 4.00099993 -0.35088894
v -0.99900001 4.00099993 0.34888878
v -0.34900001 4.00099993 0.99900001
v 0.35099998 4.00099993 0.99900001
v 1.00100005 4.00099993 0.34888878
v -0.34900001 4.00099993 -0.35105565
v 0.35099998 4.00099993 -0.35105565
v 0.35099992 5.00099993 -0.35105559
v -0.34900007 5.00099993 -0.35105559
v -0.34900001 4.00099993 0.34905556
v 0.35099998 4.00099993 0.34905556
v 0.35099992 5.00099993 0.34905562
v -0.34900007 5.00099993 0.34905562
v -0.34900001 3.00099993 -0.35105568
v 0.35099998 3.00099993 -0.35105568
v -0.34900001 3.00099993 0.34905553
v 0.35099998 3.00099993 0.34905553
v -0.62990940 5.50099993 -0.63184249
v 0.63190937 5.50099993 -0.63184249
v -0.62990940 5.50099993 0.62984240
v 0.63190937 5.50099993 0.62984240
vt 2.7057631e-2 0.85476369
vt 3.4559712e-2 0.64206636
vt 0.11592315 0.90587610
vt 0.16039442 0.44517684
vt 0.16039573 0.26752779
vt 0.19632725 0.64217705
vt 0.28475845 0.44517767
vt 0.28475976 0.26752871
vt 0.42619124 0.31437176
vt 0.42621329 2.6219651e-2
vt 0.48917112 0.48608750
vt 0.59530830 2.6220962e-2
vt 0.59532642 0.31437290
vt 0.60437042 0.48543262
vt 0.60464841 0.60157353
vt 0.86642253 0.25403920
vt 0.86679876 1.5020901e-2
vt 0.86745489 0.13022017
vt 0.99079645 0.25404155
vt 0.99113309 1.5024332e-2
vt 0.99182212 0.13022307
vn 0.0000000e+0 -1.00000000 0.0000000e+0
vn 0.0000000e+0 -1.00000000 0.0000000e+0
vn -0.83844364 0.54498832 0.0000000e+0
vn -0.70655685 4.1538513e-2 -0.70643610
vn -0.40547841 0.26370681 0.87524052
vn 0.0000000e+0 -1.00000000 0.0000000e+0
vn 0.0000000e+0 -1.00000000 0.0000000e+0
vn 0.0000000e+0 0.54495561 -0.83846490
vn -0.70655685 4.1538513e-2 -0.70643610
vn 0.87507851 0.26374819 -0.40580105
vn 0.0000000e+0 -1.00000000 0.0000000e+0
vn 0.0000000e+0 -1.00000000 0.0000000e+0
vn 0.0000000e+0 0.54495561 -0.83846490
vn 0.70655682 4.1538527e-2 -0.70643613
vn -0.87507840 0.26374823 -0.40580126
vn 0.0000000e+0 -1.00000000 0.0000000e+0
vn 0.0000000e+0 -1.00000000 0.0000000e+0
vn 0.83844357 0.54498842 0.0000000e+0
vn 0.70655682 4.1538527e-2 -0.70643613
vn 0.40547830 0.26370681 0.87524058
vn 0.0000000e+0 -1.00000000 0.0000000e+0
vn 0.0000000e+0 -1.00000000 0.0000000e+0
vn -0.83844364 0.54498832 0.0000000e+0
vn -0.70655692 4.1538513e-2 0.70643604
vn -0.40547817 0.26370681 -0.87524064
vn 0.0000000e+0 -1.00000000 0.0000000e+0
vn 0.0000000e+0 -1.00000000 0.0000000e+0
vn 0.0000000e+0 0.54495557 0.83846492
vn -0.70655692 4.1538513e-2 0.70643604
vn 0.87507846 0.26374822 0.40580113
vn 0.0000000e+0 -1.00000000 0.0000000e+0
vn 0.0000000e+0 -1.00000000 0.0000000e+0
vn 0.0000000e+0 0.54495557 0.83846492
vn 0.70655688 4.1538527e-2 0.70643607
vn -0.87507836 0.26374825 0.40580134
vn 0.0000000e+0 -1.00000000 0.0000000e+0
vn 0.0000000e+0 -1.00000000 0.0000000e+0
vn 0.83844357 0.54498842 0.0000000e+0
vn 0.70655688 4.1538527e-2 0.70643607
vn 0.40547805 0.26370680 -0.87524069
vn 0.0000000e+0 -1.00000000 0.0000000e+0
vn 0.0000000e+0 -1.00000000 0.0000000e+0
vn 0.0000000e+0 -1.00000000 0.0000000e+0
vn 0.0000000e+0 2.9802322e-8 -1.00000000
vn -1.00000000 0.0000000e+0 0.0000000e+0
vn 0.0000000e+0 -1.00000000 0.0000000e+0
vn 0.0000000e+0 -1.00000000 0.0000000e+0
vn 0.0000000e+0 -1.00000000 0.0000000e+0
vn 0.0000000e+0 2.9802322e-8 -1.00000000
vn 1.00000000 0.0000000e+0 0.0000000e+0
vn 0.0000000e+0 0.54495561 -0.83846490
vn 0.83844357 0.54498842 0.0000000e+0
vn 0.0000000e+0 1.00000000 0.0000000e+0
vn -0.87507840 0.26374823 -0.40580126
vn 0.40547830 0.26370681 0.87524058
vn 0.0000000e+0 0.54495561 -0.83846490
vn 0.0000000e+0 1.00000000 0.0000000e+0
vn -0.83844364 0.54498832 0.0000000e+0
vn 0.87507851 0.26374819 -0.40580105
vn -0.40547841 0.26370681 0.87524052
vn 0.0000000e+0 -1.00000000 0.0000000e+0
vn 0.0000000e+0 -1.00000000 0.0000000e+0
vn 0.0000000e+0 -1.00000000 0.0000000e+0
vn -1.00000000 0.0000000e+0 0.0000000e+0
vn 0.0000000e+0 -2.9802322e-8 1.00000000
vn 0.0000000e+0 -1.00000000 0.0000000e+0
vn 0.0000000e+0 -1.00000000 0.0000000e+0
vn 0.0000000e+0 -1.00000000 0.0000000e+0
vn 1.00000000 0.0000000e+0 0.0000000e+0
vn 0.0000000e+0 -2.9802322e-8 1.00000000
vn 0.83844357 0.54498842 0.0000000e+0
vn 0.0000000e+0 1.00000000 0.0000000e+0
vn 0.0000000e+0 0.54495557 0.83846492
vn 0.40547805 0.26370680 -0.87524069
vn -0.87507836 0.26374825 0.40580134
vn 0.0000000e+0 1.00000000 0.0000000e+0
vn -0.83844364 0.54498832 0.0000000e+0
vn 0.0000000e+0 0.54495557 0.83846492
vn -0.40547817 0.26370681 -0.87524064
vn 0.87507846 0.26374822 0.40580113
vn 0.0000000e+0 -1.00000000 0.0000000e+0
vn 0.0000000e+0 2.9802322e-8 -1.00000000
vn -1.00000000 0.0000000e+0 0.0000000e+0
vn 0.0000000e+0 -1.00000000 0.0000000e+0
vn 0.0000000e+0 2.9802322e-8 -1.00000000
vn 1.00000000 0.0000000e+0 0.0000000e+0
vn 0.0000000e+0 -1.00000000 0.0000000e+0
vn -1.00000000 0.0000000e+0 0.0000000e+0
vn 0.0000000e+0 -2.9802322e-8 1.00000000
vn 0.0000000e+0 -1.00000000 0.0000000e+0
vn 1.00000000 0.0000000e+0 0.0000000e+0
vn 0.0000000e+0 -2.9802322e-8 1.00000000
vn -0.70655685 4.1538513e-2 -0.70643610
vn 0.87507851 0.26374819 -0.40580105
vn -0.40547841 0.26370681 0.87524052
vn 0.70655682 4.1538527e-2 -0.70643613
vn -0.87507840 0.26374823 -0.40580126
vn 0.40547830 0.26370681 0.87524058
vn -0.70655692 4.1538513e-2 0.70643604
vn -0.40547817 0.26370681 -0.87524064
vn 0.87507846 0.26374822 0.40580113
vn 0.70655688 4.1538527e-2 0.70643607
vn 0.40547805 0.26370680 -0.87524069
vn -0.87507836 0.26374825 0.40580134
g Box02_sep11_Stones_Travertn
usemtl Stones_Travertn
f 1/20/2 9/21/43 13/18/61 5/17/21
f 1/2/4 21/3/93 2/6/9
f 2/11/6 9/14/41 1/15/1
f 2/12/8 12/13/56 11/9/51 3/10/13
f 2/2/10 21/3/94 12/1/59
f 3/20/11 10/21/46 9/18/42 2/17/7
f 3/2/14 22/3/96 4/6/19
f 4/11/16 10/14/47 3/15/12
f 4/12/18 11/13/52 15/9/71 8/10/38
f 4/2/20 22/3/98 11/1/55
f 5/11/22 13/14/62 6/15/26
f 5/12/23 16/13/77 12/9/58 1/10/3
f 5/2/25 23/3/100 16/1/79
f 6/20/27 13/21/63 14/18/67 7/17/31
f 6/2/29 23/3/99 5/6/24
f 7/11/32 14/14/68 8/15/37
f 7/12/33 15/13/73 16/9/78 6/10/28
f 7/2/35 24/3/104 15/1/75
f 8/20/36 14/21/66 10/18/48 4/17/17
f 8/2/39 24/3/102 7/6/34
f 9/4/45 17/5/83 19/8/88 13/7/64
f 10/4/49 18/5/85 17/8/82 9/7/44
f 11/1/54 22/3/97 3/2/15
f 12/19/57 16/16/76 15/18/72 11/21/53
f 12/1/60 21/3/95 1/2/5
f 13/4/65 19/5/89 20/8/92 14/7/70
f 14/4/69 20/5/91 18/8/86 10/7/50
f 15/1/74 24/3/103 8/2/40
f 16/1/80 23/3/101 6/2/30
f 18/18/84 20/21/90 19/19/87 17/16/81
o Box02_sep6
#5 vertices, 6 faces
v -0.34900001 5.00099993 0.34900001
v 0.35099998 5.00099993 0.34900001
v 1.0000000e-3 5.00099993 -1.0000000e-3
v 1.0000000e-3 6.00099993 -9.9998515e-4
v 1.0000000e-3 4.65100002 0.34899998
vt 0.14157562 0.87466711
vt 0.24267577 0.58151412
vt 0.24267577 0.97434819
vt 0.34377599 0.87466711
vt 0.84447342 0.37709230
vt 0.91596276 0.27599284
vt 0.98744845 0.66595089
vt 0.98745054 0.37709326
vn 0.0000000e+0 0.33035042 0.94385836
vn -0.70710678 1.0536712e-8 -0.70710678
vn 0.0000000e+0 -8.5149516e-8 1.00000000
vn -0.57735023 -0.57735035 -0.57735023
vn 0.0000000e+0 0.33035042 0.94385836
vn 0.70710681 1.0536712e-8 -0.70710676
vn 0.57735026 -0.57735033 -0.57735022
vn 0.0000000e+0 -8.5149516e-8 1.00000000
vn 0.70710681 1.0536712e-8 -0.70710676
vn -0.70710678 1.0536712e-8 -0.70710678
vn 0.57735026 -0.57735033 -0.57735022
vn -0.57735023 -0.57735035 -0.57735023
vn 0.0000000e+0 0.33035042 0.94385836
vn 0.70710681 1.0536712e-8 -0.70710676
vn -0.70710678 1.0536712e-8 -0.70710678
vn 0.57735026 -0.57735033 -0.57735022
vn 0.0000000e+0 -8.5149516e-8 1.00000000
vn -0.57735023 -0.57735035 -0.57735023
g Box02_sep6_Stones_Travertn
usemtl Stones_Travertn
f 25/26/106 28/28/119 27/29/114
f 25/25/107 29/24/121 26/22/112
f 26/22/109 28/23/117 25/25/105
f 26/26/111 29/27/120 27/29/115
f 27/29/113 28/28/118 26/26/110
f 27/29/116 29/27/122 25/26/108
o Box02_sep5
#5 vertices, 6 faces
v 1.0000000e-3 5.00099993 -1.0000000e-3
v -0.34900001 5.00099993 -0.35099998
v 0.35099998 5.00099993 -0.35099998
v 1.0000000e-3 6.00099993 -1.0000149e-3
v 1.0000000e-3 4.65100002 -0.35099995
vt 0.14157562 0.87466711
vt 0.24267577 0.58151412
vt 0.24267577 0.97434819
vt 0.34377599 0.87466711
vt 0.84447342 0.37709230
vt 0.91596276 0.27599284
vt 0.98744845 0.66595089
vt 0.98745054 0.37709326
vn 0.70710678 1.0536712e-8 0.70710678
vn -0.70710676 1.0536712e-8 0.70710681
vn 0.57735024 -0.57735032 0.57735024
vn -0.57735022 -0.57735033 0.57735026
vn 0.0000000e+0 0.33035040 -0.94385837
vn -0.70710676 1.0536712e-8 0.70710681
vn 0.0000000e+0 -8.5149516e-8 -1.00000000
vn -0.57735022 -0.57735033 0.57735026
vn 0.0000000e+0 0.33035040 -0.94385837
vn 0.70710678 1.0536712e-8 0.70710678
vn 0.57735024 -0.57735032 0.57735024
vn 0.0000000e+0 -8.5149516e-8 -1.00000000
vn 0.0000000e+0 0.33035040 -0.94385837
vn 0.70710678 1.0536712e-8 0.70710678
vn -0.70710676 1.0536712e-8 0.70710681
vn 0.57735024 -0.57735032 0.57735024
vn 0.0000000e+0 -8.5149516e-8 -1.00000000
vn -0.57735022 -0.57735033 0.57735026
g Box02_sep5_Stones_Travertn
usemtl Stones_Travertn
f 30/37/124 33/36/137 31/34/128
f 30/37/125 34/35/138 32/34/133
f 31/30/127 33/31/135 32/33/131
f 31/34/130 34/35/140 30/37/126
f 32/34/132 33/36/136 30/37/123
f 32/33/134 34/32/139 31/30/129
o Box02_sep4
#5 vertices, 6 faces
v 1.0000000e-3 5.00099993 -1.0000000e-3
v -0.34899998 5.00099993 0.34900004
v -0.34900004 5.00099993 -0.35099995
v 9.9998515e-4 6.00099993 -1.0000000e-3
v -0.34899998 4.65100002 -9.9998480e-4
vt 0.14157562 0.87466711
vt 0.24267577 0.58151412
vt 0.24267577 0.97434819
vt 0.34377599 0.87466711
vt 0.84447342 0.37709230
vt 0.91596276 0.27599284
vt 0.98744845 0.66595089
vt 0.98745054 0.37709326
vn 0.70710669 1.0536711e-8 -0.70710687
vn 0.70710684 1.0536713e-8 0.70710672
vn 0.57735017 -0.57735032 -0.57735031
vn 0.57735027 -0.57735036 0.57735017
vn -0.94385836 0.33035042 8.0369062e-8
vn 0.70710684 1.0536713e-8 0.70710672
vn -1.00000000 -8.5149523e-8 8.5149494e-8
vn 0.57735027 -0.57735036 0.57735017
vn -0.94385836 0.33035042 8.0369062e-8
vn 0.70710669 1.0536711e-8 -0.70710687
vn 0.57735017 -0.57735032 -0.57735031
vn -1.00000000 -8.5149523e-8 8.5149494e-8
vn -0.94385836 0.33035042 8.0369062e-8
vn 0.70710669 1.0536711e-8 -0.70710687
vn 0.70710684 1.0536713e-8 0.70710672
vn 0.57735017 -0.57735032 -0.57735031
vn -1.00000000 -8.5149523e-8 8.5149494e-8
vn 0.57735027 -0.57735036 0.57735017
g Box02_sep4_Stones_Travertn
usemtl Stones_Travertn
f 35/45/142 38/44/155 36/42/146
f 35/45/143 39/43/156 37/42/151
f 36/38/145 38/39/153 37/41/149
f 36/42/148 39/43/158 35/45/144
f 37/42/150 38/44/154 35/45/141
f 37/41/152 39/40/157 36/38/147
o Box02_sep3
#5 vertices, 6 faces
v 1.0000000e-3 5.00099993 -1.0000000e-3
v 0.35100001 5.00099993 0.34899998
v 0.35099995 5.00099993 -0.35100001
v 1.0000149e-3 6.00099993 -1.0000000e-3
v 0.35099995 4.65100002 -1.0000153e-3
vt 0.14157562 0.87466711
vt 0.24267577 0.58151412
vt 0.24267577 0.97434819
vt 0.34377599 0.87466711
vt 0.84447342 0.37709230
vt 0.91596276 0.27599284
vt 0.98744845 0.66595089
vt 0.98745054 0.37709326
vn -0.70710684 1.0536713e-8 -0.70710672
vn -0.70710675 1.0536712e-8 0.70710682
vn -0.57735028 -0.57735034 -0.57735019
vn -0.57735022 -0.57735032 0.57735027
vn 0.94385837 0.33035040 -8.0369062e-8
vn -0.70710675 1.0536712e-8 0.70710682
vn 1.00000000 -8.5149516e-8 -8.5149494e-8
vn -0.57735022 -0.57735032 0.57735027
vn 0.94385837 0.33035040 -8.0369062e-8
vn -0.70710684 1.0536713e-8 -0.70710672
vn -0.57735028 -0.57735034 -0.57735019
vn 1.00000000 -8.5149516e-8 -8.5149494e-8
vn 0.94385837 0.33035040 -8.0369062e-8
vn -0.70710684 1.0536713e-8 -0.70710672
vn -0.70710675 1.0536712e-8 0.70710682
vn -0.57735028 -0.57735034 -0.57735019
vn 1.00000000 -8.5149516e-8 -8.5149494e-8
vn -0.57735022 -0.57735032 0.57735027
g Box02_sep3_Stones_Travertn
usemtl Stones_Travertn
f 40/53/159 43/52/172 42/50/168
f 40/53/162 44/51/176 41/50/166
f 41/50/164 43/52/173 40/53/160
f 41/49/165 44/48/175 42/46/170
f 42/46/167 43/47/171 41/49/163
f 42/50/169 44/51/174 40/53/161
