# Exported from Wings 3D 1.0.1
mtllib barrel1.mtl
o Object03
#32 vertices, 26 faces
v 0.21099998 3.36240268 0.78901124
v 0.14949240 3.51089501 0.78901124
v 9.9995593e-4 3.57240272 0.78901124
v -0.14749247 3.51089501 0.78901124
v -0.20900004 3.36240268 0.78901124
v -0.14749244 3.21391034 0.78901124
v 9.9999260e-4 3.15240264 0.78901124
v 0.14949243 3.21391034 0.78901124
v 0.21099995 3.36240268 2.49912858
v 0.14949237 3.51089501 2.49912858
v 9.9992484e-4 3.57240272 2.49912858
v -0.14749251 3.51089501 2.49912858
v -0.20900007 3.36240268 2.49912858
v -0.14749248 3.21391010 2.49912858
v 9.9996163e-4 3.15240264 2.49912858
v 0.14949240 3.21391010 2.49912858
v 0.43375757 3.36240244 2.78901124
v 0.30700579 3.66840839 2.78901124
v 9.9993870e-4 3.79516006 2.78901124
v -0.30500594 3.66840839 2.78901124
v -0.43175769 3.36240244 2.78901124
v -0.30500588 3.05639672 2.78901124
v 1.0000144e-3 2.92964482 2.78901124
v 0.30700585 3.05639672 2.78901124
v 0.43375757 3.36240244 3.78901124
v 0.30700579 3.66840816 3.78901124
v 9.9993870e-4 3.79516006 3.78901124
v -0.30500594 3.66840816 3.78901124
v -0.43175769 3.36240244 3.78901124
v -0.30500588 3.05639648 3.78901124
v 1.0000144e-3 2.92964482 3.78901124
v 0.30700585 3.05639648 3.78901124
vt 5.5634506e-2 0.50436515
vt 5.6938037e-2 0.50121814
vt 5.6938037e-2 0.50751215
vt 6.0085036e-2 0.49991465
vt 6.0085036e-2 0.50881571
vt 6.3232034e-2 0.50121814
vt 6.3232034e-2 0.50751215
vt 6.4535573e-2 0.50436515
vt 0.26824778 0.93530369
vt 0.26834533 0.90704137
vt 0.26834533 0.96330476
vt 0.59225696 0.90717959
vt 0.59225696 0.93531114
vt 0.59227651 0.96332353
vt 0.64724326 0.87720060
vt 0.64724326 0.93517303
vt 0.64724326 0.99314553
vt 0.83669221 0.87720060
vt 0.83669221 0.93517303
vt 0.83669221 0.99314553
vt 0.84612775 0.91745263
vt 0.86770278 0.86536586
vt 0.86770278 0.96953934
vt 0.91978955 0.84379089
vt 0.91978955 0.99111438
vt 0.97187626 0.86536586
vt 0.97187626 0.96953934
vt 0.99345124 0.91745263
vn 0.87946522 2.0013959e-7 -0.47596315
vn 0.62187599 0.62187572 -0.47596307
vn -1.2066610e-8 0.87946517 -0.47596326
vn -0.62187603 0.62187566 -0.47596310
vn -0.87946521 4.9480541e-8 -0.47596318
vn -0.62187581 -0.62187581 -0.47596319
vn 2.4376958e-9 -0.87946520 -0.47596320
vn 0.62187588 -0.62187574 -0.47596319
vn 0.94527859 1.6917569e-7 -0.32626430
vn 0.66841300 0.66841286 -0.32626416
vn -5.0964694e-9 0.94527863 -0.32626418
vn -0.66841304 0.66841282 -0.32626417
vn -0.94527858 4.7435056e-9 -0.32626431
vn -0.66841287 -0.66841289 -0.32626438
vn 7.3404128e-9 -0.94527854 -0.32626442
vn 0.66841294 -0.66841280 -0.32626442
vn 0.94527859 9.3965470e-8 -0.32626430
vn 0.66841292 0.66841295 -0.32626415
vn 8.7711901e-9 0.94527866 -0.32626408
vn -0.66841294 0.66841292 -0.32626415
vn -0.94527859 -6.7837124e-8 -0.32626429
vn -0.66841284 -0.66841292 -0.32626439
vn 2.2285594e-8 -0.94527854 -0.32626444
vn 0.66841293 -0.66841281 -0.32626443
vn 0.87946523 7.3108821e-8 0.47596314
vn 0.62187580 0.62187581 0.47596320
vn 1.1355997e-8 0.87946518 0.47596323
vn -0.62187581 0.62187579 0.47596321
vn -0.87946522 -7.3108816e-8 0.47596316
vn -0.62187580 -0.62187589 0.47596309
vn 2.7680246e-8 -0.87946527 0.47596307
vn 0.62187589 -0.62187579 0.47596310
g Object03_01 - Default
usemtl 01 - Default
f 1/5/1 8/3/8 7/1/7 6/2/6 5/4/5 4/6/4 3/8/3 2/7/2
f 1/9/1 9/13/9 16/14/16 8/11/8
f 2/10/2 10/12/10 9/13/9 1/9/1
f 3/9/3 11/13/11 10/12/10 2/10/2
f 4/11/4 12/14/12 11/13/11 3/9/3
f 5/9/5 13/13/13 12/12/12 4/10/4
f 6/11/6 14/14/14 13/13/13 5/9/5
f 7/9/7 15/13/15 14/14/14 6/11/6
f 8/10/8 16/12/16 15/13/15 7/9/7
f 9/13/9 17/16/17 24/17/24 16/14/16
f 10/12/10 18/15/18 17/16/17 9/13/9
f 11/13/11 19/16/19 18/15/18 10/12/10
f 12/14/12 20/17/20 19/16/19 11/13/11
f 13/13/13 21/16/21 20/15/20 12/12/12
f 14/14/14 22/17/22 21/16/21 13/13/13
f 15/13/15 23/16/23 22/17/22 14/14/14
f 16/12/16 24/15/24 23/16/23 15/13/15
f 17/16/17 25/19/25 32/20/32 24/17/24
f 18/15/18 26/18/26 25/19/25 17/16/17
f 19/16/19 27/19/27 26/18/26 18/15/18
f 20/17/20 28/20/28 27/19/27 19/16/19
f 21/16/21 29/19/29 28/18/28 20/15/20
f 22/17/22 30/20/30 29/19/29 21/16/21
f 23/16/23 31/19/31 30/20/30 22/17/22
f 24/15/24 32/18/32 31/19/31 23/16/23
f 26/27/26 27/25/27 28/23/28 29/21/29 30/22/30 31/24/31 32/26/32 25/28/25
