# Exported from Wings 3D 1.0.1
mtllib base.mtl
o Cylinder01
#24 vertices, 20 faces
v 2.00099993 1.0000000e-3 -1.0000000e-3
v 1.00099993 1.0000000e-3 -1.73305094
v -0.99900013 1.0000000e-3 -1.73305082
v -1.99899995 1.0000000e-3 -9.9982519e-4
v -0.99899983 1.0000000e-3 1.73105085
v 1.00100029 1.0000000e-3 1.73105061
v 2.00099993 0.33433333 -1.0000000e-3
v 1.00099993 0.33433333 -1.73305094
v -0.99900013 0.33433333 -1.73305082
v -1.99899995 0.33433333 -9.9982519e-4
v -0.99899983 0.33433333 1.73105085
v 1.00100029 0.33433333 1.73105061
v 1.80862367 0.66766667 -1.0000000e-3
v 0.90481174 0.66766667 -1.56644809
v -0.90281194 0.66766667 -1.56644797
v -1.80662358 0.66766667 -9.9984207e-4
v -0.90281165 0.66766667 1.56444800
v 0.90481204 0.66766667 1.56444776
v 1.29009593 1.00100005 -1.0000000e-3
v 0.64554793 1.00100005 -1.11738992
v -0.64354801 1.00100005 -1.11738980
v -1.28809583 1.00100005 -9.9988736e-4
v -0.64354783 1.00100005 1.11538982
v 0.64554811 1.00100005 1.11538959
vt 1.1440089e-2 0.47741920
vt 1.1440923e-2 0.24898098
vt 2.1795452e-2 0.53000355
vt 3.2658026e-2 0.51118904
vt 3.2658026e-2 0.54881811
vt 5.4383166e-2 0.51118904
vt 5.4383166e-2 0.54881811
vt 5.5403166e-2 0.47741935
vt 5.5404000e-2 0.24898115
vt 6.5245748e-2 0.53000355
vt 8.8072501e-2 0.49826527
vt 9.9366240e-2 0.45544645
vt 9.9366955e-2 0.24898130
vt 0.18780966 0.32551563
vt 0.18780966 0.67101496
vt 0.38728377 0.32551563
vt 0.38728377 0.67101496
vt 0.43109304 0.30169767
vt 0.43109307 0.33798459
vt 0.44156417 0.26541078
vt 0.46355030 0.56665653
vt 0.48702094 0.49826527
vt 0.50366890 0.49716949
vt 0.63834333 0.26541084
vt 0.64881438 0.30169767
vt 0.64881444 0.33798459
vt 0.70314300 0.49716997
vt 0.74326134 0.56665725
vn 0.86602541 -0.49999998 -3.1138599e-8
vn 0.43301269 -0.50000001 -0.75000000
vn -0.43301277 -0.50000001 -0.74999996
vn -0.86602541 -0.50000000 9.0939031e-8
vn -0.43301262 -0.50000000 0.75000004
vn 0.43301279 -0.50000000 0.74999995
vn 0.96482084 0.26290824 -3.6502507e-8
vn 0.48241041 0.26290828 -0.83555935
vn -0.48241049 0.26290831 -0.83555930
vn -0.96482083 0.26290830 1.0138875e-7
vn -0.48241032 0.26290832 0.83555939
vn 0.48241051 0.26290829 0.83555929
vn 0.71836826 0.69566303 -2.7125856e-8
vn 0.35918411 0.69566305 -0.62212515
vn -0.35918416 0.69566308 -0.62212508
vn -0.71836822 0.69566306 7.9299396e-8
vn -0.35918404 0.69566307 0.62212516
vn 0.35918417 0.69566305 0.62212510
vn 0.36831029 0.92970293 -1.2706843e-8
vn 0.18415514 0.92970292 -0.31896608
vn -0.18415517 0.92970293 -0.31896605
vn -0.36831029 0.92970292 4.3539774e-8
vn -0.18415511 0.92970292 0.31896609
vn 0.18415517 0.92970292 0.31896606
g Cylinder01_01 - Default
usemtl 01 - Default
f 1/3/1 6/4/6 5/6/5 4/10/4 3/7/3 2/5/2
f 1/2/1 7/9/7 12/8/12 6/1/6
f 2/1/2 8/8/8 7/9/7 1/2/1
f 3/19/3 9/18/9 8/25/8 2/26/2
f 4/2/4 10/9/10 9/8/9 3/1/3
f 5/1/5 11/8/11 10/9/10 4/2/4
f 6/19/6 12/18/12 11/25/11 5/26/5
f 7/9/7 13/13/13 18/12/18 12/8/12
f 8/8/8 14/12/14 13/13/13 7/9/7
f 9/18/9 15/20/15 14/24/14 8/25/8
f 10/9/10 16/13/16 15/12/15 9/8/9
f 11/8/11 17/12/17 16/13/16 10/9/10
f 12/18/12 18/20/18 17/24/17 11/25/11
f 13/21/13 19/23/19 24/27/24 18/28/18
f 14/21/14 20/23/20 19/27/19 13/28/13
f 15/28/15 21/27/21 20/23/20 14/21/14
f 16/21/16 22/23/22 21/27/21 15/28/15
f 17/21/17 23/23/23 22/27/22 16/28/16
f 18/21/18 24/23/24 23/27/23 17/28/17
f 20/14/20 21/16/21 22/22/22 23/17/23 24/15/24 19/11/19
