# Exported from Wings 3D 1.0.1
mtllib sleeve.mtl
o Object02
#35 vertices, 41 faces
v -0.39242199 2.96898079 -9.9987036e-4
v 0.39442196 2.96898079 -9.9987036e-4
v -0.39242199 3.75582457 -9.9983590e-4
v 0.39442196 3.75582457 -9.9983590e-4
v -0.39242199 2.96898055 0.78584409
v 0.39442196 2.96898055 0.78584409
v -0.39242199 3.75582457 0.78584415
v 0.39442196 3.75582457 0.78584415
v -0.20094645 3.16045618 -0.78784382
v 0.20294645 3.16045618 -0.78784382
v -0.20094645 3.56434917 -0.78784376
v 0.20294645 3.56434917 -0.78784376
v -0.20094645 3.16045618 -1.57468784
v 0.20294645 3.16045618 -1.57468784
v -0.20094645 3.56434917 -1.57468784
v 0.20294645 3.56434917 -1.57468784
v -0.39242199 3.90759444 -6.6666654e-4
v 0.39442196 3.90759444 -6.6663139e-4
v -0.20094645 4.32888174 -0.78751063
v 0.20294644 4.32888174 -0.78751063
v -5.5024005e-2 3.16045642 -2.36153173
v 5.7024002e-2 3.16045642 -2.36153173
v -5.5024005e-2 3.56434917 -2.36153173
v 5.7024002e-2 3.56434917 -2.36153173
v -0.20094645 4.35119295 -1.57468772
v 0.20294645 4.35119295 -1.57468772
v -5.5024005e-2 3.81092739 -2.36153173
v 5.7024002e-2 3.81092739 -2.36153173
v 1.0000070e-3 4.05097961 0.53756350
v -0.19551481 4.25305176 1.39567065
v 0.19751482 4.25305176 1.39567065
v 1.0000893e-3 5.71748352 -1.29331291
v 1.18126595 3.36240268 0.39242214
v 1.00859070 4.32845831 0.39242217
v 1.61604488 3.95044446 -0.73243946
vt 9.6327867e-3 0.12257584
vt 9.6336231e-3 7.0393384e-3
vt 6.7400210e-2 0.23811285
vt 0.11595762 0.26691860
vt 0.11595762 0.28337112
vt 0.12516940 0.12257668
vt 0.12517023 7.0401728e-3
vt 0.15320246 0.12364525
vt 0.15320246 0.22867858
vt 0.20571916 0.15678757
vt 0.21903336 0.97652215
vt 0.21903394 0.81477112
vt 0.24070609 9.4462141e-2
vt 0.24070650 3.5156384e-2
vt 0.25023243 0.97652227
vt 0.25023299 0.81477123
vt 0.25610733 0.24549192
vt 0.25610733 0.30479765
vt 0.25823575 0.12364525
vt 0.25823575 0.22867858
vt 0.34021908 0.17616218
vt 0.35349718 0.10350680
vt 0.35624254 9.4462983e-2
vt 0.35624298 3.5157219e-2
vt 0.38864136 0.24792755
vt 0.42130619 0.32631600
vt 0.43437457 0.63455623
vt 0.46277356 0.24792755
vt 0.47177932 7.3037259e-2
vt 0.47177944 5.6584604e-2
vt 0.48610851 2.5417298e-2
vt 0.48610851 8.4723026e-2
vt 0.49142408 0.69191396
vt 0.49791789 0.10350680
vt 0.50445843 0.37211740
vt 0.50445843 0.48765415
vt 0.51655418 0.10468184
vt 0.51655418 0.22021846
vt 0.56105191 0.59528774
vt 0.58431232 0.23721492
vt 0.60055304 2.5417298e-2
vt 0.60055304 8.4723026e-2
vt 0.61999500 0.37211740
vt 0.61999500 0.48765415
vt 0.63265544 8.1717402e-2
vt 0.63270420 0.10400259
vt 0.63270420 0.21953909
vt 0.71017671 0.28803459
vt 0.73553163 0.42988575
vt 0.74819189 1.9857511e-2
vt 0.74824071 0.13211796
vt 0.74824071 0.19142370
vt 0.75188303 0.44040865
vt 0.75188380 0.54640543
vt 0.75930572 3.8153358e-2
vt 0.75930613 9.5864028e-2
vt 0.79405117 0.66998971
vt 0.79405117 0.68644238
vt 0.84884971 9.2396680e-3
vt 0.84885049 0.12477627
vt 0.85335690 0.66998971
vt 0.85335690 0.68644238
vt 0.85711139 0.49539566
vt 0.86377716 1.6581485e-2
vt 0.86377716 0.13211796
vt 0.86377716 0.19142370
vt 0.88956326 0.66998971
vt 0.88956326 0.68644238
vt 0.89556730 0.33864447
vt 0.91721767 0.33988476
vt 0.97931403 9.5911592e-2
vt 0.97931403 0.13211796
vt 0.97931403 0.19142370
vt 0.98234969 0.20859340
vt 0.98554885 0.26653785
vt 0.98565298 0.48272705
vn -0.69715170 -0.69715171 -0.16720948
vn 0.50664058 -0.77814168 -0.37122883
vn -0.90403186 0.42730022 1.1871100e-2
vn 0.50276793 0.67925051 -0.53464302
vn -0.57735031 -0.57735036 0.57735014
vn 0.31666929 -0.67071637 0.67071612
vn -0.83887093 0.24924755 0.48391241
vn 0.40791423 0.39830748 0.82155774
vn -0.69715171 -0.69715172 -0.16720938
vn 0.69715171 -0.69715172 -0.16720937
vn -0.85561109 0.29087503 -0.42816046
vn 0.85561110 0.29087504 -0.42816044
vn -0.70265346 -0.70859329 -6.4603872e-2
vn 0.70265346 -0.70859329 -6.4603875e-2
vn -0.92867545 0.31305741 0.19888934
vn 0.92867545 0.31305741 0.19888934
vn -0.53943737 0.48831468 0.68597092
vn 0.53943733 0.48831469 0.68597094
vn -0.63975687 0.58085923 -0.50330280
vn 0.63975686 0.58085925 -0.50330278
vn -0.53602477 -0.54516453 -0.64457202
vn 0.53602476 -0.54516453 -0.64457202
vn -0.63939671 6.8392164e-9 -0.76887701
vn 0.63939670 6.8392167e-9 -0.76887701
vn -0.75197253 0.63048045 0.19243624
vn 0.75197253 0.63048046 0.19243623
vn -0.45337856 0.38012874 -0.80619478
vn 0.45337856 0.38012874 -0.80619478
vn 1.8616294e-8 0.91933421 -0.39347759
vn -0.89134519 0.30469276 0.33565768
vn 0.89134520 0.30469271 0.33565770
vn -1.5220866e-8 0.96829616 0.24980502
vn 0.83243401 -0.48945087 0.25979120
vn 0.14133009 0.89671408 0.41943971
vn 0.47744016 0.13450888 -0.86830770
g Object02_01 - Default
usemtl 01 - Default
f 1/47/1 5/38/5 7/37/7 3/46/3
f 1/7/1 9/14/9 10/13/10 2/6/2
f 2/6/2 6/1/6 5/2/5 1/7/1
f 2/47/2 10/52/10 12/51/12 4/46/4
f 2/6/2 33/3/33 6/1/6
f 3/46/3 11/51/11 9/52/9 1/47/1
f 3/46/3 17/45/17 19/50/19 11/51/11
f 3/9/3 29/10/29 4/20/4
f 4/12/4 18/16/18 17/15/17 3/11/3
f 4/20/4 29/10/29 8/19/8
f 4/53/4 33/63/33 2/54/2
f 4/53/4 35/70/35 33/63/33
f 6/44/6 8/43/8 7/35/7 5/36/5
f 6/44/6 33/49/33 8/43/8
f 7/8/7 29/10/29 3/9/3
f 7/33/7 30/39/30 29/27/29
f 8/60/8 31/56/31 30/55/30 7/59/7
f 8/19/8 34/21/34 4/20/4
f 9/14/9 13/24/13 14/23/14 10/13/10
f 10/52/10 14/66/14 16/65/16 12/51/12
f 11/51/11 15/65/15 13/66/13 9/52/9
f 11/31/11 19/41/19 20/42/20 12/32/12
f 12/31/12 16/41/16 15/42/15 11/32/11
f 12/51/12 20/50/20 18/45/18 4/46/4
f 13/24/13 21/30/21 22/29/22 14/23/14
f 14/66/14 22/73/22 24/72/24 16/65/16
f 15/65/15 23/72/23 21/73/21 13/66/13
f 15/65/15 25/64/25 27/71/27 23/72/23
f 16/31/16 26/41/26 25/42/25 15/32/15
f 18/34/18 20/28/20 19/25/19 17/22/17
f 21/57/21 23/61/23 24/62/24 22/58/22
f 23/61/23 27/67/27 28/68/28 24/62/24
f 24/72/24 28/71/28 26/64/26 16/65/16
f 26/18/26 28/5/28 27/4/27 25/17/25
f 29/27/29 31/39/31 8/33/8
f 29/69/29 32/40/32 31/75/31
f 30/75/30 32/40/32 29/69/29
f 31/74/31 32/40/32 30/75/30
f 33/49/33 34/48/34 8/43/8
f 33/63/33 35/70/35 34/76/34
f 34/21/34 35/26/35 4/20/4
