# Exported from Wings 3D 1.0.1
mtllib turret.mtl
o Object01
#28 vertices, 32 faces
v -0.38944963 1.00100005 0.38944963
v 0.39144960 1.00100005 0.38944963
v 1.0000318e-3 1.00100005 -1.11761582
v -0.38944963 1.39263856 0.59054720
v 0.39144966 1.39263856 0.59054720
v -0.38944963 1.39263856 1.3309443e-2
v 0.39144957 1.39263856 1.3309490e-2
v -0.38944963 1.70620859 0.59054720
v 0.39144957 1.70620859 0.59054720
v -0.38944963 1.70620847 1.3309397e-2
v 0.39144957 1.70620847 1.3309397e-2
v -1.17034876 1.79683828 0.59054720
v -1.17034876 1.79683828 1.3309443e-2
v -0.65842611 2.21647882 0.59054714
v -0.65842611 2.21647882 1.3309350e-2
v -1.17034876 2.21647882 0.59054720
v -1.17034876 2.21647882 1.3309397e-2
v -0.38944963 2.97232842 0.38944957
v -0.38944963 2.97232842 -0.39144960
v -0.65012467 2.97232842 0.38944957
v -0.65012467 2.97232842 -0.39144960
v -0.38944963 3.75322771 0.13014425
v -0.38944963 3.75322771 -0.13214430
v -0.65012467 3.75322771 0.13014428
v -0.65012467 3.75322771 -0.13214429
v -1.95124805 2.00665855 0.30192828
v -1.70136857 2.00665855 2.61766481
v -1.70136857 2.00665832 -2.01380777
vt 4.5241229e-2 0.55384302
vt 6.4504206e-2 0.54885238
vt 6.4504206e-2 0.55883366
vt 0.23364395 0.73170304
vt 0.23364395 0.80510330
vt 0.26552656 0.89791995
vt 0.26552770 0.84455949
vt 0.26909083 0.82907927
vt 0.29927969 0.73089153
vt 0.29927969 0.80429173
vt 0.39539182 0.67942327
vt 0.39539182 0.77872062
vt 0.49468923 0.71239591
vt 0.49468923 0.74574792
vt 0.53066826 0.87048823
vt 0.57009155 0.63298792
vt 0.57028592 0.74935782
vt 0.61361331 0.86625487
vt 0.63971227 0.58421350
vt 0.63971227 0.61736029
vt 0.65596986 0.63298780
vt 0.65616417 0.74935776
vt 0.66601384 0.72031814
vt 0.66640604 0.68029636
vt 0.69197708 0.63049650
vt 0.73671490 0.74611545
vt 0.73900968 0.58421350
vt 0.73900968 0.61736029
vt 0.73941404 0.72031814
vt 0.73980623 0.68029636
vt 0.75184119 0.68524408
vt 0.75184119 0.71859604
vt 0.78498799 0.68524408
vt 0.78498799 0.71859604
vt 0.83512169 0.51806295
vt 0.83512169 0.58315784
vt 0.88361210 0.63049650
vt 0.88848227 0.51806295
vt 0.88889945 0.69646680
vt 0.88889945 0.79576409
vt 0.90000659 0.61736029
vt 0.90000659 0.71665764
vt 0.93987936 0.61736029
vt 0.93987936 0.71665764
vt 0.95813590 0.82907927
vt 0.98980480 0.61731076
vt 0.98980480 0.71660805
vn -0.47810158 -0.80561608 0.34985941
vn 0.47810160 -0.80561607 0.34985942
vn 4.2790124e-8 -0.50472408 -0.86328072
vn -0.41770928 -0.44446383 0.79244612
vn 0.73395834 -0.23531175 0.63712914
vn -0.49419210 -4.0599444e-2 -0.86840420
vn 0.75786475 0.29685001 -0.58096565
vn 0.25608868 0.42447999 0.86846723
vn 0.57735030 0.57735038 0.57735013
vn 0.25608862 0.42447980 -0.86846734
vn 0.57735024 0.57735018 -0.57735039
vn -5.8452881e-3 -0.77689262 0.62960598
vn -5.8453391e-3 -0.77689266 -0.62960592
vn 0.67360761 0.14313063 0.72509752
vn 0.69076286 -0.12895761 -0.71148901
vn -0.10776084 0.76987695 0.62902869
vn -0.12895892 0.67723891 -0.72437356
vn 0.70931152 8.6553282e-2 0.69956108
vn 0.71562296 -0.18136318 -0.67453034
vn -0.63331033 0.39559820 0.66514667
vn -0.69705846 0.15671457 -0.69967854
vn 0.52484369 0.69024279 0.49810038
vn 0.52484365 0.69024281 -0.49810039
vn -0.52484364 0.69024282 0.49810040
vn -0.52484367 0.69024280 -0.49810038
vn -1.00000000 -1.6307651e-8 -7.4864111e-9
vn 0.80888023 0.0000000e+0 0.58797345
vn 0.80888017 -1.0220655e-7 -0.58797353
g Object01_01 - Default
usemtl 01 - Default
f 1/3/1 3/1/3 2/2/2
f 1/25/1 4/24/4 6/30/6 3/37/3
f 2/47/2 5/44/5 4/43/4 1/46/1
f 3/37/3 7/30/7 5/24/5 2/25/2
f 4/21/4 12/22/12 13/17/13 6/16/6
f 5/44/5 9/42/9 8/41/8 4/43/4
f 6/39/6 7/40/7 3/26/3
f 6/43/6 10/41/10 11/42/11 7/44/7
f 6/43/6 13/38/13 10/41/10
f 7/30/7 11/29/11 9/23/9 5/24/5
f 8/41/8 12/38/12 4/43/4
f 8/41/8 14/36/14 16/35/16 12/38/12
f 9/16/9 11/21/11 10/22/10 8/17/8
f 10/4/10 15/9/15 14/10/14 8/5/8
f 12/22/12 26/18/26 13/17/13
f 12/22/12 27/45/27 26/18/26
f 13/38/13 17/35/17 15/36/15 10/41/10
f 13/7/13 28/15/28 17/6/17
f 14/36/14 18/28/18 20/27/20 16/35/16
f 15/9/15 19/11/19 18/12/18 14/10/14
f 16/10/16 20/12/20 21/11/21 17/9/17
f 16/6/16 27/15/27 12/7/12
f 17/35/17 21/27/21 19/28/19 15/36/15
f 17/22/17 26/18/26 16/17/16
f 17/22/17 28/45/28 26/18/26
f 18/28/18 22/20/22 24/19/24 20/27/20
f 19/11/19 23/13/23 22/14/22 18/12/18
f 20/12/20 24/14/24 25/13/25 21/11/21
f 21/27/21 25/19/25 23/20/23 19/28/19
f 23/34/23 25/32/25 24/31/24 22/33/22
f 26/18/26 27/8/27 16/17/16
f 26/18/26 28/8/28 13/17/13
